<svg version="1.1" xmlns="http://www.w3.org/2000/svg" viewBox="0 0 1135 837.5" width="1135" height="837.5"><!-- svg-source:excalidraw --><metadata></metadata><defs><style class="style-fonts">
      </style></defs><rect x="0" y="0" width="1135" height="837.5" fill="#f8fafc"></rect><g transform="translate(12.5 10) rotate(0 160.875 10.5)"><text x="160.875" y="14.34" font-family="Segoe UI Emoji" font-size="15px" fill="#1e293b" text-anchor="middle" style="white-space: pre;" direction="ltr" dominant-baseline="alphabetic">Tenant Registration &amp; Provisioning Flow</text></g><g stroke-linecap="round" transform="translate(10 45.5) rotate(0 62.5 21)"><path d="M6 0 C43.45 0, 80.9 0, 119 0 C123 0, 125 2, 125 6 C125 13.88, 125 21.77, 125 36 C125 40, 123 42, 119 42 C76.19 42, 33.38 42, 6 42 C2 42, 0 40, 0 36 C0 29.91, 0 23.82, 0 6 C0 2, 2 0, 6 0" stroke="none" stroke-width="0" fill="#dbeafe"></path><path d="M6 0 C41.32 0, 76.65 0, 119 0 M6 0 C46.35 0, 86.71 0, 119 0 M119 0 C123 0, 125 2, 125 6 M119 0 C123 0, 125 2, 125 6 M125 6 C125 16.88, 125 27.77, 125 36 M125 6 C125 17.06, 125 28.13, 125 36 M125 36 C125 40, 123 42, 119 42 M125 36 C125 40, 123 42, 119 42 M119 42 C81.39 42, 43.78 42, 6 42 M119 42 C92.33 42, 65.66 42, 6 42 M6 42 C2 42, 0 40, 0 36 M6 42 C2 42, 0 40, 0 36 M0 36 C0 29.21, 0 22.43, 0 6 M0 36 C0 26.04, 0 16.09, 0 6 M0 6 C0 2, 2 0, 6 0 M0 6 C0 2, 2 0, 6 0" stroke="#3b82f6" stroke-width="1.5" fill="none"></path></g><g transform="translate(47.75 61.5) rotate(0 24.75 7)"><text x="24.750000000000004" y="9.559999999999999" font-family="Segoe UI Emoji" font-size="10px" fill="#1e293b" text-anchor="middle" style="white-space: pre;" direction="ltr" dominant-baseline="alphabetic">New Admin</text></g><g stroke-linecap="round"><g transform="translate(72.5 87.5) rotate(0 0 360)"><path d="M0 0 C0 120, 0 600, 0 720" stroke="#94a3b8" stroke-width="1.5" fill="none" stroke-dasharray="8 9"></path></g></g><mask></mask><g stroke-linecap="round" transform="translate(175 45.5) rotate(0 62.5 21)"><path d="M6 0 C37.23 0, 68.45 0, 119 0 C123 0, 125 2, 125 6 C125 17.54, 125 29.07, 125 36 C125 40, 123 42, 119 42 C81.12 42, 43.24 42, 6 42 C2 42, 0 40, 0 36 C0 27.84, 0 19.68, 0 6 C0 2, 2 0, 6 0" stroke="none" stroke-width="0" fill="#dbeafe"></path><path d="M6 0 C34.28 0, 62.56 0, 119 0 M6 0 C37.61 0, 69.22 0, 119 0 M119 0 C123 0, 125 2, 125 6 M119 0 C123 0, 125 2, 125 6 M125 6 C125 15.03, 125 24.05, 125 36 M125 6 C125 15.69, 125 25.37, 125 36 M125 36 C125 40, 123 42, 119 42 M125 36 C125 40, 123 42, 119 42 M119 42 C91.91 42, 64.82 42, 6 42 M119 42 C88.45 42, 57.9 42, 6 42 M6 42 C2 42, 0 40, 0 36 M6 42 C2 42, 0 40, 0 36 M0 36 C0 29.57, 0 23.14, 0 6 M0 36 C0 27.4, 0 18.8, 0 6 M0 6 C0 2, 2 0, 6 0 M0 6 C0 2, 2 0, 6 0" stroke="#3b82f6" stroke-width="1.5" fill="none"></path></g><g transform="translate(217.5 61.5) rotate(0 20 7)"><text x="20" y="9.559999999999999" font-family="Segoe UI Emoji" font-size="10px" fill="#1e293b" text-anchor="middle" style="white-space: pre;" direction="ltr" dominant-baseline="alphabetic">Web App</text></g><g stroke-linecap="round"><g transform="translate(237.5 87.5) rotate(0 0 360)"><path d="M0 0 C0 120, 0 600, 0 720" stroke="#94a3b8" stroke-width="1.5" fill="none" stroke-dasharray="8 9"></path></g></g><mask></mask><g stroke-linecap="round" transform="translate(340 45.5) rotate(0 62.5 21)"><path d="M6 0 C29.93 0, 53.85 0, 119 0 C123 0, 125 2, 125 6 C125 16.01, 125 26.02, 125 36 C125 40, 123 42, 119 42 C79.43 42, 39.85 42, 6 42 C2 42, 0 40, 0 36 C0 24, 0 12.01, 0 6 C0 2, 2 0, 6 0" stroke="none" stroke-width="0" fill="#dbeafe"></path><path d="M6 0 C37.7 0, 69.41 0, 119 0 M6 0 C35.61 0, 65.23 0, 119 0 M119 0 C123 0, 125 2, 125 6 M119 0 C123 0, 125 2, 125 6 M125 6 C125 15.04, 125 24.09, 125 36 M125 6 C125 14.41, 125 22.83, 125 36 M125 36 C125 40, 123 42, 119 42 M125 36 C125 40, 123 42, 119 42 M119 42 C84.69 42, 50.39 42, 6 42 M119 42 C81.6 42, 44.19 42, 6 42 M6 42 C2 42, 0 40, 0 36 M6 42 C2 42, 0 40, 0 36 M0 36 C0 27.52, 0 19.04, 0 6 M0 36 C0 27.36, 0 18.73, 0 6 M0 6 C0 2, 2 0, 6 0 M0 6 C0 2, 2 0, 6 0" stroke="#3b82f6" stroke-width="1.5" fill="none"></path></g><g transform="translate(375 61.5) rotate(0 27.5 7)"><text x="27.500000000000004" y="9.559999999999999" font-family="Segoe UI Emoji" font-size="10px" fill="#1e293b" text-anchor="middle" style="white-space: pre;" direction="ltr" dominant-baseline="alphabetic">API Server</text></g><g stroke-linecap="round"><g transform="translate(402.5 87.5) rotate(0 0 360)"><path d="M0 0 C0 120, 0 600, 0 720" stroke="#94a3b8" stroke-width="1.5" fill="none" stroke-dasharray="8 9"></path></g></g><mask></mask><g stroke-linecap="round" transform="translate(505 45.5) rotate(0 62.5 21)"><path d="M6 0 C32.56 0, 59.11 0, 119 0 C123 0, 125 2, 125 6 C125 15.3, 125 24.6, 125 36 C125 40, 123 42, 119 42 C96 42, 73 42, 6 42 C2 42, 0 40, 0 36 C0 28.22, 0 20.44, 0 6 C0 2, 2 0, 6 0" stroke="none" stroke-width="0" fill="#f3e8ff"></path><path d="M6 0 C49.06 0, 92.13 0, 119 0 M6 0 C42.94 0, 79.88 0, 119 0 M119 0 C123 0, 125 2, 125 6 M119 0 C123 0, 125 2, 125 6 M125 6 C125 13.36, 125 20.72, 125 36 M125 6 C125 15.48, 125 24.96, 125 36 M125 36 C125 40, 123 42, 119 42 M125 36 C125 40, 123 42, 119 42 M119 42 C81.22 42, 43.43 42, 6 42 M119 42 C86.19 42, 53.38 42, 6 42 M6 42 C2 42, 0 40, 0 36 M6 42 C2 42, 0 40, 0 36 M0 36 C0 25.81, 0 15.62, 0 6 M0 36 C0 27.22, 0 18.44, 0 6 M0 6 C0 2, 2 0, 6 0 M0 6 C0 2, 2 0, 6 0" stroke="#9333ea" stroke-width="1.5" fill="none"></path></g><g transform="translate(547.5 51.5) rotate(0 20 7)"><text x="20" y="9.559999999999999" font-family="Segoe UI Emoji" font-size="10px" fill="#1e293b" text-anchor="middle" style="white-space: pre;" direction="ltr" dominant-baseline="alphabetic">Email</text></g><g transform="translate(547.5 69.5) rotate(0 20 7)"><text x="20" y="9.559999999999999" font-family="Segoe UI Emoji" font-size="10px" fill="#64748b" text-anchor="middle" style="white-space: pre;" direction="ltr" dominant-baseline="alphabetic">Service</text></g><g stroke-linecap="round"><g transform="translate(567.5 87.5) rotate(0 0 360)"><path d="M0 0 C0 120, 0 600, 0 720" stroke="#94a3b8" stroke-width="1.5" fill="none" stroke-dasharray="8 9"></path></g></g><mask></mask><g stroke-linecap="round" transform="translate(670 45.5) rotate(0 62.5 21)"><path d="M6 0 C29.81 0, 53.62 0, 119 0 C123 0, 125 2, 125 6 C125 12.89, 125 19.78, 125 36 C125 40, 123 42, 119 42 C75.62 42, 32.23 42, 6 42 C2 42, 0 40, 0 36 C0 28.22, 0 20.44, 0 6 C0 2, 2 0, 6 0" stroke="none" stroke-width="0" fill="#dbeafe"></path><path d="M6 0 C46.91 0, 87.81 0, 119 0 M6 0 C46.46 0, 86.92 0, 119 0 M119 0 C123 0, 125 2, 125 6 M119 0 C123 0, 125 2, 125 6 M125 6 C125 16.15, 125 26.29, 125 36 M125 6 C125 14.48, 125 22.95, 125 36 M125 36 C125 40, 123 42, 119 42 M125 36 C125 40, 123 42, 119 42 M119 42 C74.38 42, 29.77 42, 6 42 M119 42 C85.05 42, 51.09 42, 6 42 M6 42 C2 42, 0 40, 0 36 M6 42 C2 42, 0 40, 0 36 M0 36 C0 25.6, 0 15.2, 0 6 M0 36 C0 27.02, 0 18.04, 0 6 M0 6 C0 2, 2 0, 6 0 M0 6 C0 2, 2 0, 6 0" stroke="#3b82f6" stroke-width="1.5" fill="none"></path></g><g transform="translate(707.75 51.5) rotate(0 24.75 7)"><text x="24.750000000000004" y="9.559999999999999" font-family="Segoe UI Emoji" font-size="10px" fill="#1e293b" text-anchor="middle" style="white-space: pre;" direction="ltr" dominant-baseline="alphabetic">Wolverine</text></g><g transform="translate(712.5 69.5) rotate(0 20 7)"><text x="20" y="9.559999999999999" font-family="Segoe UI Emoji" font-size="10px" fill="#64748b" text-anchor="middle" style="white-space: pre;" direction="ltr" dominant-baseline="alphabetic">(Jobs)</text></g><g stroke-linecap="round"><g transform="translate(732.5 87.5) rotate(0 0 360)"><path d="M0 0 C0 120, 0 600, 0 720" stroke="#94a3b8" stroke-width="1.5" fill="none" stroke-dasharray="8 9"></path></g></g><mask></mask><g stroke-linecap="round" transform="translate(835 45.5) rotate(0 62.5 21)"><path d="M6 0 C50.08 0, 94.16 0, 119 0 C123 0, 125 2, 125 6 C125 17.7, 125 29.4, 125 36 C125 40, 123 42, 119 42 C86.86 42, 54.72 42, 6 42 C2 42, 0 40, 0 36 C0 25.8, 0 15.6, 0 6 C0 2, 2 0, 6 0" stroke="none" stroke-width="0" fill="#ffedd5"></path><path d="M6 0 C31.53 0, 57.06 0, 119 0 M6 0 C41.04 0, 76.08 0, 119 0 M119 0 C123 0, 125 2, 125 6 M119 0 C123 0, 125 2, 125 6 M125 6 C125 12.63, 125 19.26, 125 36 M125 6 C125 14.57, 125 23.15, 125 36 M125 36 C125 40, 123 42, 119 42 M125 36 C125 40, 123 42, 119 42 M119 42 C89.91 42, 60.82 42, 6 42 M119 42 C88.99 42, 58.98 42, 6 42 M6 42 C2 42, 0 40, 0 36 M6 42 C2 42, 0 40, 0 36 M0 36 C0 24.74, 0 13.49, 0 6 M0 36 C0 25.67, 0 15.34, 0 6 M0 6 C0 2, 2 0, 6 0 M0 6 C0 2, 2 0, 6 0" stroke="#ea580c" stroke-width="1.5" fill="none"></path></g><g transform="translate(870 51.5) rotate(0 27.5 7)"><text x="27.500000000000004" y="9.559999999999999" font-family="Segoe UI Emoji" font-size="10px" fill="#1e293b" text-anchor="middle" style="white-space: pre;" direction="ltr" dominant-baseline="alphabetic">PostgreSQL</text></g><g transform="translate(875.5 69.5) rotate(0 22 7)"><text x="22" y="9.559999999999999" font-family="Segoe UI Emoji" font-size="10px" fill="#64748b" text-anchor="middle" style="white-space: pre;" direction="ltr" dominant-baseline="alphabetic">(public)</text></g><g stroke-linecap="round"><g transform="translate(897.5 87.5) rotate(0 0 360)"><path d="M0 0 C0 120, 0 600, 0 720" stroke="#94a3b8" stroke-width="1.5" fill="none" stroke-dasharray="8 9"></path></g></g><mask></mask><g stroke-linecap="round" transform="translate(1000 45.5) rotate(0 62.5 21)"><path d="M6 0 C32.63 0, 59.27 0, 119 0 C123 0, 125 2, 125 6 C125 16.06, 125 26.12, 125 36 C125 40, 123 42, 119 42 C81.09 42, 43.18 42, 6 42 C2 42, 0 40, 0 36 C0 28.57, 0 21.14, 0 6 C0 2, 2 0, 6 0" stroke="none" stroke-width="0" fill="#ffedd5"></path><path d="M6 0 C38.88 0, 71.77 0, 119 0 M6 0 C40.32 0, 74.64 0, 119 0 M119 0 C123 0, 125 2, 125 6 M119 0 C123 0, 125 2, 125 6 M125 6 C125 16.78, 125 27.56, 125 36 M125 6 C125 16.2, 125 26.41, 125 36 M125 36 C125 40, 123 42, 119 42 M125 36 C125 40, 123 42, 119 42 M119 42 C83.89 42, 48.77 42, 6 42 M119 42 C87.18 42, 55.35 42, 6 42 M6 42 C2 42, 0 40, 0 36 M6 42 C2 42, 0 40, 0 36 M0 36 C0 25.78, 0 15.55, 0 6 M0 36 C0 29.89, 0 23.77, 0 6 M0 6 C0 2, 2 0, 6 0 M0 6 C0 2, 2 0, 6 0" stroke="#ea580c" stroke-width="1.5" fill="none"></path></g><g transform="translate(1035 51.5) rotate(0 27.5 7)"><text x="27.500000000000004" y="9.559999999999999" font-family="Segoe UI Emoji" font-size="10px" fill="#1e293b" text-anchor="middle" style="white-space: pre;" direction="ltr" dominant-baseline="alphabetic">PostgreSQL</text></g><g transform="translate(1040.5 69.5) rotate(0 22 7)"><text x="22" y="9.559999999999999" font-family="Segoe UI Emoji" font-size="10px" fill="#64748b" text-anchor="middle" style="white-space: pre;" direction="ltr" dominant-baseline="alphabetic">(tenant)</text></g><g stroke-linecap="round"><g transform="translate(1062.5 87.5) rotate(0 0 360)"><path d="M0 0 C0 120, 0 600, 0 720" stroke="#94a3b8" stroke-width="1.5" fill="none" stroke-dasharray="8 9"></path></g></g><mask></mask><g stroke-linecap="round"><g transform="translate(32.5 339.5) rotate(0 0 0)"><path d="M0 0 C0 0, 0 0, 0 0" stroke="#94a3b8" stroke-width="1.5" fill="none" stroke-dasharray="8 9"></path></g></g><mask></mask><g transform="translate(12.5 346.5) rotate(0 66 7)"><text x="66" y="9.559999999999999" font-family="Segoe UI Emoji" font-size="10px" fill="#64748b" text-anchor="middle" style="white-space: pre;" direction="ltr" dominant-baseline="alphabetic">== Email Verification ==</text></g><g stroke-linecap="round"><g transform="translate(32.5 567.5) rotate(0 0 0)"><path d="M0 0 C0 0, 0 0, 0 0" stroke="#94a3b8" stroke-width="1.5" fill="none" stroke-dasharray="8 9"></path></g></g><mask></mask><g transform="translate(12.5 574.5) rotate(0 66 7)"><text x="66" y="9.559999999999999" font-family="Segoe UI Emoji" font-size="10px" fill="#64748b" text-anchor="middle" style="white-space: pre;" direction="ltr" dominant-baseline="alphabetic">== Async Provisioning ==</text></g><g stroke-linecap="round"><g transform="translate(72.5 157.5) rotate(0 82.5 0)"><path d="M0 0 C27.5 0, 137.5 0, 165 0 M0 0 C27.5 0, 137.5 0, 165 0" stroke="#475569" stroke-width="1.5" fill="none"></path></g><g transform="translate(72.5 157.5) rotate(0 82.5 0)"><path d="M141.51 8.55 C149.67 5.58, 157.84 2.61, 165 0 M141.51 8.55 C148.77 5.91, 156.03 3.27, 165 0" stroke="#475569" stroke-width="1.5" fill="none"></path></g><g transform="translate(72.5 157.5) rotate(0 82.5 0)"><path d="M141.51 -8.55 C149.67 -5.58, 157.84 -2.61, 165 0 M141.51 -8.55 C148.77 -5.91, 156.03 -3.27, 165 0" stroke="#475569" stroke-width="1.5" fill="none"></path></g></g><mask></mask><g transform="translate(94.5 138.5) rotate(0 60.5 7)"><text x="60.50000000000001" y="9.559999999999999" font-family="Segoe UI Emoji" font-size="10px" fill="#64748b" text-anchor="middle" style="white-space: pre;" direction="ltr" dominant-baseline="alphabetic">Fill registration form</text></g><g stroke-linecap="round"><g transform="translate(237.5 197.5) rotate(0 82.5 0)"><path d="M0 0 C27.5 0, 137.5 0, 165 0 M0 0 C27.5 0, 137.5 0, 165 0" stroke="#475569" stroke-width="1.5" fill="none"></path></g><g transform="translate(237.5 197.5) rotate(0 82.5 0)"><path d="M141.51 8.55 C148.78 5.9, 156.05 3.26, 165 0 M141.51 8.55 C148.3 6.08, 155.1 3.6, 165 0" stroke="#475569" stroke-width="1.5" fill="none"></path></g><g transform="translate(237.5 197.5) rotate(0 82.5 0)"><path d="M141.51 -8.55 C148.78 -5.9, 156.05 -3.26, 165 0 M141.51 -8.55 C148.3 -6.08, 155.1 -3.6, 165 0" stroke="#475569" stroke-width="1.5" fill="none"></path></g></g><mask></mask><g transform="translate(267.75 178.5) rotate(0 52.25 7)"><text x="52.25000000000001" y="9.559999999999999" font-family="Segoe UI Emoji" font-size="10px" fill="#64748b" text-anchor="middle" style="white-space: pre;" direction="ltr" dominant-baseline="alphabetic">POST /auth/register</text></g><g stroke-linecap="round"><g transform="translate(402.5 237.5) rotate(0 247.5 0)"><path d="M0 0 C82.5 0, 412.5 0, 495 0 M0 0 C82.5 0, 412.5 0, 495 0" stroke="#475569" stroke-width="1.5" fill="none"></path></g><g transform="translate(402.5 237.5) rotate(0 247.5 0)"><path d="M471.51 8.55 C478.51 6, 485.51 3.45, 495 0 M471.51 8.55 C477.1 6.52, 482.69 4.48, 495 0" stroke="#475569" stroke-width="1.5" fill="none"></path></g><g transform="translate(402.5 237.5) rotate(0 247.5 0)"><path d="M471.51 -8.55 C478.51 -6, 485.51 -3.45, 495 0 M471.51 -8.55 C477.1 -6.52, 482.69 -4.48, 495 0" stroke="#475569" stroke-width="1.5" fill="none"></path></g></g><mask></mask><g transform="translate(581.25 218.5) rotate(0 68.75 7)"><text x="68.75" y="9.559999999999999" font-family="Segoe UI Emoji" font-size="10px" fill="#64748b" text-anchor="middle" style="white-space: pre;" direction="ltr" dominant-baseline="alphabetic">Save org (PENDING) + user</text></g><g stroke-linecap="round"><g transform="translate(402.5 277.5) rotate(0 82.5 0)"><path d="M0 0 C27.5 0, 137.5 0, 165 0 M0 0 C27.5 0, 137.5 0, 165 0" stroke="#475569" stroke-width="1.5" fill="none"></path></g><g transform="translate(402.5 277.5) rotate(0 82.5 0)"><path d="M141.51 8.55 C147.66 6.31, 153.81 4.07, 165 0 M141.51 8.55 C147.78 6.27, 154.05 3.98, 165 0" stroke="#475569" stroke-width="1.5" fill="none"></path></g><g transform="translate(402.5 277.5) rotate(0 82.5 0)"><path d="M141.51 -8.55 C147.66 -6.31, 153.81 -4.07, 165 0 M141.51 -8.55 C147.78 -6.27, 154.05 -3.98, 165 0" stroke="#475569" stroke-width="1.5" fill="none"></path></g></g><mask></mask><g transform="translate(421.75 258.5) rotate(0 63.25 7)"><text x="63.25000000000001" y="9.559999999999999" font-family="Segoe UI Emoji" font-size="10px" fill="#64748b" text-anchor="middle" style="white-space: pre;" direction="ltr" dominant-baseline="alphabetic">Send verification email</text></g><g stroke-linecap="round"><g transform="translate(402.5 309.5) rotate(0 -82.5 0)"><path d="M0 0 C-27.5 0, -137.5 0, -165 0" stroke="#475569" stroke-width="2" fill="none" stroke-dasharray="8 9.5"></path></g><g transform="translate(402.5 309.5) rotate(0 -82.5 0)"><path d="M-141.51 -8.55 C-149.05 -5.8, -156.6 -3.06, -165 0" stroke="#475569" stroke-width="2" fill="none"></path></g><g transform="translate(402.5 309.5) rotate(0 -82.5 0)"><path d="M-141.51 8.55 C-149.05 5.8, -156.6 3.06, -165 0" stroke="#475569" stroke-width="2" fill="none"></path></g></g><mask></mask><g transform="translate(287 290.5) rotate(0 33 7)"><text x="33" y="9.559999999999999" font-family="Segoe UI Emoji" font-size="10px" fill="#64748b" text-anchor="middle" style="white-space: pre;" direction="ltr" dominant-baseline="alphabetic">202 Accepted</text></g><g stroke-linecap="round"><g transform="translate(72.5 365.5) rotate(0 82.5 0)"><path d="M0 0 C27.5 0, 137.5 0, 165 0 M0 0 C27.5 0, 137.5 0, 165 0" stroke="#475569" stroke-width="1.5" fill="none"></path></g><g transform="translate(72.5 365.5) rotate(0 82.5 0)"><path d="M141.51 8.55 C150.32 5.34, 159.14 2.13, 165 0 M141.51 8.55 C150.62 5.24, 159.73 1.92, 165 0" stroke="#475569" stroke-width="1.5" fill="none"></path></g><g transform="translate(72.5 365.5) rotate(0 82.5 0)"><path d="M141.51 -8.55 C150.32 -5.34, 159.14 -2.13, 165 0 M141.51 -8.55 C150.62 -5.24, 159.73 -1.92, 165 0" stroke="#475569" stroke-width="1.5" fill="none"></path></g></g><mask></mask><g transform="translate(91.75 346.5) rotate(0 63.25 7)"><text x="63.25000000000001" y="9.559999999999999" font-family="Segoe UI Emoji" font-size="10px" fill="#64748b" text-anchor="middle" style="white-space: pre;" direction="ltr" dominant-baseline="alphabetic">Click verification link</text></g><g stroke-linecap="round"><g transform="translate(237.5 405.5) rotate(0 82.5 0)"><path d="M0 0 C27.5 0, 137.5 0, 165 0 M0 0 C27.5 0, 137.5 0, 165 0" stroke="#475569" stroke-width="1.5" fill="none"></path></g><g transform="translate(237.5 405.5) rotate(0 82.5 0)"><path d="M141.51 8.55 C147.38 6.41, 153.26 4.27, 165 0 M141.51 8.55 C148.91 5.86, 156.31 3.16, 165 0" stroke="#475569" stroke-width="1.5" fill="none"></path></g><g transform="translate(237.5 405.5) rotate(0 82.5 0)"><path d="M141.51 -8.55 C147.38 -6.41, 153.26 -4.27, 165 0 M141.51 -8.55 C148.91 -5.86, 156.31 -3.16, 165 0" stroke="#475569" stroke-width="1.5" fill="none"></path></g></g><mask></mask><g transform="translate(256.75 386.5) rotate(0 63.25 7)"><text x="63.25000000000001" y="9.559999999999999" font-family="Segoe UI Emoji" font-size="10px" fill="#64748b" text-anchor="middle" style="white-space: pre;" direction="ltr" dominant-baseline="alphabetic">POST /auth/verify-email</text></g><g stroke-linecap="round"><g transform="translate(402.5 445.5) rotate(0 247.5 0)"><path d="M0 0 C82.5 0, 412.5 0, 495 0 M0 0 C82.5 0, 412.5 0, 495 0" stroke="#475569" stroke-width="1.5" fill="none"></path></g><g transform="translate(402.5 445.5) rotate(0 247.5 0)"><path d="M471.51 8.55 C476.42 6.76, 481.33 4.98, 495 0 M471.51 8.55 C476.97 6.56, 482.43 4.57, 495 0" stroke="#475569" stroke-width="1.5" fill="none"></path></g><g transform="translate(402.5 445.5) rotate(0 247.5 0)"><path d="M471.51 -8.55 C476.42 -6.76, 481.33 -4.98, 495 0 M471.51 -8.55 C476.97 -6.56, 482.43 -4.57, 495 0" stroke="#475569" stroke-width="1.5" fill="none"></path></g></g><mask></mask><g transform="translate(573 426.5) rotate(0 77 7)"><text x="77" y="9.559999999999999" font-family="Segoe UI Emoji" font-size="10px" fill="#64748b" text-anchor="middle" style="white-space: pre;" direction="ltr" dominant-baseline="alphabetic">Mark VERIFIED + PROVISIONING</text></g><g stroke-linecap="round"><g transform="translate(402.5 485.5) rotate(0 165 0)"><path d="M0 0 C55 0, 275 0, 330 0 M0 0 C55 0, 275 0, 330 0" stroke="#475569" stroke-width="1.5" fill="none"></path></g><g transform="translate(402.5 485.5) rotate(0 165 0)"><path d="M306.51 8.55 C314.79 5.54, 323.08 2.52, 330 0 M306.51 8.55 C314.73 5.56, 322.95 2.56, 330 0" stroke="#475569" stroke-width="1.5" fill="none"></path></g><g transform="translate(402.5 485.5) rotate(0 165 0)"><path d="M306.51 -8.55 C314.79 -5.54, 323.08 -2.52, 330 0 M306.51 -8.55 C314.73 -5.56, 322.95 -2.56, 330 0" stroke="#475569" stroke-width="1.5" fill="none"></path></g></g><mask></mask><g transform="translate(496 466.5) rotate(0 71.5 7)"><text x="71.5" y="9.559999999999999" font-family="Segoe UI Emoji" font-size="10px" fill="#64748b" text-anchor="middle" style="white-space: pre;" direction="ltr" dominant-baseline="alphabetic">Enqueue ProvisionTenantJob</text></g><g stroke-linecap="round"><g transform="translate(402.5 525.5) rotate(0 -82.5 0)"><path d="M0 0 C-27.5 0, -137.5 0, -165 0" stroke="#475569" stroke-width="2" fill="none" stroke-dasharray="8 9.5"></path></g><g transform="translate(402.5 525.5) rotate(0 -82.5 0)"><path d="M-141.51 -8.55 C-147.25 -6.46, -153 -4.37, -165 0" stroke="#475569" stroke-width="2" fill="none"></path></g><g transform="translate(402.5 525.5) rotate(0 -82.5 0)"><path d="M-141.51 8.55 C-147.25 6.46, -153 4.37, -165 0" stroke="#475569" stroke-width="2" fill="none"></path></g></g><mask></mask><g transform="translate(273.25 506.5) rotate(0 46.75 7)"><text x="46.75000000000001" y="9.559999999999999" font-family="Segoe UI Emoji" font-size="10px" fill="#64748b" text-anchor="middle" style="white-space: pre;" direction="ltr" dominant-baseline="alphabetic">200 OK → Redirect</text></g><g stroke-linecap="round"><g transform="translate(732.5 597.5) rotate(0 82.5 0)"><path d="M0 0 C27.5 0, 137.5 0, 165 0 M0 0 C27.5 0, 137.5 0, 165 0" stroke="#475569" stroke-width="1.5" fill="none"></path></g><g transform="translate(732.5 597.5) rotate(0 82.5 0)"><path d="M141.51 8.55 C149.3 5.71, 157.1 2.87, 165 0 M141.51 8.55 C150.21 5.38, 158.92 2.21, 165 0" stroke="#475569" stroke-width="1.5" fill="none"></path></g><g transform="translate(732.5 597.5) rotate(0 82.5 0)"><path d="M141.51 -8.55 C149.3 -5.71, 157.1 -2.87, 165 0 M141.51 -8.55 C150.21 -5.38, 158.92 -2.21, 165 0" stroke="#475569" stroke-width="1.5" fill="none"></path></g></g><mask></mask><g transform="translate(760 578.5) rotate(0 55 7)"><text x="55.00000000000001" y="9.559999999999999" font-family="Segoe UI Emoji" font-size="10px" fill="#64748b" text-anchor="middle" style="white-space: pre;" direction="ltr" dominant-baseline="alphabetic">Generate schema name</text></g><g stroke-linecap="round"><g transform="translate(732.5 637.5) rotate(0 165 0)"><path d="M0 0 C55 0, 275 0, 330 0 M0 0 C55 0, 275 0, 330 0" stroke="#475569" stroke-width="1.5" fill="none"></path></g><g transform="translate(732.5 637.5) rotate(0 165 0)"><path d="M306.51 8.55 C313.17 6.13, 319.83 3.7, 330 0 M306.51 8.55 C311.89 6.59, 317.27 4.63, 330 0" stroke="#475569" stroke-width="1.5" fill="none"></path></g><g transform="translate(732.5 637.5) rotate(0 165 0)"><path d="M306.51 -8.55 C313.17 -6.13, 319.83 -3.7, 330 0 M306.51 -8.55 C311.89 -6.59, 317.27 -4.63, 330 0" stroke="#475569" stroke-width="1.5" fill="none"></path></g></g><mask></mask><g transform="translate(823.25 618.5) rotate(0 74.25 7)"><text x="74.25" y="9.559999999999999" font-family="Segoe UI Emoji" font-size="10px" fill="#64748b" text-anchor="middle" style="white-space: pre;" direction="ltr" dominant-baseline="alphabetic">CREATE SCHEMA tenant_{slug}</text></g><g stroke-linecap="round"><g transform="translate(732.5 677.5) rotate(0 165 0)"><path d="M0 0 C55 0, 275 0, 330 0 M0 0 C55 0, 275 0, 330 0" stroke="#475569" stroke-width="1.5" fill="none"></path></g><g transform="translate(732.5 677.5) rotate(0 165 0)"><path d="M306.51 8.55 C313.85 5.88, 321.18 3.21, 330 0 M306.51 8.55 C314.64 5.59, 322.78 2.63, 330 0" stroke="#475569" stroke-width="1.5" fill="none"></path></g><g transform="translate(732.5 677.5) rotate(0 165 0)"><path d="M306.51 -8.55 C313.85 -5.88, 321.18 -3.21, 330 0 M306.51 -8.55 C314.64 -5.59, 322.78 -2.63, 330 0" stroke="#475569" stroke-width="1.5" fill="none"></path></g></g><mask></mask><g transform="translate(837 658.5) rotate(0 60.5 7)"><text x="60.50000000000001" y="9.559999999999999" font-family="Segoe UI Emoji" font-size="10px" fill="#64748b" text-anchor="middle" style="white-space: pre;" direction="ltr" dominant-baseline="alphabetic">Run EF Core migrations</text></g><g stroke-linecap="round"><g transform="translate(732.5 717.5) rotate(0 82.5 0)"><path d="M0 0 C27.5 0, 137.5 0, 165 0 M0 0 C27.5 0, 137.5 0, 165 0" stroke="#475569" stroke-width="1.5" fill="none"></path></g><g transform="translate(732.5 717.5) rotate(0 82.5 0)"><path d="M141.51 8.55 C149.47 5.65, 157.42 2.76, 165 0 M141.51 8.55 C150.11 5.42, 158.7 2.29, 165 0" stroke="#475569" stroke-width="1.5" fill="none"></path></g><g transform="translate(732.5 717.5) rotate(0 82.5 0)"><path d="M141.51 -8.55 C149.47 -5.65, 157.42 -2.76, 165 0 M141.51 -8.55 C150.11 -5.42, 158.7 -2.29, 165 0" stroke="#475569" stroke-width="1.5" fill="none"></path></g></g><mask></mask><g transform="translate(743.5 698.5) rotate(0 71.5 7)"><text x="71.5" y="9.559999999999999" font-family="Segoe UI Emoji" font-size="10px" fill="#64748b" text-anchor="middle" style="white-space: pre;" direction="ltr" dominant-baseline="alphabetic">Assign Admin role + ACTIVE</text></g><g stroke-linecap="round"><g transform="translate(732.5 757.5) rotate(0 -82.5 0)"><path d="M0 0 C-27.5 0, -137.5 0, -165 0 M0 0 C-27.5 0, -137.5 0, -165 0" stroke="#475569" stroke-width="1.5" fill="none"></path></g><g transform="translate(732.5 757.5) rotate(0 -82.5 0)"><path d="M-141.51 -8.55 C-148.36 -6.06, -155.2 -3.57, -165 0 M-141.51 -8.55 C-149.75 -5.55, -158 -2.55, -165 0" stroke="#475569" stroke-width="1.5" fill="none"></path></g><g transform="translate(732.5 757.5) rotate(0 -82.5 0)"><path d="M-141.51 8.55 C-148.36 6.06, -155.2 3.57, -165 0 M-141.51 8.55 C-149.75 5.55, -158 2.55, -165 0" stroke="#475569" stroke-width="1.5" fill="none"></path></g></g><mask></mask><g transform="translate(600.5 738.5) rotate(0 49.5 7)"><text x="49.50000000000001" y="9.559999999999999" font-family="Segoe UI Emoji" font-size="10px" fill="#64748b" text-anchor="middle" style="white-space: pre;" direction="ltr" dominant-baseline="alphabetic">Send Welcome email</text></g><g stroke-linecap="round" transform="translate(32.5 797.5) rotate(0 280 15)"><path d="M6 0 C169.07 0, 332.14 0, 554 0 C558 0, 560 2, 560 6 C560 11.25, 560 16.49, 560 24 C560 28, 558 30, 554 30 C431.69 30, 309.38 30, 6 30 C2 30, 0 28, 0 24 C0 17.23, 0 10.45, 0 6 C0 2, 2 0, 6 0" stroke="none" stroke-width="0" fill="#fef9c3"></path><path d="M6 0 C201.73 0, 397.46 0, 554 0 M6 0 C141.79 0, 277.58 0, 554 0 M554 0 C558 0, 560 2, 560 6 M554 0 C558 0, 560 2, 560 6 M560 6 C560 11.68, 560 17.36, 560 24 M560 6 C560 10.85, 560 15.69, 560 24 M560 24 C560 28, 558 30, 554 30 M560 24 C560 28, 558 30, 554 30 M554 30 C367.06 30, 180.13 30, 6 30 M554 30 C383.9 30, 213.81 30, 6 30 M6 30 C2 30, 0 28, 0 24 M6 30 C2 30, 0 28, 0 24 M0 24 C0 19.91, 0 15.81, 0 6 M0 24 C0 18.97, 0 13.94, 0 6 M0 6 C0 2, 2 0, 6 0 M0 6 C0 2, 2 0, 6 0" stroke="#ca8a04" stroke-width="1.5" fill="none"></path></g><g transform="translate(177.75 807.5) rotate(0 134.75 7)"><text x="134.75" y="9.559999999999999" font-family="Segoe UI Emoji" font-size="10px" fill="#1e293b" text-anchor="middle" style="white-space: pre;" direction="ltr" dominant-baseline="alphabetic">UI polls org.status = ACTIVE then shows dashboard</text></g></svg>