<svg version="1.1" xmlns="http://www.w3.org/2000/svg" viewBox="0 0 1135 837.5" width="1135" height="837.5"><!-- svg-source:excalidraw --><metadata></metadata><defs><style class="style-fonts">
      </style></defs><rect x="0" y="0" width="1135" height="837.5" fill="#f8fafc"></rect><g transform="translate(12.5 10) rotate(0 160.875 10.5)"><text x="160.875" y="14.34" font-family="Segoe UI Emoji" font-size="15px" fill="#1e293b" text-anchor="middle" style="white-space: pre;" direction="ltr" dominant-baseline="alphabetic">Tenant Registration &amp; Provisioning Flow</text></g><g stroke-linecap="round" transform="translate(10 45.5) rotate(0 62.5 21)"><path d="M6 0 C31.5 0, 57 0, 119 0 C123 0, 125 2, 125 6 C125 13.18, 125 20.37, 125 36 C125 40, 123 42, 119 42 C86.02 42, 53.04 42, 6 42 C2 42, 0 40, 0 36 C0 25.75, 0 15.49, 0 6 C0 2, 2 0, 6 0" stroke="none" stroke-width="0" fill="#dbeafe"></path><path d="M6 0 C46.75 0, 87.5 0, 119 0 M6 0 C36.18 0, 66.35 0, 119 0 M119 0 C123 0, 125 2, 125 6 M119 0 C123 0, 125 2, 125 6 M125 6 C125 16.2, 125 26.39, 125 36 M125 6 C125 12.98, 125 19.96, 125 36 M125 36 C125 40, 123 42, 119 42 M125 36 C125 40, 123 42, 119 42 M119 42 C78.1 42, 37.21 42, 6 42 M119 42 C91.36 42, 63.72 42, 6 42 M6 42 C2 42, 0 40, 0 36 M6 42 C2 42, 0 40, 0 36 M0 36 C0 29.7, 0 23.39, 0 6 M0 36 C0 27.27, 0 18.53, 0 6 M0 6 C0 2, 2 0, 6 0 M0 6 C0 2, 2 0, 6 0" stroke="#3b82f6" stroke-width="1.5" fill="none"></path></g><g transform="translate(47.75 61.5) rotate(0 24.75 7)"><text x="24.750000000000004" y="9.559999999999999" font-family="Segoe UI Emoji" font-size="10px" fill="#1e293b" text-anchor="middle" style="white-space: pre;" direction="ltr" dominant-baseline="alphabetic">New Admin</text></g><g stroke-linecap="round"><g transform="translate(72.5 87.5) rotate(0 0 360)"><path d="M0 0 C0 120, 0 600, 0 720" stroke="#94a3b8" stroke-width="1.5" fill="none" stroke-dasharray="8 9"></path></g></g><mask></mask><g stroke-linecap="round" transform="translate(175 45.5) rotate(0 62.5 21)"><path d="M6 0 C42.95 0, 79.9 0, 119 0 C123 0, 125 2, 125 6 C125 12.94, 125 19.88, 125 36 C125 40, 123 42, 119 42 C78.71 42, 38.42 42, 6 42 C2 42, 0 40, 0 36 C0 25.28, 0 14.55, 0 6 C0 2, 2 0, 6 0" stroke="none" stroke-width="0" fill="#dbeafe"></path><path d="M6 0 C42.78 0, 79.55 0, 119 0 M6 0 C28.99 0, 51.97 0, 119 0 M119 0 C123 0, 125 2, 125 6 M119 0 C123 0, 125 2, 125 6 M125 6 C125 13.63, 125 21.26, 125 36 M125 6 C125 17.43, 125 28.85, 125 36 M125 36 C125 40, 123 42, 119 42 M125 36 C125 40, 123 42, 119 42 M119 42 C75.22 42, 31.43 42, 6 42 M119 42 C83.54 42, 48.09 42, 6 42 M6 42 C2 42, 0 40, 0 36 M6 42 C2 42, 0 40, 0 36 M0 36 C0 27.77, 0 19.53, 0 6 M0 36 C0 28.91, 0 21.82, 0 6 M0 6 C0 2, 2 0, 6 0 M0 6 C0 2, 2 0, 6 0" stroke="#3b82f6" stroke-width="1.5" fill="none"></path></g><g transform="translate(217.5 61.5) rotate(0 20 7)"><text x="20" y="9.559999999999999" font-family="Segoe UI Emoji" font-size="10px" fill="#1e293b" text-anchor="middle" style="white-space: pre;" direction="ltr" dominant-baseline="alphabetic">Web App</text></g><g stroke-linecap="round"><g transform="translate(237.5 87.5) rotate(0 0 360)"><path d="M0 0 C0 120, 0 600, 0 720" stroke="#94a3b8" stroke-width="1.5" fill="none" stroke-dasharray="8 9"></path></g></g><mask></mask><g stroke-linecap="round" transform="translate(340 45.5) rotate(0 62.5 21)"><path d="M6 0 C43.87 0, 81.74 0, 119 0 C123 0, 125 2, 125 6 C125 13.46, 125 20.93, 125 36 C125 40, 123 42, 119 42 C85.48 42, 51.96 42, 6 42 C2 42, 0 40, 0 36 C0 29.41, 0 22.83, 0 6 C0 2, 2 0, 6 0" stroke="none" stroke-width="0" fill="#dbeafe"></path><path d="M6 0 C48.41 0, 90.81 0, 119 0 M6 0 C31.19 0, 56.38 0, 119 0 M119 0 C123 0, 125 2, 125 6 M119 0 C123 0, 125 2, 125 6 M125 6 C125 16.87, 125 27.74, 125 36 M125 6 C125 14.86, 125 23.73, 125 36 M125 36 C125 40, 123 42, 119 42 M125 36 C125 40, 123 42, 119 42 M119 42 C93.82 42, 68.64 42, 6 42 M119 42 C75.24 42, 31.49 42, 6 42 M6 42 C2 42, 0 40, 0 36 M6 42 C2 42, 0 40, 0 36 M0 36 C0 28.95, 0 21.91, 0 6 M0 36 C0 28.3, 0 20.6, 0 6 M0 6 C0 2, 2 0, 6 0 M0 6 C0 2, 2 0, 6 0" stroke="#3b82f6" stroke-width="1.5" fill="none"></path></g><g transform="translate(375 61.5) rotate(0 27.5 7)"><text x="27.500000000000004" y="9.559999999999999" font-family="Segoe UI Emoji" font-size="10px" fill="#1e293b" text-anchor="middle" style="white-space: pre;" direction="ltr" dominant-baseline="alphabetic">API Server</text></g><g stroke-linecap="round"><g transform="translate(402.5 87.5) rotate(0 0 360)"><path d="M0 0 C0 120, 0 600, 0 720" stroke="#94a3b8" stroke-width="1.5" fill="none" stroke-dasharray="8 9"></path></g></g><mask></mask><g stroke-linecap="round" transform="translate(505 45.5) rotate(0 62.5 21)"><path d="M6 0 C30.3 0, 54.6 0, 119 0 C123 0, 125 2, 125 6 C125 15.09, 125 24.19, 125 36 C125 40, 123 42, 119 42 C89.31 42, 59.62 42, 6 42 C2 42, 0 40, 0 36 C0 26.96, 0 17.91, 0 6 C0 2, 2 0, 6 0" stroke="none" stroke-width="0" fill="#f3e8ff"></path><path d="M6 0 C29.74 0, 53.47 0, 119 0 M6 0 C34.82 0, 63.64 0, 119 0 M119 0 C123 0, 125 2, 125 6 M119 0 C123 0, 125 2, 125 6 M125 6 C125 12.91, 125 19.82, 125 36 M125 6 C125 17.88, 125 29.76, 125 36 M125 36 C125 40, 123 42, 119 42 M125 36 C125 40, 123 42, 119 42 M119 42 C81.96 42, 44.92 42, 6 42 M119 42 C92.27 42, 65.53 42, 6 42 M6 42 C2 42, 0 40, 0 36 M6 42 C2 42, 0 40, 0 36 M0 36 C0 25.83, 0 15.66, 0 6 M0 36 C0 26.35, 0 16.7, 0 6 M0 6 C0 2, 2 0, 6 0 M0 6 C0 2, 2 0, 6 0" stroke="#9333ea" stroke-width="1.5" fill="none"></path></g><g transform="translate(547.5 51.5) rotate(0 20 7)"><text x="20" y="9.559999999999999" font-family="Segoe UI Emoji" font-size="10px" fill="#1e293b" text-anchor="middle" style="white-space: pre;" direction="ltr" dominant-baseline="alphabetic">Email</text></g><g transform="translate(547.5 69.5) rotate(0 20 7)"><text x="20" y="9.559999999999999" font-family="Segoe UI Emoji" font-size="10px" fill="#64748b" text-anchor="middle" style="white-space: pre;" direction="ltr" dominant-baseline="alphabetic">Service</text></g><g stroke-linecap="round"><g transform="translate(567.5 87.5) rotate(0 0 360)"><path d="M0 0 C0 120, 0 600, 0 720" stroke="#94a3b8" stroke-width="1.5" fill="none" stroke-dasharray="8 9"></path></g></g><mask></mask><g stroke-linecap="round" transform="translate(670 45.5) rotate(0 62.5 21)"><path d="M6 0 C40.16 0, 74.32 0, 119 0 C123 0, 125 2, 125 6 C125 14.4, 125 22.79, 125 36 C125 40, 123 42, 119 42 C81.78 42, 44.57 42, 6 42 C2 42, 0 40, 0 36 C0 24.65, 0 13.3, 0 6 C0 2, 2 0, 6 0" stroke="none" stroke-width="0" fill="#dbeafe"></path><path d="M6 0 C45.87 0, 85.74 0, 119 0 M6 0 C40.65 0, 75.3 0, 119 0 M119 0 C123 0, 125 2, 125 6 M119 0 C123 0, 125 2, 125 6 M125 6 C125 14.58, 125 23.16, 125 36 M125 6 C125 12.78, 125 19.57, 125 36 M125 36 C125 40, 123 42, 119 42 M125 36 C125 40, 123 42, 119 42 M119 42 C88.49 42, 57.98 42, 6 42 M119 42 C87.99 42, 56.97 42, 6 42 M6 42 C2 42, 0 40, 0 36 M6 42 C2 42, 0 40, 0 36 M0 36 C0 26.52, 0 17.03, 0 6 M0 36 C0 28.84, 0 21.68, 0 6 M0 6 C0 2, 2 0, 6 0 M0 6 C0 2, 2 0, 6 0" stroke="#3b82f6" stroke-width="1.5" fill="none"></path></g><g transform="translate(707.75 51.5) rotate(0 24.75 7)"><text x="24.750000000000004" y="9.559999999999999" font-family="Segoe UI Emoji" font-size="10px" fill="#1e293b" text-anchor="middle" style="white-space: pre;" direction="ltr" dominant-baseline="alphabetic">Wolverine</text></g><g transform="translate(712.5 69.5) rotate(0 20 7)"><text x="20" y="9.559999999999999" font-family="Segoe UI Emoji" font-size="10px" fill="#64748b" text-anchor="middle" style="white-space: pre;" direction="ltr" dominant-baseline="alphabetic">(Jobs)</text></g><g stroke-linecap="round"><g transform="translate(732.5 87.5) rotate(0 0 360)"><path d="M0 0 C0 120, 0 600, 0 720" stroke="#94a3b8" stroke-width="1.5" fill="none" stroke-dasharray="8 9"></path></g></g><mask></mask><g stroke-linecap="round" transform="translate(835 45.5) rotate(0 62.5 21)"><path d="M6 0 C44.54 0, 83.07 0, 119 0 C123 0, 125 2, 125 6 C125 15.96, 125 25.93, 125 36 C125 40, 123 42, 119 42 C92.9 42, 66.81 42, 6 42 C2 42, 0 40, 0 36 C0 27.79, 0 19.59, 0 6 C0 2, 2 0, 6 0" stroke="none" stroke-width="0" fill="#ffedd5"></path><path d="M6 0 C28.89 0, 51.77 0, 119 0 M6 0 C35.99 0, 65.98 0, 119 0 M119 0 C123 0, 125 2, 125 6 M119 0 C123 0, 125 2, 125 6 M125 6 C125 15.42, 125 24.83, 125 36 M125 6 C125 16.4, 125 26.79, 125 36 M125 36 C125 40, 123 42, 119 42 M125 36 C125 40, 123 42, 119 42 M119 42 C87.77 42, 56.53 42, 6 42 M119 42 C80.86 42, 42.72 42, 6 42 M6 42 C2 42, 0 40, 0 36 M6 42 C2 42, 0 40, 0 36 M0 36 C0 26, 0 16, 0 6 M0 36 C0 26.29, 0 16.58, 0 6 M0 6 C0 2, 2 0, 6 0 M0 6 C0 2, 2 0, 6 0" stroke="#ea580c" stroke-width="1.5" fill="none"></path></g><g transform="translate(870 51.5) rotate(0 27.5 7)"><text x="27.500000000000004" y="9.559999999999999" font-family="Segoe UI Emoji" font-size="10px" fill="#1e293b" text-anchor="middle" style="white-space: pre;" direction="ltr" dominant-baseline="alphabetic">PostgreSQL</text></g><g transform="translate(875.5 69.5) rotate(0 22 7)"><text x="22" y="9.559999999999999" font-family="Segoe UI Emoji" font-size="10px" fill="#64748b" text-anchor="middle" style="white-space: pre;" direction="ltr" dominant-baseline="alphabetic">(public)</text></g><g stroke-linecap="round"><g transform="translate(897.5 87.5) rotate(0 0 360)"><path d="M0 0 C0 120, 0 600, 0 720" stroke="#94a3b8" stroke-width="1.5" fill="none" stroke-dasharray="8 9"></path></g></g><mask></mask><g stroke-linecap="round" transform="translate(1000 45.5) rotate(0 62.5 21)"><path d="M6 0 C38.2 0, 70.41 0, 119 0 C123 0, 125 2, 125 6 C125 13.4, 125 20.8, 125 36 C125 40, 123 42, 119 42 C81.52 42, 44.03 42, 6 42 C2 42, 0 40, 0 36 C0 26.06, 0 16.12, 0 6 C0 2, 2 0, 6 0" stroke="none" stroke-width="0" fill="#ffedd5"></path><path d="M6 0 C29.08 0, 52.15 0, 119 0 M6 0 C34.47 0, 62.95 0, 119 0 M119 0 C123 0, 125 2, 125 6 M119 0 C123 0, 125 2, 125 6 M125 6 C125 15.07, 125 24.14, 125 36 M125 6 C125 14.52, 125 23.03, 125 36 M125 36 C125 40, 123 42, 119 42 M125 36 C125 40, 123 42, 119 42 M119 42 C76.62 42, 34.24 42, 6 42 M119 42 C88.58 42, 58.16 42, 6 42 M6 42 C2 42, 0 40, 0 36 M6 42 C2 42, 0 40, 0 36 M0 36 C0 24.81, 0 13.62, 0 6 M0 36 C0 26.15, 0 16.3, 0 6 M0 6 C0 2, 2 0, 6 0 M0 6 C0 2, 2 0, 6 0" stroke="#ea580c" stroke-width="1.5" fill="none"></path></g><g transform="translate(1035 51.5) rotate(0 27.5 7)"><text x="27.500000000000004" y="9.559999999999999" font-family="Segoe UI Emoji" font-size="10px" fill="#1e293b" text-anchor="middle" style="white-space: pre;" direction="ltr" dominant-baseline="alphabetic">PostgreSQL</text></g><g transform="translate(1040.5 69.5) rotate(0 22 7)"><text x="22" y="9.559999999999999" font-family="Segoe UI Emoji" font-size="10px" fill="#64748b" text-anchor="middle" style="white-space: pre;" direction="ltr" dominant-baseline="alphabetic">(tenant)</text></g><g stroke-linecap="round"><g transform="translate(1062.5 87.5) rotate(0 0 360)"><path d="M0 0 C0 120, 0 600, 0 720" stroke="#94a3b8" stroke-width="1.5" fill="none" stroke-dasharray="8 9"></path></g></g><mask></mask><g stroke-linecap="round"><g transform="translate(32.5 339.5) rotate(0 0 0)"><path d="M0 0 C0 0, 0 0, 0 0" stroke="#94a3b8" stroke-width="1.5" fill="none" stroke-dasharray="8 9"></path></g></g><mask></mask><g transform="translate(12.5 346.5) rotate(0 66 7)"><text x="66" y="9.559999999999999" font-family="Segoe UI Emoji" font-size="10px" fill="#64748b" text-anchor="middle" style="white-space: pre;" direction="ltr" dominant-baseline="alphabetic">== Email Verification ==</text></g><g stroke-linecap="round"><g transform="translate(32.5 567.5) rotate(0 0 0)"><path d="M0 0 C0 0, 0 0, 0 0" stroke="#94a3b8" stroke-width="1.5" fill="none" stroke-dasharray="8 9"></path></g></g><mask></mask><g transform="translate(12.5 574.5) rotate(0 66 7)"><text x="66" y="9.559999999999999" font-family="Segoe UI Emoji" font-size="10px" fill="#64748b" text-anchor="middle" style="white-space: pre;" direction="ltr" dominant-baseline="alphabetic">== Async Provisioning ==</text></g><g stroke-linecap="round"><g transform="translate(72.5 157.5) rotate(0 82.5 0)"><path d="M0 0 C27.5 0, 137.5 0, 165 0 M0 0 C27.5 0, 137.5 0, 165 0" stroke="#475569" stroke-width="1.5" fill="none"></path></g><g transform="translate(72.5 157.5) rotate(0 82.5 0)"><path d="M141.51 8.55 C147.19 6.48, 152.87 4.42, 165 0 M141.51 8.55 C147.53 6.36, 153.55 4.17, 165 0" stroke="#475569" stroke-width="1.5" fill="none"></path></g><g transform="translate(72.5 157.5) rotate(0 82.5 0)"><path d="M141.51 -8.55 C147.19 -6.48, 152.87 -4.42, 165 0 M141.51 -8.55 C147.53 -6.36, 153.55 -4.17, 165 0" stroke="#475569" stroke-width="1.5" fill="none"></path></g></g><mask></mask><g transform="translate(94.5 138.5) rotate(0 60.5 7)"><text x="60.50000000000001" y="9.559999999999999" font-family="Segoe UI Emoji" font-size="10px" fill="#64748b" text-anchor="middle" style="white-space: pre;" direction="ltr" dominant-baseline="alphabetic">Fill registration form</text></g><g stroke-linecap="round"><g transform="translate(237.5 197.5) rotate(0 82.5 0)"><path d="M0 0 C27.5 0, 137.5 0, 165 0 M0 0 C27.5 0, 137.5 0, 165 0" stroke="#475569" stroke-width="1.5" fill="none"></path></g><g transform="translate(237.5 197.5) rotate(0 82.5 0)"><path d="M141.51 8.55 C148.53 6, 155.55 3.44, 165 0 M141.51 8.55 C146.21 6.84, 150.91 5.13, 165 0" stroke="#475569" stroke-width="1.5" fill="none"></path></g><g transform="translate(237.5 197.5) rotate(0 82.5 0)"><path d="M141.51 -8.55 C148.53 -6, 155.55 -3.44, 165 0 M141.51 -8.55 C146.21 -6.84, 150.91 -5.13, 165 0" stroke="#475569" stroke-width="1.5" fill="none"></path></g></g><mask></mask><g transform="translate(267.75 178.5) rotate(0 52.25 7)"><text x="52.25000000000001" y="9.559999999999999" font-family="Segoe UI Emoji" font-size="10px" fill="#64748b" text-anchor="middle" style="white-space: pre;" direction="ltr" dominant-baseline="alphabetic">POST /auth/register</text></g><g stroke-linecap="round"><g transform="translate(402.5 237.5) rotate(0 247.5 0)"><path d="M0 0 C82.5 0, 412.5 0, 495 0 M0 0 C82.5 0, 412.5 0, 495 0" stroke="#475569" stroke-width="1.5" fill="none"></path></g><g transform="translate(402.5 237.5) rotate(0 247.5 0)"><path d="M471.51 8.55 C478.41 6.04, 485.31 3.53, 495 0 M471.51 8.55 C478.81 5.89, 486.12 3.23, 495 0" stroke="#475569" stroke-width="1.5" fill="none"></path></g><g transform="translate(402.5 237.5) rotate(0 247.5 0)"><path d="M471.51 -8.55 C478.41 -6.04, 485.31 -3.53, 495 0 M471.51 -8.55 C478.81 -5.89, 486.12 -3.23, 495 0" stroke="#475569" stroke-width="1.5" fill="none"></path></g></g><mask></mask><g transform="translate(581.25 218.5) rotate(0 68.75 7)"><text x="68.75" y="9.559999999999999" font-family="Segoe UI Emoji" font-size="10px" fill="#64748b" text-anchor="middle" style="white-space: pre;" direction="ltr" dominant-baseline="alphabetic">Save org (PENDING) + user</text></g><g stroke-linecap="round"><g transform="translate(402.5 277.5) rotate(0 82.5 0)"><path d="M0 0 C27.5 0, 137.5 0, 165 0 M0 0 C27.5 0, 137.5 0, 165 0" stroke="#475569" stroke-width="1.5" fill="none"></path></g><g transform="translate(402.5 277.5) rotate(0 82.5 0)"><path d="M141.51 8.55 C147.64 6.32, 153.78 4.08, 165 0 M141.51 8.55 C147.8 6.26, 154.09 3.97, 165 0" stroke="#475569" stroke-width="1.5" fill="none"></path></g><g transform="translate(402.5 277.5) rotate(0 82.5 0)"><path d="M141.51 -8.55 C147.64 -6.32, 153.78 -4.08, 165 0 M141.51 -8.55 C147.8 -6.26, 154.09 -3.97, 165 0" stroke="#475569" stroke-width="1.5" fill="none"></path></g></g><mask></mask><g transform="translate(421.75 258.5) rotate(0 63.25 7)"><text x="63.25000000000001" y="9.559999999999999" font-family="Segoe UI Emoji" font-size="10px" fill="#64748b" text-anchor="middle" style="white-space: pre;" direction="ltr" dominant-baseline="alphabetic">Send verification email</text></g><g stroke-linecap="round"><g transform="translate(402.5 309.5) rotate(0 -82.5 0)"><path d="M0 0 C-27.5 0, -137.5 0, -165 0" stroke="#475569" stroke-width="2" fill="none" stroke-dasharray="8 9.5"></path></g><g transform="translate(402.5 309.5) rotate(0 -82.5 0)"><path d="M-141.51 -8.55 C-148.52 -6, -155.54 -3.44, -165 0" stroke="#475569" stroke-width="2" fill="none"></path></g><g transform="translate(402.5 309.5) rotate(0 -82.5 0)"><path d="M-141.51 8.55 C-148.52 6, -155.54 3.44, -165 0" stroke="#475569" stroke-width="2" fill="none"></path></g></g><mask></mask><g transform="translate(287 290.5) rotate(0 33 7)"><text x="33" y="9.559999999999999" font-family="Segoe UI Emoji" font-size="10px" fill="#64748b" text-anchor="middle" style="white-space: pre;" direction="ltr" dominant-baseline="alphabetic">202 Accepted</text></g><g stroke-linecap="round"><g transform="translate(72.5 365.5) rotate(0 82.5 0)"><path d="M0 0 C27.5 0, 137.5 0, 165 0 M0 0 C27.5 0, 137.5 0, 165 0" stroke="#475569" stroke-width="1.5" fill="none"></path></g><g transform="translate(72.5 365.5) rotate(0 82.5 0)"><path d="M141.51 8.55 C146.41 6.77, 151.31 4.98, 165 0 M141.51 8.55 C149.31 5.71, 157.12 2.87, 165 0" stroke="#475569" stroke-width="1.5" fill="none"></path></g><g transform="translate(72.5 365.5) rotate(0 82.5 0)"><path d="M141.51 -8.55 C146.41 -6.77, 151.31 -4.98, 165 0 M141.51 -8.55 C149.31 -5.71, 157.12 -2.87, 165 0" stroke="#475569" stroke-width="1.5" fill="none"></path></g></g><mask></mask><g transform="translate(91.75 346.5) rotate(0 63.25 7)"><text x="63.25000000000001" y="9.559999999999999" font-family="Segoe UI Emoji" font-size="10px" fill="#64748b" text-anchor="middle" style="white-space: pre;" direction="ltr" dominant-baseline="alphabetic">Click verification link</text></g><g stroke-linecap="round"><g transform="translate(237.5 405.5) rotate(0 82.5 0)"><path d="M0 0 C27.5 0, 137.5 0, 165 0 M0 0 C27.5 0, 137.5 0, 165 0" stroke="#475569" stroke-width="1.5" fill="none"></path></g><g transform="translate(237.5 405.5) rotate(0 82.5 0)"><path d="M141.51 8.55 C146.5 6.73, 151.49 4.92, 165 0 M141.51 8.55 C149.98 5.47, 158.45 2.38, 165 0" stroke="#475569" stroke-width="1.5" fill="none"></path></g><g transform="translate(237.5 405.5) rotate(0 82.5 0)"><path d="M141.51 -8.55 C146.5 -6.73, 151.49 -4.92, 165 0 M141.51 -8.55 C149.98 -5.47, 158.45 -2.38, 165 0" stroke="#475569" stroke-width="1.5" fill="none"></path></g></g><mask></mask><g transform="translate(256.75 386.5) rotate(0 63.25 7)"><text x="63.25000000000001" y="9.559999999999999" font-family="Segoe UI Emoji" font-size="10px" fill="#64748b" text-anchor="middle" style="white-space: pre;" direction="ltr" dominant-baseline="alphabetic">POST /auth/verify-email</text></g><g stroke-linecap="round"><g transform="translate(402.5 445.5) rotate(0 247.5 0)"><path d="M0 0 C82.5 0, 412.5 0, 495 0 M0 0 C82.5 0, 412.5 0, 495 0" stroke="#475569" stroke-width="1.5" fill="none"></path></g><g transform="translate(402.5 445.5) rotate(0 247.5 0)"><path d="M471.51 8.55 C477.67 6.31, 483.83 4.07, 495 0 M471.51 8.55 C479.27 5.73, 487.03 2.9, 495 0" stroke="#475569" stroke-width="1.5" fill="none"></path></g><g transform="translate(402.5 445.5) rotate(0 247.5 0)"><path d="M471.51 -8.55 C477.67 -6.31, 483.83 -4.07, 495 0 M471.51 -8.55 C479.27 -5.73, 487.03 -2.9, 495 0" stroke="#475569" stroke-width="1.5" fill="none"></path></g></g><mask></mask><g transform="translate(573 426.5) rotate(0 77 7)"><text x="77" y="9.559999999999999" font-family="Segoe UI Emoji" font-size="10px" fill="#64748b" text-anchor="middle" style="white-space: pre;" direction="ltr" dominant-baseline="alphabetic">Mark VERIFIED + PROVISIONING</text></g><g stroke-linecap="round"><g transform="translate(402.5 485.5) rotate(0 165 0)"><path d="M0 0 C55 0, 275 0, 330 0 M0 0 C55 0, 275 0, 330 0" stroke="#475569" stroke-width="1.5" fill="none"></path></g><g transform="translate(402.5 485.5) rotate(0 165 0)"><path d="M306.51 8.55 C315.7 5.2, 324.9 1.86, 330 0 M306.51 8.55 C314.72 5.56, 322.93 2.57, 330 0" stroke="#475569" stroke-width="1.5" fill="none"></path></g><g transform="translate(402.5 485.5) rotate(0 165 0)"><path d="M306.51 -8.55 C315.7 -5.2, 324.9 -1.86, 330 0 M306.51 -8.55 C314.72 -5.56, 322.93 -2.57, 330 0" stroke="#475569" stroke-width="1.5" fill="none"></path></g></g><mask></mask><g transform="translate(496 466.5) rotate(0 71.5 7)"><text x="71.5" y="9.559999999999999" font-family="Segoe UI Emoji" font-size="10px" fill="#64748b" text-anchor="middle" style="white-space: pre;" direction="ltr" dominant-baseline="alphabetic">Enqueue ProvisionTenantJob</text></g><g stroke-linecap="round"><g transform="translate(402.5 525.5) rotate(0 -82.5 0)"><path d="M0 0 C-27.5 0, -137.5 0, -165 0" stroke="#475569" stroke-width="2" fill="none" stroke-dasharray="8 9.5"></path></g><g transform="translate(402.5 525.5) rotate(0 -82.5 0)"><path d="M-141.51 -8.55 C-149.67 -5.58, -157.83 -2.61, -165 0" stroke="#475569" stroke-width="2" fill="none"></path></g><g transform="translate(402.5 525.5) rotate(0 -82.5 0)"><path d="M-141.51 8.55 C-149.67 5.58, -157.83 2.61, -165 0" stroke="#475569" stroke-width="2" fill="none"></path></g></g><mask></mask><g transform="translate(273.25 506.5) rotate(0 46.75 7)"><text x="46.75000000000001" y="9.559999999999999" font-family="Segoe UI Emoji" font-size="10px" fill="#64748b" text-anchor="middle" style="white-space: pre;" direction="ltr" dominant-baseline="alphabetic">200 OK → Redirect</text></g><g stroke-linecap="round"><g transform="translate(732.5 597.5) rotate(0 82.5 0)"><path d="M0 0 C27.5 0, 137.5 0, 165 0 M0 0 C27.5 0, 137.5 0, 165 0" stroke="#475569" stroke-width="1.5" fill="none"></path></g><g transform="translate(732.5 597.5) rotate(0 82.5 0)"><path d="M141.51 8.55 C147.2 6.48, 152.89 4.41, 165 0 M141.51 8.55 C148.22 6.11, 154.94 3.66, 165 0" stroke="#475569" stroke-width="1.5" fill="none"></path></g><g transform="translate(732.5 597.5) rotate(0 82.5 0)"><path d="M141.51 -8.55 C147.2 -6.48, 152.89 -4.41, 165 0 M141.51 -8.55 C148.22 -6.11, 154.94 -3.66, 165 0" stroke="#475569" stroke-width="1.5" fill="none"></path></g></g><mask></mask><g transform="translate(760 578.5) rotate(0 55 7)"><text x="55.00000000000001" y="9.559999999999999" font-family="Segoe UI Emoji" font-size="10px" fill="#64748b" text-anchor="middle" style="white-space: pre;" direction="ltr" dominant-baseline="alphabetic">Generate schema name</text></g><g stroke-linecap="round"><g transform="translate(732.5 637.5) rotate(0 165 0)"><path d="M0 0 C55 0, 275 0, 330 0 M0 0 C55 0, 275 0, 330 0" stroke="#475569" stroke-width="1.5" fill="none"></path></g><g transform="translate(732.5 637.5) rotate(0 165 0)"><path d="M306.51 8.55 C314.95 5.48, 323.4 2.4, 330 0 M306.51 8.55 C314.06 5.8, 321.62 3.05, 330 0" stroke="#475569" stroke-width="1.5" fill="none"></path></g><g transform="translate(732.5 637.5) rotate(0 165 0)"><path d="M306.51 -8.55 C314.95 -5.48, 323.4 -2.4, 330 0 M306.51 -8.55 C314.06 -5.8, 321.62 -3.05, 330 0" stroke="#475569" stroke-width="1.5" fill="none"></path></g></g><mask></mask><g transform="translate(823.25 618.5) rotate(0 74.25 7)"><text x="74.25" y="9.559999999999999" font-family="Segoe UI Emoji" font-size="10px" fill="#64748b" text-anchor="middle" style="white-space: pre;" direction="ltr" dominant-baseline="alphabetic">CREATE SCHEMA tenant_{slug}</text></g><g stroke-linecap="round"><g transform="translate(732.5 677.5) rotate(0 165 0)"><path d="M0 0 C55 0, 275 0, 330 0 M0 0 C55 0, 275 0, 330 0" stroke="#475569" stroke-width="1.5" fill="none"></path></g><g transform="translate(732.5 677.5) rotate(0 165 0)"><path d="M306.51 8.55 C311.6 6.7, 316.7 4.84, 330 0 M306.51 8.55 C314.98 5.47, 323.45 2.38, 330 0" stroke="#475569" stroke-width="1.5" fill="none"></path></g><g transform="translate(732.5 677.5) rotate(0 165 0)"><path d="M306.51 -8.55 C311.6 -6.7, 316.7 -4.84, 330 0 M306.51 -8.55 C314.98 -5.47, 323.45 -2.38, 330 0" stroke="#475569" stroke-width="1.5" fill="none"></path></g></g><mask></mask><g transform="translate(837 658.5) rotate(0 60.5 7)"><text x="60.50000000000001" y="9.559999999999999" font-family="Segoe UI Emoji" font-size="10px" fill="#64748b" text-anchor="middle" style="white-space: pre;" direction="ltr" dominant-baseline="alphabetic">Run EF Core migrations</text></g><g stroke-linecap="round"><g transform="translate(732.5 717.5) rotate(0 82.5 0)"><path d="M0 0 C27.5 0, 137.5 0, 165 0 M0 0 C27.5 0, 137.5 0, 165 0" stroke="#475569" stroke-width="1.5" fill="none"></path></g><g transform="translate(732.5 717.5) rotate(0 82.5 0)"><path d="M141.51 8.55 C148.56 5.98, 155.62 3.41, 165 0 M141.51 8.55 C148.15 6.13, 154.79 3.71, 165 0" stroke="#475569" stroke-width="1.5" fill="none"></path></g><g transform="translate(732.5 717.5) rotate(0 82.5 0)"><path d="M141.51 -8.55 C148.56 -5.98, 155.62 -3.41, 165 0 M141.51 -8.55 C148.15 -6.13, 154.79 -3.71, 165 0" stroke="#475569" stroke-width="1.5" fill="none"></path></g></g><mask></mask><g transform="translate(743.5 698.5) rotate(0 71.5 7)"><text x="71.5" y="9.559999999999999" font-family="Segoe UI Emoji" font-size="10px" fill="#64748b" text-anchor="middle" style="white-space: pre;" direction="ltr" dominant-baseline="alphabetic">Assign Admin role + ACTIVE</text></g><g stroke-linecap="round"><g transform="translate(732.5 757.5) rotate(0 -82.5 0)"><path d="M0 0 C-27.5 0, -137.5 0, -165 0 M0 0 C-27.5 0, -137.5 0, -165 0" stroke="#475569" stroke-width="1.5" fill="none"></path></g><g transform="translate(732.5 757.5) rotate(0 -82.5 0)"><path d="M-141.51 -8.55 C-149.53 -5.63, -157.54 -2.71, -165 0 M-141.51 -8.55 C-147.2 -6.48, -152.9 -4.4, -165 0" stroke="#475569" stroke-width="1.5" fill="none"></path></g><g transform="translate(732.5 757.5) rotate(0 -82.5 0)"><path d="M-141.51 8.55 C-149.53 5.63, -157.54 2.71, -165 0 M-141.51 8.55 C-147.2 6.48, -152.9 4.4, -165 0" stroke="#475569" stroke-width="1.5" fill="none"></path></g></g><mask></mask><g transform="translate(600.5 738.5) rotate(0 49.5 7)"><text x="49.50000000000001" y="9.559999999999999" font-family="Segoe UI Emoji" font-size="10px" fill="#64748b" text-anchor="middle" style="white-space: pre;" direction="ltr" dominant-baseline="alphabetic">Send Welcome email</text></g><g stroke-linecap="round" transform="translate(32.5 797.5) rotate(0 280 15)"><path d="M6 0 C173.97 0, 341.94 0, 554 0 C558 0, 560 2, 560 6 C560 10.75, 560 15.5, 560 24 C560 28, 558 30, 554 30 C376.3 30, 198.6 30, 6 30 C2 30, 0 28, 0 24 C0 19.24, 0 14.49, 0 6 C0 2, 2 0, 6 0" stroke="none" stroke-width="0" fill="#fef9c3"></path><path d="M6 0 C155.85 0, 305.7 0, 554 0 M6 0 C134.76 0, 263.52 0, 554 0 M554 0 C558 0, 560 2, 560 6 M554 0 C558 0, 560 2, 560 6 M560 6 C560 12.35, 560 18.7, 560 24 M560 6 C560 9.8, 560 13.59, 560 24 M560 24 C560 28, 558 30, 554 30 M560 24 C560 28, 558 30, 554 30 M554 30 C413.21 30, 272.41 30, 6 30 M554 30 C404.64 30, 255.28 30, 6 30 M6 30 C2 30, 0 28, 0 24 M6 30 C2 30, 0 28, 0 24 M0 24 C0 18.77, 0 13.54, 0 6 M0 24 C0 18.68, 0 13.36, 0 6 M0 6 C0 2, 2 0, 6 0 M0 6 C0 2, 2 0, 6 0" stroke="#ca8a04" stroke-width="1.5" fill="none"></path></g><g transform="translate(177.75 807.5) rotate(0 134.75 7)"><text x="134.75" y="9.559999999999999" font-family="Segoe UI Emoji" font-size="10px" fill="#1e293b" text-anchor="middle" style="white-space: pre;" direction="ltr" dominant-baseline="alphabetic">UI polls org.status = ACTIVE then shows dashboard</text></g></svg>