<svg version="1.1" xmlns="http://www.w3.org/2000/svg" viewBox="0 0 1135 837.5" width="1135" height="837.5"><!-- svg-source:excalidraw --><metadata></metadata><defs><style class="style-fonts">
      </style></defs><rect x="0" y="0" width="1135" height="837.5" fill="#f8fafc"></rect><g transform="translate(12.5 10) rotate(0 160.875 10.5)"><text x="160.875" y="14.34" font-family="Segoe UI Emoji" font-size="15px" fill="#1e293b" text-anchor="middle" style="white-space: pre;" direction="ltr" dominant-baseline="alphabetic">Tenant Registration &amp; Provisioning Flow</text></g><g stroke-linecap="round" transform="translate(10 45.5) rotate(0 62.5 21)"><path d="M6 0 C43.47 0, 80.95 0, 119 0 C123 0, 125 2, 125 6 C125 16.72, 125 27.44, 125 36 C125 40, 123 42, 119 42 C75.85 42, 32.71 42, 6 42 C2 42, 0 40, 0 36 C0 28.39, 0 20.78, 0 6 C0 2, 2 0, 6 0" stroke="none" stroke-width="0" fill="#dbeafe"></path><path d="M6 0 C44.91 0, 83.82 0, 119 0 M6 0 C32.93 0, 59.86 0, 119 0 M119 0 C123 0, 125 2, 125 6 M119 0 C123 0, 125 2, 125 6 M125 6 C125 12.2, 125 18.4, 125 36 M125 6 C125 12.88, 125 19.77, 125 36 M125 36 C125 40, 123 42, 119 42 M125 36 C125 40, 123 42, 119 42 M119 42 C90.86 42, 62.72 42, 6 42 M119 42 C76.73 42, 34.47 42, 6 42 M6 42 C2 42, 0 40, 0 36 M6 42 C2 42, 0 40, 0 36 M0 36 C0 28.61, 0 21.21, 0 6 M0 36 C0 29.67, 0 23.33, 0 6 M0 6 C0 2, 2 0, 6 0 M0 6 C0 2, 2 0, 6 0" stroke="#3b82f6" stroke-width="1.5" fill="none"></path></g><g transform="translate(47.75 61.5) rotate(0 24.75 7)"><text x="24.750000000000004" y="9.559999999999999" font-family="Segoe UI Emoji" font-size="10px" fill="#1e293b" text-anchor="middle" style="white-space: pre;" direction="ltr" dominant-baseline="alphabetic">New Admin</text></g><g stroke-linecap="round"><g transform="translate(72.5 87.5) rotate(0 0 360)"><path d="M0 0 C0 120, 0 600, 0 720" stroke="#94a3b8" stroke-width="1.5" fill="none" stroke-dasharray="8 9"></path></g></g><mask></mask><g stroke-linecap="round" transform="translate(175 45.5) rotate(0 62.5 21)"><path d="M6 0 C49.34 0, 92.67 0, 119 0 C123 0, 125 2, 125 6 C125 12.3, 125 18.6, 125 36 C125 40, 123 42, 119 42 C73.9 42, 28.79 42, 6 42 C2 42, 0 40, 0 36 C0 26.9, 0 17.8, 0 6 C0 2, 2 0, 6 0" stroke="none" stroke-width="0" fill="#dbeafe"></path><path d="M6 0 C31.42 0, 56.85 0, 119 0 M6 0 C45.15 0, 84.31 0, 119 0 M119 0 C123 0, 125 2, 125 6 M119 0 C123 0, 125 2, 125 6 M125 6 C125 16.66, 125 27.33, 125 36 M125 6 C125 17.96, 125 29.92, 125 36 M125 36 C125 40, 123 42, 119 42 M125 36 C125 40, 123 42, 119 42 M119 42 C76.5 42, 34 42, 6 42 M119 42 C76.52 42, 34.05 42, 6 42 M6 42 C2 42, 0 40, 0 36 M6 42 C2 42, 0 40, 0 36 M0 36 C0 29.02, 0 22.04, 0 6 M0 36 C0 26.96, 0 17.91, 0 6 M0 6 C0 2, 2 0, 6 0 M0 6 C0 2, 2 0, 6 0" stroke="#3b82f6" stroke-width="1.5" fill="none"></path></g><g transform="translate(217.5 61.5) rotate(0 20 7)"><text x="20" y="9.559999999999999" font-family="Segoe UI Emoji" font-size="10px" fill="#1e293b" text-anchor="middle" style="white-space: pre;" direction="ltr" dominant-baseline="alphabetic">Web App</text></g><g stroke-linecap="round"><g transform="translate(237.5 87.5) rotate(0 0 360)"><path d="M0 0 C0 120, 0 600, 0 720" stroke="#94a3b8" stroke-width="1.5" fill="none" stroke-dasharray="8 9"></path></g></g><mask></mask><g stroke-linecap="round" transform="translate(340 45.5) rotate(0 62.5 21)"><path d="M6 0 C39.54 0, 73.08 0, 119 0 C123 0, 125 2, 125 6 C125 16.05, 125 26.1, 125 36 C125 40, 123 42, 119 42 C79.36 42, 39.72 42, 6 42 C2 42, 0 40, 0 36 C0 28.95, 0 21.89, 0 6 C0 2, 2 0, 6 0" stroke="none" stroke-width="0" fill="#dbeafe"></path><path d="M6 0 C35.25 0, 64.5 0, 119 0 M6 0 C46.57 0, 87.14 0, 119 0 M119 0 C123 0, 125 2, 125 6 M119 0 C123 0, 125 2, 125 6 M125 6 C125 17.78, 125 29.56, 125 36 M125 6 C125 17.73, 125 29.46, 125 36 M125 36 C125 40, 123 42, 119 42 M125 36 C125 40, 123 42, 119 42 M119 42 C92.89 42, 66.78 42, 6 42 M119 42 C77.5 42, 36.01 42, 6 42 M6 42 C2 42, 0 40, 0 36 M6 42 C2 42, 0 40, 0 36 M0 36 C0 24.96, 0 13.92, 0 6 M0 36 C0 27.71, 0 19.42, 0 6 M0 6 C0 2, 2 0, 6 0 M0 6 C0 2, 2 0, 6 0" stroke="#3b82f6" stroke-width="1.5" fill="none"></path></g><g transform="translate(375 61.5) rotate(0 27.5 7)"><text x="27.500000000000004" y="9.559999999999999" font-family="Segoe UI Emoji" font-size="10px" fill="#1e293b" text-anchor="middle" style="white-space: pre;" direction="ltr" dominant-baseline="alphabetic">API Server</text></g><g stroke-linecap="round"><g transform="translate(402.5 87.5) rotate(0 0 360)"><path d="M0 0 C0 120, 0 600, 0 720" stroke="#94a3b8" stroke-width="1.5" fill="none" stroke-dasharray="8 9"></path></g></g><mask></mask><g stroke-linecap="round" transform="translate(505 45.5) rotate(0 62.5 21)"><path d="M6 0 C39.39 0, 72.78 0, 119 0 C123 0, 125 2, 125 6 C125 17.76, 125 29.52, 125 36 C125 40, 123 42, 119 42 C85.22 42, 51.43 42, 6 42 C2 42, 0 40, 0 36 C0 28.19, 0 20.38, 0 6 C0 2, 2 0, 6 0" stroke="none" stroke-width="0" fill="#f3e8ff"></path><path d="M6 0 C33.32 0, 60.63 0, 119 0 M6 0 C49.43 0, 92.86 0, 119 0 M119 0 C123 0, 125 2, 125 6 M119 0 C123 0, 125 2, 125 6 M125 6 C125 17.82, 125 29.65, 125 36 M125 6 C125 12.73, 125 19.46, 125 36 M125 36 C125 40, 123 42, 119 42 M125 36 C125 40, 123 42, 119 42 M119 42 C74.57 42, 30.13 42, 6 42 M119 42 C82.67 42, 46.34 42, 6 42 M6 42 C2 42, 0 40, 0 36 M6 42 C2 42, 0 40, 0 36 M0 36 C0 24.89, 0 13.78, 0 6 M0 36 C0 24.65, 0 13.3, 0 6 M0 6 C0 2, 2 0, 6 0 M0 6 C0 2, 2 0, 6 0" stroke="#9333ea" stroke-width="1.5" fill="none"></path></g><g transform="translate(547.5 51.5) rotate(0 20 7)"><text x="20" y="9.559999999999999" font-family="Segoe UI Emoji" font-size="10px" fill="#1e293b" text-anchor="middle" style="white-space: pre;" direction="ltr" dominant-baseline="alphabetic">Email</text></g><g transform="translate(547.5 69.5) rotate(0 20 7)"><text x="20" y="9.559999999999999" font-family="Segoe UI Emoji" font-size="10px" fill="#64748b" text-anchor="middle" style="white-space: pre;" direction="ltr" dominant-baseline="alphabetic">Service</text></g><g stroke-linecap="round"><g transform="translate(567.5 87.5) rotate(0 0 360)"><path d="M0 0 C0 120, 0 600, 0 720" stroke="#94a3b8" stroke-width="1.5" fill="none" stroke-dasharray="8 9"></path></g></g><mask></mask><g stroke-linecap="round" transform="translate(670 45.5) rotate(0 62.5 21)"><path d="M6 0 C45.47 0, 84.94 0, 119 0 C123 0, 125 2, 125 6 C125 17.63, 125 29.26, 125 36 C125 40, 123 42, 119 42 C95.44 42, 71.89 42, 6 42 C2 42, 0 40, 0 36 C0 25.86, 0 15.71, 0 6 C0 2, 2 0, 6 0" stroke="none" stroke-width="0" fill="#dbeafe"></path><path d="M6 0 C43.36 0, 80.71 0, 119 0 M6 0 C30.9 0, 55.8 0, 119 0 M119 0 C123 0, 125 2, 125 6 M119 0 C123 0, 125 2, 125 6 M125 6 C125 13.26, 125 20.52, 125 36 M125 6 C125 12.45, 125 18.9, 125 36 M125 36 C125 40, 123 42, 119 42 M125 36 C125 40, 123 42, 119 42 M119 42 C86.75 42, 54.49 42, 6 42 M119 42 C75.99 42, 32.98 42, 6 42 M6 42 C2 42, 0 40, 0 36 M6 42 C2 42, 0 40, 0 36 M0 36 C0 29.68, 0 23.36, 0 6 M0 36 C0 26.87, 0 17.75, 0 6 M0 6 C0 2, 2 0, 6 0 M0 6 C0 2, 2 0, 6 0" stroke="#3b82f6" stroke-width="1.5" fill="none"></path></g><g transform="translate(707.75 51.5) rotate(0 24.75 7)"><text x="24.750000000000004" y="9.559999999999999" font-family="Segoe UI Emoji" font-size="10px" fill="#1e293b" text-anchor="middle" style="white-space: pre;" direction="ltr" dominant-baseline="alphabetic">Wolverine</text></g><g transform="translate(712.5 69.5) rotate(0 20 7)"><text x="20" y="9.559999999999999" font-family="Segoe UI Emoji" font-size="10px" fill="#64748b" text-anchor="middle" style="white-space: pre;" direction="ltr" dominant-baseline="alphabetic">(Jobs)</text></g><g stroke-linecap="round"><g transform="translate(732.5 87.5) rotate(0 0 360)"><path d="M0 0 C0 120, 0 600, 0 720" stroke="#94a3b8" stroke-width="1.5" fill="none" stroke-dasharray="8 9"></path></g></g><mask></mask><g stroke-linecap="round" transform="translate(835 45.5) rotate(0 62.5 21)"><path d="M6 0 C43.09 0, 80.18 0, 119 0 C123 0, 125 2, 125 6 C125 16.67, 125 27.34, 125 36 C125 40, 123 42, 119 42 C79.76 42, 40.53 42, 6 42 C2 42, 0 40, 0 36 C0 29.79, 0 23.57, 0 6 C0 2, 2 0, 6 0" stroke="none" stroke-width="0" fill="#ffedd5"></path><path d="M6 0 C46.67 0, 87.33 0, 119 0 M6 0 C49.85 0, 93.7 0, 119 0 M119 0 C123 0, 125 2, 125 6 M119 0 C123 0, 125 2, 125 6 M125 6 C125 13.56, 125 21.12, 125 36 M125 6 C125 16.85, 125 27.69, 125 36 M125 36 C125 40, 123 42, 119 42 M125 36 C125 40, 123 42, 119 42 M119 42 C76.52 42, 34.03 42, 6 42 M119 42 C92.53 42, 66.06 42, 6 42 M6 42 C2 42, 0 40, 0 36 M6 42 C2 42, 0 40, 0 36 M0 36 C0 27.4, 0 18.81, 0 6 M0 36 C0 27.53, 0 19.06, 0 6 M0 6 C0 2, 2 0, 6 0 M0 6 C0 2, 2 0, 6 0" stroke="#ea580c" stroke-width="1.5" fill="none"></path></g><g transform="translate(870 51.5) rotate(0 27.5 7)"><text x="27.500000000000004" y="9.559999999999999" font-family="Segoe UI Emoji" font-size="10px" fill="#1e293b" text-anchor="middle" style="white-space: pre;" direction="ltr" dominant-baseline="alphabetic">PostgreSQL</text></g><g transform="translate(875.5 69.5) rotate(0 22 7)"><text x="22" y="9.559999999999999" font-family="Segoe UI Emoji" font-size="10px" fill="#64748b" text-anchor="middle" style="white-space: pre;" direction="ltr" dominant-baseline="alphabetic">(public)</text></g><g stroke-linecap="round"><g transform="translate(897.5 87.5) rotate(0 0 360)"><path d="M0 0 C0 120, 0 600, 0 720" stroke="#94a3b8" stroke-width="1.5" fill="none" stroke-dasharray="8 9"></path></g></g><mask></mask><g stroke-linecap="round" transform="translate(1000 45.5) rotate(0 62.5 21)"><path d="M6 0 C40.3 0, 74.61 0, 119 0 C123 0, 125 2, 125 6 C125 12.81, 125 19.62, 125 36 C125 40, 123 42, 119 42 C90.51 42, 62.02 42, 6 42 C2 42, 0 40, 0 36 C0 29.53, 0 23.05, 0 6 C0 2, 2 0, 6 0" stroke="none" stroke-width="0" fill="#ffedd5"></path><path d="M6 0 C34.7 0, 63.39 0, 119 0 M6 0 C35.23 0, 64.46 0, 119 0 M119 0 C123 0, 125 2, 125 6 M119 0 C123 0, 125 2, 125 6 M125 6 C125 14.63, 125 23.27, 125 36 M125 6 C125 15.3, 125 24.6, 125 36 M125 36 C125 40, 123 42, 119 42 M125 36 C125 40, 123 42, 119 42 M119 42 C82.55 42, 46.11 42, 6 42 M119 42 C87.96 42, 56.93 42, 6 42 M6 42 C2 42, 0 40, 0 36 M6 42 C2 42, 0 40, 0 36 M0 36 C0 24.85, 0 13.71, 0 6 M0 36 C0 26.96, 0 17.93, 0 6 M0 6 C0 2, 2 0, 6 0 M0 6 C0 2, 2 0, 6 0" stroke="#ea580c" stroke-width="1.5" fill="none"></path></g><g transform="translate(1035 51.5) rotate(0 27.5 7)"><text x="27.500000000000004" y="9.559999999999999" font-family="Segoe UI Emoji" font-size="10px" fill="#1e293b" text-anchor="middle" style="white-space: pre;" direction="ltr" dominant-baseline="alphabetic">PostgreSQL</text></g><g transform="translate(1040.5 69.5) rotate(0 22 7)"><text x="22" y="9.559999999999999" font-family="Segoe UI Emoji" font-size="10px" fill="#64748b" text-anchor="middle" style="white-space: pre;" direction="ltr" dominant-baseline="alphabetic">(tenant)</text></g><g stroke-linecap="round"><g transform="translate(1062.5 87.5) rotate(0 0 360)"><path d="M0 0 C0 120, 0 600, 0 720" stroke="#94a3b8" stroke-width="1.5" fill="none" stroke-dasharray="8 9"></path></g></g><mask></mask><g stroke-linecap="round"><g transform="translate(32.5 339.5) rotate(0 0 0)"><path d="M0 0 C0 0, 0 0, 0 0" stroke="#94a3b8" stroke-width="1.5" fill="none" stroke-dasharray="8 9"></path></g></g><mask></mask><g transform="translate(12.5 346.5) rotate(0 66 7)"><text x="66" y="9.559999999999999" font-family="Segoe UI Emoji" font-size="10px" fill="#64748b" text-anchor="middle" style="white-space: pre;" direction="ltr" dominant-baseline="alphabetic">== Email Verification ==</text></g><g stroke-linecap="round"><g transform="translate(32.5 567.5) rotate(0 0 0)"><path d="M0 0 C0 0, 0 0, 0 0" stroke="#94a3b8" stroke-width="1.5" fill="none" stroke-dasharray="8 9"></path></g></g><mask></mask><g transform="translate(12.5 574.5) rotate(0 66 7)"><text x="66" y="9.559999999999999" font-family="Segoe UI Emoji" font-size="10px" fill="#64748b" text-anchor="middle" style="white-space: pre;" direction="ltr" dominant-baseline="alphabetic">== Async Provisioning ==</text></g><g stroke-linecap="round"><g transform="translate(72.5 157.5) rotate(0 82.5 0)"><path d="M0 0 C27.5 0, 137.5 0, 165 0 M0 0 C27.5 0, 137.5 0, 165 0" stroke="#475569" stroke-width="1.5" fill="none"></path></g><g transform="translate(72.5 157.5) rotate(0 82.5 0)"><path d="M141.51 8.55 C148.48 6.01, 155.45 3.47, 165 0 M141.51 8.55 C146.65 6.68, 151.79 4.81, 165 0" stroke="#475569" stroke-width="1.5" fill="none"></path></g><g transform="translate(72.5 157.5) rotate(0 82.5 0)"><path d="M141.51 -8.55 C148.48 -6.01, 155.45 -3.47, 165 0 M141.51 -8.55 C146.65 -6.68, 151.79 -4.81, 165 0" stroke="#475569" stroke-width="1.5" fill="none"></path></g></g><mask></mask><g transform="translate(94.5 138.5) rotate(0 60.5 7)"><text x="60.50000000000001" y="9.559999999999999" font-family="Segoe UI Emoji" font-size="10px" fill="#64748b" text-anchor="middle" style="white-space: pre;" direction="ltr" dominant-baseline="alphabetic">Fill registration form</text></g><g stroke-linecap="round"><g transform="translate(237.5 197.5) rotate(0 82.5 0)"><path d="M0 0 C27.5 0, 137.5 0, 165 0 M0 0 C27.5 0, 137.5 0, 165 0" stroke="#475569" stroke-width="1.5" fill="none"></path></g><g transform="translate(237.5 197.5) rotate(0 82.5 0)"><path d="M141.51 8.55 C147.87 6.24, 154.23 3.92, 165 0 M141.51 8.55 C147.79 6.26, 154.08 3.97, 165 0" stroke="#475569" stroke-width="1.5" fill="none"></path></g><g transform="translate(237.5 197.5) rotate(0 82.5 0)"><path d="M141.51 -8.55 C147.87 -6.24, 154.23 -3.92, 165 0 M141.51 -8.55 C147.79 -6.26, 154.08 -3.97, 165 0" stroke="#475569" stroke-width="1.5" fill="none"></path></g></g><mask></mask><g transform="translate(267.75 178.5) rotate(0 52.25 7)"><text x="52.25000000000001" y="9.559999999999999" font-family="Segoe UI Emoji" font-size="10px" fill="#64748b" text-anchor="middle" style="white-space: pre;" direction="ltr" dominant-baseline="alphabetic">POST /auth/register</text></g><g stroke-linecap="round"><g transform="translate(402.5 237.5) rotate(0 247.5 0)"><path d="M0 0 C82.5 0, 412.5 0, 495 0 M0 0 C82.5 0, 412.5 0, 495 0" stroke="#475569" stroke-width="1.5" fill="none"></path></g><g transform="translate(402.5 237.5) rotate(0 247.5 0)"><path d="M471.51 8.55 C479.15 5.77, 486.79 2.99, 495 0 M471.51 8.55 C478.29 6.08, 485.07 3.61, 495 0" stroke="#475569" stroke-width="1.5" fill="none"></path></g><g transform="translate(402.5 237.5) rotate(0 247.5 0)"><path d="M471.51 -8.55 C479.15 -5.77, 486.79 -2.99, 495 0 M471.51 -8.55 C478.29 -6.08, 485.07 -3.61, 495 0" stroke="#475569" stroke-width="1.5" fill="none"></path></g></g><mask></mask><g transform="translate(581.25 218.5) rotate(0 68.75 7)"><text x="68.75" y="9.559999999999999" font-family="Segoe UI Emoji" font-size="10px" fill="#64748b" text-anchor="middle" style="white-space: pre;" direction="ltr" dominant-baseline="alphabetic">Save org (PENDING) + user</text></g><g stroke-linecap="round"><g transform="translate(402.5 277.5) rotate(0 82.5 0)"><path d="M0 0 C27.5 0, 137.5 0, 165 0 M0 0 C27.5 0, 137.5 0, 165 0" stroke="#475569" stroke-width="1.5" fill="none"></path></g><g transform="translate(402.5 277.5) rotate(0 82.5 0)"><path d="M141.51 8.55 C146.53 6.72, 151.55 4.9, 165 0 M141.51 8.55 C147.38 6.41, 153.26 4.27, 165 0" stroke="#475569" stroke-width="1.5" fill="none"></path></g><g transform="translate(402.5 277.5) rotate(0 82.5 0)"><path d="M141.51 -8.55 C146.53 -6.72, 151.55 -4.9, 165 0 M141.51 -8.55 C147.38 -6.41, 153.26 -4.27, 165 0" stroke="#475569" stroke-width="1.5" fill="none"></path></g></g><mask></mask><g transform="translate(421.75 258.5) rotate(0 63.25 7)"><text x="63.25000000000001" y="9.559999999999999" font-family="Segoe UI Emoji" font-size="10px" fill="#64748b" text-anchor="middle" style="white-space: pre;" direction="ltr" dominant-baseline="alphabetic">Send verification email</text></g><g stroke-linecap="round"><g transform="translate(402.5 309.5) rotate(0 -82.5 0)"><path d="M0 0 C-27.5 0, -137.5 0, -165 0" stroke="#475569" stroke-width="2" fill="none" stroke-dasharray="8 9.5"></path></g><g transform="translate(402.5 309.5) rotate(0 -82.5 0)"><path d="M-141.51 -8.55 C-147.27 -6.45, -153.03 -4.36, -165 0" stroke="#475569" stroke-width="2" fill="none"></path></g><g transform="translate(402.5 309.5) rotate(0 -82.5 0)"><path d="M-141.51 8.55 C-147.27 6.45, -153.03 4.36, -165 0" stroke="#475569" stroke-width="2" fill="none"></path></g></g><mask></mask><g transform="translate(287 290.5) rotate(0 33 7)"><text x="33" y="9.559999999999999" font-family="Segoe UI Emoji" font-size="10px" fill="#64748b" text-anchor="middle" style="white-space: pre;" direction="ltr" dominant-baseline="alphabetic">202 Accepted</text></g><g stroke-linecap="round"><g transform="translate(72.5 365.5) rotate(0 82.5 0)"><path d="M0 0 C27.5 0, 137.5 0, 165 0 M0 0 C27.5 0, 137.5 0, 165 0" stroke="#475569" stroke-width="1.5" fill="none"></path></g><g transform="translate(72.5 365.5) rotate(0 82.5 0)"><path d="M141.51 8.55 C150.8 5.17, 160.09 1.79, 165 0 M141.51 8.55 C148.84 5.88, 156.17 3.22, 165 0" stroke="#475569" stroke-width="1.5" fill="none"></path></g><g transform="translate(72.5 365.5) rotate(0 82.5 0)"><path d="M141.51 -8.55 C150.8 -5.17, 160.09 -1.79, 165 0 M141.51 -8.55 C148.84 -5.88, 156.17 -3.22, 165 0" stroke="#475569" stroke-width="1.5" fill="none"></path></g></g><mask></mask><g transform="translate(91.75 346.5) rotate(0 63.25 7)"><text x="63.25000000000001" y="9.559999999999999" font-family="Segoe UI Emoji" font-size="10px" fill="#64748b" text-anchor="middle" style="white-space: pre;" direction="ltr" dominant-baseline="alphabetic">Click verification link</text></g><g stroke-linecap="round"><g transform="translate(237.5 405.5) rotate(0 82.5 0)"><path d="M0 0 C27.5 0, 137.5 0, 165 0 M0 0 C27.5 0, 137.5 0, 165 0" stroke="#475569" stroke-width="1.5" fill="none"></path></g><g transform="translate(237.5 405.5) rotate(0 82.5 0)"><path d="M141.51 8.55 C147.3 6.44, 153.09 4.33, 165 0 M141.51 8.55 C147.9 6.23, 154.28 3.9, 165 0" stroke="#475569" stroke-width="1.5" fill="none"></path></g><g transform="translate(237.5 405.5) rotate(0 82.5 0)"><path d="M141.51 -8.55 C147.3 -6.44, 153.09 -4.33, 165 0 M141.51 -8.55 C147.9 -6.23, 154.28 -3.9, 165 0" stroke="#475569" stroke-width="1.5" fill="none"></path></g></g><mask></mask><g transform="translate(256.75 386.5) rotate(0 63.25 7)"><text x="63.25000000000001" y="9.559999999999999" font-family="Segoe UI Emoji" font-size="10px" fill="#64748b" text-anchor="middle" style="white-space: pre;" direction="ltr" dominant-baseline="alphabetic">POST /auth/verify-email</text></g><g stroke-linecap="round"><g transform="translate(402.5 445.5) rotate(0 247.5 0)"><path d="M0 0 C82.5 0, 412.5 0, 495 0 M0 0 C82.5 0, 412.5 0, 495 0" stroke="#475569" stroke-width="1.5" fill="none"></path></g><g transform="translate(402.5 445.5) rotate(0 247.5 0)"><path d="M471.51 8.55 C478.08 6.16, 484.65 3.77, 495 0 M471.51 8.55 C479.27 5.73, 487.03 2.9, 495 0" stroke="#475569" stroke-width="1.5" fill="none"></path></g><g transform="translate(402.5 445.5) rotate(0 247.5 0)"><path d="M471.51 -8.55 C478.08 -6.16, 484.65 -3.77, 495 0 M471.51 -8.55 C479.27 -5.73, 487.03 -2.9, 495 0" stroke="#475569" stroke-width="1.5" fill="none"></path></g></g><mask></mask><g transform="translate(573 426.5) rotate(0 77 7)"><text x="77" y="9.559999999999999" font-family="Segoe UI Emoji" font-size="10px" fill="#64748b" text-anchor="middle" style="white-space: pre;" direction="ltr" dominant-baseline="alphabetic">Mark VERIFIED + PROVISIONING</text></g><g stroke-linecap="round"><g transform="translate(402.5 485.5) rotate(0 165 0)"><path d="M0 0 C55 0, 275 0, 330 0 M0 0 C55 0, 275 0, 330 0" stroke="#475569" stroke-width="1.5" fill="none"></path></g><g transform="translate(402.5 485.5) rotate(0 165 0)"><path d="M306.51 8.55 C313.08 6.16, 319.65 3.77, 330 0 M306.51 8.55 C315.89 5.14, 325.27 1.72, 330 0" stroke="#475569" stroke-width="1.5" fill="none"></path></g><g transform="translate(402.5 485.5) rotate(0 165 0)"><path d="M306.51 -8.55 C313.08 -6.16, 319.65 -3.77, 330 0 M306.51 -8.55 C315.89 -5.14, 325.27 -1.72, 330 0" stroke="#475569" stroke-width="1.5" fill="none"></path></g></g><mask></mask><g transform="translate(496 466.5) rotate(0 71.5 7)"><text x="71.5" y="9.559999999999999" font-family="Segoe UI Emoji" font-size="10px" fill="#64748b" text-anchor="middle" style="white-space: pre;" direction="ltr" dominant-baseline="alphabetic">Enqueue ProvisionTenantJob</text></g><g stroke-linecap="round"><g transform="translate(402.5 525.5) rotate(0 -82.5 0)"><path d="M0 0 C-27.5 0, -137.5 0, -165 0" stroke="#475569" stroke-width="2" fill="none" stroke-dasharray="8 9.5"></path></g><g transform="translate(402.5 525.5) rotate(0 -82.5 0)"><path d="M-141.51 -8.55 C-148.01 -6.18, -154.51 -3.82, -165 0" stroke="#475569" stroke-width="2" fill="none"></path></g><g transform="translate(402.5 525.5) rotate(0 -82.5 0)"><path d="M-141.51 8.55 C-148.01 6.18, -154.51 3.82, -165 0" stroke="#475569" stroke-width="2" fill="none"></path></g></g><mask></mask><g transform="translate(273.25 506.5) rotate(0 46.75 7)"><text x="46.75000000000001" y="9.559999999999999" font-family="Segoe UI Emoji" font-size="10px" fill="#64748b" text-anchor="middle" style="white-space: pre;" direction="ltr" dominant-baseline="alphabetic">200 OK → Redirect</text></g><g stroke-linecap="round"><g transform="translate(732.5 597.5) rotate(0 82.5 0)"><path d="M0 0 C27.5 0, 137.5 0, 165 0 M0 0 C27.5 0, 137.5 0, 165 0" stroke="#475569" stroke-width="1.5" fill="none"></path></g><g transform="translate(732.5 597.5) rotate(0 82.5 0)"><path d="M141.51 8.55 C148.93 5.85, 156.35 3.15, 165 0 M141.51 8.55 C150.35 5.33, 159.2 2.11, 165 0" stroke="#475569" stroke-width="1.5" fill="none"></path></g><g transform="translate(732.5 597.5) rotate(0 82.5 0)"><path d="M141.51 -8.55 C148.93 -5.85, 156.35 -3.15, 165 0 M141.51 -8.55 C150.35 -5.33, 159.2 -2.11, 165 0" stroke="#475569" stroke-width="1.5" fill="none"></path></g></g><mask></mask><g transform="translate(760 578.5) rotate(0 55 7)"><text x="55.00000000000001" y="9.559999999999999" font-family="Segoe UI Emoji" font-size="10px" fill="#64748b" text-anchor="middle" style="white-space: pre;" direction="ltr" dominant-baseline="alphabetic">Generate schema name</text></g><g stroke-linecap="round"><g transform="translate(732.5 637.5) rotate(0 165 0)"><path d="M0 0 C55 0, 275 0, 330 0 M0 0 C55 0, 275 0, 330 0" stroke="#475569" stroke-width="1.5" fill="none"></path></g><g transform="translate(732.5 637.5) rotate(0 165 0)"><path d="M306.51 8.55 C311.66 6.67, 316.82 4.8, 330 0 M306.51 8.55 C314.19 5.75, 321.87 2.96, 330 0" stroke="#475569" stroke-width="1.5" fill="none"></path></g><g transform="translate(732.5 637.5) rotate(0 165 0)"><path d="M306.51 -8.55 C311.66 -6.67, 316.82 -4.8, 330 0 M306.51 -8.55 C314.19 -5.75, 321.87 -2.96, 330 0" stroke="#475569" stroke-width="1.5" fill="none"></path></g></g><mask></mask><g transform="translate(823.25 618.5) rotate(0 74.25 7)"><text x="74.25" y="9.559999999999999" font-family="Segoe UI Emoji" font-size="10px" fill="#64748b" text-anchor="middle" style="white-space: pre;" direction="ltr" dominant-baseline="alphabetic">CREATE SCHEMA tenant_{slug}</text></g><g stroke-linecap="round"><g transform="translate(732.5 677.5) rotate(0 165 0)"><path d="M0 0 C55 0, 275 0, 330 0 M0 0 C55 0, 275 0, 330 0" stroke="#475569" stroke-width="1.5" fill="none"></path></g><g transform="translate(732.5 677.5) rotate(0 165 0)"><path d="M306.51 8.55 C314.47 5.65, 322.44 2.75, 330 0 M306.51 8.55 C314.34 5.7, 322.18 2.85, 330 0" stroke="#475569" stroke-width="1.5" fill="none"></path></g><g transform="translate(732.5 677.5) rotate(0 165 0)"><path d="M306.51 -8.55 C314.47 -5.65, 322.44 -2.75, 330 0 M306.51 -8.55 C314.34 -5.7, 322.18 -2.85, 330 0" stroke="#475569" stroke-width="1.5" fill="none"></path></g></g><mask></mask><g transform="translate(837 658.5) rotate(0 60.5 7)"><text x="60.50000000000001" y="9.559999999999999" font-family="Segoe UI Emoji" font-size="10px" fill="#64748b" text-anchor="middle" style="white-space: pre;" direction="ltr" dominant-baseline="alphabetic">Run EF Core migrations</text></g><g stroke-linecap="round"><g transform="translate(732.5 717.5) rotate(0 82.5 0)"><path d="M0 0 C27.5 0, 137.5 0, 165 0 M0 0 C27.5 0, 137.5 0, 165 0" stroke="#475569" stroke-width="1.5" fill="none"></path></g><g transform="translate(732.5 717.5) rotate(0 82.5 0)"><path d="M141.51 8.55 C147.85 6.24, 154.19 3.94, 165 0 M141.51 8.55 C146.32 6.8, 151.13 5.05, 165 0" stroke="#475569" stroke-width="1.5" fill="none"></path></g><g transform="translate(732.5 717.5) rotate(0 82.5 0)"><path d="M141.51 -8.55 C147.85 -6.24, 154.19 -3.94, 165 0 M141.51 -8.55 C146.32 -6.8, 151.13 -5.05, 165 0" stroke="#475569" stroke-width="1.5" fill="none"></path></g></g><mask></mask><g transform="translate(743.5 698.5) rotate(0 71.5 7)"><text x="71.5" y="9.559999999999999" font-family="Segoe UI Emoji" font-size="10px" fill="#64748b" text-anchor="middle" style="white-space: pre;" direction="ltr" dominant-baseline="alphabetic">Assign Admin role + ACTIVE</text></g><g stroke-linecap="round"><g transform="translate(732.5 757.5) rotate(0 -82.5 0)"><path d="M0 0 C-27.5 0, -137.5 0, -165 0 M0 0 C-27.5 0, -137.5 0, -165 0" stroke="#475569" stroke-width="1.5" fill="none"></path></g><g transform="translate(732.5 757.5) rotate(0 -82.5 0)"><path d="M-141.51 -8.55 C-150.77 -5.18, -160.04 -1.81, -165 0 M-141.51 -8.55 C-150.26 -5.36, -159.01 -2.18, -165 0" stroke="#475569" stroke-width="1.5" fill="none"></path></g><g transform="translate(732.5 757.5) rotate(0 -82.5 0)"><path d="M-141.51 8.55 C-150.77 5.18, -160.04 1.81, -165 0 M-141.51 8.55 C-150.26 5.36, -159.01 2.18, -165 0" stroke="#475569" stroke-width="1.5" fill="none"></path></g></g><mask></mask><g transform="translate(600.5 738.5) rotate(0 49.5 7)"><text x="49.50000000000001" y="9.559999999999999" font-family="Segoe UI Emoji" font-size="10px" fill="#64748b" text-anchor="middle" style="white-space: pre;" direction="ltr" dominant-baseline="alphabetic">Send Welcome email</text></g><g stroke-linecap="round" transform="translate(32.5 797.5) rotate(0 280 15)"><path d="M6 0 C149.12 0, 292.24 0, 554 0 C558 0, 560 2, 560 6 C560 11.41, 560 16.82, 560 24 C560 28, 558 30, 554 30 C336.48 30, 118.97 30, 6 30 C2 30, 0 28, 0 24 C0 17.17, 0 10.34, 0 6 C0 2, 2 0, 6 0" stroke="none" stroke-width="0" fill="#fef9c3"></path><path d="M6 0 C134.47 0, 262.94 0, 554 0 M6 0 C115.95 0, 225.9 0, 554 0 M554 0 C558 0, 560 2, 560 6 M554 0 C558 0, 560 2, 560 6 M560 6 C560 10.5, 560 15.01, 560 24 M560 6 C560 12.29, 560 18.57, 560 24 M560 24 C560 28, 558 30, 554 30 M560 24 C560 28, 558 30, 554 30 M554 30 C424.95 30, 295.89 30, 6 30 M554 30 C352.38 30, 150.77 30, 6 30 M6 30 C2 30, 0 28, 0 24 M6 30 C2 30, 0 28, 0 24 M0 24 C0 19.09, 0 14.19, 0 6 M0 24 C0 19.05, 0 14.09, 0 6 M0 6 C0 2, 2 0, 6 0 M0 6 C0 2, 2 0, 6 0" stroke="#ca8a04" stroke-width="1.5" fill="none"></path></g><g transform="translate(177.75 807.5) rotate(0 134.75 7)"><text x="134.75" y="9.559999999999999" font-family="Segoe UI Emoji" font-size="10px" fill="#1e293b" text-anchor="middle" style="white-space: pre;" direction="ltr" dominant-baseline="alphabetic">UI polls org.status = ACTIVE then shows dashboard</text></g></svg>