<svg version="1.1" xmlns="http://www.w3.org/2000/svg" viewBox="0 0 845 885.5" width="845" height="885.5"><!-- svg-source:excalidraw --><metadata></metadata><defs><style class="style-fonts">
      </style></defs><rect x="0" y="0" width="845" height="885.5" fill="#f8fafc"></rect><g transform="translate(12.5 10) rotate(0 169.125 10.5)"><text x="169.125" y="14.34" font-family="Segoe UI Emoji" font-size="15px" fill="#1e293b" text-anchor="middle" style="white-space: pre;" direction="ltr" dominant-baseline="alphabetic">Authentication Flow — JWT + Refresh Token</text></g><g stroke-linecap="round" transform="translate(10 45.5) rotate(0 62.5 21)"><path d="M6 0 C31.98 0, 57.96 0, 119 0 C123 0, 125 2, 125 6 C125 15.74, 125 25.47, 125 36 C125 40, 123 42, 119 42 C88.67 42, 58.35 42, 6 42 C2 42, 0 40, 0 36 C0 29.41, 0 22.81, 0 6 C0 2, 2 0, 6 0" stroke="none" stroke-width="0" fill="#dbeafe"></path><path d="M6 0 C45.3 0, 84.6 0, 119 0 M6 0 C44.5 0, 83 0, 119 0 M119 0 C123 0, 125 2, 125 6 M119 0 C123 0, 125 2, 125 6 M125 6 C125 12.7, 125 19.4, 125 36 M125 6 C125 15.47, 125 24.95, 125 36 M125 36 C125 40, 123 42, 119 42 M125 36 C125 40, 123 42, 119 42 M119 42 C89.17 42, 59.33 42, 6 42 M119 42 C82.27 42, 45.55 42, 6 42 M6 42 C2 42, 0 40, 0 36 M6 42 C2 42, 0 40, 0 36 M0 36 C0 29.1, 0 22.2, 0 6 M0 36 C0 25.48, 0 14.95, 0 6 M0 6 C0 2, 2 0, 6 0 M0 6 C0 2, 2 0, 6 0" stroke="#3b82f6" stroke-width="1.5" fill="none"></path></g><g transform="translate(52.5 61.5) rotate(0 20 7)"><text x="20" y="9.559999999999999" font-family="Segoe UI Emoji" font-size="10px" fill="#1e293b" text-anchor="middle" style="white-space: pre;" direction="ltr" dominant-baseline="alphabetic">User</text></g><g stroke-linecap="round"><g transform="translate(72.5 87.5) rotate(0 0 394)"><path d="M0 0 C0 131.33, 0 656.67, 0 788" stroke="#94a3b8" stroke-width="1.5" fill="none" stroke-dasharray="8 9"></path></g></g><mask></mask><g stroke-linecap="round" transform="translate(185 45.5) rotate(0 62.5 21)"><path d="M6 0 C42.62 0, 79.24 0, 119 0 C123 0, 125 2, 125 6 C125 12.94, 125 19.88, 125 36 C125 40, 123 42, 119 42 C88.07 42, 57.15 42, 6 42 C2 42, 0 40, 0 36 C0 27.61, 0 19.21, 0 6 C0 2, 2 0, 6 0" stroke="none" stroke-width="0" fill="#dbeafe"></path><path d="M6 0 C47.12 0, 88.24 0, 119 0 M6 0 C31.7 0, 57.39 0, 119 0 M119 0 C123 0, 125 2, 125 6 M119 0 C123 0, 125 2, 125 6 M125 6 C125 17.83, 125 29.65, 125 36 M125 6 C125 12.57, 125 19.13, 125 36 M125 36 C125 40, 123 42, 119 42 M125 36 C125 40, 123 42, 119 42 M119 42 C88.34 42, 57.69 42, 6 42 M119 42 C91.89 42, 64.78 42, 6 42 M6 42 C2 42, 0 40, 0 36 M6 42 C2 42, 0 40, 0 36 M0 36 C0 26.18, 0 16.35, 0 6 M0 36 C0 28.41, 0 20.83, 0 6 M0 6 C0 2, 2 0, 6 0 M0 6 C0 2, 2 0, 6 0" stroke="#3b82f6" stroke-width="1.5" fill="none"></path></g><g transform="translate(227.5 51.5) rotate(0 20 7)"><text x="20" y="9.559999999999999" font-family="Segoe UI Emoji" font-size="10px" fill="#1e293b" text-anchor="middle" style="white-space: pre;" direction="ltr" dominant-baseline="alphabetic">Web App</text></g><g transform="translate(217.25 69.5) rotate(0 30.25 7)"><text x="30.250000000000004" y="9.559999999999999" font-family="Segoe UI Emoji" font-size="10px" fill="#64748b" text-anchor="middle" style="white-space: pre;" direction="ltr" dominant-baseline="alphabetic">(React SPA)</text></g><g stroke-linecap="round"><g transform="translate(247.5 87.5) rotate(0 0 394)"><path d="M0 0 C0 131.33, 0 656.67, 0 788" stroke="#94a3b8" stroke-width="1.5" fill="none" stroke-dasharray="8 9"></path></g></g><mask></mask><g stroke-linecap="round" transform="translate(360 45.5) rotate(0 62.5 21)"><path d="M6 0 C41.62 0, 77.25 0, 119 0 C123 0, 125 2, 125 6 C125 14.02, 125 22.04, 125 36 C125 40, 123 42, 119 42 C91.03 42, 63.07 42, 6 42 C2 42, 0 40, 0 36 C0 24.1, 0 12.2, 0 6 C0 2, 2 0, 6 0" stroke="none" stroke-width="0" fill="#dbeafe"></path><path d="M6 0 C42.51 0, 79.02 0, 119 0 M6 0 C48.34 0, 90.68 0, 119 0 M119 0 C123 0, 125 2, 125 6 M119 0 C123 0, 125 2, 125 6 M125 6 C125 16.82, 125 27.64, 125 36 M125 6 C125 16.34, 125 26.68, 125 36 M125 36 C125 40, 123 42, 119 42 M125 36 C125 40, 123 42, 119 42 M119 42 C89.01 42, 59.02 42, 6 42 M119 42 C83.61 42, 48.22 42, 6 42 M6 42 C2 42, 0 40, 0 36 M6 42 C2 42, 0 40, 0 36 M0 36 C0 24.64, 0 13.28, 0 6 M0 36 C0 28.23, 0 20.45, 0 6 M0 6 C0 2, 2 0, 6 0 M0 6 C0 2, 2 0, 6 0" stroke="#3b82f6" stroke-width="1.5" fill="none"></path></g><g transform="translate(395 51.5) rotate(0 27.5 7)"><text x="27.500000000000004" y="9.559999999999999" font-family="Segoe UI Emoji" font-size="10px" fill="#1e293b" text-anchor="middle" style="white-space: pre;" direction="ltr" dominant-baseline="alphabetic">API Server</text></g><g transform="translate(389.5 69.5) rotate(0 33 7)"><text x="33" y="9.559999999999999" font-family="Segoe UI Emoji" font-size="10px" fill="#64748b" text-anchor="middle" style="white-space: pre;" direction="ltr" dominant-baseline="alphabetic">(OpenIddict)</text></g><g stroke-linecap="round"><g transform="translate(422.5 87.5) rotate(0 0 394)"><path d="M0 0 C0 131.33, 0 656.67, 0 788" stroke="#94a3b8" stroke-width="1.5" fill="none" stroke-dasharray="8 9"></path></g></g><mask></mask><g stroke-linecap="round" transform="translate(535 45.5) rotate(0 62.5 21)"><path d="M6 0 C42.12 0, 78.25 0, 119 0 C123 0, 125 2, 125 6 C125 14.74, 125 23.48, 125 36 C125 40, 123 42, 119 42 C91.54 42, 64.08 42, 6 42 C2 42, 0 40, 0 36 C0 27.93, 0 19.85, 0 6 C0 2, 2 0, 6 0" stroke="none" stroke-width="0" fill="#ffedd5"></path><path d="M6 0 C34.82 0, 63.65 0, 119 0 M6 0 C43.19 0, 80.38 0, 119 0 M119 0 C123 0, 125 2, 125 6 M119 0 C123 0, 125 2, 125 6 M125 6 C125 14.43, 125 22.85, 125 36 M125 6 C125 14.4, 125 22.8, 125 36 M125 36 C125 40, 123 42, 119 42 M125 36 C125 40, 123 42, 119 42 M119 42 C90.04 42, 61.07 42, 6 42 M119 42 C91.25 42, 63.51 42, 6 42 M6 42 C2 42, 0 40, 0 36 M6 42 C2 42, 0 40, 0 36 M0 36 C0 25.18, 0 14.36, 0 6 M0 36 C0 27.55, 0 19.09, 0 6 M0 6 C0 2, 2 0, 6 0 M0 6 C0 2, 2 0, 6 0" stroke="#ea580c" stroke-width="1.5" fill="none"></path></g><g transform="translate(577.5 51.5) rotate(0 20 7)"><text x="20" y="9.559999999999999" font-family="Segoe UI Emoji" font-size="10px" fill="#1e293b" text-anchor="middle" style="white-space: pre;" direction="ltr" dominant-baseline="alphabetic">Redis</text></g><g transform="translate(550.75 69.5) rotate(0 46.75 7)"><text x="46.75000000000001" y="9.559999999999999" font-family="Segoe UI Emoji" font-size="10px" fill="#64748b" text-anchor="middle" style="white-space: pre;" direction="ltr" dominant-baseline="alphabetic">(token blacklist)</text></g><g stroke-linecap="round"><g transform="translate(597.5 87.5) rotate(0 0 394)"><path d="M0 0 C0 131.33, 0 656.67, 0 788" stroke="#94a3b8" stroke-width="1.5" fill="none" stroke-dasharray="8 9"></path></g></g><mask></mask><g stroke-linecap="round" transform="translate(710 45.5) rotate(0 62.5 21)"><path d="M6 0 C29.89 0, 53.78 0, 119 0 C123 0, 125 2, 125 6 C125 15.16, 125 24.33, 125 36 C125 40, 123 42, 119 42 C91.06 42, 63.11 42, 6 42 C2 42, 0 40, 0 36 C0 28.53, 0 21.05, 0 6 C0 2, 2 0, 6 0" stroke="none" stroke-width="0" fill="#ffedd5"></path><path d="M6 0 C29.54 0, 53.07 0, 119 0 M6 0 C30.02 0, 54.05 0, 119 0 M119 0 C123 0, 125 2, 125 6 M119 0 C123 0, 125 2, 125 6 M125 6 C125 13.18, 125 20.35, 125 36 M125 6 C125 14.99, 125 23.97, 125 36 M125 36 C125 40, 123 42, 119 42 M125 36 C125 40, 123 42, 119 42 M119 42 C88.64 42, 58.27 42, 6 42 M119 42 C80.46 42, 41.92 42, 6 42 M6 42 C2 42, 0 40, 0 36 M6 42 C2 42, 0 40, 0 36 M0 36 C0 26.92, 0 17.83, 0 6 M0 36 C0 25.21, 0 14.43, 0 6 M0 6 C0 2, 2 0, 6 0 M0 6 C0 2, 2 0, 6 0" stroke="#ea580c" stroke-width="1.5" fill="none"></path></g><g transform="translate(745 61.5) rotate(0 27.5 7)"><text x="27.500000000000004" y="9.559999999999999" font-family="Segoe UI Emoji" font-size="10px" fill="#1e293b" text-anchor="middle" style="white-space: pre;" direction="ltr" dominant-baseline="alphabetic">PostgreSQL</text></g><g stroke-linecap="round"><g transform="translate(772.5 87.5) rotate(0 0 394)"><path d="M0 0 C0 131.33, 0 656.67, 0 788" stroke="#94a3b8" stroke-width="1.5" fill="none" stroke-dasharray="8 9"></path></g></g><mask></mask><g stroke-linecap="round"><g transform="translate(32.5 137.5) rotate(0 0 0)"><path d="M0 0 C0 0, 0 0, 0 0" stroke="#94a3b8" stroke-width="1.5" fill="none" stroke-dasharray="8 9"></path></g></g><mask></mask><g transform="translate(12.5 144.5) rotate(0 35.75 7)"><text x="35.75" y="9.559999999999999" font-family="Segoe UI Emoji" font-size="10px" fill="#64748b" text-anchor="middle" style="white-space: pre;" direction="ltr" dominant-baseline="alphabetic">== Sign In ==</text></g><g stroke-linecap="round"><g transform="translate(32.5 317.5) rotate(0 0 0)"><path d="M0 0 C0 0, 0 0, 0 0" stroke="#94a3b8" stroke-width="1.5" fill="none" stroke-dasharray="8 9"></path></g></g><mask></mask><g transform="translate(12.5 324.5) rotate(0 74.25 7)"><text x="74.25" y="9.559999999999999" font-family="Segoe UI Emoji" font-size="10px" fill="#64748b" text-anchor="middle" style="white-space: pre;" direction="ltr" dominant-baseline="alphabetic">== Authenticated Request ==</text></g><g stroke-linecap="round"><g transform="translate(32.5 487.5) rotate(0 0 0)"><path d="M0 0 C0 0, 0 0, 0 0" stroke="#94a3b8" stroke-width="1.5" fill="none" stroke-dasharray="8 9"></path></g></g><mask></mask><g transform="translate(12.5 494.5) rotate(0 71.5 7)"><text x="71.5" y="9.559999999999999" font-family="Segoe UI Emoji" font-size="10px" fill="#64748b" text-anchor="middle" style="white-space: pre;" direction="ltr" dominant-baseline="alphabetic">== Silent Token Refresh ==</text></g><g stroke-linecap="round"><g transform="translate(32.5 637.5) rotate(0 0 0)"><path d="M0 0 C0 0, 0 0, 0 0" stroke="#94a3b8" stroke-width="1.5" fill="none" stroke-dasharray="8 9"></path></g></g><mask></mask><g transform="translate(12.5 644.5) rotate(0 38.5 7)"><text x="38.5" y="9.559999999999999" font-family="Segoe UI Emoji" font-size="10px" fill="#64748b" text-anchor="middle" style="white-space: pre;" direction="ltr" dominant-baseline="alphabetic">== Sign Out ==</text></g><g stroke-linecap="round"><g transform="translate(72.5 165.5) rotate(0 87.5 0)"><path d="M0 0 C29.17 0, 145.83 0, 175 0 M0 0 C29.17 0, 145.83 0, 175 0" stroke="#475569" stroke-width="1.5" fill="none"></path></g><g transform="translate(72.5 165.5) rotate(0 87.5 0)"><path d="M151.51 8.55 C160.32 5.34, 169.13 2.14, 175 0 M151.51 8.55 C156.37 6.78, 161.24 5.01, 175 0" stroke="#475569" stroke-width="1.5" fill="none"></path></g><g transform="translate(72.5 165.5) rotate(0 87.5 0)"><path d="M151.51 -8.55 C160.32 -5.34, 169.13 -2.14, 175 0 M151.51 -8.55 C156.37 -6.78, 161.24 -5.01, 175 0" stroke="#475569" stroke-width="1.5" fill="none"></path></g></g><mask></mask><g transform="translate(99.5 146.5) rotate(0 60.5 7)"><text x="60.50000000000001" y="9.559999999999999" font-family="Segoe UI Emoji" font-size="10px" fill="#64748b" text-anchor="middle" style="white-space: pre;" direction="ltr" dominant-baseline="alphabetic">Enter email + password</text></g><g stroke-linecap="round"><g transform="translate(247.5 205.5) rotate(0 87.5 0)"><path d="M0 0 C29.17 0, 145.83 0, 175 0 M0 0 C29.17 0, 145.83 0, 175 0" stroke="#475569" stroke-width="1.5" fill="none"></path></g><g transform="translate(247.5 205.5) rotate(0 87.5 0)"><path d="M151.51 8.55 C158.12 6.14, 164.74 3.73, 175 0 M151.51 8.55 C159.51 5.64, 167.51 2.73, 175 0" stroke="#475569" stroke-width="1.5" fill="none"></path></g><g transform="translate(247.5 205.5) rotate(0 87.5 0)"><path d="M151.51 -8.55 C158.12 -6.14, 164.74 -3.73, 175 0 M151.51 -8.55 C159.51 -5.64, 167.51 -2.73, 175 0" stroke="#475569" stroke-width="1.5" fill="none"></path></g></g><mask></mask><g transform="translate(291 186.5) rotate(0 44 7)"><text x="44" y="9.559999999999999" font-family="Segoe UI Emoji" font-size="10px" fill="#64748b" text-anchor="middle" style="white-space: pre;" direction="ltr" dominant-baseline="alphabetic">POST /auth/token</text></g><g stroke-linecap="round"><g transform="translate(422.5 245.5) rotate(0 175 0)"><path d="M0 0 C58.33 0, 291.67 0, 350 0 M0 0 C58.33 0, 291.67 0, 350 0" stroke="#475569" stroke-width="1.5" fill="none"></path></g><g transform="translate(422.5 245.5) rotate(0 175 0)"><path d="M326.51 8.55 C331.53 6.72, 336.55 4.9, 350 0 M326.51 8.55 C335.28 5.36, 344.04 2.17, 350 0" stroke="#475569" stroke-width="1.5" fill="none"></path></g><g transform="translate(422.5 245.5) rotate(0 175 0)"><path d="M326.51 -8.55 C331.53 -6.72, 336.55 -4.9, 350 0 M326.51 -8.55 C335.28 -5.36, 344.04 -2.17, 350 0" stroke="#475569" stroke-width="1.5" fill="none"></path></g></g><mask></mask><g transform="translate(542.5 226.5) rotate(0 55 7)"><text x="55.00000000000001" y="9.559999999999999" font-family="Segoe UI Emoji" font-size="10px" fill="#64748b" text-anchor="middle" style="white-space: pre;" direction="ltr" dominant-baseline="alphabetic">Validate credentials</text></g><g stroke-linecap="round"><g transform="translate(422.5 285.5) rotate(0 -87.5 0)"><path d="M0 0 C-29.17 0, -145.83 0, -175 0" stroke="#475569" stroke-width="2" fill="none" stroke-dasharray="8 9.5"></path></g><g transform="translate(422.5 285.5) rotate(0 -87.5 0)"><path d="M-151.51 -8.55 C-158.84 -5.88, -166.17 -3.21, -175 0" stroke="#475569" stroke-width="2" fill="none"></path></g><g transform="translate(422.5 285.5) rotate(0 -87.5 0)"><path d="M-151.51 8.55 C-158.84 5.88, -166.17 3.21, -175 0" stroke="#475569" stroke-width="2" fill="none"></path></g></g><mask></mask><g transform="translate(255.25 266.5) rotate(0 79.75 7)"><text x="79.75" y="9.559999999999999" font-family="Segoe UI Emoji" font-size="10px" fill="#64748b" text-anchor="middle" style="white-space: pre;" direction="ltr" dominant-baseline="alphabetic">{access_token, refresh_token}</text></g><g stroke-linecap="round"><g transform="translate(72.5 345.5) rotate(0 87.5 0)"><path d="M0 0 C29.17 0, 145.83 0, 175 0 M0 0 C29.17 0, 145.83 0, 175 0" stroke="#475569" stroke-width="1.5" fill="none"></path></g><g transform="translate(72.5 345.5) rotate(0 87.5 0)"><path d="M151.51 8.55 C157.16 6.49, 162.82 4.43, 175 0 M151.51 8.55 C156.25 6.83, 160.99 5.1, 175 0" stroke="#475569" stroke-width="1.5" fill="none"></path></g><g transform="translate(72.5 345.5) rotate(0 87.5 0)"><path d="M151.51 -8.55 C157.16 -6.49, 162.82 -4.43, 175 0 M151.51 -8.55 C156.25 -6.83, 160.99 -5.1, 175 0" stroke="#475569" stroke-width="1.5" fill="none"></path></g></g><mask></mask><g transform="translate(91.25 326.5) rotate(0 68.75 7)"><text x="68.75" y="9.559999999999999" font-family="Segoe UI Emoji" font-size="10px" fill="#64748b" text-anchor="middle" style="white-space: pre;" direction="ltr" dominant-baseline="alphabetic">Navigate / perform action</text></g><g stroke-linecap="round"><g transform="translate(247.5 385.5) rotate(0 87.5 0)"><path d="M0 0 C29.17 0, 145.83 0, 175 0 M0 0 C29.17 0, 145.83 0, 175 0" stroke="#475569" stroke-width="1.5" fill="none"></path></g><g transform="translate(247.5 385.5) rotate(0 87.5 0)"><path d="M151.51 8.55 C159.68 5.58, 167.84 2.6, 175 0 M151.51 8.55 C160.57 5.25, 169.63 1.95, 175 0" stroke="#475569" stroke-width="1.5" fill="none"></path></g><g transform="translate(247.5 385.5) rotate(0 87.5 0)"><path d="M151.51 -8.55 C159.68 -5.58, 167.84 -2.6, 175 0 M151.51 -8.55 C160.57 -5.25, 169.63 -1.95, 175 0" stroke="#475569" stroke-width="1.5" fill="none"></path></g></g><mask></mask><g transform="translate(258 366.5) rotate(0 77 7)"><text x="77" y="9.559999999999999" font-family="Segoe UI Emoji" font-size="10px" fill="#64748b" text-anchor="middle" style="white-space: pre;" direction="ltr" dominant-baseline="alphabetic">GET /resource (Bearer token)</text></g><g stroke-linecap="round"><g transform="translate(422.5 425.5) rotate(0 0 0)"><path d="M0 0 C0 0, 0 0, 0 0 M0 0 C0 0, 0 0, 0 0" stroke="#475569" stroke-width="1.5" fill="none"></path></g><g transform="translate(422.5 425.5) rotate(0 0 0)"><path d="MNaN NaN CNaN NaN, NaN NaN, 0 0 MNaN NaN CNaN NaN, NaN NaN, 0 0" stroke="#475569" stroke-width="1.5" fill="none"></path></g><g transform="translate(422.5 425.5) rotate(0 0 0)"><path d="MNaN NaN CNaN NaN, NaN NaN, 0 0 MNaN NaN CNaN NaN, NaN NaN, 0 0" stroke="#475569" stroke-width="1.5" fill="none"></path></g></g><mask></mask><g transform="translate(353.75 406.5) rotate(0 68.75 7)"><text x="68.75" y="9.559999999999999" font-family="Segoe UI Emoji" font-size="10px" fill="#64748b" text-anchor="middle" style="white-space: pre;" direction="ltr" dominant-baseline="alphabetic">Validate JWT + set tenant</text></g><g stroke-linecap="round"><g transform="translate(422.5 457.5) rotate(0 -87.5 0)"><path d="M0 0 C-29.17 0, -145.83 0, -175 0" stroke="#475569" stroke-width="2" fill="none" stroke-dasharray="8 9.5"></path></g><g transform="translate(422.5 457.5) rotate(0 -87.5 0)"><path d="M-151.51 -8.55 C-157.73 -6.29, -163.95 -4.02, -175 0" stroke="#475569" stroke-width="2" fill="none"></path></g><g transform="translate(422.5 457.5) rotate(0 -87.5 0)"><path d="M-151.51 8.55 C-157.73 6.29, -163.95 4.02, -175 0" stroke="#475569" stroke-width="2" fill="none"></path></g></g><mask></mask><g transform="translate(299.25 438.5) rotate(0 35.75 7)"><text x="35.75" y="9.559999999999999" font-family="Segoe UI Emoji" font-size="10px" fill="#64748b" text-anchor="middle" style="white-space: pre;" direction="ltr" dominant-baseline="alphabetic">200 OK + data</text></g><g stroke-linecap="round"><g transform="translate(247.5 515.5) rotate(0 87.5 0)"><path d="M0 0 C29.17 0, 145.83 0, 175 0 M0 0 C29.17 0, 145.83 0, 175 0" stroke="#475569" stroke-width="1.5" fill="none"></path></g><g transform="translate(247.5 515.5) rotate(0 87.5 0)"><path d="M151.51 8.55 C156.5 6.74, 161.48 4.92, 175 0 M151.51 8.55 C158.48 6.01, 165.46 3.47, 175 0" stroke="#475569" stroke-width="1.5" fill="none"></path></g><g transform="translate(247.5 515.5) rotate(0 87.5 0)"><path d="M151.51 -8.55 C156.5 -6.74, 161.48 -4.92, 175 0 M151.51 -8.55 C158.48 -6.01, 165.46 -3.47, 175 0" stroke="#475569" stroke-width="1.5" fill="none"></path></g></g><mask></mask><g transform="translate(236 496.5) rotate(0 99 7)"><text x="99.00000000000001" y="9.559999999999999" font-family="Segoe UI Emoji" font-size="10px" fill="#64748b" text-anchor="middle" style="white-space: pre;" direction="ltr" dominant-baseline="alphabetic">POST /auth/refresh (httpOnly cookie)</text></g><g stroke-linecap="round"><g transform="translate(422.5 555.5) rotate(0 175 0)"><path d="M0 0 C58.33 0, 291.67 0, 350 0 M0 0 C58.33 0, 291.67 0, 350 0" stroke="#475569" stroke-width="1.5" fill="none"></path></g><g transform="translate(422.5 555.5) rotate(0 175 0)"><path d="M326.51 8.55 C335.37 5.32, 344.23 2.1, 350 0 M326.51 8.55 C335.37 5.33, 344.22 2.1, 350 0" stroke="#475569" stroke-width="1.5" fill="none"></path></g><g transform="translate(422.5 555.5) rotate(0 175 0)"><path d="M326.51 -8.55 C335.37 -5.32, 344.23 -2.1, 350 0 M326.51 -8.55 C335.37 -5.33, 344.22 -2.1, 350 0" stroke="#475569" stroke-width="1.5" fill="none"></path></g></g><mask></mask><g transform="translate(512.25 536.5) rotate(0 85.25 7)"><text x="85.25" y="9.559999999999999" font-family="Segoe UI Emoji" font-size="10px" fill="#64748b" text-anchor="middle" style="white-space: pre;" direction="ltr" dominant-baseline="alphabetic">Validate + rotate refresh token</text></g><g stroke-linecap="round"><g transform="translate(422.5 595.5) rotate(0 -87.5 0)"><path d="M0 0 C-29.17 0, -145.83 0, -175 0" stroke="#475569" stroke-width="2" fill="none" stroke-dasharray="8 9.5"></path></g><g transform="translate(422.5 595.5) rotate(0 -87.5 0)"><path d="M-151.51 -8.55 C-157.54 -6.36, -163.57 -4.16, -175 0" stroke="#475569" stroke-width="2" fill="none"></path></g><g transform="translate(422.5 595.5) rotate(0 -87.5 0)"><path d="M-151.51 8.55 C-157.54 6.36, -163.57 4.16, -175 0" stroke="#475569" stroke-width="2" fill="none"></path></g></g><mask></mask><g transform="translate(233.25 576.5) rotate(0 101.75 7)"><text x="101.75000000000001" y="9.559999999999999" font-family="Segoe UI Emoji" font-size="10px" fill="#64748b" text-anchor="middle" style="white-space: pre;" direction="ltr" dominant-baseline="alphabetic">{new access_token, new refresh_token}</text></g><g stroke-linecap="round"><g transform="translate(72.5 665.5) rotate(0 87.5 0)"><path d="M0 0 C29.17 0, 145.83 0, 175 0 M0 0 C29.17 0, 145.83 0, 175 0" stroke="#475569" stroke-width="1.5" fill="none"></path></g><g transform="translate(72.5 665.5) rotate(0 87.5 0)"><path d="M151.51 8.55 C157.91 6.22, 164.32 3.89, 175 0 M151.51 8.55 C158.29 6.08, 165.08 3.61, 175 0" stroke="#475569" stroke-width="1.5" fill="none"></path></g><g transform="translate(72.5 665.5) rotate(0 87.5 0)"><path d="M151.51 -8.55 C157.91 -6.22, 164.32 -3.89, 175 0 M151.51 -8.55 C158.29 -6.08, 165.08 -3.61, 175 0" stroke="#475569" stroke-width="1.5" fill="none"></path></g></g><mask></mask><g transform="translate(121.5 646.5) rotate(0 38.5 7)"><text x="38.5" y="9.559999999999999" font-family="Segoe UI Emoji" font-size="10px" fill="#64748b" text-anchor="middle" style="white-space: pre;" direction="ltr" dominant-baseline="alphabetic">Click Sign Out</text></g><g stroke-linecap="round"><g transform="translate(247.5 705.5) rotate(0 87.5 0)"><path d="M0 0 C29.17 0, 145.83 0, 175 0 M0 0 C29.17 0, 145.83 0, 175 0" stroke="#475569" stroke-width="1.5" fill="none"></path></g><g transform="translate(247.5 705.5) rotate(0 87.5 0)"><path d="M151.51 8.55 C158.35 6.06, 165.19 3.57, 175 0 M151.51 8.55 C160.22 5.38, 168.92 2.21, 175 0" stroke="#475569" stroke-width="1.5" fill="none"></path></g><g transform="translate(247.5 705.5) rotate(0 87.5 0)"><path d="M151.51 -8.55 C158.35 -6.06, 165.19 -3.57, 175 0 M151.51 -8.55 C160.22 -5.38, 168.92 -2.21, 175 0" stroke="#475569" stroke-width="1.5" fill="none"></path></g></g><mask></mask><g transform="translate(285.5 686.5) rotate(0 49.5 7)"><text x="49.50000000000001" y="9.559999999999999" font-family="Segoe UI Emoji" font-size="10px" fill="#64748b" text-anchor="middle" style="white-space: pre;" direction="ltr" dominant-baseline="alphabetic">POST /auth/signout</text></g><g stroke-linecap="round"><g transform="translate(422.5 745.5) rotate(0 87.5 0)"><path d="M0 0 C29.17 0, 145.83 0, 175 0 M0 0 C29.17 0, 145.83 0, 175 0" stroke="#475569" stroke-width="1.5" fill="none"></path></g><g transform="translate(422.5 745.5) rotate(0 87.5 0)"><path d="M151.51 8.55 C157.86 6.24, 164.22 3.92, 175 0 M151.51 8.55 C160.81 5.17, 170.11 1.78, 175 0" stroke="#475569" stroke-width="1.5" fill="none"></path></g><g transform="translate(422.5 745.5) rotate(0 87.5 0)"><path d="M151.51 -8.55 C157.86 -6.24, 164.22 -3.92, 175 0 M151.51 -8.55 C160.81 -5.17, 170.11 -1.78, 175 0" stroke="#475569" stroke-width="1.5" fill="none"></path></g></g><mask></mask><g transform="translate(438.5 726.5) rotate(0 71.5 7)"><text x="71.5" y="9.559999999999999" font-family="Segoe UI Emoji" font-size="10px" fill="#64748b" text-anchor="middle" style="white-space: pre;" direction="ltr" dominant-baseline="alphabetic">Blacklist access_token JTI</text></g><g stroke-linecap="round"><g transform="translate(422.5 785.5) rotate(0 175 0)"><path d="M0 0 C58.33 0, 291.67 0, 350 0 M0 0 C58.33 0, 291.67 0, 350 0" stroke="#475569" stroke-width="1.5" fill="none"></path></g><g transform="translate(422.5 785.5) rotate(0 175 0)"><path d="M326.51 8.55 C333.53 6, 340.55 3.44, 350 0 M326.51 8.55 C334.33 5.7, 342.15 2.86, 350 0" stroke="#475569" stroke-width="1.5" fill="none"></path></g><g transform="translate(422.5 785.5) rotate(0 175 0)"><path d="M326.51 -8.55 C333.53 -6, 340.55 -3.44, 350 0 M326.51 -8.55 C334.33 -5.7, 342.15 -2.86, 350 0" stroke="#475569" stroke-width="1.5" fill="none"></path></g></g><mask></mask><g transform="translate(542.5 766.5) rotate(0 55 7)"><text x="55.00000000000001" y="9.559999999999999" font-family="Segoe UI Emoji" font-size="10px" fill="#64748b" text-anchor="middle" style="white-space: pre;" direction="ltr" dominant-baseline="alphabetic">Revoke refresh token</text></g><g stroke-linecap="round"><g transform="translate(422.5 825.5) rotate(0 -87.5 0)"><path d="M0 0 C-29.17 0, -145.83 0, -175 0" stroke="#475569" stroke-width="2" fill="none" stroke-dasharray="8 9.5"></path></g><g transform="translate(422.5 825.5) rotate(0 -87.5 0)"><path d="M-151.51 -8.55 C-158.91 -5.86, -166.3 -3.17, -175 0" stroke="#475569" stroke-width="2" fill="none"></path></g><g transform="translate(422.5 825.5) rotate(0 -87.5 0)"><path d="M-151.51 8.55 C-158.91 5.86, -166.3 3.17, -175 0" stroke="#475569" stroke-width="2" fill="none"></path></g></g><mask></mask><g transform="translate(315 806.5) rotate(0 20 7)"><text x="20" y="9.559999999999999" font-family="Segoe UI Emoji" font-size="10px" fill="#64748b" text-anchor="middle" style="white-space: pre;" direction="ltr" dominant-baseline="alphabetic">200 OK</text></g></svg>