<svg version="1.1" xmlns="http://www.w3.org/2000/svg" viewBox="0 0 845 885.5" width="845" height="885.5"><!-- svg-source:excalidraw --><metadata></metadata><defs><style class="style-fonts">
      </style></defs><rect x="0" y="0" width="845" height="885.5" fill="#f8fafc"></rect><g transform="translate(12.5 10) rotate(0 169.125 10.5)"><text x="169.125" y="14.34" font-family="Segoe UI Emoji" font-size="15px" fill="#1e293b" text-anchor="middle" style="white-space: pre;" direction="ltr" dominant-baseline="alphabetic">Authentication Flow — JWT + Refresh Token</text></g><g stroke-linecap="round" transform="translate(10 45.5) rotate(0 62.5 21)"><path d="M6 0 C37.17 0, 68.33 0, 119 0 C123 0, 125 2, 125 6 C125 17.61, 125 29.23, 125 36 C125 40, 123 42, 119 42 C90.25 42, 61.5 42, 6 42 C2 42, 0 40, 0 36 C0 25.02, 0 14.05, 0 6 C0 2, 2 0, 6 0" stroke="none" stroke-width="0" fill="#dbeafe"></path><path d="M6 0 C41.18 0, 76.36 0, 119 0 M6 0 C49.26 0, 92.53 0, 119 0 M119 0 C123 0, 125 2, 125 6 M119 0 C123 0, 125 2, 125 6 M125 6 C125 12.29, 125 18.58, 125 36 M125 6 C125 16.02, 125 26.04, 125 36 M125 36 C125 40, 123 42, 119 42 M125 36 C125 40, 123 42, 119 42 M119 42 C85.38 42, 51.76 42, 6 42 M119 42 C78.45 42, 37.9 42, 6 42 M6 42 C2 42, 0 40, 0 36 M6 42 C2 42, 0 40, 0 36 M0 36 C0 28.23, 0 20.45, 0 6 M0 36 C0 26.82, 0 17.64, 0 6 M0 6 C0 2, 2 0, 6 0 M0 6 C0 2, 2 0, 6 0" stroke="#3b82f6" stroke-width="1.5" fill="none"></path></g><g transform="translate(52.5 61.5) rotate(0 20 7)"><text x="20" y="9.559999999999999" font-family="Segoe UI Emoji" font-size="10px" fill="#1e293b" text-anchor="middle" style="white-space: pre;" direction="ltr" dominant-baseline="alphabetic">User</text></g><g stroke-linecap="round"><g transform="translate(72.5 87.5) rotate(0 0 394)"><path d="M0 0 C0 131.33, 0 656.67, 0 788" stroke="#94a3b8" stroke-width="1.5" fill="none" stroke-dasharray="8 9"></path></g></g><mask></mask><g stroke-linecap="round" transform="translate(185 45.5) rotate(0 62.5 21)"><path d="M6 0 C49.49 0, 92.98 0, 119 0 C123 0, 125 2, 125 6 C125 14.65, 125 23.3, 125 36 C125 40, 123 42, 119 42 C89.35 42, 59.71 42, 6 42 C2 42, 0 40, 0 36 C0 27.19, 0 18.38, 0 6 C0 2, 2 0, 6 0" stroke="none" stroke-width="0" fill="#dbeafe"></path><path d="M6 0 C41.54 0, 77.08 0, 119 0 M6 0 C29.79 0, 53.57 0, 119 0 M119 0 C123 0, 125 2, 125 6 M119 0 C123 0, 125 2, 125 6 M125 6 C125 16.99, 125 27.97, 125 36 M125 6 C125 16.1, 125 26.2, 125 36 M125 36 C125 40, 123 42, 119 42 M125 36 C125 40, 123 42, 119 42 M119 42 C78.06 42, 37.12 42, 6 42 M119 42 C81.94 42, 44.87 42, 6 42 M6 42 C2 42, 0 40, 0 36 M6 42 C2 42, 0 40, 0 36 M0 36 C0 25.6, 0 15.21, 0 6 M0 36 C0 28.32, 0 20.63, 0 6 M0 6 C0 2, 2 0, 6 0 M0 6 C0 2, 2 0, 6 0" stroke="#3b82f6" stroke-width="1.5" fill="none"></path></g><g transform="translate(227.5 51.5) rotate(0 20 7)"><text x="20" y="9.559999999999999" font-family="Segoe UI Emoji" font-size="10px" fill="#1e293b" text-anchor="middle" style="white-space: pre;" direction="ltr" dominant-baseline="alphabetic">Web App</text></g><g transform="translate(217.25 69.5) rotate(0 30.25 7)"><text x="30.250000000000004" y="9.559999999999999" font-family="Segoe UI Emoji" font-size="10px" fill="#64748b" text-anchor="middle" style="white-space: pre;" direction="ltr" dominant-baseline="alphabetic">(React SPA)</text></g><g stroke-linecap="round"><g transform="translate(247.5 87.5) rotate(0 0 394)"><path d="M0 0 C0 131.33, 0 656.67, 0 788" stroke="#94a3b8" stroke-width="1.5" fill="none" stroke-dasharray="8 9"></path></g></g><mask></mask><g stroke-linecap="round" transform="translate(360 45.5) rotate(0 62.5 21)"><path d="M6 0 C48.61 0, 91.23 0, 119 0 C123 0, 125 2, 125 6 C125 16.16, 125 26.32, 125 36 C125 40, 123 42, 119 42 C76.74 42, 34.47 42, 6 42 C2 42, 0 40, 0 36 C0 26.99, 0 17.98, 0 6 C0 2, 2 0, 6 0" stroke="none" stroke-width="0" fill="#dbeafe"></path><path d="M6 0 C33.92 0, 61.84 0, 119 0 M6 0 C39.56 0, 73.13 0, 119 0 M119 0 C123 0, 125 2, 125 6 M119 0 C123 0, 125 2, 125 6 M125 6 C125 16.03, 125 26.06, 125 36 M125 6 C125 12.24, 125 18.47, 125 36 M125 36 C125 40, 123 42, 119 42 M125 36 C125 40, 123 42, 119 42 M119 42 C77.74 42, 36.49 42, 6 42 M119 42 C88.65 42, 58.3 42, 6 42 M6 42 C2 42, 0 40, 0 36 M6 42 C2 42, 0 40, 0 36 M0 36 C0 28.82, 0 21.64, 0 6 M0 36 C0 26.04, 0 16.08, 0 6 M0 6 C0 2, 2 0, 6 0 M0 6 C0 2, 2 0, 6 0" stroke="#3b82f6" stroke-width="1.5" fill="none"></path></g><g transform="translate(395 51.5) rotate(0 27.5 7)"><text x="27.500000000000004" y="9.559999999999999" font-family="Segoe UI Emoji" font-size="10px" fill="#1e293b" text-anchor="middle" style="white-space: pre;" direction="ltr" dominant-baseline="alphabetic">API Server</text></g><g transform="translate(389.5 69.5) rotate(0 33 7)"><text x="33" y="9.559999999999999" font-family="Segoe UI Emoji" font-size="10px" fill="#64748b" text-anchor="middle" style="white-space: pre;" direction="ltr" dominant-baseline="alphabetic">(OpenIddict)</text></g><g stroke-linecap="round"><g transform="translate(422.5 87.5) rotate(0 0 394)"><path d="M0 0 C0 131.33, 0 656.67, 0 788" stroke="#94a3b8" stroke-width="1.5" fill="none" stroke-dasharray="8 9"></path></g></g><mask></mask><g stroke-linecap="round" transform="translate(535 45.5) rotate(0 62.5 21)"><path d="M6 0 C35.69 0, 65.38 0, 119 0 C123 0, 125 2, 125 6 C125 15.92, 125 25.83, 125 36 C125 40, 123 42, 119 42 C93.58 42, 68.16 42, 6 42 C2 42, 0 40, 0 36 C0 29.05, 0 22.09, 0 6 C0 2, 2 0, 6 0" stroke="none" stroke-width="0" fill="#ffedd5"></path><path d="M6 0 C31.78 0, 57.57 0, 119 0 M6 0 C35.07 0, 64.14 0, 119 0 M119 0 C123 0, 125 2, 125 6 M119 0 C123 0, 125 2, 125 6 M125 6 C125 15.13, 125 24.27, 125 36 M125 6 C125 15.72, 125 25.45, 125 36 M125 36 C125 40, 123 42, 119 42 M125 36 C125 40, 123 42, 119 42 M119 42 C92.44 42, 65.87 42, 6 42 M119 42 C78.11 42, 37.23 42, 6 42 M6 42 C2 42, 0 40, 0 36 M6 42 C2 42, 0 40, 0 36 M0 36 C0 26.38, 0 16.75, 0 6 M0 36 C0 24.61, 0 13.22, 0 6 M0 6 C0 2, 2 0, 6 0 M0 6 C0 2, 2 0, 6 0" stroke="#ea580c" stroke-width="1.5" fill="none"></path></g><g transform="translate(577.5 51.5) rotate(0 20 7)"><text x="20" y="9.559999999999999" font-family="Segoe UI Emoji" font-size="10px" fill="#1e293b" text-anchor="middle" style="white-space: pre;" direction="ltr" dominant-baseline="alphabetic">Redis</text></g><g transform="translate(550.75 69.5) rotate(0 46.75 7)"><text x="46.75000000000001" y="9.559999999999999" font-family="Segoe UI Emoji" font-size="10px" fill="#64748b" text-anchor="middle" style="white-space: pre;" direction="ltr" dominant-baseline="alphabetic">(token blacklist)</text></g><g stroke-linecap="round"><g transform="translate(597.5 87.5) rotate(0 0 394)"><path d="M0 0 C0 131.33, 0 656.67, 0 788" stroke="#94a3b8" stroke-width="1.5" fill="none" stroke-dasharray="8 9"></path></g></g><mask></mask><g stroke-linecap="round" transform="translate(710 45.5) rotate(0 62.5 21)"><path d="M6 0 C44.58 0, 83.16 0, 119 0 C123 0, 125 2, 125 6 C125 14.24, 125 22.48, 125 36 C125 40, 123 42, 119 42 C89.89 42, 60.78 42, 6 42 C2 42, 0 40, 0 36 C0 28.59, 0 21.18, 0 6 C0 2, 2 0, 6 0" stroke="none" stroke-width="0" fill="#ffedd5"></path><path d="M6 0 C30.84 0, 55.68 0, 119 0 M6 0 C44.15 0, 82.31 0, 119 0 M119 0 C123 0, 125 2, 125 6 M119 0 C123 0, 125 2, 125 6 M125 6 C125 17.26, 125 28.52, 125 36 M125 6 C125 14.39, 125 22.78, 125 36 M125 36 C125 40, 123 42, 119 42 M125 36 C125 40, 123 42, 119 42 M119 42 C84.45 42, 49.9 42, 6 42 M119 42 C81.14 42, 43.28 42, 6 42 M6 42 C2 42, 0 40, 0 36 M6 42 C2 42, 0 40, 0 36 M0 36 C0 25.75, 0 15.5, 0 6 M0 36 C0 24.21, 0 12.42, 0 6 M0 6 C0 2, 2 0, 6 0 M0 6 C0 2, 2 0, 6 0" stroke="#ea580c" stroke-width="1.5" fill="none"></path></g><g transform="translate(745 61.5) rotate(0 27.5 7)"><text x="27.500000000000004" y="9.559999999999999" font-family="Segoe UI Emoji" font-size="10px" fill="#1e293b" text-anchor="middle" style="white-space: pre;" direction="ltr" dominant-baseline="alphabetic">PostgreSQL</text></g><g stroke-linecap="round"><g transform="translate(772.5 87.5) rotate(0 0 394)"><path d="M0 0 C0 131.33, 0 656.67, 0 788" stroke="#94a3b8" stroke-width="1.5" fill="none" stroke-dasharray="8 9"></path></g></g><mask></mask><g stroke-linecap="round"><g transform="translate(32.5 137.5) rotate(0 0 0)"><path d="M0 0 C0 0, 0 0, 0 0" stroke="#94a3b8" stroke-width="1.5" fill="none" stroke-dasharray="8 9"></path></g></g><mask></mask><g transform="translate(12.5 144.5) rotate(0 35.75 7)"><text x="35.75" y="9.559999999999999" font-family="Segoe UI Emoji" font-size="10px" fill="#64748b" text-anchor="middle" style="white-space: pre;" direction="ltr" dominant-baseline="alphabetic">== Sign In ==</text></g><g stroke-linecap="round"><g transform="translate(32.5 317.5) rotate(0 0 0)"><path d="M0 0 C0 0, 0 0, 0 0" stroke="#94a3b8" stroke-width="1.5" fill="none" stroke-dasharray="8 9"></path></g></g><mask></mask><g transform="translate(12.5 324.5) rotate(0 74.25 7)"><text x="74.25" y="9.559999999999999" font-family="Segoe UI Emoji" font-size="10px" fill="#64748b" text-anchor="middle" style="white-space: pre;" direction="ltr" dominant-baseline="alphabetic">== Authenticated Request ==</text></g><g stroke-linecap="round"><g transform="translate(32.5 487.5) rotate(0 0 0)"><path d="M0 0 C0 0, 0 0, 0 0" stroke="#94a3b8" stroke-width="1.5" fill="none" stroke-dasharray="8 9"></path></g></g><mask></mask><g transform="translate(12.5 494.5) rotate(0 71.5 7)"><text x="71.5" y="9.559999999999999" font-family="Segoe UI Emoji" font-size="10px" fill="#64748b" text-anchor="middle" style="white-space: pre;" direction="ltr" dominant-baseline="alphabetic">== Silent Token Refresh ==</text></g><g stroke-linecap="round"><g transform="translate(32.5 637.5) rotate(0 0 0)"><path d="M0 0 C0 0, 0 0, 0 0" stroke="#94a3b8" stroke-width="1.5" fill="none" stroke-dasharray="8 9"></path></g></g><mask></mask><g transform="translate(12.5 644.5) rotate(0 38.5 7)"><text x="38.5" y="9.559999999999999" font-family="Segoe UI Emoji" font-size="10px" fill="#64748b" text-anchor="middle" style="white-space: pre;" direction="ltr" dominant-baseline="alphabetic">== Sign Out ==</text></g><g stroke-linecap="round"><g transform="translate(72.5 165.5) rotate(0 87.5 0)"><path d="M0 0 C29.17 0, 145.83 0, 175 0 M0 0 C29.17 0, 145.83 0, 175 0" stroke="#475569" stroke-width="1.5" fill="none"></path></g><g transform="translate(72.5 165.5) rotate(0 87.5 0)"><path d="M151.51 8.55 C160.17 5.4, 168.84 2.24, 175 0 M151.51 8.55 C160.64 5.23, 169.77 1.9, 175 0" stroke="#475569" stroke-width="1.5" fill="none"></path></g><g transform="translate(72.5 165.5) rotate(0 87.5 0)"><path d="M151.51 -8.55 C160.17 -5.4, 168.84 -2.24, 175 0 M151.51 -8.55 C160.64 -5.23, 169.77 -1.9, 175 0" stroke="#475569" stroke-width="1.5" fill="none"></path></g></g><mask></mask><g transform="translate(99.5 146.5) rotate(0 60.5 7)"><text x="60.50000000000001" y="9.559999999999999" font-family="Segoe UI Emoji" font-size="10px" fill="#64748b" text-anchor="middle" style="white-space: pre;" direction="ltr" dominant-baseline="alphabetic">Enter email + password</text></g><g stroke-linecap="round"><g transform="translate(247.5 205.5) rotate(0 87.5 0)"><path d="M0 0 C29.17 0, 145.83 0, 175 0 M0 0 C29.17 0, 145.83 0, 175 0" stroke="#475569" stroke-width="1.5" fill="none"></path></g><g transform="translate(247.5 205.5) rotate(0 87.5 0)"><path d="M151.51 8.55 C160.15 5.4, 168.8 2.26, 175 0 M151.51 8.55 C159.23 5.74, 166.96 2.93, 175 0" stroke="#475569" stroke-width="1.5" fill="none"></path></g><g transform="translate(247.5 205.5) rotate(0 87.5 0)"><path d="M151.51 -8.55 C160.15 -5.4, 168.8 -2.26, 175 0 M151.51 -8.55 C159.23 -5.74, 166.96 -2.93, 175 0" stroke="#475569" stroke-width="1.5" fill="none"></path></g></g><mask></mask><g transform="translate(291 186.5) rotate(0 44 7)"><text x="44" y="9.559999999999999" font-family="Segoe UI Emoji" font-size="10px" fill="#64748b" text-anchor="middle" style="white-space: pre;" direction="ltr" dominant-baseline="alphabetic">POST /auth/token</text></g><g stroke-linecap="round"><g transform="translate(422.5 245.5) rotate(0 175 0)"><path d="M0 0 C58.33 0, 291.67 0, 350 0 M0 0 C58.33 0, 291.67 0, 350 0" stroke="#475569" stroke-width="1.5" fill="none"></path></g><g transform="translate(422.5 245.5) rotate(0 175 0)"><path d="M326.51 8.55 C335.21 5.38, 343.9 2.22, 350 0 M326.51 8.55 C331.34 6.79, 336.18 5.03, 350 0" stroke="#475569" stroke-width="1.5" fill="none"></path></g><g transform="translate(422.5 245.5) rotate(0 175 0)"><path d="M326.51 -8.55 C335.21 -5.38, 343.9 -2.22, 350 0 M326.51 -8.55 C331.34 -6.79, 336.18 -5.03, 350 0" stroke="#475569" stroke-width="1.5" fill="none"></path></g></g><mask></mask><g transform="translate(542.5 226.5) rotate(0 55 7)"><text x="55.00000000000001" y="9.559999999999999" font-family="Segoe UI Emoji" font-size="10px" fill="#64748b" text-anchor="middle" style="white-space: pre;" direction="ltr" dominant-baseline="alphabetic">Validate credentials</text></g><g stroke-linecap="round"><g transform="translate(422.5 285.5) rotate(0 -87.5 0)"><path d="M0 0 C-29.17 0, -145.83 0, -175 0" stroke="#475569" stroke-width="2" fill="none" stroke-dasharray="8 9.5"></path></g><g transform="translate(422.5 285.5) rotate(0 -87.5 0)"><path d="M-151.51 -8.55 C-157.49 -6.37, -163.47 -4.2, -175 0" stroke="#475569" stroke-width="2" fill="none"></path></g><g transform="translate(422.5 285.5) rotate(0 -87.5 0)"><path d="M-151.51 8.55 C-157.49 6.37, -163.47 4.2, -175 0" stroke="#475569" stroke-width="2" fill="none"></path></g></g><mask></mask><g transform="translate(255.25 266.5) rotate(0 79.75 7)"><text x="79.75" y="9.559999999999999" font-family="Segoe UI Emoji" font-size="10px" fill="#64748b" text-anchor="middle" style="white-space: pre;" direction="ltr" dominant-baseline="alphabetic">{access_token, refresh_token}</text></g><g stroke-linecap="round"><g transform="translate(72.5 345.5) rotate(0 87.5 0)"><path d="M0 0 C29.17 0, 145.83 0, 175 0 M0 0 C29.17 0, 145.83 0, 175 0" stroke="#475569" stroke-width="1.5" fill="none"></path></g><g transform="translate(72.5 345.5) rotate(0 87.5 0)"><path d="M151.51 8.55 C159.18 5.76, 166.85 2.97, 175 0 M151.51 8.55 C159.94 5.48, 168.37 2.41, 175 0" stroke="#475569" stroke-width="1.5" fill="none"></path></g><g transform="translate(72.5 345.5) rotate(0 87.5 0)"><path d="M151.51 -8.55 C159.18 -5.76, 166.85 -2.97, 175 0 M151.51 -8.55 C159.94 -5.48, 168.37 -2.41, 175 0" stroke="#475569" stroke-width="1.5" fill="none"></path></g></g><mask></mask><g transform="translate(91.25 326.5) rotate(0 68.75 7)"><text x="68.75" y="9.559999999999999" font-family="Segoe UI Emoji" font-size="10px" fill="#64748b" text-anchor="middle" style="white-space: pre;" direction="ltr" dominant-baseline="alphabetic">Navigate / perform action</text></g><g stroke-linecap="round"><g transform="translate(247.5 385.5) rotate(0 87.5 0)"><path d="M0 0 C29.17 0, 145.83 0, 175 0 M0 0 C29.17 0, 145.83 0, 175 0" stroke="#475569" stroke-width="1.5" fill="none"></path></g><g transform="translate(247.5 385.5) rotate(0 87.5 0)"><path d="M151.51 8.55 C156.85 6.61, 162.19 4.66, 175 0 M151.51 8.55 C156.68 6.67, 161.85 4.79, 175 0" stroke="#475569" stroke-width="1.5" fill="none"></path></g><g transform="translate(247.5 385.5) rotate(0 87.5 0)"><path d="M151.51 -8.55 C156.85 -6.61, 162.19 -4.66, 175 0 M151.51 -8.55 C156.68 -6.67, 161.85 -4.79, 175 0" stroke="#475569" stroke-width="1.5" fill="none"></path></g></g><mask></mask><g transform="translate(258 366.5) rotate(0 77 7)"><text x="77" y="9.559999999999999" font-family="Segoe UI Emoji" font-size="10px" fill="#64748b" text-anchor="middle" style="white-space: pre;" direction="ltr" dominant-baseline="alphabetic">GET /resource (Bearer token)</text></g><g stroke-linecap="round"><g transform="translate(422.5 425.5) rotate(0 0 0)"><path d="M0 0 C0 0, 0 0, 0 0 M0 0 C0 0, 0 0, 0 0" stroke="#475569" stroke-width="1.5" fill="none"></path></g><g transform="translate(422.5 425.5) rotate(0 0 0)"><path d="MNaN NaN CNaN NaN, NaN NaN, 0 0 MNaN NaN CNaN NaN, NaN NaN, 0 0" stroke="#475569" stroke-width="1.5" fill="none"></path></g><g transform="translate(422.5 425.5) rotate(0 0 0)"><path d="MNaN NaN CNaN NaN, NaN NaN, 0 0 MNaN NaN CNaN NaN, NaN NaN, 0 0" stroke="#475569" stroke-width="1.5" fill="none"></path></g></g><mask></mask><g transform="translate(353.75 406.5) rotate(0 68.75 7)"><text x="68.75" y="9.559999999999999" font-family="Segoe UI Emoji" font-size="10px" fill="#64748b" text-anchor="middle" style="white-space: pre;" direction="ltr" dominant-baseline="alphabetic">Validate JWT + set tenant</text></g><g stroke-linecap="round"><g transform="translate(422.5 457.5) rotate(0 -87.5 0)"><path d="M0 0 C-29.17 0, -145.83 0, -175 0" stroke="#475569" stroke-width="2" fill="none" stroke-dasharray="8 9.5"></path></g><g transform="translate(422.5 457.5) rotate(0 -87.5 0)"><path d="M-151.51 -8.55 C-157.86 -6.24, -164.22 -3.92, -175 0" stroke="#475569" stroke-width="2" fill="none"></path></g><g transform="translate(422.5 457.5) rotate(0 -87.5 0)"><path d="M-151.51 8.55 C-157.86 6.24, -164.22 3.92, -175 0" stroke="#475569" stroke-width="2" fill="none"></path></g></g><mask></mask><g transform="translate(299.25 438.5) rotate(0 35.75 7)"><text x="35.75" y="9.559999999999999" font-family="Segoe UI Emoji" font-size="10px" fill="#64748b" text-anchor="middle" style="white-space: pre;" direction="ltr" dominant-baseline="alphabetic">200 OK + data</text></g><g stroke-linecap="round"><g transform="translate(247.5 515.5) rotate(0 87.5 0)"><path d="M0 0 C29.17 0, 145.83 0, 175 0 M0 0 C29.17 0, 145.83 0, 175 0" stroke="#475569" stroke-width="1.5" fill="none"></path></g><g transform="translate(247.5 515.5) rotate(0 87.5 0)"><path d="M151.51 8.55 C159.48 5.65, 167.46 2.74, 175 0 M151.51 8.55 C156.32 6.8, 161.14 5.05, 175 0" stroke="#475569" stroke-width="1.5" fill="none"></path></g><g transform="translate(247.5 515.5) rotate(0 87.5 0)"><path d="M151.51 -8.55 C159.48 -5.65, 167.46 -2.74, 175 0 M151.51 -8.55 C156.32 -6.8, 161.14 -5.05, 175 0" stroke="#475569" stroke-width="1.5" fill="none"></path></g></g><mask></mask><g transform="translate(236 496.5) rotate(0 99 7)"><text x="99.00000000000001" y="9.559999999999999" font-family="Segoe UI Emoji" font-size="10px" fill="#64748b" text-anchor="middle" style="white-space: pre;" direction="ltr" dominant-baseline="alphabetic">POST /auth/refresh (httpOnly cookie)</text></g><g stroke-linecap="round"><g transform="translate(422.5 555.5) rotate(0 175 0)"><path d="M0 0 C58.33 0, 291.67 0, 350 0 M0 0 C58.33 0, 291.67 0, 350 0" stroke="#475569" stroke-width="1.5" fill="none"></path></g><g transform="translate(422.5 555.5) rotate(0 175 0)"><path d="M326.51 8.55 C333.83 5.89, 341.15 3.22, 350 0 M326.51 8.55 C334.48 5.65, 342.45 2.75, 350 0" stroke="#475569" stroke-width="1.5" fill="none"></path></g><g transform="translate(422.5 555.5) rotate(0 175 0)"><path d="M326.51 -8.55 C333.83 -5.89, 341.15 -3.22, 350 0 M326.51 -8.55 C334.48 -5.65, 342.45 -2.75, 350 0" stroke="#475569" stroke-width="1.5" fill="none"></path></g></g><mask></mask><g transform="translate(512.25 536.5) rotate(0 85.25 7)"><text x="85.25" y="9.559999999999999" font-family="Segoe UI Emoji" font-size="10px" fill="#64748b" text-anchor="middle" style="white-space: pre;" direction="ltr" dominant-baseline="alphabetic">Validate + rotate refresh token</text></g><g stroke-linecap="round"><g transform="translate(422.5 595.5) rotate(0 -87.5 0)"><path d="M0 0 C-29.17 0, -145.83 0, -175 0" stroke="#475569" stroke-width="2" fill="none" stroke-dasharray="8 9.5"></path></g><g transform="translate(422.5 595.5) rotate(0 -87.5 0)"><path d="M-151.51 -8.55 C-156.41 -6.76, -161.32 -4.98, -175 0" stroke="#475569" stroke-width="2" fill="none"></path></g><g transform="translate(422.5 595.5) rotate(0 -87.5 0)"><path d="M-151.51 8.55 C-156.41 6.76, -161.32 4.98, -175 0" stroke="#475569" stroke-width="2" fill="none"></path></g></g><mask></mask><g transform="translate(233.25 576.5) rotate(0 101.75 7)"><text x="101.75000000000001" y="9.559999999999999" font-family="Segoe UI Emoji" font-size="10px" fill="#64748b" text-anchor="middle" style="white-space: pre;" direction="ltr" dominant-baseline="alphabetic">{new access_token, new refresh_token}</text></g><g stroke-linecap="round"><g transform="translate(72.5 665.5) rotate(0 87.5 0)"><path d="M0 0 C29.17 0, 145.83 0, 175 0 M0 0 C29.17 0, 145.83 0, 175 0" stroke="#475569" stroke-width="1.5" fill="none"></path></g><g transform="translate(72.5 665.5) rotate(0 87.5 0)"><path d="M151.51 8.55 C159.44 5.67, 167.36 2.78, 175 0 M151.51 8.55 C156.46 6.75, 161.42 4.94, 175 0" stroke="#475569" stroke-width="1.5" fill="none"></path></g><g transform="translate(72.5 665.5) rotate(0 87.5 0)"><path d="M151.51 -8.55 C159.44 -5.67, 167.36 -2.78, 175 0 M151.51 -8.55 C156.46 -6.75, 161.42 -4.94, 175 0" stroke="#475569" stroke-width="1.5" fill="none"></path></g></g><mask></mask><g transform="translate(121.5 646.5) rotate(0 38.5 7)"><text x="38.5" y="9.559999999999999" font-family="Segoe UI Emoji" font-size="10px" fill="#64748b" text-anchor="middle" style="white-space: pre;" direction="ltr" dominant-baseline="alphabetic">Click Sign Out</text></g><g stroke-linecap="round"><g transform="translate(247.5 705.5) rotate(0 87.5 0)"><path d="M0 0 C29.17 0, 145.83 0, 175 0 M0 0 C29.17 0, 145.83 0, 175 0" stroke="#475569" stroke-width="1.5" fill="none"></path></g><g transform="translate(247.5 705.5) rotate(0 87.5 0)"><path d="M151.51 8.55 C156.37 6.78, 161.24 5.01, 175 0 M151.51 8.55 C157.41 6.4, 163.31 4.26, 175 0" stroke="#475569" stroke-width="1.5" fill="none"></path></g><g transform="translate(247.5 705.5) rotate(0 87.5 0)"><path d="M151.51 -8.55 C156.37 -6.78, 161.24 -5.01, 175 0 M151.51 -8.55 C157.41 -6.4, 163.31 -4.26, 175 0" stroke="#475569" stroke-width="1.5" fill="none"></path></g></g><mask></mask><g transform="translate(285.5 686.5) rotate(0 49.5 7)"><text x="49.50000000000001" y="9.559999999999999" font-family="Segoe UI Emoji" font-size="10px" fill="#64748b" text-anchor="middle" style="white-space: pre;" direction="ltr" dominant-baseline="alphabetic">POST /auth/signout</text></g><g stroke-linecap="round"><g transform="translate(422.5 745.5) rotate(0 87.5 0)"><path d="M0 0 C29.17 0, 145.83 0, 175 0 M0 0 C29.17 0, 145.83 0, 175 0" stroke="#475569" stroke-width="1.5" fill="none"></path></g><g transform="translate(422.5 745.5) rotate(0 87.5 0)"><path d="M151.51 8.55 C159.21 5.75, 166.91 2.94, 175 0 M151.51 8.55 C160.15 5.4, 168.8 2.26, 175 0" stroke="#475569" stroke-width="1.5" fill="none"></path></g><g transform="translate(422.5 745.5) rotate(0 87.5 0)"><path d="M151.51 -8.55 C159.21 -5.75, 166.91 -2.94, 175 0 M151.51 -8.55 C160.15 -5.4, 168.8 -2.26, 175 0" stroke="#475569" stroke-width="1.5" fill="none"></path></g></g><mask></mask><g transform="translate(438.5 726.5) rotate(0 71.5 7)"><text x="71.5" y="9.559999999999999" font-family="Segoe UI Emoji" font-size="10px" fill="#64748b" text-anchor="middle" style="white-space: pre;" direction="ltr" dominant-baseline="alphabetic">Blacklist access_token JTI</text></g><g stroke-linecap="round"><g transform="translate(422.5 785.5) rotate(0 175 0)"><path d="M0 0 C58.33 0, 291.67 0, 350 0 M0 0 C58.33 0, 291.67 0, 350 0" stroke="#475569" stroke-width="1.5" fill="none"></path></g><g transform="translate(422.5 785.5) rotate(0 175 0)"><path d="M326.51 8.55 C333.38 6.05, 340.25 3.55, 350 0 M326.51 8.55 C331.34 6.79, 336.18 5.03, 350 0" stroke="#475569" stroke-width="1.5" fill="none"></path></g><g transform="translate(422.5 785.5) rotate(0 175 0)"><path d="M326.51 -8.55 C333.38 -6.05, 340.25 -3.55, 350 0 M326.51 -8.55 C331.34 -6.79, 336.18 -5.03, 350 0" stroke="#475569" stroke-width="1.5" fill="none"></path></g></g><mask></mask><g transform="translate(542.5 766.5) rotate(0 55 7)"><text x="55.00000000000001" y="9.559999999999999" font-family="Segoe UI Emoji" font-size="10px" fill="#64748b" text-anchor="middle" style="white-space: pre;" direction="ltr" dominant-baseline="alphabetic">Revoke refresh token</text></g><g stroke-linecap="round"><g transform="translate(422.5 825.5) rotate(0 -87.5 0)"><path d="M0 0 C-29.17 0, -145.83 0, -175 0" stroke="#475569" stroke-width="2" fill="none" stroke-dasharray="8 9.5"></path></g><g transform="translate(422.5 825.5) rotate(0 -87.5 0)"><path d="M-151.51 -8.55 C-156.41 -6.77, -161.31 -4.98, -175 0" stroke="#475569" stroke-width="2" fill="none"></path></g><g transform="translate(422.5 825.5) rotate(0 -87.5 0)"><path d="M-151.51 8.55 C-156.41 6.77, -161.31 4.98, -175 0" stroke="#475569" stroke-width="2" fill="none"></path></g></g><mask></mask><g transform="translate(315 806.5) rotate(0 20 7)"><text x="20" y="9.559999999999999" font-family="Segoe UI Emoji" font-size="10px" fill="#64748b" text-anchor="middle" style="white-space: pre;" direction="ltr" dominant-baseline="alphabetic">200 OK</text></g></svg>