<svg version="1.1" xmlns="http://www.w3.org/2000/svg" viewBox="0 0 845 885.5" width="845" height="885.5"><!-- svg-source:excalidraw --><metadata></metadata><defs><style class="style-fonts">
      </style></defs><rect x="0" y="0" width="845" height="885.5" fill="#f8fafc"></rect><g transform="translate(12.5 10) rotate(0 169.125 10.5)"><text x="169.125" y="14.34" font-family="Segoe UI Emoji" font-size="15px" fill="#1e293b" text-anchor="middle" style="white-space: pre;" direction="ltr" dominant-baseline="alphabetic">Authentication Flow — JWT + Refresh Token</text></g><g stroke-linecap="round" transform="translate(10 45.5) rotate(0 62.5 21)"><path d="M6 0 C50.31 0, 94.62 0, 119 0 C123 0, 125 2, 125 6 C125 12.67, 125 19.34, 125 36 C125 40, 123 42, 119 42 C89.56 42, 60.12 42, 6 42 C2 42, 0 40, 0 36 C0 26.27, 0 16.53, 0 6 C0 2, 2 0, 6 0" stroke="none" stroke-width="0" fill="#dbeafe"></path><path d="M6 0 C46.86 0, 87.72 0, 119 0 M6 0 C29.35 0, 52.69 0, 119 0 M119 0 C123 0, 125 2, 125 6 M119 0 C123 0, 125 2, 125 6 M125 6 C125 16.37, 125 26.73, 125 36 M125 6 C125 13.08, 125 20.16, 125 36 M125 36 C125 40, 123 42, 119 42 M125 36 C125 40, 123 42, 119 42 M119 42 C77.34 42, 35.69 42, 6 42 M119 42 C89.53 42, 60.05 42, 6 42 M6 42 C2 42, 0 40, 0 36 M6 42 C2 42, 0 40, 0 36 M0 36 C0 28.59, 0 21.18, 0 6 M0 36 C0 25.64, 0 15.27, 0 6 M0 6 C0 2, 2 0, 6 0 M0 6 C0 2, 2 0, 6 0" stroke="#3b82f6" stroke-width="1.5" fill="none"></path></g><g transform="translate(52.5 61.5) rotate(0 20 7)"><text x="20" y="9.559999999999999" font-family="Segoe UI Emoji" font-size="10px" fill="#1e293b" text-anchor="middle" style="white-space: pre;" direction="ltr" dominant-baseline="alphabetic">User</text></g><g stroke-linecap="round"><g transform="translate(72.5 87.5) rotate(0 0 394)"><path d="M0 0 C0 131.33, 0 656.67, 0 788" stroke="#94a3b8" stroke-width="1.5" fill="none" stroke-dasharray="8 9"></path></g></g><mask></mask><g stroke-linecap="round" transform="translate(185 45.5) rotate(0 62.5 21)"><path d="M6 0 C49.87 0, 93.74 0, 119 0 C123 0, 125 2, 125 6 C125 12.17, 125 18.35, 125 36 C125 40, 123 42, 119 42 C81.48 42, 43.95 42, 6 42 C2 42, 0 40, 0 36 C0 27.65, 0 19.3, 0 6 C0 2, 2 0, 6 0" stroke="none" stroke-width="0" fill="#dbeafe"></path><path d="M6 0 C37.16 0, 68.33 0, 119 0 M6 0 C29.12 0, 52.25 0, 119 0 M119 0 C123 0, 125 2, 125 6 M119 0 C123 0, 125 2, 125 6 M125 6 C125 15.42, 125 24.84, 125 36 M125 6 C125 12.24, 125 18.48, 125 36 M125 36 C125 40, 123 42, 119 42 M125 36 C125 40, 123 42, 119 42 M119 42 C89.69 42, 60.37 42, 6 42 M119 42 C81.73 42, 44.46 42, 6 42 M6 42 C2 42, 0 40, 0 36 M6 42 C2 42, 0 40, 0 36 M0 36 C0 27.26, 0 18.53, 0 6 M0 36 C0 26, 0 16, 0 6 M0 6 C0 2, 2 0, 6 0 M0 6 C0 2, 2 0, 6 0" stroke="#3b82f6" stroke-width="1.5" fill="none"></path></g><g transform="translate(227.5 51.5) rotate(0 20 7)"><text x="20" y="9.559999999999999" font-family="Segoe UI Emoji" font-size="10px" fill="#1e293b" text-anchor="middle" style="white-space: pre;" direction="ltr" dominant-baseline="alphabetic">Web App</text></g><g transform="translate(217.25 69.5) rotate(0 30.25 7)"><text x="30.250000000000004" y="9.559999999999999" font-family="Segoe UI Emoji" font-size="10px" fill="#64748b" text-anchor="middle" style="white-space: pre;" direction="ltr" dominant-baseline="alphabetic">(React SPA)</text></g><g stroke-linecap="round"><g transform="translate(247.5 87.5) rotate(0 0 394)"><path d="M0 0 C0 131.33, 0 656.67, 0 788" stroke="#94a3b8" stroke-width="1.5" fill="none" stroke-dasharray="8 9"></path></g></g><mask></mask><g stroke-linecap="round" transform="translate(360 45.5) rotate(0 62.5 21)"><path d="M6 0 C43.52 0, 81.04 0, 119 0 C123 0, 125 2, 125 6 C125 14.57, 125 23.14, 125 36 C125 40, 123 42, 119 42 C79.31 42, 39.61 42, 6 42 C2 42, 0 40, 0 36 C0 28.68, 0 21.35, 0 6 C0 2, 2 0, 6 0" stroke="none" stroke-width="0" fill="#dbeafe"></path><path d="M6 0 C47.85 0, 89.7 0, 119 0 M6 0 C37.37 0, 68.75 0, 119 0 M119 0 C123 0, 125 2, 125 6 M119 0 C123 0, 125 2, 125 6 M125 6 C125 14.02, 125 22.04, 125 36 M125 6 C125 15.81, 125 25.61, 125 36 M125 36 C125 40, 123 42, 119 42 M125 36 C125 40, 123 42, 119 42 M119 42 C82.37 42, 45.74 42, 6 42 M119 42 C82.02 42, 45.04 42, 6 42 M6 42 C2 42, 0 40, 0 36 M6 42 C2 42, 0 40, 0 36 M0 36 C0 26.22, 0 16.45, 0 6 M0 36 C0 27.42, 0 18.84, 0 6 M0 6 C0 2, 2 0, 6 0 M0 6 C0 2, 2 0, 6 0" stroke="#3b82f6" stroke-width="1.5" fill="none"></path></g><g transform="translate(395 51.5) rotate(0 27.5 7)"><text x="27.500000000000004" y="9.559999999999999" font-family="Segoe UI Emoji" font-size="10px" fill="#1e293b" text-anchor="middle" style="white-space: pre;" direction="ltr" dominant-baseline="alphabetic">API Server</text></g><g transform="translate(389.5 69.5) rotate(0 33 7)"><text x="33" y="9.559999999999999" font-family="Segoe UI Emoji" font-size="10px" fill="#64748b" text-anchor="middle" style="white-space: pre;" direction="ltr" dominant-baseline="alphabetic">(OpenIddict)</text></g><g stroke-linecap="round"><g transform="translate(422.5 87.5) rotate(0 0 394)"><path d="M0 0 C0 131.33, 0 656.67, 0 788" stroke="#94a3b8" stroke-width="1.5" fill="none" stroke-dasharray="8 9"></path></g></g><mask></mask><g stroke-linecap="round" transform="translate(535 45.5) rotate(0 62.5 21)"><path d="M6 0 C28.96 0, 51.92 0, 119 0 C123 0, 125 2, 125 6 C125 16.83, 125 27.66, 125 36 C125 40, 123 42, 119 42 C92.14 42, 65.29 42, 6 42 C2 42, 0 40, 0 36 C0 27.1, 0 18.19, 0 6 C0 2, 2 0, 6 0" stroke="none" stroke-width="0" fill="#ffedd5"></path><path d="M6 0 C34.71 0, 63.42 0, 119 0 M6 0 C35.21 0, 64.42 0, 119 0 M119 0 C123 0, 125 2, 125 6 M119 0 C123 0, 125 2, 125 6 M125 6 C125 15.76, 125 25.52, 125 36 M125 6 C125 13.44, 125 20.88, 125 36 M125 36 C125 40, 123 42, 119 42 M125 36 C125 40, 123 42, 119 42 M119 42 C83.48 42, 47.96 42, 6 42 M119 42 C88.47 42, 57.94 42, 6 42 M6 42 C2 42, 0 40, 0 36 M6 42 C2 42, 0 40, 0 36 M0 36 C0 25.75, 0 15.49, 0 6 M0 36 C0 29.65, 0 23.3, 0 6 M0 6 C0 2, 2 0, 6 0 M0 6 C0 2, 2 0, 6 0" stroke="#ea580c" stroke-width="1.5" fill="none"></path></g><g transform="translate(577.5 51.5) rotate(0 20 7)"><text x="20" y="9.559999999999999" font-family="Segoe UI Emoji" font-size="10px" fill="#1e293b" text-anchor="middle" style="white-space: pre;" direction="ltr" dominant-baseline="alphabetic">Redis</text></g><g transform="translate(550.75 69.5) rotate(0 46.75 7)"><text x="46.75000000000001" y="9.559999999999999" font-family="Segoe UI Emoji" font-size="10px" fill="#64748b" text-anchor="middle" style="white-space: pre;" direction="ltr" dominant-baseline="alphabetic">(token blacklist)</text></g><g stroke-linecap="round"><g transform="translate(597.5 87.5) rotate(0 0 394)"><path d="M0 0 C0 131.33, 0 656.67, 0 788" stroke="#94a3b8" stroke-width="1.5" fill="none" stroke-dasharray="8 9"></path></g></g><mask></mask><g stroke-linecap="round" transform="translate(710 45.5) rotate(0 62.5 21)"><path d="M6 0 C39.63 0, 73.27 0, 119 0 C123 0, 125 2, 125 6 C125 14.3, 125 22.59, 125 36 C125 40, 123 42, 119 42 C77.23 42, 35.46 42, 6 42 C2 42, 0 40, 0 36 C0 29.09, 0 22.19, 0 6 C0 2, 2 0, 6 0" stroke="none" stroke-width="0" fill="#ffedd5"></path><path d="M6 0 C33.9 0, 61.8 0, 119 0 M6 0 C34.16 0, 62.33 0, 119 0 M119 0 C123 0, 125 2, 125 6 M119 0 C123 0, 125 2, 125 6 M125 6 C125 16.18, 125 26.36, 125 36 M125 6 C125 16.92, 125 27.85, 125 36 M125 36 C125 40, 123 42, 119 42 M125 36 C125 40, 123 42, 119 42 M119 42 C92.76 42, 66.52 42, 6 42 M119 42 C81.63 42, 44.26 42, 6 42 M6 42 C2 42, 0 40, 0 36 M6 42 C2 42, 0 40, 0 36 M0 36 C0 27.36, 0 18.73, 0 6 M0 36 C0 25.98, 0 15.97, 0 6 M0 6 C0 2, 2 0, 6 0 M0 6 C0 2, 2 0, 6 0" stroke="#ea580c" stroke-width="1.5" fill="none"></path></g><g transform="translate(745 61.5) rotate(0 27.5 7)"><text x="27.500000000000004" y="9.559999999999999" font-family="Segoe UI Emoji" font-size="10px" fill="#1e293b" text-anchor="middle" style="white-space: pre;" direction="ltr" dominant-baseline="alphabetic">PostgreSQL</text></g><g stroke-linecap="round"><g transform="translate(772.5 87.5) rotate(0 0 394)"><path d="M0 0 C0 131.33, 0 656.67, 0 788" stroke="#94a3b8" stroke-width="1.5" fill="none" stroke-dasharray="8 9"></path></g></g><mask></mask><g stroke-linecap="round"><g transform="translate(32.5 137.5) rotate(0 0 0)"><path d="M0 0 C0 0, 0 0, 0 0" stroke="#94a3b8" stroke-width="1.5" fill="none" stroke-dasharray="8 9"></path></g></g><mask></mask><g transform="translate(12.5 144.5) rotate(0 35.75 7)"><text x="35.75" y="9.559999999999999" font-family="Segoe UI Emoji" font-size="10px" fill="#64748b" text-anchor="middle" style="white-space: pre;" direction="ltr" dominant-baseline="alphabetic">== Sign In ==</text></g><g stroke-linecap="round"><g transform="translate(32.5 317.5) rotate(0 0 0)"><path d="M0 0 C0 0, 0 0, 0 0" stroke="#94a3b8" stroke-width="1.5" fill="none" stroke-dasharray="8 9"></path></g></g><mask></mask><g transform="translate(12.5 324.5) rotate(0 74.25 7)"><text x="74.25" y="9.559999999999999" font-family="Segoe UI Emoji" font-size="10px" fill="#64748b" text-anchor="middle" style="white-space: pre;" direction="ltr" dominant-baseline="alphabetic">== Authenticated Request ==</text></g><g stroke-linecap="round"><g transform="translate(32.5 487.5) rotate(0 0 0)"><path d="M0 0 C0 0, 0 0, 0 0" stroke="#94a3b8" stroke-width="1.5" fill="none" stroke-dasharray="8 9"></path></g></g><mask></mask><g transform="translate(12.5 494.5) rotate(0 71.5 7)"><text x="71.5" y="9.559999999999999" font-family="Segoe UI Emoji" font-size="10px" fill="#64748b" text-anchor="middle" style="white-space: pre;" direction="ltr" dominant-baseline="alphabetic">== Silent Token Refresh ==</text></g><g stroke-linecap="round"><g transform="translate(32.5 637.5) rotate(0 0 0)"><path d="M0 0 C0 0, 0 0, 0 0" stroke="#94a3b8" stroke-width="1.5" fill="none" stroke-dasharray="8 9"></path></g></g><mask></mask><g transform="translate(12.5 644.5) rotate(0 38.5 7)"><text x="38.5" y="9.559999999999999" font-family="Segoe UI Emoji" font-size="10px" fill="#64748b" text-anchor="middle" style="white-space: pre;" direction="ltr" dominant-baseline="alphabetic">== Sign Out ==</text></g><g stroke-linecap="round"><g transform="translate(72.5 165.5) rotate(0 87.5 0)"><path d="M0 0 C29.17 0, 145.83 0, 175 0 M0 0 C29.17 0, 145.83 0, 175 0" stroke="#475569" stroke-width="1.5" fill="none"></path></g><g transform="translate(72.5 165.5) rotate(0 87.5 0)"><path d="M151.51 8.55 C160.31 5.35, 169.1 2.15, 175 0 M151.51 8.55 C156.32 6.8, 161.13 5.05, 175 0" stroke="#475569" stroke-width="1.5" fill="none"></path></g><g transform="translate(72.5 165.5) rotate(0 87.5 0)"><path d="M151.51 -8.55 C160.31 -5.35, 169.1 -2.15, 175 0 M151.51 -8.55 C156.32 -6.8, 161.13 -5.05, 175 0" stroke="#475569" stroke-width="1.5" fill="none"></path></g></g><mask></mask><g transform="translate(99.5 146.5) rotate(0 60.5 7)"><text x="60.50000000000001" y="9.559999999999999" font-family="Segoe UI Emoji" font-size="10px" fill="#64748b" text-anchor="middle" style="white-space: pre;" direction="ltr" dominant-baseline="alphabetic">Enter email + password</text></g><g stroke-linecap="round"><g transform="translate(247.5 205.5) rotate(0 87.5 0)"><path d="M0 0 C29.17 0, 145.83 0, 175 0 M0 0 C29.17 0, 145.83 0, 175 0" stroke="#475569" stroke-width="1.5" fill="none"></path></g><g transform="translate(247.5 205.5) rotate(0 87.5 0)"><path d="M151.51 8.55 C157.3 6.44, 163.1 4.33, 175 0 M151.51 8.55 C156.5 6.73, 161.5 4.91, 175 0" stroke="#475569" stroke-width="1.5" fill="none"></path></g><g transform="translate(247.5 205.5) rotate(0 87.5 0)"><path d="M151.51 -8.55 C157.3 -6.44, 163.1 -4.33, 175 0 M151.51 -8.55 C156.5 -6.73, 161.5 -4.91, 175 0" stroke="#475569" stroke-width="1.5" fill="none"></path></g></g><mask></mask><g transform="translate(291 186.5) rotate(0 44 7)"><text x="44" y="9.559999999999999" font-family="Segoe UI Emoji" font-size="10px" fill="#64748b" text-anchor="middle" style="white-space: pre;" direction="ltr" dominant-baseline="alphabetic">POST /auth/token</text></g><g stroke-linecap="round"><g transform="translate(422.5 245.5) rotate(0 175 0)"><path d="M0 0 C58.33 0, 291.67 0, 350 0 M0 0 C58.33 0, 291.67 0, 350 0" stroke="#475569" stroke-width="1.5" fill="none"></path></g><g transform="translate(422.5 245.5) rotate(0 175 0)"><path d="M326.51 8.55 C331.21 6.84, 335.91 5.13, 350 0 M326.51 8.55 C332.33 6.43, 338.15 4.31, 350 0" stroke="#475569" stroke-width="1.5" fill="none"></path></g><g transform="translate(422.5 245.5) rotate(0 175 0)"><path d="M326.51 -8.55 C331.21 -6.84, 335.91 -5.13, 350 0 M326.51 -8.55 C332.33 -6.43, 338.15 -4.31, 350 0" stroke="#475569" stroke-width="1.5" fill="none"></path></g></g><mask></mask><g transform="translate(542.5 226.5) rotate(0 55 7)"><text x="55.00000000000001" y="9.559999999999999" font-family="Segoe UI Emoji" font-size="10px" fill="#64748b" text-anchor="middle" style="white-space: pre;" direction="ltr" dominant-baseline="alphabetic">Validate credentials</text></g><g stroke-linecap="round"><g transform="translate(422.5 285.5) rotate(0 -87.5 0)"><path d="M0 0 C-29.17 0, -145.83 0, -175 0" stroke="#475569" stroke-width="2" fill="none" stroke-dasharray="8 9.5"></path></g><g transform="translate(422.5 285.5) rotate(0 -87.5 0)"><path d="M-151.51 -8.55 C-160.75 -5.19, -169.99 -1.82, -175 0" stroke="#475569" stroke-width="2" fill="none"></path></g><g transform="translate(422.5 285.5) rotate(0 -87.5 0)"><path d="M-151.51 8.55 C-160.75 5.19, -169.99 1.82, -175 0" stroke="#475569" stroke-width="2" fill="none"></path></g></g><mask></mask><g transform="translate(255.25 266.5) rotate(0 79.75 7)"><text x="79.75" y="9.559999999999999" font-family="Segoe UI Emoji" font-size="10px" fill="#64748b" text-anchor="middle" style="white-space: pre;" direction="ltr" dominant-baseline="alphabetic">{access_token, refresh_token}</text></g><g stroke-linecap="round"><g transform="translate(72.5 345.5) rotate(0 87.5 0)"><path d="M0 0 C29.17 0, 145.83 0, 175 0 M0 0 C29.17 0, 145.83 0, 175 0" stroke="#475569" stroke-width="1.5" fill="none"></path></g><g transform="translate(72.5 345.5) rotate(0 87.5 0)"><path d="M151.51 8.55 C156.53 6.72, 161.56 4.89, 175 0 M151.51 8.55 C157.38 6.41, 163.24 4.28, 175 0" stroke="#475569" stroke-width="1.5" fill="none"></path></g><g transform="translate(72.5 345.5) rotate(0 87.5 0)"><path d="M151.51 -8.55 C156.53 -6.72, 161.56 -4.89, 175 0 M151.51 -8.55 C157.38 -6.41, 163.24 -4.28, 175 0" stroke="#475569" stroke-width="1.5" fill="none"></path></g></g><mask></mask><g transform="translate(91.25 326.5) rotate(0 68.75 7)"><text x="68.75" y="9.559999999999999" font-family="Segoe UI Emoji" font-size="10px" fill="#64748b" text-anchor="middle" style="white-space: pre;" direction="ltr" dominant-baseline="alphabetic">Navigate / perform action</text></g><g stroke-linecap="round"><g transform="translate(247.5 385.5) rotate(0 87.5 0)"><path d="M0 0 C29.17 0, 145.83 0, 175 0 M0 0 C29.17 0, 145.83 0, 175 0" stroke="#475569" stroke-width="1.5" fill="none"></path></g><g transform="translate(247.5 385.5) rotate(0 87.5 0)"><path d="M151.51 8.55 C159.68 5.58, 167.85 2.6, 175 0 M151.51 8.55 C160.45 5.3, 169.39 2.04, 175 0" stroke="#475569" stroke-width="1.5" fill="none"></path></g><g transform="translate(247.5 385.5) rotate(0 87.5 0)"><path d="M151.51 -8.55 C159.68 -5.58, 167.85 -2.6, 175 0 M151.51 -8.55 C160.45 -5.3, 169.39 -2.04, 175 0" stroke="#475569" stroke-width="1.5" fill="none"></path></g></g><mask></mask><g transform="translate(258 366.5) rotate(0 77 7)"><text x="77" y="9.559999999999999" font-family="Segoe UI Emoji" font-size="10px" fill="#64748b" text-anchor="middle" style="white-space: pre;" direction="ltr" dominant-baseline="alphabetic">GET /resource (Bearer token)</text></g><g stroke-linecap="round"><g transform="translate(422.5 425.5) rotate(0 0 0)"><path d="M0 0 C0 0, 0 0, 0 0 M0 0 C0 0, 0 0, 0 0" stroke="#475569" stroke-width="1.5" fill="none"></path></g><g transform="translate(422.5 425.5) rotate(0 0 0)"><path d="MNaN NaN CNaN NaN, NaN NaN, 0 0 MNaN NaN CNaN NaN, NaN NaN, 0 0" stroke="#475569" stroke-width="1.5" fill="none"></path></g><g transform="translate(422.5 425.5) rotate(0 0 0)"><path d="MNaN NaN CNaN NaN, NaN NaN, 0 0 MNaN NaN CNaN NaN, NaN NaN, 0 0" stroke="#475569" stroke-width="1.5" fill="none"></path></g></g><mask></mask><g transform="translate(353.75 406.5) rotate(0 68.75 7)"><text x="68.75" y="9.559999999999999" font-family="Segoe UI Emoji" font-size="10px" fill="#64748b" text-anchor="middle" style="white-space: pre;" direction="ltr" dominant-baseline="alphabetic">Validate JWT + set tenant</text></g><g stroke-linecap="round"><g transform="translate(422.5 457.5) rotate(0 -87.5 0)"><path d="M0 0 C-29.17 0, -145.83 0, -175 0" stroke="#475569" stroke-width="2" fill="none" stroke-dasharray="8 9.5"></path></g><g transform="translate(422.5 457.5) rotate(0 -87.5 0)"><path d="M-151.51 -8.55 C-156.33 -6.8, -161.14 -5.04, -175 0" stroke="#475569" stroke-width="2" fill="none"></path></g><g transform="translate(422.5 457.5) rotate(0 -87.5 0)"><path d="M-151.51 8.55 C-156.33 6.8, -161.14 5.04, -175 0" stroke="#475569" stroke-width="2" fill="none"></path></g></g><mask></mask><g transform="translate(299.25 438.5) rotate(0 35.75 7)"><text x="35.75" y="9.559999999999999" font-family="Segoe UI Emoji" font-size="10px" fill="#64748b" text-anchor="middle" style="white-space: pre;" direction="ltr" dominant-baseline="alphabetic">200 OK + data</text></g><g stroke-linecap="round"><g transform="translate(247.5 515.5) rotate(0 87.5 0)"><path d="M0 0 C29.17 0, 145.83 0, 175 0 M0 0 C29.17 0, 145.83 0, 175 0" stroke="#475569" stroke-width="1.5" fill="none"></path></g><g transform="translate(247.5 515.5) rotate(0 87.5 0)"><path d="M151.51 8.55 C159.97 5.47, 168.42 2.39, 175 0 M151.51 8.55 C157.73 6.29, 163.95 4.02, 175 0" stroke="#475569" stroke-width="1.5" fill="none"></path></g><g transform="translate(247.5 515.5) rotate(0 87.5 0)"><path d="M151.51 -8.55 C159.97 -5.47, 168.42 -2.39, 175 0 M151.51 -8.55 C157.73 -6.29, 163.95 -4.02, 175 0" stroke="#475569" stroke-width="1.5" fill="none"></path></g></g><mask></mask><g transform="translate(236 496.5) rotate(0 99 7)"><text x="99.00000000000001" y="9.559999999999999" font-family="Segoe UI Emoji" font-size="10px" fill="#64748b" text-anchor="middle" style="white-space: pre;" direction="ltr" dominant-baseline="alphabetic">POST /auth/refresh (httpOnly cookie)</text></g><g stroke-linecap="round"><g transform="translate(422.5 555.5) rotate(0 175 0)"><path d="M0 0 C58.33 0, 291.67 0, 350 0 M0 0 C58.33 0, 291.67 0, 350 0" stroke="#475569" stroke-width="1.5" fill="none"></path></g><g transform="translate(422.5 555.5) rotate(0 175 0)"><path d="M326.51 8.55 C335.15 5.41, 343.79 2.26, 350 0 M326.51 8.55 C331.72 6.65, 336.94 4.75, 350 0" stroke="#475569" stroke-width="1.5" fill="none"></path></g><g transform="translate(422.5 555.5) rotate(0 175 0)"><path d="M326.51 -8.55 C335.15 -5.41, 343.79 -2.26, 350 0 M326.51 -8.55 C331.72 -6.65, 336.94 -4.75, 350 0" stroke="#475569" stroke-width="1.5" fill="none"></path></g></g><mask></mask><g transform="translate(512.25 536.5) rotate(0 85.25 7)"><text x="85.25" y="9.559999999999999" font-family="Segoe UI Emoji" font-size="10px" fill="#64748b" text-anchor="middle" style="white-space: pre;" direction="ltr" dominant-baseline="alphabetic">Validate + rotate refresh token</text></g><g stroke-linecap="round"><g transform="translate(422.5 595.5) rotate(0 -87.5 0)"><path d="M0 0 C-29.17 0, -145.83 0, -175 0" stroke="#475569" stroke-width="2" fill="none" stroke-dasharray="8 9.5"></path></g><g transform="translate(422.5 595.5) rotate(0 -87.5 0)"><path d="M-151.51 -8.55 C-157.83 -6.25, -164.15 -3.95, -175 0" stroke="#475569" stroke-width="2" fill="none"></path></g><g transform="translate(422.5 595.5) rotate(0 -87.5 0)"><path d="M-151.51 8.55 C-157.83 6.25, -164.15 3.95, -175 0" stroke="#475569" stroke-width="2" fill="none"></path></g></g><mask></mask><g transform="translate(233.25 576.5) rotate(0 101.75 7)"><text x="101.75000000000001" y="9.559999999999999" font-family="Segoe UI Emoji" font-size="10px" fill="#64748b" text-anchor="middle" style="white-space: pre;" direction="ltr" dominant-baseline="alphabetic">{new access_token, new refresh_token}</text></g><g stroke-linecap="round"><g transform="translate(72.5 665.5) rotate(0 87.5 0)"><path d="M0 0 C29.17 0, 145.83 0, 175 0 M0 0 C29.17 0, 145.83 0, 175 0" stroke="#475569" stroke-width="1.5" fill="none"></path></g><g transform="translate(72.5 665.5) rotate(0 87.5 0)"><path d="M151.51 8.55 C157.68 6.31, 163.84 4.06, 175 0 M151.51 8.55 C157 6.55, 162.5 4.55, 175 0" stroke="#475569" stroke-width="1.5" fill="none"></path></g><g transform="translate(72.5 665.5) rotate(0 87.5 0)"><path d="M151.51 -8.55 C157.68 -6.31, 163.84 -4.06, 175 0 M151.51 -8.55 C157 -6.55, 162.5 -4.55, 175 0" stroke="#475569" stroke-width="1.5" fill="none"></path></g></g><mask></mask><g transform="translate(121.5 646.5) rotate(0 38.5 7)"><text x="38.5" y="9.559999999999999" font-family="Segoe UI Emoji" font-size="10px" fill="#64748b" text-anchor="middle" style="white-space: pre;" direction="ltr" dominant-baseline="alphabetic">Click Sign Out</text></g><g stroke-linecap="round"><g transform="translate(247.5 705.5) rotate(0 87.5 0)"><path d="M0 0 C29.17 0, 145.83 0, 175 0 M0 0 C29.17 0, 145.83 0, 175 0" stroke="#475569" stroke-width="1.5" fill="none"></path></g><g transform="translate(247.5 705.5) rotate(0 87.5 0)"><path d="M151.51 8.55 C158.89 5.86, 166.28 3.17, 175 0 M151.51 8.55 C156.27 6.82, 161.03 5.09, 175 0" stroke="#475569" stroke-width="1.5" fill="none"></path></g><g transform="translate(247.5 705.5) rotate(0 87.5 0)"><path d="M151.51 -8.55 C158.89 -5.86, 166.28 -3.17, 175 0 M151.51 -8.55 C156.27 -6.82, 161.03 -5.09, 175 0" stroke="#475569" stroke-width="1.5" fill="none"></path></g></g><mask></mask><g transform="translate(285.5 686.5) rotate(0 49.5 7)"><text x="49.50000000000001" y="9.559999999999999" font-family="Segoe UI Emoji" font-size="10px" fill="#64748b" text-anchor="middle" style="white-space: pre;" direction="ltr" dominant-baseline="alphabetic">POST /auth/signout</text></g><g stroke-linecap="round"><g transform="translate(422.5 745.5) rotate(0 87.5 0)"><path d="M0 0 C29.17 0, 145.83 0, 175 0 M0 0 C29.17 0, 145.83 0, 175 0" stroke="#475569" stroke-width="1.5" fill="none"></path></g><g transform="translate(422.5 745.5) rotate(0 87.5 0)"><path d="M151.51 8.55 C159.24 5.74, 166.97 2.92, 175 0 M151.51 8.55 C158.23 6.1, 164.96 3.65, 175 0" stroke="#475569" stroke-width="1.5" fill="none"></path></g><g transform="translate(422.5 745.5) rotate(0 87.5 0)"><path d="M151.51 -8.55 C159.24 -5.74, 166.97 -2.92, 175 0 M151.51 -8.55 C158.23 -6.1, 164.96 -3.65, 175 0" stroke="#475569" stroke-width="1.5" fill="none"></path></g></g><mask></mask><g transform="translate(438.5 726.5) rotate(0 71.5 7)"><text x="71.5" y="9.559999999999999" font-family="Segoe UI Emoji" font-size="10px" fill="#64748b" text-anchor="middle" style="white-space: pre;" direction="ltr" dominant-baseline="alphabetic">Blacklist access_token JTI</text></g><g stroke-linecap="round"><g transform="translate(422.5 785.5) rotate(0 175 0)"><path d="M0 0 C58.33 0, 291.67 0, 350 0 M0 0 C58.33 0, 291.67 0, 350 0" stroke="#475569" stroke-width="1.5" fill="none"></path></g><g transform="translate(422.5 785.5) rotate(0 175 0)"><path d="M326.51 8.55 C331.92 6.58, 337.34 4.61, 350 0 M326.51 8.55 C331.39 6.77, 336.27 5, 350 0" stroke="#475569" stroke-width="1.5" fill="none"></path></g><g transform="translate(422.5 785.5) rotate(0 175 0)"><path d="M326.51 -8.55 C331.92 -6.58, 337.34 -4.61, 350 0 M326.51 -8.55 C331.39 -6.77, 336.27 -5, 350 0" stroke="#475569" stroke-width="1.5" fill="none"></path></g></g><mask></mask><g transform="translate(542.5 766.5) rotate(0 55 7)"><text x="55.00000000000001" y="9.559999999999999" font-family="Segoe UI Emoji" font-size="10px" fill="#64748b" text-anchor="middle" style="white-space: pre;" direction="ltr" dominant-baseline="alphabetic">Revoke refresh token</text></g><g stroke-linecap="round"><g transform="translate(422.5 825.5) rotate(0 -87.5 0)"><path d="M0 0 C-29.17 0, -145.83 0, -175 0" stroke="#475569" stroke-width="2" fill="none" stroke-dasharray="8 9.5"></path></g><g transform="translate(422.5 825.5) rotate(0 -87.5 0)"><path d="M-151.51 -8.55 C-158.57 -5.98, -165.63 -3.41, -175 0" stroke="#475569" stroke-width="2" fill="none"></path></g><g transform="translate(422.5 825.5) rotate(0 -87.5 0)"><path d="M-151.51 8.55 C-158.57 5.98, -165.63 3.41, -175 0" stroke="#475569" stroke-width="2" fill="none"></path></g></g><mask></mask><g transform="translate(315 806.5) rotate(0 20 7)"><text x="20" y="9.559999999999999" font-family="Segoe UI Emoji" font-size="10px" fill="#64748b" text-anchor="middle" style="white-space: pre;" direction="ltr" dominant-baseline="alphabetic">200 OK</text></g></svg>