<svg version="1.1" xmlns="http://www.w3.org/2000/svg" viewBox="0 0 1105 915.5" width="1105" height="915.5"><!-- svg-source:excalidraw --><metadata></metadata><defs><style class="style-fonts">
      </style></defs><rect x="0" y="0" width="1105" height="915.5" fill="#f8fafc"></rect><g transform="translate(12.5 10) rotate(0 94.87500000000001 10.5)"><text x="94.87500000000001" y="14.34" font-family="Segoe UI Emoji" font-size="15px" fill="#1e293b" text-anchor="middle" style="white-space: pre;" direction="ltr" dominant-baseline="alphabetic">Workflow Execution Flow</text></g><g stroke-linecap="round" transform="translate(10 45.5) rotate(0 62.5 21)"><path d="M6 0 C47.01 0, 88.03 0, 119 0 C123 0, 125 2, 125 6 C125 14.54, 125 23.08, 125 36 C125 40, 123 42, 119 42 C93.76 42, 68.51 42, 6 42 C2 42, 0 40, 0 36 C0 29.8, 0 23.59, 0 6 C0 2, 2 0, 6 0" stroke="none" stroke-width="0" fill="#dbeafe"></path><path d="M6 0 C32.43 0, 58.86 0, 119 0 M6 0 C42.31 0, 78.62 0, 119 0 M119 0 C123 0, 125 2, 125 6 M119 0 C123 0, 125 2, 125 6 M125 6 C125 13.12, 125 20.24, 125 36 M125 6 C125 16.63, 125 27.25, 125 36 M125 36 C125 40, 123 42, 119 42 M125 36 C125 40, 123 42, 119 42 M119 42 C92.65 42, 66.31 42, 6 42 M119 42 C79.61 42, 40.22 42, 6 42 M6 42 C2 42, 0 40, 0 36 M6 42 C2 42, 0 40, 0 36 M0 36 C0 27.32, 0 18.63, 0 6 M0 36 C0 27.38, 0 18.76, 0 6 M0 6 C0 2, 2 0, 6 0 M0 6 C0 2, 2 0, 6 0" stroke="#3b82f6" stroke-width="1.5" fill="none"></path></g><g transform="translate(52.5 51.5) rotate(0 20 7)"><text x="20" y="9.559999999999999" font-family="Segoe UI Emoji" font-size="10px" fill="#1e293b" text-anchor="middle" style="white-space: pre;" direction="ltr" dominant-baseline="alphabetic">Trigger</text></g><g transform="translate(28.5 69.5) rotate(0 44 7)"><text x="44" y="9.559999999999999" font-family="Segoe UI Emoji" font-size="10px" fill="#64748b" text-anchor="middle" style="white-space: pre;" direction="ltr" dominant-baseline="alphabetic">(Manual/Webhook)</text></g><g stroke-linecap="round"><g transform="translate(72.5 87.5) rotate(0 0 409)"><path d="M0 0 C0 136.33, 0 681.67, 0 818" stroke="#94a3b8" stroke-width="1.5" fill="none" stroke-dasharray="8 9"></path></g></g><mask></mask><g stroke-linecap="round" transform="translate(170 45.5) rotate(0 62.5 21)"><path d="M6 0 C39.27 0, 72.55 0, 119 0 C123 0, 125 2, 125 6 C125 14.94, 125 23.88, 125 36 C125 40, 123 42, 119 42 C82.96 42, 46.92 42, 6 42 C2 42, 0 40, 0 36 C0 28.8, 0 21.6, 0 6 C0 2, 2 0, 6 0" stroke="none" stroke-width="0" fill="#dbeafe"></path><path d="M6 0 C32.04 0, 58.08 0, 119 0 M6 0 C43.96 0, 81.91 0, 119 0 M119 0 C123 0, 125 2, 125 6 M119 0 C123 0, 125 2, 125 6 M125 6 C125 12.85, 125 19.7, 125 36 M125 6 C125 16.35, 125 26.7, 125 36 M125 36 C125 40, 123 42, 119 42 M125 36 C125 40, 123 42, 119 42 M119 42 C93.69 42, 68.39 42, 6 42 M119 42 C75.97 42, 32.93 42, 6 42 M6 42 C2 42, 0 40, 0 36 M6 42 C2 42, 0 40, 0 36 M0 36 C0 26.84, 0 17.68, 0 6 M0 36 C0 29.41, 0 22.83, 0 6 M0 6 C0 2, 2 0, 6 0 M0 6 C0 2, 2 0, 6 0" stroke="#3b82f6" stroke-width="1.5" fill="none"></path></g><g transform="translate(207.75 51.5) rotate(0 24.75 7)"><text x="24.750000000000004" y="9.559999999999999" font-family="Segoe UI Emoji" font-size="10px" fill="#1e293b" text-anchor="middle" style="white-space: pre;" direction="ltr" dominant-baseline="alphabetic">Execution</text></g><g transform="translate(199.5 69.5) rotate(0 33 7)"><text x="33" y="9.559999999999999" font-family="Segoe UI Emoji" font-size="10px" fill="#64748b" text-anchor="middle" style="white-space: pre;" direction="ltr" dominant-baseline="alphabetic">Orchestrator</text></g><g stroke-linecap="round"><g transform="translate(232.5 87.5) rotate(0 0 409)"><path d="M0 0 C0 136.33, 0 681.67, 0 818" stroke="#94a3b8" stroke-width="1.5" fill="none" stroke-dasharray="8 9"></path></g></g><mask></mask><g stroke-linecap="round" transform="translate(330 45.5) rotate(0 62.5 21)"><path d="M6 0 C48.15 0, 90.31 0, 119 0 C123 0, 125 2, 125 6 C125 14.54, 125 23.09, 125 36 C125 40, 123 42, 119 42 C95.9 42, 72.79 42, 6 42 C2 42, 0 40, 0 36 C0 29.55, 0 23.1, 0 6 C0 2, 2 0, 6 0" stroke="none" stroke-width="0" fill="#dbeafe"></path><path d="M6 0 C28.83 0, 51.66 0, 119 0 M6 0 C42.75 0, 79.5 0, 119 0 M119 0 C123 0, 125 2, 125 6 M119 0 C123 0, 125 2, 125 6 M125 6 C125 13.76, 125 21.51, 125 36 M125 6 C125 14.86, 125 23.72, 125 36 M125 36 C125 40, 123 42, 119 42 M125 36 C125 40, 123 42, 119 42 M119 42 C92.23 42, 65.45 42, 6 42 M119 42 C84.72 42, 50.45 42, 6 42 M6 42 C2 42, 0 40, 0 36 M6 42 C2 42, 0 40, 0 36 M0 36 C0 24.68, 0 13.36, 0 6 M0 36 C0 26.67, 0 17.33, 0 6 M0 6 C0 2, 2 0, 6 0 M0 6 C0 2, 2 0, 6 0" stroke="#3b82f6" stroke-width="1.5" fill="none"></path></g><g transform="translate(359.5 51.5) rotate(0 33 7)"><text x="33" y="9.559999999999999" font-family="Segoe UI Emoji" font-size="10px" fill="#1e293b" text-anchor="middle" style="white-space: pre;" direction="ltr" dominant-baseline="alphabetic">Step Handler</text></g><g transform="translate(365 69.5) rotate(0 27.5 7)"><text x="27.500000000000004" y="9.559999999999999" font-family="Segoe UI Emoji" font-size="10px" fill="#64748b" text-anchor="middle" style="white-space: pre;" direction="ltr" dominant-baseline="alphabetic">(per type)</text></g><g stroke-linecap="round"><g transform="translate(392.5 87.5) rotate(0 0 409)"><path d="M0 0 C0 136.33, 0 681.67, 0 818" stroke="#94a3b8" stroke-width="1.5" fill="none" stroke-dasharray="8 9"></path></g></g><mask></mask><g stroke-linecap="round" transform="translate(490 45.5) rotate(0 62.5 21)"><path d="M6 0 C42.34 0, 78.67 0, 119 0 C123 0, 125 2, 125 6 C125 17.32, 125 28.63, 125 36 C125 40, 123 42, 119 42 C76.82 42, 34.63 42, 6 42 C2 42, 0 40, 0 36 C0 27.42, 0 18.84, 0 6 C0 2, 2 0, 6 0" stroke="none" stroke-width="0" fill="#dbeafe"></path><path d="M6 0 C50.16 0, 94.32 0, 119 0 M6 0 C45.05 0, 84.1 0, 119 0 M119 0 C123 0, 125 2, 125 6 M119 0 C123 0, 125 2, 125 6 M125 6 C125 17.41, 125 28.82, 125 36 M125 6 C125 15.76, 125 25.53, 125 36 M125 36 C125 40, 123 42, 119 42 M125 36 C125 40, 123 42, 119 42 M119 42 C82.36 42, 45.72 42, 6 42 M119 42 C73.91 42, 28.82 42, 6 42 M6 42 C2 42, 0 40, 0 36 M6 42 C2 42, 0 40, 0 36 M0 36 C0 26.98, 0 17.96, 0 6 M0 36 C0 28.59, 0 21.18, 0 6 M0 6 C0 2, 2 0, 6 0 M0 6 C0 2, 2 0, 6 0" stroke="#3b82f6" stroke-width="1.5" fill="none"></path></g><g transform="translate(527.75 51.5) rotate(0 24.75 7)"><text x="24.750000000000004" y="9.559999999999999" font-family="Segoe UI Emoji" font-size="10px" fill="#1e293b" text-anchor="middle" style="white-space: pre;" direction="ltr" dominant-baseline="alphabetic">Wolverine</text></g><g transform="translate(532.5 69.5) rotate(0 20 7)"><text x="20" y="9.559999999999999" font-family="Segoe UI Emoji" font-size="10px" fill="#64748b" text-anchor="middle" style="white-space: pre;" direction="ltr" dominant-baseline="alphabetic">(Jobs)</text></g><g stroke-linecap="round"><g transform="translate(552.5 87.5) rotate(0 0 409)"><path d="M0 0 C0 136.33, 0 681.67, 0 818" stroke="#94a3b8" stroke-width="1.5" fill="none" stroke-dasharray="8 9"></path></g></g><mask></mask><g stroke-linecap="round" transform="translate(650 45.5) rotate(0 62.5 21)"><path d="M6 0 C34.59 0, 63.18 0, 119 0 C123 0, 125 2, 125 6 C125 13.28, 125 20.56, 125 36 C125 40, 123 42, 119 42 C83.78 42, 48.56 42, 6 42 C2 42, 0 40, 0 36 C0 28.92, 0 21.83, 0 6 C0 2, 2 0, 6 0" stroke="none" stroke-width="0" fill="#ffedd5"></path><path d="M6 0 C46.17 0, 86.35 0, 119 0 M6 0 C46.56 0, 87.12 0, 119 0 M119 0 C123 0, 125 2, 125 6 M119 0 C123 0, 125 2, 125 6 M125 6 C125 16.57, 125 27.14, 125 36 M125 6 C125 16.81, 125 27.62, 125 36 M125 36 C125 40, 123 42, 119 42 M125 36 C125 40, 123 42, 119 42 M119 42 C91.64 42, 64.28 42, 6 42 M119 42 C81.14 42, 43.29 42, 6 42 M6 42 C2 42, 0 40, 0 36 M6 42 C2 42, 0 40, 0 36 M0 36 C0 29.16, 0 22.32, 0 6 M0 36 C0 25.93, 0 15.85, 0 6 M0 6 C0 2, 2 0, 6 0 M0 6 C0 2, 2 0, 6 0" stroke="#ea580c" stroke-width="1.5" fill="none"></path></g><g transform="translate(685 61.5) rotate(0 27.5 7)"><text x="27.500000000000004" y="9.559999999999999" font-family="Segoe UI Emoji" font-size="10px" fill="#1e293b" text-anchor="middle" style="white-space: pre;" direction="ltr" dominant-baseline="alphabetic">PostgreSQL</text></g><g stroke-linecap="round"><g transform="translate(712.5 87.5) rotate(0 0 409)"><path d="M0 0 C0 136.33, 0 681.67, 0 818" stroke="#94a3b8" stroke-width="1.5" fill="none" stroke-dasharray="8 9"></path></g></g><mask></mask><g stroke-linecap="round" transform="translate(810 45.5) rotate(0 62.5 21)"><path d="M6 0 C32.91 0, 59.82 0, 119 0 C123 0, 125 2, 125 6 C125 15.39, 125 24.77, 125 36 C125 40, 123 42, 119 42 C85.36 42, 51.71 42, 6 42 C2 42, 0 40, 0 36 C0 25.42, 0 14.83, 0 6 C0 2, 2 0, 6 0" stroke="none" stroke-width="0" fill="#dbeafe"></path><path d="M6 0 C39.46 0, 72.92 0, 119 0 M6 0 C43.14 0, 80.29 0, 119 0 M119 0 C123 0, 125 2, 125 6 M119 0 C123 0, 125 2, 125 6 M125 6 C125 16.63, 125 27.26, 125 36 M125 6 C125 14.69, 125 23.37, 125 36 M125 36 C125 40, 123 42, 119 42 M125 36 C125 40, 123 42, 119 42 M119 42 C92.3 42, 65.59 42, 6 42 M119 42 C76.69 42, 34.38 42, 6 42 M6 42 C2 42, 0 40, 0 36 M6 42 C2 42, 0 40, 0 36 M0 36 C0 26.34, 0 16.67, 0 6 M0 36 C0 29.07, 0 22.14, 0 6 M0 6 C0 2, 2 0, 6 0 M0 6 C0 2, 2 0, 6 0" stroke="#3b82f6" stroke-width="1.5" fill="none"></path></g><g transform="translate(842.25 61.5) rotate(0 30.25 7)"><text x="30.250000000000004" y="9.559999999999999" font-family="Segoe UI Emoji" font-size="10px" fill="#1e293b" text-anchor="middle" style="white-space: pre;" direction="ltr" dominant-baseline="alphabetic">SignalR Hub</text></g><g stroke-linecap="round"><g transform="translate(872.5 87.5) rotate(0 0 409)"><path d="M0 0 C0 136.33, 0 681.67, 0 818" stroke="#94a3b8" stroke-width="1.5" fill="none" stroke-dasharray="8 9"></path></g></g><mask></mask><g stroke-linecap="round" transform="translate(970 45.5) rotate(0 62.5 21)"><path d="M6 0 C39.65 0, 73.29 0, 119 0 C123 0, 125 2, 125 6 C125 14.55, 125 23.1, 125 36 C125 40, 123 42, 119 42 C91.37 42, 63.73 42, 6 42 C2 42, 0 40, 0 36 C0 28.95, 0 21.9, 0 6 C0 2, 2 0, 6 0" stroke="none" stroke-width="0" fill="#f3e8ff"></path><path d="M6 0 C42.43 0, 78.85 0, 119 0 M6 0 C49.36 0, 92.72 0, 119 0 M119 0 C123 0, 125 2, 125 6 M119 0 C123 0, 125 2, 125 6 M125 6 C125 16.28, 125 26.57, 125 36 M125 6 C125 12.95, 125 19.9, 125 36 M125 36 C125 40, 123 42, 119 42 M125 36 C125 40, 123 42, 119 42 M119 42 C80.34 42, 41.68 42, 6 42 M119 42 C77.63 42, 36.26 42, 6 42 M6 42 C2 42, 0 40, 0 36 M6 42 C2 42, 0 40, 0 36 M0 36 C0 29.93, 0 23.86, 0 6 M0 36 C0 25.32, 0 14.64, 0 6 M0 6 C0 2, 2 0, 6 0 M0 6 C0 2, 2 0, 6 0" stroke="#9333ea" stroke-width="1.5" fill="none"></path></g><g transform="translate(1012.5 61.5) rotate(0 20 7)"><text x="20" y="9.559999999999999" font-family="Segoe UI Emoji" font-size="10px" fill="#1e293b" text-anchor="middle" style="white-space: pre;" direction="ltr" dominant-baseline="alphabetic">Browser</text></g><g stroke-linecap="round"><g transform="translate(1032.5 87.5) rotate(0 0 409)"><path d="M0 0 C0 136.33, 0 681.67, 0 818" stroke="#94a3b8" stroke-width="1.5" fill="none" stroke-dasharray="8 9"></path></g></g><mask></mask><g stroke-linecap="round"><g transform="translate(32.5 137.5) rotate(0 0 0)"><path d="M0 0 C0 0, 0 0, 0 0" stroke="#94a3b8" stroke-width="1.5" fill="none" stroke-dasharray="8 9"></path></g></g><mask></mask><g transform="translate(12.5 144.5) rotate(0 57.75000000000001 7)"><text x="57.75000000000001" y="9.559999999999999" font-family="Segoe UI Emoji" font-size="10px" fill="#64748b" text-anchor="middle" style="white-space: pre;" direction="ltr" dominant-baseline="alphabetic">== Execution Start ==</text></g><g stroke-linecap="round"><g transform="translate(32.5 387.5) rotate(0 0 0)"><path d="M0 0 C0 0, 0 0, 0 0" stroke="#94a3b8" stroke-width="1.5" fill="none" stroke-dasharray="8 9"></path></g></g><mask></mask><g transform="translate(12.5 394.5) rotate(0 68.75 7)"><text x="68.75" y="9.559999999999999" font-family="Segoe UI Emoji" font-size="10px" fill="#64748b" text-anchor="middle" style="white-space: pre;" direction="ltr" dominant-baseline="alphabetic">== Step Execution Loop ==</text></g><g stroke-linecap="round"><g transform="translate(32.5 747.5) rotate(0 0 0)"><path d="M0 0 C0 0, 0 0, 0 0" stroke="#94a3b8" stroke-width="1.5" fill="none" stroke-dasharray="8 9"></path></g></g><mask></mask><g transform="translate(12.5 754.5) rotate(0 66 7)"><text x="66" y="9.559999999999999" font-family="Segoe UI Emoji" font-size="10px" fill="#64748b" text-anchor="middle" style="white-space: pre;" direction="ltr" dominant-baseline="alphabetic">== Execution Complete ==</text></g><g stroke-linecap="round"><g transform="translate(72.5 165.5) rotate(0 80 0)"><path d="M0 0 C26.67 0, 133.33 0, 160 0 M0 0 C26.67 0, 133.33 0, 160 0" stroke="#475569" stroke-width="1.5" fill="none"></path></g><g transform="translate(72.5 165.5) rotate(0 80 0)"><path d="M136.51 8.55 C143.95 5.84, 151.39 3.13, 160 0 M136.51 8.55 C142.89 6.23, 149.26 3.91, 160 0" stroke="#475569" stroke-width="1.5" fill="none"></path></g><g transform="translate(72.5 165.5) rotate(0 80 0)"><path d="M136.51 -8.55 C143.95 -5.84, 151.39 -3.13, 160 0 M136.51 -8.55 C142.89 -6.23, 149.26 -3.91, 160 0" stroke="#475569" stroke-width="1.5" fill="none"></path></g></g><mask></mask><g transform="translate(67.25 146.5) rotate(0 85.25 7)"><text x="85.25" y="9.559999999999999" font-family="Segoe UI Emoji" font-size="10px" fill="#64748b" text-anchor="middle" style="white-space: pre;" direction="ltr" dominant-baseline="alphabetic">Start(workflowId, inputPayload)</text></g><g stroke-linecap="round"><g transform="translate(232.5 205.5) rotate(0 240 0)"><path d="M0 0 C80 0, 400 0, 480 0 M0 0 C80 0, 400 0, 480 0" stroke="#475569" stroke-width="1.5" fill="none"></path></g><g transform="translate(232.5 205.5) rotate(0 240 0)"><path d="M456.51 8.55 C461.41 6.76, 466.32 4.98, 480 0 M456.51 8.55 C462.54 6.36, 468.57 4.16, 480 0" stroke="#475569" stroke-width="1.5" fill="none"></path></g><g transform="translate(232.5 205.5) rotate(0 240 0)"><path d="M456.51 -8.55 C461.41 -6.76, 466.32 -4.98, 480 0 M456.51 -8.55 C462.54 -6.36, 468.57 -4.16, 480 0" stroke="#475569" stroke-width="1.5" fill="none"></path></g></g><mask></mask><g transform="translate(401 186.5) rotate(0 71.5 7)"><text x="71.5" y="9.559999999999999" font-family="Segoe UI Emoji" font-size="10px" fill="#64748b" text-anchor="middle" style="white-space: pre;" direction="ltr" dominant-baseline="alphabetic">Create Execution (PENDING)</text></g><g stroke-linecap="round"><g transform="translate(232.5 245.5) rotate(0 240 0)"><path d="M0 0 C80 0, 400 0, 480 0 M0 0 C80 0, 400 0, 480 0" stroke="#475569" stroke-width="1.5" fill="none"></path></g><g transform="translate(232.5 245.5) rotate(0 240 0)"><path d="M456.51 8.55 C462.2 6.48, 467.89 4.41, 480 0 M456.51 8.55 C465.59 5.24, 474.68 1.94, 480 0" stroke="#475569" stroke-width="1.5" fill="none"></path></g><g transform="translate(232.5 245.5) rotate(0 240 0)"><path d="M456.51 -8.55 C462.2 -6.48, 467.89 -4.41, 480 0 M456.51 -8.55 C465.59 -5.24, 474.68 -1.94, 480 0" stroke="#475569" stroke-width="1.5" fill="none"></path></g></g><mask></mask><g transform="translate(395.5 226.5) rotate(0 77 7)"><text x="77" y="9.559999999999999" font-family="Segoe UI Emoji" font-size="10px" fill="#64748b" text-anchor="middle" style="white-space: pre;" direction="ltr" dominant-baseline="alphabetic">Create StepExecution records</text></g><g stroke-linecap="round"><g transform="translate(232.5 285.5) rotate(0 160 0)"><path d="M0 0 C53.33 0, 266.67 0, 320 0 M0 0 C53.33 0, 266.67 0, 320 0" stroke="#475569" stroke-width="1.5" fill="none"></path></g><g transform="translate(232.5 285.5) rotate(0 160 0)"><path d="M296.51 8.55 C304.48 5.65, 312.45 2.75, 320 0 M296.51 8.55 C304.22 5.74, 311.93 2.94, 320 0" stroke="#475569" stroke-width="1.5" fill="none"></path></g><g transform="translate(232.5 285.5) rotate(0 160 0)"><path d="M296.51 -8.55 C304.48 -5.65, 312.45 -2.75, 320 0 M296.51 -8.55 C304.22 -5.74, 311.93 -2.94, 320 0" stroke="#475569" stroke-width="1.5" fill="none"></path></g></g><mask></mask><g transform="translate(329.25 266.5) rotate(0 63.25 7)"><text x="63.25000000000001" y="9.559999999999999" font-family="Segoe UI Emoji" font-size="10px" fill="#64748b" text-anchor="middle" style="white-space: pre;" direction="ltr" dominant-baseline="alphabetic">Enqueue ExecuteNextStep</text></g><g stroke-linecap="round"><g transform="translate(232.5 325.5) rotate(0 320 0)"><path d="M0 0 C106.67 0, 533.33 0, 640 0 M0 0 C106.67 0, 533.33 0, 640 0" stroke="#475569" stroke-width="1.5" fill="none"></path></g><g transform="translate(232.5 325.5) rotate(0 320 0)"><path d="M616.51 8.55 C621.47 6.75, 626.42 4.94, 640 0 M616.51 8.55 C624.46 5.66, 632.42 2.76, 640 0" stroke="#475569" stroke-width="1.5" fill="none"></path></g><g transform="translate(232.5 325.5) rotate(0 320 0)"><path d="M616.51 -8.55 C621.47 -6.75, 626.42 -4.94, 640 0 M616.51 -8.55 C624.46 -5.66, 632.42 -2.76, 640 0" stroke="#475569" stroke-width="1.5" fill="none"></path></g></g><mask></mask><g transform="translate(492 306.5) rotate(0 60.5 7)"><text x="60.50000000000001" y="9.559999999999999" font-family="Segoe UI Emoji" font-size="10px" fill="#64748b" text-anchor="middle" style="white-space: pre;" direction="ltr" dominant-baseline="alphabetic">ExecutionStarted event</text></g><g stroke-linecap="round"><g transform="translate(872.5 357.5) rotate(0 80 0)"><path d="M0 0 C26.67 0, 133.33 0, 160 0 M0 0 C26.67 0, 133.33 0, 160 0" stroke="#475569" stroke-width="1.5" fill="none"></path></g><g transform="translate(872.5 357.5) rotate(0 80 0)"><path d="M136.51 8.55 C144.87 5.51, 153.23 2.46, 160 0 M136.51 8.55 C142.56 6.35, 148.61 4.15, 160 0" stroke="#475569" stroke-width="1.5" fill="none"></path></g><g transform="translate(872.5 357.5) rotate(0 80 0)"><path d="M136.51 -8.55 C144.87 -5.51, 153.23 -2.46, 160 0 M136.51 -8.55 C142.56 -6.35, 148.61 -4.15, 160 0" stroke="#475569" stroke-width="1.5" fill="none"></path></g></g><mask></mask><g transform="translate(903 338.5) rotate(0 49.5 7)"><text x="49.50000000000001" y="9.559999999999999" font-family="Segoe UI Emoji" font-size="10px" fill="#64748b" text-anchor="middle" style="white-space: pre;" direction="ltr" dominant-baseline="alphabetic">Push status update</text></g><g stroke-linecap="round"><g transform="translate(552.5 415.5) rotate(0 -160 0)"><path d="M0 0 C-53.33 0, -266.67 0, -320 0 M0 0 C-53.33 0, -266.67 0, -320 0" stroke="#475569" stroke-width="1.5" fill="none"></path></g><g transform="translate(552.5 415.5) rotate(0 -160 0)"><path d="M-296.51 -8.55 C-301.99 -6.56, -307.47 -4.56, -320 0 M-296.51 -8.55 C-301.37 -6.78, -306.24 -5.01, -320 0" stroke="#475569" stroke-width="1.5" fill="none"></path></g><g transform="translate(552.5 415.5) rotate(0 -160 0)"><path d="M-296.51 8.55 C-301.99 6.56, -307.47 4.56, -320 0 M-296.51 8.55 C-301.37 6.78, -306.24 5.01, -320 0" stroke="#475569" stroke-width="1.5" fill="none"></path></g></g><mask></mask><g transform="translate(315.5 396.5) rotate(0 77 7)"><text x="77" y="9.559999999999999" font-family="Segoe UI Emoji" font-size="10px" fill="#64748b" text-anchor="middle" style="white-space: pre;" direction="ltr" dominant-baseline="alphabetic">ExecuteNextStep(executionId)</text></g><g stroke-linecap="round"><g transform="translate(232.5 455.5) rotate(0 240 0)"><path d="M0 0 C80 0, 400 0, 480 0 M0 0 C80 0, 400 0, 480 0" stroke="#475569" stroke-width="1.5" fill="none"></path></g><g transform="translate(232.5 455.5) rotate(0 240 0)"><path d="M456.51 8.55 C465.68 5.21, 474.84 1.88, 480 0 M456.51 8.55 C464.08 5.79, 471.65 3.04, 480 0" stroke="#475569" stroke-width="1.5" fill="none"></path></g><g transform="translate(232.5 455.5) rotate(0 240 0)"><path d="M456.51 -8.55 C465.68 -5.21, 474.84 -1.88, 480 0 M456.51 -8.55 C464.08 -5.79, 471.65 -3.04, 480 0" stroke="#475569" stroke-width="1.5" fill="none"></path></g></g><mask></mask><g transform="translate(414.75 436.5) rotate(0 57.75 7)"><text x="57.75000000000001" y="9.559999999999999" font-family="Segoe UI Emoji" font-size="10px" fill="#64748b" text-anchor="middle" style="white-space: pre;" direction="ltr" dominant-baseline="alphabetic">Update step (RUNNING)</text></g><g stroke-linecap="round"><g transform="translate(232.5 487.5) rotate(0 320 0)"><path d="M0 0 C106.67 0, 533.33 0, 640 0 M0 0 C106.67 0, 533.33 0, 640 0" stroke="#475569" stroke-width="1.5" fill="none"></path></g><g transform="translate(232.5 487.5) rotate(0 320 0)"><path d="M616.51 8.55 C623.57 5.98, 630.63 3.41, 640 0 M616.51 8.55 C624.08 5.79, 631.66 3.04, 640 0" stroke="#475569" stroke-width="1.5" fill="none"></path></g><g transform="translate(232.5 487.5) rotate(0 320 0)"><path d="M616.51 -8.55 C623.57 -5.98, 630.63 -3.41, 640 0 M616.51 -8.55 C624.08 -5.79, 631.66 -3.04, 640 0" stroke="#475569" stroke-width="1.5" fill="none"></path></g></g><mask></mask><g transform="translate(505.75 468.5) rotate(0 46.75 7)"><text x="46.75000000000001" y="9.559999999999999" font-family="Segoe UI Emoji" font-size="10px" fill="#64748b" text-anchor="middle" style="white-space: pre;" direction="ltr" dominant-baseline="alphabetic">StepStarted event</text></g><g stroke-linecap="round"><g transform="translate(232.5 527.5) rotate(0 80 0)"><path d="M0 0 C26.67 0, 133.33 0, 160 0 M0 0 C26.67 0, 133.33 0, 160 0" stroke="#475569" stroke-width="1.5" fill="none"></path></g><g transform="translate(232.5 527.5) rotate(0 80 0)"><path d="M136.51 8.55 C144.1 5.79, 151.7 3.02, 160 0 M136.51 8.55 C142.67 6.31, 148.83 4.06, 160 0" stroke="#475569" stroke-width="1.5" fill="none"></path></g><g transform="translate(232.5 527.5) rotate(0 80 0)"><path d="M136.51 -8.55 C144.1 -5.79, 151.7 -3.02, 160 0 M136.51 -8.55 C142.67 -6.31, 148.83 -4.06, 160 0" stroke="#475569" stroke-width="1.5" fill="none"></path></g></g><mask></mask><g transform="translate(224.5 508.5) rotate(0 88 7)"><text x="88" y="9.559999999999999" font-family="Segoe UI Emoji" font-size="10px" fill="#64748b" text-anchor="middle" style="white-space: pre;" direction="ltr" dominant-baseline="alphabetic">Execute(stepDefinition, context)</text></g><g stroke-linecap="round"><g transform="translate(392.5 567.5) rotate(0 160 0)"><path d="M0 0 C53.33 0, 266.67 0, 320 0 M0 0 C53.33 0, 266.67 0, 320 0" stroke="#475569" stroke-width="1.5" fill="none"></path></g><g transform="translate(392.5 567.5) rotate(0 160 0)"><path d="M296.51 8.55 C303.72 5.93, 310.93 3.3, 320 0 M296.51 8.55 C303.51 6, 310.5 3.46, 320 0" stroke="#475569" stroke-width="1.5" fill="none"></path></g><g transform="translate(392.5 567.5) rotate(0 160 0)"><path d="M296.51 -8.55 C303.72 -5.93, 310.93 -3.3, 320 0 M296.51 -8.55 C303.51 -6, 310.5 -3.46, 320 0" stroke="#475569" stroke-width="1.5" fill="none"></path></g></g><mask></mask><g transform="translate(464.5 548.5) rotate(0 88 7)"><text x="88" y="9.559999999999999" font-family="Segoe UI Emoji" font-size="10px" fill="#64748b" text-anchor="middle" style="white-space: pre;" direction="ltr" dominant-baseline="alphabetic">[Form] Create FormTask (PENDING)</text></g><g stroke-linecap="round"><g transform="translate(392.5 607.5) rotate(0 80 0)"><path d="M0 0 C26.67 0, 133.33 0, 160 0 M0 0 C26.67 0, 133.33 0, 160 0" stroke="#475569" stroke-width="1.5" fill="none"></path></g><g transform="translate(392.5 607.5) rotate(0 80 0)"><path d="M136.51 8.55 C144.52 5.63, 152.53 2.72, 160 0 M136.51 8.55 C141.91 6.58, 147.32 4.62, 160 0" stroke="#475569" stroke-width="1.5" fill="none"></path></g><g transform="translate(392.5 607.5) rotate(0 80 0)"><path d="M136.51 -8.55 C144.52 -5.63, 152.53 -2.72, 160 0 M136.51 -8.55 C141.91 -6.58, 147.32 -4.62, 160 0" stroke="#475569" stroke-width="1.5" fill="none"></path></g></g><mask></mask><g transform="translate(398.25 588.5) rotate(0 74.25 7)"><text x="74.25" y="9.559999999999999" font-family="Segoe UI Emoji" font-size="10px" fill="#64748b" text-anchor="middle" style="white-space: pre;" direction="ltr" dominant-baseline="alphabetic">[Form] Enqueue notification</text></g><g stroke-linecap="round"><g transform="translate(392.5 647.5) rotate(0 -80 0)"><path d="M0 0 C-26.67 0, -133.33 0, -160 0" stroke="#475569" stroke-width="2" fill="none" stroke-dasharray="8 9.5"></path></g><g transform="translate(392.5 647.5) rotate(0 -80 0)"><path d="M-136.51 -8.55 C-144.98 -5.47, -153.46 -2.38, -160 0" stroke="#475569" stroke-width="2" fill="none"></path></g><g transform="translate(392.5 647.5) rotate(0 -80 0)"><path d="M-136.51 8.55 C-144.98 5.47, -153.46 2.38, -160 0" stroke="#475569" stroke-width="2" fill="none"></path></g></g><mask></mask><g transform="translate(219 628.5) rotate(0 93.5 7)"><text x="93.50000000000001" y="9.559999999999999" font-family="Segoe UI Emoji" font-size="10px" fill="#64748b" text-anchor="middle" style="white-space: pre;" direction="ltr" dominant-baseline="alphabetic">[Sync] StepResult(success, output)</text></g><g stroke-linecap="round"><g transform="translate(232.5 685.5) rotate(0 240 0)"><path d="M0 0 C80 0, 400 0, 480 0 M0 0 C80 0, 400 0, 480 0" stroke="#475569" stroke-width="1.5" fill="none"></path></g><g transform="translate(232.5 685.5) rotate(0 240 0)"><path d="M456.51 8.55 C464.12 5.78, 471.74 3.01, 480 0 M456.51 8.55 C462.01 6.55, 467.5 4.55, 480 0" stroke="#475569" stroke-width="1.5" fill="none"></path></g><g transform="translate(232.5 685.5) rotate(0 240 0)"><path d="M456.51 -8.55 C464.12 -5.78, 471.74 -3.01, 480 0 M456.51 -8.55 C462.01 -6.55, 467.5 -4.55, 480 0" stroke="#475569" stroke-width="1.5" fill="none"></path></g></g><mask></mask><g transform="translate(409.25 666.5) rotate(0 63.25 7)"><text x="63.25000000000001" y="9.559999999999999" font-family="Segoe UI Emoji" font-size="10px" fill="#64748b" text-anchor="middle" style="white-space: pre;" direction="ltr" dominant-baseline="alphabetic">Update step (COMPLETED)</text></g><g stroke-linecap="round"><g transform="translate(232.5 717.5) rotate(0 160 0)"><path d="M0 0 C53.33 0, 266.67 0, 320 0 M0 0 C53.33 0, 266.67 0, 320 0" stroke="#475569" stroke-width="1.5" fill="none"></path></g><g transform="translate(232.5 717.5) rotate(0 160 0)"><path d="M296.51 8.55 C301.48 6.74, 306.45 4.93, 320 0 M296.51 8.55 C303.46 6.02, 310.41 3.49, 320 0" stroke="#475569" stroke-width="1.5" fill="none"></path></g><g transform="translate(232.5 717.5) rotate(0 160 0)"><path d="M296.51 -8.55 C301.48 -6.74, 306.45 -4.93, 320 0 M296.51 -8.55 C303.46 -6.02, 310.41 -3.49, 320 0" stroke="#475569" stroke-width="1.5" fill="none"></path></g></g><mask></mask><g transform="translate(329.25 698.5) rotate(0 63.25 7)"><text x="63.25000000000001" y="9.559999999999999" font-family="Segoe UI Emoji" font-size="10px" fill="#64748b" text-anchor="middle" style="white-space: pre;" direction="ltr" dominant-baseline="alphabetic">Enqueue ExecuteNextStep</text></g><g stroke-linecap="round"><g transform="translate(232.5 775.5) rotate(0 240 0)"><path d="M0 0 C80 0, 400 0, 480 0 M0 0 C80 0, 400 0, 480 0" stroke="#475569" stroke-width="1.5" fill="none"></path></g><g transform="translate(232.5 775.5) rotate(0 240 0)"><path d="M456.51 8.55 C464.88 5.5, 473.25 2.46, 480 0 M456.51 8.55 C464.99 5.46, 473.47 2.38, 480 0" stroke="#475569" stroke-width="1.5" fill="none"></path></g><g transform="translate(232.5 775.5) rotate(0 240 0)"><path d="M456.51 -8.55 C464.88 -5.5, 473.25 -2.46, 480 0 M456.51 -8.55 C464.99 -5.46, 473.47 -2.38, 480 0" stroke="#475569" stroke-width="1.5" fill="none"></path></g></g><mask></mask><g transform="translate(395.5 756.5) rotate(0 77 7)"><text x="77" y="9.559999999999999" font-family="Segoe UI Emoji" font-size="10px" fill="#64748b" text-anchor="middle" style="white-space: pre;" direction="ltr" dominant-baseline="alphabetic">Update execution (COMPLETED)</text></g><g stroke-linecap="round"><g transform="translate(232.5 815.5) rotate(0 320 0)"><path d="M0 0 C106.67 0, 533.33 0, 640 0 M0 0 C106.67 0, 533.33 0, 640 0" stroke="#475569" stroke-width="1.5" fill="none"></path></g><g transform="translate(232.5 815.5) rotate(0 320 0)"><path d="M616.51 8.55 C625.42 5.31, 634.33 2.06, 640 0 M616.51 8.55 C621.54 6.72, 626.57 4.89, 640 0" stroke="#475569" stroke-width="1.5" fill="none"></path></g><g transform="translate(232.5 815.5) rotate(0 320 0)"><path d="M616.51 -8.55 C625.42 -5.31, 634.33 -2.06, 640 0 M616.51 -8.55 C621.54 -6.72, 626.57 -4.89, 640 0" stroke="#475569" stroke-width="1.5" fill="none"></path></g></g><mask></mask><g transform="translate(486.5 796.5) rotate(0 66 7)"><text x="66" y="9.559999999999999" font-family="Segoe UI Emoji" font-size="10px" fill="#64748b" text-anchor="middle" style="white-space: pre;" direction="ltr" dominant-baseline="alphabetic">ExecutionCompleted event</text></g><g stroke-linecap="round"><g transform="translate(872.5 855.5) rotate(0 80 0)"><path d="M0 0 C26.67 0, 133.33 0, 160 0 M0 0 C26.67 0, 133.33 0, 160 0" stroke="#475569" stroke-width="1.5" fill="none"></path></g><g transform="translate(872.5 855.5) rotate(0 80 0)"><path d="M136.51 8.55 C141.91 6.59, 147.31 4.62, 160 0 M136.51 8.55 C145.43 5.3, 154.36 2.05, 160 0" stroke="#475569" stroke-width="1.5" fill="none"></path></g><g transform="translate(872.5 855.5) rotate(0 80 0)"><path d="M136.51 -8.55 C141.91 -6.59, 147.31 -4.62, 160 0 M136.51 -8.55 C145.43 -5.3, 154.36 -2.05, 160 0" stroke="#475569" stroke-width="1.5" fill="none"></path></g></g><mask></mask><g transform="translate(903 836.5) rotate(0 49.5 7)"><text x="49.50000000000001" y="9.559999999999999" font-family="Segoe UI Emoji" font-size="10px" fill="#64748b" text-anchor="middle" style="white-space: pre;" direction="ltr" dominant-baseline="alphabetic">Push status update</text></g></svg>