<svg version="1.1" xmlns="http://www.w3.org/2000/svg" viewBox="0 0 1105 915.5" width="1105" height="915.5"><!-- svg-source:excalidraw --><metadata></metadata><defs><style class="style-fonts">
      </style></defs><rect x="0" y="0" width="1105" height="915.5" fill="#f8fafc"></rect><g transform="translate(12.5 10) rotate(0 94.87500000000001 10.5)"><text x="94.87500000000001" y="14.34" font-family="Segoe UI Emoji" font-size="15px" fill="#1e293b" text-anchor="middle" style="white-space: pre;" direction="ltr" dominant-baseline="alphabetic">Workflow Execution Flow</text></g><g stroke-linecap="round" transform="translate(10 45.5) rotate(0 62.5 21)"><path d="M6 0 C46.32 0, 86.65 0, 119 0 C123 0, 125 2, 125 6 C125 13.27, 125 20.53, 125 36 C125 40, 123 42, 119 42 C85.38 42, 51.76 42, 6 42 C2 42, 0 40, 0 36 C0 26.47, 0 16.94, 0 6 C0 2, 2 0, 6 0" stroke="none" stroke-width="0" fill="#dbeafe"></path><path d="M6 0 C33.94 0, 61.88 0, 119 0 M6 0 C38.43 0, 70.85 0, 119 0 M119 0 C123 0, 125 2, 125 6 M119 0 C123 0, 125 2, 125 6 M125 6 C125 13.63, 125 21.26, 125 36 M125 6 C125 12.41, 125 18.82, 125 36 M125 36 C125 40, 123 42, 119 42 M125 36 C125 40, 123 42, 119 42 M119 42 C95.07 42, 71.14 42, 6 42 M119 42 C77.57 42, 36.15 42, 6 42 M6 42 C2 42, 0 40, 0 36 M6 42 C2 42, 0 40, 0 36 M0 36 C0 27.4, 0 18.79, 0 6 M0 36 C0 24.07, 0 12.14, 0 6 M0 6 C0 2, 2 0, 6 0 M0 6 C0 2, 2 0, 6 0" stroke="#3b82f6" stroke-width="1.5" fill="none"></path></g><g transform="translate(52.5 51.5) rotate(0 20 7)"><text x="20" y="9.559999999999999" font-family="Segoe UI Emoji" font-size="10px" fill="#1e293b" text-anchor="middle" style="white-space: pre;" direction="ltr" dominant-baseline="alphabetic">Trigger</text></g><g transform="translate(28.5 69.5) rotate(0 44 7)"><text x="44" y="9.559999999999999" font-family="Segoe UI Emoji" font-size="10px" fill="#64748b" text-anchor="middle" style="white-space: pre;" direction="ltr" dominant-baseline="alphabetic">(Manual/Webhook)</text></g><g stroke-linecap="round"><g transform="translate(72.5 87.5) rotate(0 0 409)"><path d="M0 0 C0 136.33, 0 681.67, 0 818" stroke="#94a3b8" stroke-width="1.5" fill="none" stroke-dasharray="8 9"></path></g></g><mask></mask><g stroke-linecap="round" transform="translate(170 45.5) rotate(0 62.5 21)"><path d="M6 0 C36 0, 65.99 0, 119 0 C123 0, 125 2, 125 6 C125 17.34, 125 28.69, 125 36 C125 40, 123 42, 119 42 C79.82 42, 40.65 42, 6 42 C2 42, 0 40, 0 36 C0 27.47, 0 18.94, 0 6 C0 2, 2 0, 6 0" stroke="none" stroke-width="0" fill="#dbeafe"></path><path d="M6 0 C47.41 0, 88.82 0, 119 0 M6 0 C37.07 0, 68.15 0, 119 0 M119 0 C123 0, 125 2, 125 6 M119 0 C123 0, 125 2, 125 6 M125 6 C125 16.36, 125 26.72, 125 36 M125 6 C125 17.4, 125 28.79, 125 36 M125 36 C125 40, 123 42, 119 42 M125 36 C125 40, 123 42, 119 42 M119 42 C75.7 42, 32.41 42, 6 42 M119 42 C89.79 42, 60.58 42, 6 42 M6 42 C2 42, 0 40, 0 36 M6 42 C2 42, 0 40, 0 36 M0 36 C0 26.32, 0 16.64, 0 6 M0 36 C0 28.14, 0 20.28, 0 6 M0 6 C0 2, 2 0, 6 0 M0 6 C0 2, 2 0, 6 0" stroke="#3b82f6" stroke-width="1.5" fill="none"></path></g><g transform="translate(207.75 51.5) rotate(0 24.75 7)"><text x="24.750000000000004" y="9.559999999999999" font-family="Segoe UI Emoji" font-size="10px" fill="#1e293b" text-anchor="middle" style="white-space: pre;" direction="ltr" dominant-baseline="alphabetic">Execution</text></g><g transform="translate(199.5 69.5) rotate(0 33 7)"><text x="33" y="9.559999999999999" font-family="Segoe UI Emoji" font-size="10px" fill="#64748b" text-anchor="middle" style="white-space: pre;" direction="ltr" dominant-baseline="alphabetic">Orchestrator</text></g><g stroke-linecap="round"><g transform="translate(232.5 87.5) rotate(0 0 409)"><path d="M0 0 C0 136.33, 0 681.67, 0 818" stroke="#94a3b8" stroke-width="1.5" fill="none" stroke-dasharray="8 9"></path></g></g><mask></mask><g stroke-linecap="round" transform="translate(330 45.5) rotate(0 62.5 21)"><path d="M6 0 C42.99 0, 79.97 0, 119 0 C123 0, 125 2, 125 6 C125 12.17, 125 18.34, 125 36 C125 40, 123 42, 119 42 C90.36 42, 61.72 42, 6 42 C2 42, 0 40, 0 36 C0 29.78, 0 23.57, 0 6 C0 2, 2 0, 6 0" stroke="none" stroke-width="0" fill="#dbeafe"></path><path d="M6 0 C39.49 0, 72.99 0, 119 0 M6 0 C47.06 0, 88.13 0, 119 0 M119 0 C123 0, 125 2, 125 6 M119 0 C123 0, 125 2, 125 6 M125 6 C125 15.06, 125 24.12, 125 36 M125 6 C125 15.63, 125 25.25, 125 36 M125 36 C125 40, 123 42, 119 42 M125 36 C125 40, 123 42, 119 42 M119 42 C89.06 42, 59.13 42, 6 42 M119 42 C92.41 42, 65.81 42, 6 42 M6 42 C2 42, 0 40, 0 36 M6 42 C2 42, 0 40, 0 36 M0 36 C0 28.43, 0 20.87, 0 6 M0 36 C0 29.92, 0 23.84, 0 6 M0 6 C0 2, 2 0, 6 0 M0 6 C0 2, 2 0, 6 0" stroke="#3b82f6" stroke-width="1.5" fill="none"></path></g><g transform="translate(359.5 51.5) rotate(0 33 7)"><text x="33" y="9.559999999999999" font-family="Segoe UI Emoji" font-size="10px" fill="#1e293b" text-anchor="middle" style="white-space: pre;" direction="ltr" dominant-baseline="alphabetic">Step Handler</text></g><g transform="translate(365 69.5) rotate(0 27.5 7)"><text x="27.500000000000004" y="9.559999999999999" font-family="Segoe UI Emoji" font-size="10px" fill="#64748b" text-anchor="middle" style="white-space: pre;" direction="ltr" dominant-baseline="alphabetic">(per type)</text></g><g stroke-linecap="round"><g transform="translate(392.5 87.5) rotate(0 0 409)"><path d="M0 0 C0 136.33, 0 681.67, 0 818" stroke="#94a3b8" stroke-width="1.5" fill="none" stroke-dasharray="8 9"></path></g></g><mask></mask><g stroke-linecap="round" transform="translate(490 45.5) rotate(0 62.5 21)"><path d="M6 0 C29.3 0, 52.6 0, 119 0 C123 0, 125 2, 125 6 C125 14.76, 125 23.52, 125 36 C125 40, 123 42, 119 42 C89.51 42, 60.02 42, 6 42 C2 42, 0 40, 0 36 C0 26.18, 0 16.36, 0 6 C0 2, 2 0, 6 0" stroke="none" stroke-width="0" fill="#dbeafe"></path><path d="M6 0 C29.05 0, 52.11 0, 119 0 M6 0 C45.15 0, 84.31 0, 119 0 M119 0 C123 0, 125 2, 125 6 M119 0 C123 0, 125 2, 125 6 M125 6 C125 17.84, 125 29.67, 125 36 M125 6 C125 13.92, 125 21.85, 125 36 M125 36 C125 40, 123 42, 119 42 M125 36 C125 40, 123 42, 119 42 M119 42 C77.85 42, 36.7 42, 6 42 M119 42 C85.56 42, 52.12 42, 6 42 M6 42 C2 42, 0 40, 0 36 M6 42 C2 42, 0 40, 0 36 M0 36 C0 25.59, 0 15.17, 0 6 M0 36 C0 27.38, 0 18.76, 0 6 M0 6 C0 2, 2 0, 6 0 M0 6 C0 2, 2 0, 6 0" stroke="#3b82f6" stroke-width="1.5" fill="none"></path></g><g transform="translate(527.75 51.5) rotate(0 24.75 7)"><text x="24.750000000000004" y="9.559999999999999" font-family="Segoe UI Emoji" font-size="10px" fill="#1e293b" text-anchor="middle" style="white-space: pre;" direction="ltr" dominant-baseline="alphabetic">Wolverine</text></g><g transform="translate(532.5 69.5) rotate(0 20 7)"><text x="20" y="9.559999999999999" font-family="Segoe UI Emoji" font-size="10px" fill="#64748b" text-anchor="middle" style="white-space: pre;" direction="ltr" dominant-baseline="alphabetic">(Jobs)</text></g><g stroke-linecap="round"><g transform="translate(552.5 87.5) rotate(0 0 409)"><path d="M0 0 C0 136.33, 0 681.67, 0 818" stroke="#94a3b8" stroke-width="1.5" fill="none" stroke-dasharray="8 9"></path></g></g><mask></mask><g stroke-linecap="round" transform="translate(650 45.5) rotate(0 62.5 21)"><path d="M6 0 C48.81 0, 91.62 0, 119 0 C123 0, 125 2, 125 6 C125 13.84, 125 21.67, 125 36 C125 40, 123 42, 119 42 C91.68 42, 64.35 42, 6 42 C2 42, 0 40, 0 36 C0 29.42, 0 22.84, 0 6 C0 2, 2 0, 6 0" stroke="none" stroke-width="0" fill="#ffedd5"></path><path d="M6 0 C44.35 0, 82.71 0, 119 0 M6 0 C44.9 0, 83.79 0, 119 0 M119 0 C123 0, 125 2, 125 6 M119 0 C123 0, 125 2, 125 6 M125 6 C125 17.97, 125 29.94, 125 36 M125 6 C125 13.4, 125 20.8, 125 36 M125 36 C125 40, 123 42, 119 42 M125 36 C125 40, 123 42, 119 42 M119 42 C90.69 42, 62.38 42, 6 42 M119 42 C92.34 42, 65.68 42, 6 42 M6 42 C2 42, 0 40, 0 36 M6 42 C2 42, 0 40, 0 36 M0 36 C0 29.48, 0 22.96, 0 6 M0 36 C0 26.7, 0 17.39, 0 6 M0 6 C0 2, 2 0, 6 0 M0 6 C0 2, 2 0, 6 0" stroke="#ea580c" stroke-width="1.5" fill="none"></path></g><g transform="translate(685 61.5) rotate(0 27.5 7)"><text x="27.500000000000004" y="9.559999999999999" font-family="Segoe UI Emoji" font-size="10px" fill="#1e293b" text-anchor="middle" style="white-space: pre;" direction="ltr" dominant-baseline="alphabetic">PostgreSQL</text></g><g stroke-linecap="round"><g transform="translate(712.5 87.5) rotate(0 0 409)"><path d="M0 0 C0 136.33, 0 681.67, 0 818" stroke="#94a3b8" stroke-width="1.5" fill="none" stroke-dasharray="8 9"></path></g></g><mask></mask><g stroke-linecap="round" transform="translate(810 45.5) rotate(0 62.5 21)"><path d="M6 0 C46.78 0, 87.56 0, 119 0 C123 0, 125 2, 125 6 C125 13.49, 125 20.98, 125 36 C125 40, 123 42, 119 42 C86.48 42, 53.96 42, 6 42 C2 42, 0 40, 0 36 C0 27.75, 0 19.49, 0 6 C0 2, 2 0, 6 0" stroke="none" stroke-width="0" fill="#dbeafe"></path><path d="M6 0 C33.81 0, 61.62 0, 119 0 M6 0 C47.65 0, 89.3 0, 119 0 M119 0 C123 0, 125 2, 125 6 M119 0 C123 0, 125 2, 125 6 M125 6 C125 15.11, 125 24.22, 125 36 M125 6 C125 16.14, 125 26.28, 125 36 M125 36 C125 40, 123 42, 119 42 M125 36 C125 40, 123 42, 119 42 M119 42 C80.93 42, 42.86 42, 6 42 M119 42 C90.38 42, 61.75 42, 6 42 M6 42 C2 42, 0 40, 0 36 M6 42 C2 42, 0 40, 0 36 M0 36 C0 26.51, 0 17.02, 0 6 M0 36 C0 26.12, 0 16.24, 0 6 M0 6 C0 2, 2 0, 6 0 M0 6 C0 2, 2 0, 6 0" stroke="#3b82f6" stroke-width="1.5" fill="none"></path></g><g transform="translate(842.25 61.5) rotate(0 30.25 7)"><text x="30.250000000000004" y="9.559999999999999" font-family="Segoe UI Emoji" font-size="10px" fill="#1e293b" text-anchor="middle" style="white-space: pre;" direction="ltr" dominant-baseline="alphabetic">SignalR Hub</text></g><g stroke-linecap="round"><g transform="translate(872.5 87.5) rotate(0 0 409)"><path d="M0 0 C0 136.33, 0 681.67, 0 818" stroke="#94a3b8" stroke-width="1.5" fill="none" stroke-dasharray="8 9"></path></g></g><mask></mask><g stroke-linecap="round" transform="translate(970 45.5) rotate(0 62.5 21)"><path d="M6 0 C44.98 0, 83.96 0, 119 0 C123 0, 125 2, 125 6 C125 16.03, 125 26.06, 125 36 C125 40, 123 42, 119 42 C84.85 42, 50.71 42, 6 42 C2 42, 0 40, 0 36 C0 25.9, 0 15.81, 0 6 C0 2, 2 0, 6 0" stroke="none" stroke-width="0" fill="#f3e8ff"></path><path d="M6 0 C39.57 0, 73.14 0, 119 0 M6 0 C32.49 0, 58.99 0, 119 0 M119 0 C123 0, 125 2, 125 6 M119 0 C123 0, 125 2, 125 6 M125 6 C125 16.34, 125 26.69, 125 36 M125 6 C125 16.16, 125 26.32, 125 36 M125 36 C125 40, 123 42, 119 42 M125 36 C125 40, 123 42, 119 42 M119 42 C92.85 42, 66.69 42, 6 42 M119 42 C93.66 42, 68.33 42, 6 42 M6 42 C2 42, 0 40, 0 36 M6 42 C2 42, 0 40, 0 36 M0 36 C0 25.19, 0 14.38, 0 6 M0 36 C0 25.75, 0 15.51, 0 6 M0 6 C0 2, 2 0, 6 0 M0 6 C0 2, 2 0, 6 0" stroke="#9333ea" stroke-width="1.5" fill="none"></path></g><g transform="translate(1012.5 61.5) rotate(0 20 7)"><text x="20" y="9.559999999999999" font-family="Segoe UI Emoji" font-size="10px" fill="#1e293b" text-anchor="middle" style="white-space: pre;" direction="ltr" dominant-baseline="alphabetic">Browser</text></g><g stroke-linecap="round"><g transform="translate(1032.5 87.5) rotate(0 0 409)"><path d="M0 0 C0 136.33, 0 681.67, 0 818" stroke="#94a3b8" stroke-width="1.5" fill="none" stroke-dasharray="8 9"></path></g></g><mask></mask><g stroke-linecap="round"><g transform="translate(32.5 137.5) rotate(0 0 0)"><path d="M0 0 C0 0, 0 0, 0 0" stroke="#94a3b8" stroke-width="1.5" fill="none" stroke-dasharray="8 9"></path></g></g><mask></mask><g transform="translate(12.5 144.5) rotate(0 57.75000000000001 7)"><text x="57.75000000000001" y="9.559999999999999" font-family="Segoe UI Emoji" font-size="10px" fill="#64748b" text-anchor="middle" style="white-space: pre;" direction="ltr" dominant-baseline="alphabetic">== Execution Start ==</text></g><g stroke-linecap="round"><g transform="translate(32.5 387.5) rotate(0 0 0)"><path d="M0 0 C0 0, 0 0, 0 0" stroke="#94a3b8" stroke-width="1.5" fill="none" stroke-dasharray="8 9"></path></g></g><mask></mask><g transform="translate(12.5 394.5) rotate(0 68.75 7)"><text x="68.75" y="9.559999999999999" font-family="Segoe UI Emoji" font-size="10px" fill="#64748b" text-anchor="middle" style="white-space: pre;" direction="ltr" dominant-baseline="alphabetic">== Step Execution Loop ==</text></g><g stroke-linecap="round"><g transform="translate(32.5 747.5) rotate(0 0 0)"><path d="M0 0 C0 0, 0 0, 0 0" stroke="#94a3b8" stroke-width="1.5" fill="none" stroke-dasharray="8 9"></path></g></g><mask></mask><g transform="translate(12.5 754.5) rotate(0 66 7)"><text x="66" y="9.559999999999999" font-family="Segoe UI Emoji" font-size="10px" fill="#64748b" text-anchor="middle" style="white-space: pre;" direction="ltr" dominant-baseline="alphabetic">== Execution Complete ==</text></g><g stroke-linecap="round"><g transform="translate(72.5 165.5) rotate(0 80 0)"><path d="M0 0 C26.67 0, 133.33 0, 160 0 M0 0 C26.67 0, 133.33 0, 160 0" stroke="#475569" stroke-width="1.5" fill="none"></path></g><g transform="translate(72.5 165.5) rotate(0 80 0)"><path d="M136.51 8.55 C145.34 5.34, 154.16 2.12, 160 0 M136.51 8.55 C143.23 6.1, 149.96 3.66, 160 0" stroke="#475569" stroke-width="1.5" fill="none"></path></g><g transform="translate(72.5 165.5) rotate(0 80 0)"><path d="M136.51 -8.55 C145.34 -5.34, 154.16 -2.12, 160 0 M136.51 -8.55 C143.23 -6.1, 149.96 -3.66, 160 0" stroke="#475569" stroke-width="1.5" fill="none"></path></g></g><mask></mask><g transform="translate(67.25 146.5) rotate(0 85.25 7)"><text x="85.25" y="9.559999999999999" font-family="Segoe UI Emoji" font-size="10px" fill="#64748b" text-anchor="middle" style="white-space: pre;" direction="ltr" dominant-baseline="alphabetic">Start(workflowId, inputPayload)</text></g><g stroke-linecap="round"><g transform="translate(232.5 205.5) rotate(0 240 0)"><path d="M0 0 C80 0, 400 0, 480 0 M0 0 C80 0, 400 0, 480 0" stroke="#475569" stroke-width="1.5" fill="none"></path></g><g transform="translate(232.5 205.5) rotate(0 240 0)"><path d="M456.51 8.55 C464.75 5.55, 473 2.55, 480 0 M456.51 8.55 C461.97 6.56, 467.43 4.58, 480 0" stroke="#475569" stroke-width="1.5" fill="none"></path></g><g transform="translate(232.5 205.5) rotate(0 240 0)"><path d="M456.51 -8.55 C464.75 -5.55, 473 -2.55, 480 0 M456.51 -8.55 C461.97 -6.56, 467.43 -4.58, 480 0" stroke="#475569" stroke-width="1.5" fill="none"></path></g></g><mask></mask><g transform="translate(401 186.5) rotate(0 71.5 7)"><text x="71.5" y="9.559999999999999" font-family="Segoe UI Emoji" font-size="10px" fill="#64748b" text-anchor="middle" style="white-space: pre;" direction="ltr" dominant-baseline="alphabetic">Create Execution (PENDING)</text></g><g stroke-linecap="round"><g transform="translate(232.5 245.5) rotate(0 240 0)"><path d="M0 0 C80 0, 400 0, 480 0 M0 0 C80 0, 400 0, 480 0" stroke="#475569" stroke-width="1.5" fill="none"></path></g><g transform="translate(232.5 245.5) rotate(0 240 0)"><path d="M456.51 8.55 C461.95 6.57, 467.4 4.59, 480 0 M456.51 8.55 C465.86 5.15, 475.21 1.74, 480 0" stroke="#475569" stroke-width="1.5" fill="none"></path></g><g transform="translate(232.5 245.5) rotate(0 240 0)"><path d="M456.51 -8.55 C461.95 -6.57, 467.4 -4.59, 480 0 M456.51 -8.55 C465.86 -5.15, 475.21 -1.74, 480 0" stroke="#475569" stroke-width="1.5" fill="none"></path></g></g><mask></mask><g transform="translate(395.5 226.5) rotate(0 77 7)"><text x="77" y="9.559999999999999" font-family="Segoe UI Emoji" font-size="10px" fill="#64748b" text-anchor="middle" style="white-space: pre;" direction="ltr" dominant-baseline="alphabetic">Create StepExecution records</text></g><g stroke-linecap="round"><g transform="translate(232.5 285.5) rotate(0 160 0)"><path d="M0 0 C53.33 0, 266.67 0, 320 0 M0 0 C53.33 0, 266.67 0, 320 0" stroke="#475569" stroke-width="1.5" fill="none"></path></g><g transform="translate(232.5 285.5) rotate(0 160 0)"><path d="M296.51 8.55 C301.87 6.6, 307.24 4.64, 320 0 M296.51 8.55 C304.46 5.65, 312.42 2.76, 320 0" stroke="#475569" stroke-width="1.5" fill="none"></path></g><g transform="translate(232.5 285.5) rotate(0 160 0)"><path d="M296.51 -8.55 C301.87 -6.6, 307.24 -4.64, 320 0 M296.51 -8.55 C304.46 -5.65, 312.42 -2.76, 320 0" stroke="#475569" stroke-width="1.5" fill="none"></path></g></g><mask></mask><g transform="translate(329.25 266.5) rotate(0 63.25 7)"><text x="63.25000000000001" y="9.559999999999999" font-family="Segoe UI Emoji" font-size="10px" fill="#64748b" text-anchor="middle" style="white-space: pre;" direction="ltr" dominant-baseline="alphabetic">Enqueue ExecuteNextStep</text></g><g stroke-linecap="round"><g transform="translate(232.5 325.5) rotate(0 320 0)"><path d="M0 0 C106.67 0, 533.33 0, 640 0 M0 0 C106.67 0, 533.33 0, 640 0" stroke="#475569" stroke-width="1.5" fill="none"></path></g><g transform="translate(232.5 325.5) rotate(0 320 0)"><path d="M616.51 8.55 C623.1 6.15, 629.7 3.75, 640 0 M616.51 8.55 C624.98 5.47, 633.46 2.38, 640 0" stroke="#475569" stroke-width="1.5" fill="none"></path></g><g transform="translate(232.5 325.5) rotate(0 320 0)"><path d="M616.51 -8.55 C623.1 -6.15, 629.7 -3.75, 640 0 M616.51 -8.55 C624.98 -5.47, 633.46 -2.38, 640 0" stroke="#475569" stroke-width="1.5" fill="none"></path></g></g><mask></mask><g transform="translate(492 306.5) rotate(0 60.5 7)"><text x="60.50000000000001" y="9.559999999999999" font-family="Segoe UI Emoji" font-size="10px" fill="#64748b" text-anchor="middle" style="white-space: pre;" direction="ltr" dominant-baseline="alphabetic">ExecutionStarted event</text></g><g stroke-linecap="round"><g transform="translate(872.5 357.5) rotate(0 80 0)"><path d="M0 0 C26.67 0, 133.33 0, 160 0 M0 0 C26.67 0, 133.33 0, 160 0" stroke="#475569" stroke-width="1.5" fill="none"></path></g><g transform="translate(872.5 357.5) rotate(0 80 0)"><path d="M136.51 8.55 C144.18 5.76, 151.85 2.97, 160 0 M136.51 8.55 C143.62 5.96, 150.74 3.37, 160 0" stroke="#475569" stroke-width="1.5" fill="none"></path></g><g transform="translate(872.5 357.5) rotate(0 80 0)"><path d="M136.51 -8.55 C144.18 -5.76, 151.85 -2.97, 160 0 M136.51 -8.55 C143.62 -5.96, 150.74 -3.37, 160 0" stroke="#475569" stroke-width="1.5" fill="none"></path></g></g><mask></mask><g transform="translate(903 338.5) rotate(0 49.5 7)"><text x="49.50000000000001" y="9.559999999999999" font-family="Segoe UI Emoji" font-size="10px" fill="#64748b" text-anchor="middle" style="white-space: pre;" direction="ltr" dominant-baseline="alphabetic">Push status update</text></g><g stroke-linecap="round"><g transform="translate(552.5 415.5) rotate(0 -160 0)"><path d="M0 0 C-53.33 0, -266.67 0, -320 0 M0 0 C-53.33 0, -266.67 0, -320 0" stroke="#475569" stroke-width="1.5" fill="none"></path></g><g transform="translate(552.5 415.5) rotate(0 -160 0)"><path d="M-296.51 -8.55 C-302.64 -6.32, -308.77 -4.09, -320 0 M-296.51 -8.55 C-304.31 -5.71, -312.12 -2.87, -320 0" stroke="#475569" stroke-width="1.5" fill="none"></path></g><g transform="translate(552.5 415.5) rotate(0 -160 0)"><path d="M-296.51 8.55 C-302.64 6.32, -308.77 4.09, -320 0 M-296.51 8.55 C-304.31 5.71, -312.12 2.87, -320 0" stroke="#475569" stroke-width="1.5" fill="none"></path></g></g><mask></mask><g transform="translate(315.5 396.5) rotate(0 77 7)"><text x="77" y="9.559999999999999" font-family="Segoe UI Emoji" font-size="10px" fill="#64748b" text-anchor="middle" style="white-space: pre;" direction="ltr" dominant-baseline="alphabetic">ExecuteNextStep(executionId)</text></g><g stroke-linecap="round"><g transform="translate(232.5 455.5) rotate(0 240 0)"><path d="M0 0 C80 0, 400 0, 480 0 M0 0 C80 0, 400 0, 480 0" stroke="#475569" stroke-width="1.5" fill="none"></path></g><g transform="translate(232.5 455.5) rotate(0 240 0)"><path d="M456.51 8.55 C464.18 5.76, 471.85 2.97, 480 0 M456.51 8.55 C461.82 6.62, 467.13 4.68, 480 0" stroke="#475569" stroke-width="1.5" fill="none"></path></g><g transform="translate(232.5 455.5) rotate(0 240 0)"><path d="M456.51 -8.55 C464.18 -5.76, 471.85 -2.97, 480 0 M456.51 -8.55 C461.82 -6.62, 467.13 -4.68, 480 0" stroke="#475569" stroke-width="1.5" fill="none"></path></g></g><mask></mask><g transform="translate(414.75 436.5) rotate(0 57.75 7)"><text x="57.75000000000001" y="9.559999999999999" font-family="Segoe UI Emoji" font-size="10px" fill="#64748b" text-anchor="middle" style="white-space: pre;" direction="ltr" dominant-baseline="alphabetic">Update step (RUNNING)</text></g><g stroke-linecap="round"><g transform="translate(232.5 487.5) rotate(0 320 0)"><path d="M0 0 C106.67 0, 533.33 0, 640 0 M0 0 C106.67 0, 533.33 0, 640 0" stroke="#475569" stroke-width="1.5" fill="none"></path></g><g transform="translate(232.5 487.5) rotate(0 320 0)"><path d="M616.51 8.55 C625.29 5.35, 634.07 2.16, 640 0 M616.51 8.55 C621.23 6.83, 625.95 5.11, 640 0" stroke="#475569" stroke-width="1.5" fill="none"></path></g><g transform="translate(232.5 487.5) rotate(0 320 0)"><path d="M616.51 -8.55 C625.29 -5.35, 634.07 -2.16, 640 0 M616.51 -8.55 C621.23 -6.83, 625.95 -5.11, 640 0" stroke="#475569" stroke-width="1.5" fill="none"></path></g></g><mask></mask><g transform="translate(505.75 468.5) rotate(0 46.75 7)"><text x="46.75000000000001" y="9.559999999999999" font-family="Segoe UI Emoji" font-size="10px" fill="#64748b" text-anchor="middle" style="white-space: pre;" direction="ltr" dominant-baseline="alphabetic">StepStarted event</text></g><g stroke-linecap="round"><g transform="translate(232.5 527.5) rotate(0 80 0)"><path d="M0 0 C26.67 0, 133.33 0, 160 0 M0 0 C26.67 0, 133.33 0, 160 0" stroke="#475569" stroke-width="1.5" fill="none"></path></g><g transform="translate(232.5 527.5) rotate(0 80 0)"><path d="M136.51 8.55 C143.29 6.08, 150.07 3.61, 160 0 M136.51 8.55 C145.6 5.24, 154.68 1.93, 160 0" stroke="#475569" stroke-width="1.5" fill="none"></path></g><g transform="translate(232.5 527.5) rotate(0 80 0)"><path d="M136.51 -8.55 C143.29 -6.08, 150.07 -3.61, 160 0 M136.51 -8.55 C145.6 -5.24, 154.68 -1.93, 160 0" stroke="#475569" stroke-width="1.5" fill="none"></path></g></g><mask></mask><g transform="translate(224.5 508.5) rotate(0 88 7)"><text x="88" y="9.559999999999999" font-family="Segoe UI Emoji" font-size="10px" fill="#64748b" text-anchor="middle" style="white-space: pre;" direction="ltr" dominant-baseline="alphabetic">Execute(stepDefinition, context)</text></g><g stroke-linecap="round"><g transform="translate(392.5 567.5) rotate(0 160 0)"><path d="M0 0 C53.33 0, 266.67 0, 320 0 M0 0 C53.33 0, 266.67 0, 320 0" stroke="#475569" stroke-width="1.5" fill="none"></path></g><g transform="translate(392.5 567.5) rotate(0 160 0)"><path d="M296.51 8.55 C304.98 5.47, 313.46 2.38, 320 0 M296.51 8.55 C305.33 5.34, 314.16 2.13, 320 0" stroke="#475569" stroke-width="1.5" fill="none"></path></g><g transform="translate(392.5 567.5) rotate(0 160 0)"><path d="M296.51 -8.55 C304.98 -5.47, 313.46 -2.38, 320 0 M296.51 -8.55 C305.33 -5.34, 314.16 -2.13, 320 0" stroke="#475569" stroke-width="1.5" fill="none"></path></g></g><mask></mask><g transform="translate(464.5 548.5) rotate(0 88 7)"><text x="88" y="9.559999999999999" font-family="Segoe UI Emoji" font-size="10px" fill="#64748b" text-anchor="middle" style="white-space: pre;" direction="ltr" dominant-baseline="alphabetic">[Form] Create FormTask (PENDING)</text></g><g stroke-linecap="round"><g transform="translate(392.5 607.5) rotate(0 80 0)"><path d="M0 0 C26.67 0, 133.33 0, 160 0 M0 0 C26.67 0, 133.33 0, 160 0" stroke="#475569" stroke-width="1.5" fill="none"></path></g><g transform="translate(392.5 607.5) rotate(0 80 0)"><path d="M136.51 8.55 C144.23 5.74, 151.95 2.93, 160 0 M136.51 8.55 C143.44 6.03, 150.37 3.5, 160 0" stroke="#475569" stroke-width="1.5" fill="none"></path></g><g transform="translate(392.5 607.5) rotate(0 80 0)"><path d="M136.51 -8.55 C144.23 -5.74, 151.95 -2.93, 160 0 M136.51 -8.55 C143.44 -6.03, 150.37 -3.5, 160 0" stroke="#475569" stroke-width="1.5" fill="none"></path></g></g><mask></mask><g transform="translate(398.25 588.5) rotate(0 74.25 7)"><text x="74.25" y="9.559999999999999" font-family="Segoe UI Emoji" font-size="10px" fill="#64748b" text-anchor="middle" style="white-space: pre;" direction="ltr" dominant-baseline="alphabetic">[Form] Enqueue notification</text></g><g stroke-linecap="round"><g transform="translate(392.5 647.5) rotate(0 -80 0)"><path d="M0 0 C-26.67 0, -133.33 0, -160 0" stroke="#475569" stroke-width="2" fill="none" stroke-dasharray="8 9.5"></path></g><g transform="translate(392.5 647.5) rotate(0 -80 0)"><path d="M-136.51 -8.55 C-142.06 -6.53, -147.61 -4.51, -160 0" stroke="#475569" stroke-width="2" fill="none"></path></g><g transform="translate(392.5 647.5) rotate(0 -80 0)"><path d="M-136.51 8.55 C-142.06 6.53, -147.61 4.51, -160 0" stroke="#475569" stroke-width="2" fill="none"></path></g></g><mask></mask><g transform="translate(219 628.5) rotate(0 93.5 7)"><text x="93.50000000000001" y="9.559999999999999" font-family="Segoe UI Emoji" font-size="10px" fill="#64748b" text-anchor="middle" style="white-space: pre;" direction="ltr" dominant-baseline="alphabetic">[Sync] StepResult(success, output)</text></g><g stroke-linecap="round"><g transform="translate(232.5 685.5) rotate(0 240 0)"><path d="M0 0 C80 0, 400 0, 480 0 M0 0 C80 0, 400 0, 480 0" stroke="#475569" stroke-width="1.5" fill="none"></path></g><g transform="translate(232.5 685.5) rotate(0 240 0)"><path d="M456.51 8.55 C461.96 6.57, 467.41 4.58, 480 0 M456.51 8.55 C462.73 6.29, 468.96 4.02, 480 0" stroke="#475569" stroke-width="1.5" fill="none"></path></g><g transform="translate(232.5 685.5) rotate(0 240 0)"><path d="M456.51 -8.55 C461.96 -6.57, 467.41 -4.58, 480 0 M456.51 -8.55 C462.73 -6.29, 468.96 -4.02, 480 0" stroke="#475569" stroke-width="1.5" fill="none"></path></g></g><mask></mask><g transform="translate(409.25 666.5) rotate(0 63.25 7)"><text x="63.25000000000001" y="9.559999999999999" font-family="Segoe UI Emoji" font-size="10px" fill="#64748b" text-anchor="middle" style="white-space: pre;" direction="ltr" dominant-baseline="alphabetic">Update step (COMPLETED)</text></g><g stroke-linecap="round"><g transform="translate(232.5 717.5) rotate(0 160 0)"><path d="M0 0 C53.33 0, 266.67 0, 320 0 M0 0 C53.33 0, 266.67 0, 320 0" stroke="#475569" stroke-width="1.5" fill="none"></path></g><g transform="translate(232.5 717.5) rotate(0 160 0)"><path d="M296.51 8.55 C301.68 6.67, 306.85 4.79, 320 0 M296.51 8.55 C301.54 6.72, 306.56 4.89, 320 0" stroke="#475569" stroke-width="1.5" fill="none"></path></g><g transform="translate(232.5 717.5) rotate(0 160 0)"><path d="M296.51 -8.55 C301.68 -6.67, 306.85 -4.79, 320 0 M296.51 -8.55 C301.54 -6.72, 306.56 -4.89, 320 0" stroke="#475569" stroke-width="1.5" fill="none"></path></g></g><mask></mask><g transform="translate(329.25 698.5) rotate(0 63.25 7)"><text x="63.25000000000001" y="9.559999999999999" font-family="Segoe UI Emoji" font-size="10px" fill="#64748b" text-anchor="middle" style="white-space: pre;" direction="ltr" dominant-baseline="alphabetic">Enqueue ExecuteNextStep</text></g><g stroke-linecap="round"><g transform="translate(232.5 775.5) rotate(0 240 0)"><path d="M0 0 C80 0, 400 0, 480 0 M0 0 C80 0, 400 0, 480 0" stroke="#475569" stroke-width="1.5" fill="none"></path></g><g transform="translate(232.5 775.5) rotate(0 240 0)"><path d="M456.51 8.55 C463.98 5.83, 471.45 3.11, 480 0 M456.51 8.55 C461.91 6.59, 467.3 4.62, 480 0" stroke="#475569" stroke-width="1.5" fill="none"></path></g><g transform="translate(232.5 775.5) rotate(0 240 0)"><path d="M456.51 -8.55 C463.98 -5.83, 471.45 -3.11, 480 0 M456.51 -8.55 C461.91 -6.59, 467.3 -4.62, 480 0" stroke="#475569" stroke-width="1.5" fill="none"></path></g></g><mask></mask><g transform="translate(395.5 756.5) rotate(0 77 7)"><text x="77" y="9.559999999999999" font-family="Segoe UI Emoji" font-size="10px" fill="#64748b" text-anchor="middle" style="white-space: pre;" direction="ltr" dominant-baseline="alphabetic">Update execution (COMPLETED)</text></g><g stroke-linecap="round"><g transform="translate(232.5 815.5) rotate(0 320 0)"><path d="M0 0 C106.67 0, 533.33 0, 640 0 M0 0 C106.67 0, 533.33 0, 640 0" stroke="#475569" stroke-width="1.5" fill="none"></path></g><g transform="translate(232.5 815.5) rotate(0 320 0)"><path d="M616.51 8.55 C623.6 5.97, 630.7 3.39, 640 0 M616.51 8.55 C623.74 5.92, 630.97 3.29, 640 0" stroke="#475569" stroke-width="1.5" fill="none"></path></g><g transform="translate(232.5 815.5) rotate(0 320 0)"><path d="M616.51 -8.55 C623.6 -5.97, 630.7 -3.39, 640 0 M616.51 -8.55 C623.74 -5.92, 630.97 -3.29, 640 0" stroke="#475569" stroke-width="1.5" fill="none"></path></g></g><mask></mask><g transform="translate(486.5 796.5) rotate(0 66 7)"><text x="66" y="9.559999999999999" font-family="Segoe UI Emoji" font-size="10px" fill="#64748b" text-anchor="middle" style="white-space: pre;" direction="ltr" dominant-baseline="alphabetic">ExecutionCompleted event</text></g><g stroke-linecap="round"><g transform="translate(872.5 855.5) rotate(0 80 0)"><path d="M0 0 C26.67 0, 133.33 0, 160 0 M0 0 C26.67 0, 133.33 0, 160 0" stroke="#475569" stroke-width="1.5" fill="none"></path></g><g transform="translate(872.5 855.5) rotate(0 80 0)"><path d="M136.51 8.55 C144.35 5.69, 152.2 2.84, 160 0 M136.51 8.55 C145.71 5.2, 154.91 1.85, 160 0" stroke="#475569" stroke-width="1.5" fill="none"></path></g><g transform="translate(872.5 855.5) rotate(0 80 0)"><path d="M136.51 -8.55 C144.35 -5.69, 152.2 -2.84, 160 0 M136.51 -8.55 C145.71 -5.2, 154.91 -1.85, 160 0" stroke="#475569" stroke-width="1.5" fill="none"></path></g></g><mask></mask><g transform="translate(903 836.5) rotate(0 49.5 7)"><text x="49.50000000000001" y="9.559999999999999" font-family="Segoe UI Emoji" font-size="10px" fill="#64748b" text-anchor="middle" style="white-space: pre;" direction="ltr" dominant-baseline="alphabetic">Push status update</text></g></svg>