<svg version="1.1" xmlns="http://www.w3.org/2000/svg" viewBox="0 0 1105 915.5" width="1105" height="915.5"><!-- svg-source:excalidraw --><metadata></metadata><defs><style class="style-fonts">
      </style></defs><rect x="0" y="0" width="1105" height="915.5" fill="#f8fafc"></rect><g transform="translate(12.5 10) rotate(0 94.87500000000001 10.5)"><text x="94.87500000000001" y="14.34" font-family="Segoe UI Emoji" font-size="15px" fill="#1e293b" text-anchor="middle" style="white-space: pre;" direction="ltr" dominant-baseline="alphabetic">Workflow Execution Flow</text></g><g stroke-linecap="round" transform="translate(10 45.5) rotate(0 62.5 21)"><path d="M6 0 C46.94 0, 87.87 0, 119 0 C123 0, 125 2, 125 6 C125 12.34, 125 18.69, 125 36 C125 40, 123 42, 119 42 C82.89 42, 46.78 42, 6 42 C2 42, 0 40, 0 36 C0 25.07, 0 14.15, 0 6 C0 2, 2 0, 6 0" stroke="none" stroke-width="0" fill="#dbeafe"></path><path d="M6 0 C33.09 0, 60.19 0, 119 0 M6 0 C42.51 0, 79.01 0, 119 0 M119 0 C123 0, 125 2, 125 6 M119 0 C123 0, 125 2, 125 6 M125 6 C125 16.37, 125 26.74, 125 36 M125 6 C125 12.09, 125 18.19, 125 36 M125 36 C125 40, 123 42, 119 42 M125 36 C125 40, 123 42, 119 42 M119 42 C80.09 42, 41.18 42, 6 42 M119 42 C95.5 42, 71.99 42, 6 42 M6 42 C2 42, 0 40, 0 36 M6 42 C2 42, 0 40, 0 36 M0 36 C0 28.96, 0 21.92, 0 6 M0 36 C0 24.47, 0 12.95, 0 6 M0 6 C0 2, 2 0, 6 0 M0 6 C0 2, 2 0, 6 0" stroke="#3b82f6" stroke-width="1.5" fill="none"></path></g><g transform="translate(52.5 51.5) rotate(0 20 7)"><text x="20" y="9.559999999999999" font-family="Segoe UI Emoji" font-size="10px" fill="#1e293b" text-anchor="middle" style="white-space: pre;" direction="ltr" dominant-baseline="alphabetic">Trigger</text></g><g transform="translate(28.5 69.5) rotate(0 44 7)"><text x="44" y="9.559999999999999" font-family="Segoe UI Emoji" font-size="10px" fill="#64748b" text-anchor="middle" style="white-space: pre;" direction="ltr" dominant-baseline="alphabetic">(Manual/Webhook)</text></g><g stroke-linecap="round"><g transform="translate(72.5 87.5) rotate(0 0 409)"><path d="M0 0 C0 136.33, 0 681.67, 0 818" stroke="#94a3b8" stroke-width="1.5" fill="none" stroke-dasharray="8 9"></path></g></g><mask></mask><g stroke-linecap="round" transform="translate(170 45.5) rotate(0 62.5 21)"><path d="M6 0 C30.22 0, 54.45 0, 119 0 C123 0, 125 2, 125 6 C125 14.64, 125 23.27, 125 36 C125 40, 123 42, 119 42 C83.17 42, 47.33 42, 6 42 C2 42, 0 40, 0 36 C0 29, 0 22, 0 6 C0 2, 2 0, 6 0" stroke="none" stroke-width="0" fill="#dbeafe"></path><path d="M6 0 C29.44 0, 52.88 0, 119 0 M6 0 C43.72 0, 81.44 0, 119 0 M119 0 C123 0, 125 2, 125 6 M119 0 C123 0, 125 2, 125 6 M125 6 C125 15.41, 125 24.83, 125 36 M125 6 C125 14.71, 125 23.42, 125 36 M125 36 C125 40, 123 42, 119 42 M125 36 C125 40, 123 42, 119 42 M119 42 C86.12 42, 53.25 42, 6 42 M119 42 C81.12 42, 43.25 42, 6 42 M6 42 C2 42, 0 40, 0 36 M6 42 C2 42, 0 40, 0 36 M0 36 C0 29.73, 0 23.46, 0 6 M0 36 C0 28.79, 0 21.58, 0 6 M0 6 C0 2, 2 0, 6 0 M0 6 C0 2, 2 0, 6 0" stroke="#3b82f6" stroke-width="1.5" fill="none"></path></g><g transform="translate(207.75 51.5) rotate(0 24.75 7)"><text x="24.750000000000004" y="9.559999999999999" font-family="Segoe UI Emoji" font-size="10px" fill="#1e293b" text-anchor="middle" style="white-space: pre;" direction="ltr" dominant-baseline="alphabetic">Execution</text></g><g transform="translate(199.5 69.5) rotate(0 33 7)"><text x="33" y="9.559999999999999" font-family="Segoe UI Emoji" font-size="10px" fill="#64748b" text-anchor="middle" style="white-space: pre;" direction="ltr" dominant-baseline="alphabetic">Orchestrator</text></g><g stroke-linecap="round"><g transform="translate(232.5 87.5) rotate(0 0 409)"><path d="M0 0 C0 136.33, 0 681.67, 0 818" stroke="#94a3b8" stroke-width="1.5" fill="none" stroke-dasharray="8 9"></path></g></g><mask></mask><g stroke-linecap="round" transform="translate(330 45.5) rotate(0 62.5 21)"><path d="M6 0 C49.34 0, 92.67 0, 119 0 C123 0, 125 2, 125 6 C125 17.49, 125 28.98, 125 36 C125 40, 123 42, 119 42 C74.24 42, 29.47 42, 6 42 C2 42, 0 40, 0 36 C0 28.41, 0 20.83, 0 6 C0 2, 2 0, 6 0" stroke="none" stroke-width="0" fill="#dbeafe"></path><path d="M6 0 C37 0, 68 0, 119 0 M6 0 C28.8 0, 51.6 0, 119 0 M119 0 C123 0, 125 2, 125 6 M119 0 C123 0, 125 2, 125 6 M125 6 C125 16.44, 125 26.89, 125 36 M125 6 C125 17.35, 125 28.69, 125 36 M125 36 C125 40, 123 42, 119 42 M125 36 C125 40, 123 42, 119 42 M119 42 C85.4 42, 51.79 42, 6 42 M119 42 C80.39 42, 41.78 42, 6 42 M6 42 C2 42, 0 40, 0 36 M6 42 C2 42, 0 40, 0 36 M0 36 C0 26.05, 0 16.1, 0 6 M0 36 C0 26.39, 0 16.78, 0 6 M0 6 C0 2, 2 0, 6 0 M0 6 C0 2, 2 0, 6 0" stroke="#3b82f6" stroke-width="1.5" fill="none"></path></g><g transform="translate(359.5 51.5) rotate(0 33 7)"><text x="33" y="9.559999999999999" font-family="Segoe UI Emoji" font-size="10px" fill="#1e293b" text-anchor="middle" style="white-space: pre;" direction="ltr" dominant-baseline="alphabetic">Step Handler</text></g><g transform="translate(365 69.5) rotate(0 27.5 7)"><text x="27.500000000000004" y="9.559999999999999" font-family="Segoe UI Emoji" font-size="10px" fill="#64748b" text-anchor="middle" style="white-space: pre;" direction="ltr" dominant-baseline="alphabetic">(per type)</text></g><g stroke-linecap="round"><g transform="translate(392.5 87.5) rotate(0 0 409)"><path d="M0 0 C0 136.33, 0 681.67, 0 818" stroke="#94a3b8" stroke-width="1.5" fill="none" stroke-dasharray="8 9"></path></g></g><mask></mask><g stroke-linecap="round" transform="translate(490 45.5) rotate(0 62.5 21)"><path d="M6 0 C33.1 0, 60.2 0, 119 0 C123 0, 125 2, 125 6 C125 12.68, 125 19.37, 125 36 C125 40, 123 42, 119 42 C94.17 42, 69.35 42, 6 42 C2 42, 0 40, 0 36 C0 29.87, 0 23.74, 0 6 C0 2, 2 0, 6 0" stroke="none" stroke-width="0" fill="#dbeafe"></path><path d="M6 0 C31.88 0, 57.76 0, 119 0 M6 0 C35.84 0, 65.68 0, 119 0 M119 0 C123 0, 125 2, 125 6 M119 0 C123 0, 125 2, 125 6 M125 6 C125 12.37, 125 18.74, 125 36 M125 6 C125 16.31, 125 26.63, 125 36 M125 36 C125 40, 123 42, 119 42 M125 36 C125 40, 123 42, 119 42 M119 42 C74.12 42, 29.24 42, 6 42 M119 42 C79.24 42, 39.48 42, 6 42 M6 42 C2 42, 0 40, 0 36 M6 42 C2 42, 0 40, 0 36 M0 36 C0 26.17, 0 16.33, 0 6 M0 36 C0 29.33, 0 22.65, 0 6 M0 6 C0 2, 2 0, 6 0 M0 6 C0 2, 2 0, 6 0" stroke="#3b82f6" stroke-width="1.5" fill="none"></path></g><g transform="translate(527.75 51.5) rotate(0 24.75 7)"><text x="24.750000000000004" y="9.559999999999999" font-family="Segoe UI Emoji" font-size="10px" fill="#1e293b" text-anchor="middle" style="white-space: pre;" direction="ltr" dominant-baseline="alphabetic">Wolverine</text></g><g transform="translate(532.5 69.5) rotate(0 20 7)"><text x="20" y="9.559999999999999" font-family="Segoe UI Emoji" font-size="10px" fill="#64748b" text-anchor="middle" style="white-space: pre;" direction="ltr" dominant-baseline="alphabetic">(Jobs)</text></g><g stroke-linecap="round"><g transform="translate(552.5 87.5) rotate(0 0 409)"><path d="M0 0 C0 136.33, 0 681.67, 0 818" stroke="#94a3b8" stroke-width="1.5" fill="none" stroke-dasharray="8 9"></path></g></g><mask></mask><g stroke-linecap="round" transform="translate(650 45.5) rotate(0 62.5 21)"><path d="M6 0 C45.8 0, 85.59 0, 119 0 C123 0, 125 2, 125 6 C125 17.23, 125 28.45, 125 36 C125 40, 123 42, 119 42 C79.54 42, 40.08 42, 6 42 C2 42, 0 40, 0 36 C0 24.45, 0 12.89, 0 6 C0 2, 2 0, 6 0" stroke="none" stroke-width="0" fill="#ffedd5"></path><path d="M6 0 C30.15 0, 54.3 0, 119 0 M6 0 C42.03 0, 78.07 0, 119 0 M119 0 C123 0, 125 2, 125 6 M119 0 C123 0, 125 2, 125 6 M125 6 C125 15.59, 125 25.18, 125 36 M125 6 C125 15.69, 125 25.38, 125 36 M125 36 C125 40, 123 42, 119 42 M125 36 C125 40, 123 42, 119 42 M119 42 C82.58 42, 46.15 42, 6 42 M119 42 C81.8 42, 44.6 42, 6 42 M6 42 C2 42, 0 40, 0 36 M6 42 C2 42, 0 40, 0 36 M0 36 C0 24.76, 0 13.52, 0 6 M0 36 C0 25.51, 0 15.03, 0 6 M0 6 C0 2, 2 0, 6 0 M0 6 C0 2, 2 0, 6 0" stroke="#ea580c" stroke-width="1.5" fill="none"></path></g><g transform="translate(685 61.5) rotate(0 27.5 7)"><text x="27.500000000000004" y="9.559999999999999" font-family="Segoe UI Emoji" font-size="10px" fill="#1e293b" text-anchor="middle" style="white-space: pre;" direction="ltr" dominant-baseline="alphabetic">PostgreSQL</text></g><g stroke-linecap="round"><g transform="translate(712.5 87.5) rotate(0 0 409)"><path d="M0 0 C0 136.33, 0 681.67, 0 818" stroke="#94a3b8" stroke-width="1.5" fill="none" stroke-dasharray="8 9"></path></g></g><mask></mask><g stroke-linecap="round" transform="translate(810 45.5) rotate(0 62.5 21)"><path d="M6 0 C42.41 0, 78.81 0, 119 0 C123 0, 125 2, 125 6 C125 12.53, 125 19.05, 125 36 C125 40, 123 42, 119 42 C78.46 42, 37.92 42, 6 42 C2 42, 0 40, 0 36 C0 29.39, 0 22.77, 0 6 C0 2, 2 0, 6 0" stroke="none" stroke-width="0" fill="#dbeafe"></path><path d="M6 0 C29.84 0, 53.68 0, 119 0 M6 0 C42.26 0, 78.53 0, 119 0 M119 0 C123 0, 125 2, 125 6 M119 0 C123 0, 125 2, 125 6 M125 6 C125 14.12, 125 22.24, 125 36 M125 6 C125 13.64, 125 21.28, 125 36 M125 36 C125 40, 123 42, 119 42 M125 36 C125 40, 123 42, 119 42 M119 42 C95.33 42, 71.65 42, 6 42 M119 42 C77.19 42, 35.39 42, 6 42 M6 42 C2 42, 0 40, 0 36 M6 42 C2 42, 0 40, 0 36 M0 36 C0 28.77, 0 21.53, 0 6 M0 36 C0 26.88, 0 17.77, 0 6 M0 6 C0 2, 2 0, 6 0 M0 6 C0 2, 2 0, 6 0" stroke="#3b82f6" stroke-width="1.5" fill="none"></path></g><g transform="translate(842.25 61.5) rotate(0 30.25 7)"><text x="30.250000000000004" y="9.559999999999999" font-family="Segoe UI Emoji" font-size="10px" fill="#1e293b" text-anchor="middle" style="white-space: pre;" direction="ltr" dominant-baseline="alphabetic">SignalR Hub</text></g><g stroke-linecap="round"><g transform="translate(872.5 87.5) rotate(0 0 409)"><path d="M0 0 C0 136.33, 0 681.67, 0 818" stroke="#94a3b8" stroke-width="1.5" fill="none" stroke-dasharray="8 9"></path></g></g><mask></mask><g stroke-linecap="round" transform="translate(970 45.5) rotate(0 62.5 21)"><path d="M6 0 C47.22 0, 88.44 0, 119 0 C123 0, 125 2, 125 6 C125 12.88, 125 19.75, 125 36 C125 40, 123 42, 119 42 C93.35 42, 67.71 42, 6 42 C2 42, 0 40, 0 36 C0 25.49, 0 14.98, 0 6 C0 2, 2 0, 6 0" stroke="none" stroke-width="0" fill="#f3e8ff"></path><path d="M6 0 C36.96 0, 67.91 0, 119 0 M6 0 C47.84 0, 89.68 0, 119 0 M119 0 C123 0, 125 2, 125 6 M119 0 C123 0, 125 2, 125 6 M125 6 C125 15.91, 125 25.83, 125 36 M125 6 C125 12.81, 125 19.62, 125 36 M125 36 C125 40, 123 42, 119 42 M125 36 C125 40, 123 42, 119 42 M119 42 C93.25 42, 67.49 42, 6 42 M119 42 C89.59 42, 60.18 42, 6 42 M6 42 C2 42, 0 40, 0 36 M6 42 C2 42, 0 40, 0 36 M0 36 C0 27, 0 17.99, 0 6 M0 36 C0 26.08, 0 16.16, 0 6 M0 6 C0 2, 2 0, 6 0 M0 6 C0 2, 2 0, 6 0" stroke="#9333ea" stroke-width="1.5" fill="none"></path></g><g transform="translate(1012.5 61.5) rotate(0 20 7)"><text x="20" y="9.559999999999999" font-family="Segoe UI Emoji" font-size="10px" fill="#1e293b" text-anchor="middle" style="white-space: pre;" direction="ltr" dominant-baseline="alphabetic">Browser</text></g><g stroke-linecap="round"><g transform="translate(1032.5 87.5) rotate(0 0 409)"><path d="M0 0 C0 136.33, 0 681.67, 0 818" stroke="#94a3b8" stroke-width="1.5" fill="none" stroke-dasharray="8 9"></path></g></g><mask></mask><g stroke-linecap="round"><g transform="translate(32.5 137.5) rotate(0 0 0)"><path d="M0 0 C0 0, 0 0, 0 0" stroke="#94a3b8" stroke-width="1.5" fill="none" stroke-dasharray="8 9"></path></g></g><mask></mask><g transform="translate(12.5 144.5) rotate(0 57.75000000000001 7)"><text x="57.75000000000001" y="9.559999999999999" font-family="Segoe UI Emoji" font-size="10px" fill="#64748b" text-anchor="middle" style="white-space: pre;" direction="ltr" dominant-baseline="alphabetic">== Execution Start ==</text></g><g stroke-linecap="round"><g transform="translate(32.5 387.5) rotate(0 0 0)"><path d="M0 0 C0 0, 0 0, 0 0" stroke="#94a3b8" stroke-width="1.5" fill="none" stroke-dasharray="8 9"></path></g></g><mask></mask><g transform="translate(12.5 394.5) rotate(0 68.75 7)"><text x="68.75" y="9.559999999999999" font-family="Segoe UI Emoji" font-size="10px" fill="#64748b" text-anchor="middle" style="white-space: pre;" direction="ltr" dominant-baseline="alphabetic">== Step Execution Loop ==</text></g><g stroke-linecap="round"><g transform="translate(32.5 747.5) rotate(0 0 0)"><path d="M0 0 C0 0, 0 0, 0 0" stroke="#94a3b8" stroke-width="1.5" fill="none" stroke-dasharray="8 9"></path></g></g><mask></mask><g transform="translate(12.5 754.5) rotate(0 66 7)"><text x="66" y="9.559999999999999" font-family="Segoe UI Emoji" font-size="10px" fill="#64748b" text-anchor="middle" style="white-space: pre;" direction="ltr" dominant-baseline="alphabetic">== Execution Complete ==</text></g><g stroke-linecap="round"><g transform="translate(72.5 165.5) rotate(0 80 0)"><path d="M0 0 C26.67 0, 133.33 0, 160 0 M0 0 C26.67 0, 133.33 0, 160 0" stroke="#475569" stroke-width="1.5" fill="none"></path></g><g transform="translate(72.5 165.5) rotate(0 80 0)"><path d="M136.51 8.55 C141.7 6.66, 146.9 4.77, 160 0 M136.51 8.55 C145.41 5.31, 154.32 2.07, 160 0" stroke="#475569" stroke-width="1.5" fill="none"></path></g><g transform="translate(72.5 165.5) rotate(0 80 0)"><path d="M136.51 -8.55 C141.7 -6.66, 146.9 -4.77, 160 0 M136.51 -8.55 C145.41 -5.31, 154.32 -2.07, 160 0" stroke="#475569" stroke-width="1.5" fill="none"></path></g></g><mask></mask><g transform="translate(67.25 146.5) rotate(0 85.25 7)"><text x="85.25" y="9.559999999999999" font-family="Segoe UI Emoji" font-size="10px" fill="#64748b" text-anchor="middle" style="white-space: pre;" direction="ltr" dominant-baseline="alphabetic">Start(workflowId, inputPayload)</text></g><g stroke-linecap="round"><g transform="translate(232.5 205.5) rotate(0 240 0)"><path d="M0 0 C80 0, 400 0, 480 0 M0 0 C80 0, 400 0, 480 0" stroke="#475569" stroke-width="1.5" fill="none"></path></g><g transform="translate(232.5 205.5) rotate(0 240 0)"><path d="M456.51 8.55 C464.03 5.81, 471.55 3.08, 480 0 M456.51 8.55 C461.95 6.57, 467.39 4.59, 480 0" stroke="#475569" stroke-width="1.5" fill="none"></path></g><g transform="translate(232.5 205.5) rotate(0 240 0)"><path d="M456.51 -8.55 C464.03 -5.81, 471.55 -3.08, 480 0 M456.51 -8.55 C461.95 -6.57, 467.39 -4.59, 480 0" stroke="#475569" stroke-width="1.5" fill="none"></path></g></g><mask></mask><g transform="translate(401 186.5) rotate(0 71.5 7)"><text x="71.5" y="9.559999999999999" font-family="Segoe UI Emoji" font-size="10px" fill="#64748b" text-anchor="middle" style="white-space: pre;" direction="ltr" dominant-baseline="alphabetic">Create Execution (PENDING)</text></g><g stroke-linecap="round"><g transform="translate(232.5 245.5) rotate(0 240 0)"><path d="M0 0 C80 0, 400 0, 480 0 M0 0 C80 0, 400 0, 480 0" stroke="#475569" stroke-width="1.5" fill="none"></path></g><g transform="translate(232.5 245.5) rotate(0 240 0)"><path d="M456.51 8.55 C464.2 5.75, 471.89 2.95, 480 0 M456.51 8.55 C463.29 6.08, 470.08 3.61, 480 0" stroke="#475569" stroke-width="1.5" fill="none"></path></g><g transform="translate(232.5 245.5) rotate(0 240 0)"><path d="M456.51 -8.55 C464.2 -5.75, 471.89 -2.95, 480 0 M456.51 -8.55 C463.29 -6.08, 470.08 -3.61, 480 0" stroke="#475569" stroke-width="1.5" fill="none"></path></g></g><mask></mask><g transform="translate(395.5 226.5) rotate(0 77 7)"><text x="77" y="9.559999999999999" font-family="Segoe UI Emoji" font-size="10px" fill="#64748b" text-anchor="middle" style="white-space: pre;" direction="ltr" dominant-baseline="alphabetic">Create StepExecution records</text></g><g stroke-linecap="round"><g transform="translate(232.5 285.5) rotate(0 160 0)"><path d="M0 0 C53.33 0, 266.67 0, 320 0 M0 0 C53.33 0, 266.67 0, 320 0" stroke="#475569" stroke-width="1.5" fill="none"></path></g><g transform="translate(232.5 285.5) rotate(0 160 0)"><path d="M296.51 8.55 C305.06 5.44, 313.6 2.33, 320 0 M296.51 8.55 C304.37 5.69, 312.23 2.83, 320 0" stroke="#475569" stroke-width="1.5" fill="none"></path></g><g transform="translate(232.5 285.5) rotate(0 160 0)"><path d="M296.51 -8.55 C305.06 -5.44, 313.6 -2.33, 320 0 M296.51 -8.55 C304.37 -5.69, 312.23 -2.83, 320 0" stroke="#475569" stroke-width="1.5" fill="none"></path></g></g><mask></mask><g transform="translate(329.25 266.5) rotate(0 63.25 7)"><text x="63.25000000000001" y="9.559999999999999" font-family="Segoe UI Emoji" font-size="10px" fill="#64748b" text-anchor="middle" style="white-space: pre;" direction="ltr" dominant-baseline="alphabetic">Enqueue ExecuteNextStep</text></g><g stroke-linecap="round"><g transform="translate(232.5 325.5) rotate(0 320 0)"><path d="M0 0 C106.67 0, 533.33 0, 640 0 M0 0 C106.67 0, 533.33 0, 640 0" stroke="#475569" stroke-width="1.5" fill="none"></path></g><g transform="translate(232.5 325.5) rotate(0 320 0)"><path d="M616.51 8.55 C623.31 6.08, 630.11 3.6, 640 0 M616.51 8.55 C622.82 6.25, 629.14 3.95, 640 0" stroke="#475569" stroke-width="1.5" fill="none"></path></g><g transform="translate(232.5 325.5) rotate(0 320 0)"><path d="M616.51 -8.55 C623.31 -6.08, 630.11 -3.6, 640 0 M616.51 -8.55 C622.82 -6.25, 629.14 -3.95, 640 0" stroke="#475569" stroke-width="1.5" fill="none"></path></g></g><mask></mask><g transform="translate(492 306.5) rotate(0 60.5 7)"><text x="60.50000000000001" y="9.559999999999999" font-family="Segoe UI Emoji" font-size="10px" fill="#64748b" text-anchor="middle" style="white-space: pre;" direction="ltr" dominant-baseline="alphabetic">ExecutionStarted event</text></g><g stroke-linecap="round"><g transform="translate(872.5 357.5) rotate(0 80 0)"><path d="M0 0 C26.67 0, 133.33 0, 160 0 M0 0 C26.67 0, 133.33 0, 160 0" stroke="#475569" stroke-width="1.5" fill="none"></path></g><g transform="translate(872.5 357.5) rotate(0 80 0)"><path d="M136.51 8.55 C141.88 6.59, 147.26 4.64, 160 0 M136.51 8.55 C143.4 6.04, 150.29 3.53, 160 0" stroke="#475569" stroke-width="1.5" fill="none"></path></g><g transform="translate(872.5 357.5) rotate(0 80 0)"><path d="M136.51 -8.55 C141.88 -6.59, 147.26 -4.64, 160 0 M136.51 -8.55 C143.4 -6.04, 150.29 -3.53, 160 0" stroke="#475569" stroke-width="1.5" fill="none"></path></g></g><mask></mask><g transform="translate(903 338.5) rotate(0 49.5 7)"><text x="49.50000000000001" y="9.559999999999999" font-family="Segoe UI Emoji" font-size="10px" fill="#64748b" text-anchor="middle" style="white-space: pre;" direction="ltr" dominant-baseline="alphabetic">Push status update</text></g><g stroke-linecap="round"><g transform="translate(552.5 415.5) rotate(0 -160 0)"><path d="M0 0 C-53.33 0, -266.67 0, -320 0 M0 0 C-53.33 0, -266.67 0, -320 0" stroke="#475569" stroke-width="1.5" fill="none"></path></g><g transform="translate(552.5 415.5) rotate(0 -160 0)"><path d="M-296.51 -8.55 C-303.81 -5.89, -311.12 -3.23, -320 0 M-296.51 -8.55 C-301.94 -6.57, -307.38 -4.59, -320 0" stroke="#475569" stroke-width="1.5" fill="none"></path></g><g transform="translate(552.5 415.5) rotate(0 -160 0)"><path d="M-296.51 8.55 C-303.81 5.89, -311.12 3.23, -320 0 M-296.51 8.55 C-301.94 6.57, -307.38 4.59, -320 0" stroke="#475569" stroke-width="1.5" fill="none"></path></g></g><mask></mask><g transform="translate(315.5 396.5) rotate(0 77 7)"><text x="77" y="9.559999999999999" font-family="Segoe UI Emoji" font-size="10px" fill="#64748b" text-anchor="middle" style="white-space: pre;" direction="ltr" dominant-baseline="alphabetic">ExecuteNextStep(executionId)</text></g><g stroke-linecap="round"><g transform="translate(232.5 455.5) rotate(0 240 0)"><path d="M0 0 C80 0, 400 0, 480 0 M0 0 C80 0, 400 0, 480 0" stroke="#475569" stroke-width="1.5" fill="none"></path></g><g transform="translate(232.5 455.5) rotate(0 240 0)"><path d="M456.51 8.55 C465.63 5.23, 474.75 1.91, 480 0 M456.51 8.55 C462.82 6.25, 469.14 3.95, 480 0" stroke="#475569" stroke-width="1.5" fill="none"></path></g><g transform="translate(232.5 455.5) rotate(0 240 0)"><path d="M456.51 -8.55 C465.63 -5.23, 474.75 -1.91, 480 0 M456.51 -8.55 C462.82 -6.25, 469.14 -3.95, 480 0" stroke="#475569" stroke-width="1.5" fill="none"></path></g></g><mask></mask><g transform="translate(414.75 436.5) rotate(0 57.75 7)"><text x="57.75000000000001" y="9.559999999999999" font-family="Segoe UI Emoji" font-size="10px" fill="#64748b" text-anchor="middle" style="white-space: pre;" direction="ltr" dominant-baseline="alphabetic">Update step (RUNNING)</text></g><g stroke-linecap="round"><g transform="translate(232.5 487.5) rotate(0 320 0)"><path d="M0 0 C106.67 0, 533.33 0, 640 0 M0 0 C106.67 0, 533.33 0, 640 0" stroke="#475569" stroke-width="1.5" fill="none"></path></g><g transform="translate(232.5 487.5) rotate(0 320 0)"><path d="M616.51 8.55 C623.01 6.19, 629.5 3.82, 640 0 M616.51 8.55 C622.04 6.54, 627.57 4.52, 640 0" stroke="#475569" stroke-width="1.5" fill="none"></path></g><g transform="translate(232.5 487.5) rotate(0 320 0)"><path d="M616.51 -8.55 C623.01 -6.19, 629.5 -3.82, 640 0 M616.51 -8.55 C622.04 -6.54, 627.57 -4.52, 640 0" stroke="#475569" stroke-width="1.5" fill="none"></path></g></g><mask></mask><g transform="translate(505.75 468.5) rotate(0 46.75 7)"><text x="46.75000000000001" y="9.559999999999999" font-family="Segoe UI Emoji" font-size="10px" fill="#64748b" text-anchor="middle" style="white-space: pre;" direction="ltr" dominant-baseline="alphabetic">StepStarted event</text></g><g stroke-linecap="round"><g transform="translate(232.5 527.5) rotate(0 80 0)"><path d="M0 0 C26.67 0, 133.33 0, 160 0 M0 0 C26.67 0, 133.33 0, 160 0" stroke="#475569" stroke-width="1.5" fill="none"></path></g><g transform="translate(232.5 527.5) rotate(0 80 0)"><path d="M136.51 8.55 C144.48 5.65, 152.46 2.74, 160 0 M136.51 8.55 C142.64 6.32, 148.77 4.09, 160 0" stroke="#475569" stroke-width="1.5" fill="none"></path></g><g transform="translate(232.5 527.5) rotate(0 80 0)"><path d="M136.51 -8.55 C144.48 -5.65, 152.46 -2.74, 160 0 M136.51 -8.55 C142.64 -6.32, 148.77 -4.09, 160 0" stroke="#475569" stroke-width="1.5" fill="none"></path></g></g><mask></mask><g transform="translate(224.5 508.5) rotate(0 88 7)"><text x="88" y="9.559999999999999" font-family="Segoe UI Emoji" font-size="10px" fill="#64748b" text-anchor="middle" style="white-space: pre;" direction="ltr" dominant-baseline="alphabetic">Execute(stepDefinition, context)</text></g><g stroke-linecap="round"><g transform="translate(392.5 567.5) rotate(0 160 0)"><path d="M0 0 C53.33 0, 266.67 0, 320 0 M0 0 C53.33 0, 266.67 0, 320 0" stroke="#475569" stroke-width="1.5" fill="none"></path></g><g transform="translate(392.5 567.5) rotate(0 160 0)"><path d="M296.51 8.55 C302.24 6.47, 307.96 4.38, 320 0 M296.51 8.55 C303.59 5.97, 310.67 3.39, 320 0" stroke="#475569" stroke-width="1.5" fill="none"></path></g><g transform="translate(392.5 567.5) rotate(0 160 0)"><path d="M296.51 -8.55 C302.24 -6.47, 307.96 -4.38, 320 0 M296.51 -8.55 C303.59 -5.97, 310.67 -3.39, 320 0" stroke="#475569" stroke-width="1.5" fill="none"></path></g></g><mask></mask><g transform="translate(464.5 548.5) rotate(0 88 7)"><text x="88" y="9.559999999999999" font-family="Segoe UI Emoji" font-size="10px" fill="#64748b" text-anchor="middle" style="white-space: pre;" direction="ltr" dominant-baseline="alphabetic">[Form] Create FormTask (PENDING)</text></g><g stroke-linecap="round"><g transform="translate(392.5 607.5) rotate(0 80 0)"><path d="M0 0 C26.67 0, 133.33 0, 160 0 M0 0 C26.67 0, 133.33 0, 160 0" stroke="#475569" stroke-width="1.5" fill="none"></path></g><g transform="translate(392.5 607.5) rotate(0 80 0)"><path d="M136.51 8.55 C143.33 6.07, 150.16 3.58, 160 0 M136.51 8.55 C144.67 5.58, 152.84 2.61, 160 0" stroke="#475569" stroke-width="1.5" fill="none"></path></g><g transform="translate(392.5 607.5) rotate(0 80 0)"><path d="M136.51 -8.55 C143.33 -6.07, 150.16 -3.58, 160 0 M136.51 -8.55 C144.67 -5.58, 152.84 -2.61, 160 0" stroke="#475569" stroke-width="1.5" fill="none"></path></g></g><mask></mask><g transform="translate(398.25 588.5) rotate(0 74.25 7)"><text x="74.25" y="9.559999999999999" font-family="Segoe UI Emoji" font-size="10px" fill="#64748b" text-anchor="middle" style="white-space: pre;" direction="ltr" dominant-baseline="alphabetic">[Form] Enqueue notification</text></g><g stroke-linecap="round"><g transform="translate(392.5 647.5) rotate(0 -80 0)"><path d="M0 0 C-26.67 0, -133.33 0, -160 0" stroke="#475569" stroke-width="2" fill="none" stroke-dasharray="8 9.5"></path></g><g transform="translate(392.5 647.5) rotate(0 -80 0)"><path d="M-136.51 -8.55 C-141.89 -6.59, -147.27 -4.63, -160 0" stroke="#475569" stroke-width="2" fill="none"></path></g><g transform="translate(392.5 647.5) rotate(0 -80 0)"><path d="M-136.51 8.55 C-141.89 6.59, -147.27 4.63, -160 0" stroke="#475569" stroke-width="2" fill="none"></path></g></g><mask></mask><g transform="translate(219 628.5) rotate(0 93.5 7)"><text x="93.50000000000001" y="9.559999999999999" font-family="Segoe UI Emoji" font-size="10px" fill="#64748b" text-anchor="middle" style="white-space: pre;" direction="ltr" dominant-baseline="alphabetic">[Sync] StepResult(success, output)</text></g><g stroke-linecap="round"><g transform="translate(232.5 685.5) rotate(0 240 0)"><path d="M0 0 C80 0, 400 0, 480 0 M0 0 C80 0, 400 0, 480 0" stroke="#475569" stroke-width="1.5" fill="none"></path></g><g transform="translate(232.5 685.5) rotate(0 240 0)"><path d="M456.51 8.55 C464.89 5.5, 473.28 2.45, 480 0 M456.51 8.55 C464.52 5.64, 472.53 2.72, 480 0" stroke="#475569" stroke-width="1.5" fill="none"></path></g><g transform="translate(232.5 685.5) rotate(0 240 0)"><path d="M456.51 -8.55 C464.89 -5.5, 473.28 -2.45, 480 0 M456.51 -8.55 C464.52 -5.64, 472.53 -2.72, 480 0" stroke="#475569" stroke-width="1.5" fill="none"></path></g></g><mask></mask><g transform="translate(409.25 666.5) rotate(0 63.25 7)"><text x="63.25000000000001" y="9.559999999999999" font-family="Segoe UI Emoji" font-size="10px" fill="#64748b" text-anchor="middle" style="white-space: pre;" direction="ltr" dominant-baseline="alphabetic">Update step (COMPLETED)</text></g><g stroke-linecap="round"><g transform="translate(232.5 717.5) rotate(0 160 0)"><path d="M0 0 C53.33 0, 266.67 0, 320 0 M0 0 C53.33 0, 266.67 0, 320 0" stroke="#475569" stroke-width="1.5" fill="none"></path></g><g transform="translate(232.5 717.5) rotate(0 160 0)"><path d="M296.51 8.55 C301.47 6.74, 306.44 4.94, 320 0 M296.51 8.55 C304.34 5.7, 312.17 2.85, 320 0" stroke="#475569" stroke-width="1.5" fill="none"></path></g><g transform="translate(232.5 717.5) rotate(0 160 0)"><path d="M296.51 -8.55 C301.47 -6.74, 306.44 -4.94, 320 0 M296.51 -8.55 C304.34 -5.7, 312.17 -2.85, 320 0" stroke="#475569" stroke-width="1.5" fill="none"></path></g></g><mask></mask><g transform="translate(329.25 698.5) rotate(0 63.25 7)"><text x="63.25000000000001" y="9.559999999999999" font-family="Segoe UI Emoji" font-size="10px" fill="#64748b" text-anchor="middle" style="white-space: pre;" direction="ltr" dominant-baseline="alphabetic">Enqueue ExecuteNextStep</text></g><g stroke-linecap="round"><g transform="translate(232.5 775.5) rotate(0 240 0)"><path d="M0 0 C80 0, 400 0, 480 0 M0 0 C80 0, 400 0, 480 0" stroke="#475569" stroke-width="1.5" fill="none"></path></g><g transform="translate(232.5 775.5) rotate(0 240 0)"><path d="M456.51 8.55 C462.67 6.31, 468.84 4.06, 480 0 M456.51 8.55 C461.63 6.69, 466.76 4.82, 480 0" stroke="#475569" stroke-width="1.5" fill="none"></path></g><g transform="translate(232.5 775.5) rotate(0 240 0)"><path d="M456.51 -8.55 C462.67 -6.31, 468.84 -4.06, 480 0 M456.51 -8.55 C461.63 -6.69, 466.76 -4.82, 480 0" stroke="#475569" stroke-width="1.5" fill="none"></path></g></g><mask></mask><g transform="translate(395.5 756.5) rotate(0 77 7)"><text x="77" y="9.559999999999999" font-family="Segoe UI Emoji" font-size="10px" fill="#64748b" text-anchor="middle" style="white-space: pre;" direction="ltr" dominant-baseline="alphabetic">Update execution (COMPLETED)</text></g><g stroke-linecap="round"><g transform="translate(232.5 815.5) rotate(0 320 0)"><path d="M0 0 C106.67 0, 533.33 0, 640 0 M0 0 C106.67 0, 533.33 0, 640 0" stroke="#475569" stroke-width="1.5" fill="none"></path></g><g transform="translate(232.5 815.5) rotate(0 320 0)"><path d="M616.51 8.55 C621.97 6.56, 627.44 4.57, 640 0 M616.51 8.55 C621.32 6.8, 626.13 5.05, 640 0" stroke="#475569" stroke-width="1.5" fill="none"></path></g><g transform="translate(232.5 815.5) rotate(0 320 0)"><path d="M616.51 -8.55 C621.97 -6.56, 627.44 -4.57, 640 0 M616.51 -8.55 C621.32 -6.8, 626.13 -5.05, 640 0" stroke="#475569" stroke-width="1.5" fill="none"></path></g></g><mask></mask><g transform="translate(486.5 796.5) rotate(0 66 7)"><text x="66" y="9.559999999999999" font-family="Segoe UI Emoji" font-size="10px" fill="#64748b" text-anchor="middle" style="white-space: pre;" direction="ltr" dominant-baseline="alphabetic">ExecutionCompleted event</text></g><g stroke-linecap="round"><g transform="translate(872.5 855.5) rotate(0 80 0)"><path d="M0 0 C26.67 0, 133.33 0, 160 0 M0 0 C26.67 0, 133.33 0, 160 0" stroke="#475569" stroke-width="1.5" fill="none"></path></g><g transform="translate(872.5 855.5) rotate(0 80 0)"><path d="M136.51 8.55 C142.3 6.44, 148.09 4.34, 160 0 M136.51 8.55 C142.83 6.25, 149.15 3.95, 160 0" stroke="#475569" stroke-width="1.5" fill="none"></path></g><g transform="translate(872.5 855.5) rotate(0 80 0)"><path d="M136.51 -8.55 C142.3 -6.44, 148.09 -4.34, 160 0 M136.51 -8.55 C142.83 -6.25, 149.15 -3.95, 160 0" stroke="#475569" stroke-width="1.5" fill="none"></path></g></g><mask></mask><g transform="translate(903 836.5) rotate(0 49.5 7)"><text x="49.50000000000001" y="9.559999999999999" font-family="Segoe UI Emoji" font-size="10px" fill="#64748b" text-anchor="middle" style="white-space: pre;" direction="ltr" dominant-baseline="alphabetic">Push status update</text></g></svg>