<svg version="1.1" xmlns="http://www.w3.org/2000/svg" viewBox="0 0 710 850" width="710" height="850"><!-- svg-source:excalidraw --><metadata></metadata><defs><style class="style-fonts">
      </style></defs><rect x="0" y="0" width="710" height="850" fill="#f8fafc"></rect><g transform="translate(314 10) rotate(0 176 11.2)"><text x="176" y="15.296" font-family="Segoe UI Emoji" font-size="16px" fill="#1e293b" text-anchor="middle" style="white-space: pre;" direction="ltr" dominant-baseline="alphabetic">Form Builder — Core Entity Relationships</text></g><g stroke-linecap="round" transform="translate(10 58) rotate(0 95 69)"><path d="M4 0 C58.39 0, 112.77 0, 186 0 C188.67 0, 190 1.33, 190 4 C190 54.91, 190 105.82, 190 134 C190 136.67, 188.67 138, 186 138 C118.59 138, 51.19 138, 4 138 C1.33 138, 0 136.67, 0 134 C0 92.04, 0 50.08, 0 4 C0 1.33, 1.33 0, 4 0" stroke="none" stroke-width="0" fill="#ffffff"></path><path d="M4 0 C57.34 0, 110.67 0, 186 0 M4 0 C66.61 0, 129.21 0, 186 0 M186 0 C188.67 0, 190 1.33, 190 4 M186 0 C188.67 0, 190 1.33, 190 4 M190 4 C190 44.98, 190 85.96, 190 134 M190 4 C190 42.42, 190 80.85, 190 134 M190 134 C190 136.67, 188.67 138, 186 138 M190 134 C190 136.67, 188.67 138, 186 138 M186 138 C143.06 138, 100.12 138, 4 138 M186 138 C132.01 138, 78.02 138, 4 138 M4 138 C1.33 138, 0 136.67, 0 134 M4 138 C1.33 138, 0 136.67, 0 134 M0 134 C0 102.84, 0 71.68, 0 4 M0 134 C0 94.81, 0 55.62, 0 4 M0 4 C0 1.33, 1.33 0, 4 0 M0 4 C0 1.33, 1.33 0, 4 0" stroke="#ea580c" stroke-width="1.5" fill="none"></path></g><g stroke-linecap="round" transform="translate(10 58) rotate(0 95 14)"><path d="M4 0 C74.65 0, 145.31 0, 186 0 C188.67 0, 190 1.33, 190 4 C190 8.65, 190 13.31, 190 24 C190 26.67, 188.67 28, 186 28 C125.01 28, 64.03 28, 4 28 C1.33 28, 0 26.67, 0 24 C0 17.42, 0 10.84, 0 4 C0 1.33, 1.33 0, 4 0" stroke="none" stroke-width="0" fill="#ffedd5"></path><path d="M4 0 C45.22 0, 86.43 0, 186 0 M4 0 C67.58 0, 131.17 0, 186 0 M186 0 C188.67 0, 190 1.33, 190 4 M186 0 C188.67 0, 190 1.33, 190 4 M190 4 C190 10.43, 190 16.85, 190 24 M190 4 C190 8.57, 190 13.14, 190 24 M190 24 C190 26.67, 188.67 28, 186 28 M190 24 C190 26.67, 188.67 28, 186 28 M186 28 C124.46 28, 62.92 28, 4 28 M186 28 C119.75 28, 53.5 28, 4 28 M4 28 C1.33 28, 0 26.67, 0 24 M4 28 C1.33 28, 0 26.67, 0 24 M0 24 C0 16.15, 0 8.31, 0 4 M0 24 C0 17.71, 0 11.42, 0 4 M0 4 C0 1.33, 1.33 0, 4 0 M0 4 C0 1.33, 1.33 0, 4 0" stroke="#ffedd5" stroke-width="1" fill="none"></path></g><g stroke-linecap="round"><g transform="translate(10 86) rotate(0 95 0)"><path d="M0 0 C31.67 0, 158.33 0, 190 0 M0 0 C31.67 0, 158.33 0, 190 0" stroke="#ea580c" stroke-width="1" fill="none"></path></g></g><mask></mask><g transform="translate(62.650000000000006 66.5) rotate(0 42.35000000000001 7.700000000000003)"><text x="42.35" y="10.515999999999998" font-family="Segoe UI Emoji" font-size="11px" fill="#1e293b" text-anchor="middle" style="white-space: pre;" direction="ltr" dominant-baseline="alphabetic">FormDefinition</text></g><g transform="translate(17 93.75) rotate(0 23.512500000000003 6.649999999999999)"><text x="23.512500000000003" y="9.081999999999999" font-family="Segoe UI Emoji" font-size="9.5px" fill="#1e293b" text-anchor="middle" style="white-space: pre;" direction="ltr" dominant-baseline="alphabetic">+id: UUID</text></g><g transform="translate(17 110.75) rotate(0 33.962500000000006 6.649999999999999)"><text x="33.962500000000006" y="9.081999999999999" font-family="Segoe UI Emoji" font-size="9.5px" fill="#1e293b" text-anchor="middle" style="white-space: pre;" direction="ltr" dominant-baseline="alphabetic">+name: string</text></g><g transform="translate(17 127.75) rotate(0 52.25 6.650000000000006)"><text x="52.25000000000001" y="9.081999999999999" font-family="Segoe UI Emoji" font-size="9.5px" fill="#1e293b" text-anchor="middle" style="white-space: pre;" direction="ltr" dominant-baseline="alphabetic">+description: string</text></g><g transform="translate(17 144.75) rotate(0 54.86250000000001 6.650000000000006)"><text x="54.862500000000004" y="9.081999999999999" font-family="Segoe UI Emoji" font-size="9.5px" fill="#1e293b" text-anchor="middle" style="white-space: pre;" direction="ltr" dominant-baseline="alphabetic">+organizationId: UUID</text></g><g transform="translate(17 161.75) rotate(0 52.25 6.650000000000006)"><text x="52.25000000000001" y="9.081999999999999" font-family="Segoe UI Emoji" font-size="9.5px" fill="#1e293b" text-anchor="middle" style="white-space: pre;" direction="ltr" dominant-baseline="alphabetic">+createdAt: DateTime</text></g><g transform="translate(17 178.75) rotate(0 52.25 6.650000000000006)"><text x="52.25000000000001" y="9.081999999999999" font-family="Segoe UI Emoji" font-size="9.5px" fill="#1e293b" text-anchor="middle" style="white-space: pre;" direction="ltr" dominant-baseline="alphabetic">+updatedAt: DateTime</text></g><g stroke-linecap="round" transform="translate(260 58) rotate(0 95 60.5)"><path d="M4 0 C62.49 0, 120.97 0, 186 0 C188.67 0, 190 1.33, 190 4 C190 40.9, 190 77.8, 190 117 C190 119.67, 188.67 121, 186 121 C115 121, 44.01 121, 4 121 C1.33 121, 0 119.67, 0 117 C0 92.6, 0 68.19, 0 4 C0 1.33, 1.33 0, 4 0" stroke="none" stroke-width="0" fill="#ffffff"></path><path d="M4 0 C68.27 0, 132.53 0, 186 0 M4 0 C58.28 0, 112.57 0, 186 0 M186 0 C188.67 0, 190 1.33, 190 4 M186 0 C188.67 0, 190 1.33, 190 4 M190 4 C190 43.96, 190 83.93, 190 117 M190 4 C190 47.73, 190 91.46, 190 117 M190 117 C190 119.67, 188.67 121, 186 121 M190 117 C190 119.67, 188.67 121, 186 121 M186 121 C144.87 121, 103.73 121, 4 121 M186 121 C142.41 121, 98.82 121, 4 121 M4 121 C1.33 121, 0 119.67, 0 117 M4 121 C1.33 121, 0 119.67, 0 117 M0 117 C0 93.1, 0 69.21, 0 4 M0 117 C0 83.09, 0 49.19, 0 4 M0 4 C0 1.33, 1.33 0, 4 0 M0 4 C0 1.33, 1.33 0, 4 0" stroke="#3b82f6" stroke-width="1.5" fill="none"></path></g><g stroke-linecap="round" transform="translate(260 58) rotate(0 95 14)"><path d="M4 0 C66.76 0, 129.52 0, 186 0 C188.67 0, 190 1.33, 190 4 C190 8.7, 190 13.4, 190 24 C190 26.67, 188.67 28, 186 28 C143.78 28, 101.56 28, 4 28 C1.33 28, 0 26.67, 0 24 C0 18.8, 0 13.6, 0 4 C0 1.33, 1.33 0, 4 0" stroke="none" stroke-width="0" fill="#dbeafe"></path><path d="M4 0 C51.75 0, 99.49 0, 186 0 M4 0 C42.26 0, 80.53 0, 186 0 M186 0 C188.67 0, 190 1.33, 190 4 M186 0 C188.67 0, 190 1.33, 190 4 M190 4 C190 10.44, 190 16.88, 190 24 M190 4 C190 9.83, 190 15.66, 190 24 M190 24 C190 26.67, 188.67 28, 186 28 M190 24 C190 26.67, 188.67 28, 186 28 M186 28 C123.05 28, 60.09 28, 4 28 M186 28 C113.87 28, 41.73 28, 4 28 M4 28 C1.33 28, 0 26.67, 0 24 M4 28 C1.33 28, 0 26.67, 0 24 M0 24 C0 18.57, 0 13.14, 0 4 M0 24 C0 17.07, 0 10.15, 0 4 M0 4 C0 1.33, 1.33 0, 4 0 M0 4 C0 1.33, 1.33 0, 4 0" stroke="#dbeafe" stroke-width="1" fill="none"></path></g><g stroke-linecap="round"><g transform="translate(260 86) rotate(0 95 0)"><path d="M0 0 C31.67 0, 158.33 0, 190 0 M0 0 C31.67 0, 158.33 0, 190 0" stroke="#3b82f6" stroke-width="1" fill="none"></path></g></g><mask></mask><g transform="translate(321.725 66.5) rotate(0 33.275000000000006 7.700000000000003)"><text x="33.275000000000006" y="10.515999999999998" font-family="Segoe UI Emoji" font-size="11px" fill="#1e293b" text-anchor="middle" style="white-space: pre;" direction="ltr" dominant-baseline="alphabetic">FormSection</text></g><g transform="translate(267 93.75) rotate(0 23.51249999999999 6.649999999999999)"><text x="23.512500000000003" y="9.081999999999999" font-family="Segoe UI Emoji" font-size="9.5px" fill="#1e293b" text-anchor="middle" style="white-space: pre;" direction="ltr" dominant-baseline="alphabetic">+id: UUID</text></g><g transform="translate(267 110.75) rotate(0 33.962500000000006 6.649999999999999)"><text x="33.962500000000006" y="9.081999999999999" font-family="Segoe UI Emoji" font-size="9.5px" fill="#1e293b" text-anchor="middle" style="white-space: pre;" direction="ltr" dominant-baseline="alphabetic">+formId: UUID</text></g><g transform="translate(267 127.75) rotate(0 36.57499999999999 6.650000000000006)"><text x="36.575" y="9.081999999999999" font-family="Segoe UI Emoji" font-size="9.5px" fill="#1e293b" text-anchor="middle" style="white-space: pre;" direction="ltr" dominant-baseline="alphabetic">+title: string</text></g><g transform="translate(267 144.75) rotate(0 52.25 6.650000000000006)"><text x="52.25000000000001" y="9.081999999999999" font-family="Segoe UI Emoji" font-size="9.5px" fill="#1e293b" text-anchor="middle" style="white-space: pre;" direction="ltr" dominant-baseline="alphabetic">+description: string</text></g><g transform="translate(267 161.75) rotate(0 47.025000000000006 6.650000000000006)"><text x="47.025000000000006" y="9.081999999999999" font-family="Segoe UI Emoji" font-size="9.5px" fill="#1e293b" text-anchor="middle" style="white-space: pre;" direction="ltr" dominant-baseline="alphabetic">+displayOrder: int</text></g><g stroke-linecap="round" transform="translate(510 58) rotate(0 95 98.5)"><path d="M4 0 C72.68 0, 141.36 0, 186 0 C188.67 0, 190 1.33, 190 4 C190 62.67, 190 121.34, 190 193 C190 195.67, 188.67 197, 186 197 C129.33 197, 72.65 197, 4 197 C1.33 197, 0 195.67, 0 193 C0 154.64, 0 116.29, 0 4 C0 1.33, 1.33 0, 4 0" stroke="none" stroke-width="0" fill="#ffffff"></path><path d="M4 0 C70.59 0, 137.17 0, 186 0 M4 0 C40.53 0, 77.07 0, 186 0 M186 0 C188.67 0, 190 1.33, 190 4 M186 0 C188.67 0, 190 1.33, 190 4 M190 4 C190 74.44, 190 144.88, 190 193 M190 4 C190 57.28, 190 110.57, 190 193 M190 193 C190 195.67, 188.67 197, 186 197 M190 193 C190 195.67, 188.67 197, 186 197 M186 197 C139.14 197, 92.28 197, 4 197 M186 197 C133.2 197, 80.39 197, 4 197 M4 197 C1.33 197, 0 195.67, 0 193 M4 197 C1.33 197, 0 195.67, 0 193 M0 193 C0 133.3, 0 73.59, 0 4 M0 193 C0 128.49, 0 63.99, 0 4 M0 4 C0 1.33, 1.33 0, 4 0 M0 4 C0 1.33, 1.33 0, 4 0" stroke="#7c3aed" stroke-width="1.5" fill="none"></path></g><g stroke-linecap="round" transform="translate(510 58) rotate(0 95 18)"><path d="M4 0 C54.23 0, 104.45 0, 186 0 C188.67 0, 190 1.33, 190 4 C190 14.38, 190 24.75, 190 32 C190 34.67, 188.67 36, 186 36 C133.31 36, 80.62 36, 4 36 C1.33 36, 0 34.67, 0 32 C0 23.48, 0 14.96, 0 4 C0 1.33, 1.33 0, 4 0" stroke="none" stroke-width="0" fill="#ede9fe"></path><path d="M4 0 C71.2 0, 138.4 0, 186 0 M4 0 C51.91 0, 99.81 0, 186 0 M186 0 C188.67 0, 190 1.33, 190 4 M186 0 C188.67 0, 190 1.33, 190 4 M190 4 C190 10.7, 190 17.4, 190 32 M190 4 C190 14.58, 190 25.16, 190 32 M190 32 C190 34.67, 188.67 36, 186 36 M190 32 C190 34.67, 188.67 36, 186 36 M186 36 C120.66 36, 55.31 36, 4 36 M186 36 C126.9 36, 67.81 36, 4 36 M4 36 C1.33 36, 0 34.67, 0 32 M4 36 C1.33 36, 0 34.67, 0 32 M0 32 C0 21.83, 0 11.66, 0 4 M0 32 C0 22.13, 0 12.25, 0 4 M0 4 C0 1.33, 1.33 0, 4 0 M0 4 C0 1.33, 1.33 0, 4 0" stroke="#ede9fe" stroke-width="1" fill="none"></path></g><g stroke-linecap="round"><g transform="translate(510 94) rotate(0 95 0)"><path d="M0 0 C31.67 0, 158.33 0, 190 0 M0 0 C31.67 0, 158.33 0, 190 0" stroke="#7c3aed" stroke-width="1" fill="none"></path></g></g><mask></mask><g transform="translate(585 64.75) rotate(0 20 5.950000000000003)"><text x="20" y="8.126" font-family="Segoe UI Emoji" font-size="8.5px" fill="#64748b" text-anchor="middle" style="white-space: pre;" direction="ltr" dominant-baseline="alphabetic">«enum»</text></g><g transform="translate(565.675 78.5) rotate(0 39.32499999999999 7.700000000000003)"><text x="39.325" y="10.515999999999998" font-family="Segoe UI Emoji" font-size="11px" fill="#1e293b" text-anchor="middle" style="white-space: pre;" direction="ltr" dominant-baseline="alphabetic">FormFieldType</text></g><g transform="translate(517 101.75) rotate(0 20 6.649999999999999)"><text x="20" y="9.081999999999999" font-family="Segoe UI Emoji" font-size="9.5px" fill="#1e293b" text-anchor="middle" style="white-space: pre;" direction="ltr" dominant-baseline="alphabetic">Text</text></g><g transform="translate(517 118.75) rotate(0 20 6.650000000000006)"><text x="20" y="9.081999999999999" font-family="Segoe UI Emoji" font-size="9.5px" fill="#1e293b" text-anchor="middle" style="white-space: pre;" direction="ltr" dominant-baseline="alphabetic">Number</text></g><g transform="translate(517 135.75) rotate(0 20 6.650000000000006)"><text x="20" y="9.081999999999999" font-family="Segoe UI Emoji" font-size="9.5px" fill="#1e293b" text-anchor="middle" style="white-space: pre;" direction="ltr" dominant-baseline="alphabetic">Boolean</text></g><g transform="translate(517 152.75) rotate(0 20 6.650000000000006)"><text x="20" y="9.081999999999999" font-family="Segoe UI Emoji" font-size="9.5px" fill="#1e293b" text-anchor="middle" style="white-space: pre;" direction="ltr" dominant-baseline="alphabetic">Date</text></g><g transform="translate(517 169.75) rotate(0 20.899999999999977 6.650000000000006)"><text x="20.900000000000002" y="9.081999999999999" font-family="Segoe UI Emoji" font-size="9.5px" fill="#1e293b" text-anchor="middle" style="white-space: pre;" direction="ltr" dominant-baseline="alphabetic">Dropdown</text></g><g transform="translate(517 186.75) rotate(0 28.73750000000001 6.650000000000006)"><text x="28.7375" y="9.081999999999999" font-family="Segoe UI Emoji" font-size="9.5px" fill="#1e293b" text-anchor="middle" style="white-space: pre;" direction="ltr" dominant-baseline="alphabetic">MultiSelect</text></g><g transform="translate(517 203.75) rotate(0 20.899999999999977 6.650000000000006)"><text x="20.900000000000002" y="9.081999999999999" font-family="Segoe UI Emoji" font-size="9.5px" fill="#1e293b" text-anchor="middle" style="white-space: pre;" direction="ltr" dominant-baseline="alphabetic">Checkbox</text></g><g transform="translate(517 220.75) rotate(0 26.125 6.650000000000006)"><text x="26.125000000000004" y="9.081999999999999" font-family="Segoe UI Emoji" font-size="9.5px" fill="#1e293b" text-anchor="middle" style="white-space: pre;" direction="ltr" dominant-baseline="alphabetic">FileUpload</text></g><g transform="translate(517 237.75) rotate(0 36.57499999999999 6.650000000000006)"><text x="36.575" y="9.081999999999999" font-family="Segoe UI Emoji" font-size="9.5px" fill="#1e293b" text-anchor="middle" style="white-space: pre;" direction="ltr" dominant-baseline="alphabetic">RelationPicker</text></g><g stroke-linecap="round" transform="translate(260 298) rotate(0 95 86)"><path d="M4 0 C56.9 0, 109.8 0, 186 0 C188.67 0, 190 1.33, 190 4 C190 63.27, 190 122.54, 190 168 C190 170.67, 188.67 172, 186 172 C134.23 172, 82.45 172, 4 172 C1.33 172, 0 170.67, 0 168 C0 103.53, 0 39.05, 0 4 C0 1.33, 1.33 0, 4 0" stroke="none" stroke-width="0" fill="#ffffff"></path><path d="M4 0 C55.66 0, 107.32 0, 186 0 M4 0 C42.71 0, 81.41 0, 186 0 M186 0 C188.67 0, 190 1.33, 190 4 M186 0 C188.67 0, 190 1.33, 190 4 M190 4 C190 36.88, 190 69.77, 190 168 M190 4 C190 69, 190 134.01, 190 168 M190 168 C190 170.67, 188.67 172, 186 172 M190 168 C190 170.67, 188.67 172, 186 172 M186 172 C135.77 172, 85.53 172, 4 172 M186 172 C143.53 172, 101.06 172, 4 172 M4 172 C1.33 172, 0 170.67, 0 168 M4 172 C1.33 172, 0 170.67, 0 168 M0 168 C0 117.66, 0 67.32, 0 4 M0 168 C0 119.71, 0 71.42, 0 4 M0 4 C0 1.33, 1.33 0, 4 0 M0 4 C0 1.33, 1.33 0, 4 0" stroke="#3b82f6" stroke-width="1.5" fill="none"></path></g><g stroke-linecap="round" transform="translate(260 298) rotate(0 95 14)"><path d="M4 0 C43.82 0, 83.64 0, 186 0 C188.67 0, 190 1.33, 190 4 C190 11.13, 190 18.26, 190 24 C190 26.67, 188.67 28, 186 28 C126.18 28, 66.35 28, 4 28 C1.33 28, 0 26.67, 0 24 C0 19.01, 0 14.01, 0 4 C0 1.33, 1.33 0, 4 0" stroke="none" stroke-width="0" fill="#dbeafe"></path><path d="M4 0 C49.96 0, 95.91 0, 186 0 M4 0 C56.37 0, 108.75 0, 186 0 M186 0 C188.67 0, 190 1.33, 190 4 M186 0 C188.67 0, 190 1.33, 190 4 M190 4 C190 8.54, 190 13.08, 190 24 M190 4 C190 8.35, 190 12.69, 190 24 M190 24 C190 26.67, 188.67 28, 186 28 M190 24 C190 26.67, 188.67 28, 186 28 M186 28 C139.68 28, 93.35 28, 4 28 M186 28 C116.57 28, 47.15 28, 4 28 M4 28 C1.33 28, 0 26.67, 0 24 M4 28 C1.33 28, 0 26.67, 0 24 M0 24 C0 17.34, 0 10.69, 0 4 M0 24 C0 17.07, 0 10.13, 0 4 M0 4 C0 1.33, 1.33 0, 4 0 M0 4 C0 1.33, 1.33 0, 4 0" stroke="#dbeafe" stroke-width="1" fill="none"></path></g><g stroke-linecap="round"><g transform="translate(260 326) rotate(0 95 0)"><path d="M0 0 C31.67 0, 158.33 0, 190 0 M0 0 C31.67 0, 158.33 0, 190 0" stroke="#3b82f6" stroke-width="1" fill="none"></path></g></g><mask></mask><g transform="translate(297.525 306.5) rotate(0 57.474999999999994 7.699999999999989)"><text x="57.475" y="10.515999999999998" font-family="Segoe UI Emoji" font-size="11px" fill="#1e293b" text-anchor="middle" style="white-space: pre;" direction="ltr" dominant-baseline="alphabetic">FormFieldDefinition</text></g><g transform="translate(267 333.75) rotate(0 23.51249999999999 6.650000000000006)"><text x="23.512500000000003" y="9.081999999999999" font-family="Segoe UI Emoji" font-size="9.5px" fill="#1e293b" text-anchor="middle" style="white-space: pre;" direction="ltr" dominant-baseline="alphabetic">+id: UUID</text></g><g transform="translate(267 350.75) rotate(0 33.962500000000006 6.650000000000006)"><text x="33.962500000000006" y="9.081999999999999" font-family="Segoe UI Emoji" font-size="9.5px" fill="#1e293b" text-anchor="middle" style="white-space: pre;" direction="ltr" dominant-baseline="alphabetic">+formId: UUID</text></g><g transform="translate(267 367.75) rotate(0 31.349999999999994 6.650000000000006)"><text x="31.35" y="9.081999999999999" font-family="Segoe UI Emoji" font-size="9.5px" fill="#1e293b" text-anchor="middle" style="white-space: pre;" direction="ltr" dominant-baseline="alphabetic">+key: string</text></g><g transform="translate(267 384.75) rotate(0 36.57499999999999 6.650000000000006)"><text x="36.575" y="9.081999999999999" font-family="Segoe UI Emoji" font-size="9.5px" fill="#1e293b" text-anchor="middle" style="white-space: pre;" direction="ltr" dominant-baseline="alphabetic">+label: string</text></g><g transform="translate(267 401.75) rotate(0 52.25 6.650000000000006)"><text x="52.25000000000001" y="9.081999999999999" font-family="Segoe UI Emoji" font-size="9.5px" fill="#1e293b" text-anchor="middle" style="white-space: pre;" direction="ltr" dominant-baseline="alphabetic">+type: FormFieldType</text></g><g transform="translate(267 418.75) rotate(0 47.025000000000006 6.650000000000006)"><text x="47.025000000000006" y="9.081999999999999" font-family="Segoe UI Emoji" font-size="9.5px" fill="#1e293b" text-anchor="middle" style="white-space: pre;" direction="ltr" dominant-baseline="alphabetic">+required: boolean</text></g><g transform="translate(267 435.75) rotate(0 47.025000000000006 6.650000000000006)"><text x="47.025000000000006" y="9.081999999999999" font-family="Segoe UI Emoji" font-size="9.5px" fill="#1e293b" text-anchor="middle" style="white-space: pre;" direction="ltr" dominant-baseline="alphabetic">+displayOrder: int</text></g><g transform="translate(267 452.75) rotate(0 36.57499999999999 6.650000000000006)"><text x="36.575" y="9.081999999999999" font-family="Segoe UI Emoji" font-size="9.5px" fill="#1e293b" text-anchor="middle" style="white-space: pre;" direction="ltr" dominant-baseline="alphabetic">+config: JSONB</text></g><g stroke-linecap="round" transform="translate(10 438) rotate(0 95 94.5)"><path d="M4 0 C61.11 0, 118.22 0, 186 0 C188.67 0, 190 1.33, 190 4 C190 61.29, 190 118.58, 190 185 C190 187.67, 188.67 189, 186 189 C128.29 189, 70.58 189, 4 189 C1.33 189, 0 187.67, 0 185 C0 116.17, 0 47.34, 0 4 C0 1.33, 1.33 0, 4 0" stroke="none" stroke-width="0" fill="#ffffff"></path><path d="M4 0 C67.61 0, 131.22 0, 186 0 M4 0 C46.08 0, 88.16 0, 186 0 M186 0 C188.67 0, 190 1.33, 190 4 M186 0 C188.67 0, 190 1.33, 190 4 M190 4 C190 64.51, 190 125.02, 190 185 M190 4 C190 72.75, 190 141.5, 190 185 M190 185 C190 187.67, 188.67 189, 186 189 M190 185 C190 187.67, 188.67 189, 186 189 M186 189 C136.43 189, 86.86 189, 4 189 M186 189 C119.13 189, 52.26 189, 4 189 M4 189 C1.33 189, 0 187.67, 0 185 M4 189 C1.33 189, 0 187.67, 0 185 M0 185 C0 134.82, 0 84.65, 0 4 M0 185 C0 132.46, 0 79.91, 0 4 M0 4 C0 1.33, 1.33 0, 4 0 M0 4 C0 1.33, 1.33 0, 4 0" stroke="#16a34a" stroke-width="1.5" fill="none"></path></g><g stroke-linecap="round" transform="translate(10 438) rotate(0 95 14)"><path d="M4 0 C72.04 0, 140.09 0, 186 0 C188.67 0, 190 1.33, 190 4 C190 9.67, 190 15.34, 190 24 C190 26.67, 188.67 28, 186 28 C115.89 28, 45.79 28, 4 28 C1.33 28, 0 26.67, 0 24 C0 19.57, 0 15.14, 0 4 C0 1.33, 1.33 0, 4 0" stroke="none" stroke-width="0" fill="#dcfce7"></path><path d="M4 0 C51.79 0, 99.57 0, 186 0 M4 0 C63.48 0, 122.97 0, 186 0 M186 0 C188.67 0, 190 1.33, 190 4 M186 0 C188.67 0, 190 1.33, 190 4 M190 4 C190 8.09, 190 12.19, 190 24 M190 4 C190 8.89, 190 13.79, 190 24 M190 24 C190 26.67, 188.67 28, 186 28 M190 24 C190 26.67, 188.67 28, 186 28 M186 28 C124.97 28, 63.94 28, 4 28 M186 28 C118.55 28, 51.11 28, 4 28 M4 28 C1.33 28, 0 26.67, 0 24 M4 28 C1.33 28, 0 26.67, 0 24 M0 24 C0 19.77, 0 15.54, 0 4 M0 24 C0 19.22, 0 14.44, 0 4 M0 4 C0 1.33, 1.33 0, 4 0 M0 4 C0 1.33, 1.33 0, 4 0" stroke="#dcfce7" stroke-width="1" fill="none"></path></g><g stroke-linecap="round"><g transform="translate(10 466) rotate(0 95 0)"><path d="M0 0 C31.67 0, 158.33 0, 190 0 M0 0 C31.67 0, 158.33 0, 190 0" stroke="#16a34a" stroke-width="1" fill="none"></path></g></g><mask></mask><g transform="translate(80.8 446.5) rotate(0 24.199999999999996 7.699999999999989)"><text x="24.200000000000003" y="10.515999999999998" font-family="Segoe UI Emoji" font-size="11px" fill="#1e293b" text-anchor="middle" style="white-space: pre;" direction="ltr" dominant-baseline="alphabetic">FormTask</text></g><g transform="translate(17 473.75) rotate(0 23.512500000000003 6.650000000000006)"><text x="23.512500000000003" y="9.081999999999999" font-family="Segoe UI Emoji" font-size="9.5px" fill="#1e293b" text-anchor="middle" style="white-space: pre;" direction="ltr" dominant-baseline="alphabetic">+id: UUID</text></g><g transform="translate(17 490.75) rotate(0 33.962500000000006 6.650000000000006)"><text x="33.962500000000006" y="9.081999999999999" font-family="Segoe UI Emoji" font-size="9.5px" fill="#1e293b" text-anchor="middle" style="white-space: pre;" direction="ltr" dominant-baseline="alphabetic">+formId: UUID</text></g><g transform="translate(17 507.75) rotate(0 47.025000000000006 6.649999999999977)"><text x="47.025000000000006" y="9.081999999999999" font-family="Segoe UI Emoji" font-size="9.5px" fill="#1e293b" text-anchor="middle" style="white-space: pre;" direction="ltr" dominant-baseline="alphabetic">+executionId: UUID</text></g><g transform="translate(17 524.75) rotate(0 33.962500000000006 6.649999999999977)"><text x="33.962500000000006" y="9.081999999999999" font-family="Segoe UI Emoji" font-size="9.5px" fill="#1e293b" text-anchor="middle" style="white-space: pre;" direction="ltr" dominant-baseline="alphabetic">+stepId: UUID</text></g><g transform="translate(17 541.75) rotate(0 44.412499999999994 6.649999999999977)"><text x="44.4125" y="9.081999999999999" font-family="Segoe UI Emoji" font-size="9.5px" fill="#1e293b" text-anchor="middle" style="white-space: pre;" direction="ltr" dominant-baseline="alphabetic">+assigneeId: UUID</text></g><g transform="translate(17 558.75) rotate(0 60.087500000000006 6.649999999999977)"><text x="60.087500000000006" y="9.081999999999999" font-family="Segoe UI Emoji" font-size="9.5px" fill="#1e293b" text-anchor="middle" style="white-space: pre;" direction="ltr" dominant-baseline="alphabetic">+status: FormTaskStatus</text></g><g transform="translate(17 575.75) rotate(0 36.575 6.649999999999977)"><text x="36.575" y="9.081999999999999" font-family="Segoe UI Emoji" font-size="9.5px" fill="#1e293b" text-anchor="middle" style="white-space: pre;" direction="ltr" dominant-baseline="alphabetic">+token: string</text></g><g transform="translate(17 592.75) rotate(0 52.25 6.649999999999977)"><text x="52.25000000000001" y="9.081999999999999" font-family="Segoe UI Emoji" font-size="9.5px" fill="#1e293b" text-anchor="middle" style="white-space: pre;" direction="ltr" dominant-baseline="alphabetic">+expiresAt: DateTime</text></g><g transform="translate(17 609.75) rotate(0 52.25 6.649999999999977)"><text x="52.25000000000001" y="9.081999999999999" font-family="Segoe UI Emoji" font-size="9.5px" fill="#1e293b" text-anchor="middle" style="white-space: pre;" direction="ltr" dominant-baseline="alphabetic">+createdAt: DateTime</text></g><g stroke-linecap="round" transform="translate(10 728) rotate(0 95 56)"><path d="M4 0 C64.98 0, 125.95 0, 186 0 C188.67 0, 190 1.33, 190 4 C190 37.81, 190 71.63, 190 108 C190 110.67, 188.67 112, 186 112 C116.3 112, 46.6 112, 4 112 C1.33 112, 0 110.67, 0 108 C0 83.07, 0 58.13, 0 4 C0 1.33, 1.33 0, 4 0" stroke="none" stroke-width="0" fill="#ffffff"></path><path d="M4 0 C48.05 0, 92.09 0, 186 0 M4 0 C60.46 0, 116.92 0, 186 0 M186 0 C188.67 0, 190 1.33, 190 4 M186 0 C188.67 0, 190 1.33, 190 4 M190 4 C190 39.52, 190 75.04, 190 108 M190 4 C190 34.56, 190 65.12, 190 108 M190 108 C190 110.67, 188.67 112, 186 112 M190 108 C190 110.67, 188.67 112, 186 112 M186 112 C141.66 112, 97.32 112, 4 112 M186 112 C145.02 112, 104.04 112, 4 112 M4 112 C1.33 112, 0 110.67, 0 108 M4 112 C1.33 112, 0 110.67, 0 108 M0 108 C0 71.99, 0 35.98, 0 4 M0 108 C0 83.32, 0 58.63, 0 4 M0 4 C0 1.33, 1.33 0, 4 0 M0 4 C0 1.33, 1.33 0, 4 0" stroke="#7c3aed" stroke-width="1.5" fill="none"></path></g><g stroke-linecap="round" transform="translate(10 728) rotate(0 95 18)"><path d="M4 0 C55.15 0, 106.3 0, 186 0 C188.67 0, 190 1.33, 190 4 C190 10.37, 190 16.74, 190 32 C190 34.67, 188.67 36, 186 36 C141.64 36, 97.28 36, 4 36 C1.33 36, 0 34.67, 0 32 C0 22.53, 0 13.06, 0 4 C0 1.33, 1.33 0, 4 0" stroke="none" stroke-width="0" fill="#ede9fe"></path><path d="M4 0 C52.46 0, 100.92 0, 186 0 M4 0 C75.66 0, 147.31 0, 186 0 M186 0 C188.67 0, 190 1.33, 190 4 M186 0 C188.67 0, 190 1.33, 190 4 M190 4 C190 11.32, 190 18.65, 190 32 M190 4 C190 14.92, 190 25.83, 190 32 M190 32 C190 34.67, 188.67 36, 186 36 M190 32 C190 34.67, 188.67 36, 186 36 M186 36 C134.9 36, 83.8 36, 4 36 M186 36 C142.65 36, 99.3 36, 4 36 M4 36 C1.33 36, 0 34.67, 0 32 M4 36 C1.33 36, 0 34.67, 0 32 M0 32 C0 23.16, 0 14.31, 0 4 M0 32 C0 21.94, 0 11.88, 0 4 M0 4 C0 1.33, 1.33 0, 4 0 M0 4 C0 1.33, 1.33 0, 4 0" stroke="#ede9fe" stroke-width="1" fill="none"></path></g><g stroke-linecap="round"><g transform="translate(10 764) rotate(0 95 0)"><path d="M0 0 C31.67 0, 158.33 0, 190 0 M0 0 C31.67 0, 158.33 0, 190 0" stroke="#7c3aed" stroke-width="1" fill="none"></path></g></g><mask></mask><g transform="translate(85 734.75) rotate(0 20 5.949999999999989)"><text x="20" y="8.126" font-family="Segoe UI Emoji" font-size="8.5px" fill="#64748b" text-anchor="middle" style="white-space: pre;" direction="ltr" dominant-baseline="alphabetic">«enum»</text></g><g transform="translate(62.650000000000006 748.5) rotate(0 42.35000000000001 7.699999999999989)"><text x="42.35" y="10.515999999999998" font-family="Segoe UI Emoji" font-size="11px" fill="#1e293b" text-anchor="middle" style="white-space: pre;" direction="ltr" dominant-baseline="alphabetic">FormTaskStatus</text></g><g transform="translate(17 771.75) rotate(0 20 6.649999999999977)"><text x="20" y="9.081999999999999" font-family="Segoe UI Emoji" font-size="9.5px" fill="#1e293b" text-anchor="middle" style="white-space: pre;" direction="ltr" dominant-baseline="alphabetic">Pending</text></g><g transform="translate(17 788.75) rotate(0 23.512500000000003 6.649999999999977)"><text x="23.512500000000003" y="9.081999999999999" font-family="Segoe UI Emoji" font-size="9.5px" fill="#1e293b" text-anchor="middle" style="white-space: pre;" direction="ltr" dominant-baseline="alphabetic">Completed</text></g><g transform="translate(17 805.75) rotate(0 20 6.649999999999977)"><text x="20" y="9.081999999999999" font-family="Segoe UI Emoji" font-size="9.5px" fill="#1e293b" text-anchor="middle" style="white-space: pre;" direction="ltr" dominant-baseline="alphabetic">Expired</text></g><g transform="translate(17 822.75) rotate(0 23.512500000000003 6.649999999999977)"><text x="23.512500000000003" y="9.081999999999999" font-family="Segoe UI Emoji" font-size="9.5px" fill="#1e293b" text-anchor="middle" style="white-space: pre;" direction="ltr" dominant-baseline="alphabetic">Cancelled</text></g><g stroke-linecap="round" transform="translate(260 588) rotate(0 95 60.5)"><path d="M4 0 C45.92 0, 87.83 0, 186 0 C188.67 0, 190 1.33, 190 4 C190 41.41, 190 78.81, 190 117 C190 119.67, 188.67 121, 186 121 C133.71 121, 81.41 121, 4 121 C1.33 121, 0 119.67, 0 117 C0 92.76, 0 68.53, 0 4 C0 1.33, 1.33 0, 4 0" stroke="none" stroke-width="0" fill="#ffffff"></path><path d="M4 0 C72.01 0, 140.03 0, 186 0 M4 0 C69.15 0, 134.29 0, 186 0 M186 0 C188.67 0, 190 1.33, 190 4 M186 0 C188.67 0, 190 1.33, 190 4 M190 4 C190 37.53, 190 71.06, 190 117 M190 4 C190 27.54, 190 51.09, 190 117 M190 117 C190 119.67, 188.67 121, 186 121 M190 117 C190 119.67, 188.67 121, 186 121 M186 121 C114.97 121, 43.94 121, 4 121 M186 121 C134.9 121, 83.79 121, 4 121 M4 121 C1.33 121, 0 119.67, 0 117 M4 121 C1.33 121, 0 119.67, 0 117 M0 117 C0 81.82, 0 46.64, 0 4 M0 117 C0 93.05, 0 69.09, 0 4 M0 4 C0 1.33, 1.33 0, 4 0 M0 4 C0 1.33, 1.33 0, 4 0" stroke="#3b82f6" stroke-width="1.5" fill="none"></path></g><g stroke-linecap="round" transform="translate(260 588) rotate(0 95 14)"><path d="M4 0 C66.4 0, 128.79 0, 186 0 C188.67 0, 190 1.33, 190 4 C190 9.53, 190 15.07, 190 24 C190 26.67, 188.67 28, 186 28 C143.32 28, 100.64 28, 4 28 C1.33 28, 0 26.67, 0 24 C0 19.66, 0 15.31, 0 4 C0 1.33, 1.33 0, 4 0" stroke="none" stroke-width="0" fill="#dbeafe"></path><path d="M4 0 C48.15 0, 92.3 0, 186 0 M4 0 C61.21 0, 118.41 0, 186 0 M186 0 C188.67 0, 190 1.33, 190 4 M186 0 C188.67 0, 190 1.33, 190 4 M190 4 C190 8.14, 190 12.28, 190 24 M190 4 C190 8.39, 190 12.77, 190 24 M190 24 C190 26.67, 188.67 28, 186 28 M190 24 C190 26.67, 188.67 28, 186 28 M186 28 C136.65 28, 87.3 28, 4 28 M186 28 C140.64 28, 95.29 28, 4 28 M4 28 C1.33 28, 0 26.67, 0 24 M4 28 C1.33 28, 0 26.67, 0 24 M0 24 C0 17.12, 0 10.24, 0 4 M0 24 C0 16.66, 0 9.32, 0 4 M0 4 C0 1.33, 1.33 0, 4 0 M0 4 C0 1.33, 1.33 0, 4 0" stroke="#dbeafe" stroke-width="1" fill="none"></path></g><g stroke-linecap="round"><g transform="translate(260 616) rotate(0 95 0)"><path d="M0 0 C31.67 0, 158.33 0, 190 0 M0 0 C31.67 0, 158.33 0, 190 0" stroke="#3b82f6" stroke-width="1" fill="none"></path></g></g><mask></mask><g transform="translate(312.65 596.5) rotate(0 42.349999999999994 7.699999999999989)"><text x="42.35" y="10.515999999999998" font-family="Segoe UI Emoji" font-size="11px" fill="#1e293b" text-anchor="middle" style="white-space: pre;" direction="ltr" dominant-baseline="alphabetic">FormSubmission</text></g><g transform="translate(267 623.75) rotate(0 23.51249999999999 6.649999999999977)"><text x="23.512500000000003" y="9.081999999999999" font-family="Segoe UI Emoji" font-size="9.5px" fill="#1e293b" text-anchor="middle" style="white-space: pre;" direction="ltr" dominant-baseline="alphabetic">+id: UUID</text></g><g transform="translate(267 640.75) rotate(0 44.412499999999994 6.649999999999977)"><text x="44.4125" y="9.081999999999999" font-family="Segoe UI Emoji" font-size="9.5px" fill="#1e293b" text-anchor="middle" style="white-space: pre;" direction="ltr" dominant-baseline="alphabetic">+formTaskId: UUID</text></g><g transform="translate(267 657.75) rotate(0 47.025000000000006 6.649999999999977)"><text x="47.025000000000006" y="9.081999999999999" font-family="Segoe UI Emoji" font-size="9.5px" fill="#1e293b" text-anchor="middle" style="white-space: pre;" direction="ltr" dominant-baseline="alphabetic">+submittedBy: UUID</text></g><g transform="translate(267 674.75) rotate(0 57.474999999999994 6.649999999999977)"><text x="57.475" y="9.081999999999999" font-family="Segoe UI Emoji" font-size="9.5px" fill="#1e293b" text-anchor="middle" style="white-space: pre;" direction="ltr" dominant-baseline="alphabetic">+submittedAt: DateTime</text></g><g transform="translate(267 691.75) rotate(0 31.349999999999994 6.649999999999977)"><text x="31.35" y="9.081999999999999" font-family="Segoe UI Emoji" font-size="9.5px" fill="#1e293b" text-anchor="middle" style="white-space: pre;" direction="ltr" dominant-baseline="alphabetic">+data: JSONB</text></g><g stroke-linecap="round"><g transform="translate(200 119) rotate(0 30 -0.25)"><path d="M0 0 C10 -0.08, 50 -0.42, 60 -0.5 M0 0 C10 -0.08, 50 -0.42, 60 -0.5" stroke="#475569" stroke-width="1.5" fill="none"></path></g><g transform="translate(200 119) rotate(0 30 -0.25)"><path d="M36.58 8.25 C45.33 4.98, 54.09 1.71, 60 -0.5 M36.58 8.25 C44.77 5.19, 52.97 2.13, 60 -0.5" stroke="#475569" stroke-width="1.5" fill="none"></path></g><g transform="translate(200 119) rotate(0 30 -0.25)"><path d="M36.44 -8.85 C45.24 -5.73, 54.05 -2.61, 60 -0.5 M36.44 -8.85 C44.68 -5.93, 52.93 -3.01, 60 -0.5" stroke="#475569" stroke-width="1.5" fill="none"></path></g></g><mask></mask><g transform="translate(210 99.75) rotate(0 20 7)"><text x="20" y="9.559999999999999" font-family="Segoe UI Emoji" font-size="10px" fill="#64748b" text-anchor="middle" style="white-space: pre;" direction="ltr" dominant-baseline="alphabetic">1 *--</text></g><g stroke-linecap="round"><g transform="translate(200 135) rotate(0 30 124.5)"><path d="M0 0 C10 41.5, 50 207.5, 60 249 M0 0 C10 41.5, 50 207.5, 60 249" stroke="#475569" stroke-width="1.5" fill="none"></path></g><g transform="translate(200 135) rotate(0 30 124.5)"><path d="M46.18 228.16 C50.82 235.15, 55.45 242.13, 60 249 M46.18 228.16 C49.58 233.29, 52.98 238.41, 60 249" stroke="#475569" stroke-width="1.5" fill="none"></path></g><g transform="translate(200 135) rotate(0 30 124.5)"><path d="M62.81 224.16 C61.87 232.49, 60.93 240.81, 60 249 M62.81 224.16 C62.12 230.27, 61.43 236.38, 60 249" stroke="#475569" stroke-width="1.5" fill="none"></path></g></g><mask></mask><g transform="translate(210 240.5) rotate(0 20 7)"><text x="20" y="9.559999999999999" font-family="Segoe UI Emoji" font-size="10px" fill="#64748b" text-anchor="middle" style="white-space: pre;" direction="ltr" dominant-baseline="alphabetic">1 *--</text></g><g stroke-linecap="round"><g transform="translate(450 384) rotate(0 30 -113.75)"><path d="M0 0 C10 -37.92, 50 -189.58, 60 -227.5 M0 0 C10 -37.92, 50 -189.58, 60 -227.5" stroke="#475569" stroke-width="1.5" fill="none"></path></g><g transform="translate(450 384) rotate(0 30 -113.75)"><path d="M62.28 -202.6 C61.74 -208.48, 61.2 -214.35, 60 -227.5 M62.28 -202.6 C61.72 -208.66, 61.17 -214.72, 60 -227.5" stroke="#475569" stroke-width="1.5" fill="none"></path></g><g transform="translate(450 384) rotate(0 30 -113.75)"><path d="M45.74 -206.96 C49.11 -211.81, 52.47 -216.66, 60 -227.5 M45.74 -206.96 C49.21 -211.96, 52.68 -216.96, 60 -227.5" stroke="#475569" stroke-width="1.5" fill="none"></path></g></g><mask></mask><g transform="translate(460 251.25) rotate(0 20 7)"><text x="20" y="9.559999999999999" font-family="Segoe UI Emoji" font-size="10px" fill="#64748b" text-anchor="middle" style="white-space: pre;" direction="ltr" dominant-baseline="alphabetic">type</text></g><g stroke-linecap="round"><g transform="translate(105 196) rotate(0 0 121)"><path d="M0 0 C0 40.33, 0 201.67, 0 242 M0 0 C0 40.33, 0 201.67, 0 242" stroke="#475569" stroke-width="1.5" fill="none"></path></g><g transform="translate(105 196) rotate(0 0 121)"><path d="M-8.55 218.51 C-6.26 224.79, -3.98 231.08, 0 242 M-8.55 218.51 C-5.2 227.72, -1.85 236.93, 0 242" stroke="#475569" stroke-width="1.5" fill="none"></path></g><g transform="translate(105 196) rotate(0 0 121)"><path d="M8.55 218.51 C6.26 224.79, 3.98 231.08, 0 242 M8.55 218.51 C5.2 227.72, 1.85 236.93, 0 242" stroke="#475569" stroke-width="1.5" fill="none"></path></g></g><mask></mask><g transform="translate(80.25 298) rotate(0 24.75 7)"><text x="24.750000000000004" y="9.559999999999999" font-family="Segoe UI Emoji" font-size="10px" fill="#64748b" text-anchor="middle" style="white-space: pre;" direction="ltr" dominant-baseline="alphabetic">→ runtime</text></g><g stroke-linecap="round"><g transform="translate(105 627) rotate(0 0 50.5)"><path d="M0 0 C0 16.83, 0 84.17, 0 101 M0 0 C0 16.83, 0 84.17, 0 101" stroke="#475569" stroke-width="1.5" fill="none"></path></g><g transform="translate(105 627) rotate(0 0 50.5)"><path d="M-8.55 77.51 C-6.27 83.77, -3.99 90.03, 0 101 M-8.55 77.51 C-6.08 84.31, -3.6 91.11, 0 101" stroke="#475569" stroke-width="1.5" fill="none"></path></g><g transform="translate(105 627) rotate(0 0 50.5)"><path d="M8.55 77.51 C6.27 83.77, 3.99 90.03, 0 101 M8.55 77.51 C6.08 84.31, 3.6 91.11, 0 101" stroke="#475569" stroke-width="1.5" fill="none"></path></g></g><mask></mask><g transform="translate(85 658.5) rotate(0 20 7)"><text x="20" y="9.559999999999999" font-family="Segoe UI Emoji" font-size="10px" fill="#64748b" text-anchor="middle" style="white-space: pre;" direction="ltr" dominant-baseline="alphabetic">status</text></g><g stroke-linecap="round"><g transform="translate(200 562.5) rotate(0 30 43)"><path d="M0 0 C10 14.33, 50 71.67, 60 86 M0 0 C10 14.33, 50 71.67, 60 86" stroke="#475569" stroke-width="1.5" fill="none"></path></g><g transform="translate(200 562.5) rotate(0 30 43)"><path d="M39.55 71.63 C46.84 76.75, 54.14 81.88, 60 86 M39.55 71.63 C45.87 76.07, 52.2 80.52, 60 86" stroke="#475569" stroke-width="1.5" fill="none"></path></g><g transform="translate(200 562.5) rotate(0 30 43)"><path d="M53.57 61.84 C55.86 70.46, 58.16 79.08, 60 86 M53.57 61.84 C55.56 69.31, 57.55 76.79, 60 86" stroke="#475569" stroke-width="1.5" fill="none"></path></g></g><mask></mask><g transform="translate(210 586.5) rotate(0 20 7)"><text x="20" y="9.559999999999999" font-family="Segoe UI Emoji" font-size="10px" fill="#64748b" text-anchor="middle" style="white-space: pre;" direction="ltr" dominant-baseline="alphabetic">1 -- 1</text></g></svg>