<svg version="1.1" xmlns="http://www.w3.org/2000/svg" viewBox="0 0 NaN NaN" width="NaN" height="NaN"><!-- svg-source:excalidraw --><metadata></metadata><defs><style class="style-fonts">
      </style></defs><rect x="0" y="0" width="NaN" height="NaN" fill="#f8fafc"></rect><g transform="translate(0 0) rotate(0 176 11.2)"><text x="176" y="15.296" font-family="Segoe UI Emoji" font-size="16px" fill="#1e293b" text-anchor="middle" style="white-space: pre;" direction="ltr" dominant-baseline="alphabetic">Form Builder — Core Entity Relationships</text></g><g stroke-linecap="round" transform="translate(0 0) rotate(0 95 69)"><path d="M4 0 C66.21 0, 128.41 0, 186 0 C188.67 0, 190 1.33, 190 4 C190 33.55, 190 63.1, 190 134 C190 136.67, 188.67 138, 186 138 C136.76 138, 87.52 138, 4 138 C1.33 138, 0 136.67, 0 134 C0 89.7, 0 45.41, 0 4 C0 1.33, 1.33 0, 4 0" stroke="none" stroke-width="0" fill="#ffedd5"></path><path d="M4 0 C66.67 0, 129.35 0, 186 0 M4 0 C52.31 0, 100.61 0, 186 0 M186 0 C188.67 0, 190 1.33, 190 4 M186 0 C188.67 0, 190 1.33, 190 4 M190 4 C190 34.43, 190 64.86, 190 134 M190 4 C190 47.09, 190 90.18, 190 134 M190 134 C190 136.67, 188.67 138, 186 138 M190 134 C190 136.67, 188.67 138, 186 138 M186 138 C136.03 138, 86.06 138, 4 138 M186 138 C145.51 138, 105.03 138, 4 138 M4 138 C1.33 138, 0 136.67, 0 134 M4 138 C1.33 138, 0 136.67, 0 134 M0 134 C0 105.29, 0 76.59, 0 4 M0 134 C0 96.03, 0 58.07, 0 4 M0 4 C0 1.33, 1.33 0, 4 0 M0 4 C0 1.33, 1.33 0, 4 0" stroke="#ea580c" stroke-width="1.5" fill="none"></path></g><g stroke-linecap="round" transform="translate(0 0) rotate(0 94 54.5)"><path d="M0 0 L188 0 L188 109 L0 109" stroke="none" stroke-width="0" fill="#ffffff"></path><path d="M0 0 C49.72 0, 99.45 0, 188 0 M0 0 C53.42 0, 106.85 0, 188 0 M188 0 C188 26.27, 188 52.54, 188 109 M188 0 C188 34.54, 188 69.09, 188 109 M188 109 C140.93 109, 93.87 109, 0 109 M188 109 C140.24 109, 92.48 109, 0 109 M0 109 C0 85.1, 0 61.21, 0 0 M0 109 C0 85.99, 0 62.98, 0 0" stroke="transparent" stroke-width="2" fill="none"></path></g><g stroke-linecap="round"><g transform="translate(0 0) rotate(0 95 0)"><path d="M0 0 C31.67 0, 158.33 0, 190 0 M0 0 C31.67 0, 158.33 0, 190 0" stroke="#ea580c" stroke-width="1" fill="none"></path></g></g><mask></mask><g transform="translate(0 0) rotate(0 42.35000000000001 7.700000000000003)"><text x="42.35" y="10.515999999999998" font-family="Segoe UI Emoji" font-size="11px" fill="#1e293b" text-anchor="middle" style="white-space: pre;" direction="ltr" dominant-baseline="alphabetic">FormDefinition</text></g><g transform="translate(0 0) rotate(0 23.512500000000003 6.649999999999999)"><text x="23.512500000000003" y="9.081999999999999" font-family="Segoe UI Emoji" font-size="9.5px" fill="#1e293b" text-anchor="middle" style="white-space: pre;" direction="ltr" dominant-baseline="alphabetic">+id: UUID</text></g><g transform="translate(0 0) rotate(0 33.962500000000006 6.649999999999999)"><text x="33.962500000000006" y="9.081999999999999" font-family="Segoe UI Emoji" font-size="9.5px" fill="#1e293b" text-anchor="middle" style="white-space: pre;" direction="ltr" dominant-baseline="alphabetic">+name: string</text></g><g transform="translate(0 0) rotate(0 52.25 6.650000000000006)"><text x="52.25000000000001" y="9.081999999999999" font-family="Segoe UI Emoji" font-size="9.5px" fill="#1e293b" text-anchor="middle" style="white-space: pre;" direction="ltr" dominant-baseline="alphabetic">+description: string</text></g><g transform="translate(0 0) rotate(0 54.86250000000001 6.650000000000006)"><text x="54.862500000000004" y="9.081999999999999" font-family="Segoe UI Emoji" font-size="9.5px" fill="#1e293b" text-anchor="middle" style="white-space: pre;" direction="ltr" dominant-baseline="alphabetic">+organizationId: UUID</text></g><g transform="translate(0 0) rotate(0 52.25 6.650000000000006)"><text x="52.25000000000001" y="9.081999999999999" font-family="Segoe UI Emoji" font-size="9.5px" fill="#1e293b" text-anchor="middle" style="white-space: pre;" direction="ltr" dominant-baseline="alphabetic">+createdAt: DateTime</text></g><g transform="translate(0 0) rotate(0 52.25 6.650000000000006)"><text x="52.25000000000001" y="9.081999999999999" font-family="Segoe UI Emoji" font-size="9.5px" fill="#1e293b" text-anchor="middle" style="white-space: pre;" direction="ltr" dominant-baseline="alphabetic">+updatedAt: DateTime</text></g><g stroke-linecap="round" transform="translate(0 0) rotate(0 95 60.5)"><path d="M4 0 C56.89 0, 109.78 0, 186 0 C188.67 0, 190 1.33, 190 4 C190 34.2, 190 64.39, 190 117 C190 119.67, 188.67 121, 186 121 C125.34 121, 64.68 121, 4 121 C1.33 121, 0 119.67, 0 117 C0 93.15, 0 69.31, 0 4 C0 1.33, 1.33 0, 4 0" stroke="none" stroke-width="0" fill="#dbeafe"></path><path d="M4 0 C68.32 0, 132.64 0, 186 0 M4 0 C58.78 0, 113.56 0, 186 0 M186 0 C188.67 0, 190 1.33, 190 4 M186 0 C188.67 0, 190 1.33, 190 4 M190 4 C190 48.77, 190 93.54, 190 117 M190 4 C190 35.78, 190 67.56, 190 117 M190 117 C190 119.67, 188.67 121, 186 121 M190 117 C190 119.67, 188.67 121, 186 121 M186 121 C120.38 121, 54.75 121, 4 121 M186 121 C148.6 121, 111.2 121, 4 121 M4 121 C1.33 121, 0 119.67, 0 117 M4 121 C1.33 121, 0 119.67, 0 117 M0 117 C0 92.06, 0 67.12, 0 4 M0 117 C0 92.91, 0 68.83, 0 4 M0 4 C0 1.33, 1.33 0, 4 0 M0 4 C0 1.33, 1.33 0, 4 0" stroke="#3b82f6" stroke-width="1.5" fill="none"></path></g><g stroke-linecap="round" transform="translate(0 0) rotate(0 94 46)"><path d="M0 0 L188 0 L188 92 L0 92" stroke="none" stroke-width="0" fill="#ffffff"></path><path d="M0 0 C65.58 0, 131.15 0, 188 0 M0 0 C61.7 0, 123.4 0, 188 0 M188 0 C188 33.93, 188 67.85, 188 92 M188 0 C188 29.72, 188 59.45, 188 92 M188 92 C145.71 92, 103.43 92, 0 92 M188 92 C130.33 92, 72.65 92, 0 92 M0 92 C0 72.06, 0 52.12, 0 0 M0 92 C0 55.64, 0 19.27, 0 0" stroke="transparent" stroke-width="2" fill="none"></path></g><g stroke-linecap="round"><g transform="translate(0 0) rotate(0 95 0)"><path d="M0 0 C31.67 0, 158.33 0, 190 0 M0 0 C31.67 0, 158.33 0, 190 0" stroke="#3b82f6" stroke-width="1" fill="none"></path></g></g><mask></mask><g transform="translate(0 0) rotate(0 33.275000000000006 7.700000000000003)"><text x="33.275000000000006" y="10.515999999999998" font-family="Segoe UI Emoji" font-size="11px" fill="#1e293b" text-anchor="middle" style="white-space: pre;" direction="ltr" dominant-baseline="alphabetic">FormSection</text></g><g transform="translate(0 0) rotate(0 23.51249999999999 6.649999999999999)"><text x="23.512500000000003" y="9.081999999999999" font-family="Segoe UI Emoji" font-size="9.5px" fill="#1e293b" text-anchor="middle" style="white-space: pre;" direction="ltr" dominant-baseline="alphabetic">+id: UUID</text></g><g transform="translate(0 0) rotate(0 33.962500000000006 6.649999999999999)"><text x="33.962500000000006" y="9.081999999999999" font-family="Segoe UI Emoji" font-size="9.5px" fill="#1e293b" text-anchor="middle" style="white-space: pre;" direction="ltr" dominant-baseline="alphabetic">+formId: UUID</text></g><g transform="translate(0 0) rotate(0 36.57499999999999 6.650000000000006)"><text x="36.575" y="9.081999999999999" font-family="Segoe UI Emoji" font-size="9.5px" fill="#1e293b" text-anchor="middle" style="white-space: pre;" direction="ltr" dominant-baseline="alphabetic">+title: string</text></g><g transform="translate(0 0) rotate(0 52.25 6.650000000000006)"><text x="52.25000000000001" y="9.081999999999999" font-family="Segoe UI Emoji" font-size="9.5px" fill="#1e293b" text-anchor="middle" style="white-space: pre;" direction="ltr" dominant-baseline="alphabetic">+description: string</text></g><g transform="translate(0 0) rotate(0 47.025000000000006 6.650000000000006)"><text x="47.025000000000006" y="9.081999999999999" font-family="Segoe UI Emoji" font-size="9.5px" fill="#1e293b" text-anchor="middle" style="white-space: pre;" direction="ltr" dominant-baseline="alphabetic">+displayOrder: int</text></g><g stroke-linecap="round" transform="translate(0 0) rotate(0 95 98.5)"><path d="M4 0 C72.92 0, 141.83 0, 186 0 C188.67 0, 190 1.33, 190 4 C190 76.99, 190 149.98, 190 193 C190 195.67, 188.67 197, 186 197 C146.85 197, 107.71 197, 4 197 C1.33 197, 0 195.67, 0 193 C0 146.49, 0 99.97, 0 4 C0 1.33, 1.33 0, 4 0" stroke="none" stroke-width="0" fill="#ede9fe"></path><path d="M4 0 C40.99 0, 77.97 0, 186 0 M4 0 C41.94 0, 79.88 0, 186 0 M186 0 C188.67 0, 190 1.33, 190 4 M186 0 C188.67 0, 190 1.33, 190 4 M190 4 C190 74.73, 190 145.47, 190 193 M190 4 C190 70.89, 190 137.77, 190 193 M190 193 C190 195.67, 188.67 197, 186 197 M190 193 C190 195.67, 188.67 197, 186 197 M186 197 C138.93 197, 91.86 197, 4 197 M186 197 C123.72 197, 61.43 197, 4 197 M4 197 C1.33 197, 0 195.67, 0 193 M4 197 C1.33 197, 0 195.67, 0 193 M0 193 C0 130.93, 0 68.87, 0 4 M0 193 C0 128.91, 0 64.83, 0 4 M0 4 C0 1.33, 1.33 0, 4 0 M0 4 C0 1.33, 1.33 0, 4 0" stroke="#7c3aed" stroke-width="1.5" fill="none"></path></g><g stroke-linecap="round" transform="translate(0 0) rotate(0 94 80)"><path d="M0 0 L188 0 L188 160 L0 160" stroke="none" stroke-width="0" fill="#ffffff"></path><path d="M0 0 C72.18 0, 144.37 0, 188 0 M0 0 C70.66 0, 141.32 0, 188 0 M188 0 C188 38.72, 188 77.45, 188 160 M188 0 C188 43.92, 188 87.85, 188 160 M188 160 C125.43 160, 62.86 160, 0 160 M188 160 C124.99 160, 61.97 160, 0 160 M0 160 C0 109.91, 0 59.81, 0 0 M0 160 C0 97.65, 0 35.29, 0 0" stroke="transparent" stroke-width="2" fill="none"></path></g><g stroke-linecap="round"><g transform="translate(0 0) rotate(0 95 0)"><path d="M0 0 C31.67 0, 158.33 0, 190 0 M0 0 C31.67 0, 158.33 0, 190 0" stroke="#7c3aed" stroke-width="1" fill="none"></path></g></g><mask></mask><g transform="translate(0 0) rotate(0 20 5.950000000000003)"><text x="20" y="8.126" font-family="Segoe UI Emoji" font-size="8.5px" fill="#64748b" text-anchor="middle" style="white-space: pre;" direction="ltr" dominant-baseline="alphabetic">«enum»</text></g><g transform="translate(0 0) rotate(0 39.32499999999999 7.700000000000003)"><text x="39.325" y="10.515999999999998" font-family="Segoe UI Emoji" font-size="11px" fill="#1e293b" text-anchor="middle" style="white-space: pre;" direction="ltr" dominant-baseline="alphabetic">FormFieldType</text></g><g transform="translate(0 0) rotate(0 20 6.649999999999999)"><text x="20" y="9.081999999999999" font-family="Segoe UI Emoji" font-size="9.5px" fill="#1e293b" text-anchor="middle" style="white-space: pre;" direction="ltr" dominant-baseline="alphabetic">Text</text></g><g transform="translate(0 0) rotate(0 20 6.650000000000006)"><text x="20" y="9.081999999999999" font-family="Segoe UI Emoji" font-size="9.5px" fill="#1e293b" text-anchor="middle" style="white-space: pre;" direction="ltr" dominant-baseline="alphabetic">Number</text></g><g transform="translate(0 0) rotate(0 20 6.650000000000006)"><text x="20" y="9.081999999999999" font-family="Segoe UI Emoji" font-size="9.5px" fill="#1e293b" text-anchor="middle" style="white-space: pre;" direction="ltr" dominant-baseline="alphabetic">Boolean</text></g><g transform="translate(0 0) rotate(0 20 6.650000000000006)"><text x="20" y="9.081999999999999" font-family="Segoe UI Emoji" font-size="9.5px" fill="#1e293b" text-anchor="middle" style="white-space: pre;" direction="ltr" dominant-baseline="alphabetic">Date</text></g><g transform="translate(0 0) rotate(0 20.899999999999977 6.650000000000006)"><text x="20.900000000000002" y="9.081999999999999" font-family="Segoe UI Emoji" font-size="9.5px" fill="#1e293b" text-anchor="middle" style="white-space: pre;" direction="ltr" dominant-baseline="alphabetic">Dropdown</text></g><g transform="translate(0 0) rotate(0 28.73750000000001 6.650000000000006)"><text x="28.7375" y="9.081999999999999" font-family="Segoe UI Emoji" font-size="9.5px" fill="#1e293b" text-anchor="middle" style="white-space: pre;" direction="ltr" dominant-baseline="alphabetic">MultiSelect</text></g><g transform="translate(0 0) rotate(0 20.899999999999977 6.650000000000006)"><text x="20.900000000000002" y="9.081999999999999" font-family="Segoe UI Emoji" font-size="9.5px" fill="#1e293b" text-anchor="middle" style="white-space: pre;" direction="ltr" dominant-baseline="alphabetic">Checkbox</text></g><g transform="translate(0 0) rotate(0 26.125 6.650000000000006)"><text x="26.125000000000004" y="9.081999999999999" font-family="Segoe UI Emoji" font-size="9.5px" fill="#1e293b" text-anchor="middle" style="white-space: pre;" direction="ltr" dominant-baseline="alphabetic">FileUpload</text></g><g transform="translate(0 0) rotate(0 36.57499999999999 6.650000000000006)"><text x="36.575" y="9.081999999999999" font-family="Segoe UI Emoji" font-size="9.5px" fill="#1e293b" text-anchor="middle" style="white-space: pre;" direction="ltr" dominant-baseline="alphabetic">RelationPicker</text></g><g stroke-linecap="round" transform="translate(0 0) rotate(0 95 86)"><path d="M4 0 C67.09 0, 130.18 0, 186 0 C188.67 0, 190 1.33, 190 4 C190 52.9, 190 101.8, 190 168 C190 170.67, 188.67 172, 186 172 C144.1 172, 102.21 172, 4 172 C1.33 172, 0 170.67, 0 168 C0 120.6, 0 73.19, 0 4 C0 1.33, 1.33 0, 4 0" stroke="none" stroke-width="0" fill="#dbeafe"></path><path d="M4 0 C64.31 0, 124.62 0, 186 0 M4 0 C51.19 0, 98.39 0, 186 0 M186 0 C188.67 0, 190 1.33, 190 4 M186 0 C188.67 0, 190 1.33, 190 4 M190 4 C190 39.65, 190 75.3, 190 168 M190 4 C190 42.33, 190 80.67, 190 168 M190 168 C190 170.67, 188.67 172, 186 172 M190 168 C190 170.67, 188.67 172, 186 172 M186 172 C122.34 172, 58.69 172, 4 172 M186 172 C136.85 172, 87.7 172, 4 172 M4 172 C1.33 172, 0 170.67, 0 168 M4 172 C1.33 172, 0 170.67, 0 168 M0 168 C0 107.6, 0 47.21, 0 4 M0 168 C0 119.61, 0 71.22, 0 4 M0 4 C0 1.33, 1.33 0, 4 0 M0 4 C0 1.33, 1.33 0, 4 0" stroke="#3b82f6" stroke-width="1.5" fill="none"></path></g><g stroke-linecap="round" transform="translate(0 0) rotate(0 94 71.5)"><path d="M0 0 L188 0 L188 143 L0 143" stroke="none" stroke-width="0" fill="#ffffff"></path><path d="M0 0 C73.19 0, 146.37 0, 188 0 M0 0 C69.86 0, 139.73 0, 188 0 M188 0 C188 47.02, 188 94.03, 188 143 M188 0 C188 29.53, 188 59.06, 188 143 M188 143 C138.66 143, 89.32 143, 0 143 M188 143 C127.03 143, 66.05 143, 0 143 M0 143 C0 86.42, 0 29.84, 0 0 M0 143 C0 91.4, 0 39.81, 0 0" stroke="transparent" stroke-width="2" fill="none"></path></g><g stroke-linecap="round"><g transform="translate(0 0) rotate(0 95 0)"><path d="M0 0 C31.67 0, 158.33 0, 190 0 M0 0 C31.67 0, 158.33 0, 190 0" stroke="#3b82f6" stroke-width="1" fill="none"></path></g></g><mask></mask><g transform="translate(0 0) rotate(0 57.474999999999994 7.699999999999989)"><text x="57.475" y="10.515999999999998" font-family="Segoe UI Emoji" font-size="11px" fill="#1e293b" text-anchor="middle" style="white-space: pre;" direction="ltr" dominant-baseline="alphabetic">FormFieldDefinition</text></g><g transform="translate(0 0) rotate(0 23.51249999999999 6.650000000000006)"><text x="23.512500000000003" y="9.081999999999999" font-family="Segoe UI Emoji" font-size="9.5px" fill="#1e293b" text-anchor="middle" style="white-space: pre;" direction="ltr" dominant-baseline="alphabetic">+id: UUID</text></g><g transform="translate(0 0) rotate(0 33.962500000000006 6.650000000000006)"><text x="33.962500000000006" y="9.081999999999999" font-family="Segoe UI Emoji" font-size="9.5px" fill="#1e293b" text-anchor="middle" style="white-space: pre;" direction="ltr" dominant-baseline="alphabetic">+formId: UUID</text></g><g transform="translate(0 0) rotate(0 31.349999999999994 6.650000000000006)"><text x="31.35" y="9.081999999999999" font-family="Segoe UI Emoji" font-size="9.5px" fill="#1e293b" text-anchor="middle" style="white-space: pre;" direction="ltr" dominant-baseline="alphabetic">+key: string</text></g><g transform="translate(0 0) rotate(0 36.57499999999999 6.650000000000006)"><text x="36.575" y="9.081999999999999" font-family="Segoe UI Emoji" font-size="9.5px" fill="#1e293b" text-anchor="middle" style="white-space: pre;" direction="ltr" dominant-baseline="alphabetic">+label: string</text></g><g transform="translate(0 0) rotate(0 52.25 6.650000000000006)"><text x="52.25000000000001" y="9.081999999999999" font-family="Segoe UI Emoji" font-size="9.5px" fill="#1e293b" text-anchor="middle" style="white-space: pre;" direction="ltr" dominant-baseline="alphabetic">+type: FormFieldType</text></g><g transform="translate(0 0) rotate(0 47.025000000000006 6.650000000000006)"><text x="47.025000000000006" y="9.081999999999999" font-family="Segoe UI Emoji" font-size="9.5px" fill="#1e293b" text-anchor="middle" style="white-space: pre;" direction="ltr" dominant-baseline="alphabetic">+required: boolean</text></g><g transform="translate(0 0) rotate(0 47.025000000000006 6.650000000000006)"><text x="47.025000000000006" y="9.081999999999999" font-family="Segoe UI Emoji" font-size="9.5px" fill="#1e293b" text-anchor="middle" style="white-space: pre;" direction="ltr" dominant-baseline="alphabetic">+displayOrder: int</text></g><g transform="translate(0 0) rotate(0 36.57499999999999 6.650000000000006)"><text x="36.575" y="9.081999999999999" font-family="Segoe UI Emoji" font-size="9.5px" fill="#1e293b" text-anchor="middle" style="white-space: pre;" direction="ltr" dominant-baseline="alphabetic">+config: JSONB</text></g><g stroke-linecap="round" transform="translate(0 0) rotate(0 95 94.5)"><path d="M4 0 C42.3 0, 80.61 0, 186 0 C188.67 0, 190 1.33, 190 4 C190 59.21, 190 114.42, 190 185 C190 187.67, 188.67 189, 186 189 C145.58 189, 105.15 189, 4 189 C1.33 189, 0 187.67, 0 185 C0 140.15, 0 95.31, 0 4 C0 1.33, 1.33 0, 4 0" stroke="none" stroke-width="0" fill="#dcfce7"></path><path d="M4 0 C41.93 0, 79.87 0, 186 0 M4 0 C60.45 0, 116.9 0, 186 0 M186 0 C188.67 0, 190 1.33, 190 4 M186 0 C188.67 0, 190 1.33, 190 4 M190 4 C190 58.67, 190 113.34, 190 185 M190 4 C190 52.15, 190 100.31, 190 185 M190 185 C190 187.67, 188.67 189, 186 189 M190 185 C190 187.67, 188.67 189, 186 189 M186 189 C138.65 189, 91.3 189, 4 189 M186 189 C132.7 189, 79.4 189, 4 189 M4 189 C1.33 189, 0 187.67, 0 185 M4 189 C1.33 189, 0 187.67, 0 185 M0 185 C0 128.29, 0 71.58, 0 4 M0 185 C0 125.14, 0 65.27, 0 4 M0 4 C0 1.33, 1.33 0, 4 0 M0 4 C0 1.33, 1.33 0, 4 0" stroke="#16a34a" stroke-width="1.5" fill="none"></path></g><g stroke-linecap="round" transform="translate(0 0) rotate(0 94 80)"><path d="M0 0 L188 0 L188 160 L0 160" stroke="none" stroke-width="0" fill="#ffffff"></path><path d="M0 0 C70.21 0, 140.41 0, 188 0 M0 0 C71.87 0, 143.75 0, 188 0 M188 0 C188 42.38, 188 84.77, 188 160 M188 0 C188 46.54, 188 93.09, 188 160 M188 160 C121.42 160, 54.84 160, 0 160 M188 160 C141.29 160, 94.57 160, 0 160 M0 160 C0 120.87, 0 81.73, 0 0 M0 160 C0 99.02, 0 38.04, 0 0" stroke="transparent" stroke-width="2" fill="none"></path></g><g stroke-linecap="round"><g transform="translate(0 0) rotate(0 95 0)"><path d="M0 0 C31.67 0, 158.33 0, 190 0 M0 0 C31.67 0, 158.33 0, 190 0" stroke="#16a34a" stroke-width="1" fill="none"></path></g></g><mask></mask><g transform="translate(0 0) rotate(0 24.199999999999996 7.699999999999989)"><text x="24.200000000000003" y="10.515999999999998" font-family="Segoe UI Emoji" font-size="11px" fill="#1e293b" text-anchor="middle" style="white-space: pre;" direction="ltr" dominant-baseline="alphabetic">FormTask</text></g><g transform="translate(0 0) rotate(0 23.512500000000003 6.650000000000006)"><text x="23.512500000000003" y="9.081999999999999" font-family="Segoe UI Emoji" font-size="9.5px" fill="#1e293b" text-anchor="middle" style="white-space: pre;" direction="ltr" dominant-baseline="alphabetic">+id: UUID</text></g><g transform="translate(0 0) rotate(0 33.962500000000006 6.650000000000006)"><text x="33.962500000000006" y="9.081999999999999" font-family="Segoe UI Emoji" font-size="9.5px" fill="#1e293b" text-anchor="middle" style="white-space: pre;" direction="ltr" dominant-baseline="alphabetic">+formId: UUID</text></g><g transform="translate(0 0) rotate(0 47.025000000000006 6.649999999999977)"><text x="47.025000000000006" y="9.081999999999999" font-family="Segoe UI Emoji" font-size="9.5px" fill="#1e293b" text-anchor="middle" style="white-space: pre;" direction="ltr" dominant-baseline="alphabetic">+executionId: UUID</text></g><g transform="translate(0 0) rotate(0 33.962500000000006 6.649999999999977)"><text x="33.962500000000006" y="9.081999999999999" font-family="Segoe UI Emoji" font-size="9.5px" fill="#1e293b" text-anchor="middle" style="white-space: pre;" direction="ltr" dominant-baseline="alphabetic">+stepId: UUID</text></g><g transform="translate(0 0) rotate(0 44.412499999999994 6.649999999999977)"><text x="44.4125" y="9.081999999999999" font-family="Segoe UI Emoji" font-size="9.5px" fill="#1e293b" text-anchor="middle" style="white-space: pre;" direction="ltr" dominant-baseline="alphabetic">+assigneeId: UUID</text></g><g transform="translate(0 0) rotate(0 60.087500000000006 6.649999999999977)"><text x="60.087500000000006" y="9.081999999999999" font-family="Segoe UI Emoji" font-size="9.5px" fill="#1e293b" text-anchor="middle" style="white-space: pre;" direction="ltr" dominant-baseline="alphabetic">+status: FormTaskStatus</text></g><g transform="translate(0 0) rotate(0 36.575 6.649999999999977)"><text x="36.575" y="9.081999999999999" font-family="Segoe UI Emoji" font-size="9.5px" fill="#1e293b" text-anchor="middle" style="white-space: pre;" direction="ltr" dominant-baseline="alphabetic">+token: string</text></g><g transform="translate(0 0) rotate(0 52.25 6.649999999999977)"><text x="52.25000000000001" y="9.081999999999999" font-family="Segoe UI Emoji" font-size="9.5px" fill="#1e293b" text-anchor="middle" style="white-space: pre;" direction="ltr" dominant-baseline="alphabetic">+expiresAt: DateTime</text></g><g transform="translate(0 0) rotate(0 52.25 6.649999999999977)"><text x="52.25000000000001" y="9.081999999999999" font-family="Segoe UI Emoji" font-size="9.5px" fill="#1e293b" text-anchor="middle" style="white-space: pre;" direction="ltr" dominant-baseline="alphabetic">+createdAt: DateTime</text></g><g stroke-linecap="round" transform="translate(0 0) rotate(0 95 56)"><path d="M4 0 C47.3 0, 90.61 0, 186 0 C188.67 0, 190 1.33, 190 4 C190 37.99, 190 71.98, 190 108 C190 110.67, 188.67 112, 186 112 C130.83 112, 75.66 112, 4 112 C1.33 112, 0 110.67, 0 108 C0 80.21, 0 52.43, 0 4 C0 1.33, 1.33 0, 4 0" stroke="none" stroke-width="0" fill="#ede9fe"></path><path d="M4 0 C74.26 0, 144.52 0, 186 0 M4 0 C75.36 0, 146.72 0, 186 0 M186 0 C188.67 0, 190 1.33, 190 4 M186 0 C188.67 0, 190 1.33, 190 4 M190 4 C190 36.81, 190 69.61, 190 108 M190 4 C190 43.49, 190 82.98, 190 108 M190 108 C190 110.67, 188.67 112, 186 112 M190 108 C190 110.67, 188.67 112, 186 112 M186 112 C115.06 112, 44.12 112, 4 112 M186 112 C129.84 112, 73.69 112, 4 112 M4 112 C1.33 112, 0 110.67, 0 108 M4 112 C1.33 112, 0 110.67, 0 108 M0 108 C0 75.05, 0 42.11, 0 4 M0 108 C0 84.35, 0 60.7, 0 4 M0 4 C0 1.33, 1.33 0, 4 0 M0 4 C0 1.33, 1.33 0, 4 0" stroke="#7c3aed" stroke-width="1.5" fill="none"></path></g><g stroke-linecap="round" transform="translate(0 0) rotate(0 94 37.5)"><path d="M0 0 L188 0 L188 75 L0 75" stroke="none" stroke-width="0" fill="#ffffff"></path><path d="M0 0 C54.55 0, 109.11 0, 188 0 M0 0 C60.9 0, 121.81 0, 188 0 M188 0 C188 25.63, 188 51.26, 188 75 M188 0 C188 28, 188 56, 188 75 M188 75 C115.17 75, 42.34 75, 0 75 M188 75 C113.1 75, 38.21 75, 0 75 M0 75 C0 55.93, 0 36.86, 0 0 M0 75 C0 47.39, 0 19.78, 0 0" stroke="transparent" stroke-width="2" fill="none"></path></g><g stroke-linecap="round"><g transform="translate(0 0) rotate(0 95 0)"><path d="M0 0 C31.67 0, 158.33 0, 190 0 M0 0 C31.67 0, 158.33 0, 190 0" stroke="#7c3aed" stroke-width="1" fill="none"></path></g></g><mask></mask><g transform="translate(0 0) rotate(0 20 5.949999999999989)"><text x="20" y="8.126" font-family="Segoe UI Emoji" font-size="8.5px" fill="#64748b" text-anchor="middle" style="white-space: pre;" direction="ltr" dominant-baseline="alphabetic">«enum»</text></g><g transform="translate(0 0) rotate(0 42.35000000000001 7.699999999999989)"><text x="42.35" y="10.515999999999998" font-family="Segoe UI Emoji" font-size="11px" fill="#1e293b" text-anchor="middle" style="white-space: pre;" direction="ltr" dominant-baseline="alphabetic">FormTaskStatus</text></g><g transform="translate(0 0) rotate(0 20 6.649999999999977)"><text x="20" y="9.081999999999999" font-family="Segoe UI Emoji" font-size="9.5px" fill="#1e293b" text-anchor="middle" style="white-space: pre;" direction="ltr" dominant-baseline="alphabetic">Pending</text></g><g transform="translate(0 0) rotate(0 23.512500000000003 6.649999999999977)"><text x="23.512500000000003" y="9.081999999999999" font-family="Segoe UI Emoji" font-size="9.5px" fill="#1e293b" text-anchor="middle" style="white-space: pre;" direction="ltr" dominant-baseline="alphabetic">Completed</text></g><g transform="translate(0 0) rotate(0 20 6.649999999999977)"><text x="20" y="9.081999999999999" font-family="Segoe UI Emoji" font-size="9.5px" fill="#1e293b" text-anchor="middle" style="white-space: pre;" direction="ltr" dominant-baseline="alphabetic">Expired</text></g><g transform="translate(0 0) rotate(0 23.512500000000003 6.649999999999977)"><text x="23.512500000000003" y="9.081999999999999" font-family="Segoe UI Emoji" font-size="9.5px" fill="#1e293b" text-anchor="middle" style="white-space: pre;" direction="ltr" dominant-baseline="alphabetic">Cancelled</text></g><g stroke-linecap="round" transform="translate(0 0) rotate(0 95 60.5)"><path d="M4 0 C41.64 0, 79.28 0, 186 0 C188.67 0, 190 1.33, 190 4 C190 43.76, 190 83.52, 190 117 C190 119.67, 188.67 121, 186 121 C145.47 121, 104.94 121, 4 121 C1.33 121, 0 119.67, 0 117 C0 78.66, 0 40.33, 0 4 C0 1.33, 1.33 0, 4 0" stroke="none" stroke-width="0" fill="#dbeafe"></path><path d="M4 0 C62.19 0, 120.38 0, 186 0 M4 0 C52.65 0, 101.3 0, 186 0 M186 0 C188.67 0, 190 1.33, 190 4 M186 0 C188.67 0, 190 1.33, 190 4 M190 4 C190 38.34, 190 72.69, 190 117 M190 4 C190 44.82, 190 85.63, 190 117 M190 117 C190 119.67, 188.67 121, 186 121 M190 117 C190 119.67, 188.67 121, 186 121 M186 121 C117.98 121, 49.97 121, 4 121 M186 121 C129.36 121, 72.72 121, 4 121 M4 121 C1.33 121, 0 119.67, 0 117 M4 121 C1.33 121, 0 119.67, 0 117 M0 117 C0 92.26, 0 67.52, 0 4 M0 117 C0 88.49, 0 59.98, 0 4 M0 4 C0 1.33, 1.33 0, 4 0 M0 4 C0 1.33, 1.33 0, 4 0" stroke="#3b82f6" stroke-width="1.5" fill="none"></path></g><g stroke-linecap="round" transform="translate(0 0) rotate(0 94 46)"><path d="M0 0 L188 0 L188 92 L0 92" stroke="none" stroke-width="0" fill="#ffffff"></path><path d="M0 0 C67.2 0, 134.39 0, 188 0 M0 0 C66.07 0, 132.14 0, 188 0 M188 0 C188 31.1, 188 62.2, 188 92 M188 0 C188 35.5, 188 71.01, 188 92 M188 92 C146.55 92, 105.1 92, 0 92 M188 92 C150.29 92, 112.59 92, 0 92 M0 92 C0 60.53, 0 29.07, 0 0 M0 92 C0 61.78, 0 31.55, 0 0" stroke="transparent" stroke-width="2" fill="none"></path></g><g stroke-linecap="round"><g transform="translate(0 0) rotate(0 95 0)"><path d="M0 0 C31.67 0, 158.33 0, 190 0 M0 0 C31.67 0, 158.33 0, 190 0" stroke="#3b82f6" stroke-width="1" fill="none"></path></g></g><mask></mask><g transform="translate(0 0) rotate(0 42.349999999999994 7.699999999999989)"><text x="42.35" y="10.515999999999998" font-family="Segoe UI Emoji" font-size="11px" fill="#1e293b" text-anchor="middle" style="white-space: pre;" direction="ltr" dominant-baseline="alphabetic">FormSubmission</text></g><g transform="translate(0 0) rotate(0 23.51249999999999 6.649999999999977)"><text x="23.512500000000003" y="9.081999999999999" font-family="Segoe UI Emoji" font-size="9.5px" fill="#1e293b" text-anchor="middle" style="white-space: pre;" direction="ltr" dominant-baseline="alphabetic">+id: UUID</text></g><g transform="translate(0 0) rotate(0 44.412499999999994 6.649999999999977)"><text x="44.4125" y="9.081999999999999" font-family="Segoe UI Emoji" font-size="9.5px" fill="#1e293b" text-anchor="middle" style="white-space: pre;" direction="ltr" dominant-baseline="alphabetic">+formTaskId: UUID</text></g><g transform="translate(0 0) rotate(0 47.025000000000006 6.649999999999977)"><text x="47.025000000000006" y="9.081999999999999" font-family="Segoe UI Emoji" font-size="9.5px" fill="#1e293b" text-anchor="middle" style="white-space: pre;" direction="ltr" dominant-baseline="alphabetic">+submittedBy: UUID</text></g><g transform="translate(0 0) rotate(0 57.474999999999994 6.649999999999977)"><text x="57.475" y="9.081999999999999" font-family="Segoe UI Emoji" font-size="9.5px" fill="#1e293b" text-anchor="middle" style="white-space: pre;" direction="ltr" dominant-baseline="alphabetic">+submittedAt: DateTime</text></g><g transform="translate(0 0) rotate(0 31.349999999999994 6.649999999999977)"><text x="31.35" y="9.081999999999999" font-family="Segoe UI Emoji" font-size="9.5px" fill="#1e293b" text-anchor="middle" style="white-space: pre;" direction="ltr" dominant-baseline="alphabetic">+data: JSONB</text></g><g stroke-linecap="round"><g transform="translate(0 0) rotate(0 30 -0.25)"><path d="M0 0 C10 -0.08, 50 -0.42, 60 -0.5 M0 0 C10 -0.08, 50 -0.42, 60 -0.5" stroke="#475569" stroke-width="1.5" fill="none"></path></g><g transform="translate(0 0) rotate(0 30 -0.25)"><path d="M36.58 8.25 C42.18 6.15, 47.79 4.06, 60 -0.5 M36.58 8.25 C44.35 5.34, 52.12 2.44, 60 -0.5" stroke="#475569" stroke-width="1.5" fill="none"></path></g><g transform="translate(0 0) rotate(0 30 -0.25)"><path d="M36.44 -8.85 C42.08 -6.86, 47.71 -4.86, 60 -0.5 M36.44 -8.85 C44.25 -6.08, 52.07 -3.31, 60 -0.5" stroke="#475569" stroke-width="1.5" fill="none"></path></g></g><mask></mask><g transform="translate(0 0) rotate(0 20 7)"><text x="20" y="9.559999999999999" font-family="Segoe UI Emoji" font-size="10px" fill="#64748b" text-anchor="middle" style="white-space: pre;" direction="ltr" dominant-baseline="alphabetic">1 *--</text></g><g stroke-linecap="round"><g transform="translate(0 0) rotate(0 30 124.5)"><path d="M0 0 C10 41.5, 50 207.5, 60 249 M0 0 C10 41.5, 50 207.5, 60 249" stroke="#475569" stroke-width="1.5" fill="none"></path></g><g transform="translate(0 0) rotate(0 30 124.5)"><path d="M46.18 228.16 C50.47 234.63, 54.77 241.11, 60 249 M46.18 228.16 C51.56 236.27, 56.93 244.37, 60 249" stroke="#475569" stroke-width="1.5" fill="none"></path></g><g transform="translate(0 0) rotate(0 30 124.5)"><path d="M62.81 224.16 C61.94 231.87, 61.06 239.59, 60 249 M62.81 224.16 C61.72 233.82, 60.62 243.48, 60 249" stroke="#475569" stroke-width="1.5" fill="none"></path></g></g><mask></mask><g transform="translate(0 0) rotate(0 20 7)"><text x="20" y="9.559999999999999" font-family="Segoe UI Emoji" font-size="10px" fill="#64748b" text-anchor="middle" style="white-space: pre;" direction="ltr" dominant-baseline="alphabetic">1 *--</text></g><g stroke-linecap="round"><g transform="translate(0 0) rotate(0 30 -113.75)"><path d="M0 0 C10 -37.92, 50 -189.58, 60 -227.5 M0 0 C10 -37.92, 50 -189.58, 60 -227.5" stroke="#475569" stroke-width="1.5" fill="none"></path></g><g transform="translate(0 0) rotate(0 30 -113.75)"><path d="M62.28 -202.6 C61.47 -211.44, 60.66 -220.29, 60 -227.5 M62.28 -202.6 C61.69 -209.04, 61.1 -215.48, 60 -227.5" stroke="#475569" stroke-width="1.5" fill="none"></path></g><g transform="translate(0 0) rotate(0 30 -113.75)"><path d="M45.74 -206.96 C50.8 -214.26, 55.87 -221.55, 60 -227.5 M45.74 -206.96 C49.43 -212.28, 53.12 -217.59, 60 -227.5" stroke="#475569" stroke-width="1.5" fill="none"></path></g></g><mask></mask><g transform="translate(0 0) rotate(0 20 7)"><text x="20" y="9.559999999999999" font-family="Segoe UI Emoji" font-size="10px" fill="#64748b" text-anchor="middle" style="white-space: pre;" direction="ltr" dominant-baseline="alphabetic">type</text></g><g stroke-linecap="round"><g transform="translate(0 0) rotate(0 0 NaN)"><path d="M0 0 C0 0, 0 0, 0 0 M0 0 C0 0, 0 0, 0 0" stroke="#475569" stroke-width="1.5" fill="none"></path></g><g transform="translate(0 0) rotate(0 0 NaN)"><path d="MNaN NaN CNaN NaN, NaN NaN, 0 0 MNaN NaN CNaN NaN, NaN NaN, 0 0" stroke="#475569" stroke-width="1.5" fill="none"></path></g><g transform="translate(0 0) rotate(0 0 NaN)"><path d="MNaN NaN CNaN NaN, NaN NaN, 0 0 MNaN NaN CNaN NaN, NaN NaN, 0 0" stroke="#475569" stroke-width="1.5" fill="none"></path></g></g><mask></mask><g transform="translate(0 0) rotate(0 24.75 7)"><text x="24.750000000000004" y="9.559999999999999" font-family="Segoe UI Emoji" font-size="10px" fill="#64748b" text-anchor="middle" style="white-space: pre;" direction="ltr" dominant-baseline="alphabetic">→ runtime</text></g><g stroke-linecap="round"><g transform="translate(0 0) rotate(0 0 NaN)"><path d="M0 0 C0 0, 0 0, 0 0 M0 0 C0 0, 0 0, 0 0" stroke="#475569" stroke-width="1.5" fill="none"></path></g><g transform="translate(0 0) rotate(0 0 NaN)"><path d="MNaN NaN CNaN NaN, NaN NaN, 0 0 MNaN NaN CNaN NaN, NaN NaN, 0 0" stroke="#475569" stroke-width="1.5" fill="none"></path></g><g transform="translate(0 0) rotate(0 0 NaN)"><path d="MNaN NaN CNaN NaN, NaN NaN, 0 0 MNaN NaN CNaN NaN, NaN NaN, 0 0" stroke="#475569" stroke-width="1.5" fill="none"></path></g></g><mask></mask><g transform="translate(0 0) rotate(0 20 7)"><text x="20" y="9.559999999999999" font-family="Segoe UI Emoji" font-size="10px" fill="#64748b" text-anchor="middle" style="white-space: pre;" direction="ltr" dominant-baseline="alphabetic">status</text></g><g stroke-linecap="round"><g transform="translate(0 0) rotate(0 30 43)"><path d="M0 0 C10 14.33, 50 71.67, 60 86 M0 0 C10 14.33, 50 71.67, 60 86" stroke="#475569" stroke-width="1.5" fill="none"></path></g><g transform="translate(0 0) rotate(0 30 43)"><path d="M39.55 71.63 C44.08 74.81, 48.61 78, 60 86 M39.55 71.63 C46.4 76.44, 53.26 81.26, 60 86" stroke="#475569" stroke-width="1.5" fill="none"></path></g><g transform="translate(0 0) rotate(0 30 43)"><path d="M53.57 61.84 C55 67.19, 56.42 72.55, 60 86 M53.57 61.84 C55.73 69.94, 57.88 78.04, 60 86" stroke="#475569" stroke-width="1.5" fill="none"></path></g></g><mask></mask><g transform="translate(0 0) rotate(0 20 7)"><text x="20" y="9.559999999999999" font-family="Segoe UI Emoji" font-size="10px" fill="#64748b" text-anchor="middle" style="white-space: pre;" direction="ltr" dominant-baseline="alphabetic">1 -- 1</text></g></svg>