<svg version="1.1" xmlns="http://www.w3.org/2000/svg" viewBox="0 0 908.7 764" width="908.7" height="764"><!-- svg-source:excalidraw --><metadata></metadata><defs><style class="style-fonts">
      </style></defs><rect x="0" y="0" width="908.7" height="764" fill="#f8fafc"></rect><g transform="translate(206.64999999999998 10) rotate(0 163.35000000000002 12.600000000000001)"><text x="163.35000000000002" y="17.208" font-family="Segoe UI Emoji" font-size="18px" fill="#1e293b" text-anchor="middle" style="white-space: pre;" direction="ltr" dominant-baseline="alphabetic">Axis Platform — Container Diagram</text></g><g stroke-linecap="round" transform="translate(10 54) rotate(0 330 350)"><path d="M6 0 C230.78 0, 455.56 0, 654 0 C658 0, 660 2, 660 6 C660 170.92, 660 335.84, 660 694 C660 698, 658 700, 654 700 C518.74 700, 383.49 700, 6 700 C2 700, 0 698, 0 694 C0 535.22, 0 376.44, 0 6 C0 2, 2 0, 6 0" stroke="none" stroke-width="0" fill="#f0f9ff"></path><path d="M6 0 C218.76 0, 431.52 0, 654 0 M6 0 C262.84 0, 519.68 0, 654 0 M654 0 C658 0, 660 2, 660 6 M654 0 C658 0, 660 2, 660 6 M660 6 C660 187.25, 660 368.49, 660 694 M660 6 C660 248.19, 660 490.37, 660 694 M660 694 C660 698, 658 700, 654 700 M660 694 C660 698, 658 700, 654 700 M654 700 C509.08 700, 364.15 700, 6 700 M654 700 C510.13 700, 366.27 700, 6 700 M6 700 C2 700, 0 698, 0 694 M6 700 C2 700, 0 698, 0 694 M0 694 C0 534.59, 0 375.17, 0 6 M0 694 C0 546.11, 0 398.22, 0 6 M0 6 C0 2, 2 0, 6 0 M0 6 C0 2, 2 0, 6 0" stroke="#3b82f6" stroke-width="1.5" fill="none"></path></g><g transform="translate(170.60000000000002 72) rotate(0 169.40000000000003 9.799999999999997)"><text x="169.4" y="13.383999999999999" font-family="Segoe UI Emoji" font-size="14px" fill="#3b82f6" text-anchor="middle" style="white-space: pre;" direction="ltr" dominant-baseline="alphabetic">API Server — ASP.NET Core 8 Modular Monolith</text></g><g stroke-linecap="round" transform="translate(30 104) rotate(0 70 35)"><path d="M6 0 C50.94 0, 95.89 0, 134 0 C138 0, 140 2, 140 6 C140 22.69, 140 39.38, 140 64 C140 68, 138 70, 134 70 C83.32 70, 32.64 70, 6 70 C2 70, 0 68, 0 64 C0 44.4, 0 24.8, 0 6 C0 2, 2 0, 6 0" stroke="none" stroke-width="0" fill="#dcfce7"></path><path d="M6 0 C38.97 0, 71.94 0, 134 0 M6 0 C40.52 0, 75.04 0, 134 0 M134 0 C138 0, 140 2, 140 6 M134 0 C138 0, 140 2, 140 6 M140 6 C140 25.84, 140 45.69, 140 64 M140 6 C140 23.18, 140 40.36, 140 64 M140 64 C140 68, 138 70, 134 70 M140 64 C140 68, 138 70, 134 70 M134 70 C94.64 70, 55.27 70, 6 70 M134 70 C85.57 70, 37.14 70, 6 70 M6 70 C2 70, 0 68, 0 64 M6 70 C2 70, 0 68, 0 64 M0 64 C0 47.79, 0 31.59, 0 6 M0 64 C0 48.7, 0 33.4, 0 6 M0 6 C0 2, 2 0, 6 0 M0 6 C0 2, 2 0, 6 0" stroke="#16a34a" stroke-width="1.5" fill="none"></path></g><g transform="translate(73.60000000000002 133) rotate(0 26.400000000000006 8.400000000000006)"><text x="26.400000000000002" y="11.471999999999998" font-family="Segoe UI Emoji" font-size="12px" fill="#1e293b" text-anchor="middle" style="white-space: pre;" direction="ltr" dominant-baseline="alphabetic">Identity</text></g><g stroke-linecap="round" transform="translate(190 104) rotate(0 70 35)"><path d="M6 0 C39.04 0, 72.08 0, 134 0 C138 0, 140 2, 140 6 C140 19.82, 140 33.63, 140 64 C140 68, 138 70, 134 70 C104.16 70, 74.31 70, 6 70 C2 70, 0 68, 0 64 C0 41.03, 0 18.06, 0 6 C0 2, 2 0, 6 0" stroke="none" stroke-width="0" fill="#dcfce7"></path><path d="M6 0 C43.9 0, 81.8 0, 134 0 M6 0 C31.69 0, 57.38 0, 134 0 M134 0 C138 0, 140 2, 140 6 M134 0 C138 0, 140 2, 140 6 M140 6 C140 27.57, 140 49.14, 140 64 M140 6 C140 22.19, 140 38.37, 140 64 M140 64 C140 68, 138 70, 134 70 M140 64 C140 68, 138 70, 134 70 M134 70 C101.75 70, 69.49 70, 6 70 M134 70 C84.05 70, 34.1 70, 6 70 M6 70 C2 70, 0 68, 0 64 M6 70 C2 70, 0 68, 0 64 M0 64 C0 51.88, 0 39.77, 0 6 M0 64 C0 46.17, 0 28.34, 0 6 M0 6 C0 2, 2 0, 6 0 M0 6 C0 2, 2 0, 6 0" stroke="#16a34a" stroke-width="1.5" fill="none"></path></g><g transform="translate(220.39999999999998 133) rotate(0 39.599999999999994 8.400000000000006)"><text x="39.6" y="11.471999999999998" font-family="Segoe UI Emoji" font-size="12px" fill="#1e293b" text-anchor="middle" style="white-space: pre;" direction="ltr" dominant-baseline="alphabetic">DataModeling</text></g><g stroke-linecap="round" transform="translate(370 104) rotate(0 70 35)"><path d="M6 0 C34.52 0, 63.04 0, 134 0 C138 0, 140 2, 140 6 C140 28.67, 140 51.34, 140 64 C140 68, 138 70, 134 70 C92.78 70, 51.57 70, 6 70 C2 70, 0 68, 0 64 C0 49.06, 0 34.11, 0 6 C0 2, 2 0, 6 0" stroke="none" stroke-width="0" fill="#dcfce7"></path><path d="M6 0 C31.86 0, 57.72 0, 134 0 M6 0 C46.21 0, 86.41 0, 134 0 M134 0 C138 0, 140 2, 140 6 M134 0 C138 0, 140 2, 140 6 M140 6 C140 22.45, 140 38.9, 140 64 M140 6 C140 27, 140 47.99, 140 64 M140 64 C140 68, 138 70, 134 70 M140 64 C140 68, 138 70, 134 70 M134 70 C100.92 70, 67.85 70, 6 70 M134 70 C95.3 70, 56.59 70, 6 70 M6 70 C2 70, 0 68, 0 64 M6 70 C2 70, 0 68, 0 64 M0 64 C0 48.72, 0 33.43, 0 6 M0 64 C0 48.95, 0 33.91, 0 6 M0 6 C0 2, 2 0, 6 0 M0 6 C0 2, 2 0, 6 0" stroke="#16a34a" stroke-width="1.5" fill="none"></path></g><g transform="translate(390.5 133) rotate(0 49.5 8.400000000000006)"><text x="49.50000000000001" y="11.471999999999998" font-family="Segoe UI Emoji" font-size="12px" fill="#1e293b" text-anchor="middle" style="white-space: pre;" direction="ltr" dominant-baseline="alphabetic">WorkflowBuilder</text></g><g stroke-linecap="round" transform="translate(30 204) rotate(0 70 35)"><path d="M6 0 C31.75 0, 57.5 0, 134 0 C138 0, 140 2, 140 6 C140 20.92, 140 35.84, 140 64 C140 68, 138 70, 134 70 C102.96 70, 71.92 70, 6 70 C2 70, 0 68, 0 64 C0 45.55, 0 27.1, 0 6 C0 2, 2 0, 6 0" stroke="none" stroke-width="0" fill="#dcfce7"></path><path d="M6 0 C38.59 0, 71.19 0, 134 0 M6 0 C33.87 0, 61.73 0, 134 0 M134 0 C138 0, 140 2, 140 6 M134 0 C138 0, 140 2, 140 6 M140 6 C140 17.64, 140 29.27, 140 64 M140 6 C140 22.58, 140 39.17, 140 64 M140 64 C140 68, 138 70, 134 70 M140 64 C140 68, 138 70, 134 70 M134 70 C88.97 70, 43.95 70, 6 70 M134 70 C92.17 70, 50.34 70, 6 70 M6 70 C2 70, 0 68, 0 64 M6 70 C2 70, 0 68, 0 64 M0 64 C0 50.83, 0 37.67, 0 6 M0 64 C0 43.95, 0 23.89, 0 6 M0 6 C0 2, 2 0, 6 0 M0 6 C0 2, 2 0, 6 0" stroke="#16a34a" stroke-width="1.5" fill="none"></path></g><g transform="translate(63.69999999999999 233) rotate(0 36.30000000000001 8.400000000000006)"><text x="36.300000000000004" y="11.471999999999998" font-family="Segoe UI Emoji" font-size="12px" fill="#1e293b" text-anchor="middle" style="white-space: pre;" direction="ltr" dominant-baseline="alphabetic">FormBuilder</text></g><g stroke-linecap="round" transform="translate(210 204) rotate(0 70 35)"><path d="M6 0 C53.26 0, 100.53 0, 134 0 C138 0, 140 2, 140 6 C140 21.42, 140 36.85, 140 64 C140 68, 138 70, 134 70 C86.86 70, 39.72 70, 6 70 C2 70, 0 68, 0 64 C0 47.16, 0 30.32, 0 6 C0 2, 2 0, 6 0" stroke="none" stroke-width="0" fill="#dcfce7"></path><path d="M6 0 C52.77 0, 99.54 0, 134 0 M6 0 C36.27 0, 66.55 0, 134 0 M134 0 C138 0, 140 2, 140 6 M134 0 C138 0, 140 2, 140 6 M140 6 C140 20.93, 140 35.85, 140 64 M140 6 C140 26.12, 140 46.25, 140 64 M140 64 C140 68, 138 70, 134 70 M140 64 C140 68, 138 70, 134 70 M134 70 C90.05 70, 46.09 70, 6 70 M134 70 C85.04 70, 36.08 70, 6 70 M6 70 C2 70, 0 68, 0 64 M6 70 C2 70, 0 68, 0 64 M0 64 C0 49.25, 0 34.49, 0 6 M0 64 C0 44.28, 0 24.56, 0 6 M0 6 C0 2, 2 0, 6 0 M0 6 C0 2, 2 0, 6 0" stroke="#16a34a" stroke-width="1.5" fill="none"></path></g><g transform="translate(233.8 233) rotate(0 46.20000000000002 8.400000000000006)"><text x="46.2" y="11.471999999999998" font-family="Segoe UI Emoji" font-size="12px" fill="#1e293b" text-anchor="middle" style="white-space: pre;" direction="ltr" dominant-baseline="alphabetic">WorkflowEngine</text></g><g stroke-linecap="round" transform="translate(430 204) rotate(0 70 35)"><path d="M6 0 C53.62 0, 101.25 0, 134 0 C138 0, 140 2, 140 6 C140 25.66, 140 45.31, 140 64 C140 68, 138 70, 134 70 C85.15 70, 36.3 70, 6 70 C2 70, 0 68, 0 64 C0 47.89, 0 31.77, 0 6 C0 2, 2 0, 6 0" stroke="none" stroke-width="0" fill="#dcfce7"></path><path d="M6 0 C34.48 0, 62.96 0, 134 0 M6 0 C41.57 0, 77.15 0, 134 0 M134 0 C138 0, 140 2, 140 6 M134 0 C138 0, 140 2, 140 6 M140 6 C140 24.08, 140 42.15, 140 64 M140 6 C140 27.57, 140 49.15, 140 64 M140 64 C140 68, 138 70, 134 70 M140 64 C140 68, 138 70, 134 70 M134 70 C90.41 70, 46.81 70, 6 70 M134 70 C100.86 70, 67.72 70, 6 70 M6 70 C2 70, 0 68, 0 64 M6 70 C2 70, 0 68, 0 64 M0 64 C0 52.35, 0 40.71, 0 6 M0 64 C0 41.04, 0 18.08, 0 6 M0 6 C0 2, 2 0, 6 0 M0 6 C0 2, 2 0, 6 0" stroke="#16a34a" stroke-width="1.5" fill="none"></path></g><g transform="translate(463.70000000000005 233) rotate(0 36.30000000000001 8.400000000000006)"><text x="36.300000000000004" y="11.471999999999998" font-family="Segoe UI Emoji" font-size="12px" fill="#1e293b" text-anchor="middle" style="white-space: pre;" direction="ltr" dominant-baseline="alphabetic">PageBuilder</text></g><g stroke-linecap="round" transform="translate(30 314) rotate(0 310 40)"><path d="M6 0 C234.52 0, 463.03 0, 614 0 C618 0, 620 2, 620 6 C620 26.61, 620 47.23, 620 74 C620 78, 618 80, 614 80 C483 80, 352 80, 6 80 C2 80, 0 78, 0 74 C0 50.99, 0 27.98, 0 6 C0 2, 2 0, 6 0" stroke="none" stroke-width="0" fill="#fef9c3"></path><path d="M6 0 C151.19 0, 296.39 0, 614 0 M6 0 C195.4 0, 384.79 0, 614 0 M614 0 C618 0, 620 2, 620 6 M614 0 C618 0, 620 2, 620 6 M620 6 C620 27.93, 620 49.86, 620 74 M620 6 C620 20.3, 620 34.6, 620 74 M620 74 C620 78, 618 80, 614 80 M620 74 C620 78, 618 80, 614 80 M614 80 C418.25 80, 222.51 80, 6 80 M614 80 C385.42 80, 156.84 80, 6 80 M6 80 C2 80, 0 78, 0 74 M6 80 C2 80, 0 78, 0 74 M0 74 C0 52.86, 0 31.71, 0 6 M0 74 C0 56.77, 0 39.53, 0 6 M0 6 C0 2, 2 0, 6 0 M0 6 C0 2, 2 0, 6 0" stroke="#ca8a04" stroke-width="1.5" fill="none"></path></g><g transform="translate(171.7 338) rotate(0 168.29999999999998 8.400000000000006)"><text x="168.3" y="11.471999999999998" font-family="Segoe UI Emoji" font-size="12px" fill="#1e293b" text-anchor="middle" style="white-space: pre;" direction="ltr" dominant-baseline="alphabetic">Wolverine — Event Bus + Durable Outbox (per-module)</text></g><g transform="translate(103.5 357) rotate(0 236.5 7)"><text x="236.50000000000003" y="9.559999999999999" font-family="Segoe UI Emoji" font-size="10px" fill="#64748b" text-anchor="middle" style="white-space: pre;" direction="ltr" dominant-baseline="alphabetic">In-process relay · At-least-once delivery · Per-module outbox tables in each module DB</text></g><g stroke-linecap="round" transform="translate(30 424) rotate(0 140 30)"><path d="M6 0 C88.28 0, 170.55 0, 274 0 C278 0, 280 2, 280 6 C280 22.34, 280 38.67, 280 54 C280 58, 278 60, 274 60 C206.76 60, 139.51 60, 6 60 C2 60, 0 58, 0 54 C0 37.79, 0 21.58, 0 6 C0 2, 2 0, 6 0" stroke="none" stroke-width="0" fill="#dbeafe"></path><path d="M6 0 C94.78 0, 183.56 0, 274 0 M6 0 C79.82 0, 153.64 0, 274 0 M274 0 C278 0, 280 2, 280 6 M274 0 C278 0, 280 2, 280 6 M280 6 C280 17.15, 280 28.3, 280 54 M280 6 C280 18.68, 280 31.37, 280 54 M280 54 C280 58, 278 60, 274 60 M280 54 C280 58, 278 60, 274 60 M274 60 C219.07 60, 164.14 60, 6 60 M274 60 C187.7 60, 101.4 60, 6 60 M6 60 C2 60, 0 58, 0 54 M6 60 C2 60, 0 58, 0 54 M0 54 C0 41.59, 0 29.19, 0 6 M0 54 C0 43.73, 0 33.47, 0 6 M0 6 C0 2, 2 0, 6 0 M0 6 C0 2, 2 0, 6 0" stroke="#3b82f6" stroke-width="1.5" fill="none"></path></g><g transform="translate(119.94999999999999 437.5) rotate(0 50.05000000000001 9.099999999999994)"><text x="50.050000000000004" y="12.427999999999999" font-family="Segoe UI Emoji" font-size="13px" fill="#1e293b" text-anchor="middle" style="white-space: pre;" direction="ltr" dominant-baseline="alphabetic">OpenIddict 5.x</text></g><g transform="translate(29.75 457) rotate(0 140.25 7)"><text x="140.25" y="9.559999999999999" font-family="Segoe UI Emoji" font-size="10px" fill="#64748b" text-anchor="middle" style="white-space: pre;" direction="ltr" dominant-baseline="alphabetic">OAuth2/OIDC · Auth Code + PKCE · Client Credentials</text></g><g stroke-linecap="round" transform="translate(350 424) rotate(0 150 30)"><path d="M6 0 C89.15 0, 172.3 0, 294 0 C298 0, 300 2, 300 6 C300 16.84, 300 27.68, 300 54 C300 58, 298 60, 294 60 C230.91 60, 167.82 60, 6 60 C2 60, 0 58, 0 54 C0 37.77, 0 21.55, 0 6 C0 2, 2 0, 6 0" stroke="none" stroke-width="0" fill="#dbeafe"></path><path d="M6 0 C101.26 0, 196.52 0, 294 0 M6 0 C87.83 0, 169.66 0, 294 0 M294 0 C298 0, 300 2, 300 6 M294 0 C298 0, 300 2, 300 6 M300 6 C300 19.9, 300 33.8, 300 54 M300 6 C300 16.91, 300 27.82, 300 54 M300 54 C300 58, 298 60, 294 60 M300 54 C300 58, 298 60, 294 60 M294 60 C217.59 60, 141.17 60, 6 60 M294 60 C188.61 60, 83.21 60, 6 60 M6 60 C2 60, 0 58, 0 54 M6 60 C2 60, 0 58, 0 54 M0 54 C0 43.31, 0 32.63, 0 6 M0 54 C0 38.08, 0 22.16, 0 6 M0 6 C0 2, 2 0, 6 0 M0 6 C0 2, 2 0, 6 0" stroke="#3b82f6" stroke-width="1.5" fill="none"></path></g><g transform="translate(474.975 437.5) rotate(0 25.024999999999977 9.099999999999994)"><text x="25.025000000000002" y="12.427999999999999" font-family="Segoe UI Emoji" font-size="13px" fill="#1e293b" text-anchor="middle" style="white-space: pre;" direction="ltr" dominant-baseline="alphabetic">SignalR</text></g><g transform="translate(428.5 457) rotate(0 71.5 7)"><text x="71.5" y="9.559999999999999" font-family="Segoe UI Emoji" font-size="10px" fill="#64748b" text-anchor="middle" style="white-space: pre;" direction="ltr" dominant-baseline="alphabetic">Real-time execution status</text></g><g stroke-linecap="round" transform="translate(10 514) rotate(0 330 30)"><path d="M6 0 C213.64 0, 421.27 0, 654 0 C658 0, 660 2, 660 6 C660 22.3, 660 38.59, 660 54 C660 58, 658 60, 654 60 C455.03 60, 256.06 60, 6 60 C2 60, 0 58, 0 54 C0 42.23, 0 30.45, 0 6 C0 2, 2 0, 6 0" stroke="none" stroke-width="0" fill="#dbeafe"></path><path d="M6 0 C156.13 0, 306.26 0, 654 0 M6 0 C183.1 0, 360.2 0, 654 0 M654 0 C658 0, 660 2, 660 6 M654 0 C658 0, 660 2, 660 6 M660 6 C660 25.15, 660 44.29, 660 54 M660 6 C660 15.95, 660 25.91, 660 54 M660 54 C660 58, 658 60, 654 60 M660 54 C660 58, 658 60, 654 60 M654 60 C461.71 60, 269.41 60, 6 60 M654 60 C448.87 60, 243.75 60, 6 60 M6 60 C2 60, 0 58, 0 54 M6 60 C2 60, 0 58, 0 54 M0 54 C0 44.16, 0 34.32, 0 6 M0 54 C0 43.95, 0 33.9, 0 6 M0 6 C0 2, 2 0, 6 0 M0 6 C0 2, 2 0, 6 0" stroke="#3b82f6" stroke-width="1.5" fill="none"></path></g><g transform="translate(286.375 527.5) rotate(0 53.625 9.100000000000023)"><text x="53.62500000000001" y="12.427999999999999" font-family="Segoe UI Emoji" font-size="13px" fill="#1e293b" text-anchor="middle" style="white-space: pre;" direction="ltr" dominant-baseline="alphabetic">Web Application</text></g><g transform="translate(92.5 547) rotate(0 247.5 7)"><text x="247.50000000000003" y="9.559999999999999" font-family="Segoe UI Emoji" font-size="10px" fill="#64748b" text-anchor="middle" style="white-space: pre;" direction="ltr" dominant-baseline="alphabetic">React 18 + TypeScript + Vite · shadcn/ui · React Flow · dnd-kit · TanStack Query · Zustand</text></g><g transform="translate(641.3 57.5) rotate(0 128.70000000000005 9.100000000000001)"><text x="128.70000000000002" y="12.427999999999999" font-family="Segoe UI Emoji" font-size="13px" fill="#ea580c" text-anchor="middle" style="white-space: pre;" direction="ltr" dominant-baseline="alphabetic">Per-Module Databases (PostgreSQL 16)</text></g><g stroke-linecap="round" transform="translate(690 94) rotate(0 90 27.5)"><path d="M6 0 C69.59 0, 133.19 0, 174 0 C178 0, 180 2, 180 6 C180 15.55, 180 25.11, 180 49 C180 53, 178 55, 174 55 C114.15 55, 54.3 55, 6 55 C2 55, 0 53, 0 49 C0 32.44, 0 15.88, 0 6 C0 2, 2 0, 6 0" stroke="none" stroke-width="0" fill="#ffedd5"></path><path d="M6 0 C46.46 0, 86.93 0, 174 0 M6 0 C51.96 0, 97.92 0, 174 0 M174 0 C178 0, 180 2, 180 6 M174 0 C178 0, 180 2, 180 6 M180 6 C180 21.64, 180 37.28, 180 49 M180 6 C180 17.95, 180 29.91, 180 49 M180 49 C180 53, 178 55, 174 55 M180 49 C180 53, 178 55, 174 55 M174 55 C120 55, 66.01 55, 6 55 M174 55 C136.92 55, 99.84 55, 6 55 M6 55 C2 55, 0 53, 0 49 M6 55 C2 55, 0 53, 0 49 M0 49 C0 33.7, 0 18.41, 0 6 M0 49 C0 40.37, 0 31.75, 0 6 M0 6 C0 2, 2 0, 6 0 M0 6 C0 2, 2 0, 6 0" stroke="#ea580c" stroke-width="1.5" fill="none"></path></g><g transform="translate(740.675 106) rotate(0 39.32499999999999 7.700000000000003)"><text x="39.325" y="10.515999999999998" font-family="Segoe UI Emoji" font-size="11px" fill="#1e293b" text-anchor="middle" style="white-space: pre;" direction="ltr" dominant-baseline="alphabetic">axis_identity</text></g><g transform="translate(744.25 124.5) rotate(0 35.75 7)"><text x="35.75" y="9.559999999999999" font-family="Segoe UI Emoji" font-size="10px" fill="#64748b" text-anchor="middle" style="white-space: pre;" direction="ltr" dominant-baseline="alphabetic">public schema</text></g><g stroke-linecap="round"><g transform="translate(670 122) rotate(0 5 0)"><path d="M0 0 C1.67 0, 8.33 0, 10 0 M0 0 C1.67 0, 8.33 0, 10 0" stroke="#ea580c" stroke-width="1.5" fill="none"></path></g><g transform="translate(670 122) rotate(0 5 0)"><path d="M5.3 1.71 C6.27 1.36, 7.24 1, 10 0 M5.3 1.71 C6.47 1.28, 7.64 0.86, 10 0" stroke="#ea580c" stroke-width="1.5" fill="none"></path></g><g transform="translate(670 122) rotate(0 5 0)"><path d="M5.3 -1.71 C6.27 -1.36, 7.24 -1, 10 0 M5.3 -1.71 C6.47 -1.28, 7.64 -0.86, 10 0" stroke="#ea580c" stroke-width="1.5" fill="none"></path></g></g><mask></mask><g stroke-linecap="round" transform="translate(690 164) rotate(0 90 27.5)"><path d="M6 0 C69.19 0, 132.38 0, 174 0 C178 0, 180 2, 180 6 C180 15.19, 180 24.37, 180 49 C180 53, 178 55, 174 55 C120.23 55, 66.46 55, 6 55 C2 55, 0 53, 0 49 C0 33.22, 0 17.45, 0 6 C0 2, 2 0, 6 0" stroke="none" stroke-width="0" fill="#ffedd5"></path><path d="M6 0 C39.79 0, 73.58 0, 174 0 M6 0 C60.85 0, 115.69 0, 174 0 M174 0 C178 0, 180 2, 180 6 M174 0 C178 0, 180 2, 180 6 M180 6 C180 21.4, 180 36.79, 180 49 M180 6 C180 22.81, 180 39.62, 180 49 M180 49 C180 53, 178 55, 174 55 M180 49 C180 53, 178 55, 174 55 M174 55 C123.19 55, 72.38 55, 6 55 M174 55 C117 55, 60.01 55, 6 55 M6 55 C2 55, 0 53, 0 49 M6 55 C2 55, 0 53, 0 49 M0 49 C0 39.73, 0 30.47, 0 6 M0 49 C0 39.21, 0 29.41, 0 6 M0 6 C0 2, 2 0, 6 0 M0 6 C0 2, 2 0, 6 0" stroke="#ea580c" stroke-width="1.5" fill="none"></path></g><g transform="translate(758.825 176) rotate(0 21.17500000000001 7.700000000000003)"><text x="21.175" y="10.515999999999998" font-family="Segoe UI Emoji" font-size="11px" fill="#1e293b" text-anchor="middle" style="white-space: pre;" direction="ltr" dominant-baseline="alphabetic">axis_wb</text></g><g transform="translate(711.25 194.5) rotate(0 68.75 7)"><text x="68.75" y="9.559999999999999" font-family="Segoe UI Emoji" font-size="10px" fill="#64748b" text-anchor="middle" style="white-space: pre;" direction="ltr" dominant-baseline="alphabetic">wolverine schema (outbox)</text></g><g stroke-linecap="round"><g transform="translate(670 192) rotate(0 5 0)"><path d="M0 0 C1.67 0, 8.33 0, 10 0 M0 0 C1.67 0, 8.33 0, 10 0" stroke="#ea580c" stroke-width="1.5" fill="none"></path></g><g transform="translate(670 192) rotate(0 5 0)"><path d="M5.3 1.71 C7.15 1.04, 9 0.36, 10 0 M5.3 1.71 C6.59 1.24, 7.88 0.77, 10 0" stroke="#ea580c" stroke-width="1.5" fill="none"></path></g><g transform="translate(670 192) rotate(0 5 0)"><path d="M5.3 -1.71 C7.15 -1.04, 9 -0.36, 10 0 M5.3 -1.71 C6.59 -1.24, 7.88 -0.77, 10 0" stroke="#ea580c" stroke-width="1.5" fill="none"></path></g></g><mask></mask><g stroke-linecap="round" transform="translate(690 234) rotate(0 90 27.5)"><path d="M6 0 C42.06 0, 78.11 0, 174 0 C178 0, 180 2, 180 6 C180 22.55, 180 39.1, 180 49 C180 53, 178 55, 174 55 C127.03 55, 80.06 55, 6 55 C2 55, 0 53, 0 49 C0 39.05, 0 29.11, 0 6 C0 2, 2 0, 6 0" stroke="none" stroke-width="0" fill="#ffedd5"></path><path d="M6 0 C54.94 0, 103.88 0, 174 0 M6 0 C51.57 0, 97.15 0, 174 0 M174 0 C178 0, 180 2, 180 6 M174 0 C178 0, 180 2, 180 6 M180 6 C180 21.78, 180 37.56, 180 49 M180 6 C180 15.34, 180 24.67, 180 49 M180 49 C180 53, 178 55, 174 55 M180 49 C180 53, 178 55, 174 55 M174 55 C108.12 55, 42.24 55, 6 55 M174 55 C111.3 55, 48.59 55, 6 55 M6 55 C2 55, 0 53, 0 49 M6 55 C2 55, 0 53, 0 49 M0 49 C0 34.78, 0 20.57, 0 6 M0 49 C0 37.11, 0 25.22, 0 6 M0 6 C0 2, 2 0, 6 0 M0 6 C0 2, 2 0, 6 0" stroke="#ea580c" stroke-width="1.5" fill="none"></path></g><g transform="translate(758.825 246) rotate(0 21.17500000000001 7.699999999999989)"><text x="21.175" y="10.515999999999998" font-family="Segoe UI Emoji" font-size="11px" fill="#1e293b" text-anchor="middle" style="white-space: pre;" direction="ltr" dominant-baseline="alphabetic">axis_we</text></g><g transform="translate(711.25 264.5) rotate(0 68.75 7)"><text x="68.75" y="9.559999999999999" font-family="Segoe UI Emoji" font-size="10px" fill="#64748b" text-anchor="middle" style="white-space: pre;" direction="ltr" dominant-baseline="alphabetic">wolverine schema (outbox)</text></g><g stroke-linecap="round"><g transform="translate(670 262) rotate(0 5 0)"><path d="M0 0 C1.67 0, 8.33 0, 10 0 M0 0 C1.67 0, 8.33 0, 10 0" stroke="#ea580c" stroke-width="1.5" fill="none"></path></g><g transform="translate(670 262) rotate(0 5 0)"><path d="M5.3 1.71 C7.11 1.05, 8.91 0.4, 10 0 M5.3 1.71 C6.54 1.26, 7.78 0.81, 10 0" stroke="#ea580c" stroke-width="1.5" fill="none"></path></g><g transform="translate(670 262) rotate(0 5 0)"><path d="M5.3 -1.71 C7.11 -1.05, 8.91 -0.4, 10 0 M5.3 -1.71 C6.54 -1.26, 7.78 -0.81, 10 0" stroke="#ea580c" stroke-width="1.5" fill="none"></path></g></g><mask></mask><g stroke-linecap="round" transform="translate(690 304) rotate(0 90 27.5)"><path d="M6 0 C42.92 0, 79.84 0, 174 0 C178 0, 180 2, 180 6 C180 17.81, 180 29.62, 180 49 C180 53, 178 55, 174 55 C114.83 55, 55.66 55, 6 55 C2 55, 0 53, 0 49 C0 32.95, 0 16.9, 0 6 C0 2, 2 0, 6 0" stroke="none" stroke-width="0" fill="#ffedd5"></path><path d="M6 0 C66.87 0, 127.74 0, 174 0 M6 0 C43.75 0, 81.5 0, 174 0 M174 0 C178 0, 180 2, 180 6 M174 0 C178 0, 180 2, 180 6 M180 6 C180 22.8, 180 39.61, 180 49 M180 6 C180 16.79, 180 27.59, 180 49 M180 49 C180 53, 178 55, 174 55 M180 49 C180 53, 178 55, 174 55 M174 55 C120.67 55, 67.34 55, 6 55 M174 55 C130.94 55, 87.88 55, 6 55 M6 55 C2 55, 0 53, 0 49 M6 55 C2 55, 0 53, 0 49 M0 49 C0 31.9, 0 14.8, 0 6 M0 49 C0 34.83, 0 20.66, 0 6 M0 6 C0 2, 2 0, 6 0 M0 6 C0 2, 2 0, 6 0" stroke="#ea580c" stroke-width="1.5" fill="none"></path></g><g transform="translate(758.825 316) rotate(0 21.17500000000001 7.699999999999989)"><text x="21.175" y="10.515999999999998" font-family="Segoe UI Emoji" font-size="11px" fill="#1e293b" text-anchor="middle" style="white-space: pre;" direction="ltr" dominant-baseline="alphabetic">axis_fb</text></g><g transform="translate(711.25 334.5) rotate(0 68.75 7)"><text x="68.75" y="9.559999999999999" font-family="Segoe UI Emoji" font-size="10px" fill="#64748b" text-anchor="middle" style="white-space: pre;" direction="ltr" dominant-baseline="alphabetic">wolverine schema (outbox)</text></g><g stroke-linecap="round"><g transform="translate(670 332) rotate(0 5 0)"><path d="M0 0 C1.67 0, 8.33 0, 10 0 M0 0 C1.67 0, 8.33 0, 10 0" stroke="#ea580c" stroke-width="1.5" fill="none"></path></g><g transform="translate(670 332) rotate(0 5 0)"><path d="M5.3 1.71 C6.75 1.18, 8.2 0.65, 10 0 M5.3 1.71 C6.8 1.16, 8.3 0.62, 10 0" stroke="#ea580c" stroke-width="1.5" fill="none"></path></g><g transform="translate(670 332) rotate(0 5 0)"><path d="M5.3 -1.71 C6.75 -1.18, 8.2 -0.65, 10 0 M5.3 -1.71 C6.8 -1.16, 8.3 -0.62, 10 0" stroke="#ea580c" stroke-width="1.5" fill="none"></path></g></g><mask></mask><g stroke-linecap="round" transform="translate(690 374) rotate(0 90 27.5)"><path d="M6 0 C66.36 0, 126.71 0, 174 0 C178 0, 180 2, 180 6 C180 22.75, 180 39.49, 180 49 C180 53, 178 55, 174 55 C123.45 55, 72.89 55, 6 55 C2 55, 0 53, 0 49 C0 37.74, 0 26.48, 0 6 C0 2, 2 0, 6 0" stroke="none" stroke-width="0" fill="#ffedd5"></path><path d="M6 0 C61.53 0, 117.06 0, 174 0 M6 0 C64.01 0, 122.03 0, 174 0 M174 0 C178 0, 180 2, 180 6 M174 0 C178 0, 180 2, 180 6 M180 6 C180 17.05, 180 28.11, 180 49 M180 6 C180 14.92, 180 23.83, 180 49 M180 49 C180 53, 178 55, 174 55 M180 49 C180 53, 178 55, 174 55 M174 55 C120.44 55, 66.87 55, 6 55 M174 55 C108.51 55, 43.03 55, 6 55 M6 55 C2 55, 0 53, 0 49 M6 55 C2 55, 0 53, 0 49 M0 49 C0 38.03, 0 27.06, 0 6 M0 49 C0 34.57, 0 20.14, 0 6 M0 6 C0 2, 2 0, 6 0 M0 6 C0 2, 2 0, 6 0" stroke="#ea580c" stroke-width="1.5" fill="none"></path></g><g transform="translate(758.825 386) rotate(0 21.17500000000001 7.699999999999989)"><text x="21.175" y="10.515999999999998" font-family="Segoe UI Emoji" font-size="11px" fill="#1e293b" text-anchor="middle" style="white-space: pre;" direction="ltr" dominant-baseline="alphabetic">axis_dm</text></g><g transform="translate(744.25 404.5) rotate(0 35.75 7)"><text x="35.75" y="9.559999999999999" font-family="Segoe UI Emoji" font-size="10px" fill="#64748b" text-anchor="middle" style="white-space: pre;" direction="ltr" dominant-baseline="alphabetic">tenant schema</text></g><g stroke-linecap="round"><g transform="translate(670 402) rotate(0 5 0)"><path d="M0 0 C1.67 0, 8.33 0, 10 0 M0 0 C1.67 0, 8.33 0, 10 0" stroke="#ea580c" stroke-width="1.5" fill="none"></path></g><g transform="translate(670 402) rotate(0 5 0)"><path d="M5.3 1.71 C6.3 1.35, 7.29 0.99, 10 0 M5.3 1.71 C6.98 1.1, 8.65 0.49, 10 0" stroke="#ea580c" stroke-width="1.5" fill="none"></path></g><g transform="translate(670 402) rotate(0 5 0)"><path d="M5.3 -1.71 C6.3 -1.35, 7.29 -0.99, 10 0 M5.3 -1.71 C6.98 -1.1, 8.65 -0.49, 10 0" stroke="#ea580c" stroke-width="1.5" fill="none"></path></g></g><mask></mask><g stroke-linecap="round" transform="translate(690 454) rotate(0 90 27.5)"><path d="M6 0 C44.01 0, 82.02 0, 174 0 C178 0, 180 2, 180 6 C180 16.3, 180 26.59, 180 49 C180 53, 178 55, 174 55 C118.2 55, 62.39 55, 6 55 C2 55, 0 53, 0 49 C0 32.01, 0 15.01, 0 6 C0 2, 2 0, 6 0" stroke="none" stroke-width="0" fill="#ffedd5"></path><path d="M6 0 C65.09 0, 124.17 0, 174 0 M6 0 C43 0, 79.99 0, 174 0 M174 0 C178 0, 180 2, 180 6 M174 0 C178 0, 180 2, 180 6 M180 6 C180 16.34, 180 26.68, 180 49 M180 6 C180 18.36, 180 30.73, 180 49 M180 49 C180 53, 178 55, 174 55 M180 49 C180 53, 178 55, 174 55 M174 55 C125.42 55, 76.84 55, 6 55 M174 55 C130.98 55, 87.95 55, 6 55 M6 55 C2 55, 0 53, 0 49 M6 55 C2 55, 0 53, 0 49 M0 49 C0 37.54, 0 26.08, 0 6 M0 49 C0 39.16, 0 29.32, 0 6 M0 6 C0 2, 2 0, 6 0 M0 6 C0 2, 2 0, 6 0" stroke="#ea580c" stroke-width="1.5" fill="none"></path></g><g transform="translate(754.975 465) rotate(0 25.024999999999977 9.099999999999994)"><text x="25.025000000000002" y="12.427999999999999" font-family="Segoe UI Emoji" font-size="13px" fill="#1e293b" text-anchor="middle" style="white-space: pre;" direction="ltr" dominant-baseline="alphabetic">Redis 7</text></g><g transform="translate(700.25 484.5) rotate(0 79.75 7)"><text x="79.75" y="9.559999999999999" font-family="Segoe UI Emoji" font-size="10px" fill="#64748b" text-anchor="middle" style="white-space: pre;" direction="ltr" dominant-baseline="alphabetic">Cache · Session · Schema name</text></g><g stroke-linecap="round" transform="translate(690 534) rotate(0 90 27.5)"><path d="M6 0 C49.06 0, 92.13 0, 174 0 C178 0, 180 2, 180 6 C180 17.9, 180 29.8, 180 49 C180 53, 178 55, 174 55 C138.24 55, 102.48 55, 6 55 C2 55, 0 53, 0 49 C0 35.15, 0 21.29, 0 6 C0 2, 2 0, 6 0" stroke="none" stroke-width="0" fill="#f3e8ff"></path><path d="M6 0 C41.73 0, 77.45 0, 174 0 M6 0 C50.12 0, 94.23 0, 174 0 M174 0 C178 0, 180 2, 180 6 M174 0 C178 0, 180 2, 180 6 M180 6 C180 17.57, 180 29.13, 180 49 M180 6 C180 19.09, 180 32.19, 180 49 M180 49 C180 53, 178 55, 174 55 M180 49 C180 53, 178 55, 174 55 M174 55 C120.57 55, 67.14 55, 6 55 M174 55 C117.85 55, 61.7 55, 6 55 M6 55 C2 55, 0 53, 0 49 M6 55 C2 55, 0 53, 0 49 M0 49 C0 33.17, 0 17.33, 0 6 M0 49 C0 35.54, 0 22.09, 0 6 M0 6 C0 2, 2 0, 6 0 M0 6 C0 2, 2 0, 6 0" stroke="#9333ea" stroke-width="1.5" fill="none"></path></g><g transform="translate(758.55 545) rotate(0 21.44999999999999 9.100000000000023)"><text x="21.450000000000003" y="12.427999999999999" font-family="Segoe UI Emoji" font-size="13px" fill="#1e293b" text-anchor="middle" style="white-space: pre;" direction="ltr" dominant-baseline="alphabetic">AWS S3</text></g><g transform="translate(747 564.5) rotate(0 33 7)"><text x="33" y="9.559999999999999" font-family="Segoe UI Emoji" font-size="10px" fill="#64748b" text-anchor="middle" style="white-space: pre;" direction="ltr" dominant-baseline="alphabetic">File storage</text></g><g stroke-linecap="round" transform="translate(690 614) rotate(0 90 27.5)"><path d="M6 0 C72.07 0, 138.13 0, 174 0 C178 0, 180 2, 180 6 C180 22.28, 180 38.56, 180 49 C180 53, 178 55, 174 55 C120 55, 66 55, 6 55 C2 55, 0 53, 0 49 C0 38.23, 0 27.46, 0 6 C0 2, 2 0, 6 0" stroke="none" stroke-width="0" fill="#f3e8ff"></path><path d="M6 0 C64.74 0, 123.49 0, 174 0 M6 0 C52.87 0, 99.75 0, 174 0 M174 0 C178 0, 180 2, 180 6 M174 0 C178 0, 180 2, 180 6 M180 6 C180 20.16, 180 34.33, 180 49 M180 6 C180 15.61, 180 25.23, 180 49 M180 49 C180 53, 178 55, 174 55 M180 49 C180 53, 178 55, 174 55 M174 55 C139.52 55, 105.05 55, 6 55 M174 55 C122.71 55, 71.42 55, 6 55 M6 55 C2 55, 0 53, 0 49 M6 55 C2 55, 0 53, 0 49 M0 49 C0 39.16, 0 29.33, 0 6 M0 49 C0 36.6, 0 24.19, 0 6 M0 6 C0 2, 2 0, 6 0 M0 6 C0 2, 2 0, 6 0" stroke="#9333ea" stroke-width="1.5" fill="none"></path></g><g transform="translate(733.525 625) rotate(0 46.47500000000002 9.100000000000023)"><text x="46.475" y="12.427999999999999" font-family="Segoe UI Emoji" font-size="13px" fill="#1e293b" text-anchor="middle" style="white-space: pre;" direction="ltr" dominant-baseline="alphabetic">Email Service</text></g><g transform="translate(741.5 644.5) rotate(0 38.5 7)"><text x="38.5" y="9.559999999999999" font-family="Segoe UI Emoji" font-size="10px" fill="#64748b" text-anchor="middle" style="white-space: pre;" direction="ltr" dominant-baseline="alphabetic">SMTP · MailKit</text></g><g stroke-linecap="round"><g transform="translate(670 264) rotate(0 10 0)"><path d="M0 0 C3.33 0, 16.67 0, 20 0 M0 0 C3.33 0, 16.67 0, 20 0" stroke="#475569" stroke-width="1.5" fill="none"></path></g><g transform="translate(670 264) rotate(0 10 0)"><path d="M10.6 3.42 C12.9 2.58, 15.21 1.74, 20 0 M10.6 3.42 C12.55 2.71, 14.5 2, 20 0" stroke="#475569" stroke-width="1.5" fill="none"></path></g><g transform="translate(670 264) rotate(0 10 0)"><path d="M10.6 -3.42 C12.9 -2.58, 15.21 -1.74, 20 0 M10.6 -3.42 C12.55 -2.71, 14.5 -2, 20 0" stroke="#475569" stroke-width="1.5" fill="none"></path></g></g><mask></mask><g stroke-linecap="round"><g transform="translate(670 481) rotate(0 10 0)"><path d="M0 0 C3.33 0, 16.67 0, 20 0 M0 0 C3.33 0, 16.67 0, 20 0" stroke="#475569" stroke-width="1.5" fill="none"></path></g><g transform="translate(670 481) rotate(0 10 0)"><path d="M10.6 3.42 C12.57 2.71, 14.53 1.99, 20 0 M10.6 3.42 C13.39 2.41, 16.18 1.39, 20 0" stroke="#475569" stroke-width="1.5" fill="none"></path></g><g transform="translate(670 481) rotate(0 10 0)"><path d="M10.6 -3.42 C12.57 -2.71, 14.53 -1.99, 20 0 M10.6 -3.42 C13.39 -2.41, 16.18 -1.39, 20 0" stroke="#475569" stroke-width="1.5" fill="none"></path></g></g><mask></mask></svg>