<svg version="1.1" xmlns="http://www.w3.org/2000/svg" viewBox="0 0 908.7 764" width="908.7" height="764"><!-- svg-source:excalidraw --><metadata></metadata><defs><style class="style-fonts">
      </style></defs><rect x="0" y="0" width="908.7" height="764" fill="#f8fafc"></rect><g transform="translate(206.64999999999998 10) rotate(0 163.35000000000002 12.600000000000001)"><text x="163.35000000000002" y="17.208" font-family="Segoe UI Emoji" font-size="18px" fill="#1e293b" text-anchor="middle" style="white-space: pre;" direction="ltr" dominant-baseline="alphabetic">Axis Platform — Container Diagram</text></g><g stroke-linecap="round" transform="translate(10 54) rotate(0 330 350)"><path d="M6 0 C260.54 0, 515.08 0, 654 0 C658 0, 660 2, 660 6 C660 208.82, 660 411.64, 660 694 C660 698, 658 700, 654 700 C415.51 700, 177.02 700, 6 700 C2 700, 0 698, 0 694 C0 553.76, 0 413.53, 0 6 C0 2, 2 0, 6 0" stroke="none" stroke-width="0" fill="#f0f9ff"></path><path d="M6 0 C159.4 0, 312.79 0, 654 0 M6 0 C161.04 0, 316.07 0, 654 0 M654 0 C658 0, 660 2, 660 6 M654 0 C658 0, 660 2, 660 6 M660 6 C660 185.94, 660 365.89, 660 694 M660 6 C660 224.58, 660 443.16, 660 694 M660 694 C660 698, 658 700, 654 700 M660 694 C660 698, 658 700, 654 700 M654 700 C457.83 700, 261.66 700, 6 700 M654 700 C481.63 700, 309.26 700, 6 700 M6 700 C2 700, 0 698, 0 694 M6 700 C2 700, 0 698, 0 694 M0 694 C0 493.68, 0 293.36, 0 6 M0 694 C0 489.49, 0 284.98, 0 6 M0 6 C0 2, 2 0, 6 0 M0 6 C0 2, 2 0, 6 0" stroke="#3b82f6" stroke-width="1.5" fill="none"></path></g><g transform="translate(170.60000000000002 72) rotate(0 169.40000000000003 9.799999999999997)"><text x="169.4" y="13.383999999999999" font-family="Segoe UI Emoji" font-size="14px" fill="#3b82f6" text-anchor="middle" style="white-space: pre;" direction="ltr" dominant-baseline="alphabetic">API Server — ASP.NET Core 8 Modular Monolith</text></g><g stroke-linecap="round" transform="translate(30 104) rotate(0 70 35)"><path d="M6 0 C50.53 0, 95.07 0, 134 0 C138 0, 140 2, 140 6 C140 21.21, 140 36.42, 140 64 C140 68, 138 70, 134 70 C86.68 70, 39.36 70, 6 70 C2 70, 0 68, 0 64 C0 49.11, 0 34.22, 0 6 C0 2, 2 0, 6 0" stroke="none" stroke-width="0" fill="#dcfce7"></path><path d="M6 0 C41.31 0, 76.62 0, 134 0 M6 0 C44.47 0, 82.93 0, 134 0 M134 0 C138 0, 140 2, 140 6 M134 0 C138 0, 140 2, 140 6 M140 6 C140 19.28, 140 32.57, 140 64 M140 6 C140 18.73, 140 31.45, 140 64 M140 64 C140 68, 138 70, 134 70 M140 64 C140 68, 138 70, 134 70 M134 70 C90.29 70, 46.57 70, 6 70 M134 70 C106.53 70, 79.07 70, 6 70 M6 70 C2 70, 0 68, 0 64 M6 70 C2 70, 0 68, 0 64 M0 64 C0 49.28, 0 34.56, 0 6 M0 64 C0 46.09, 0 28.17, 0 6 M0 6 C0 2, 2 0, 6 0 M0 6 C0 2, 2 0, 6 0" stroke="#16a34a" stroke-width="1.5" fill="none"></path></g><g transform="translate(73.60000000000002 133) rotate(0 26.400000000000006 8.400000000000006)"><text x="26.400000000000002" y="11.471999999999998" font-family="Segoe UI Emoji" font-size="12px" fill="#1e293b" text-anchor="middle" style="white-space: pre;" direction="ltr" dominant-baseline="alphabetic">Identity</text></g><g stroke-linecap="round" transform="translate(190 104) rotate(0 70 35)"><path d="M6 0 C43.06 0, 80.12 0, 134 0 C138 0, 140 2, 140 6 C140 26.92, 140 47.83, 140 64 C140 68, 138 70, 134 70 C107.44 70, 80.88 70, 6 70 C2 70, 0 68, 0 64 C0 45.25, 0 26.5, 0 6 C0 2, 2 0, 6 0" stroke="none" stroke-width="0" fill="#dcfce7"></path><path d="M6 0 C54.98 0, 103.97 0, 134 0 M6 0 C49.61 0, 93.22 0, 134 0 M134 0 C138 0, 140 2, 140 6 M134 0 C138 0, 140 2, 140 6 M140 6 C140 18.98, 140 31.95, 140 64 M140 6 C140 18.6, 140 31.2, 140 64 M140 64 C140 68, 138 70, 134 70 M140 64 C140 68, 138 70, 134 70 M134 70 C99.86 70, 65.71 70, 6 70 M134 70 C98.81 70, 63.61 70, 6 70 M6 70 C2 70, 0 68, 0 64 M6 70 C2 70, 0 68, 0 64 M0 64 C0 41.76, 0 19.52, 0 6 M0 64 C0 48.47, 0 32.94, 0 6 M0 6 C0 2, 2 0, 6 0 M0 6 C0 2, 2 0, 6 0" stroke="#16a34a" stroke-width="1.5" fill="none"></path></g><g transform="translate(220.39999999999998 133) rotate(0 39.599999999999994 8.400000000000006)"><text x="39.6" y="11.471999999999998" font-family="Segoe UI Emoji" font-size="12px" fill="#1e293b" text-anchor="middle" style="white-space: pre;" direction="ltr" dominant-baseline="alphabetic">DataModeling</text></g><g stroke-linecap="round" transform="translate(370 104) rotate(0 70 35)"><path d="M6 0 C36.17 0, 66.34 0, 134 0 C138 0, 140 2, 140 6 C140 18.58, 140 31.16, 140 64 C140 68, 138 70, 134 70 C90.37 70, 46.75 70, 6 70 C2 70, 0 68, 0 64 C0 42.99, 0 21.97, 0 6 C0 2, 2 0, 6 0" stroke="none" stroke-width="0" fill="#dcfce7"></path><path d="M6 0 C39.54 0, 73.08 0, 134 0 M6 0 C44.85 0, 83.71 0, 134 0 M134 0 C138 0, 140 2, 140 6 M134 0 C138 0, 140 2, 140 6 M140 6 C140 26.7, 140 47.4, 140 64 M140 6 C140 21.7, 140 37.39, 140 64 M140 64 C140 68, 138 70, 134 70 M140 64 C140 68, 138 70, 134 70 M134 70 C95.39 70, 56.78 70, 6 70 M134 70 C93.09 70, 52.18 70, 6 70 M6 70 C2 70, 0 68, 0 64 M6 70 C2 70, 0 68, 0 64 M0 64 C0 49.23, 0 34.45, 0 6 M0 64 C0 46.7, 0 29.39, 0 6 M0 6 C0 2, 2 0, 6 0 M0 6 C0 2, 2 0, 6 0" stroke="#16a34a" stroke-width="1.5" fill="none"></path></g><g transform="translate(390.5 133) rotate(0 49.5 8.400000000000006)"><text x="49.50000000000001" y="11.471999999999998" font-family="Segoe UI Emoji" font-size="12px" fill="#1e293b" text-anchor="middle" style="white-space: pre;" direction="ltr" dominant-baseline="alphabetic">WorkflowBuilder</text></g><g stroke-linecap="round" transform="translate(30 204) rotate(0 70 35)"><path d="M6 0 C36.16 0, 66.31 0, 134 0 C138 0, 140 2, 140 6 C140 23, 140 40.01, 140 64 C140 68, 138 70, 134 70 C104.93 70, 75.85 70, 6 70 C2 70, 0 68, 0 64 C0 41.82, 0 19.63, 0 6 C0 2, 2 0, 6 0" stroke="none" stroke-width="0" fill="#dcfce7"></path><path d="M6 0 C48.08 0, 90.17 0, 134 0 M6 0 C56.03 0, 106.06 0, 134 0 M134 0 C138 0, 140 2, 140 6 M134 0 C138 0, 140 2, 140 6 M140 6 C140 25.49, 140 44.98, 140 64 M140 6 C140 21.61, 140 37.21, 140 64 M140 64 C140 68, 138 70, 134 70 M140 64 C140 68, 138 70, 134 70 M134 70 C92.73 70, 51.46 70, 6 70 M134 70 C88.23 70, 42.47 70, 6 70 M6 70 C2 70, 0 68, 0 64 M6 70 C2 70, 0 68, 0 64 M0 64 C0 42.77, 0 21.53, 0 6 M0 64 C0 47.82, 0 31.63, 0 6 M0 6 C0 2, 2 0, 6 0 M0 6 C0 2, 2 0, 6 0" stroke="#16a34a" stroke-width="1.5" fill="none"></path></g><g transform="translate(63.69999999999999 233) rotate(0 36.30000000000001 8.400000000000006)"><text x="36.300000000000004" y="11.471999999999998" font-family="Segoe UI Emoji" font-size="12px" fill="#1e293b" text-anchor="middle" style="white-space: pre;" direction="ltr" dominant-baseline="alphabetic">FormBuilder</text></g><g stroke-linecap="round" transform="translate(210 204) rotate(0 70 35)"><path d="M6 0 C38.44 0, 70.88 0, 134 0 C138 0, 140 2, 140 6 C140 18.5, 140 30.99, 140 64 C140 68, 138 70, 134 70 C95.96 70, 57.91 70, 6 70 C2 70, 0 68, 0 64 C0 42.51, 0 21.03, 0 6 C0 2, 2 0, 6 0" stroke="none" stroke-width="0" fill="#dcfce7"></path><path d="M6 0 C43.71 0, 81.42 0, 134 0 M6 0 C56.92 0, 107.85 0, 134 0 M134 0 C138 0, 140 2, 140 6 M134 0 C138 0, 140 2, 140 6 M140 6 C140 17.95, 140 29.9, 140 64 M140 6 C140 20.46, 140 34.91, 140 64 M140 64 C140 68, 138 70, 134 70 M140 64 C140 68, 138 70, 134 70 M134 70 C96.89 70, 59.77 70, 6 70 M134 70 C108.13 70, 82.25 70, 6 70 M6 70 C2 70, 0 68, 0 64 M6 70 C2 70, 0 68, 0 64 M0 64 C0 49.54, 0 35.08, 0 6 M0 64 C0 46.92, 0 29.84, 0 6 M0 6 C0 2, 2 0, 6 0 M0 6 C0 2, 2 0, 6 0" stroke="#16a34a" stroke-width="1.5" fill="none"></path></g><g transform="translate(233.8 233) rotate(0 46.20000000000002 8.400000000000006)"><text x="46.2" y="11.471999999999998" font-family="Segoe UI Emoji" font-size="12px" fill="#1e293b" text-anchor="middle" style="white-space: pre;" direction="ltr" dominant-baseline="alphabetic">WorkflowEngine</text></g><g stroke-linecap="round" transform="translate(430 204) rotate(0 70 35)"><path d="M6 0 C34.81 0, 63.63 0, 134 0 C138 0, 140 2, 140 6 C140 21.45, 140 36.9, 140 64 C140 68, 138 70, 134 70 C101.42 70, 68.84 70, 6 70 C2 70, 0 68, 0 64 C0 44.34, 0 24.68, 0 6 C0 2, 2 0, 6 0" stroke="none" stroke-width="0" fill="#dcfce7"></path><path d="M6 0 C46.99 0, 87.98 0, 134 0 M6 0 C39.1 0, 72.21 0, 134 0 M134 0 C138 0, 140 2, 140 6 M134 0 C138 0, 140 2, 140 6 M140 6 C140 20.31, 140 34.61, 140 64 M140 6 C140 29.09, 140 52.19, 140 64 M140 64 C140 68, 138 70, 134 70 M140 64 C140 68, 138 70, 134 70 M134 70 C93.89 70, 53.78 70, 6 70 M134 70 C99.79 70, 65.58 70, 6 70 M6 70 C2 70, 0 68, 0 64 M6 70 C2 70, 0 68, 0 64 M0 64 C0 49.22, 0 34.45, 0 6 M0 64 C0 44.6, 0 25.19, 0 6 M0 6 C0 2, 2 0, 6 0 M0 6 C0 2, 2 0, 6 0" stroke="#16a34a" stroke-width="1.5" fill="none"></path></g><g transform="translate(463.70000000000005 233) rotate(0 36.30000000000001 8.400000000000006)"><text x="36.300000000000004" y="11.471999999999998" font-family="Segoe UI Emoji" font-size="12px" fill="#1e293b" text-anchor="middle" style="white-space: pre;" direction="ltr" dominant-baseline="alphabetic">PageBuilder</text></g><g stroke-linecap="round" transform="translate(30 314) rotate(0 310 40)"><path d="M6 0 C203 0, 399.99 0, 614 0 C618 0, 620 2, 620 6 C620 20.23, 620 34.46, 620 74 C620 78, 618 80, 614 80 C408.55 80, 203.09 80, 6 80 C2 80, 0 78, 0 74 C0 56.65, 0 39.3, 0 6 C0 2, 2 0, 6 0" stroke="none" stroke-width="0" fill="#fef9c3"></path><path d="M6 0 C137.46 0, 268.93 0, 614 0 M6 0 C143.21 0, 280.43 0, 614 0 M614 0 C618 0, 620 2, 620 6 M614 0 C618 0, 620 2, 620 6 M620 6 C620 30.88, 620 55.75, 620 74 M620 6 C620 32.18, 620 58.36, 620 74 M620 74 C620 78, 618 80, 614 80 M620 74 C620 78, 618 80, 614 80 M614 80 C393.92 80, 173.85 80, 6 80 M614 80 C434.29 80, 254.58 80, 6 80 M6 80 C2 80, 0 78, 0 74 M6 80 C2 80, 0 78, 0 74 M0 74 C0 53.95, 0 33.9, 0 6 M0 74 C0 47.63, 0 21.27, 0 6 M0 6 C0 2, 2 0, 6 0 M0 6 C0 2, 2 0, 6 0" stroke="#ca8a04" stroke-width="1.5" fill="none"></path></g><g transform="translate(171.7 338) rotate(0 168.29999999999998 8.400000000000006)"><text x="168.3" y="11.471999999999998" font-family="Segoe UI Emoji" font-size="12px" fill="#1e293b" text-anchor="middle" style="white-space: pre;" direction="ltr" dominant-baseline="alphabetic">Wolverine — Event Bus + Durable Outbox (per-module)</text></g><g transform="translate(103.5 357) rotate(0 236.5 7)"><text x="236.50000000000003" y="9.559999999999999" font-family="Segoe UI Emoji" font-size="10px" fill="#64748b" text-anchor="middle" style="white-space: pre;" direction="ltr" dominant-baseline="alphabetic">In-process relay · At-least-once delivery · Per-module outbox tables in each module DB</text></g><g stroke-linecap="round" transform="translate(30 424) rotate(0 140 30)"><path d="M6 0 C77.78 0, 149.55 0, 274 0 C278 0, 280 2, 280 6 C280 24.11, 280 42.22, 280 54 C280 58, 278 60, 274 60 C168.7 60, 63.4 60, 6 60 C2 60, 0 58, 0 54 C0 37.42, 0 20.84, 0 6 C0 2, 2 0, 6 0" stroke="none" stroke-width="0" fill="#dbeafe"></path><path d="M6 0 C64.41 0, 122.82 0, 274 0 M6 0 C95.03 0, 184.06 0, 274 0 M274 0 C278 0, 280 2, 280 6 M274 0 C278 0, 280 2, 280 6 M280 6 C280 21.81, 280 37.61, 280 54 M280 6 C280 16.44, 280 26.89, 280 54 M280 54 C280 58, 278 60, 274 60 M280 54 C280 58, 278 60, 274 60 M274 60 C215.75 60, 157.51 60, 6 60 M274 60 C170.7 60, 67.4 60, 6 60 M6 60 C2 60, 0 58, 0 54 M6 60 C2 60, 0 58, 0 54 M0 54 C0 44.28, 0 34.56, 0 6 M0 54 C0 36.89, 0 19.78, 0 6 M0 6 C0 2, 2 0, 6 0 M0 6 C0 2, 2 0, 6 0" stroke="#3b82f6" stroke-width="1.5" fill="none"></path></g><g transform="translate(119.94999999999999 437.5) rotate(0 50.05000000000001 9.099999999999994)"><text x="50.050000000000004" y="12.427999999999999" font-family="Segoe UI Emoji" font-size="13px" fill="#1e293b" text-anchor="middle" style="white-space: pre;" direction="ltr" dominant-baseline="alphabetic">OpenIddict 5.x</text></g><g transform="translate(29.75 457) rotate(0 140.25 7)"><text x="140.25" y="9.559999999999999" font-family="Segoe UI Emoji" font-size="10px" fill="#64748b" text-anchor="middle" style="white-space: pre;" direction="ltr" dominant-baseline="alphabetic">OAuth2/OIDC · Auth Code + PKCE · Client Credentials</text></g><g stroke-linecap="round" transform="translate(350 424) rotate(0 150 30)"><path d="M6 0 C113.98 0, 221.95 0, 294 0 C298 0, 300 2, 300 6 C300 25.08, 300 44.17, 300 54 C300 58, 298 60, 294 60 C196.72 60, 99.44 60, 6 60 C2 60, 0 58, 0 54 C0 40.45, 0 26.9, 0 6 C0 2, 2 0, 6 0" stroke="none" stroke-width="0" fill="#dbeafe"></path><path d="M6 0 C89.06 0, 172.12 0, 294 0 M6 0 C88.48 0, 170.97 0, 294 0 M294 0 C298 0, 300 2, 300 6 M294 0 C298 0, 300 2, 300 6 M300 6 C300 23.54, 300 41.07, 300 54 M300 6 C300 23.34, 300 40.68, 300 54 M300 54 C300 58, 298 60, 294 60 M300 54 C300 58, 298 60, 294 60 M294 60 C183.53 60, 73.06 60, 6 60 M294 60 C210.2 60, 126.4 60, 6 60 M6 60 C2 60, 0 58, 0 54 M6 60 C2 60, 0 58, 0 54 M0 54 C0 43.52, 0 33.03, 0 6 M0 54 C0 41.65, 0 29.29, 0 6 M0 6 C0 2, 2 0, 6 0 M0 6 C0 2, 2 0, 6 0" stroke="#3b82f6" stroke-width="1.5" fill="none"></path></g><g transform="translate(474.975 437.5) rotate(0 25.024999999999977 9.099999999999994)"><text x="25.025000000000002" y="12.427999999999999" font-family="Segoe UI Emoji" font-size="13px" fill="#1e293b" text-anchor="middle" style="white-space: pre;" direction="ltr" dominant-baseline="alphabetic">SignalR</text></g><g transform="translate(428.5 457) rotate(0 71.5 7)"><text x="71.5" y="9.559999999999999" font-family="Segoe UI Emoji" font-size="10px" fill="#64748b" text-anchor="middle" style="white-space: pre;" direction="ltr" dominant-baseline="alphabetic">Real-time execution status</text></g><g stroke-linecap="round" transform="translate(10 514) rotate(0 330 30)"><path d="M6 0 C203.81 0, 401.61 0, 654 0 C658 0, 660 2, 660 6 C660 19.07, 660 32.14, 660 54 C660 58, 658 60, 654 60 C404.22 60, 154.44 60, 6 60 C2 60, 0 58, 0 54 C0 40.42, 0 26.84, 0 6 C0 2, 2 0, 6 0" stroke="none" stroke-width="0" fill="#dbeafe"></path><path d="M6 0 C174 0, 342 0, 654 0 M6 0 C189.62 0, 373.25 0, 654 0 M654 0 C658 0, 660 2, 660 6 M654 0 C658 0, 660 2, 660 6 M660 6 C660 23.18, 660 40.37, 660 54 M660 6 C660 22.11, 660 38.21, 660 54 M660 54 C660 58, 658 60, 654 60 M660 54 C660 58, 658 60, 654 60 M654 60 C503.85 60, 353.69 60, 6 60 M654 60 C421.72 60, 189.44 60, 6 60 M6 60 C2 60, 0 58, 0 54 M6 60 C2 60, 0 58, 0 54 M0 54 C0 39.92, 0 25.84, 0 6 M0 54 C0 37.24, 0 20.47, 0 6 M0 6 C0 2, 2 0, 6 0 M0 6 C0 2, 2 0, 6 0" stroke="#3b82f6" stroke-width="1.5" fill="none"></path></g><g transform="translate(286.375 527.5) rotate(0 53.625 9.100000000000023)"><text x="53.62500000000001" y="12.427999999999999" font-family="Segoe UI Emoji" font-size="13px" fill="#1e293b" text-anchor="middle" style="white-space: pre;" direction="ltr" dominant-baseline="alphabetic">Web Application</text></g><g transform="translate(92.5 547) rotate(0 247.5 7)"><text x="247.50000000000003" y="9.559999999999999" font-family="Segoe UI Emoji" font-size="10px" fill="#64748b" text-anchor="middle" style="white-space: pre;" direction="ltr" dominant-baseline="alphabetic">React 18 + TypeScript + Vite · shadcn/ui · React Flow · dnd-kit · TanStack Query · Zustand</text></g><g transform="translate(641.3 57.5) rotate(0 128.70000000000005 9.100000000000001)"><text x="128.70000000000002" y="12.427999999999999" font-family="Segoe UI Emoji" font-size="13px" fill="#ea580c" text-anchor="middle" style="white-space: pre;" direction="ltr" dominant-baseline="alphabetic">Per-Module Databases (PostgreSQL 16)</text></g><g stroke-linecap="round" transform="translate(690 94) rotate(0 90 27.5)"><path d="M6 0 C68.26 0, 130.51 0, 174 0 C178 0, 180 2, 180 6 C180 18.78, 180 31.56, 180 49 C180 53, 178 55, 174 55 C131 55, 88.01 55, 6 55 C2 55, 0 53, 0 49 C0 32.24, 0 15.49, 0 6 C0 2, 2 0, 6 0" stroke="none" stroke-width="0" fill="#ffedd5"></path><path d="M6 0 C54.66 0, 103.33 0, 174 0 M6 0 C47.1 0, 88.21 0, 174 0 M174 0 C178 0, 180 2, 180 6 M174 0 C178 0, 180 2, 180 6 M180 6 C180 17.44, 180 28.88, 180 49 M180 6 C180 15.78, 180 25.56, 180 49 M180 49 C180 53, 178 55, 174 55 M180 49 C180 53, 178 55, 174 55 M174 55 C111.53 55, 49.05 55, 6 55 M174 55 C120.13 55, 66.25 55, 6 55 M6 55 C2 55, 0 53, 0 49 M6 55 C2 55, 0 53, 0 49 M0 49 C0 35.02, 0 21.05, 0 6 M0 49 C0 38.08, 0 27.15, 0 6 M0 6 C0 2, 2 0, 6 0 M0 6 C0 2, 2 0, 6 0" stroke="#ea580c" stroke-width="1.5" fill="none"></path></g><g transform="translate(740.675 106) rotate(0 39.32499999999999 7.700000000000003)"><text x="39.325" y="10.515999999999998" font-family="Segoe UI Emoji" font-size="11px" fill="#1e293b" text-anchor="middle" style="white-space: pre;" direction="ltr" dominant-baseline="alphabetic">axis_identity</text></g><g transform="translate(744.25 124.5) rotate(0 35.75 7)"><text x="35.75" y="9.559999999999999" font-family="Segoe UI Emoji" font-size="10px" fill="#64748b" text-anchor="middle" style="white-space: pre;" direction="ltr" dominant-baseline="alphabetic">public schema</text></g><g stroke-linecap="round"><g transform="translate(670 122) rotate(0 5 0)"><path d="M0 0 C1.67 0, 8.33 0, 10 0 M0 0 C1.67 0, 8.33 0, 10 0" stroke="#ea580c" stroke-width="1.5" fill="none"></path></g><g transform="translate(670 122) rotate(0 5 0)"><path d="M5.3 1.71 C6.72 1.19, 8.15 0.67, 10 0 M5.3 1.71 C6.59 1.24, 7.88 0.77, 10 0" stroke="#ea580c" stroke-width="1.5" fill="none"></path></g><g transform="translate(670 122) rotate(0 5 0)"><path d="M5.3 -1.71 C6.72 -1.19, 8.15 -0.67, 10 0 M5.3 -1.71 C6.59 -1.24, 7.88 -0.77, 10 0" stroke="#ea580c" stroke-width="1.5" fill="none"></path></g></g><mask></mask><g stroke-linecap="round" transform="translate(690 164) rotate(0 90 27.5)"><path d="M6 0 C58.7 0, 111.39 0, 174 0 C178 0, 180 2, 180 6 C180 21.3, 180 36.6, 180 49 C180 53, 178 55, 174 55 C138.03 55, 102.06 55, 6 55 C2 55, 0 53, 0 49 C0 39.12, 0 29.25, 0 6 C0 2, 2 0, 6 0" stroke="none" stroke-width="0" fill="#ffedd5"></path><path d="M6 0 C66.19 0, 126.39 0, 174 0 M6 0 C59.46 0, 112.93 0, 174 0 M174 0 C178 0, 180 2, 180 6 M174 0 C178 0, 180 2, 180 6 M180 6 C180 19.27, 180 32.55, 180 49 M180 6 C180 16.29, 180 26.58, 180 49 M180 49 C180 53, 178 55, 174 55 M180 49 C180 53, 178 55, 174 55 M174 55 C127.81 55, 81.63 55, 6 55 M174 55 C126.74 55, 79.48 55, 6 55 M6 55 C2 55, 0 53, 0 49 M6 55 C2 55, 0 53, 0 49 M0 49 C0 39.69, 0 30.38, 0 6 M0 49 C0 37.81, 0 26.63, 0 6 M0 6 C0 2, 2 0, 6 0 M0 6 C0 2, 2 0, 6 0" stroke="#ea580c" stroke-width="1.5" fill="none"></path></g><g transform="translate(758.825 176) rotate(0 21.17500000000001 7.700000000000003)"><text x="21.175" y="10.515999999999998" font-family="Segoe UI Emoji" font-size="11px" fill="#1e293b" text-anchor="middle" style="white-space: pre;" direction="ltr" dominant-baseline="alphabetic">axis_wb</text></g><g transform="translate(711.25 194.5) rotate(0 68.75 7)"><text x="68.75" y="9.559999999999999" font-family="Segoe UI Emoji" font-size="10px" fill="#64748b" text-anchor="middle" style="white-space: pre;" direction="ltr" dominant-baseline="alphabetic">wolverine schema (outbox)</text></g><g stroke-linecap="round"><g transform="translate(670 192) rotate(0 5 0)"><path d="M0 0 C1.67 0, 8.33 0, 10 0 M0 0 C1.67 0, 8.33 0, 10 0" stroke="#ea580c" stroke-width="1.5" fill="none"></path></g><g transform="translate(670 192) rotate(0 5 0)"><path d="M5.3 1.71 C6.54 1.26, 7.79 0.81, 10 0 M5.3 1.71 C7.13 1.05, 8.95 0.38, 10 0" stroke="#ea580c" stroke-width="1.5" fill="none"></path></g><g transform="translate(670 192) rotate(0 5 0)"><path d="M5.3 -1.71 C6.54 -1.26, 7.79 -0.81, 10 0 M5.3 -1.71 C7.13 -1.05, 8.95 -0.38, 10 0" stroke="#ea580c" stroke-width="1.5" fill="none"></path></g></g><mask></mask><g stroke-linecap="round" transform="translate(690 234) rotate(0 90 27.5)"><path d="M6 0 C72.32 0, 138.65 0, 174 0 C178 0, 180 2, 180 6 C180 17.64, 180 29.28, 180 49 C180 53, 178 55, 174 55 C110.4 55, 46.8 55, 6 55 C2 55, 0 53, 0 49 C0 34.38, 0 19.76, 0 6 C0 2, 2 0, 6 0" stroke="none" stroke-width="0" fill="#ffedd5"></path><path d="M6 0 C42.77 0, 79.55 0, 174 0 M6 0 C71.52 0, 137.04 0, 174 0 M174 0 C178 0, 180 2, 180 6 M174 0 C178 0, 180 2, 180 6 M180 6 C180 21.57, 180 37.15, 180 49 M180 6 C180 21.53, 180 37.05, 180 49 M180 49 C180 53, 178 55, 174 55 M180 49 C180 53, 178 55, 174 55 M174 55 C128.4 55, 82.8 55, 6 55 M174 55 C124.8 55, 75.6 55, 6 55 M6 55 C2 55, 0 53, 0 49 M6 55 C2 55, 0 53, 0 49 M0 49 C0 37.84, 0 26.68, 0 6 M0 49 C0 32.69, 0 16.38, 0 6 M0 6 C0 2, 2 0, 6 0 M0 6 C0 2, 2 0, 6 0" stroke="#ea580c" stroke-width="1.5" fill="none"></path></g><g transform="translate(758.825 246) rotate(0 21.17500000000001 7.699999999999989)"><text x="21.175" y="10.515999999999998" font-family="Segoe UI Emoji" font-size="11px" fill="#1e293b" text-anchor="middle" style="white-space: pre;" direction="ltr" dominant-baseline="alphabetic">axis_we</text></g><g transform="translate(711.25 264.5) rotate(0 68.75 7)"><text x="68.75" y="9.559999999999999" font-family="Segoe UI Emoji" font-size="10px" fill="#64748b" text-anchor="middle" style="white-space: pre;" direction="ltr" dominant-baseline="alphabetic">wolverine schema (outbox)</text></g><g stroke-linecap="round"><g transform="translate(670 262) rotate(0 5 0)"><path d="M0 0 C1.67 0, 8.33 0, 10 0 M0 0 C1.67 0, 8.33 0, 10 0" stroke="#ea580c" stroke-width="1.5" fill="none"></path></g><g transform="translate(670 262) rotate(0 5 0)"><path d="M5.3 1.71 C6.49 1.28, 7.68 0.85, 10 0 M5.3 1.71 C7.03 1.08, 8.76 0.45, 10 0" stroke="#ea580c" stroke-width="1.5" fill="none"></path></g><g transform="translate(670 262) rotate(0 5 0)"><path d="M5.3 -1.71 C6.49 -1.28, 7.68 -0.85, 10 0 M5.3 -1.71 C7.03 -1.08, 8.76 -0.45, 10 0" stroke="#ea580c" stroke-width="1.5" fill="none"></path></g></g><mask></mask><g stroke-linecap="round" transform="translate(690 304) rotate(0 90 27.5)"><path d="M6 0 C52.36 0, 98.73 0, 174 0 C178 0, 180 2, 180 6 C180 21.93, 180 37.87, 180 49 C180 53, 178 55, 174 55 C125.36 55, 76.72 55, 6 55 C2 55, 0 53, 0 49 C0 35.92, 0 22.83, 0 6 C0 2, 2 0, 6 0" stroke="none" stroke-width="0" fill="#ffedd5"></path><path d="M6 0 C68.03 0, 130.06 0, 174 0 M6 0 C50.22 0, 94.44 0, 174 0 M174 0 C178 0, 180 2, 180 6 M174 0 C178 0, 180 2, 180 6 M180 6 C180 16.29, 180 26.58, 180 49 M180 6 C180 22.25, 180 38.49, 180 49 M180 49 C180 53, 178 55, 174 55 M180 49 C180 53, 178 55, 174 55 M174 55 C113.68 55, 53.36 55, 6 55 M174 55 C119.45 55, 64.9 55, 6 55 M6 55 C2 55, 0 53, 0 49 M6 55 C2 55, 0 53, 0 49 M0 49 C0 33.38, 0 17.77, 0 6 M0 49 C0 33.84, 0 18.67, 0 6 M0 6 C0 2, 2 0, 6 0 M0 6 C0 2, 2 0, 6 0" stroke="#ea580c" stroke-width="1.5" fill="none"></path></g><g transform="translate(758.825 316) rotate(0 21.17500000000001 7.699999999999989)"><text x="21.175" y="10.515999999999998" font-family="Segoe UI Emoji" font-size="11px" fill="#1e293b" text-anchor="middle" style="white-space: pre;" direction="ltr" dominant-baseline="alphabetic">axis_fb</text></g><g transform="translate(711.25 334.5) rotate(0 68.75 7)"><text x="68.75" y="9.559999999999999" font-family="Segoe UI Emoji" font-size="10px" fill="#64748b" text-anchor="middle" style="white-space: pre;" direction="ltr" dominant-baseline="alphabetic">wolverine schema (outbox)</text></g><g stroke-linecap="round"><g transform="translate(670 332) rotate(0 5 0)"><path d="M0 0 C1.67 0, 8.33 0, 10 0 M0 0 C1.67 0, 8.33 0, 10 0" stroke="#ea580c" stroke-width="1.5" fill="none"></path></g><g transform="translate(670 332) rotate(0 5 0)"><path d="M5.3 1.71 C6.29 1.35, 7.28 0.99, 10 0 M5.3 1.71 C6.55 1.26, 7.79 0.8, 10 0" stroke="#ea580c" stroke-width="1.5" fill="none"></path></g><g transform="translate(670 332) rotate(0 5 0)"><path d="M5.3 -1.71 C6.29 -1.35, 7.28 -0.99, 10 0 M5.3 -1.71 C6.55 -1.26, 7.79 -0.8, 10 0" stroke="#ea580c" stroke-width="1.5" fill="none"></path></g></g><mask></mask><g stroke-linecap="round" transform="translate(690 374) rotate(0 90 27.5)"><path d="M6 0 C50.64 0, 95.29 0, 174 0 C178 0, 180 2, 180 6 C180 19.57, 180 33.13, 180 49 C180 53, 178 55, 174 55 C131.28 55, 88.55 55, 6 55 C2 55, 0 53, 0 49 C0 33.38, 0 17.76, 0 6 C0 2, 2 0, 6 0" stroke="none" stroke-width="0" fill="#ffedd5"></path><path d="M6 0 C52.95 0, 99.9 0, 174 0 M6 0 C45.43 0, 84.85 0, 174 0 M174 0 C178 0, 180 2, 180 6 M174 0 C178 0, 180 2, 180 6 M180 6 C180 22.7, 180 39.39, 180 49 M180 6 C180 22.38, 180 38.76, 180 49 M180 49 C180 53, 178 55, 174 55 M180 49 C180 53, 178 55, 174 55 M174 55 C133.28 55, 92.56 55, 6 55 M174 55 C131 55, 87.99 55, 6 55 M6 55 C2 55, 0 53, 0 49 M6 55 C2 55, 0 53, 0 49 M0 49 C0 34.88, 0 20.77, 0 6 M0 49 C0 39.65, 0 30.3, 0 6 M0 6 C0 2, 2 0, 6 0 M0 6 C0 2, 2 0, 6 0" stroke="#ea580c" stroke-width="1.5" fill="none"></path></g><g transform="translate(758.825 386) rotate(0 21.17500000000001 7.699999999999989)"><text x="21.175" y="10.515999999999998" font-family="Segoe UI Emoji" font-size="11px" fill="#1e293b" text-anchor="middle" style="white-space: pre;" direction="ltr" dominant-baseline="alphabetic">axis_dm</text></g><g transform="translate(744.25 404.5) rotate(0 35.75 7)"><text x="35.75" y="9.559999999999999" font-family="Segoe UI Emoji" font-size="10px" fill="#64748b" text-anchor="middle" style="white-space: pre;" direction="ltr" dominant-baseline="alphabetic">tenant schema</text></g><g stroke-linecap="round"><g transform="translate(670 402) rotate(0 5 0)"><path d="M0 0 C1.67 0, 8.33 0, 10 0 M0 0 C1.67 0, 8.33 0, 10 0" stroke="#ea580c" stroke-width="1.5" fill="none"></path></g><g transform="translate(670 402) rotate(0 5 0)"><path d="M5.3 1.71 C6.97 1.1, 8.64 0.49, 10 0 M5.3 1.71 C7.15 1.04, 9 0.36, 10 0" stroke="#ea580c" stroke-width="1.5" fill="none"></path></g><g transform="translate(670 402) rotate(0 5 0)"><path d="M5.3 -1.71 C6.97 -1.1, 8.64 -0.49, 10 0 M5.3 -1.71 C7.15 -1.04, 9 -0.36, 10 0" stroke="#ea580c" stroke-width="1.5" fill="none"></path></g></g><mask></mask><g stroke-linecap="round" transform="translate(690 454) rotate(0 90 27.5)"><path d="M6 0 C60.92 0, 115.83 0, 174 0 C178 0, 180 2, 180 6 C180 22.59, 180 39.18, 180 49 C180 53, 178 55, 174 55 C124.88 55, 75.76 55, 6 55 C2 55, 0 53, 0 49 C0 32.58, 0 16.16, 0 6 C0 2, 2 0, 6 0" stroke="none" stroke-width="0" fill="#ffedd5"></path><path d="M6 0 C71.87 0, 137.74 0, 174 0 M6 0 C51.14 0, 96.27 0, 174 0 M174 0 C178 0, 180 2, 180 6 M174 0 C178 0, 180 2, 180 6 M180 6 C180 16.58, 180 27.17, 180 49 M180 6 C180 22.1, 180 38.2, 180 49 M180 49 C180 53, 178 55, 174 55 M180 49 C180 53, 178 55, 174 55 M174 55 C130.43 55, 86.85 55, 6 55 M174 55 C114.48 55, 54.95 55, 6 55 M6 55 C2 55, 0 53, 0 49 M6 55 C2 55, 0 53, 0 49 M0 49 C0 32.32, 0 15.65, 0 6 M0 49 C0 40.26, 0 31.51, 0 6 M0 6 C0 2, 2 0, 6 0 M0 6 C0 2, 2 0, 6 0" stroke="#ea580c" stroke-width="1.5" fill="none"></path></g><g transform="translate(754.975 465) rotate(0 25.024999999999977 9.099999999999994)"><text x="25.025000000000002" y="12.427999999999999" font-family="Segoe UI Emoji" font-size="13px" fill="#1e293b" text-anchor="middle" style="white-space: pre;" direction="ltr" dominant-baseline="alphabetic">Redis 7</text></g><g transform="translate(700.25 484.5) rotate(0 79.75 7)"><text x="79.75" y="9.559999999999999" font-family="Segoe UI Emoji" font-size="10px" fill="#64748b" text-anchor="middle" style="white-space: pre;" direction="ltr" dominant-baseline="alphabetic">Cache · Session · Schema name</text></g><g stroke-linecap="round" transform="translate(690 534) rotate(0 90 27.5)"><path d="M6 0 C58.94 0, 111.87 0, 174 0 C178 0, 180 2, 180 6 C180 20.23, 180 34.46, 180 49 C180 53, 178 55, 174 55 C108.82 55, 43.63 55, 6 55 C2 55, 0 53, 0 49 C0 33.98, 0 18.95, 0 6 C0 2, 2 0, 6 0" stroke="none" stroke-width="0" fill="#f3e8ff"></path><path d="M6 0 C44.71 0, 83.41 0, 174 0 M6 0 C64.83 0, 123.66 0, 174 0 M174 0 C178 0, 180 2, 180 6 M174 0 C178 0, 180 2, 180 6 M180 6 C180 20.32, 180 34.65, 180 49 M180 6 C180 21.41, 180 36.83, 180 49 M180 49 C180 53, 178 55, 174 55 M180 49 C180 53, 178 55, 174 55 M174 55 C113.25 55, 52.5 55, 6 55 M174 55 C113.31 55, 52.62 55, 6 55 M6 55 C2 55, 0 53, 0 49 M6 55 C2 55, 0 53, 0 49 M0 49 C0 35.33, 0 21.67, 0 6 M0 49 C0 38.12, 0 27.23, 0 6 M0 6 C0 2, 2 0, 6 0 M0 6 C0 2, 2 0, 6 0" stroke="#9333ea" stroke-width="1.5" fill="none"></path></g><g transform="translate(758.55 545) rotate(0 21.44999999999999 9.100000000000023)"><text x="21.450000000000003" y="12.427999999999999" font-family="Segoe UI Emoji" font-size="13px" fill="#1e293b" text-anchor="middle" style="white-space: pre;" direction="ltr" dominant-baseline="alphabetic">AWS S3</text></g><g transform="translate(747 564.5) rotate(0 33 7)"><text x="33" y="9.559999999999999" font-family="Segoe UI Emoji" font-size="10px" fill="#64748b" text-anchor="middle" style="white-space: pre;" direction="ltr" dominant-baseline="alphabetic">File storage</text></g><g stroke-linecap="round" transform="translate(690 614) rotate(0 90 27.5)"><path d="M6 0 C63.03 0, 120.06 0, 174 0 C178 0, 180 2, 180 6 C180 18.67, 180 31.34, 180 49 C180 53, 178 55, 174 55 C110.81 55, 47.61 55, 6 55 C2 55, 0 53, 0 49 C0 38.33, 0 27.67, 0 6 C0 2, 2 0, 6 0" stroke="none" stroke-width="0" fill="#f3e8ff"></path><path d="M6 0 C65.41 0, 124.83 0, 174 0 M6 0 C41.2 0, 76.4 0, 174 0 M174 0 C178 0, 180 2, 180 6 M174 0 C178 0, 180 2, 180 6 M180 6 C180 17.67, 180 29.34, 180 49 M180 6 C180 19.72, 180 33.45, 180 49 M180 49 C180 53, 178 55, 174 55 M180 49 C180 53, 178 55, 174 55 M174 55 C119.84 55, 65.68 55, 6 55 M174 55 C114.57 55, 55.14 55, 6 55 M6 55 C2 55, 0 53, 0 49 M6 55 C2 55, 0 53, 0 49 M0 49 C0 35.44, 0 21.88, 0 6 M0 49 C0 34.1, 0 19.2, 0 6 M0 6 C0 2, 2 0, 6 0 M0 6 C0 2, 2 0, 6 0" stroke="#9333ea" stroke-width="1.5" fill="none"></path></g><g transform="translate(733.525 625) rotate(0 46.47500000000002 9.100000000000023)"><text x="46.475" y="12.427999999999999" font-family="Segoe UI Emoji" font-size="13px" fill="#1e293b" text-anchor="middle" style="white-space: pre;" direction="ltr" dominant-baseline="alphabetic">Email Service</text></g><g transform="translate(741.5 644.5) rotate(0 38.5 7)"><text x="38.5" y="9.559999999999999" font-family="Segoe UI Emoji" font-size="10px" fill="#64748b" text-anchor="middle" style="white-space: pre;" direction="ltr" dominant-baseline="alphabetic">SMTP · MailKit</text></g><g stroke-linecap="round"><g transform="translate(670 264) rotate(0 10 0)"><path d="M0 0 C3.33 0, 16.67 0, 20 0 M0 0 C3.33 0, 16.67 0, 20 0" stroke="#475569" stroke-width="1.5" fill="none"></path></g><g transform="translate(670 264) rotate(0 10 0)"><path d="M10.6 3.42 C13.39 2.4, 16.18 1.39, 20 0 M10.6 3.42 C13.53 2.35, 16.46 1.29, 20 0" stroke="#475569" stroke-width="1.5" fill="none"></path></g><g transform="translate(670 264) rotate(0 10 0)"><path d="M10.6 -3.42 C13.39 -2.4, 16.18 -1.39, 20 0 M10.6 -3.42 C13.53 -2.35, 16.46 -1.29, 20 0" stroke="#475569" stroke-width="1.5" fill="none"></path></g></g><mask></mask><g stroke-linecap="round"><g transform="translate(670 481) rotate(0 10 0)"><path d="M0 0 C3.33 0, 16.67 0, 20 0 M0 0 C3.33 0, 16.67 0, 20 0" stroke="#475569" stroke-width="1.5" fill="none"></path></g><g transform="translate(670 481) rotate(0 10 0)"><path d="M10.6 3.42 C12.94 2.57, 15.28 1.72, 20 0 M10.6 3.42 C12.54 2.71, 14.49 2.01, 20 0" stroke="#475569" stroke-width="1.5" fill="none"></path></g><g transform="translate(670 481) rotate(0 10 0)"><path d="M10.6 -3.42 C12.94 -2.57, 15.28 -1.72, 20 0 M10.6 -3.42 C12.54 -2.71, 14.49 -2.01, 20 0" stroke="#475569" stroke-width="1.5" fill="none"></path></g></g><mask></mask></svg>