<svg version="1.1" xmlns="http://www.w3.org/2000/svg" viewBox="0 0 908.7 764" width="908.7" height="764"><!-- svg-source:excalidraw --><metadata></metadata><defs><style class="style-fonts">
      </style></defs><rect x="0" y="0" width="908.7" height="764" fill="#f8fafc"></rect><g transform="translate(206.64999999999998 10) rotate(0 163.35000000000002 12.600000000000001)"><text x="163.35000000000002" y="17.208" font-family="Segoe UI Emoji" font-size="18px" fill="#1e293b" text-anchor="middle" style="white-space: pre;" direction="ltr" dominant-baseline="alphabetic">Axis Platform — Container Diagram</text></g><g stroke-linecap="round" transform="translate(10 54) rotate(0 330 350)"><path d="M6 0 C141.46 0, 276.92 0, 654 0 C658 0, 660 2, 660 6 C660 228.31, 660 450.62, 660 694 C660 698, 658 700, 654 700 C512.88 700, 371.75 700, 6 700 C2 700, 0 698, 0 694 C0 475.1, 0 256.2, 0 6 C0 2, 2 0, 6 0" stroke="none" stroke-width="0" fill="#f0f9ff"></path><path d="M6 0 C135.74 0, 265.47 0, 654 0 M6 0 C164.5 0, 323 0, 654 0 M654 0 C658 0, 660 2, 660 6 M654 0 C658 0, 660 2, 660 6 M660 6 C660 188.47, 660 370.93, 660 694 M660 6 C660 256.19, 660 506.39, 660 694 M660 694 C660 698, 658 700, 654 700 M660 694 C660 698, 658 700, 654 700 M654 700 C411.82 700, 169.63 700, 6 700 M654 700 C421.75 700, 189.49 700, 6 700 M6 700 C2 700, 0 698, 0 694 M6 700 C2 700, 0 698, 0 694 M0 694 C0 519.96, 0 345.92, 0 6 M0 694 C0 545.17, 0 396.33, 0 6 M0 6 C0 2, 2 0, 6 0 M0 6 C0 2, 2 0, 6 0" stroke="#3b82f6" stroke-width="1.5" fill="none"></path></g><g transform="translate(170.60000000000002 72) rotate(0 169.40000000000003 9.799999999999997)"><text x="169.4" y="13.383999999999999" font-family="Segoe UI Emoji" font-size="14px" fill="#3b82f6" text-anchor="middle" style="white-space: pre;" direction="ltr" dominant-baseline="alphabetic">API Server — ASP.NET Core 8 Modular Monolith</text></g><g stroke-linecap="round" transform="translate(30 104) rotate(0 70 35)"><path d="M6 0 C49.26 0, 92.51 0, 134 0 C138 0, 140 2, 140 6 C140 18.37, 140 30.75, 140 64 C140 68, 138 70, 134 70 C95.39 70, 56.78 70, 6 70 C2 70, 0 68, 0 64 C0 49.97, 0 35.94, 0 6 C0 2, 2 0, 6 0" stroke="none" stroke-width="0" fill="#dcfce7"></path><path d="M6 0 C45.77 0, 85.54 0, 134 0 M6 0 C46.92 0, 87.85 0, 134 0 M134 0 C138 0, 140 2, 140 6 M134 0 C138 0, 140 2, 140 6 M140 6 C140 18.28, 140 30.57, 140 64 M140 6 C140 27.43, 140 48.87, 140 64 M140 64 C140 68, 138 70, 134 70 M140 64 C140 68, 138 70, 134 70 M134 70 C89.15 70, 44.3 70, 6 70 M134 70 C83.89 70, 33.79 70, 6 70 M6 70 C2 70, 0 68, 0 64 M6 70 C2 70, 0 68, 0 64 M0 64 C0 42.76, 0 21.51, 0 6 M0 64 C0 50.26, 0 36.52, 0 6 M0 6 C0 2, 2 0, 6 0 M0 6 C0 2, 2 0, 6 0" stroke="#16a34a" stroke-width="1.5" fill="none"></path></g><g transform="translate(73.60000000000002 133) rotate(0 26.400000000000006 8.400000000000006)"><text x="26.400000000000002" y="11.471999999999998" font-family="Segoe UI Emoji" font-size="12px" fill="#1e293b" text-anchor="middle" style="white-space: pre;" direction="ltr" dominant-baseline="alphabetic">Identity</text></g><g stroke-linecap="round" transform="translate(190 104) rotate(0 70 35)"><path d="M6 0 C35.44 0, 64.87 0, 134 0 C138 0, 140 2, 140 6 C140 26.54, 140 47.07, 140 64 C140 68, 138 70, 134 70 C104.45 70, 74.89 70, 6 70 C2 70, 0 68, 0 64 C0 51.39, 0 38.77, 0 6 C0 2, 2 0, 6 0" stroke="none" stroke-width="0" fill="#dcfce7"></path><path d="M6 0 C50.88 0, 95.76 0, 134 0 M6 0 C49.74 0, 93.47 0, 134 0 M134 0 C138 0, 140 2, 140 6 M134 0 C138 0, 140 2, 140 6 M140 6 C140 19.91, 140 33.83, 140 64 M140 6 C140 17.73, 140 29.46, 140 64 M140 64 C140 68, 138 70, 134 70 M140 64 C140 68, 138 70, 134 70 M134 70 C92.04 70, 50.09 70, 6 70 M134 70 C100.82 70, 67.64 70, 6 70 M6 70 C2 70, 0 68, 0 64 M6 70 C2 70, 0 68, 0 64 M0 64 C0 50.53, 0 37.05, 0 6 M0 64 C0 47.25, 0 30.5, 0 6 M0 6 C0 2, 2 0, 6 0 M0 6 C0 2, 2 0, 6 0" stroke="#16a34a" stroke-width="1.5" fill="none"></path></g><g transform="translate(220.39999999999998 133) rotate(0 39.599999999999994 8.400000000000006)"><text x="39.6" y="11.471999999999998" font-family="Segoe UI Emoji" font-size="12px" fill="#1e293b" text-anchor="middle" style="white-space: pre;" direction="ltr" dominant-baseline="alphabetic">DataModeling</text></g><g stroke-linecap="round" transform="translate(370 104) rotate(0 70 35)"><path d="M6 0 C38.01 0, 70.02 0, 134 0 C138 0, 140 2, 140 6 C140 24.84, 140 43.69, 140 64 C140 68, 138 70, 134 70 C104.5 70, 74.99 70, 6 70 C2 70, 0 68, 0 64 C0 50.3, 0 36.59, 0 6 C0 2, 2 0, 6 0" stroke="none" stroke-width="0" fill="#dcfce7"></path><path d="M6 0 C42.35 0, 78.71 0, 134 0 M6 0 C50.6 0, 95.2 0, 134 0 M134 0 C138 0, 140 2, 140 6 M134 0 C138 0, 140 2, 140 6 M140 6 C140 21.4, 140 36.81, 140 64 M140 6 C140 29.1, 140 52.19, 140 64 M140 64 C140 68, 138 70, 134 70 M140 64 C140 68, 138 70, 134 70 M134 70 C99.24 70, 64.48 70, 6 70 M134 70 C103.98 70, 73.96 70, 6 70 M6 70 C2 70, 0 68, 0 64 M6 70 C2 70, 0 68, 0 64 M0 64 C0 52.07, 0 40.14, 0 6 M0 64 C0 40.9, 0 17.8, 0 6 M0 6 C0 2, 2 0, 6 0 M0 6 C0 2, 2 0, 6 0" stroke="#16a34a" stroke-width="1.5" fill="none"></path></g><g transform="translate(390.5 133) rotate(0 49.5 8.400000000000006)"><text x="49.50000000000001" y="11.471999999999998" font-family="Segoe UI Emoji" font-size="12px" fill="#1e293b" text-anchor="middle" style="white-space: pre;" direction="ltr" dominant-baseline="alphabetic">WorkflowBuilder</text></g><g stroke-linecap="round" transform="translate(30 204) rotate(0 70 35)"><path d="M6 0 C46.84 0, 87.68 0, 134 0 C138 0, 140 2, 140 6 C140 26.89, 140 47.78, 140 64 C140 68, 138 70, 134 70 C100.43 70, 66.87 70, 6 70 C2 70, 0 68, 0 64 C0 48.75, 0 33.5, 0 6 C0 2, 2 0, 6 0" stroke="none" stroke-width="0" fill="#dcfce7"></path><path d="M6 0 C41.28 0, 76.56 0, 134 0 M6 0 C39.79 0, 73.58 0, 134 0 M134 0 C138 0, 140 2, 140 6 M134 0 C138 0, 140 2, 140 6 M140 6 C140 27.53, 140 49.07, 140 64 M140 6 C140 27.52, 140 49.04, 140 64 M140 64 C140 68, 138 70, 134 70 M140 64 C140 68, 138 70, 134 70 M134 70 C83.39 70, 32.78 70, 6 70 M134 70 C97.89 70, 61.77 70, 6 70 M6 70 C2 70, 0 68, 0 64 M6 70 C2 70, 0 68, 0 64 M0 64 C0 49.74, 0 35.47, 0 6 M0 64 C0 49.39, 0 34.77, 0 6 M0 6 C0 2, 2 0, 6 0 M0 6 C0 2, 2 0, 6 0" stroke="#16a34a" stroke-width="1.5" fill="none"></path></g><g transform="translate(63.69999999999999 233) rotate(0 36.30000000000001 8.400000000000006)"><text x="36.300000000000004" y="11.471999999999998" font-family="Segoe UI Emoji" font-size="12px" fill="#1e293b" text-anchor="middle" style="white-space: pre;" direction="ltr" dominant-baseline="alphabetic">FormBuilder</text></g><g stroke-linecap="round" transform="translate(210 204) rotate(0 70 35)"><path d="M6 0 C52.61 0, 99.22 0, 134 0 C138 0, 140 2, 140 6 C140 18.95, 140 31.9, 140 64 C140 68, 138 70, 134 70 C99.28 70, 64.56 70, 6 70 C2 70, 0 68, 0 64 C0 50.11, 0 36.23, 0 6 C0 2, 2 0, 6 0" stroke="none" stroke-width="0" fill="#dcfce7"></path><path d="M6 0 C39.23 0, 72.45 0, 134 0 M6 0 C49.38 0, 92.76 0, 134 0 M134 0 C138 0, 140 2, 140 6 M134 0 C138 0, 140 2, 140 6 M140 6 C140 19.67, 140 33.34, 140 64 M140 6 C140 27.5, 140 48.99, 140 64 M140 64 C140 68, 138 70, 134 70 M140 64 C140 68, 138 70, 134 70 M134 70 C85.9 70, 37.79 70, 6 70 M134 70 C93.89 70, 53.78 70, 6 70 M6 70 C2 70, 0 68, 0 64 M6 70 C2 70, 0 68, 0 64 M0 64 C0 50.64, 0 37.27, 0 6 M0 64 C0 44.99, 0 25.99, 0 6 M0 6 C0 2, 2 0, 6 0 M0 6 C0 2, 2 0, 6 0" stroke="#16a34a" stroke-width="1.5" fill="none"></path></g><g transform="translate(233.8 233) rotate(0 46.20000000000002 8.400000000000006)"><text x="46.2" y="11.471999999999998" font-family="Segoe UI Emoji" font-size="12px" fill="#1e293b" text-anchor="middle" style="white-space: pre;" direction="ltr" dominant-baseline="alphabetic">WorkflowEngine</text></g><g stroke-linecap="round" transform="translate(430 204) rotate(0 70 35)"><path d="M6 0 C41.16 0, 76.33 0, 134 0 C138 0, 140 2, 140 6 C140 18.52, 140 31.04, 140 64 C140 68, 138 70, 134 70 C90.48 70, 46.96 70, 6 70 C2 70, 0 68, 0 64 C0 46.97, 0 29.93, 0 6 C0 2, 2 0, 6 0" stroke="none" stroke-width="0" fill="#dcfce7"></path><path d="M6 0 C33.26 0, 60.52 0, 134 0 M6 0 C45.92 0, 85.85 0, 134 0 M134 0 C138 0, 140 2, 140 6 M134 0 C138 0, 140 2, 140 6 M140 6 C140 20.46, 140 34.93, 140 64 M140 6 C140 20, 140 34, 140 64 M140 64 C140 68, 138 70, 134 70 M140 64 C140 68, 138 70, 134 70 M134 70 C88.94 70, 43.87 70, 6 70 M134 70 C91.16 70, 48.33 70, 6 70 M6 70 C2 70, 0 68, 0 64 M6 70 C2 70, 0 68, 0 64 M0 64 C0 44.4, 0 24.8, 0 6 M0 64 C0 51.4, 0 38.8, 0 6 M0 6 C0 2, 2 0, 6 0 M0 6 C0 2, 2 0, 6 0" stroke="#16a34a" stroke-width="1.5" fill="none"></path></g><g transform="translate(463.70000000000005 233) rotate(0 36.30000000000001 8.400000000000006)"><text x="36.300000000000004" y="11.471999999999998" font-family="Segoe UI Emoji" font-size="12px" fill="#1e293b" text-anchor="middle" style="white-space: pre;" direction="ltr" dominant-baseline="alphabetic">PageBuilder</text></g><g stroke-linecap="round" transform="translate(30 314) rotate(0 310 40)"><path d="M6 0 C181.29 0, 356.58 0, 614 0 C618 0, 620 2, 620 6 C620 21.38, 620 36.75, 620 74 C620 78, 618 80, 614 80 C473.83 80, 333.66 80, 6 80 C2 80, 0 78, 0 74 C0 49.98, 0 25.96, 0 6 C0 2, 2 0, 6 0" stroke="none" stroke-width="0" fill="#fef9c3"></path><path d="M6 0 C152.52 0, 299.04 0, 614 0 M6 0 C188.7 0, 371.41 0, 614 0 M614 0 C618 0, 620 2, 620 6 M614 0 C618 0, 620 2, 620 6 M620 6 C620 21.55, 620 37.09, 620 74 M620 6 C620 27.62, 620 49.25, 620 74 M620 74 C620 78, 618 80, 614 80 M620 74 C620 78, 618 80, 614 80 M614 80 C408.02 80, 202.05 80, 6 80 M614 80 C453.1 80, 292.2 80, 6 80 M6 80 C2 80, 0 78, 0 74 M6 80 C2 80, 0 78, 0 74 M0 74 C0 53.58, 0 33.16, 0 6 M0 74 C0 47.35, 0 20.7, 0 6 M0 6 C0 2, 2 0, 6 0 M0 6 C0 2, 2 0, 6 0" stroke="#ca8a04" stroke-width="1.5" fill="none"></path></g><g transform="translate(171.7 338) rotate(0 168.29999999999998 8.400000000000006)"><text x="168.3" y="11.471999999999998" font-family="Segoe UI Emoji" font-size="12px" fill="#1e293b" text-anchor="middle" style="white-space: pre;" direction="ltr" dominant-baseline="alphabetic">Wolverine — Event Bus + Durable Outbox (per-module)</text></g><g transform="translate(103.5 357) rotate(0 236.5 7)"><text x="236.50000000000003" y="9.559999999999999" font-family="Segoe UI Emoji" font-size="10px" fill="#64748b" text-anchor="middle" style="white-space: pre;" direction="ltr" dominant-baseline="alphabetic">In-process relay · At-least-once delivery · Per-module outbox tables in each module DB</text></g><g stroke-linecap="round" transform="translate(30 424) rotate(0 140 30)"><path d="M6 0 C78.58 0, 151.15 0, 274 0 C278 0, 280 2, 280 6 C280 22.91, 280 39.81, 280 54 C280 58, 278 60, 274 60 C210.76 60, 147.52 60, 6 60 C2 60, 0 58, 0 54 C0 36.88, 0 19.76, 0 6 C0 2, 2 0, 6 0" stroke="none" stroke-width="0" fill="#dbeafe"></path><path d="M6 0 C103.01 0, 200.01 0, 274 0 M6 0 C74.1 0, 142.19 0, 274 0 M274 0 C278 0, 280 2, 280 6 M274 0 C278 0, 280 2, 280 6 M280 6 C280 16.35, 280 26.71, 280 54 M280 6 C280 23.08, 280 40.16, 280 54 M280 54 C280 58, 278 60, 274 60 M280 54 C280 58, 278 60, 274 60 M274 60 C197.59 60, 121.18 60, 6 60 M274 60 C169.55 60, 65.11 60, 6 60 M6 60 C2 60, 0 58, 0 54 M6 60 C2 60, 0 58, 0 54 M0 54 C0 37.73, 0 21.45, 0 6 M0 54 C0 36.51, 0 19.01, 0 6 M0 6 C0 2, 2 0, 6 0 M0 6 C0 2, 2 0, 6 0" stroke="#3b82f6" stroke-width="1.5" fill="none"></path></g><g transform="translate(119.94999999999999 437.5) rotate(0 50.05000000000001 9.099999999999994)"><text x="50.050000000000004" y="12.427999999999999" font-family="Segoe UI Emoji" font-size="13px" fill="#1e293b" text-anchor="middle" style="white-space: pre;" direction="ltr" dominant-baseline="alphabetic">OpenIddict 5.x</text></g><g transform="translate(29.75 457) rotate(0 140.25 7)"><text x="140.25" y="9.559999999999999" font-family="Segoe UI Emoji" font-size="10px" fill="#64748b" text-anchor="middle" style="white-space: pre;" direction="ltr" dominant-baseline="alphabetic">OAuth2/OIDC · Auth Code + PKCE · Client Credentials</text></g><g stroke-linecap="round" transform="translate(350 424) rotate(0 150 30)"><path d="M6 0 C103.04 0, 200.07 0, 294 0 C298 0, 300 2, 300 6 C300 19.68, 300 33.36, 300 54 C300 58, 298 60, 294 60 C209.95 60, 125.9 60, 6 60 C2 60, 0 58, 0 54 C0 34.89, 0 15.78, 0 6 C0 2, 2 0, 6 0" stroke="none" stroke-width="0" fill="#dbeafe"></path><path d="M6 0 C90.56 0, 175.12 0, 294 0 M6 0 C100.24 0, 194.48 0, 294 0 M294 0 C298 0, 300 2, 300 6 M294 0 C298 0, 300 2, 300 6 M300 6 C300 18.03, 300 30.05, 300 54 M300 6 C300 16.43, 300 26.86, 300 54 M300 54 C300 58, 298 60, 294 60 M300 54 C300 58, 298 60, 294 60 M294 60 C193.78 60, 93.56 60, 6 60 M294 60 C228.7 60, 163.4 60, 6 60 M6 60 C2 60, 0 58, 0 54 M6 60 C2 60, 0 58, 0 54 M0 54 C0 42.94, 0 31.88, 0 6 M0 54 C0 43.23, 0 32.47, 0 6 M0 6 C0 2, 2 0, 6 0 M0 6 C0 2, 2 0, 6 0" stroke="#3b82f6" stroke-width="1.5" fill="none"></path></g><g transform="translate(474.975 437.5) rotate(0 25.024999999999977 9.099999999999994)"><text x="25.025000000000002" y="12.427999999999999" font-family="Segoe UI Emoji" font-size="13px" fill="#1e293b" text-anchor="middle" style="white-space: pre;" direction="ltr" dominant-baseline="alphabetic">SignalR</text></g><g transform="translate(428.5 457) rotate(0 71.5 7)"><text x="71.5" y="9.559999999999999" font-family="Segoe UI Emoji" font-size="10px" fill="#64748b" text-anchor="middle" style="white-space: pre;" direction="ltr" dominant-baseline="alphabetic">Real-time execution status</text></g><g stroke-linecap="round" transform="translate(10 514) rotate(0 330 30)"><path d="M6 0 C242.95 0, 479.9 0, 654 0 C658 0, 660 2, 660 6 C660 19.33, 660 32.65, 660 54 C660 58, 658 60, 654 60 C431.88 60, 209.75 60, 6 60 C2 60, 0 58, 0 54 C0 35.04, 0 16.07, 0 6 C0 2, 2 0, 6 0" stroke="none" stroke-width="0" fill="#dbeafe"></path><path d="M6 0 C234.01 0, 462.02 0, 654 0 M6 0 C190.02 0, 374.04 0, 654 0 M654 0 C658 0, 660 2, 660 6 M654 0 C658 0, 660 2, 660 6 M660 6 C660 19.82, 660 33.65, 660 54 M660 6 C660 20.39, 660 34.79, 660 54 M660 54 C660 58, 658 60, 654 60 M660 54 C660 58, 658 60, 654 60 M654 60 C479.65 60, 305.29 60, 6 60 M654 60 C497.54 60, 341.09 60, 6 60 M6 60 C2 60, 0 58, 0 54 M6 60 C2 60, 0 58, 0 54 M0 54 C0 40.63, 0 27.27, 0 6 M0 54 C0 41.7, 0 29.4, 0 6 M0 6 C0 2, 2 0, 6 0 M0 6 C0 2, 2 0, 6 0" stroke="#3b82f6" stroke-width="1.5" fill="none"></path></g><g transform="translate(286.375 527.5) rotate(0 53.625 9.100000000000023)"><text x="53.62500000000001" y="12.427999999999999" font-family="Segoe UI Emoji" font-size="13px" fill="#1e293b" text-anchor="middle" style="white-space: pre;" direction="ltr" dominant-baseline="alphabetic">Web Application</text></g><g transform="translate(92.5 547) rotate(0 247.5 7)"><text x="247.50000000000003" y="9.559999999999999" font-family="Segoe UI Emoji" font-size="10px" fill="#64748b" text-anchor="middle" style="white-space: pre;" direction="ltr" dominant-baseline="alphabetic">React 18 + TypeScript + Vite · shadcn/ui · React Flow · dnd-kit · TanStack Query · Zustand</text></g><g transform="translate(641.3 57.5) rotate(0 128.70000000000005 9.100000000000001)"><text x="128.70000000000002" y="12.427999999999999" font-family="Segoe UI Emoji" font-size="13px" fill="#ea580c" text-anchor="middle" style="white-space: pre;" direction="ltr" dominant-baseline="alphabetic">Per-Module Databases (PostgreSQL 16)</text></g><g stroke-linecap="round" transform="translate(690 94) rotate(0 90 27.5)"><path d="M6 0 C44.35 0, 82.7 0, 174 0 C178 0, 180 2, 180 6 C180 21.62, 180 37.25, 180 49 C180 53, 178 55, 174 55 C123.62 55, 73.24 55, 6 55 C2 55, 0 53, 0 49 C0 39.78, 0 30.55, 0 6 C0 2, 2 0, 6 0" stroke="none" stroke-width="0" fill="#ffedd5"></path><path d="M6 0 C67.43 0, 128.86 0, 174 0 M6 0 C68.52 0, 131.03 0, 174 0 M174 0 C178 0, 180 2, 180 6 M174 0 C178 0, 180 2, 180 6 M180 6 C180 21.48, 180 36.96, 180 49 M180 6 C180 18.33, 180 30.67, 180 49 M180 49 C180 53, 178 55, 174 55 M180 49 C180 53, 178 55, 174 55 M174 55 C118.43 55, 62.87 55, 6 55 M174 55 C110.3 55, 46.6 55, 6 55 M6 55 C2 55, 0 53, 0 49 M6 55 C2 55, 0 53, 0 49 M0 49 C0 35.1, 0 21.19, 0 6 M0 49 C0 33.77, 0 18.54, 0 6 M0 6 C0 2, 2 0, 6 0 M0 6 C0 2, 2 0, 6 0" stroke="#ea580c" stroke-width="1.5" fill="none"></path></g><g transform="translate(740.675 106) rotate(0 39.32499999999999 7.700000000000003)"><text x="39.325" y="10.515999999999998" font-family="Segoe UI Emoji" font-size="11px" fill="#1e293b" text-anchor="middle" style="white-space: pre;" direction="ltr" dominant-baseline="alphabetic">axis_identity</text></g><g transform="translate(744.25 124.5) rotate(0 35.75 7)"><text x="35.75" y="9.559999999999999" font-family="Segoe UI Emoji" font-size="10px" fill="#64748b" text-anchor="middle" style="white-space: pre;" direction="ltr" dominant-baseline="alphabetic">public schema</text></g><g stroke-linecap="round"><g transform="translate(670 122) rotate(0 5 0)"><path d="M0 0 C1.67 0, 8.33 0, 10 0 M0 0 C1.67 0, 8.33 0, 10 0" stroke="#ea580c" stroke-width="1.5" fill="none"></path></g><g transform="translate(670 122) rotate(0 5 0)"><path d="M5.3 1.71 C6.66 1.22, 8.01 0.72, 10 0 M5.3 1.71 C6.87 1.14, 8.44 0.57, 10 0" stroke="#ea580c" stroke-width="1.5" fill="none"></path></g><g transform="translate(670 122) rotate(0 5 0)"><path d="M5.3 -1.71 C6.66 -1.22, 8.01 -0.72, 10 0 M5.3 -1.71 C6.87 -1.14, 8.44 -0.57, 10 0" stroke="#ea580c" stroke-width="1.5" fill="none"></path></g></g><mask></mask><g stroke-linecap="round" transform="translate(690 164) rotate(0 90 27.5)"><path d="M6 0 C64.09 0, 122.19 0, 174 0 C178 0, 180 2, 180 6 C180 21.51, 180 37.03, 180 49 C180 53, 178 55, 174 55 C126.58 55, 79.16 55, 6 55 C2 55, 0 53, 0 49 C0 33.66, 0 18.33, 0 6 C0 2, 2 0, 6 0" stroke="none" stroke-width="0" fill="#ffedd5"></path><path d="M6 0 C44.19 0, 82.37 0, 174 0 M6 0 C64.2 0, 122.41 0, 174 0 M174 0 C178 0, 180 2, 180 6 M174 0 C178 0, 180 2, 180 6 M180 6 C180 17.78, 180 29.56, 180 49 M180 6 C180 22.24, 180 38.49, 180 49 M180 49 C180 53, 178 55, 174 55 M180 49 C180 53, 178 55, 174 55 M174 55 C112.97 55, 51.94 55, 6 55 M174 55 C130.14 55, 86.29 55, 6 55 M6 55 C2 55, 0 53, 0 49 M6 55 C2 55, 0 53, 0 49 M0 49 C0 35.83, 0 22.67, 0 6 M0 49 C0 40.31, 0 31.63, 0 6 M0 6 C0 2, 2 0, 6 0 M0 6 C0 2, 2 0, 6 0" stroke="#ea580c" stroke-width="1.5" fill="none"></path></g><g transform="translate(758.825 176) rotate(0 21.17500000000001 7.700000000000003)"><text x="21.175" y="10.515999999999998" font-family="Segoe UI Emoji" font-size="11px" fill="#1e293b" text-anchor="middle" style="white-space: pre;" direction="ltr" dominant-baseline="alphabetic">axis_wb</text></g><g transform="translate(711.25 194.5) rotate(0 68.75 7)"><text x="68.75" y="9.559999999999999" font-family="Segoe UI Emoji" font-size="10px" fill="#64748b" text-anchor="middle" style="white-space: pre;" direction="ltr" dominant-baseline="alphabetic">wolverine schema (outbox)</text></g><g stroke-linecap="round"><g transform="translate(670 192) rotate(0 5 0)"><path d="M0 0 C1.67 0, 8.33 0, 10 0 M0 0 C1.67 0, 8.33 0, 10 0" stroke="#ea580c" stroke-width="1.5" fill="none"></path></g><g transform="translate(670 192) rotate(0 5 0)"><path d="M5.3 1.71 C6.34 1.33, 7.38 0.95, 10 0 M5.3 1.71 C6.94 1.12, 8.57 0.52, 10 0" stroke="#ea580c" stroke-width="1.5" fill="none"></path></g><g transform="translate(670 192) rotate(0 5 0)"><path d="M5.3 -1.71 C6.34 -1.33, 7.38 -0.95, 10 0 M5.3 -1.71 C6.94 -1.12, 8.57 -0.52, 10 0" stroke="#ea580c" stroke-width="1.5" fill="none"></path></g></g><mask></mask><g stroke-linecap="round" transform="translate(690 234) rotate(0 90 27.5)"><path d="M6 0 C64.41 0, 122.82 0, 174 0 C178 0, 180 2, 180 6 C180 15.42, 180 24.83, 180 49 C180 53, 178 55, 174 55 C138.18 55, 102.36 55, 6 55 C2 55, 0 53, 0 49 C0 33.53, 0 18.06, 0 6 C0 2, 2 0, 6 0" stroke="none" stroke-width="0" fill="#ffedd5"></path><path d="M6 0 C55.28 0, 104.56 0, 174 0 M6 0 C48.42 0, 90.84 0, 174 0 M174 0 C178 0, 180 2, 180 6 M174 0 C178 0, 180 2, 180 6 M180 6 C180 22.79, 180 39.58, 180 49 M180 6 C180 20.34, 180 34.68, 180 49 M180 49 C180 53, 178 55, 174 55 M180 49 C180 53, 178 55, 174 55 M174 55 C107.18 55, 40.36 55, 6 55 M174 55 C132.85 55, 91.71 55, 6 55 M6 55 C2 55, 0 53, 0 49 M6 55 C2 55, 0 53, 0 49 M0 49 C0 34.62, 0 20.25, 0 6 M0 49 C0 38.9, 0 28.81, 0 6 M0 6 C0 2, 2 0, 6 0 M0 6 C0 2, 2 0, 6 0" stroke="#ea580c" stroke-width="1.5" fill="none"></path></g><g transform="translate(758.825 246) rotate(0 21.17500000000001 7.699999999999989)"><text x="21.175" y="10.515999999999998" font-family="Segoe UI Emoji" font-size="11px" fill="#1e293b" text-anchor="middle" style="white-space: pre;" direction="ltr" dominant-baseline="alphabetic">axis_we</text></g><g transform="translate(711.25 264.5) rotate(0 68.75 7)"><text x="68.75" y="9.559999999999999" font-family="Segoe UI Emoji" font-size="10px" fill="#64748b" text-anchor="middle" style="white-space: pre;" direction="ltr" dominant-baseline="alphabetic">wolverine schema (outbox)</text></g><g stroke-linecap="round"><g transform="translate(670 262) rotate(0 5 0)"><path d="M0 0 C1.67 0, 8.33 0, 10 0 M0 0 C1.67 0, 8.33 0, 10 0" stroke="#ea580c" stroke-width="1.5" fill="none"></path></g><g transform="translate(670 262) rotate(0 5 0)"><path d="M5.3 1.71 C6.82 1.16, 8.34 0.6, 10 0 M5.3 1.71 C6.67 1.21, 8.03 0.72, 10 0" stroke="#ea580c" stroke-width="1.5" fill="none"></path></g><g transform="translate(670 262) rotate(0 5 0)"><path d="M5.3 -1.71 C6.82 -1.16, 8.34 -0.6, 10 0 M5.3 -1.71 C6.67 -1.21, 8.03 -0.72, 10 0" stroke="#ea580c" stroke-width="1.5" fill="none"></path></g></g><mask></mask><g stroke-linecap="round" transform="translate(690 304) rotate(0 90 27.5)"><path d="M6 0 C70.99 0, 135.99 0, 174 0 C178 0, 180 2, 180 6 C180 19.35, 180 32.71, 180 49 C180 53, 178 55, 174 55 C131.64 55, 89.28 55, 6 55 C2 55, 0 53, 0 49 C0 33.61, 0 18.23, 0 6 C0 2, 2 0, 6 0" stroke="none" stroke-width="0" fill="#ffedd5"></path><path d="M6 0 C63.61 0, 121.21 0, 174 0 M6 0 C48.24 0, 90.49 0, 174 0 M174 0 C178 0, 180 2, 180 6 M174 0 C178 0, 180 2, 180 6 M180 6 C180 18.61, 180 31.22, 180 49 M180 6 C180 21.83, 180 37.67, 180 49 M180 49 C180 53, 178 55, 174 55 M180 49 C180 53, 178 55, 174 55 M174 55 C117.89 55, 61.78 55, 6 55 M174 55 C134.79 55, 95.58 55, 6 55 M6 55 C2 55, 0 53, 0 49 M6 55 C2 55, 0 53, 0 49 M0 49 C0 34.06, 0 19.13, 0 6 M0 49 C0 39.22, 0 29.44, 0 6 M0 6 C0 2, 2 0, 6 0 M0 6 C0 2, 2 0, 6 0" stroke="#ea580c" stroke-width="1.5" fill="none"></path></g><g transform="translate(758.825 316) rotate(0 21.17500000000001 7.699999999999989)"><text x="21.175" y="10.515999999999998" font-family="Segoe UI Emoji" font-size="11px" fill="#1e293b" text-anchor="middle" style="white-space: pre;" direction="ltr" dominant-baseline="alphabetic">axis_fb</text></g><g transform="translate(711.25 334.5) rotate(0 68.75 7)"><text x="68.75" y="9.559999999999999" font-family="Segoe UI Emoji" font-size="10px" fill="#64748b" text-anchor="middle" style="white-space: pre;" direction="ltr" dominant-baseline="alphabetic">wolverine schema (outbox)</text></g><g stroke-linecap="round"><g transform="translate(670 332) rotate(0 5 0)"><path d="M0 0 C1.67 0, 8.33 0, 10 0 M0 0 C1.67 0, 8.33 0, 10 0" stroke="#ea580c" stroke-width="1.5" fill="none"></path></g><g transform="translate(670 332) rotate(0 5 0)"><path d="M5.3 1.71 C6.75 1.18, 8.21 0.65, 10 0 M5.3 1.71 C6.63 1.23, 7.95 0.75, 10 0" stroke="#ea580c" stroke-width="1.5" fill="none"></path></g><g transform="translate(670 332) rotate(0 5 0)"><path d="M5.3 -1.71 C6.75 -1.18, 8.21 -0.65, 10 0 M5.3 -1.71 C6.63 -1.23, 7.95 -0.75, 10 0" stroke="#ea580c" stroke-width="1.5" fill="none"></path></g></g><mask></mask><g stroke-linecap="round" transform="translate(690 374) rotate(0 90 27.5)"><path d="M6 0 C69.01 0, 132.01 0, 174 0 C178 0, 180 2, 180 6 C180 17.18, 180 28.35, 180 49 C180 53, 178 55, 174 55 C137.26 55, 100.52 55, 6 55 C2 55, 0 53, 0 49 C0 32.31, 0 15.63, 0 6 C0 2, 2 0, 6 0" stroke="none" stroke-width="0" fill="#ffedd5"></path><path d="M6 0 C50.55 0, 95.1 0, 174 0 M6 0 C58.14 0, 110.27 0, 174 0 M174 0 C178 0, 180 2, 180 6 M174 0 C178 0, 180 2, 180 6 M180 6 C180 22.49, 180 38.98, 180 49 M180 6 C180 17.59, 180 29.17, 180 49 M180 49 C180 53, 178 55, 174 55 M180 49 C180 53, 178 55, 174 55 M174 55 C131.85 55, 89.69 55, 6 55 M174 55 C107.67 55, 41.35 55, 6 55 M6 55 C2 55, 0 53, 0 49 M6 55 C2 55, 0 53, 0 49 M0 49 C0 34.59, 0 20.18, 0 6 M0 49 C0 38.61, 0 28.21, 0 6 M0 6 C0 2, 2 0, 6 0 M0 6 C0 2, 2 0, 6 0" stroke="#ea580c" stroke-width="1.5" fill="none"></path></g><g transform="translate(758.825 386) rotate(0 21.17500000000001 7.699999999999989)"><text x="21.175" y="10.515999999999998" font-family="Segoe UI Emoji" font-size="11px" fill="#1e293b" text-anchor="middle" style="white-space: pre;" direction="ltr" dominant-baseline="alphabetic">axis_dm</text></g><g transform="translate(744.25 404.5) rotate(0 35.75 7)"><text x="35.75" y="9.559999999999999" font-family="Segoe UI Emoji" font-size="10px" fill="#64748b" text-anchor="middle" style="white-space: pre;" direction="ltr" dominant-baseline="alphabetic">tenant schema</text></g><g stroke-linecap="round"><g transform="translate(670 402) rotate(0 5 0)"><path d="M0 0 C1.67 0, 8.33 0, 10 0 M0 0 C1.67 0, 8.33 0, 10 0" stroke="#ea580c" stroke-width="1.5" fill="none"></path></g><g transform="translate(670 402) rotate(0 5 0)"><path d="M5.3 1.71 C6.31 1.34, 7.31 0.98, 10 0 M5.3 1.71 C6.72 1.19, 8.13 0.68, 10 0" stroke="#ea580c" stroke-width="1.5" fill="none"></path></g><g transform="translate(670 402) rotate(0 5 0)"><path d="M5.3 -1.71 C6.31 -1.34, 7.31 -0.98, 10 0 M5.3 -1.71 C6.72 -1.19, 8.13 -0.68, 10 0" stroke="#ea580c" stroke-width="1.5" fill="none"></path></g></g><mask></mask><g stroke-linecap="round" transform="translate(690 454) rotate(0 90 27.5)"><path d="M6 0 C70.33 0, 134.66 0, 174 0 C178 0, 180 2, 180 6 C180 23.19, 180 40.39, 180 49 C180 53, 178 55, 174 55 C111.41 55, 48.83 55, 6 55 C2 55, 0 53, 0 49 C0 34.82, 0 20.65, 0 6 C0 2, 2 0, 6 0" stroke="none" stroke-width="0" fill="#ffedd5"></path><path d="M6 0 C60.88 0, 115.75 0, 174 0 M6 0 C62.75 0, 119.5 0, 174 0 M174 0 C178 0, 180 2, 180 6 M174 0 C178 0, 180 2, 180 6 M180 6 C180 17.07, 180 28.14, 180 49 M180 6 C180 15.68, 180 25.36, 180 49 M180 49 C180 53, 178 55, 174 55 M180 49 C180 53, 178 55, 174 55 M174 55 C122.03 55, 70.06 55, 6 55 M174 55 C127.88 55, 81.76 55, 6 55 M6 55 C2 55, 0 53, 0 49 M6 55 C2 55, 0 53, 0 49 M0 49 C0 35.87, 0 22.75, 0 6 M0 49 C0 34.64, 0 20.28, 0 6 M0 6 C0 2, 2 0, 6 0 M0 6 C0 2, 2 0, 6 0" stroke="#ea580c" stroke-width="1.5" fill="none"></path></g><g transform="translate(754.975 465) rotate(0 25.024999999999977 9.099999999999994)"><text x="25.025000000000002" y="12.427999999999999" font-family="Segoe UI Emoji" font-size="13px" fill="#1e293b" text-anchor="middle" style="white-space: pre;" direction="ltr" dominant-baseline="alphabetic">Redis 7</text></g><g transform="translate(700.25 484.5) rotate(0 79.75 7)"><text x="79.75" y="9.559999999999999" font-family="Segoe UI Emoji" font-size="10px" fill="#64748b" text-anchor="middle" style="white-space: pre;" direction="ltr" dominant-baseline="alphabetic">Cache · Session · Schema name</text></g><g stroke-linecap="round" transform="translate(690 534) rotate(0 90 27.5)"><path d="M6 0 C62.49 0, 118.98 0, 174 0 C178 0, 180 2, 180 6 C180 18.32, 180 30.65, 180 49 C180 53, 178 55, 174 55 C113.03 55, 52.06 55, 6 55 C2 55, 0 53, 0 49 C0 37.81, 0 26.62, 0 6 C0 2, 2 0, 6 0" stroke="none" stroke-width="0" fill="#f3e8ff"></path><path d="M6 0 C62.17 0, 118.35 0, 174 0 M6 0 C55.59 0, 105.17 0, 174 0 M174 0 C178 0, 180 2, 180 6 M174 0 C178 0, 180 2, 180 6 M180 6 C180 20.79, 180 35.58, 180 49 M180 6 C180 15.18, 180 24.36, 180 49 M180 49 C180 53, 178 55, 174 55 M180 49 C180 53, 178 55, 174 55 M174 55 C131.95 55, 89.89 55, 6 55 M174 55 C128.69 55, 83.39 55, 6 55 M6 55 C2 55, 0 53, 0 49 M6 55 C2 55, 0 53, 0 49 M0 49 C0 34.79, 0 20.58, 0 6 M0 49 C0 36.35, 0 23.7, 0 6 M0 6 C0 2, 2 0, 6 0 M0 6 C0 2, 2 0, 6 0" stroke="#9333ea" stroke-width="1.5" fill="none"></path></g><g transform="translate(758.55 545) rotate(0 21.44999999999999 9.100000000000023)"><text x="21.450000000000003" y="12.427999999999999" font-family="Segoe UI Emoji" font-size="13px" fill="#1e293b" text-anchor="middle" style="white-space: pre;" direction="ltr" dominant-baseline="alphabetic">AWS S3</text></g><g transform="translate(747 564.5) rotate(0 33 7)"><text x="33" y="9.559999999999999" font-family="Segoe UI Emoji" font-size="10px" fill="#64748b" text-anchor="middle" style="white-space: pre;" direction="ltr" dominant-baseline="alphabetic">File storage</text></g><g stroke-linecap="round" transform="translate(690 614) rotate(0 90 27.5)"><path d="M6 0 C39.69 0, 73.37 0, 174 0 C178 0, 180 2, 180 6 C180 21.5, 180 37, 180 49 C180 53, 178 55, 174 55 C125.03 55, 76.05 55, 6 55 C2 55, 0 53, 0 49 C0 34.58, 0 20.16, 0 6 C0 2, 2 0, 6 0" stroke="none" stroke-width="0" fill="#f3e8ff"></path><path d="M6 0 C53.21 0, 100.41 0, 174 0 M6 0 C55.83 0, 105.66 0, 174 0 M174 0 C178 0, 180 2, 180 6 M174 0 C178 0, 180 2, 180 6 M180 6 C180 18.32, 180 30.64, 180 49 M180 6 C180 16.74, 180 27.49, 180 49 M180 49 C180 53, 178 55, 174 55 M180 49 C180 53, 178 55, 174 55 M174 55 C119.57 55, 65.14 55, 6 55 M174 55 C108.91 55, 43.82 55, 6 55 M6 55 C2 55, 0 53, 0 49 M6 55 C2 55, 0 53, 0 49 M0 49 C0 32.53, 0 16.06, 0 6 M0 49 C0 33.1, 0 17.19, 0 6 M0 6 C0 2, 2 0, 6 0 M0 6 C0 2, 2 0, 6 0" stroke="#9333ea" stroke-width="1.5" fill="none"></path></g><g transform="translate(733.525 625) rotate(0 46.47500000000002 9.100000000000023)"><text x="46.475" y="12.427999999999999" font-family="Segoe UI Emoji" font-size="13px" fill="#1e293b" text-anchor="middle" style="white-space: pre;" direction="ltr" dominant-baseline="alphabetic">Email Service</text></g><g transform="translate(741.5 644.5) rotate(0 38.5 7)"><text x="38.5" y="9.559999999999999" font-family="Segoe UI Emoji" font-size="10px" fill="#64748b" text-anchor="middle" style="white-space: pre;" direction="ltr" dominant-baseline="alphabetic">SMTP · MailKit</text></g><g stroke-linecap="round"><g transform="translate(670 264) rotate(0 10 0)"><path d="M0 0 C3.33 0, 16.67 0, 20 0 M0 0 C3.33 0, 16.67 0, 20 0" stroke="#475569" stroke-width="1.5" fill="none"></path></g><g transform="translate(670 264) rotate(0 10 0)"><path d="M10.6 3.42 C13.29 2.44, 15.98 1.46, 20 0 M10.6 3.42 C14.12 2.14, 17.64 0.86, 20 0" stroke="#475569" stroke-width="1.5" fill="none"></path></g><g transform="translate(670 264) rotate(0 10 0)"><path d="M10.6 -3.42 C13.29 -2.44, 15.98 -1.46, 20 0 M10.6 -3.42 C14.12 -2.14, 17.64 -0.86, 20 0" stroke="#475569" stroke-width="1.5" fill="none"></path></g></g><mask></mask><g stroke-linecap="round"><g transform="translate(670 481) rotate(0 10 0)"><path d="M0 0 C3.33 0, 16.67 0, 20 0 M0 0 C3.33 0, 16.67 0, 20 0" stroke="#475569" stroke-width="1.5" fill="none"></path></g><g transform="translate(670 481) rotate(0 10 0)"><path d="M10.6 3.42 C14.08 2.15, 17.56 0.89, 20 0 M10.6 3.42 C12.99 2.55, 15.38 1.68, 20 0" stroke="#475569" stroke-width="1.5" fill="none"></path></g><g transform="translate(670 481) rotate(0 10 0)"><path d="M10.6 -3.42 C14.08 -2.15, 17.56 -0.89, 20 0 M10.6 -3.42 C12.99 -2.55, 15.38 -1.68, 20 0" stroke="#475569" stroke-width="1.5" fill="none"></path></g></g><mask></mask></svg>