<svg version="1.1" xmlns="http://www.w3.org/2000/svg" viewBox="0 0 980 585" width="980" height="585"><!-- svg-source:excalidraw --><metadata></metadata><defs><style class="style-fonts">
      </style></defs><rect x="0" y="0" width="980" height="585" fill="#f8fafc"></rect><g transform="translate(302.1 10) rotate(0 207.90000000000003 12.600000000000001)"><text x="207.9" y="17.208" font-family="Segoe UI Emoji" font-size="18px" fill="#1e293b" text-anchor="middle" style="white-space: pre;" direction="ltr" dominant-baseline="alphabetic">Axis — Module Communication (Event-Driven)</text></g><g transform="translate(177.25 38.5) rotate(0 332.75 7.699999999999999)"><text x="332.75" y="10.515999999999998" font-family="Segoe UI Emoji" font-size="11px" fill="#64748b" text-anchor="middle" style="white-space: pre;" direction="ltr" dominant-baseline="alphabetic">Modules are data-sovereign. Cross-module communication via Wolverine domain events only — no shared DB access.</text></g><g stroke-linecap="round" transform="translate(270 69) rotate(0 240 27.5)"><path d="M6 0 C172.09 0, 338.19 0, 474 0 C478 0, 480 2, 480 6 C480 16.41, 480 26.81, 480 49 C480 53, 478 55, 474 55 C360.04 55, 246.09 55, 6 55 C2 55, 0 53, 0 49 C0 37.04, 0 25.08, 0 6 C0 2, 2 0, 6 0" stroke="none" stroke-width="0" fill="#e2e8f0"></path><path d="M6 0 C177.56 0, 349.11 0, 474 0 M6 0 C121.95 0, 237.89 0, 474 0 M474 0 C478 0, 480 2, 480 6 M474 0 C478 0, 480 2, 480 6 M480 6 C480 21.29, 480 36.58, 480 49 M480 6 C480 15.29, 480 24.57, 480 49 M480 49 C480 53, 478 55, 474 55 M480 49 C480 53, 478 55, 474 55 M474 55 C310.48 55, 146.96 55, 6 55 M474 55 C377.79 55, 281.59 55, 6 55 M6 55 C2 55, 0 53, 0 49 M6 55 C2 55, 0 53, 0 49 M0 49 C0 35.3, 0 21.6, 0 6 M0 49 C0 36.46, 0 23.93, 0 6 M0 6 C0 2, 2 0, 6 0 M0 6 C0 2, 2 0, 6 0" stroke="#94a3b8" stroke-width="1.5" fill="none"></path></g><g transform="translate(236.09999999999997 90.5) rotate(0 273.9000000000001 8.399999999999999)"><text x="273.90000000000003" y="11.471999999999998" font-family="Segoe UI Emoji" font-size="12px" fill="#1e293b" text-anchor="middle" style="white-space: pre;" direction="ltr" dominant-baseline="alphabetic">Shared Kernel  —  Domain Primitives · CQRS Abstractions · Multi-Tenancy · Event Bus</text></g><g stroke-linecap="round" transform="translate(10 174) rotate(0 100 40)"><path d="M6 0 C46.24 0, 86.47 0, 194 0 C198 0, 200 2, 200 6 C200 28.29, 200 50.57, 200 74 C200 78, 198 80, 194 80 C141.85 80, 89.7 80, 6 80 C2 80, 0 78, 0 74 C0 49.07, 0 24.15, 0 6 C0 2, 2 0, 6 0" stroke="none" stroke-width="0" fill="#ede9fe"></path><path d="M6 0 C48.82 0, 91.63 0, 194 0 M6 0 C44.86 0, 83.73 0, 194 0 M194 0 C198 0, 200 2, 200 6 M194 0 C198 0, 200 2, 200 6 M200 6 C200 24.14, 200 42.29, 200 74 M200 6 C200 32.25, 200 58.51, 200 74 M200 74 C200 78, 198 80, 194 80 M200 74 C200 78, 198 80, 194 80 M194 80 C124.88 80, 55.76 80, 6 80 M194 80 C145.51 80, 97.01 80, 6 80 M6 80 C2 80, 0 78, 0 74 M6 80 C2 80, 0 78, 0 74 M0 74 C0 49.52, 0 25.04, 0 6 M0 74 C0 55.75, 0 37.49, 0 6 M0 6 C0 2, 2 0, 6 0 M0 6 C0 2, 2 0, 6 0" stroke="#7c3aed" stroke-width="1.5" fill="none"></path></g><g transform="translate(81.4 197.5) rotate(0 28.60000000000001 9.099999999999994)"><text x="28.6" y="12.427999999999999" font-family="Segoe UI Emoji" font-size="13px" fill="#1e293b" text-anchor="middle" style="white-space: pre;" direction="ltr" dominant-baseline="alphabetic">Identity</text></g><g transform="translate(35.75 217) rotate(0 74.25 7)"><text x="74.25" y="9.559999999999999" font-family="Segoe UI Emoji" font-size="10px" fill="#64748b" text-anchor="middle" style="white-space: pre;" direction="ltr" dominant-baseline="alphabetic">Auth · Users · Roles · RBAC</text></g><g stroke-linecap="round" transform="translate(250 174) rotate(0 100 40)"><path d="M6 0 C61.65 0, 117.3 0, 194 0 C198 0, 200 2, 200 6 C200 26.98, 200 47.97, 200 74 C200 78, 198 80, 194 80 C124.3 80, 54.6 80, 6 80 C2 80, 0 78, 0 74 C0 59.38, 0 44.76, 0 6 C0 2, 2 0, 6 0" stroke="none" stroke-width="0" fill="#dcfce7"></path><path d="M6 0 C67.79 0, 129.57 0, 194 0 M6 0 C52.44 0, 98.88 0, 194 0 M194 0 C198 0, 200 2, 200 6 M194 0 C198 0, 200 2, 200 6 M200 6 C200 23.92, 200 41.84, 200 74 M200 6 C200 29.93, 200 53.87, 200 74 M200 74 C200 78, 198 80, 194 80 M200 74 C200 78, 198 80, 194 80 M194 80 C137.74 80, 81.48 80, 6 80 M194 80 C131.89 80, 69.77 80, 6 80 M6 80 C2 80, 0 78, 0 74 M6 80 C2 80, 0 78, 0 74 M0 74 C0 58.89, 0 43.77, 0 6 M0 74 C0 59.33, 0 44.65, 0 6 M0 6 C0 2, 2 0, 6 0 M0 6 C0 2, 2 0, 6 0" stroke="#16a34a" stroke-width="1.5" fill="none"></path></g><g transform="translate(307.1 197.5) rotate(0 42.900000000000006 9.099999999999994)"><text x="42.900000000000006" y="12.427999999999999" font-family="Segoe UI Emoji" font-size="13px" fill="#1e293b" text-anchor="middle" style="white-space: pre;" direction="ltr" dominant-baseline="alphabetic">DataModeling</text></g><g transform="translate(264.75 217) rotate(0 85.25 7)"><text x="85.25" y="9.559999999999999" font-family="Segoe UI Emoji" font-size="10px" fill="#64748b" text-anchor="middle" style="white-space: pre;" direction="ltr" dominant-baseline="alphabetic">Models · Records · Data Classes</text></g><g stroke-linecap="round" transform="translate(490 174) rotate(0 100 40)"><path d="M6 0 C56.18 0, 106.36 0, 194 0 C198 0, 200 2, 200 6 C200 30.2, 200 54.4, 200 74 C200 78, 198 80, 194 80 C141.34 80, 88.69 80, 6 80 C2 80, 0 78, 0 74 C0 50.12, 0 26.24, 0 6 C0 2, 2 0, 6 0" stroke="none" stroke-width="0" fill="#dcfce7"></path><path d="M6 0 C60.65 0, 115.31 0, 194 0 M6 0 C74.28 0, 142.57 0, 194 0 M194 0 C198 0, 200 2, 200 6 M194 0 C198 0, 200 2, 200 6 M200 6 C200 31.77, 200 57.55, 200 74 M200 6 C200 30.82, 200 55.65, 200 74 M200 74 C200 78, 198 80, 194 80 M200 74 C200 78, 198 80, 194 80 M194 80 C146.08 80, 98.16 80, 6 80 M194 80 C149.17 80, 104.34 80, 6 80 M6 80 C2 80, 0 78, 0 74 M6 80 C2 80, 0 78, 0 74 M0 74 C0 51.88, 0 29.77, 0 6 M0 74 C0 59.59, 0 45.17, 0 6 M0 6 C0 2, 2 0, 6 0 M0 6 C0 2, 2 0, 6 0" stroke="#16a34a" stroke-width="1.5" fill="none"></path></g><g transform="translate(536.375 197.5) rotate(0 53.625 9.099999999999994)"><text x="53.62500000000001" y="12.427999999999999" font-family="Segoe UI Emoji" font-size="13px" fill="#1e293b" text-anchor="middle" style="white-space: pre;" direction="ltr" dominant-baseline="alphabetic">WorkflowBuilder</text></g><g transform="translate(507.5 217) rotate(0 82.5 7)"><text x="82.5" y="9.559999999999999" font-family="Segoe UI Emoji" font-size="10px" fill="#64748b" text-anchor="middle" style="white-space: pre;" direction="ltr" dominant-baseline="alphabetic">Definitions · Steps · Triggers</text></g><g stroke-linecap="round" transform="translate(730 174) rotate(0 100 40)"><path d="M6 0 C78.28 0, 150.57 0, 194 0 C198 0, 200 2, 200 6 C200 27.63, 200 49.27, 200 74 C200 78, 198 80, 194 80 C149.56 80, 105.13 80, 6 80 C2 80, 0 78, 0 74 C0 53.15, 0 32.3, 0 6 C0 2, 2 0, 6 0" stroke="none" stroke-width="0" fill="#dcfce7"></path><path d="M6 0 C48.78 0, 91.56 0, 194 0 M6 0 C48.84 0, 91.68 0, 194 0 M194 0 C198 0, 200 2, 200 6 M194 0 C198 0, 200 2, 200 6 M200 6 C200 27.88, 200 49.77, 200 74 M200 6 C200 27.33, 200 48.67, 200 74 M200 74 C200 78, 198 80, 194 80 M200 74 C200 78, 198 80, 194 80 M194 80 C137.69 80, 81.38 80, 6 80 M194 80 C126.15 80, 58.31 80, 6 80 M6 80 C2 80, 0 78, 0 74 M6 80 C2 80, 0 78, 0 74 M0 74 C0 58.6, 0 43.19, 0 6 M0 74 C0 56.7, 0 39.4, 0 6 M0 6 C0 2, 2 0, 6 0 M0 6 C0 2, 2 0, 6 0" stroke="#16a34a" stroke-width="1.5" fill="none"></path></g><g transform="translate(790.675 197.5) rotate(0 39.32499999999999 9.099999999999994)"><text x="39.325" y="12.427999999999999" font-family="Segoe UI Emoji" font-size="13px" fill="#1e293b" text-anchor="middle" style="white-space: pre;" direction="ltr" dominant-baseline="alphabetic">FormBuilder</text></g><g transform="translate(753 217) rotate(0 77 7)"><text x="77" y="9.559999999999999" font-family="Segoe UI Emoji" font-size="10px" fill="#64748b" text-anchor="middle" style="white-space: pre;" direction="ltr" dominant-baseline="alphabetic">Forms · Fields · Submissions</text></g><g stroke-linecap="round" transform="translate(250 374) rotate(0 100 40)"><path d="M6 0 C76.96 0, 147.93 0, 194 0 C198 0, 200 2, 200 6 C200 26.32, 200 46.63, 200 74 C200 78, 198 80, 194 80 C153.82 80, 113.64 80, 6 80 C2 80, 0 78, 0 74 C0 49.03, 0 24.06, 0 6 C0 2, 2 0, 6 0" stroke="none" stroke-width="0" fill="#dcfce7"></path><path d="M6 0 C48.63 0, 91.26 0, 194 0 M6 0 C48.13 0, 90.26 0, 194 0 M194 0 C198 0, 200 2, 200 6 M194 0 C198 0, 200 2, 200 6 M200 6 C200 31.93, 200 57.86, 200 74 M200 6 C200 27.23, 200 48.46, 200 74 M200 74 C200 78, 198 80, 194 80 M200 74 C200 78, 198 80, 194 80 M194 80 C139.79 80, 85.57 80, 6 80 M194 80 C128.98 80, 63.97 80, 6 80 M6 80 C2 80, 0 78, 0 74 M6 80 C2 80, 0 78, 0 74 M0 74 C0 54.39, 0 34.78, 0 6 M0 74 C0 53.33, 0 32.67, 0 6 M0 6 C0 2, 2 0, 6 0 M0 6 C0 2, 2 0, 6 0" stroke="#16a34a" stroke-width="1.5" fill="none"></path></g><g transform="translate(299.95 397.5) rotate(0 50.05000000000001 9.099999999999994)"><text x="50.050000000000004" y="12.427999999999999" font-family="Segoe UI Emoji" font-size="13px" fill="#1e293b" text-anchor="middle" style="white-space: pre;" direction="ltr" dominant-baseline="alphabetic">WorkflowEngine</text></g><g transform="translate(278.5 417) rotate(0 71.5 7)"><text x="71.5" y="9.559999999999999" font-family="Segoe UI Emoji" font-size="10px" fill="#64748b" text-anchor="middle" style="white-space: pre;" direction="ltr" dominant-baseline="alphabetic">Executions · Step Handlers</text></g><g stroke-linecap="round" transform="translate(490 374) rotate(0 100 40)"><path d="M6 0 C73.61 0, 141.22 0, 194 0 C198 0, 200 2, 200 6 C200 31.6, 200 57.2, 200 74 C200 78, 198 80, 194 80 C129.4 80, 64.79 80, 6 80 C2 80, 0 78, 0 74 C0 48.21, 0 22.43, 0 6 C0 2, 2 0, 6 0" stroke="none" stroke-width="0" fill="#fce7f3"></path><path d="M6 0 C55.05 0, 104.1 0, 194 0 M6 0 C46.82 0, 87.64 0, 194 0 M194 0 C198 0, 200 2, 200 6 M194 0 C198 0, 200 2, 200 6 M200 6 C200 27.17, 200 48.34, 200 74 M200 6 C200 28.58, 200 51.16, 200 74 M200 74 C200 78, 198 80, 194 80 M200 74 C200 78, 198 80, 194 80 M194 80 C133.68 80, 73.37 80, 6 80 M194 80 C137.37 80, 80.73 80, 6 80 M6 80 C2 80, 0 78, 0 74 M6 80 C2 80, 0 78, 0 74 M0 74 C0 60.05, 0 46.1, 0 6 M0 74 C0 54.38, 0 34.76, 0 6 M0 6 C0 2, 2 0, 6 0 M0 6 C0 2, 2 0, 6 0" stroke="#be185d" stroke-width="1.5" fill="none"></path></g><g transform="translate(550.675 397.5) rotate(0 39.32499999999999 9.099999999999994)"><text x="39.325" y="12.427999999999999" font-family="Segoe UI Emoji" font-size="13px" fill="#1e293b" text-anchor="middle" style="white-space: pre;" direction="ltr" dominant-baseline="alphabetic">PageBuilder</text></g><g transform="translate(518.5 417) rotate(0 71.5 7)"><text x="71.5" y="9.559999999999999" font-family="Segoe UI Emoji" font-size="10px" fill="#64748b" text-anchor="middle" style="white-space: pre;" direction="ltr" dominant-baseline="alphabetic">Pages · Widgets · Bindings</text></g><g stroke-linecap="round" transform="translate(10 314) rotate(0 480 15)"><path d="M6 0 C196.44 0, 386.89 0, 954 0 C958 0, 960 2, 960 6 C960 10.29, 960 14.58, 960 24 C960 28, 958 30, 954 30 C641.59 30, 329.19 30, 6 30 C2 30, 0 28, 0 24 C0 18.16, 0 12.32, 0 6 C0 2, 2 0, 6 0" stroke="none" stroke-width="0" fill="#fef9c3"></path><path d="M6 0 C357.36 0, 708.72 0, 954 0 M6 0 C250.74 0, 495.48 0, 954 0 M954 0 C958 0, 960 2, 960 6 M954 0 C958 0, 960 2, 960 6 M960 6 C960 12.48, 960 18.97, 960 24 M960 6 C960 12.38, 960 18.76, 960 24 M960 24 C960 28, 958 30, 954 30 M960 24 C960 28, 958 30, 954 30 M954 30 C668.03 30, 382.07 30, 6 30 M954 30 C677.82 30, 401.65 30, 6 30 M6 30 C2 30, 0 28, 0 24 M6 30 C2 30, 0 28, 0 24 M0 24 C0 18.47, 0 12.93, 0 6 M0 24 C0 18.68, 0 13.35, 0 6 M0 6 C0 2, 2 0, 6 0 M0 6 C0 2, 2 0, 6 0" stroke="#ca8a04" stroke-width="1.5" fill="none"></path></g><g transform="translate(238.92499999999995 323.5) rotate(0 251.07500000000005 7.699999999999989)"><text x="251.07500000000002" y="10.515999999999998" font-family="Segoe UI Emoji" font-size="11px" fill="#92400e" text-anchor="middle" style="white-space: pre;" direction="ltr" dominant-baseline="alphabetic">Wolverine Domain Event Bus  (durable outbox per module DB — at-least-once delivery)</text></g><g stroke-linecap="round" transform="translate(30 352) rotate(0 54.75 11)"><path d="M5.5 0 C32.95 0, 60.4 0, 104 0 C107.67 0, 109.5 1.83, 109.5 5.5 C109.5 8.69, 109.5 11.87, 109.5 16.5 C109.5 20.17, 107.67 22, 104 22 C81.31 22, 58.63 22, 5.5 22 C1.83 22, 0 20.17, 0 16.5 C0 12.64, 0 8.78, 0 5.5 C0 1.83, 1.83 0, 5.5 0" stroke="none" stroke-width="0" fill="#fef9c3"></path><path d="M5.5 0 C42.07 0, 78.64 0, 104 0 M5.5 0 C27.69 0, 49.88 0, 104 0 M104 0 C107.67 0, 109.5 1.83, 109.5 5.5 M104 0 C107.67 0, 109.5 1.83, 109.5 5.5 M109.5 5.5 C109.5 8.59, 109.5 11.67, 109.5 16.5 M109.5 5.5 C109.5 8.2, 109.5 10.9, 109.5 16.5 M109.5 16.5 C109.5 20.17, 107.67 22, 104 22 M109.5 16.5 C109.5 20.17, 107.67 22, 104 22 M104 22 C68.69 22, 33.38 22, 5.5 22 M104 22 C67.61 22, 31.22 22, 5.5 22 M5.5 22 C1.83 22, 0 20.17, 0 16.5 M5.5 22 C1.83 22, 0 20.17, 0 16.5 M0 16.5 C0 14.21, 0 11.93, 0 5.5 M0 16.5 C0 13.2, 0 9.9, 0 5.5 M0 5.5 C0 1.83, 1.83 0, 5.5 0 M0 5.5 C0 1.83, 1.83 0, 5.5 0" stroke="#ca8a04" stroke-width="1.5" fill="none"></path></g><g transform="translate(38 358) rotate(0 46.75 7)"><text x="46.75000000000001" y="9.559999999999999" font-family="Segoe UI Emoji" font-size="10px" fill="#92400e" text-anchor="middle" style="white-space: pre;" direction="ltr" dominant-baseline="alphabetic">WorkflowPublished</text></g><g stroke-linecap="round" transform="translate(210 352) rotate(0 52 11)"><path d="M5.5 0 C36.76 0, 68.02 0, 98.5 0 C102.17 0, 104 1.83, 104 5.5 C104 8.26, 104 11.03, 104 16.5 C104 20.17, 102.17 22, 98.5 22 C71.99 22, 45.49 22, 5.5 22 C1.83 22, 0 20.17, 0 16.5 C0 14.25, 0 11.99, 0 5.5 C0 1.83, 1.83 0, 5.5 0" stroke="none" stroke-width="0" fill="#fef9c3"></path><path d="M5.5 0 C34.17 0, 62.84 0, 98.5 0 M5.5 0 C25.58 0, 45.67 0, 98.5 0 M98.5 0 C102.17 0, 104 1.83, 104 5.5 M98.5 0 C102.17 0, 104 1.83, 104 5.5 M104 5.5 C104 9.16, 104 12.83, 104 16.5 M104 5.5 C104 9.08, 104 12.66, 104 16.5 M104 16.5 C104 20.17, 102.17 22, 98.5 22 M104 16.5 C104 20.17, 102.17 22, 98.5 22 M98.5 22 C74.16 22, 49.82 22, 5.5 22 M98.5 22 C79.89 22, 61.29 22, 5.5 22 M5.5 22 C1.83 22, 0 20.17, 0 16.5 M5.5 22 C1.83 22, 0 20.17, 0 16.5 M0 16.5 C0 13.04, 0 9.57, 0 5.5 M0 16.5 C0 13.3, 0 10.1, 0 5.5 M0 5.5 C0 1.83, 1.83 0, 5.5 0 M0 5.5 C0 1.83, 1.83 0, 5.5 0" stroke="#ca8a04" stroke-width="1.5" fill="none"></path></g><g transform="translate(218 358) rotate(0 44 7)"><text x="44" y="9.559999999999999" font-family="Segoe UI Emoji" font-size="10px" fill="#92400e" text-anchor="middle" style="white-space: pre;" direction="ltr" dominant-baseline="alphabetic">WorkflowArchived</text></g><g stroke-linecap="round" transform="translate(380 352) rotate(0 57.5 11)"><path d="M5.5 0 C33.44 0, 61.38 0, 109.5 0 C113.17 0, 115 1.83, 115 5.5 C115 8.55, 115 11.61, 115 16.5 C115 20.17, 113.17 22, 109.5 22 C72.94 22, 36.38 22, 5.5 22 C1.83 22, 0 20.17, 0 16.5 C0 13.12, 0 9.75, 0 5.5 C0 1.83, 1.83 0, 5.5 0" stroke="none" stroke-width="0" fill="#fef9c3"></path><path d="M5.5 0 C32.96 0, 60.43 0, 109.5 0 M5.5 0 C30.95 0, 56.41 0, 109.5 0 M109.5 0 C113.17 0, 115 1.83, 115 5.5 M109.5 0 C113.17 0, 115 1.83, 115 5.5 M115 5.5 C115 8.45, 115 11.4, 115 16.5 M115 5.5 C115 9.18, 115 12.86, 115 16.5 M115 16.5 C115 20.17, 113.17 22, 109.5 22 M115 16.5 C115 20.17, 113.17 22, 109.5 22 M109.5 22 C69.4 22, 29.3 22, 5.5 22 M109.5 22 C81.38 22, 53.26 22, 5.5 22 M5.5 22 C1.83 22, 0 20.17, 0 16.5 M5.5 22 C1.83 22, 0 20.17, 0 16.5 M0 16.5 C0 13.28, 0 10.06, 0 5.5 M0 16.5 C0 13.87, 0 11.25, 0 5.5 M0 5.5 C0 1.83, 1.83 0, 5.5 0 M0 5.5 C0 1.83, 1.83 0, 5.5 0" stroke="#ca8a04" stroke-width="1.5" fill="none"></path></g><g transform="translate(388 358) rotate(0 49.5 7)"><text x="49.50000000000001" y="9.559999999999999" font-family="Segoe UI Emoji" font-size="10px" fill="#92400e" text-anchor="middle" style="white-space: pre;" direction="ltr" dominant-baseline="alphabetic">WorkflowUnarchived</text></g><g stroke-linecap="round" transform="translate(570 352) rotate(0 38.25 11)"><path d="M5.5 0 C23.21 0, 40.92 0, 71 0 C74.67 0, 76.5 1.83, 76.5 5.5 C76.5 9.3, 76.5 13.11, 76.5 16.5 C76.5 20.17, 74.67 22, 71 22 C56.79 22, 42.57 22, 5.5 22 C1.83 22, 0 20.17, 0 16.5 C0 12.52, 0 8.54, 0 5.5 C0 1.83, 1.83 0, 5.5 0" stroke="none" stroke-width="0" fill="#fef9c3"></path><path d="M5.5 0 C27.51 0, 49.52 0, 71 0 M5.5 0 C21.01 0, 36.52 0, 71 0 M71 0 C74.67 0, 76.5 1.83, 76.5 5.5 M71 0 C74.67 0, 76.5 1.83, 76.5 5.5 M76.5 5.5 C76.5 9.27, 76.5 13.03, 76.5 16.5 M76.5 5.5 C76.5 8.4, 76.5 11.29, 76.5 16.5 M76.5 16.5 C76.5 20.17, 74.67 22, 71 22 M76.5 16.5 C76.5 20.17, 74.67 22, 71 22 M71 22 C47.5 22, 23.99 22, 5.5 22 M71 22 C55.68 22, 40.35 22, 5.5 22 M5.5 22 C1.83 22, 0 20.17, 0 16.5 M5.5 22 C1.83 22, 0 20.17, 0 16.5 M0 16.5 C0 13.67, 0 10.83, 0 5.5 M0 16.5 C0 13.16, 0 9.83, 0 5.5 M0 5.5 C0 1.83, 1.83 0, 5.5 0 M0 5.5 C0 1.83, 1.83 0, 5.5 0" stroke="#ca8a04" stroke-width="1.5" fill="none"></path></g><g transform="translate(578 358) rotate(0 30.25 7)"><text x="30.250000000000004" y="9.559999999999999" font-family="Segoe UI Emoji" font-size="10px" fill="#92400e" text-anchor="middle" style="white-space: pre;" direction="ltr" dominant-baseline="alphabetic">FormCreated</text></g><g stroke-linecap="round" transform="translate(720 352) rotate(0 49.25 11)"><path d="M5.5 0 C31.6 0, 57.7 0, 93 0 C96.67 0, 98.5 1.83, 98.5 5.5 C98.5 9.8, 98.5 14.1, 98.5 16.5 C98.5 20.17, 96.67 22, 93 22 C63.8 22, 34.6 22, 5.5 22 C1.83 22, 0 20.17, 0 16.5 C0 13.13, 0 9.76, 0 5.5 C0 1.83, 1.83 0, 5.5 0" stroke="none" stroke-width="0" fill="#fef9c3"></path><path d="M5.5 0 C39.01 0, 72.52 0, 93 0 M5.5 0 C25.2 0, 44.91 0, 93 0 M93 0 C96.67 0, 98.5 1.83, 98.5 5.5 M93 0 C96.67 0, 98.5 1.83, 98.5 5.5 M98.5 5.5 C98.5 8.13, 98.5 10.76, 98.5 16.5 M98.5 5.5 C98.5 9.58, 98.5 13.67, 98.5 16.5 M98.5 16.5 C98.5 20.17, 96.67 22, 93 22 M98.5 16.5 C98.5 20.17, 96.67 22, 93 22 M93 22 C62.03 22, 31.06 22, 5.5 22 M93 22 C62.39 22, 31.79 22, 5.5 22 M5.5 22 C1.83 22, 0 20.17, 0 16.5 M5.5 22 C1.83 22, 0 20.17, 0 16.5 M0 16.5 C0 12.4, 0 8.3, 0 5.5 M0 16.5 C0 14.16, 0 11.83, 0 5.5 M0 5.5 C0 1.83, 1.83 0, 5.5 0 M0 5.5 C0 1.83, 1.83 0, 5.5 0" stroke="#ca8a04" stroke-width="1.5" fill="none"></path></g><g transform="translate(728 358) rotate(0 41.25 7)"><text x="41.25" y="9.559999999999999" font-family="Segoe UI Emoji" font-size="10px" fill="#92400e" text-anchor="middle" style="white-space: pre;" direction="ltr" dominant-baseline="alphabetic">FormTaskCreated</text></g><g stroke-linecap="round" transform="translate(850 352) rotate(0 52 11)"><path d="M5.5 0 C39.61 0, 73.73 0, 98.5 0 C102.17 0, 104 1.83, 104 5.5 C104 8.07, 104 10.65, 104 16.5 C104 20.17, 102.17 22, 98.5 22 C79.56 22, 60.61 22, 5.5 22 C1.83 22, 0 20.17, 0 16.5 C0 12.97, 0 9.43, 0 5.5 C0 1.83, 1.83 0, 5.5 0" stroke="none" stroke-width="0" fill="#fef9c3"></path><path d="M5.5 0 C37.11 0, 68.73 0, 98.5 0 M5.5 0 C38.64 0, 71.79 0, 98.5 0 M98.5 0 C102.17 0, 104 1.83, 104 5.5 M98.5 0 C102.17 0, 104 1.83, 104 5.5 M104 5.5 C104 8.49, 104 11.48, 104 16.5 M104 5.5 C104 8.66, 104 11.82, 104 16.5 M104 16.5 C104 20.17, 102.17 22, 98.5 22 M104 16.5 C104 20.17, 102.17 22, 98.5 22 M98.5 22 C70.07 22, 41.65 22, 5.5 22 M98.5 22 C71.91 22, 45.32 22, 5.5 22 M5.5 22 C1.83 22, 0 20.17, 0 16.5 M5.5 22 C1.83 22, 0 20.17, 0 16.5 M0 16.5 C0 13.64, 0 10.78, 0 5.5 M0 16.5 C0 12.11, 0 7.72, 0 5.5 M0 5.5 C0 1.83, 1.83 0, 5.5 0 M0 5.5 C0 1.83, 1.83 0, 5.5 0" stroke="#ca8a04" stroke-width="1.5" fill="none"></path></g><g transform="translate(858 358) rotate(0 44 7)"><text x="44" y="9.559999999999999" font-family="Segoe UI Emoji" font-size="10px" fill="#92400e" text-anchor="middle" style="white-space: pre;" direction="ltr" dominant-baseline="alphabetic">ExecutionStarted</text></g><g stroke-linecap="round"><g transform="translate(590 254) rotate(0 0 30)"><path d="M0 0 C0 10, 0 50, 0 60 M0 0 C0 10, 0 50, 0 60" stroke="#ca8a04" stroke-width="1.5" fill="none"></path></g><g transform="translate(590 254) rotate(0 0 30)"><path d="M-8.55 36.51 C-5.47 44.97, -2.39 53.43, 0 60 M-8.55 36.51 C-6.63 41.78, -4.71 47.05, 0 60" stroke="#ca8a04" stroke-width="1.5" fill="none"></path></g><g transform="translate(590 254) rotate(0 0 30)"><path d="M8.55 36.51 C5.47 44.97, 2.39 53.43, 0 60 M8.55 36.51 C6.63 41.78, 4.71 47.05, 0 60" stroke="#ca8a04" stroke-width="1.5" fill="none"></path></g></g><mask></mask><g transform="translate(565.25 265) rotate(0 24.75 7)"><text x="24.750000000000004" y="9.559999999999999" font-family="Segoe UI Emoji" font-size="10px" fill="#64748b" text-anchor="middle" style="white-space: pre;" direction="ltr" dominant-baseline="alphabetic">publishes</text></g><g stroke-linecap="round"><g transform="translate(350 344) rotate(0 0 15)"><path d="M0 0 C0 5, 0 25, 0 30 M0 0 C0 5, 0 25, 0 30" stroke="#ca8a04" stroke-width="1.5" fill="none"></path></g><g transform="translate(350 344) rotate(0 0 15)"><path d="M-5.13 15.9 C-3.79 19.58, -2.45 23.26, 0 30 M-5.13 15.9 C-3.65 19.98, -2.16 24.06, 0 30" stroke="#ca8a04" stroke-width="1.5" fill="none"></path></g><g transform="translate(350 344) rotate(0 0 15)"><path d="M5.13 15.9 C3.79 19.58, 2.45 23.26, 0 30 M5.13 15.9 C3.65 19.98, 2.16 24.06, 0 30" stroke="#ca8a04" stroke-width="1.5" fill="none"></path></g></g><mask></mask><g transform="translate(328 340) rotate(0 22 7)"><text x="22" y="9.559999999999999" font-family="Segoe UI Emoji" font-size="10px" fill="#64748b" text-anchor="middle" style="white-space: pre;" direction="ltr" dominant-baseline="alphabetic">consumes</text></g><g stroke-linecap="round"><g transform="translate(830 344) rotate(0 0 15)"><path d="M0 0 C0 5, 0 25, 0 30 M0 0 C0 5, 0 25, 0 30" stroke="#ca8a04" stroke-width="1.5" fill="none"></path></g><g transform="translate(830 344) rotate(0 0 15)"><path d="M-5.13 15.9 C-3.96 19.13, -2.79 22.35, 0 30 M-5.13 15.9 C-3.66 19.93, -2.2 23.96, 0 30" stroke="#ca8a04" stroke-width="1.5" fill="none"></path></g><g transform="translate(830 344) rotate(0 0 15)"><path d="M5.13 15.9 C3.96 19.13, 2.79 22.35, 0 30 M5.13 15.9 C3.66 19.93, 2.2 23.96, 0 30" stroke="#ca8a04" stroke-width="1.5" fill="none"></path></g></g><mask></mask><g transform="translate(808 340) rotate(0 22 7)"><text x="22" y="9.559999999999999" font-family="Segoe UI Emoji" font-size="10px" fill="#64748b" text-anchor="middle" style="white-space: pre;" direction="ltr" dominant-baseline="alphabetic">consumes</text></g><g stroke-linecap="round"><g transform="translate(350 454) rotate(0 0 20)"><path d="M0 0 C0 6.67, 0 33.33, 0 40" stroke="#64748b" stroke-width="2" fill="none" stroke-dasharray="8 9.5"></path></g><g transform="translate(350 454) rotate(0 0 20)"><path d="M-6.84 21.21 C-4.94 26.43, -3.04 31.65, 0 40" stroke="#64748b" stroke-width="2" fill="none"></path></g><g transform="translate(350 454) rotate(0 0 20)"><path d="M6.84 21.21 C4.94 26.43, 3.04 31.65, 0 40" stroke="#64748b" stroke-width="2" fill="none"></path></g></g><mask></mask><g transform="translate(311.5 455) rotate(0 38.5 7)"><text x="38.5" y="9.559999999999999" font-family="Segoe UI Emoji" font-size="10px" fill="#64748b" text-anchor="middle" style="white-space: pre;" direction="ltr" dominant-baseline="alphabetic">reads own copy</text></g><g stroke-linecap="round" transform="translate(10 474) rotate(0 110 50)"><path d="M6 0 C78.91 0, 151.82 0, 214 0 M6 0 C71.09 0, 136.18 0, 214 0 M214 0 C218 0, 220 2, 220 6 M214 0 C218 0, 220 2, 220 6 M220 6 C220 29.3, 220 52.59, 220 94 M220 6 C220 36.38, 220 66.76, 220 94 M220 94 C220 98, 218 100, 214 100 M220 94 C220 98, 218 100, 214 100 M214 100 C132.28 100, 50.56 100, 6 100 M214 100 C142.5 100, 70.99 100, 6 100 M6 100 C2 100, 0 98, 0 94 M6 100 C2 100, 0 98, 0 94 M0 94 C0 75.52, 0 57.04, 0 6 M0 94 C0 75.33, 0 56.66, 0 6 M0 6 C0 2, 2 0, 6 0 M0 6 C0 2, 2 0, 6 0" stroke="#94a3b8" stroke-width="1.5" fill="none"></path></g><g transform="translate(100 485.5) rotate(0 20 7.699999999999989)"><text x="20" y="10.515999999999998" font-family="Segoe UI Emoji" font-size="11px" fill="#1e293b" text-anchor="middle" style="white-space: pre;" direction="ltr" dominant-baseline="alphabetic">Legend</text></g><g stroke-linecap="round" transform="translate(25 504) rotate(0 8 8)"><path d="M4 0 C6.74 0, 9.48 0, 12 0 C14.67 0, 16 1.33, 16 4 C16 7, 16 10, 16 12 C16 14.67, 14.67 16, 12 16 C10.27 16, 8.54 16, 4 16 C1.33 16, 0 14.67, 0 12 C0 10.33, 0 8.66, 0 4 C0 1.33, 1.33 0, 4 0" stroke="none" stroke-width="0" fill="#dcfce7"></path><path d="M4 0 C6.13 0, 8.25 0, 12 0 M4 0 C6 0, 8 0, 12 0 M12 0 C14.67 0, 16 1.33, 16 4 M12 0 C14.67 0, 16 1.33, 16 4 M16 4 C16 6.51, 16 9.02, 16 12 M16 4 C16 7.17, 16 10.35, 16 12 M16 12 C16 14.67, 14.67 16, 12 16 M16 12 C16 14.67, 14.67 16, 12 16 M12 16 C9.81 16, 7.62 16, 4 16 M12 16 C10.24 16, 8.48 16, 4 16 M4 16 C1.33 16, 0 14.67, 0 12 M4 16 C1.33 16, 0 14.67, 0 12 M0 12 C0 10.15, 0 8.29, 0 4 M0 12 C0 9.8, 0 7.6, 0 4 M0 4 C0 1.33, 1.33 0, 4 0 M0 4 C0 1.33, 1.33 0, 4 0" stroke="#16a34a" stroke-width="1.5" fill="none"></path></g><g transform="translate(50 507) rotate(0 55 7)"><text x="55.00000000000001" y="9.559999999999999" font-family="Segoe UI Emoji" font-size="10px" fill="#1e293b" text-anchor="middle" style="white-space: pre;" direction="ltr" dominant-baseline="alphabetic">Module (owns its DB)</text></g><g stroke-linecap="round" transform="translate(25 528) rotate(0 8 8)"><path d="M4 0 C6.51 0, 9.02 0, 12 0 C14.67 0, 16 1.33, 16 4 C16 6.08, 16 8.17, 16 12 C16 14.67, 14.67 16, 12 16 C10.37 16, 8.75 16, 4 16 C1.33 16, 0 14.67, 0 12 C0 10.39, 0 8.79, 0 4 C0 1.33, 1.33 0, 4 0" stroke="none" stroke-width="0" fill="#fef9c3"></path><path d="M4 0 C6.38 0, 8.76 0, 12 0 M4 0 C6.04 0, 8.08 0, 12 0 M12 0 C14.67 0, 16 1.33, 16 4 M12 0 C14.67 0, 16 1.33, 16 4 M16 4 C16 6.8, 16 9.6, 16 12 M16 4 C16 5.75, 16 7.5, 16 12 M16 12 C16 14.67, 14.67 16, 12 16 M16 12 C16 14.67, 14.67 16, 12 16 M12 16 C9.36 16, 6.71 16, 4 16 M12 16 C9.53 16, 7.05 16, 4 16 M4 16 C1.33 16, 0 14.67, 0 12 M4 16 C1.33 16, 0 14.67, 0 12 M0 12 C0 9.54, 0 7.07, 0 4 M0 12 C0 9.05, 0 6.09, 0 4 M0 4 C0 1.33, 1.33 0, 4 0 M0 4 C0 1.33, 1.33 0, 4 0" stroke="#ca8a04" stroke-width="1.5" fill="none"></path></g><g transform="translate(50 531) rotate(0 33 7)"><text x="33" y="9.559999999999999" font-family="Segoe UI Emoji" font-size="10px" fill="#1e293b" text-anchor="middle" style="white-space: pre;" direction="ltr" dominant-baseline="alphabetic">Domain Event</text></g><g stroke-linecap="round"><g transform="translate(25 552) rotate(0 16 0)"><path d="M0 0 C5.33 0, 26.67 0, 32 0 M0 0 C5.33 0, 26.67 0, 32 0" stroke="#ca8a04" stroke-width="1.5" fill="none"></path></g><g transform="translate(25 552) rotate(0 16 0)"><path d="M16.96 5.47 C21 4, 25.04 2.53, 32 0 M16.96 5.47 C22.76 3.36, 28.56 1.25, 32 0" stroke="#ca8a04" stroke-width="1.5" fill="none"></path></g><g transform="translate(25 552) rotate(0 16 0)"><path d="M16.96 -5.47 C21 -4, 25.04 -2.53, 32 0 M16.96 -5.47 C22.76 -3.36, 28.56 -1.25, 32 0" stroke="#ca8a04" stroke-width="1.5" fill="none"></path></g></g><mask></mask><g transform="translate(62 547) rotate(0 33 7)"><text x="33" y="9.559999999999999" font-family="Segoe UI Emoji" font-size="10px" fill="#1e293b" text-anchor="middle" style="white-space: pre;" direction="ltr" dominant-baseline="alphabetic">Event-driven</text></g><g stroke-linecap="round"><g transform="translate(25 566) rotate(0 16 0)"><path d="M0 0 C5.33 0, 26.67 0, 32 0" stroke="#64748b" stroke-width="2" fill="none" stroke-dasharray="8 9.5"></path></g><g transform="translate(25 566) rotate(0 16 0)"><path d="M16.96 5.47 C20.22 4.29, 23.47 3.11, 32 0" stroke="#64748b" stroke-width="2" fill="none"></path></g><g transform="translate(25 566) rotate(0 16 0)"><path d="M16.96 -5.47 C20.22 -4.29, 23.47 -3.11, 32 0" stroke="#64748b" stroke-width="2" fill="none"></path></g></g><mask></mask><g transform="translate(62 561) rotate(0 68.75 7)"><text x="68.75" y="9.559999999999999" font-family="Segoe UI Emoji" font-size="10px" fill="#1e293b" text-anchor="middle" style="white-space: pre;" direction="ltr" dominant-baseline="alphabetic">Local copy (denormalized)</text></g></svg>