<svg version="1.1" xmlns="http://www.w3.org/2000/svg" viewBox="0 0 980 585" width="980" height="585"><!-- svg-source:excalidraw --><metadata></metadata><defs><style class="style-fonts">
      </style></defs><rect x="0" y="0" width="980" height="585" fill="#f8fafc"></rect><g transform="translate(302.1 10) rotate(0 207.90000000000003 12.600000000000001)"><text x="207.9" y="17.208" font-family="Segoe UI Emoji" font-size="18px" fill="#1e293b" text-anchor="middle" style="white-space: pre;" direction="ltr" dominant-baseline="alphabetic">Axis — Module Communication (Event-Driven)</text></g><g transform="translate(177.25 38.5) rotate(0 332.75 7.699999999999999)"><text x="332.75" y="10.515999999999998" font-family="Segoe UI Emoji" font-size="11px" fill="#64748b" text-anchor="middle" style="white-space: pre;" direction="ltr" dominant-baseline="alphabetic">Modules are data-sovereign. Cross-module communication via Wolverine domain events only — no shared DB access.</text></g><g stroke-linecap="round" transform="translate(270 69) rotate(0 240 27.5)"><path d="M6 0 C161.54 0, 317.08 0, 474 0 C478 0, 480 2, 480 6 C480 20.68, 480 35.37, 480 49 C480 53, 478 55, 474 55 C355.34 55, 236.69 55, 6 55 C2 55, 0 53, 0 49 C0 40.03, 0 31.07, 0 6 C0 2, 2 0, 6 0" stroke="none" stroke-width="0" fill="#e2e8f0"></path><path d="M6 0 C152.17 0, 298.34 0, 474 0 M6 0 C117.14 0, 228.29 0, 474 0 M474 0 C478 0, 480 2, 480 6 M474 0 C478 0, 480 2, 480 6 M480 6 C480 19.44, 480 32.89, 480 49 M480 6 C480 23.09, 480 40.18, 480 49 M480 49 C480 53, 478 55, 474 55 M480 49 C480 53, 478 55, 474 55 M474 55 C290.31 55, 106.62 55, 6 55 M474 55 C339.79 55, 205.58 55, 6 55 M6 55 C2 55, 0 53, 0 49 M6 55 C2 55, 0 53, 0 49 M0 49 C0 39.64, 0 30.29, 0 6 M0 49 C0 34.08, 0 19.17, 0 6 M0 6 C0 2, 2 0, 6 0 M0 6 C0 2, 2 0, 6 0" stroke="#94a3b8" stroke-width="1.5" fill="none"></path></g><g transform="translate(236.09999999999997 90.5) rotate(0 273.9000000000001 8.399999999999999)"><text x="273.90000000000003" y="11.471999999999998" font-family="Segoe UI Emoji" font-size="12px" fill="#1e293b" text-anchor="middle" style="white-space: pre;" direction="ltr" dominant-baseline="alphabetic">Shared Kernel  —  Domain Primitives · CQRS Abstractions · Multi-Tenancy · Event Bus</text></g><g stroke-linecap="round" transform="translate(10 174) rotate(0 100 40)"><path d="M6 0 C49.48 0, 92.96 0, 194 0 C198 0, 200 2, 200 6 C200 20.43, 200 34.87, 200 74 C200 78, 198 80, 194 80 C133.55 80, 73.1 80, 6 80 C2 80, 0 78, 0 74 C0 49.03, 0 24.05, 0 6 C0 2, 2 0, 6 0" stroke="none" stroke-width="0" fill="#ede9fe"></path><path d="M6 0 C48.41 0, 90.82 0, 194 0 M6 0 C61.38 0, 116.77 0, 194 0 M194 0 C198 0, 200 2, 200 6 M194 0 C198 0, 200 2, 200 6 M200 6 C200 23.4, 200 40.79, 200 74 M200 6 C200 26.61, 200 47.22, 200 74 M200 74 C200 78, 198 80, 194 80 M200 74 C200 78, 198 80, 194 80 M194 80 C149.82 80, 105.64 80, 6 80 M194 80 C150.46 80, 106.92 80, 6 80 M6 80 C2 80, 0 78, 0 74 M6 80 C2 80, 0 78, 0 74 M0 74 C0 60.12, 0 46.25, 0 6 M0 74 C0 47.89, 0 21.79, 0 6 M0 6 C0 2, 2 0, 6 0 M0 6 C0 2, 2 0, 6 0" stroke="#7c3aed" stroke-width="1.5" fill="none"></path></g><g transform="translate(81.4 197.5) rotate(0 28.60000000000001 9.099999999999994)"><text x="28.6" y="12.427999999999999" font-family="Segoe UI Emoji" font-size="13px" fill="#1e293b" text-anchor="middle" style="white-space: pre;" direction="ltr" dominant-baseline="alphabetic">Identity</text></g><g transform="translate(35.75 217) rotate(0 74.25 7)"><text x="74.25" y="9.559999999999999" font-family="Segoe UI Emoji" font-size="10px" fill="#64748b" text-anchor="middle" style="white-space: pre;" direction="ltr" dominant-baseline="alphabetic">Auth · Users · Roles · RBAC</text></g><g stroke-linecap="round" transform="translate(250 174) rotate(0 100 40)"><path d="M6 0 C73.05 0, 140.1 0, 194 0 C198 0, 200 2, 200 6 C200 28.45, 200 50.9, 200 74 C200 78, 198 80, 194 80 C141.08 80, 88.15 80, 6 80 C2 80, 0 78, 0 74 C0 48.59, 0 23.18, 0 6 C0 2, 2 0, 6 0" stroke="none" stroke-width="0" fill="#dcfce7"></path><path d="M6 0 C53.59 0, 101.17 0, 194 0 M6 0 C71.97 0, 137.95 0, 194 0 M194 0 C198 0, 200 2, 200 6 M194 0 C198 0, 200 2, 200 6 M200 6 C200 21.28, 200 36.57, 200 74 M200 6 C200 31.97, 200 57.93, 200 74 M200 74 C200 78, 198 80, 194 80 M200 74 C200 78, 198 80, 194 80 M194 80 C156.09 80, 118.18 80, 6 80 M194 80 C128.42 80, 62.83 80, 6 80 M6 80 C2 80, 0 78, 0 74 M6 80 C2 80, 0 78, 0 74 M0 74 C0 58.65, 0 43.3, 0 6 M0 74 C0 59.33, 0 44.66, 0 6 M0 6 C0 2, 2 0, 6 0 M0 6 C0 2, 2 0, 6 0" stroke="#16a34a" stroke-width="1.5" fill="none"></path></g><g transform="translate(307.1 197.5) rotate(0 42.900000000000006 9.099999999999994)"><text x="42.900000000000006" y="12.427999999999999" font-family="Segoe UI Emoji" font-size="13px" fill="#1e293b" text-anchor="middle" style="white-space: pre;" direction="ltr" dominant-baseline="alphabetic">DataModeling</text></g><g transform="translate(264.75 217) rotate(0 85.25 7)"><text x="85.25" y="9.559999999999999" font-family="Segoe UI Emoji" font-size="10px" fill="#64748b" text-anchor="middle" style="white-space: pre;" direction="ltr" dominant-baseline="alphabetic">Models · Records · Data Classes</text></g><g stroke-linecap="round" transform="translate(490 174) rotate(0 100 40)"><path d="M6 0 C55.66 0, 105.31 0, 194 0 C198 0, 200 2, 200 6 C200 21.53, 200 37.05, 200 74 C200 78, 198 80, 194 80 C144.29 80, 94.58 80, 6 80 C2 80, 0 78, 0 74 C0 53.63, 0 33.26, 0 6 C0 2, 2 0, 6 0" stroke="none" stroke-width="0" fill="#dcfce7"></path><path d="M6 0 C46.09 0, 86.17 0, 194 0 M6 0 C56.14 0, 106.28 0, 194 0 M194 0 C198 0, 200 2, 200 6 M194 0 C198 0, 200 2, 200 6 M200 6 C200 28.74, 200 51.48, 200 74 M200 6 C200 21.64, 200 37.27, 200 74 M200 74 C200 78, 198 80, 194 80 M200 74 C200 78, 198 80, 194 80 M194 80 C129.03 80, 64.07 80, 6 80 M194 80 C126.64 80, 59.29 80, 6 80 M6 80 C2 80, 0 78, 0 74 M6 80 C2 80, 0 78, 0 74 M0 74 C0 49.12, 0 24.23, 0 6 M0 74 C0 57.5, 0 41.01, 0 6 M0 6 C0 2, 2 0, 6 0 M0 6 C0 2, 2 0, 6 0" stroke="#16a34a" stroke-width="1.5" fill="none"></path></g><g transform="translate(536.375 197.5) rotate(0 53.625 9.099999999999994)"><text x="53.62500000000001" y="12.427999999999999" font-family="Segoe UI Emoji" font-size="13px" fill="#1e293b" text-anchor="middle" style="white-space: pre;" direction="ltr" dominant-baseline="alphabetic">WorkflowBuilder</text></g><g transform="translate(507.5 217) rotate(0 82.5 7)"><text x="82.5" y="9.559999999999999" font-family="Segoe UI Emoji" font-size="10px" fill="#64748b" text-anchor="middle" style="white-space: pre;" direction="ltr" dominant-baseline="alphabetic">Definitions · Steps · Triggers</text></g><g stroke-linecap="round" transform="translate(730 174) rotate(0 100 40)"><path d="M6 0 C56.07 0, 106.14 0, 194 0 C198 0, 200 2, 200 6 C200 29.97, 200 53.94, 200 74 C200 78, 198 80, 194 80 C140.62 80, 87.25 80, 6 80 C2 80, 0 78, 0 74 C0 47.65, 0 21.31, 0 6 C0 2, 2 0, 6 0" stroke="none" stroke-width="0" fill="#dcfce7"></path><path d="M6 0 C67.76 0, 129.51 0, 194 0 M6 0 C78.97 0, 151.94 0, 194 0 M194 0 C198 0, 200 2, 200 6 M194 0 C198 0, 200 2, 200 6 M200 6 C200 25.96, 200 45.92, 200 74 M200 6 C200 31.49, 200 56.97, 200 74 M200 74 C200 78, 198 80, 194 80 M200 74 C200 78, 198 80, 194 80 M194 80 C121.08 80, 48.17 80, 6 80 M194 80 C120.39 80, 46.78 80, 6 80 M6 80 C2 80, 0 78, 0 74 M6 80 C2 80, 0 78, 0 74 M0 74 C0 49.73, 0 25.47, 0 6 M0 74 C0 49.11, 0 24.23, 0 6 M0 6 C0 2, 2 0, 6 0 M0 6 C0 2, 2 0, 6 0" stroke="#16a34a" stroke-width="1.5" fill="none"></path></g><g transform="translate(790.675 197.5) rotate(0 39.32499999999999 9.099999999999994)"><text x="39.325" y="12.427999999999999" font-family="Segoe UI Emoji" font-size="13px" fill="#1e293b" text-anchor="middle" style="white-space: pre;" direction="ltr" dominant-baseline="alphabetic">FormBuilder</text></g><g transform="translate(753 217) rotate(0 77 7)"><text x="77" y="9.559999999999999" font-family="Segoe UI Emoji" font-size="10px" fill="#64748b" text-anchor="middle" style="white-space: pre;" direction="ltr" dominant-baseline="alphabetic">Forms · Fields · Submissions</text></g><g stroke-linecap="round" transform="translate(250 374) rotate(0 100 40)"><path d="M6 0 C79.17 0, 152.34 0, 194 0 C198 0, 200 2, 200 6 C200 24.37, 200 42.75, 200 74 C200 78, 198 80, 194 80 C128.28 80, 62.57 80, 6 80 C2 80, 0 78, 0 74 C0 53.53, 0 33.07, 0 6 C0 2, 2 0, 6 0" stroke="none" stroke-width="0" fill="#dcfce7"></path><path d="M6 0 C59.44 0, 112.88 0, 194 0 M6 0 C53.39 0, 100.78 0, 194 0 M194 0 C198 0, 200 2, 200 6 M194 0 C198 0, 200 2, 200 6 M200 6 C200 23.9, 200 41.8, 200 74 M200 6 C200 19.66, 200 33.33, 200 74 M200 74 C200 78, 198 80, 194 80 M200 74 C200 78, 198 80, 194 80 M194 80 C125.4 80, 56.8 80, 6 80 M194 80 C130.78 80, 67.56 80, 6 80 M6 80 C2 80, 0 78, 0 74 M6 80 C2 80, 0 78, 0 74 M0 74 C0 49.94, 0 25.88, 0 6 M0 74 C0 49.93, 0 25.85, 0 6 M0 6 C0 2, 2 0, 6 0 M0 6 C0 2, 2 0, 6 0" stroke="#16a34a" stroke-width="1.5" fill="none"></path></g><g transform="translate(299.95 397.5) rotate(0 50.05000000000001 9.099999999999994)"><text x="50.050000000000004" y="12.427999999999999" font-family="Segoe UI Emoji" font-size="13px" fill="#1e293b" text-anchor="middle" style="white-space: pre;" direction="ltr" dominant-baseline="alphabetic">WorkflowEngine</text></g><g transform="translate(278.5 417) rotate(0 71.5 7)"><text x="71.5" y="9.559999999999999" font-family="Segoe UI Emoji" font-size="10px" fill="#64748b" text-anchor="middle" style="white-space: pre;" direction="ltr" dominant-baseline="alphabetic">Executions · Step Handlers</text></g><g stroke-linecap="round" transform="translate(490 374) rotate(0 100 40)"><path d="M6 0 C78.2 0, 150.4 0, 194 0 C198 0, 200 2, 200 6 C200 27.02, 200 48.03, 200 74 C200 78, 198 80, 194 80 C145.52 80, 97.04 80, 6 80 C2 80, 0 78, 0 74 C0 49.2, 0 24.4, 0 6 C0 2, 2 0, 6 0" stroke="none" stroke-width="0" fill="#fce7f3"></path><path d="M6 0 C71.71 0, 137.41 0, 194 0 M6 0 C72.62 0, 139.24 0, 194 0 M194 0 C198 0, 200 2, 200 6 M194 0 C198 0, 200 2, 200 6 M200 6 C200 22.27, 200 38.53, 200 74 M200 6 C200 30.15, 200 54.3, 200 74 M200 74 C200 78, 198 80, 194 80 M200 74 C200 78, 198 80, 194 80 M194 80 C121.02 80, 48.03 80, 6 80 M194 80 C136.64 80, 79.29 80, 6 80 M6 80 C2 80, 0 78, 0 74 M6 80 C2 80, 0 78, 0 74 M0 74 C0 57.42, 0 40.84, 0 6 M0 74 C0 57.93, 0 41.86, 0 6 M0 6 C0 2, 2 0, 6 0 M0 6 C0 2, 2 0, 6 0" stroke="#be185d" stroke-width="1.5" fill="none"></path></g><g transform="translate(550.675 397.5) rotate(0 39.32499999999999 9.099999999999994)"><text x="39.325" y="12.427999999999999" font-family="Segoe UI Emoji" font-size="13px" fill="#1e293b" text-anchor="middle" style="white-space: pre;" direction="ltr" dominant-baseline="alphabetic">PageBuilder</text></g><g transform="translate(518.5 417) rotate(0 71.5 7)"><text x="71.5" y="9.559999999999999" font-family="Segoe UI Emoji" font-size="10px" fill="#64748b" text-anchor="middle" style="white-space: pre;" direction="ltr" dominant-baseline="alphabetic">Pages · Widgets · Bindings</text></g><g stroke-linecap="round" transform="translate(10 314) rotate(0 480 15)"><path d="M6 0 C333.54 0, 661.07 0, 954 0 C958 0, 960 2, 960 6 C960 10.02, 960 14.04, 960 24 C960 28, 958 30, 954 30 C598.85 30, 243.7 30, 6 30 C2 30, 0 28, 0 24 C0 19, 0 14.01, 0 6 C0 2, 2 0, 6 0" stroke="none" stroke-width="0" fill="#fef9c3"></path><path d="M6 0 C303.97 0, 601.93 0, 954 0 M6 0 C372.65 0, 739.3 0, 954 0 M954 0 C958 0, 960 2, 960 6 M954 0 C958 0, 960 2, 960 6 M960 6 C960 10.16, 960 14.32, 960 24 M960 6 C960 12.78, 960 19.56, 960 24 M960 24 C960 28, 958 30, 954 30 M960 24 C960 28, 958 30, 954 30 M954 30 C665.75 30, 377.5 30, 6 30 M954 30 C704.16 30, 454.32 30, 6 30 M6 30 C2 30, 0 28, 0 24 M6 30 C2 30, 0 28, 0 24 M0 24 C0 18.59, 0 13.18, 0 6 M0 24 C0 19.56, 0 15.12, 0 6 M0 6 C0 2, 2 0, 6 0 M0 6 C0 2, 2 0, 6 0" stroke="#ca8a04" stroke-width="1.5" fill="none"></path></g><g transform="translate(238.92499999999995 323.5) rotate(0 251.07500000000005 7.699999999999989)"><text x="251.07500000000002" y="10.515999999999998" font-family="Segoe UI Emoji" font-size="11px" fill="#92400e" text-anchor="middle" style="white-space: pre;" direction="ltr" dominant-baseline="alphabetic">Wolverine Domain Event Bus  (durable outbox per module DB — at-least-once delivery)</text></g><g stroke-linecap="round" transform="translate(30 352) rotate(0 54.75 11)"><path d="M5.5 0 C33.33 0, 61.17 0, 104 0 C107.67 0, 109.5 1.83, 109.5 5.5 C109.5 8.9, 109.5 12.31, 109.5 16.5 C109.5 20.17, 107.67 22, 104 22 C73.01 22, 42.02 22, 5.5 22 C1.83 22, 0 20.17, 0 16.5 C0 13.12, 0 9.74, 0 5.5 C0 1.83, 1.83 0, 5.5 0" stroke="none" stroke-width="0" fill="#fef9c3"></path><path d="M5.5 0 C27.98 0, 50.46 0, 104 0 M5.5 0 C30.04 0, 54.59 0, 104 0 M104 0 C107.67 0, 109.5 1.83, 109.5 5.5 M104 0 C107.67 0, 109.5 1.83, 109.5 5.5 M109.5 5.5 C109.5 8.77, 109.5 12.03, 109.5 16.5 M109.5 5.5 C109.5 7.8, 109.5 10.09, 109.5 16.5 M109.5 16.5 C109.5 20.17, 107.67 22, 104 22 M109.5 16.5 C109.5 20.17, 107.67 22, 104 22 M104 22 C83.56 22, 63.13 22, 5.5 22 M104 22 C70.92 22, 37.84 22, 5.5 22 M5.5 22 C1.83 22, 0 20.17, 0 16.5 M5.5 22 C1.83 22, 0 20.17, 0 16.5 M0 16.5 C0 13.47, 0 10.43, 0 5.5 M0 16.5 C0 14.08, 0 11.65, 0 5.5 M0 5.5 C0 1.83, 1.83 0, 5.5 0 M0 5.5 C0 1.83, 1.83 0, 5.5 0" stroke="#ca8a04" stroke-width="1.5" fill="none"></path></g><g transform="translate(38 358) rotate(0 46.75 7)"><text x="46.75000000000001" y="9.559999999999999" font-family="Segoe UI Emoji" font-size="10px" fill="#92400e" text-anchor="middle" style="white-space: pre;" direction="ltr" dominant-baseline="alphabetic">WorkflowPublished</text></g><g stroke-linecap="round" transform="translate(210 352) rotate(0 52 11)"><path d="M5.5 0 C36.74 0, 67.98 0, 98.5 0 C102.17 0, 104 1.83, 104 5.5 C104 9.42, 104 13.35, 104 16.5 C104 20.17, 102.17 22, 98.5 22 C72.27 22, 46.04 22, 5.5 22 C1.83 22, 0 20.17, 0 16.5 C0 12.6, 0 8.71, 0 5.5 C0 1.83, 1.83 0, 5.5 0" stroke="none" stroke-width="0" fill="#fef9c3"></path><path d="M5.5 0 C31.22 0, 56.93 0, 98.5 0 M5.5 0 C36.63 0, 67.76 0, 98.5 0 M98.5 0 C102.17 0, 104 1.83, 104 5.5 M98.5 0 C102.17 0, 104 1.83, 104 5.5 M104 5.5 C104 8.68, 104 11.86, 104 16.5 M104 5.5 C104 8.41, 104 11.33, 104 16.5 M104 16.5 C104 20.17, 102.17 22, 98.5 22 M104 16.5 C104 20.17, 102.17 22, 98.5 22 M98.5 22 C66.36 22, 34.23 22, 5.5 22 M98.5 22 C74.13 22, 49.76 22, 5.5 22 M5.5 22 C1.83 22, 0 20.17, 0 16.5 M5.5 22 C1.83 22, 0 20.17, 0 16.5 M0 16.5 C0 13.26, 0 10.02, 0 5.5 M0 16.5 C0 14.17, 0 11.84, 0 5.5 M0 5.5 C0 1.83, 1.83 0, 5.5 0 M0 5.5 C0 1.83, 1.83 0, 5.5 0" stroke="#ca8a04" stroke-width="1.5" fill="none"></path></g><g transform="translate(218 358) rotate(0 44 7)"><text x="44" y="9.559999999999999" font-family="Segoe UI Emoji" font-size="10px" fill="#92400e" text-anchor="middle" style="white-space: pre;" direction="ltr" dominant-baseline="alphabetic">WorkflowArchived</text></g><g stroke-linecap="round" transform="translate(380 352) rotate(0 57.5 11)"><path d="M5.5 0 C30.06 0, 54.63 0, 109.5 0 C113.17 0, 115 1.83, 115 5.5 C115 7.75, 115 10.01, 115 16.5 C115 20.17, 113.17 22, 109.5 22 C85.41 22, 61.31 22, 5.5 22 C1.83 22, 0 20.17, 0 16.5 C0 13.08, 0 9.65, 0 5.5 C0 1.83, 1.83 0, 5.5 0" stroke="none" stroke-width="0" fill="#fef9c3"></path><path d="M5.5 0 C27.62 0, 49.74 0, 109.5 0 M5.5 0 C37.8 0, 70.09 0, 109.5 0 M109.5 0 C113.17 0, 115 1.83, 115 5.5 M109.5 0 C113.17 0, 115 1.83, 115 5.5 M115 5.5 C115 7.99, 115 10.48, 115 16.5 M115 5.5 C115 7.81, 115 10.12, 115 16.5 M115 16.5 C115 20.17, 113.17 22, 109.5 22 M115 16.5 C115 20.17, 113.17 22, 109.5 22 M109.5 22 C82.56 22, 55.61 22, 5.5 22 M109.5 22 C80.73 22, 51.96 22, 5.5 22 M5.5 22 C1.83 22, 0 20.17, 0 16.5 M5.5 22 C1.83 22, 0 20.17, 0 16.5 M0 16.5 C0 12.66, 0 8.81, 0 5.5 M0 16.5 C0 14.29, 0 12.09, 0 5.5 M0 5.5 C0 1.83, 1.83 0, 5.5 0 M0 5.5 C0 1.83, 1.83 0, 5.5 0" stroke="#ca8a04" stroke-width="1.5" fill="none"></path></g><g transform="translate(388 358) rotate(0 49.5 7)"><text x="49.50000000000001" y="9.559999999999999" font-family="Segoe UI Emoji" font-size="10px" fill="#92400e" text-anchor="middle" style="white-space: pre;" direction="ltr" dominant-baseline="alphabetic">WorkflowUnarchived</text></g><g stroke-linecap="round" transform="translate(570 352) rotate(0 38.25 11)"><path d="M5.5 0 C28.33 0, 51.16 0, 71 0 C74.67 0, 76.5 1.83, 76.5 5.5 C76.5 8.94, 76.5 12.38, 76.5 16.5 C76.5 20.17, 74.67 22, 71 22 C48.64 22, 26.27 22, 5.5 22 C1.83 22, 0 20.17, 0 16.5 C0 13.07, 0 9.65, 0 5.5 C0 1.83, 1.83 0, 5.5 0" stroke="none" stroke-width="0" fill="#fef9c3"></path><path d="M5.5 0 C18.82 0, 32.13 0, 71 0 M5.5 0 C27.21 0, 48.92 0, 71 0 M71 0 C74.67 0, 76.5 1.83, 76.5 5.5 M71 0 C74.67 0, 76.5 1.83, 76.5 5.5 M76.5 5.5 C76.5 8.98, 76.5 12.47, 76.5 16.5 M76.5 5.5 C76.5 8.44, 76.5 11.38, 76.5 16.5 M76.5 16.5 C76.5 20.17, 74.67 22, 71 22 M76.5 16.5 C76.5 20.17, 74.67 22, 71 22 M71 22 C47.01 22, 23.02 22, 5.5 22 M71 22 C52.96 22, 34.92 22, 5.5 22 M5.5 22 C1.83 22, 0 20.17, 0 16.5 M5.5 22 C1.83 22, 0 20.17, 0 16.5 M0 16.5 C0 13.58, 0 10.66, 0 5.5 M0 16.5 C0 12.15, 0 7.8, 0 5.5 M0 5.5 C0 1.83, 1.83 0, 5.5 0 M0 5.5 C0 1.83, 1.83 0, 5.5 0" stroke="#ca8a04" stroke-width="1.5" fill="none"></path></g><g transform="translate(578 358) rotate(0 30.25 7)"><text x="30.250000000000004" y="9.559999999999999" font-family="Segoe UI Emoji" font-size="10px" fill="#92400e" text-anchor="middle" style="white-space: pre;" direction="ltr" dominant-baseline="alphabetic">FormCreated</text></g><g stroke-linecap="round" transform="translate(720 352) rotate(0 49.25 11)"><path d="M5.5 0 C27.42 0, 49.33 0, 93 0 C96.67 0, 98.5 1.83, 98.5 5.5 C98.5 8.85, 98.5 12.2, 98.5 16.5 C98.5 20.17, 96.67 22, 93 22 C71.44 22, 49.87 22, 5.5 22 C1.83 22, 0 20.17, 0 16.5 C0 12.31, 0 8.13, 0 5.5 C0 1.83, 1.83 0, 5.5 0" stroke="none" stroke-width="0" fill="#fef9c3"></path><path d="M5.5 0 C36.93 0, 68.37 0, 93 0 M5.5 0 C24.83 0, 44.17 0, 93 0 M93 0 C96.67 0, 98.5 1.83, 98.5 5.5 M93 0 C96.67 0, 98.5 1.83, 98.5 5.5 M98.5 5.5 C98.5 9.15, 98.5 12.8, 98.5 16.5 M98.5 5.5 C98.5 8.47, 98.5 11.45, 98.5 16.5 M98.5 16.5 C98.5 20.17, 96.67 22, 93 22 M98.5 16.5 C98.5 20.17, 96.67 22, 93 22 M93 22 C65.08 22, 37.15 22, 5.5 22 M93 22 C61.84 22, 30.68 22, 5.5 22 M5.5 22 C1.83 22, 0 20.17, 0 16.5 M5.5 22 C1.83 22, 0 20.17, 0 16.5 M0 16.5 C0 12.25, 0 8.01, 0 5.5 M0 16.5 C0 13.44, 0 10.38, 0 5.5 M0 5.5 C0 1.83, 1.83 0, 5.5 0 M0 5.5 C0 1.83, 1.83 0, 5.5 0" stroke="#ca8a04" stroke-width="1.5" fill="none"></path></g><g transform="translate(728 358) rotate(0 41.25 7)"><text x="41.25" y="9.559999999999999" font-family="Segoe UI Emoji" font-size="10px" fill="#92400e" text-anchor="middle" style="white-space: pre;" direction="ltr" dominant-baseline="alphabetic">FormTaskCreated</text></g><g stroke-linecap="round" transform="translate(850 352) rotate(0 52 11)"><path d="M5.5 0 C30.22 0, 54.94 0, 98.5 0 C102.17 0, 104 1.83, 104 5.5 C104 8.02, 104 10.54, 104 16.5 C104 20.17, 102.17 22, 98.5 22 C63 22, 27.5 22, 5.5 22 C1.83 22, 0 20.17, 0 16.5 C0 14.05, 0 11.6, 0 5.5 C0 1.83, 1.83 0, 5.5 0" stroke="none" stroke-width="0" fill="#fef9c3"></path><path d="M5.5 0 C33.91 0, 62.32 0, 98.5 0 M5.5 0 C32.64 0, 59.78 0, 98.5 0 M98.5 0 C102.17 0, 104 1.83, 104 5.5 M98.5 0 C102.17 0, 104 1.83, 104 5.5 M104 5.5 C104 7.83, 104 10.16, 104 16.5 M104 5.5 C104 8.4, 104 11.31, 104 16.5 M104 16.5 C104 20.17, 102.17 22, 98.5 22 M104 16.5 C104 20.17, 102.17 22, 98.5 22 M98.5 22 C72.27 22, 46.03 22, 5.5 22 M98.5 22 C67.98 22, 37.46 22, 5.5 22 M5.5 22 C1.83 22, 0 20.17, 0 16.5 M5.5 22 C1.83 22, 0 20.17, 0 16.5 M0 16.5 C0 12.7, 0 8.89, 0 5.5 M0 16.5 C0 14.22, 0 11.95, 0 5.5 M0 5.5 C0 1.83, 1.83 0, 5.5 0 M0 5.5 C0 1.83, 1.83 0, 5.5 0" stroke="#ca8a04" stroke-width="1.5" fill="none"></path></g><g transform="translate(858 358) rotate(0 44 7)"><text x="44" y="9.559999999999999" font-family="Segoe UI Emoji" font-size="10px" fill="#92400e" text-anchor="middle" style="white-space: pre;" direction="ltr" dominant-baseline="alphabetic">ExecutionStarted</text></g><g stroke-linecap="round"><g transform="translate(590 254) rotate(0 0 30)"><path d="M0 0 C0 10, 0 50, 0 60 M0 0 C0 10, 0 50, 0 60" stroke="#ca8a04" stroke-width="1.5" fill="none"></path></g><g transform="translate(590 254) rotate(0 0 30)"><path d="M-8.55 36.51 C-6.79 41.33, -5.04 46.15, 0 60 M-8.55 36.51 C-6.01 43.48, -3.48 50.45, 0 60" stroke="#ca8a04" stroke-width="1.5" fill="none"></path></g><g transform="translate(590 254) rotate(0 0 30)"><path d="M8.55 36.51 C6.79 41.33, 5.04 46.15, 0 60 M8.55 36.51 C6.01 43.48, 3.48 50.45, 0 60" stroke="#ca8a04" stroke-width="1.5" fill="none"></path></g></g><mask></mask><g transform="translate(565.25 265) rotate(0 24.75 7)"><text x="24.750000000000004" y="9.559999999999999" font-family="Segoe UI Emoji" font-size="10px" fill="#64748b" text-anchor="middle" style="white-space: pre;" direction="ltr" dominant-baseline="alphabetic">publishes</text></g><g stroke-linecap="round"><g transform="translate(350 344) rotate(0 0 15)"><path d="M0 0 C0 5, 0 25, 0 30 M0 0 C0 5, 0 25, 0 30" stroke="#ca8a04" stroke-width="1.5" fill="none"></path></g><g transform="translate(350 344) rotate(0 0 15)"><path d="M-5.13 15.9 C-3.98 19.06, -2.84 22.21, 0 30 M-5.13 15.9 C-3.26 21.04, -1.39 26.18, 0 30" stroke="#ca8a04" stroke-width="1.5" fill="none"></path></g><g transform="translate(350 344) rotate(0 0 15)"><path d="M5.13 15.9 C3.98 19.06, 2.84 22.21, 0 30 M5.13 15.9 C3.26 21.04, 1.39 26.18, 0 30" stroke="#ca8a04" stroke-width="1.5" fill="none"></path></g></g><mask></mask><g transform="translate(328 340) rotate(0 22 7)"><text x="22" y="9.559999999999999" font-family="Segoe UI Emoji" font-size="10px" fill="#64748b" text-anchor="middle" style="white-space: pre;" direction="ltr" dominant-baseline="alphabetic">consumes</text></g><g stroke-linecap="round"><g transform="translate(830 344) rotate(0 0 15)"><path d="M0 0 C0 5, 0 25, 0 30 M0 0 C0 5, 0 25, 0 30" stroke="#ca8a04" stroke-width="1.5" fill="none"></path></g><g transform="translate(830 344) rotate(0 0 15)"><path d="M-5.13 15.9 C-3.59 20.13, -2.05 24.36, 0 30 M-5.13 15.9 C-3.84 19.45, -2.55 22.99, 0 30" stroke="#ca8a04" stroke-width="1.5" fill="none"></path></g><g transform="translate(830 344) rotate(0 0 15)"><path d="M5.13 15.9 C3.59 20.13, 2.05 24.36, 0 30 M5.13 15.9 C3.84 19.45, 2.55 22.99, 0 30" stroke="#ca8a04" stroke-width="1.5" fill="none"></path></g></g><mask></mask><g transform="translate(808 340) rotate(0 22 7)"><text x="22" y="9.559999999999999" font-family="Segoe UI Emoji" font-size="10px" fill="#64748b" text-anchor="middle" style="white-space: pre;" direction="ltr" dominant-baseline="alphabetic">consumes</text></g><g stroke-linecap="round"><g transform="translate(350 454) rotate(0 0 20)"><path d="M0 0 C0 6.67, 0 33.33, 0 40" stroke="#64748b" stroke-width="2" fill="none" stroke-dasharray="8 9.5"></path></g><g transform="translate(350 454) rotate(0 0 20)"><path d="M-6.84 21.21 C-4.2 28.46, -1.56 35.71, 0 40" stroke="#64748b" stroke-width="2" fill="none"></path></g><g transform="translate(350 454) rotate(0 0 20)"><path d="M6.84 21.21 C4.2 28.46, 1.56 35.71, 0 40" stroke="#64748b" stroke-width="2" fill="none"></path></g></g><mask></mask><g transform="translate(311.5 455) rotate(0 38.5 7)"><text x="38.5" y="9.559999999999999" font-family="Segoe UI Emoji" font-size="10px" fill="#64748b" text-anchor="middle" style="white-space: pre;" direction="ltr" dominant-baseline="alphabetic">reads own copy</text></g><g stroke-linecap="round" transform="translate(10 474) rotate(0 110 50)"><path d="M6 0 C72.72 0, 139.43 0, 214 0 M6 0 C50.67 0, 95.35 0, 214 0 M214 0 C218 0, 220 2, 220 6 M214 0 C218 0, 220 2, 220 6 M220 6 C220 37.2, 220 68.4, 220 94 M220 6 C220 25.17, 220 44.35, 220 94 M220 94 C220 98, 218 100, 214 100 M220 94 C220 98, 218 100, 214 100 M214 100 C130.83 100, 47.66 100, 6 100 M214 100 C141.42 100, 68.84 100, 6 100 M6 100 C2 100, 0 98, 0 94 M6 100 C2 100, 0 98, 0 94 M0 94 C0 70.13, 0 46.27, 0 6 M0 94 C0 60.87, 0 27.74, 0 6 M0 6 C0 2, 2 0, 6 0 M0 6 C0 2, 2 0, 6 0" stroke="#94a3b8" stroke-width="1.5" fill="none"></path></g><g transform="translate(100 485.5) rotate(0 20 7.699999999999989)"><text x="20" y="10.515999999999998" font-family="Segoe UI Emoji" font-size="11px" fill="#1e293b" text-anchor="middle" style="white-space: pre;" direction="ltr" dominant-baseline="alphabetic">Legend</text></g><g stroke-linecap="round" transform="translate(25 504) rotate(0 8 8)"><path d="M4 0 C6.49 0, 8.98 0, 12 0 C14.67 0, 16 1.33, 16 4 C16 7.12, 16 10.24, 16 12 C16 14.67, 14.67 16, 12 16 C9.2 16, 6.41 16, 4 16 C1.33 16, 0 14.67, 0 12 C0 9.12, 0 6.23, 0 4 C0 1.33, 1.33 0, 4 0" stroke="none" stroke-width="0" fill="#dcfce7"></path><path d="M4 0 C6.34 0, 8.68 0, 12 0 M4 0 C6.16 0, 8.32 0, 12 0 M12 0 C14.67 0, 16 1.33, 16 4 M12 0 C14.67 0, 16 1.33, 16 4 M16 4 C16 6.44, 16 8.88, 16 12 M16 4 C16 6.08, 16 8.15, 16 12 M16 12 C16 14.67, 14.67 16, 12 16 M16 12 C16 14.67, 14.67 16, 12 16 M12 16 C9.45 16, 6.9 16, 4 16 M12 16 C9.34 16, 6.68 16, 4 16 M4 16 C1.33 16, 0 14.67, 0 12 M4 16 C1.33 16, 0 14.67, 0 12 M0 12 C0 9.9, 0 7.8, 0 4 M0 12 C0 9.84, 0 7.68, 0 4 M0 4 C0 1.33, 1.33 0, 4 0 M0 4 C0 1.33, 1.33 0, 4 0" stroke="#16a34a" stroke-width="1.5" fill="none"></path></g><g transform="translate(50 507) rotate(0 55 7)"><text x="55.00000000000001" y="9.559999999999999" font-family="Segoe UI Emoji" font-size="10px" fill="#1e293b" text-anchor="middle" style="white-space: pre;" direction="ltr" dominant-baseline="alphabetic">Module (owns its DB)</text></g><g stroke-linecap="round" transform="translate(25 528) rotate(0 8 8)"><path d="M4 0 C7.17 0, 10.34 0, 12 0 C14.67 0, 16 1.33, 16 4 C16 5.95, 16 7.9, 16 12 C16 14.67, 14.67 16, 12 16 C10.04 16, 8.08 16, 4 16 C1.33 16, 0 14.67, 0 12 C0 8.95, 0 5.9, 0 4 C0 1.33, 1.33 0, 4 0" stroke="none" stroke-width="0" fill="#fef9c3"></path><path d="M4 0 C6.72 0, 9.44 0, 12 0 M4 0 C6.68 0, 9.36 0, 12 0 M12 0 C14.67 0, 16 1.33, 16 4 M12 0 C14.67 0, 16 1.33, 16 4 M16 4 C16 5.74, 16 7.47, 16 12 M16 4 C16 6.88, 16 9.76, 16 12 M16 12 C16 14.67, 14.67 16, 12 16 M16 12 C16 14.67, 14.67 16, 12 16 M12 16 C9.01 16, 6.02 16, 4 16 M12 16 C8.94 16, 5.87 16, 4 16 M4 16 C1.33 16, 0 14.67, 0 12 M4 16 C1.33 16, 0 14.67, 0 12 M0 12 C0 8.85, 0 5.7, 0 4 M0 12 C0 10.29, 0 8.59, 0 4 M0 4 C0 1.33, 1.33 0, 4 0 M0 4 C0 1.33, 1.33 0, 4 0" stroke="#ca8a04" stroke-width="1.5" fill="none"></path></g><g transform="translate(50 531) rotate(0 33 7)"><text x="33" y="9.559999999999999" font-family="Segoe UI Emoji" font-size="10px" fill="#1e293b" text-anchor="middle" style="white-space: pre;" direction="ltr" dominant-baseline="alphabetic">Domain Event</text></g><g stroke-linecap="round"><g transform="translate(25 552) rotate(0 16 0)"><path d="M0 0 C5.33 0, 26.67 0, 32 0 M0 0 C5.33 0, 26.67 0, 32 0" stroke="#ca8a04" stroke-width="1.5" fill="none"></path></g><g transform="translate(25 552) rotate(0 16 0)"><path d="M16.96 5.47 C20.8 4.08, 24.63 2.68, 32 0 M16.96 5.47 C22.27 3.54, 27.58 1.61, 32 0" stroke="#ca8a04" stroke-width="1.5" fill="none"></path></g><g transform="translate(25 552) rotate(0 16 0)"><path d="M16.96 -5.47 C20.8 -4.08, 24.63 -2.68, 32 0 M16.96 -5.47 C22.27 -3.54, 27.58 -1.61, 32 0" stroke="#ca8a04" stroke-width="1.5" fill="none"></path></g></g><mask></mask><g transform="translate(62 547) rotate(0 33 7)"><text x="33" y="9.559999999999999" font-family="Segoe UI Emoji" font-size="10px" fill="#1e293b" text-anchor="middle" style="white-space: pre;" direction="ltr" dominant-baseline="alphabetic">Event-driven</text></g><g stroke-linecap="round"><g transform="translate(25 566) rotate(0 16 0)"><path d="M0 0 C5.33 0, 26.67 0, 32 0" stroke="#64748b" stroke-width="2" fill="none" stroke-dasharray="8 9.5"></path></g><g transform="translate(25 566) rotate(0 16 0)"><path d="M16.96 5.47 C21.55 3.8, 26.14 2.13, 32 0" stroke="#64748b" stroke-width="2" fill="none"></path></g><g transform="translate(25 566) rotate(0 16 0)"><path d="M16.96 -5.47 C21.55 -3.8, 26.14 -2.13, 32 0" stroke="#64748b" stroke-width="2" fill="none"></path></g></g><mask></mask><g transform="translate(62 561) rotate(0 68.75 7)"><text x="68.75" y="9.559999999999999" font-family="Segoe UI Emoji" font-size="10px" fill="#1e293b" text-anchor="middle" style="white-space: pre;" direction="ltr" dominant-baseline="alphabetic">Local copy (denormalized)</text></g></svg>