<svg version="1.1" xmlns="http://www.w3.org/2000/svg" viewBox="0 0 980 585" width="980" height="585"><!-- svg-source:excalidraw --><metadata></metadata><defs><style class="style-fonts">
      </style></defs><rect x="0" y="0" width="980" height="585" fill="#f8fafc"></rect><g transform="translate(302.1 10) rotate(0 207.90000000000003 12.600000000000001)"><text x="207.9" y="17.208" font-family="Segoe UI Emoji" font-size="18px" fill="#1e293b" text-anchor="middle" style="white-space: pre;" direction="ltr" dominant-baseline="alphabetic">Axis — Module Communication (Event-Driven)</text></g><g transform="translate(177.25 38.5) rotate(0 332.75 7.699999999999999)"><text x="332.75" y="10.515999999999998" font-family="Segoe UI Emoji" font-size="11px" fill="#64748b" text-anchor="middle" style="white-space: pre;" direction="ltr" dominant-baseline="alphabetic">Modules are data-sovereign. Cross-module communication via Wolverine domain events only — no shared DB access.</text></g><g stroke-linecap="round" transform="translate(270 69) rotate(0 240 27.5)"><path d="M6 0 C184.86 0, 363.71 0, 474 0 C478 0, 480 2, 480 6 C480 20.26, 480 34.52, 480 49 C480 53, 478 55, 474 55 C316.78 55, 159.56 55, 6 55 C2 55, 0 53, 0 49 C0 35.54, 0 22.08, 0 6 C0 2, 2 0, 6 0" stroke="none" stroke-width="0" fill="#e2e8f0"></path><path d="M6 0 C163.01 0, 320.02 0, 474 0 M6 0 C138.21 0, 270.43 0, 474 0 M474 0 C478 0, 480 2, 480 6 M474 0 C478 0, 480 2, 480 6 M480 6 C480 20.82, 480 35.64, 480 49 M480 6 C480 17.21, 480 28.41, 480 49 M480 49 C480 53, 478 55, 474 55 M480 49 C480 53, 478 55, 474 55 M474 55 C291.53 55, 109.05 55, 6 55 M474 55 C369.26 55, 264.52 55, 6 55 M6 55 C2 55, 0 53, 0 49 M6 55 C2 55, 0 53, 0 49 M0 49 C0 35.29, 0 21.57, 0 6 M0 49 C0 34.09, 0 19.18, 0 6 M0 6 C0 2, 2 0, 6 0 M0 6 C0 2, 2 0, 6 0" stroke="#94a3b8" stroke-width="1.5" fill="none"></path></g><g transform="translate(236.09999999999997 90.5) rotate(0 273.9000000000001 8.399999999999999)"><text x="273.90000000000003" y="11.471999999999998" font-family="Segoe UI Emoji" font-size="12px" fill="#1e293b" text-anchor="middle" style="white-space: pre;" direction="ltr" dominant-baseline="alphabetic">Shared Kernel  —  Domain Primitives · CQRS Abstractions · Multi-Tenancy · Event Bus</text></g><g stroke-linecap="round" transform="translate(10 174) rotate(0 100 40)"><path d="M6 0 C80.52 0, 155.05 0, 194 0 C198 0, 200 2, 200 6 C200 21.54, 200 37.08, 200 74 C200 78, 198 80, 194 80 C120.45 80, 46.91 80, 6 80 C2 80, 0 78, 0 74 C0 58.02, 0 42.05, 0 6 C0 2, 2 0, 6 0" stroke="none" stroke-width="0" fill="#ede9fe"></path><path d="M6 0 C49.22 0, 92.44 0, 194 0 M6 0 C69.29 0, 132.58 0, 194 0 M194 0 C198 0, 200 2, 200 6 M194 0 C198 0, 200 2, 200 6 M200 6 C200 22.36, 200 38.71, 200 74 M200 6 C200 23.32, 200 40.64, 200 74 M200 74 C200 78, 198 80, 194 80 M200 74 C200 78, 198 80, 194 80 M194 80 C144.2 80, 94.4 80, 6 80 M194 80 C155.78 80, 117.57 80, 6 80 M6 80 C2 80, 0 78, 0 74 M6 80 C2 80, 0 78, 0 74 M0 74 C0 56.71, 0 39.43, 0 6 M0 74 C0 55.81, 0 37.62, 0 6 M0 6 C0 2, 2 0, 6 0 M0 6 C0 2, 2 0, 6 0" stroke="#7c3aed" stroke-width="1.5" fill="none"></path></g><g transform="translate(81.4 197.5) rotate(0 28.60000000000001 9.099999999999994)"><text x="28.6" y="12.427999999999999" font-family="Segoe UI Emoji" font-size="13px" fill="#1e293b" text-anchor="middle" style="white-space: pre;" direction="ltr" dominant-baseline="alphabetic">Identity</text></g><g transform="translate(35.75 217) rotate(0 74.25 7)"><text x="74.25" y="9.559999999999999" font-family="Segoe UI Emoji" font-size="10px" fill="#64748b" text-anchor="middle" style="white-space: pre;" direction="ltr" dominant-baseline="alphabetic">Auth · Users · Roles · RBAC</text></g><g stroke-linecap="round" transform="translate(250 174) rotate(0 100 40)"><path d="M6 0 C69.56 0, 133.12 0, 194 0 C198 0, 200 2, 200 6 C200 24.24, 200 42.48, 200 74 C200 78, 198 80, 194 80 C127.12 80, 60.23 80, 6 80 C2 80, 0 78, 0 74 C0 48.53, 0 23.05, 0 6 C0 2, 2 0, 6 0" stroke="none" stroke-width="0" fill="#dcfce7"></path><path d="M6 0 C49.68 0, 93.37 0, 194 0 M6 0 C70.74 0, 135.48 0, 194 0 M194 0 C198 0, 200 2, 200 6 M194 0 C198 0, 200 2, 200 6 M200 6 C200 22.44, 200 38.87, 200 74 M200 6 C200 21.31, 200 36.63, 200 74 M200 74 C200 78, 198 80, 194 80 M200 74 C200 78, 198 80, 194 80 M194 80 C144.5 80, 95 80, 6 80 M194 80 C136.58 80, 79.16 80, 6 80 M6 80 C2 80, 0 78, 0 74 M6 80 C2 80, 0 78, 0 74 M0 74 C0 52.7, 0 31.4, 0 6 M0 74 C0 50.31, 0 26.63, 0 6 M0 6 C0 2, 2 0, 6 0 M0 6 C0 2, 2 0, 6 0" stroke="#16a34a" stroke-width="1.5" fill="none"></path></g><g transform="translate(307.1 197.5) rotate(0 42.900000000000006 9.099999999999994)"><text x="42.900000000000006" y="12.427999999999999" font-family="Segoe UI Emoji" font-size="13px" fill="#1e293b" text-anchor="middle" style="white-space: pre;" direction="ltr" dominant-baseline="alphabetic">DataModeling</text></g><g transform="translate(264.75 217) rotate(0 85.25 7)"><text x="85.25" y="9.559999999999999" font-family="Segoe UI Emoji" font-size="10px" fill="#64748b" text-anchor="middle" style="white-space: pre;" direction="ltr" dominant-baseline="alphabetic">Models · Records · Data Classes</text></g><g stroke-linecap="round" transform="translate(490 174) rotate(0 100 40)"><path d="M6 0 C51.62 0, 97.25 0, 194 0 C198 0, 200 2, 200 6 C200 28.8, 200 51.6, 200 74 C200 78, 198 80, 194 80 C122.21 80, 50.42 80, 6 80 C2 80, 0 78, 0 74 C0 52.94, 0 31.88, 0 6 C0 2, 2 0, 6 0" stroke="none" stroke-width="0" fill="#dcfce7"></path><path d="M6 0 C80.5 0, 154.99 0, 194 0 M6 0 C74.06 0, 142.12 0, 194 0 M194 0 C198 0, 200 2, 200 6 M194 0 C198 0, 200 2, 200 6 M200 6 C200 25.09, 200 44.17, 200 74 M200 6 C200 31.42, 200 56.84, 200 74 M200 74 C200 78, 198 80, 194 80 M200 74 C200 78, 198 80, 194 80 M194 80 C119.24 80, 44.49 80, 6 80 M194 80 C146.56 80, 99.12 80, 6 80 M6 80 C2 80, 0 78, 0 74 M6 80 C2 80, 0 78, 0 74 M0 74 C0 50.37, 0 26.73, 0 6 M0 74 C0 57.27, 0 40.53, 0 6 M0 6 C0 2, 2 0, 6 0 M0 6 C0 2, 2 0, 6 0" stroke="#16a34a" stroke-width="1.5" fill="none"></path></g><g transform="translate(536.375 197.5) rotate(0 53.625 9.099999999999994)"><text x="53.62500000000001" y="12.427999999999999" font-family="Segoe UI Emoji" font-size="13px" fill="#1e293b" text-anchor="middle" style="white-space: pre;" direction="ltr" dominant-baseline="alphabetic">WorkflowBuilder</text></g><g transform="translate(507.5 217) rotate(0 82.5 7)"><text x="82.5" y="9.559999999999999" font-family="Segoe UI Emoji" font-size="10px" fill="#64748b" text-anchor="middle" style="white-space: pre;" direction="ltr" dominant-baseline="alphabetic">Definitions · Steps · Triggers</text></g><g stroke-linecap="round" transform="translate(730 174) rotate(0 100 40)"><path d="M6 0 C48.07 0, 90.14 0, 194 0 C198 0, 200 2, 200 6 C200 26.84, 200 47.68, 200 74 C200 78, 198 80, 194 80 C121.44 80, 48.87 80, 6 80 C2 80, 0 78, 0 74 C0 58.09, 0 42.18, 0 6 C0 2, 2 0, 6 0" stroke="none" stroke-width="0" fill="#dcfce7"></path><path d="M6 0 C54.82 0, 103.64 0, 194 0 M6 0 C80.22 0, 154.44 0, 194 0 M194 0 C198 0, 200 2, 200 6 M194 0 C198 0, 200 2, 200 6 M200 6 C200 22.2, 200 38.4, 200 74 M200 6 C200 28.42, 200 50.83, 200 74 M200 74 C200 78, 198 80, 194 80 M200 74 C200 78, 198 80, 194 80 M194 80 C130.78 80, 67.56 80, 6 80 M194 80 C141.88 80, 89.77 80, 6 80 M6 80 C2 80, 0 78, 0 74 M6 80 C2 80, 0 78, 0 74 M0 74 C0 58.56, 0 43.12, 0 6 M0 74 C0 54.6, 0 35.2, 0 6 M0 6 C0 2, 2 0, 6 0 M0 6 C0 2, 2 0, 6 0" stroke="#16a34a" stroke-width="1.5" fill="none"></path></g><g transform="translate(790.675 197.5) rotate(0 39.32499999999999 9.099999999999994)"><text x="39.325" y="12.427999999999999" font-family="Segoe UI Emoji" font-size="13px" fill="#1e293b" text-anchor="middle" style="white-space: pre;" direction="ltr" dominant-baseline="alphabetic">FormBuilder</text></g><g transform="translate(753 217) rotate(0 77 7)"><text x="77" y="9.559999999999999" font-family="Segoe UI Emoji" font-size="10px" fill="#64748b" text-anchor="middle" style="white-space: pre;" direction="ltr" dominant-baseline="alphabetic">Forms · Fields · Submissions</text></g><g stroke-linecap="round" transform="translate(250 374) rotate(0 100 40)"><path d="M6 0 C48.01 0, 90.02 0, 194 0 C198 0, 200 2, 200 6 C200 23.04, 200 40.08, 200 74 C200 78, 198 80, 194 80 C140.66 80, 87.33 80, 6 80 C2 80, 0 78, 0 74 C0 55.67, 0 37.34, 0 6 C0 2, 2 0, 6 0" stroke="none" stroke-width="0" fill="#dcfce7"></path><path d="M6 0 C65.73 0, 125.47 0, 194 0 M6 0 C50.17 0, 94.34 0, 194 0 M194 0 C198 0, 200 2, 200 6 M194 0 C198 0, 200 2, 200 6 M200 6 C200 32.72, 200 59.45, 200 74 M200 6 C200 23.62, 200 41.23, 200 74 M200 74 C200 78, 198 80, 194 80 M200 74 C200 78, 198 80, 194 80 M194 80 C143.63 80, 93.25 80, 6 80 M194 80 C134.28 80, 74.55 80, 6 80 M6 80 C2 80, 0 78, 0 74 M6 80 C2 80, 0 78, 0 74 M0 74 C0 51.2, 0 28.39, 0 6 M0 74 C0 58.74, 0 43.47, 0 6 M0 6 C0 2, 2 0, 6 0 M0 6 C0 2, 2 0, 6 0" stroke="#16a34a" stroke-width="1.5" fill="none"></path></g><g transform="translate(299.95 397.5) rotate(0 50.05000000000001 9.099999999999994)"><text x="50.050000000000004" y="12.427999999999999" font-family="Segoe UI Emoji" font-size="13px" fill="#1e293b" text-anchor="middle" style="white-space: pre;" direction="ltr" dominant-baseline="alphabetic">WorkflowEngine</text></g><g transform="translate(278.5 417) rotate(0 71.5 7)"><text x="71.5" y="9.559999999999999" font-family="Segoe UI Emoji" font-size="10px" fill="#64748b" text-anchor="middle" style="white-space: pre;" direction="ltr" dominant-baseline="alphabetic">Executions · Step Handlers</text></g><g stroke-linecap="round" transform="translate(490 374) rotate(0 100 40)"><path d="M6 0 C69.15 0, 132.3 0, 194 0 C198 0, 200 2, 200 6 C200 28.2, 200 50.4, 200 74 C200 78, 198 80, 194 80 C133.24 80, 72.47 80, 6 80 C2 80, 0 78, 0 74 C0 47.25, 0 20.5, 0 6 C0 2, 2 0, 6 0" stroke="none" stroke-width="0" fill="#fce7f3"></path><path d="M6 0 C72.68 0, 139.36 0, 194 0 M6 0 C75.2 0, 144.4 0, 194 0 M194 0 C198 0, 200 2, 200 6 M194 0 C198 0, 200 2, 200 6 M200 6 C200 26.19, 200 46.39, 200 74 M200 6 C200 27.03, 200 48.05, 200 74 M200 74 C200 78, 198 80, 194 80 M200 74 C200 78, 198 80, 194 80 M194 80 C132.51 80, 71.03 80, 6 80 M194 80 C120.22 80, 46.44 80, 6 80 M6 80 C2 80, 0 78, 0 74 M6 80 C2 80, 0 78, 0 74 M0 74 C0 54.85, 0 35.71, 0 6 M0 74 C0 52.08, 0 30.17, 0 6 M0 6 C0 2, 2 0, 6 0 M0 6 C0 2, 2 0, 6 0" stroke="#be185d" stroke-width="1.5" fill="none"></path></g><g transform="translate(550.675 397.5) rotate(0 39.32499999999999 9.099999999999994)"><text x="39.325" y="12.427999999999999" font-family="Segoe UI Emoji" font-size="13px" fill="#1e293b" text-anchor="middle" style="white-space: pre;" direction="ltr" dominant-baseline="alphabetic">PageBuilder</text></g><g transform="translate(518.5 417) rotate(0 71.5 7)"><text x="71.5" y="9.559999999999999" font-family="Segoe UI Emoji" font-size="10px" fill="#64748b" text-anchor="middle" style="white-space: pre;" direction="ltr" dominant-baseline="alphabetic">Pages · Widgets · Bindings</text></g><g stroke-linecap="round" transform="translate(10 314) rotate(0 480 15)"><path d="M6 0 C335.02 0, 664.03 0, 954 0 C958 0, 960 2, 960 6 C960 11.36, 960 16.72, 960 24 C960 28, 958 30, 954 30 C746.66 30, 539.31 30, 6 30 C2 30, 0 28, 0 24 C0 19.07, 0 14.14, 0 6 C0 2, 2 0, 6 0" stroke="none" stroke-width="0" fill="#fef9c3"></path><path d="M6 0 C215.63 0, 425.27 0, 954 0 M6 0 C236.3 0, 466.59 0, 954 0 M954 0 C958 0, 960 2, 960 6 M954 0 C958 0, 960 2, 960 6 M960 6 C960 11.01, 960 16.02, 960 24 M960 6 C960 12.18, 960 18.35, 960 24 M960 24 C960 28, 958 30, 954 30 M960 24 C960 28, 958 30, 954 30 M954 30 C692.06 30, 430.11 30, 6 30 M954 30 C601.94 30, 249.88 30, 6 30 M6 30 C2 30, 0 28, 0 24 M6 30 C2 30, 0 28, 0 24 M0 24 C0 18.77, 0 13.54, 0 6 M0 24 C0 19.77, 0 15.55, 0 6 M0 6 C0 2, 2 0, 6 0 M0 6 C0 2, 2 0, 6 0" stroke="#ca8a04" stroke-width="1.5" fill="none"></path></g><g transform="translate(238.92499999999995 323.5) rotate(0 251.07500000000005 7.699999999999989)"><text x="251.07500000000002" y="10.515999999999998" font-family="Segoe UI Emoji" font-size="11px" fill="#92400e" text-anchor="middle" style="white-space: pre;" direction="ltr" dominant-baseline="alphabetic">Wolverine Domain Event Bus  (durable outbox per module DB — at-least-once delivery)</text></g><g stroke-linecap="round" transform="translate(30 352) rotate(0 54.75 11)"><path d="M5.5 0 C29.61 0, 53.72 0, 104 0 C107.67 0, 109.5 1.83, 109.5 5.5 C109.5 8.68, 109.5 11.85, 109.5 16.5 C109.5 20.17, 107.67 22, 104 22 C73.26 22, 42.51 22, 5.5 22 C1.83 22, 0 20.17, 0 16.5 C0 12.91, 0 9.31, 0 5.5 C0 1.83, 1.83 0, 5.5 0" stroke="none" stroke-width="0" fill="#fef9c3"></path><path d="M5.5 0 C26.48 0, 47.47 0, 104 0 M5.5 0 C36.52 0, 67.54 0, 104 0 M104 0 C107.67 0, 109.5 1.83, 109.5 5.5 M104 0 C107.67 0, 109.5 1.83, 109.5 5.5 M109.5 5.5 C109.5 7.88, 109.5 10.27, 109.5 16.5 M109.5 5.5 C109.5 8.35, 109.5 11.21, 109.5 16.5 M109.5 16.5 C109.5 20.17, 107.67 22, 104 22 M109.5 16.5 C109.5 20.17, 107.67 22, 104 22 M104 22 C74.16 22, 44.31 22, 5.5 22 M104 22 C73.5 22, 43 22, 5.5 22 M5.5 22 C1.83 22, 0 20.17, 0 16.5 M5.5 22 C1.83 22, 0 20.17, 0 16.5 M0 16.5 C0 14.23, 0 11.95, 0 5.5 M0 16.5 C0 13.1, 0 9.69, 0 5.5 M0 5.5 C0 1.83, 1.83 0, 5.5 0 M0 5.5 C0 1.83, 1.83 0, 5.5 0" stroke="#ca8a04" stroke-width="1.5" fill="none"></path></g><g transform="translate(38 358) rotate(0 46.75 7)"><text x="46.75000000000001" y="9.559999999999999" font-family="Segoe UI Emoji" font-size="10px" fill="#92400e" text-anchor="middle" style="white-space: pre;" direction="ltr" dominant-baseline="alphabetic">WorkflowPublished</text></g><g stroke-linecap="round" transform="translate(210 352) rotate(0 52 11)"><path d="M5.5 0 C27.11 0, 48.72 0, 98.5 0 C102.17 0, 104 1.83, 104 5.5 C104 9.72, 104 13.94, 104 16.5 C104 20.17, 102.17 22, 98.5 22 C76.55 22, 54.61 22, 5.5 22 C1.83 22, 0 20.17, 0 16.5 C0 13.87, 0 11.23, 0 5.5 C0 1.83, 1.83 0, 5.5 0" stroke="none" stroke-width="0" fill="#fef9c3"></path><path d="M5.5 0 C35.62 0, 65.75 0, 98.5 0 M5.5 0 C39.5 0, 73.49 0, 98.5 0 M98.5 0 C102.17 0, 104 1.83, 104 5.5 M98.5 0 C102.17 0, 104 1.83, 104 5.5 M104 5.5 C104 7.88, 104 10.25, 104 16.5 M104 5.5 C104 9.85, 104 14.21, 104 16.5 M104 16.5 C104 20.17, 102.17 22, 98.5 22 M104 16.5 C104 20.17, 102.17 22, 98.5 22 M98.5 22 C63.12 22, 27.73 22, 5.5 22 M98.5 22 C74.71 22, 50.93 22, 5.5 22 M5.5 22 C1.83 22, 0 20.17, 0 16.5 M5.5 22 C1.83 22, 0 20.17, 0 16.5 M0 16.5 C0 12.92, 0 9.35, 0 5.5 M0 16.5 C0 13.5, 0 10.5, 0 5.5 M0 5.5 C0 1.83, 1.83 0, 5.5 0 M0 5.5 C0 1.83, 1.83 0, 5.5 0" stroke="#ca8a04" stroke-width="1.5" fill="none"></path></g><g transform="translate(218 358) rotate(0 44 7)"><text x="44" y="9.559999999999999" font-family="Segoe UI Emoji" font-size="10px" fill="#92400e" text-anchor="middle" style="white-space: pre;" direction="ltr" dominant-baseline="alphabetic">WorkflowArchived</text></g><g stroke-linecap="round" transform="translate(380 352) rotate(0 57.5 11)"><path d="M5.5 0 C34.98 0, 64.45 0, 109.5 0 C113.17 0, 115 1.83, 115 5.5 C115 9.19, 115 12.87, 115 16.5 C115 20.17, 113.17 22, 109.5 22 C78.47 22, 47.45 22, 5.5 22 C1.83 22, 0 20.17, 0 16.5 C0 12.49, 0 8.48, 0 5.5 C0 1.83, 1.83 0, 5.5 0" stroke="none" stroke-width="0" fill="#fef9c3"></path><path d="M5.5 0 C30.4 0, 55.3 0, 109.5 0 M5.5 0 C46.63 0, 87.77 0, 109.5 0 M109.5 0 C113.17 0, 115 1.83, 115 5.5 M109.5 0 C113.17 0, 115 1.83, 115 5.5 M115 5.5 C115 8.25, 115 11.01, 115 16.5 M115 5.5 C115 9.66, 115 13.83, 115 16.5 M115 16.5 C115 20.17, 113.17 22, 109.5 22 M115 16.5 C115 20.17, 113.17 22, 109.5 22 M109.5 22 C69.5 22, 29.51 22, 5.5 22 M109.5 22 C84.82 22, 60.14 22, 5.5 22 M5.5 22 C1.83 22, 0 20.17, 0 16.5 M5.5 22 C1.83 22, 0 20.17, 0 16.5 M0 16.5 C0 14.18, 0 11.86, 0 5.5 M0 16.5 C0 12.88, 0 9.25, 0 5.5 M0 5.5 C0 1.83, 1.83 0, 5.5 0 M0 5.5 C0 1.83, 1.83 0, 5.5 0" stroke="#ca8a04" stroke-width="1.5" fill="none"></path></g><g transform="translate(388 358) rotate(0 49.5 7)"><text x="49.50000000000001" y="9.559999999999999" font-family="Segoe UI Emoji" font-size="10px" fill="#92400e" text-anchor="middle" style="white-space: pre;" direction="ltr" dominant-baseline="alphabetic">WorkflowUnarchived</text></g><g stroke-linecap="round" transform="translate(570 352) rotate(0 38.25 11)"><path d="M5.5 0 C19.97 0, 34.45 0, 71 0 C74.67 0, 76.5 1.83, 76.5 5.5 C76.5 8.18, 76.5 10.86, 76.5 16.5 C76.5 20.17, 74.67 22, 71 22 C47.49 22, 23.98 22, 5.5 22 C1.83 22, 0 20.17, 0 16.5 C0 12.47, 0 8.43, 0 5.5 C0 1.83, 1.83 0, 5.5 0" stroke="none" stroke-width="0" fill="#fef9c3"></path><path d="M5.5 0 C25.79 0, 46.09 0, 71 0 M5.5 0 C19.18 0, 32.87 0, 71 0 M71 0 C74.67 0, 76.5 1.83, 76.5 5.5 M71 0 C74.67 0, 76.5 1.83, 76.5 5.5 M76.5 5.5 C76.5 9.69, 76.5 13.89, 76.5 16.5 M76.5 5.5 C76.5 7.96, 76.5 10.41, 76.5 16.5 M76.5 16.5 C76.5 20.17, 74.67 22, 71 22 M76.5 16.5 C76.5 20.17, 74.67 22, 71 22 M71 22 C52.75 22, 34.5 22, 5.5 22 M71 22 C51.96 22, 32.92 22, 5.5 22 M5.5 22 C1.83 22, 0 20.17, 0 16.5 M5.5 22 C1.83 22, 0 20.17, 0 16.5 M0 16.5 C0 12.63, 0 8.76, 0 5.5 M0 16.5 C0 13.65, 0 10.8, 0 5.5 M0 5.5 C0 1.83, 1.83 0, 5.5 0 M0 5.5 C0 1.83, 1.83 0, 5.5 0" stroke="#ca8a04" stroke-width="1.5" fill="none"></path></g><g transform="translate(578 358) rotate(0 30.25 7)"><text x="30.250000000000004" y="9.559999999999999" font-family="Segoe UI Emoji" font-size="10px" fill="#92400e" text-anchor="middle" style="white-space: pre;" direction="ltr" dominant-baseline="alphabetic">FormCreated</text></g><g stroke-linecap="round" transform="translate(720 352) rotate(0 49.25 11)"><path d="M5.5 0 C34.4 0, 63.31 0, 93 0 C96.67 0, 98.5 1.83, 98.5 5.5 C98.5 8.3, 98.5 11.1, 98.5 16.5 C98.5 20.17, 96.67 22, 93 22 C68.93 22, 44.85 22, 5.5 22 C1.83 22, 0 20.17, 0 16.5 C0 12.54, 0 8.58, 0 5.5 C0 1.83, 1.83 0, 5.5 0" stroke="none" stroke-width="0" fill="#fef9c3"></path><path d="M5.5 0 C36.68 0, 67.85 0, 93 0 M5.5 0 C30.51 0, 55.53 0, 93 0 M93 0 C96.67 0, 98.5 1.83, 98.5 5.5 M93 0 C96.67 0, 98.5 1.83, 98.5 5.5 M98.5 5.5 C98.5 9.88, 98.5 14.25, 98.5 16.5 M98.5 5.5 C98.5 9.21, 98.5 12.92, 98.5 16.5 M98.5 16.5 C98.5 20.17, 96.67 22, 93 22 M98.5 16.5 C98.5 20.17, 96.67 22, 93 22 M93 22 C60.7 22, 28.4 22, 5.5 22 M93 22 C67.82 22, 42.64 22, 5.5 22 M5.5 22 C1.83 22, 0 20.17, 0 16.5 M5.5 22 C1.83 22, 0 20.17, 0 16.5 M0 16.5 C0 12.84, 0 9.18, 0 5.5 M0 16.5 C0 13.94, 0 11.39, 0 5.5 M0 5.5 C0 1.83, 1.83 0, 5.5 0 M0 5.5 C0 1.83, 1.83 0, 5.5 0" stroke="#ca8a04" stroke-width="1.5" fill="none"></path></g><g transform="translate(728 358) rotate(0 41.25 7)"><text x="41.25" y="9.559999999999999" font-family="Segoe UI Emoji" font-size="10px" fill="#92400e" text-anchor="middle" style="white-space: pre;" direction="ltr" dominant-baseline="alphabetic">FormTaskCreated</text></g><g stroke-linecap="round" transform="translate(850 352) rotate(0 52 11)"><path d="M5.5 0 C39.73 0, 73.96 0, 98.5 0 C102.17 0, 104 1.83, 104 5.5 C104 9.37, 104 13.23, 104 16.5 C104 20.17, 102.17 22, 98.5 22 C64.66 22, 30.81 22, 5.5 22 C1.83 22, 0 20.17, 0 16.5 C0 12.53, 0 8.56, 0 5.5 C0 1.83, 1.83 0, 5.5 0" stroke="none" stroke-width="0" fill="#fef9c3"></path><path d="M5.5 0 C27.66 0, 49.81 0, 98.5 0 M5.5 0 C34.09 0, 62.68 0, 98.5 0 M98.5 0 C102.17 0, 104 1.83, 104 5.5 M98.5 0 C102.17 0, 104 1.83, 104 5.5 M104 5.5 C104 8.33, 104 11.16, 104 16.5 M104 5.5 C104 8.63, 104 11.77, 104 16.5 M104 16.5 C104 20.17, 102.17 22, 98.5 22 M104 16.5 C104 20.17, 102.17 22, 98.5 22 M98.5 22 C71.12 22, 43.74 22, 5.5 22 M98.5 22 C65.77 22, 33.04 22, 5.5 22 M5.5 22 C1.83 22, 0 20.17, 0 16.5 M5.5 22 C1.83 22, 0 20.17, 0 16.5 M0 16.5 C0 13.05, 0 9.61, 0 5.5 M0 16.5 C0 12.94, 0 9.38, 0 5.5 M0 5.5 C0 1.83, 1.83 0, 5.5 0 M0 5.5 C0 1.83, 1.83 0, 5.5 0" stroke="#ca8a04" stroke-width="1.5" fill="none"></path></g><g transform="translate(858 358) rotate(0 44 7)"><text x="44" y="9.559999999999999" font-family="Segoe UI Emoji" font-size="10px" fill="#92400e" text-anchor="middle" style="white-space: pre;" direction="ltr" dominant-baseline="alphabetic">ExecutionStarted</text></g><g stroke-linecap="round"><g transform="translate(590 254) rotate(0 0 30)"><path d="M0 0 C0 10, 0 50, 0 60 M0 0 C0 10, 0 50, 0 60" stroke="#ca8a04" stroke-width="1.5" fill="none"></path></g><g transform="translate(590 254) rotate(0 0 30)"><path d="M-8.55 36.51 C-5.49 44.91, -2.43 53.31, 0 60 M-8.55 36.51 C-5.3 45.44, -2.05 54.36, 0 60" stroke="#ca8a04" stroke-width="1.5" fill="none"></path></g><g transform="translate(590 254) rotate(0 0 30)"><path d="M8.55 36.51 C5.49 44.91, 2.43 53.31, 0 60 M8.55 36.51 C5.3 45.44, 2.05 54.36, 0 60" stroke="#ca8a04" stroke-width="1.5" fill="none"></path></g></g><mask></mask><g transform="translate(565.25 265) rotate(0 24.75 7)"><text x="24.750000000000004" y="9.559999999999999" font-family="Segoe UI Emoji" font-size="10px" fill="#64748b" text-anchor="middle" style="white-space: pre;" direction="ltr" dominant-baseline="alphabetic">publishes</text></g><g stroke-linecap="round"><g transform="translate(350 344) rotate(0 0 15)"><path d="M0 0 C0 5, 0 25, 0 30 M0 0 C0 5, 0 25, 0 30" stroke="#ca8a04" stroke-width="1.5" fill="none"></path></g><g transform="translate(350 344) rotate(0 0 15)"><path d="M-5.13 15.9 C-3.47 20.48, -1.8 25.05, 0 30 M-5.13 15.9 C-3.13 21.39, -1.14 26.87, 0 30" stroke="#ca8a04" stroke-width="1.5" fill="none"></path></g><g transform="translate(350 344) rotate(0 0 15)"><path d="M5.13 15.9 C3.47 20.48, 1.8 25.05, 0 30 M5.13 15.9 C3.13 21.39, 1.14 26.87, 0 30" stroke="#ca8a04" stroke-width="1.5" fill="none"></path></g></g><mask></mask><g transform="translate(328 340) rotate(0 22 7)"><text x="22" y="9.559999999999999" font-family="Segoe UI Emoji" font-size="10px" fill="#64748b" text-anchor="middle" style="white-space: pre;" direction="ltr" dominant-baseline="alphabetic">consumes</text></g><g stroke-linecap="round"><g transform="translate(830 344) rotate(0 0 15)"><path d="M0 0 C0 5, 0 25, 0 30 M0 0 C0 5, 0 25, 0 30" stroke="#ca8a04" stroke-width="1.5" fill="none"></path></g><g transform="translate(830 344) rotate(0 0 15)"><path d="M-5.13 15.9 C-3.84 19.44, -2.55 22.98, 0 30 M-5.13 15.9 C-4.09 18.75, -3.06 21.59, 0 30" stroke="#ca8a04" stroke-width="1.5" fill="none"></path></g><g transform="translate(830 344) rotate(0 0 15)"><path d="M5.13 15.9 C3.84 19.44, 2.55 22.98, 0 30 M5.13 15.9 C4.09 18.75, 3.06 21.59, 0 30" stroke="#ca8a04" stroke-width="1.5" fill="none"></path></g></g><mask></mask><g transform="translate(808 340) rotate(0 22 7)"><text x="22" y="9.559999999999999" font-family="Segoe UI Emoji" font-size="10px" fill="#64748b" text-anchor="middle" style="white-space: pre;" direction="ltr" dominant-baseline="alphabetic">consumes</text></g><g stroke-linecap="round"><g transform="translate(350 454) rotate(0 0 20)"><path d="M0 0 C0 6.67, 0 33.33, 0 40" stroke="#64748b" stroke-width="2" fill="none" stroke-dasharray="8 9.5"></path></g><g transform="translate(350 454) rotate(0 0 20)"><path d="M-6.84 21.21 C-4.54 27.52, -2.25 33.83, 0 40" stroke="#64748b" stroke-width="2" fill="none"></path></g><g transform="translate(350 454) rotate(0 0 20)"><path d="M6.84 21.21 C4.54 27.52, 2.25 33.83, 0 40" stroke="#64748b" stroke-width="2" fill="none"></path></g></g><mask></mask><g transform="translate(311.5 455) rotate(0 38.5 7)"><text x="38.5" y="9.559999999999999" font-family="Segoe UI Emoji" font-size="10px" fill="#64748b" text-anchor="middle" style="white-space: pre;" direction="ltr" dominant-baseline="alphabetic">reads own copy</text></g><g stroke-linecap="round" transform="translate(10 474) rotate(0 110 50)"><path d="M6 0 C87.08 0, 168.17 0, 214 0 M6 0 C49.86 0, 93.72 0, 214 0 M214 0 C218 0, 220 2, 220 6 M214 0 C218 0, 220 2, 220 6 M220 6 C220 28.21, 220 50.42, 220 94 M220 6 C220 37.44, 220 68.88, 220 94 M220 94 C220 98, 218 100, 214 100 M220 94 C220 98, 218 100, 214 100 M214 100 C133.71 100, 53.43 100, 6 100 M214 100 C166.31 100, 118.62 100, 6 100 M6 100 C2 100, 0 98, 0 94 M6 100 C2 100, 0 98, 0 94 M0 94 C0 75.5, 0 57, 0 6 M0 94 C0 61.42, 0 28.84, 0 6 M0 6 C0 2, 2 0, 6 0 M0 6 C0 2, 2 0, 6 0" stroke="#94a3b8" stroke-width="1.5" fill="none"></path></g><g transform="translate(100 485.5) rotate(0 20 7.699999999999989)"><text x="20" y="10.515999999999998" font-family="Segoe UI Emoji" font-size="11px" fill="#1e293b" text-anchor="middle" style="white-space: pre;" direction="ltr" dominant-baseline="alphabetic">Legend</text></g><g stroke-linecap="round" transform="translate(25 504) rotate(0 8 8)"><path d="M4 0 C5.71 0, 7.42 0, 12 0 C14.67 0, 16 1.33, 16 4 C16 6.7, 16 9.39, 16 12 C16 14.67, 14.67 16, 12 16 C10.18 16, 8.37 16, 4 16 C1.33 16, 0 14.67, 0 12 C0 9.84, 0 7.67, 0 4 C0 1.33, 1.33 0, 4 0" stroke="none" stroke-width="0" fill="#dcfce7"></path><path d="M4 0 C5.8 0, 7.6 0, 12 0 M4 0 C6.75 0, 9.5 0, 12 0 M12 0 C14.67 0, 16 1.33, 16 4 M12 0 C14.67 0, 16 1.33, 16 4 M16 4 C16 7.1, 16 10.21, 16 12 M16 4 C16 7.04, 16 10.09, 16 12 M16 12 C16 14.67, 14.67 16, 12 16 M16 12 C16 14.67, 14.67 16, 12 16 M12 16 C10.2 16, 8.4 16, 4 16 M12 16 C10.39 16, 8.79 16, 4 16 M4 16 C1.33 16, 0 14.67, 0 12 M4 16 C1.33 16, 0 14.67, 0 12 M0 12 C0 9.09, 0 6.18, 0 4 M0 12 C0 10.33, 0 8.65, 0 4 M0 4 C0 1.33, 1.33 0, 4 0 M0 4 C0 1.33, 1.33 0, 4 0" stroke="#16a34a" stroke-width="1.5" fill="none"></path></g><g transform="translate(50 507) rotate(0 55 7)"><text x="55.00000000000001" y="9.559999999999999" font-family="Segoe UI Emoji" font-size="10px" fill="#1e293b" text-anchor="middle" style="white-space: pre;" direction="ltr" dominant-baseline="alphabetic">Module (owns its DB)</text></g><g stroke-linecap="round" transform="translate(25 528) rotate(0 8 8)"><path d="M4 0 C5.95 0, 7.91 0, 12 0 C14.67 0, 16 1.33, 16 4 C16 5.69, 16 7.38, 16 12 C16 14.67, 14.67 16, 12 16 C9.3 16, 6.6 16, 4 16 C1.33 16, 0 14.67, 0 12 C0 10.23, 0 8.46, 0 4 C0 1.33, 1.33 0, 4 0" stroke="none" stroke-width="0" fill="#fef9c3"></path><path d="M4 0 C6.68 0, 9.36 0, 12 0 M4 0 C6.71 0, 9.43 0, 12 0 M12 0 C14.67 0, 16 1.33, 16 4 M12 0 C14.67 0, 16 1.33, 16 4 M16 4 C16 6.57, 16 9.15, 16 12 M16 4 C16 7.13, 16 10.26, 16 12 M16 12 C16 14.67, 14.67 16, 12 16 M16 12 C16 14.67, 14.67 16, 12 16 M12 16 C8.8 16, 5.61 16, 4 16 M12 16 C10.28 16, 8.57 16, 4 16 M4 16 C1.33 16, 0 14.67, 0 12 M4 16 C1.33 16, 0 14.67, 0 12 M0 12 C0 9.65, 0 7.29, 0 4 M0 12 C0 10.07, 0 8.13, 0 4 M0 4 C0 1.33, 1.33 0, 4 0 M0 4 C0 1.33, 1.33 0, 4 0" stroke="#ca8a04" stroke-width="1.5" fill="none"></path></g><g transform="translate(50 531) rotate(0 33 7)"><text x="33" y="9.559999999999999" font-family="Segoe UI Emoji" font-size="10px" fill="#1e293b" text-anchor="middle" style="white-space: pre;" direction="ltr" dominant-baseline="alphabetic">Domain Event</text></g><g stroke-linecap="round"><g transform="translate(25 552) rotate(0 16 0)"><path d="M0 0 C5.33 0, 26.67 0, 32 0 M0 0 C5.33 0, 26.67 0, 32 0" stroke="#ca8a04" stroke-width="1.5" fill="none"></path></g><g transform="translate(25 552) rotate(0 16 0)"><path d="M16.96 5.47 C20.98 4.01, 24.99 2.55, 32 0 M16.96 5.47 C20.03 4.36, 23.1 3.24, 32 0" stroke="#ca8a04" stroke-width="1.5" fill="none"></path></g><g transform="translate(25 552) rotate(0 16 0)"><path d="M16.96 -5.47 C20.98 -4.01, 24.99 -2.55, 32 0 M16.96 -5.47 C20.03 -4.36, 23.1 -3.24, 32 0" stroke="#ca8a04" stroke-width="1.5" fill="none"></path></g></g><mask></mask><g transform="translate(62 547) rotate(0 33 7)"><text x="33" y="9.559999999999999" font-family="Segoe UI Emoji" font-size="10px" fill="#1e293b" text-anchor="middle" style="white-space: pre;" direction="ltr" dominant-baseline="alphabetic">Event-driven</text></g><g stroke-linecap="round"><g transform="translate(25 566) rotate(0 16 0)"><path d="M0 0 C5.33 0, 26.67 0, 32 0" stroke="#64748b" stroke-width="2" fill="none" stroke-dasharray="8 9.5"></path></g><g transform="translate(25 566) rotate(0 16 0)"><path d="M16.96 5.47 C20.25 4.28, 23.53 3.08, 32 0" stroke="#64748b" stroke-width="2" fill="none"></path></g><g transform="translate(25 566) rotate(0 16 0)"><path d="M16.96 -5.47 C20.25 -4.28, 23.53 -3.08, 32 0" stroke="#64748b" stroke-width="2" fill="none"></path></g></g><mask></mask><g transform="translate(62 561) rotate(0 68.75 7)"><text x="68.75" y="9.559999999999999" font-family="Segoe UI Emoji" font-size="10px" fill="#1e293b" text-anchor="middle" style="white-space: pre;" direction="ltr" dominant-baseline="alphabetic">Local copy (denormalized)</text></g></svg>