<svg version="1.1" xmlns="http://www.w3.org/2000/svg" viewBox="0 0 967 639" width="967" height="639"><!-- svg-source:excalidraw --><metadata></metadata><defs><style class="style-fonts">
      </style></defs><rect x="0" y="0" width="967" height="639" fill="#f8fafc"></rect><g transform="translate(338.5 10) rotate(0 148.5 12.600000000000001)"><text x="148.5" y="17.208" font-family="Segoe UI Emoji" font-size="18px" fill="#1e293b" text-anchor="middle" style="white-space: pre;" direction="ltr" dominant-baseline="alphabetic">Axis Platform — System Context</text></g><g stroke-linecap="round" transform="translate(67 189) rotate(0 20 20)"><path d="M10 0 C17.12 0, 24.23 0, 30 0 C36.67 0, 40 3.33, 40 10 C40 14.19, 40 18.38, 40 30 C40 36.67, 36.67 40, 30 40 C22.99 40, 15.99 40, 10 40 C3.33 40, 0 36.67, 0 30 C0 22.57, 0 15.14, 0 10 C0 3.33, 3.33 0, 10 0" stroke="none" stroke-width="0" fill="#e0f2fe"></path><path d="M10 0 C17.85 0, 25.7 0, 30 0 M10 0 C16.55 0, 23.09 0, 30 0 M30 0 C36.67 0, 40 3.33, 40 10 M30 0 C36.67 0, 40 3.33, 40 10 M40 10 C40 15.82, 40 21.65, 40 30 M40 10 C40 14.55, 40 19.11, 40 30 M40 30 C40 36.67, 36.67 40, 30 40 M40 30 C40 36.67, 36.67 40, 30 40 M30 40 C22.91 40, 15.82 40, 10 40 M30 40 C24.32 40, 18.63 40, 10 40 M10 40 C3.33 40, 0 36.67, 0 30 M10 40 C3.33 40, 0 36.67, 0 30 M0 30 C0 22.13, 0 14.25, 0 10 M0 30 C0 24.52, 0 19.04, 0 10 M0 10 C0 3.33, 3.33 0, 10 0 M0 10 C0 3.33, 3.33 0, 10 0" stroke="#0284c7" stroke-width="1.5" fill="none"></path></g><g transform="translate(67 200) rotate(0 20 12.599999999999994)"><text x="20" y="17.208" font-family="Segoe UI Emoji" font-size="18px" fill="#1e293b" text-anchor="middle" style="white-space: pre;" direction="ltr" dominant-baseline="alphabetic">👤</text></g><g transform="translate(57.3 235) rotate(0 29.699999999999996 8.400000000000006)"><text x="29.700000000000003" y="11.471999999999998" font-family="Segoe UI Emoji" font-size="12px" fill="#1e293b" text-anchor="middle" style="white-space: pre;" direction="ltr" dominant-baseline="alphabetic">Org Admin</text></g><g transform="translate(15.5 252) rotate(0 71.5 7)"><text x="71.5" y="9.559999999999999" font-family="Segoe UI Emoji" font-size="10px" fill="#64748b" text-anchor="middle" style="white-space: pre;" direction="ltr" dominant-baseline="alphabetic">[builds workflows &amp; forms]</text></g><g stroke-linecap="round" transform="translate(67 409) rotate(0 20 20)"><path d="M10 0 C14.53 0, 19.06 0, 30 0 C36.67 0, 40 3.33, 40 10 C40 17.74, 40 25.48, 40 30 C40 36.67, 36.67 40, 30 40 C25.48 40, 20.96 40, 10 40 C3.33 40, 0 36.67, 0 30 C0 22.11, 0 14.22, 0 10 C0 3.33, 3.33 0, 10 0" stroke="none" stroke-width="0" fill="#e0f2fe"></path><path d="M10 0 C17.44 0, 24.88 0, 30 0 M10 0 C14.71 0, 19.42 0, 30 0 M30 0 C36.67 0, 40 3.33, 40 10 M30 0 C36.67 0, 40 3.33, 40 10 M40 10 C40 15.61, 40 21.23, 40 30 M40 10 C40 14.14, 40 18.29, 40 30 M40 30 C40 36.67, 36.67 40, 30 40 M40 30 C40 36.67, 36.67 40, 30 40 M30 40 C24.24 40, 18.48 40, 10 40 M30 40 C23.13 40, 16.26 40, 10 40 M10 40 C3.33 40, 0 36.67, 0 30 M10 40 C3.33 40, 0 36.67, 0 30 M0 30 C0 23.14, 0 16.27, 0 10 M0 30 C0 25.72, 0 21.44, 0 10 M0 10 C0 3.33, 3.33 0, 10 0 M0 10 C0 3.33, 3.33 0, 10 0" stroke="#0284c7" stroke-width="1.5" fill="none"></path></g><g transform="translate(67 420) rotate(0 20 12.599999999999994)"><text x="20" y="17.208" font-family="Segoe UI Emoji" font-size="18px" fill="#1e293b" text-anchor="middle" style="white-space: pre;" direction="ltr" dominant-baseline="alphabetic">👤</text></g><g transform="translate(60.599999999999994 455) rotate(0 26.400000000000006 8.400000000000006)"><text x="26.400000000000002" y="11.471999999999998" font-family="Segoe UI Emoji" font-size="12px" fill="#1e293b" text-anchor="middle" style="white-space: pre;" direction="ltr" dominant-baseline="alphabetic">End User</text></g><g transform="translate(10 472) rotate(0 77 7)"><text x="77" y="9.559999999999999" font-family="Segoe UI Emoji" font-size="10px" fill="#64748b" text-anchor="middle" style="white-space: pre;" direction="ltr" dominant-baseline="alphabetic">[submits forms, views pages]</text></g><g stroke-linecap="round" transform="translate(227 69) rotate(0 260 280)"><path d="M6 0 C202.07 0, 398.14 0, 514 0 C518 0, 520 2, 520 6 C520 158.9, 520 311.8, 520 554 C520 558, 518 560, 514 560 C334.65 560, 155.31 560, 6 560 C2 560, 0 558, 0 554 C0 420.66, 0 287.31, 0 6 C0 2, 2 0, 6 0" stroke="none" stroke-width="0" fill="#f0f9ff"></path><path d="M6 0 C162.66 0, 319.31 0, 514 0 M6 0 C121.27 0, 236.55 0, 514 0 M514 0 C518 0, 520 2, 520 6 M514 0 C518 0, 520 2, 520 6 M520 6 C520 195.39, 520 384.78, 520 554 M520 6 C520 223.62, 520 441.25, 520 554 M520 554 C520 558, 518 560, 514 560 M520 554 C520 558, 518 560, 514 560 M514 560 C396.11 560, 278.22 560, 6 560 M514 560 C312.56 560, 111.13 560, 6 560 M6 560 C2 560, 0 558, 0 554 M6 560 C2 560, 0 558, 0 554 M0 554 C0 335.33, 0 116.66, 0 6 M0 554 C0 415.33, 0 276.67, 0 6 M0 6 C0 2, 2 0, 6 0 M0 6 C0 2, 2 0, 6 0" stroke="#3b82f6" stroke-width="1.5" fill="none"></path></g><g transform="translate(436.95 342) rotate(0 50.04999999999998 9.800000000000011)"><text x="50.050000000000004" y="13.383999999999999" font-family="Segoe UI Emoji" font-size="14px" fill="#3b82f6" text-anchor="middle" style="white-space: pre;" direction="ltr" dominant-baseline="alphabetic">Axis Platform</text></g><g stroke-linecap="round" transform="translate(267 119) rotate(0 100 30)"><path d="M6 0 C66.34 0, 126.68 0, 194 0 C198 0, 200 2, 200 6 C200 19.59, 200 33.17, 200 54 C200 58, 198 60, 194 60 C122.22 60, 50.43 60, 6 60 C2 60, 0 58, 0 54 C0 41.98, 0 29.95, 0 6 C0 2, 2 0, 6 0" stroke="none" stroke-width="0" fill="#dbeafe"></path><path d="M6 0 C56.62 0, 107.24 0, 194 0 M6 0 C58.77 0, 111.55 0, 194 0 M194 0 C198 0, 200 2, 200 6 M194 0 C198 0, 200 2, 200 6 M200 6 C200 19.23, 200 32.45, 200 54 M200 6 C200 23.06, 200 40.12, 200 54 M200 54 C200 58, 198 60, 194 60 M200 54 C200 58, 198 60, 194 60 M194 60 C141.07 60, 88.15 60, 6 60 M194 60 C126.39 60, 58.77 60, 6 60 M6 60 C2 60, 0 58, 0 54 M6 60 C2 60, 0 58, 0 54 M0 54 C0 36.82, 0 19.64, 0 6 M0 54 C0 43.05, 0 32.11, 0 6 M0 6 C0 2, 2 0, 6 0 M0 6 C0 2, 2 0, 6 0" stroke="#3b82f6" stroke-width="1.5" fill="none"></path></g><g transform="translate(313.375 132.5) rotate(0 53.625 9.099999999999994)"><text x="53.62500000000001" y="12.427999999999999" font-family="Segoe UI Emoji" font-size="13px" fill="#1e293b" text-anchor="middle" style="white-space: pre;" direction="ltr" dominant-baseline="alphabetic">Web Application</text></g><g transform="translate(309.25 152) rotate(0 57.75 7)"><text x="57.75000000000001" y="9.559999999999999" font-family="Segoe UI Emoji" font-size="10px" fill="#64748b" text-anchor="middle" style="white-space: pre;" direction="ltr" dominant-baseline="alphabetic">React 18 + TypeScript</text></g><g stroke-linecap="round" transform="translate(267 229) rotate(0 100 30)"><path d="M6 0 C49.5 0, 93 0, 194 0 C198 0, 200 2, 200 6 C200 17.41, 200 28.81, 200 54 C200 58, 198 60, 194 60 C153.93 60, 113.86 60, 6 60 C2 60, 0 58, 0 54 C0 39.49, 0 24.98, 0 6 C0 2, 2 0, 6 0" stroke="none" stroke-width="0" fill="#dbeafe"></path><path d="M6 0 C70.75 0, 135.5 0, 194 0 M6 0 C65.83 0, 125.66 0, 194 0 M194 0 C198 0, 200 2, 200 6 M194 0 C198 0, 200 2, 200 6 M200 6 C200 18.92, 200 31.84, 200 54 M200 6 C200 19.07, 200 32.14, 200 54 M200 54 C200 58, 198 60, 194 60 M200 54 C200 58, 198 60, 194 60 M194 60 C140.59 60, 87.18 60, 6 60 M194 60 C154.27 60, 114.54 60, 6 60 M6 60 C2 60, 0 58, 0 54 M6 60 C2 60, 0 58, 0 54 M0 54 C0 37.27, 0 20.53, 0 6 M0 54 C0 36.85, 0 19.69, 0 6 M0 6 C0 2, 2 0, 6 0 M0 6 C0 2, 2 0, 6 0" stroke="#3b82f6" stroke-width="1.5" fill="none"></path></g><g transform="translate(331.25 242.5) rotate(0 35.75 9.099999999999994)"><text x="35.75" y="12.427999999999999" font-family="Segoe UI Emoji" font-size="13px" fill="#1e293b" text-anchor="middle" style="white-space: pre;" direction="ltr" dominant-baseline="alphabetic">API Server</text></g><g transform="translate(276.25 262) rotate(0 90.75 7)"><text x="90.75000000000001" y="9.559999999999999" font-family="Segoe UI Emoji" font-size="10px" fill="#64748b" text-anchor="middle" style="white-space: pre;" direction="ltr" dominant-baseline="alphabetic">ASP.NET Core 8 · Modular Monolith</text></g><g stroke-linecap="round" transform="translate(267 359) rotate(0 100 30)"><path d="M6 0 C77.54 0, 149.07 0, 194 0 C198 0, 200 2, 200 6 C200 21.52, 200 37.04, 200 54 C200 58, 198 60, 194 60 C120.33 60, 46.65 60, 6 60 C2 60, 0 58, 0 54 C0 43.6, 0 33.2, 0 6 C0 2, 2 0, 6 0" stroke="none" stroke-width="0" fill="#ffedd5"></path><path d="M6 0 C78.97 0, 151.94 0, 194 0 M6 0 C54.52 0, 103.04 0, 194 0 M194 0 C198 0, 200 2, 200 6 M194 0 C198 0, 200 2, 200 6 M200 6 C200 19.4, 200 32.8, 200 54 M200 6 C200 23.96, 200 41.91, 200 54 M200 54 C200 58, 198 60, 194 60 M200 54 C200 58, 198 60, 194 60 M194 60 C137.8 60, 81.6 60, 6 60 M194 60 C144.36 60, 94.72 60, 6 60 M6 60 C2 60, 0 58, 0 54 M6 60 C2 60, 0 58, 0 54 M0 54 C0 36.28, 0 18.55, 0 6 M0 54 C0 39.14, 0 24.29, 0 6 M0 6 C0 2, 2 0, 6 0 M0 6 C0 2, 2 0, 6 0" stroke="#ea580c" stroke-width="1.5" fill="none"></path></g><g transform="translate(320.525 372.5) rotate(0 46.474999999999994 9.099999999999994)"><text x="46.475" y="12.427999999999999" font-family="Segoe UI Emoji" font-size="13px" fill="#1e293b" text-anchor="middle" style="white-space: pre;" direction="ltr" dominant-baseline="alphabetic">PostgreSQL 16</text></g><g transform="translate(312 392) rotate(0 55 7)"><text x="55.00000000000001" y="9.559999999999999" font-family="Segoe UI Emoji" font-size="10px" fill="#64748b" text-anchor="middle" style="white-space: pre;" direction="ltr" dominant-baseline="alphabetic">Per-module databases</text></g><g stroke-linecap="round" transform="translate(267 449) rotate(0 100 30)"><path d="M6 0 C56.01 0, 106.01 0, 194 0 C198 0, 200 2, 200 6 C200 23.22, 200 40.44, 200 54 C200 58, 198 60, 194 60 C154.38 60, 114.75 60, 6 60 C2 60, 0 58, 0 54 C0 41.51, 0 29.02, 0 6 C0 2, 2 0, 6 0" stroke="none" stroke-width="0" fill="#ffedd5"></path><path d="M6 0 C55.26 0, 104.52 0, 194 0 M6 0 C59.15 0, 112.29 0, 194 0 M194 0 C198 0, 200 2, 200 6 M194 0 C198 0, 200 2, 200 6 M200 6 C200 16.89, 200 27.77, 200 54 M200 6 C200 18.81, 200 31.62, 200 54 M200 54 C200 58, 198 60, 194 60 M200 54 C200 58, 198 60, 194 60 M194 60 C121.41 60, 48.81 60, 6 60 M194 60 C151.58 60, 109.16 60, 6 60 M6 60 C2 60, 0 58, 0 54 M6 60 C2 60, 0 58, 0 54 M0 54 C0 42.11, 0 30.22, 0 6 M0 54 C0 40.01, 0 26.01, 0 6 M0 6 C0 2, 2 0, 6 0 M0 6 C0 2, 2 0, 6 0" stroke="#ea580c" stroke-width="1.5" fill="none"></path></g><g transform="translate(341.975 462.5) rotate(0 25.025000000000006 9.099999999999994)"><text x="25.025000000000002" y="12.427999999999999" font-family="Segoe UI Emoji" font-size="13px" fill="#1e293b" text-anchor="middle" style="white-space: pre;" direction="ltr" dominant-baseline="alphabetic">Redis 7</text></g><g transform="translate(325.75 482) rotate(0 41.25 7)"><text x="41.25" y="9.559999999999999" font-family="Segoe UI Emoji" font-size="10px" fill="#64748b" text-anchor="middle" style="white-space: pre;" direction="ltr" dominant-baseline="alphabetic">Cache · Session</text></g><g stroke-linecap="round" transform="translate(507 229) rotate(0 100 30)"><path d="M6 0 C56.81 0, 107.63 0, 194 0 C198 0, 200 2, 200 6 C200 16.5, 200 27, 200 54 C200 58, 198 60, 194 60 C128.68 60, 63.35 60, 6 60 C2 60, 0 58, 0 54 C0 40.96, 0 27.91, 0 6 C0 2, 2 0, 6 0" stroke="none" stroke-width="0" fill="#dcfce7"></path><path d="M6 0 C49.55 0, 93.1 0, 194 0 M6 0 C62.82 0, 119.64 0, 194 0 M194 0 C198 0, 200 2, 200 6 M194 0 C198 0, 200 2, 200 6 M200 6 C200 22.15, 200 38.3, 200 54 M200 6 C200 21.67, 200 37.33, 200 54 M200 54 C200 58, 198 60, 194 60 M200 54 C200 58, 198 60, 194 60 M194 60 C148.91 60, 103.82 60, 6 60 M194 60 C149.54 60, 105.08 60, 6 60 M6 60 C2 60, 0 58, 0 54 M6 60 C2 60, 0 58, 0 54 M0 54 C0 41.66, 0 29.32, 0 6 M0 54 C0 35.97, 0 17.94, 0 6 M0 6 C0 2, 2 0, 6 0 M0 6 C0 2, 2 0, 6 0" stroke="#16a34a" stroke-width="1.5" fill="none"></path></g><g transform="translate(574.825 242.5) rotate(0 32.17500000000001 9.099999999999994)"><text x="32.175000000000004" y="12.427999999999999" font-family="Segoe UI Emoji" font-size="13px" fill="#1e293b" text-anchor="middle" style="white-space: pre;" direction="ltr" dominant-baseline="alphabetic">Wolverine</text></g><g transform="translate(535.5 262) rotate(0 71.5 7)"><text x="71.5" y="9.559999999999999" font-family="Segoe UI Emoji" font-size="10px" fill="#64748b" text-anchor="middle" style="white-space: pre;" direction="ltr" dominant-baseline="alphabetic">Event bus · Durable outbox</text></g><g stroke-linecap="round" transform="translate(507 359) rotate(0 100 30)"><path d="M6 0 C45.5 0, 85.01 0, 194 0 C198 0, 200 2, 200 6 C200 21.42, 200 36.84, 200 54 C200 58, 198 60, 194 60 C130.98 60, 67.95 60, 6 60 C2 60, 0 58, 0 54 C0 42.44, 0 30.88, 0 6 C0 2, 2 0, 6 0" stroke="none" stroke-width="0" fill="#ffedd5"></path><path d="M6 0 C52.85 0, 99.71 0, 194 0 M6 0 C54.93 0, 103.87 0, 194 0 M194 0 C198 0, 200 2, 200 6 M194 0 C198 0, 200 2, 200 6 M200 6 C200 17.17, 200 28.34, 200 54 M200 6 C200 19.28, 200 32.56, 200 54 M200 54 C200 58, 198 60, 194 60 M200 54 C200 58, 198 60, 194 60 M194 60 C119.19 60, 44.37 60, 6 60 M194 60 C153.24 60, 112.48 60, 6 60 M6 60 C2 60, 0 58, 0 54 M6 60 C2 60, 0 58, 0 54 M0 54 C0 40.79, 0 27.58, 0 6 M0 54 C0 40.27, 0 26.53, 0 6 M0 6 C0 2, 2 0, 6 0 M0 6 C0 2, 2 0, 6 0" stroke="#ea580c" stroke-width="1.5" fill="none"></path></g><g transform="translate(585.55 372.5) rotate(0 21.44999999999999 9.099999999999994)"><text x="21.450000000000003" y="12.427999999999999" font-family="Segoe UI Emoji" font-size="13px" fill="#1e293b" text-anchor="middle" style="white-space: pre;" direction="ltr" dominant-baseline="alphabetic">AWS S3</text></g><g transform="translate(574 392) rotate(0 33 7)"><text x="33" y="9.559999999999999" font-family="Segoe UI Emoji" font-size="10px" fill="#64748b" text-anchor="middle" style="white-space: pre;" direction="ltr" dominant-baseline="alphabetic">File storage</text></g><g stroke-linecap="round" transform="translate(797 189) rotate(0 80 30)"><path d="M6 0 C47.98 0, 89.95 0, 154 0 C158 0, 160 2, 160 6 C160 17.54, 160 29.07, 160 54 C160 58, 158 60, 154 60 C111.98 60, 69.97 60, 6 60 C2 60, 0 58, 0 54 C0 39.67, 0 25.34, 0 6 C0 2, 2 0, 6 0" stroke="none" stroke-width="0" fill="#f3e8ff"></path><path d="M6 0 C50.03 0, 94.05 0, 154 0 M6 0 C50.09 0, 94.19 0, 154 0 M154 0 C158 0, 160 2, 160 6 M154 0 C158 0, 160 2, 160 6 M160 6 C160 18.84, 160 31.68, 160 54 M160 6 C160 16.9, 160 27.81, 160 54 M160 54 C160 58, 158 60, 154 60 M160 54 C160 58, 158 60, 154 60 M154 60 C95.55 60, 37.09 60, 6 60 M154 60 C124.31 60, 94.63 60, 6 60 M6 60 C2 60, 0 58, 0 54 M6 60 C2 60, 0 58, 0 54 M0 54 C0 38.98, 0 23.97, 0 6 M0 54 C0 35.29, 0 16.58, 0 6 M0 6 C0 2, 2 0, 6 0 M0 6 C0 2, 2 0, 6 0" stroke="#9333ea" stroke-width="1.5" fill="none"></path></g><g transform="translate(830.525 202.5) rotate(0 46.47500000000002 9.099999999999994)"><text x="46.475" y="12.427999999999999" font-family="Segoe UI Emoji" font-size="13px" fill="#1e293b" text-anchor="middle" style="white-space: pre;" direction="ltr" dominant-baseline="alphabetic">Email Service</text></g><g transform="translate(838.5 222) rotate(0 38.5 7)"><text x="38.5" y="9.559999999999999" font-family="Segoe UI Emoji" font-size="10px" fill="#64748b" text-anchor="middle" style="white-space: pre;" direction="ltr" dominant-baseline="alphabetic">SMTP / MailKit</text></g><g stroke-linecap="round" transform="translate(797 329) rotate(0 80 30)"><path d="M6 0 C53.55 0, 101.09 0, 154 0 C158 0, 160 2, 160 6 C160 18.36, 160 30.71, 160 54 C160 58, 158 60, 154 60 C112.75 60, 71.49 60, 6 60 C2 60, 0 58, 0 54 C0 39.59, 0 25.17, 0 6 C0 2, 2 0, 6 0" stroke="none" stroke-width="0" fill="#f3e8ff"></path><path d="M6 0 C41.55 0, 77.1 0, 154 0 M6 0 C41.62 0, 77.25 0, 154 0 M154 0 C158 0, 160 2, 160 6 M154 0 C158 0, 160 2, 160 6 M160 6 C160 21.51, 160 37.02, 160 54 M160 6 C160 20.19, 160 34.37, 160 54 M160 54 C160 58, 158 60, 154 60 M160 54 C160 58, 158 60, 154 60 M154 60 C100.87 60, 47.75 60, 6 60 M154 60 C112.38 60, 70.76 60, 6 60 M6 60 C2 60, 0 58, 0 54 M6 60 C2 60, 0 58, 0 54 M0 54 C0 37.89, 0 21.77, 0 6 M0 54 C0 35.08, 0 16.15, 0 6 M0 6 C0 2, 2 0, 6 0 M0 6 C0 2, 2 0, 6 0" stroke="#9333ea" stroke-width="1.5" fill="none"></path></g><g transform="translate(830.525 342.5) rotate(0 46.47500000000002 9.099999999999994)"><text x="46.475" y="12.427999999999999" font-family="Segoe UI Emoji" font-size="13px" fill="#1e293b" text-anchor="middle" style="white-space: pre;" direction="ltr" dominant-baseline="alphabetic">External APIs</text></g><g transform="translate(827.5 362) rotate(0 49.5 7)"><text x="49.50000000000001" y="9.559999999999999" font-family="Segoe UI Emoji" font-size="10px" fill="#64748b" text-anchor="middle" style="white-space: pre;" direction="ltr" dominant-baseline="alphabetic">HTTP Request steps</text></g><g stroke-linecap="round"><g transform="translate(127 209) rotate(0 50 0)"><path d="M0 0 C16.67 0, 83.33 0, 100 0 M0 0 C16.67 0, 83.33 0, 100 0" stroke="#475569" stroke-width="1.5" fill="none"></path></g><g transform="translate(127 209) rotate(0 50 0)"><path d="M76.51 8.55 C81.8 6.62, 87.1 4.69, 100 0 M76.51 8.55 C81.74 6.65, 86.97 4.74, 100 0" stroke="#475569" stroke-width="1.5" fill="none"></path></g><g transform="translate(127 209) rotate(0 50 0)"><path d="M76.51 -8.55 C81.8 -6.62, 87.1 -4.69, 100 0 M76.51 -8.55 C81.74 -6.65, 86.97 -4.74, 100 0" stroke="#475569" stroke-width="1.5" fill="none"></path></g></g><mask></mask><g transform="translate(157 190) rotate(0 20 7)"><text x="20" y="9.559999999999999" font-family="Segoe UI Emoji" font-size="10px" fill="#64748b" text-anchor="middle" style="white-space: pre;" direction="ltr" dominant-baseline="alphabetic">HTTPS</text></g><g stroke-linecap="round"><g transform="translate(127 429) rotate(0 50 -70)"><path d="M0 0 C16.67 -23.33, 83.33 -116.67, 100 -140 M0 0 C16.67 -23.33, 83.33 -116.67, 100 -140" stroke="#475569" stroke-width="1.5" fill="none"></path></g><g transform="translate(127 429) rotate(0 50 -70)"><path d="M93.3 -115.91 C95.75 -124.72, 98.2 -133.52, 100 -140 M93.3 -115.91 C95.72 -124.61, 98.14 -133.31, 100 -140" stroke="#475569" stroke-width="1.5" fill="none"></path></g><g transform="translate(127 429) rotate(0 50 -70)"><path d="M79.39 -125.85 C86.92 -131.02, 94.46 -136.2, 100 -140 M79.39 -125.85 C86.83 -130.96, 94.28 -136.07, 100 -140" stroke="#475569" stroke-width="1.5" fill="none"></path></g></g><mask></mask><g stroke-linecap="round"><g transform="translate(367 179) rotate(0 0 25)"><path d="M0 0 C0 8.33, 0 41.67, 0 50 M0 0 C0 8.33, 0 41.67, 0 50" stroke="#475569" stroke-width="1.5" fill="none"></path></g><g transform="translate(367 179) rotate(0 0 25)"><path d="M-8.55 26.51 C-6.69 31.61, -4.84 36.71, 0 50 M-8.55 26.51 C-5.54 34.78, -2.53 43.06, 0 50" stroke="#475569" stroke-width="1.5" fill="none"></path></g><g transform="translate(367 179) rotate(0 0 25)"><path d="M8.55 26.51 C6.69 31.61, 4.84 36.71, 0 50 M8.55 26.51 C5.54 34.78, 2.53 43.06, 0 50" stroke="#475569" stroke-width="1.5" fill="none"></path></g></g><mask></mask><g transform="translate(342.25 185) rotate(0 24.75 7)"><text x="24.750000000000004" y="9.559999999999999" font-family="Segoe UI Emoji" font-size="10px" fill="#64748b" text-anchor="middle" style="white-space: pre;" direction="ltr" dominant-baseline="alphabetic">REST / WS</text></g><g stroke-linecap="round"><g transform="translate(367 289) rotate(0 0 35)"><path d="M0 0 C0 11.67, 0 58.33, 0 70 M0 0 C0 11.67, 0 58.33, 0 70" stroke="#475569" stroke-width="1.5" fill="none"></path></g><g transform="translate(367 289) rotate(0 0 35)"><path d="M-8.55 46.51 C-6.37 52.49, -4.2 58.47, 0 70 M-8.55 46.51 C-5.18 55.76, -1.82 65.01, 0 70" stroke="#475569" stroke-width="1.5" fill="none"></path></g><g transform="translate(367 289) rotate(0 0 35)"><path d="M8.55 46.51 C6.37 52.49, 4.2 58.47, 0 70 M8.55 46.51 C5.18 55.76, 1.82 65.01, 0 70" stroke="#475569" stroke-width="1.5" fill="none"></path></g></g><mask></mask><g stroke-linecap="round"><g transform="translate(367 289) rotate(0 0 80)"><path d="M0 0 C0 26.67, 0 133.33, 0 160 M0 0 C0 26.67, 0 133.33, 0 160" stroke="#475569" stroke-width="1.5" fill="none"></path></g><g transform="translate(367 289) rotate(0 0 80)"><path d="M-8.55 136.51 C-5.41 145.14, -2.27 153.77, 0 160 M-8.55 136.51 C-5.48 144.93, -2.42 153.35, 0 160" stroke="#475569" stroke-width="1.5" fill="none"></path></g><g transform="translate(367 289) rotate(0 0 80)"><path d="M8.55 136.51 C5.41 145.14, 2.27 153.77, 0 160 M8.55 136.51 C5.48 144.93, 2.42 153.35, 0 160" stroke="#475569" stroke-width="1.5" fill="none"></path></g></g><mask></mask><g stroke-linecap="round"><g transform="translate(467 259) rotate(0 20 0)"><path d="M0 0 C6.67 0, 33.33 0, 40 0 M0 0 C6.67 0, 33.33 0, 40 0" stroke="#475569" stroke-width="1.5" fill="none"></path></g><g transform="translate(467 259) rotate(0 20 0)"><path d="M21.21 6.84 C26.57 4.89, 31.93 2.94, 40 0 M21.21 6.84 C27.66 4.49, 34.12 2.14, 40 0" stroke="#475569" stroke-width="1.5" fill="none"></path></g><g transform="translate(467 259) rotate(0 20 0)"><path d="M21.21 -6.84 C26.57 -4.89, 31.93 -2.94, 40 0 M21.21 -6.84 C27.66 -4.49, 34.12 -2.14, 40 0" stroke="#475569" stroke-width="1.5" fill="none"></path></g></g><mask></mask><g stroke-linecap="round"><g transform="translate(607 289) rotate(0 0 35)"><path d="M0 0 C0 11.67, 0 58.33, 0 70 M0 0 C0 11.67, 0 58.33, 0 70" stroke="#475569" stroke-width="1.5" fill="none"></path></g><g transform="translate(607 289) rotate(0 0 35)"><path d="M-8.55 46.51 C-5.9 53.78, -3.26 61.05, 0 70 M-8.55 46.51 C-5.26 55.56, -1.96 64.61, 0 70" stroke="#475569" stroke-width="1.5" fill="none"></path></g><g transform="translate(607 289) rotate(0 0 35)"><path d="M8.55 46.51 C5.9 53.78, 3.26 61.05, 0 70 M8.55 46.51 C5.26 55.56, 1.96 64.61, 0 70" stroke="#475569" stroke-width="1.5" fill="none"></path></g></g><mask></mask><g stroke-linecap="round"><g transform="translate(707 244) rotate(0 45 -12.5)"><path d="M0 0 C15 -4.17, 75 -20.83, 90 -25 M0 0 C15 -4.17, 75 -20.83, 90 -25" stroke="#475569" stroke-width="1.5" fill="none"></path></g><g transform="translate(707 244) rotate(0 45 -12.5)"><path d="M69.65 -10.47 C75.28 -14.49, 80.9 -18.5, 90 -25 M69.65 -10.47 C75.49 -14.64, 81.33 -18.81, 90 -25" stroke="#475569" stroke-width="1.5" fill="none"></path></g><g transform="translate(707 244) rotate(0 45 -12.5)"><path d="M65.08 -26.95 C71.96 -26.41, 78.85 -25.87, 90 -25 M65.08 -26.95 C72.23 -26.39, 79.38 -25.83, 90 -25" stroke="#475569" stroke-width="1.5" fill="none"></path></g></g><mask></mask><g stroke-linecap="round"><g transform="translate(707 269) rotate(0 45 40)"><path d="M0 0 C15 13.33, 75 66.67, 90 80 M0 0 C15 13.33, 75 66.67, 90 80" stroke="#475569" stroke-width="1.5" fill="none"></path></g><g transform="translate(707 269) rotate(0 45 40)"><path d="M66.76 70.78 C72.27 72.97, 77.79 75.16, 90 80 M66.76 70.78 C72.38 73.01, 77.99 75.24, 90 80" stroke="#475569" stroke-width="1.5" fill="none"></path></g><g transform="translate(707 269) rotate(0 45 40)"><path d="M78.12 58 C80.94 63.22, 83.76 68.44, 90 80 M78.12 58 C80.99 63.32, 83.86 68.63, 90 80" stroke="#475569" stroke-width="1.5" fill="none"></path></g></g><mask></mask></svg>