<svg version="1.1" xmlns="http://www.w3.org/2000/svg" viewBox="0 0 967 639" width="967" height="639"><!-- svg-source:excalidraw --><metadata></metadata><defs><style class="style-fonts">
      </style></defs><rect x="0" y="0" width="967" height="639" fill="#f8fafc"></rect><g transform="translate(338.5 10) rotate(0 148.5 12.600000000000001)"><text x="148.5" y="17.208" font-family="Segoe UI Emoji" font-size="18px" fill="#1e293b" text-anchor="middle" style="white-space: pre;" direction="ltr" dominant-baseline="alphabetic">Axis Platform — System Context</text></g><g stroke-linecap="round" transform="translate(67 189) rotate(0 20 20)"><path d="M10 0 C15.86 0, 21.72 0, 30 0 C36.67 0, 40 3.33, 40 10 C40 15.08, 40 20.15, 40 30 C40 36.67, 36.67 40, 30 40 C25.33 40, 20.65 40, 10 40 C3.33 40, 0 36.67, 0 30 C0 25.91, 0 21.81, 0 10 C0 3.33, 3.33 0, 10 0" stroke="none" stroke-width="0" fill="#e0f2fe"></path><path d="M10 0 C14.91 0, 19.82 0, 30 0 M10 0 C14.93 0, 19.85 0, 30 0 M30 0 C36.67 0, 40 3.33, 40 10 M30 0 C36.67 0, 40 3.33, 40 10 M40 10 C40 17.47, 40 24.94, 40 30 M40 10 C40 16.69, 40 23.37, 40 30 M40 30 C40 36.67, 36.67 40, 30 40 M40 30 C40 36.67, 36.67 40, 30 40 M30 40 C24.6 40, 19.19 40, 10 40 M30 40 C23.15 40, 16.3 40, 10 40 M10 40 C3.33 40, 0 36.67, 0 30 M10 40 C3.33 40, 0 36.67, 0 30 M0 30 C0 23.43, 0 16.87, 0 10 M0 30 C0 23.58, 0 17.17, 0 10 M0 10 C0 3.33, 3.33 0, 10 0 M0 10 C0 3.33, 3.33 0, 10 0" stroke="#0284c7" stroke-width="1.5" fill="none"></path></g><g transform="translate(67 200) rotate(0 20 12.599999999999994)"><text x="20" y="17.208" font-family="Segoe UI Emoji" font-size="18px" fill="#1e293b" text-anchor="middle" style="white-space: pre;" direction="ltr" dominant-baseline="alphabetic">👤</text></g><g transform="translate(57.3 235) rotate(0 29.699999999999996 8.400000000000006)"><text x="29.700000000000003" y="11.471999999999998" font-family="Segoe UI Emoji" font-size="12px" fill="#1e293b" text-anchor="middle" style="white-space: pre;" direction="ltr" dominant-baseline="alphabetic">Org Admin</text></g><g transform="translate(15.5 252) rotate(0 71.5 7)"><text x="71.5" y="9.559999999999999" font-family="Segoe UI Emoji" font-size="10px" fill="#64748b" text-anchor="middle" style="white-space: pre;" direction="ltr" dominant-baseline="alphabetic">[builds workflows &amp; forms]</text></g><g stroke-linecap="round" transform="translate(67 409) rotate(0 20 20)"><path d="M10 0 C16.11 0, 22.21 0, 30 0 C36.67 0, 40 3.33, 40 10 C40 15.75, 40 21.5, 40 30 C40 36.67, 36.67 40, 30 40 C24.18 40, 18.37 40, 10 40 C3.33 40, 0 36.67, 0 30 C0 24.05, 0 18.1, 0 10 C0 3.33, 3.33 0, 10 0" stroke="none" stroke-width="0" fill="#e0f2fe"></path><path d="M10 0 C15.42 0, 20.83 0, 30 0 M10 0 C15.03 0, 20.06 0, 30 0 M30 0 C36.67 0, 40 3.33, 40 10 M30 0 C36.67 0, 40 3.33, 40 10 M40 10 C40 17.48, 40 24.96, 40 30 M40 10 C40 17.72, 40 25.45, 40 30 M40 30 C40 36.67, 36.67 40, 30 40 M40 30 C40 36.67, 36.67 40, 30 40 M30 40 C23.17 40, 16.35 40, 10 40 M30 40 C25.03 40, 20.07 40, 10 40 M10 40 C3.33 40, 0 36.67, 0 30 M10 40 C3.33 40, 0 36.67, 0 30 M0 30 C0 22.66, 0 15.32, 0 10 M0 30 C0 24.14, 0 18.28, 0 10 M0 10 C0 3.33, 3.33 0, 10 0 M0 10 C0 3.33, 3.33 0, 10 0" stroke="#0284c7" stroke-width="1.5" fill="none"></path></g><g transform="translate(67 420) rotate(0 20 12.599999999999994)"><text x="20" y="17.208" font-family="Segoe UI Emoji" font-size="18px" fill="#1e293b" text-anchor="middle" style="white-space: pre;" direction="ltr" dominant-baseline="alphabetic">👤</text></g><g transform="translate(60.599999999999994 455) rotate(0 26.400000000000006 8.400000000000006)"><text x="26.400000000000002" y="11.471999999999998" font-family="Segoe UI Emoji" font-size="12px" fill="#1e293b" text-anchor="middle" style="white-space: pre;" direction="ltr" dominant-baseline="alphabetic">End User</text></g><g transform="translate(10 472) rotate(0 77 7)"><text x="77" y="9.559999999999999" font-family="Segoe UI Emoji" font-size="10px" fill="#64748b" text-anchor="middle" style="white-space: pre;" direction="ltr" dominant-baseline="alphabetic">[submits forms, views pages]</text></g><g stroke-linecap="round" transform="translate(227 69) rotate(0 260 280)"><path d="M6 0 C188.81 0, 371.62 0, 514 0 C518 0, 520 2, 520 6 C520 185.81, 520 365.62, 520 554 C520 558, 518 560, 514 560 C357.3 560, 200.6 560, 6 560 C2 560, 0 558, 0 554 C0 421.81, 0 289.63, 0 6 C0 2, 2 0, 6 0" stroke="none" stroke-width="0" fill="#f0f9ff"></path><path d="M6 0 C191.49 0, 376.98 0, 514 0 M6 0 C112.54 0, 219.08 0, 514 0 M514 0 C518 0, 520 2, 520 6 M514 0 C518 0, 520 2, 520 6 M520 6 C520 200.44, 520 394.88, 520 554 M520 6 C520 208.15, 520 410.3, 520 554 M520 554 C520 558, 518 560, 514 560 M520 554 C520 558, 518 560, 514 560 M514 560 C344.22 560, 174.44 560, 6 560 M514 560 C339.72 560, 165.45 560, 6 560 M6 560 C2 560, 0 558, 0 554 M6 560 C2 560, 0 558, 0 554 M0 554 C0 367.9, 0 181.81, 0 6 M0 554 C0 423.45, 0 292.91, 0 6 M0 6 C0 2, 2 0, 6 0 M0 6 C0 2, 2 0, 6 0" stroke="#3b82f6" stroke-width="1.5" fill="none"></path></g><g transform="translate(436.95 342) rotate(0 50.04999999999998 9.800000000000011)"><text x="50.050000000000004" y="13.383999999999999" font-family="Segoe UI Emoji" font-size="14px" fill="#3b82f6" text-anchor="middle" style="white-space: pre;" direction="ltr" dominant-baseline="alphabetic">Axis Platform</text></g><g stroke-linecap="round" transform="translate(267 119) rotate(0 100 30)"><path d="M6 0 C60.26 0, 114.51 0, 194 0 C198 0, 200 2, 200 6 C200 24.74, 200 43.48, 200 54 C200 58, 198 60, 194 60 C129.86 60, 65.72 60, 6 60 C2 60, 0 58, 0 54 C0 40.43, 0 26.85, 0 6 C0 2, 2 0, 6 0" stroke="none" stroke-width="0" fill="#dbeafe"></path><path d="M6 0 C63.27 0, 120.55 0, 194 0 M6 0 C44.53 0, 83.05 0, 194 0 M194 0 C198 0, 200 2, 200 6 M194 0 C198 0, 200 2, 200 6 M200 6 C200 19.38, 200 32.76, 200 54 M200 6 C200 22.29, 200 38.59, 200 54 M200 54 C200 58, 198 60, 194 60 M200 54 C200 58, 198 60, 194 60 M194 60 C141.98 60, 89.96 60, 6 60 M194 60 C138.29 60, 82.58 60, 6 60 M6 60 C2 60, 0 58, 0 54 M6 60 C2 60, 0 58, 0 54 M0 54 C0 44.06, 0 34.13, 0 6 M0 54 C0 38.24, 0 22.48, 0 6 M0 6 C0 2, 2 0, 6 0 M0 6 C0 2, 2 0, 6 0" stroke="#3b82f6" stroke-width="1.5" fill="none"></path></g><g transform="translate(313.375 132.5) rotate(0 53.625 9.099999999999994)"><text x="53.62500000000001" y="12.427999999999999" font-family="Segoe UI Emoji" font-size="13px" fill="#1e293b" text-anchor="middle" style="white-space: pre;" direction="ltr" dominant-baseline="alphabetic">Web Application</text></g><g transform="translate(309.25 152) rotate(0 57.75 7)"><text x="57.75000000000001" y="9.559999999999999" font-family="Segoe UI Emoji" font-size="10px" fill="#64748b" text-anchor="middle" style="white-space: pre;" direction="ltr" dominant-baseline="alphabetic">React 18 + TypeScript</text></g><g stroke-linecap="round" transform="translate(267 229) rotate(0 100 30)"><path d="M6 0 C80.31 0, 154.62 0, 194 0 C198 0, 200 2, 200 6 C200 20.88, 200 35.76, 200 54 C200 58, 198 60, 194 60 C134.61 60, 75.22 60, 6 60 C2 60, 0 58, 0 54 C0 42.34, 0 30.69, 0 6 C0 2, 2 0, 6 0" stroke="none" stroke-width="0" fill="#dbeafe"></path><path d="M6 0 C47.13 0, 88.25 0, 194 0 M6 0 C49.28 0, 92.55 0, 194 0 M194 0 C198 0, 200 2, 200 6 M194 0 C198 0, 200 2, 200 6 M200 6 C200 17.38, 200 28.76, 200 54 M200 6 C200 19.22, 200 32.44, 200 54 M200 54 C200 58, 198 60, 194 60 M200 54 C200 58, 198 60, 194 60 M194 60 C156.17 60, 118.33 60, 6 60 M194 60 C152.97 60, 111.94 60, 6 60 M6 60 C2 60, 0 58, 0 54 M6 60 C2 60, 0 58, 0 54 M0 54 C0 41.75, 0 29.49, 0 6 M0 54 C0 40.24, 0 26.47, 0 6 M0 6 C0 2, 2 0, 6 0 M0 6 C0 2, 2 0, 6 0" stroke="#3b82f6" stroke-width="1.5" fill="none"></path></g><g transform="translate(331.25 242.5) rotate(0 35.75 9.099999999999994)"><text x="35.75" y="12.427999999999999" font-family="Segoe UI Emoji" font-size="13px" fill="#1e293b" text-anchor="middle" style="white-space: pre;" direction="ltr" dominant-baseline="alphabetic">API Server</text></g><g transform="translate(276.25 262) rotate(0 90.75 7)"><text x="90.75000000000001" y="9.559999999999999" font-family="Segoe UI Emoji" font-size="10px" fill="#64748b" text-anchor="middle" style="white-space: pre;" direction="ltr" dominant-baseline="alphabetic">ASP.NET Core 8 · Modular Monolith</text></g><g stroke-linecap="round" transform="translate(267 359) rotate(0 100 30)"><path d="M6 0 C71.68 0, 137.37 0, 194 0 C198 0, 200 2, 200 6 C200 19.65, 200 33.31, 200 54 C200 58, 198 60, 194 60 C134 60, 74 60, 6 60 C2 60, 0 58, 0 54 C0 41.16, 0 28.32, 0 6 C0 2, 2 0, 6 0" stroke="none" stroke-width="0" fill="#ffedd5"></path><path d="M6 0 C64.88 0, 123.76 0, 194 0 M6 0 C79 0, 152 0, 194 0 M194 0 C198 0, 200 2, 200 6 M194 0 C198 0, 200 2, 200 6 M200 6 C200 18.27, 200 30.53, 200 54 M200 6 C200 25.02, 200 44.03, 200 54 M200 54 C200 58, 198 60, 194 60 M200 54 C200 58, 198 60, 194 60 M194 60 C121.44 60, 48.89 60, 6 60 M194 60 C136.01 60, 78.02 60, 6 60 M6 60 C2 60, 0 58, 0 54 M6 60 C2 60, 0 58, 0 54 M0 54 C0 34.89, 0 15.77, 0 6 M0 54 C0 37.56, 0 21.12, 0 6 M0 6 C0 2, 2 0, 6 0 M0 6 C0 2, 2 0, 6 0" stroke="#ea580c" stroke-width="1.5" fill="none"></path></g><g transform="translate(320.525 372.5) rotate(0 46.474999999999994 9.099999999999994)"><text x="46.475" y="12.427999999999999" font-family="Segoe UI Emoji" font-size="13px" fill="#1e293b" text-anchor="middle" style="white-space: pre;" direction="ltr" dominant-baseline="alphabetic">PostgreSQL 16</text></g><g transform="translate(312 392) rotate(0 55 7)"><text x="55.00000000000001" y="9.559999999999999" font-family="Segoe UI Emoji" font-size="10px" fill="#64748b" text-anchor="middle" style="white-space: pre;" direction="ltr" dominant-baseline="alphabetic">Per-module databases</text></g><g stroke-linecap="round" transform="translate(267 449) rotate(0 100 30)"><path d="M6 0 C53.15 0, 100.29 0, 194 0 C198 0, 200 2, 200 6 C200 21.16, 200 36.32, 200 54 C200 58, 198 60, 194 60 C131.46 60, 68.92 60, 6 60 C2 60, 0 58, 0 54 C0 44.35, 0 34.7, 0 6 C0 2, 2 0, 6 0" stroke="none" stroke-width="0" fill="#ffedd5"></path><path d="M6 0 C78.97 0, 151.93 0, 194 0 M6 0 C77.67 0, 149.34 0, 194 0 M194 0 C198 0, 200 2, 200 6 M194 0 C198 0, 200 2, 200 6 M200 6 C200 24.43, 200 42.86, 200 54 M200 6 C200 22.77, 200 39.54, 200 54 M200 54 C200 58, 198 60, 194 60 M200 54 C200 58, 198 60, 194 60 M194 60 C153.62 60, 113.24 60, 6 60 M194 60 C156.08 60, 118.15 60, 6 60 M6 60 C2 60, 0 58, 0 54 M6 60 C2 60, 0 58, 0 54 M0 54 C0 37.88, 0 21.75, 0 6 M0 54 C0 41.74, 0 29.47, 0 6 M0 6 C0 2, 2 0, 6 0 M0 6 C0 2, 2 0, 6 0" stroke="#ea580c" stroke-width="1.5" fill="none"></path></g><g transform="translate(341.975 462.5) rotate(0 25.025000000000006 9.099999999999994)"><text x="25.025000000000002" y="12.427999999999999" font-family="Segoe UI Emoji" font-size="13px" fill="#1e293b" text-anchor="middle" style="white-space: pre;" direction="ltr" dominant-baseline="alphabetic">Redis 7</text></g><g transform="translate(325.75 482) rotate(0 41.25 7)"><text x="41.25" y="9.559999999999999" font-family="Segoe UI Emoji" font-size="10px" fill="#64748b" text-anchor="middle" style="white-space: pre;" direction="ltr" dominant-baseline="alphabetic">Cache · Session</text></g><g stroke-linecap="round" transform="translate(507 229) rotate(0 100 30)"><path d="M6 0 C79.61 0, 153.22 0, 194 0 C198 0, 200 2, 200 6 C200 24.98, 200 43.96, 200 54 C200 58, 198 60, 194 60 C153.17 60, 112.34 60, 6 60 C2 60, 0 58, 0 54 C0 43.41, 0 32.82, 0 6 C0 2, 2 0, 6 0" stroke="none" stroke-width="0" fill="#dcfce7"></path><path d="M6 0 C47.33 0, 88.66 0, 194 0 M6 0 C64.04 0, 122.07 0, 194 0 M194 0 C198 0, 200 2, 200 6 M194 0 C198 0, 200 2, 200 6 M200 6 C200 17.41, 200 28.82, 200 54 M200 6 C200 23.31, 200 40.63, 200 54 M200 54 C200 58, 198 60, 194 60 M200 54 C200 58, 198 60, 194 60 M194 60 C125.82 60, 57.65 60, 6 60 M194 60 C153.56 60, 113.12 60, 6 60 M6 60 C2 60, 0 58, 0 54 M6 60 C2 60, 0 58, 0 54 M0 54 C0 40.1, 0 26.21, 0 6 M0 54 C0 43.12, 0 32.23, 0 6 M0 6 C0 2, 2 0, 6 0 M0 6 C0 2, 2 0, 6 0" stroke="#16a34a" stroke-width="1.5" fill="none"></path></g><g transform="translate(574.825 242.5) rotate(0 32.17500000000001 9.099999999999994)"><text x="32.175000000000004" y="12.427999999999999" font-family="Segoe UI Emoji" font-size="13px" fill="#1e293b" text-anchor="middle" style="white-space: pre;" direction="ltr" dominant-baseline="alphabetic">Wolverine</text></g><g transform="translate(535.5 262) rotate(0 71.5 7)"><text x="71.5" y="9.559999999999999" font-family="Segoe UI Emoji" font-size="10px" fill="#64748b" text-anchor="middle" style="white-space: pre;" direction="ltr" dominant-baseline="alphabetic">Event bus · Durable outbox</text></g><g stroke-linecap="round" transform="translate(507 359) rotate(0 100 30)"><path d="M6 0 C54.24 0, 102.48 0, 194 0 C198 0, 200 2, 200 6 C200 22.29, 200 38.58, 200 54 C200 58, 198 60, 194 60 C129.03 60, 64.06 60, 6 60 C2 60, 0 58, 0 54 C0 39.77, 0 25.54, 0 6 C0 2, 2 0, 6 0" stroke="none" stroke-width="0" fill="#ffedd5"></path><path d="M6 0 C60.66 0, 115.32 0, 194 0 M6 0 C54.14 0, 102.28 0, 194 0 M194 0 C198 0, 200 2, 200 6 M194 0 C198 0, 200 2, 200 6 M200 6 C200 21.68, 200 37.36, 200 54 M200 6 C200 23.2, 200 40.4, 200 54 M200 54 C200 58, 198 60, 194 60 M200 54 C200 58, 198 60, 194 60 M194 60 C121.42 60, 48.84 60, 6 60 M194 60 C128.53 60, 63.06 60, 6 60 M6 60 C2 60, 0 58, 0 54 M6 60 C2 60, 0 58, 0 54 M0 54 C0 43.49, 0 32.98, 0 6 M0 54 C0 39.83, 0 25.66, 0 6 M0 6 C0 2, 2 0, 6 0 M0 6 C0 2, 2 0, 6 0" stroke="#ea580c" stroke-width="1.5" fill="none"></path></g><g transform="translate(585.55 372.5) rotate(0 21.44999999999999 9.099999999999994)"><text x="21.450000000000003" y="12.427999999999999" font-family="Segoe UI Emoji" font-size="13px" fill="#1e293b" text-anchor="middle" style="white-space: pre;" direction="ltr" dominant-baseline="alphabetic">AWS S3</text></g><g transform="translate(574 392) rotate(0 33 7)"><text x="33" y="9.559999999999999" font-family="Segoe UI Emoji" font-size="10px" fill="#64748b" text-anchor="middle" style="white-space: pre;" direction="ltr" dominant-baseline="alphabetic">File storage</text></g><g stroke-linecap="round" transform="translate(797 189) rotate(0 80 30)"><path d="M6 0 C40.13 0, 74.26 0, 154 0 C158 0, 160 2, 160 6 C160 21.99, 160 37.97, 160 54 C160 58, 158 60, 154 60 C97.23 60, 40.46 60, 6 60 C2 60, 0 58, 0 54 C0 40.66, 0 27.32, 0 6 C0 2, 2 0, 6 0" stroke="none" stroke-width="0" fill="#f3e8ff"></path><path d="M6 0 C37.72 0, 69.44 0, 154 0 M6 0 C39.79 0, 73.58 0, 154 0 M154 0 C158 0, 160 2, 160 6 M154 0 C158 0, 160 2, 160 6 M160 6 C160 21.71, 160 37.42, 160 54 M160 6 C160 17.43, 160 28.86, 160 54 M160 54 C160 58, 158 60, 154 60 M160 54 C160 58, 158 60, 154 60 M154 60 C109.43 60, 64.86 60, 6 60 M154 60 C98.95 60, 43.91 60, 6 60 M6 60 C2 60, 0 58, 0 54 M6 60 C2 60, 0 58, 0 54 M0 54 C0 44.36, 0 34.72, 0 6 M0 54 C0 39.09, 0 24.18, 0 6 M0 6 C0 2, 2 0, 6 0 M0 6 C0 2, 2 0, 6 0" stroke="#9333ea" stroke-width="1.5" fill="none"></path></g><g transform="translate(830.525 202.5) rotate(0 46.47500000000002 9.099999999999994)"><text x="46.475" y="12.427999999999999" font-family="Segoe UI Emoji" font-size="13px" fill="#1e293b" text-anchor="middle" style="white-space: pre;" direction="ltr" dominant-baseline="alphabetic">Email Service</text></g><g transform="translate(838.5 222) rotate(0 38.5 7)"><text x="38.5" y="9.559999999999999" font-family="Segoe UI Emoji" font-size="10px" fill="#64748b" text-anchor="middle" style="white-space: pre;" direction="ltr" dominant-baseline="alphabetic">SMTP / MailKit</text></g><g stroke-linecap="round" transform="translate(797 329) rotate(0 80 30)"><path d="M6 0 C51.53 0, 97.06 0, 154 0 C158 0, 160 2, 160 6 C160 19.52, 160 33.03, 160 54 C160 58, 158 60, 154 60 C121.74 60, 89.48 60, 6 60 C2 60, 0 58, 0 54 C0 41.31, 0 28.63, 0 6 C0 2, 2 0, 6 0" stroke="none" stroke-width="0" fill="#f3e8ff"></path><path d="M6 0 C38.26 0, 70.53 0, 154 0 M6 0 C64.63 0, 123.25 0, 154 0 M154 0 C158 0, 160 2, 160 6 M154 0 C158 0, 160 2, 160 6 M160 6 C160 22.29, 160 38.58, 160 54 M160 6 C160 20.01, 160 34.02, 160 54 M160 54 C160 58, 158 60, 154 60 M160 54 C160 58, 158 60, 154 60 M154 60 C123.6 60, 93.2 60, 6 60 M154 60 C98.46 60, 42.92 60, 6 60 M6 60 C2 60, 0 58, 0 54 M6 60 C2 60, 0 58, 0 54 M0 54 C0 42.28, 0 30.55, 0 6 M0 54 C0 40.87, 0 27.74, 0 6 M0 6 C0 2, 2 0, 6 0 M0 6 C0 2, 2 0, 6 0" stroke="#9333ea" stroke-width="1.5" fill="none"></path></g><g transform="translate(830.525 342.5) rotate(0 46.47500000000002 9.099999999999994)"><text x="46.475" y="12.427999999999999" font-family="Segoe UI Emoji" font-size="13px" fill="#1e293b" text-anchor="middle" style="white-space: pre;" direction="ltr" dominant-baseline="alphabetic">External APIs</text></g><g transform="translate(827.5 362) rotate(0 49.5 7)"><text x="49.50000000000001" y="9.559999999999999" font-family="Segoe UI Emoji" font-size="10px" fill="#64748b" text-anchor="middle" style="white-space: pre;" direction="ltr" dominant-baseline="alphabetic">HTTP Request steps</text></g><g stroke-linecap="round"><g transform="translate(127 209) rotate(0 50 0)"><path d="M0 0 C16.67 0, 83.33 0, 100 0 M0 0 C16.67 0, 83.33 0, 100 0" stroke="#475569" stroke-width="1.5" fill="none"></path></g><g transform="translate(127 209) rotate(0 50 0)"><path d="M76.51 8.55 C82.96 6.2, 89.4 3.86, 100 0 M76.51 8.55 C85.49 5.28, 94.48 2.01, 100 0" stroke="#475569" stroke-width="1.5" fill="none"></path></g><g transform="translate(127 209) rotate(0 50 0)"><path d="M76.51 -8.55 C82.96 -6.2, 89.4 -3.86, 100 0 M76.51 -8.55 C85.49 -5.28, 94.48 -2.01, 100 0" stroke="#475569" stroke-width="1.5" fill="none"></path></g></g><mask></mask><g transform="translate(157 190) rotate(0 20 7)"><text x="20" y="9.559999999999999" font-family="Segoe UI Emoji" font-size="10px" fill="#64748b" text-anchor="middle" style="white-space: pre;" direction="ltr" dominant-baseline="alphabetic">HTTPS</text></g><g stroke-linecap="round"><g transform="translate(127 429) rotate(0 50 -70)"><path d="M0 0 C16.67 -23.33, 83.33 -116.67, 100 -140 M0 0 C16.67 -23.33, 83.33 -116.67, 100 -140" stroke="#475569" stroke-width="1.5" fill="none"></path></g><g transform="translate(127 429) rotate(0 50 -70)"><path d="M93.3 -115.91 C94.65 -120.74, 95.99 -125.57, 100 -140 M93.3 -115.91 C94.99 -121.99, 96.68 -128.07, 100 -140" stroke="#475569" stroke-width="1.5" fill="none"></path></g><g transform="translate(127 429) rotate(0 50 -70)"><path d="M79.39 -125.85 C83.52 -128.69, 87.65 -131.52, 100 -140 M79.39 -125.85 C84.59 -129.42, 89.79 -132.99, 100 -140" stroke="#475569" stroke-width="1.5" fill="none"></path></g></g><mask></mask><g stroke-linecap="round"><g transform="translate(367 179) rotate(0 0 25)"><path d="M0 0 C0 8.33, 0 41.67, 0 50 M0 0 C0 8.33, 0 41.67, 0 50" stroke="#475569" stroke-width="1.5" fill="none"></path></g><g transform="translate(367 179) rotate(0 0 25)"><path d="M-8.55 26.51 C-6.32 32.62, -4.1 38.74, 0 50 M-8.55 26.51 C-6.07 33.32, -3.59 40.13, 0 50" stroke="#475569" stroke-width="1.5" fill="none"></path></g><g transform="translate(367 179) rotate(0 0 25)"><path d="M8.55 26.51 C6.32 32.62, 4.1 38.74, 0 50 M8.55 26.51 C6.07 33.32, 3.59 40.13, 0 50" stroke="#475569" stroke-width="1.5" fill="none"></path></g></g><mask></mask><g transform="translate(342.25 185) rotate(0 24.75 7)"><text x="24.750000000000004" y="9.559999999999999" font-family="Segoe UI Emoji" font-size="10px" fill="#64748b" text-anchor="middle" style="white-space: pre;" direction="ltr" dominant-baseline="alphabetic">REST / WS</text></g><g stroke-linecap="round"><g transform="translate(367 289) rotate(0 0 35)"><path d="M0 0 C0 11.67, 0 58.33, 0 70 M0 0 C0 11.67, 0 58.33, 0 70" stroke="#475569" stroke-width="1.5" fill="none"></path></g><g transform="translate(367 289) rotate(0 0 35)"><path d="M-8.55 46.51 C-6.76 51.43, -4.97 56.35, 0 70 M-8.55 46.51 C-6.53 52.07, -4.5 57.63, 0 70" stroke="#475569" stroke-width="1.5" fill="none"></path></g><g transform="translate(367 289) rotate(0 0 35)"><path d="M8.55 46.51 C6.76 51.43, 4.97 56.35, 0 70 M8.55 46.51 C6.53 52.07, 4.5 57.63, 0 70" stroke="#475569" stroke-width="1.5" fill="none"></path></g></g><mask></mask><g stroke-linecap="round"><g transform="translate(367 289) rotate(0 0 80)"><path d="M0 0 C0 26.67, 0 133.33, 0 160 M0 0 C0 26.67, 0 133.33, 0 160" stroke="#475569" stroke-width="1.5" fill="none"></path></g><g transform="translate(367 289) rotate(0 0 80)"><path d="M-8.55 136.51 C-5.51 144.87, -2.47 153.22, 0 160 M-8.55 136.51 C-5.96 143.62, -3.38 150.73, 0 160" stroke="#475569" stroke-width="1.5" fill="none"></path></g><g transform="translate(367 289) rotate(0 0 80)"><path d="M8.55 136.51 C5.51 144.87, 2.47 153.22, 0 160 M8.55 136.51 C5.96 143.62, 3.38 150.73, 0 160" stroke="#475569" stroke-width="1.5" fill="none"></path></g></g><mask></mask><g stroke-linecap="round"><g transform="translate(467 259) rotate(0 20 0)"><path d="M0 0 C6.67 0, 33.33 0, 40 0 M0 0 C6.67 0, 33.33 0, 40 0" stroke="#475569" stroke-width="1.5" fill="none"></path></g><g transform="translate(467 259) rotate(0 20 0)"><path d="M21.21 6.84 C26.85 4.79, 32.49 2.73, 40 0 M21.21 6.84 C26.28 4.99, 31.36 3.15, 40 0" stroke="#475569" stroke-width="1.5" fill="none"></path></g><g transform="translate(467 259) rotate(0 20 0)"><path d="M21.21 -6.84 C26.85 -4.79, 32.49 -2.73, 40 0 M21.21 -6.84 C26.28 -4.99, 31.36 -3.15, 40 0" stroke="#475569" stroke-width="1.5" fill="none"></path></g></g><mask></mask><g stroke-linecap="round"><g transform="translate(607 289) rotate(0 0 35)"><path d="M0 0 C0 11.67, 0 58.33, 0 70 M0 0 C0 11.67, 0 58.33, 0 70" stroke="#475569" stroke-width="1.5" fill="none"></path></g><g transform="translate(607 289) rotate(0 0 35)"><path d="M-8.55 46.51 C-6.31 52.65, -4.08 58.8, 0 70 M-8.55 46.51 C-5.68 54.4, -2.8 62.3, 0 70" stroke="#475569" stroke-width="1.5" fill="none"></path></g><g transform="translate(607 289) rotate(0 0 35)"><path d="M8.55 46.51 C6.31 52.65, 4.08 58.8, 0 70 M8.55 46.51 C5.68 54.4, 2.8 62.3, 0 70" stroke="#475569" stroke-width="1.5" fill="none"></path></g></g><mask></mask><g stroke-linecap="round"><g transform="translate(707 244) rotate(0 45 -12.5)"><path d="M0 0 C15 -4.17, 75 -20.83, 90 -25 M0 0 C15 -4.17, 75 -20.83, 90 -25" stroke="#475569" stroke-width="1.5" fill="none"></path></g><g transform="translate(707 244) rotate(0 45 -12.5)"><path d="M69.65 -10.47 C76.05 -15.04, 82.45 -19.61, 90 -25 M69.65 -10.47 C74.85 -14.18, 80.05 -17.89, 90 -25" stroke="#475569" stroke-width="1.5" fill="none"></path></g><g transform="translate(707 244) rotate(0 45 -12.5)"><path d="M65.08 -26.95 C72.91 -26.34, 80.75 -25.72, 90 -25 M65.08 -26.95 C71.44 -26.45, 77.81 -25.95, 90 -25" stroke="#475569" stroke-width="1.5" fill="none"></path></g></g><mask></mask><g stroke-linecap="round"><g transform="translate(707 269) rotate(0 45 40)"><path d="M0 0 C15 13.33, 75 66.67, 90 80 M0 0 C15 13.33, 75 66.67, 90 80" stroke="#475569" stroke-width="1.5" fill="none"></path></g><g transform="translate(707 269) rotate(0 45 40)"><path d="M66.76 70.78 C71.54 72.68, 76.31 74.57, 90 80 M66.76 70.78 C72.72 73.15, 78.68 75.51, 90 80" stroke="#475569" stroke-width="1.5" fill="none"></path></g><g transform="translate(707 269) rotate(0 45 40)"><path d="M78.12 58 C80.56 62.52, 83 67.04, 90 80 M78.12 58 C81.17 63.64, 84.22 69.29, 90 80" stroke="#475569" stroke-width="1.5" fill="none"></path></g></g><mask></mask></svg>