<svg version="1.1" xmlns="http://www.w3.org/2000/svg" viewBox="0 0 967 639" width="967" height="639"><!-- svg-source:excalidraw --><metadata></metadata><defs><style class="style-fonts">
      </style></defs><rect x="0" y="0" width="967" height="639" fill="#f8fafc"></rect><g transform="translate(338.5 10) rotate(0 148.5 12.600000000000001)"><text x="148.5" y="17.208" font-family="Segoe UI Emoji" font-size="18px" fill="#1e293b" text-anchor="middle" style="white-space: pre;" direction="ltr" dominant-baseline="alphabetic">Axis Platform — System Context</text></g><g stroke-linecap="round" transform="translate(67 189) rotate(0 20 20)"><path d="M10 0 C16.14 0, 22.28 0, 30 0 C36.67 0, 40 3.33, 40 10 C40 14.94, 40 19.89, 40 30 C40 36.67, 36.67 40, 30 40 C23.04 40, 16.09 40, 10 40 C3.33 40, 0 36.67, 0 30 C0 22.25, 0 14.51, 0 10 C0 3.33, 3.33 0, 10 0" stroke="none" stroke-width="0" fill="#e0f2fe"></path><path d="M10 0 C14.42 0, 18.84 0, 30 0 M10 0 C15.98 0, 21.96 0, 30 0 M30 0 C36.67 0, 40 3.33, 40 10 M30 0 C36.67 0, 40 3.33, 40 10 M40 10 C40 14.87, 40 19.73, 40 30 M40 10 C40 17.28, 40 24.56, 40 30 M40 30 C40 36.67, 36.67 40, 30 40 M40 30 C40 36.67, 36.67 40, 30 40 M30 40 C25.1 40, 20.2 40, 10 40 M30 40 C23.21 40, 16.41 40, 10 40 M10 40 C3.33 40, 0 36.67, 0 30 M10 40 C3.33 40, 0 36.67, 0 30 M0 30 C0 23.66, 0 17.32, 0 10 M0 30 C0 24.36, 0 18.72, 0 10 M0 10 C0 3.33, 3.33 0, 10 0 M0 10 C0 3.33, 3.33 0, 10 0" stroke="#0284c7" stroke-width="1.5" fill="none"></path></g><g transform="translate(67 200) rotate(0 20 12.599999999999994)"><text x="20" y="17.208" font-family="Segoe UI Emoji" font-size="18px" fill="#1e293b" text-anchor="middle" style="white-space: pre;" direction="ltr" dominant-baseline="alphabetic">👤</text></g><g transform="translate(57.3 235) rotate(0 29.699999999999996 8.400000000000006)"><text x="29.700000000000003" y="11.471999999999998" font-family="Segoe UI Emoji" font-size="12px" fill="#1e293b" text-anchor="middle" style="white-space: pre;" direction="ltr" dominant-baseline="alphabetic">Org Admin</text></g><g transform="translate(15.5 252) rotate(0 71.5 7)"><text x="71.5" y="9.559999999999999" font-family="Segoe UI Emoji" font-size="10px" fill="#64748b" text-anchor="middle" style="white-space: pre;" direction="ltr" dominant-baseline="alphabetic">[builds workflows &amp; forms]</text></g><g stroke-linecap="round" transform="translate(67 409) rotate(0 20 20)"><path d="M10 0 C14.09 0, 18.18 0, 30 0 C36.67 0, 40 3.33, 40 10 C40 17.69, 40 25.39, 40 30 C40 36.67, 36.67 40, 30 40 C24.03 40, 18.06 40, 10 40 C3.33 40, 0 36.67, 0 30 C0 25.54, 0 21.08, 0 10 C0 3.33, 3.33 0, 10 0" stroke="none" stroke-width="0" fill="#e0f2fe"></path><path d="M10 0 C16.46 0, 22.93 0, 30 0 M10 0 C15.35 0, 20.7 0, 30 0 M30 0 C36.67 0, 40 3.33, 40 10 M30 0 C36.67 0, 40 3.33, 40 10 M40 10 C40 16.92, 40 23.83, 40 30 M40 10 C40 15.52, 40 21.04, 40 30 M40 30 C40 36.67, 36.67 40, 30 40 M40 30 C40 36.67, 36.67 40, 30 40 M30 40 C22.23 40, 14.47 40, 10 40 M30 40 C25.63 40, 21.26 40, 10 40 M10 40 C3.33 40, 0 36.67, 0 30 M10 40 C3.33 40, 0 36.67, 0 30 M0 30 C0 25.15, 0 20.29, 0 10 M0 30 C0 24.94, 0 19.89, 0 10 M0 10 C0 3.33, 3.33 0, 10 0 M0 10 C0 3.33, 3.33 0, 10 0" stroke="#0284c7" stroke-width="1.5" fill="none"></path></g><g transform="translate(67 420) rotate(0 20 12.599999999999994)"><text x="20" y="17.208" font-family="Segoe UI Emoji" font-size="18px" fill="#1e293b" text-anchor="middle" style="white-space: pre;" direction="ltr" dominant-baseline="alphabetic">👤</text></g><g transform="translate(60.599999999999994 455) rotate(0 26.400000000000006 8.400000000000006)"><text x="26.400000000000002" y="11.471999999999998" font-family="Segoe UI Emoji" font-size="12px" fill="#1e293b" text-anchor="middle" style="white-space: pre;" direction="ltr" dominant-baseline="alphabetic">End User</text></g><g transform="translate(10 472) rotate(0 77 7)"><text x="77" y="9.559999999999999" font-family="Segoe UI Emoji" font-size="10px" fill="#64748b" text-anchor="middle" style="white-space: pre;" direction="ltr" dominant-baseline="alphabetic">[submits forms, views pages]</text></g><g stroke-linecap="round" transform="translate(227 69) rotate(0 260 280)"><path d="M6 0 C180.18 0, 354.36 0, 514 0 C518 0, 520 2, 520 6 C520 144.31, 520 282.62, 520 554 C520 558, 518 560, 514 560 C315.36 560, 116.73 560, 6 560 C2 560, 0 558, 0 554 C0 381.98, 0 209.96, 0 6 C0 2, 2 0, 6 0" stroke="none" stroke-width="0" fill="#f0f9ff"></path><path d="M6 0 C180.78 0, 355.55 0, 514 0 M6 0 C120.73 0, 235.47 0, 514 0 M514 0 C518 0, 520 2, 520 6 M514 0 C518 0, 520 2, 520 6 M520 6 C520 120.48, 520 234.95, 520 554 M520 6 C520 151.18, 520 296.35, 520 554 M520 554 C520 558, 518 560, 514 560 M520 554 C520 558, 518 560, 514 560 M514 560 C322.23 560, 130.47 560, 6 560 M514 560 C353.97 560, 193.93 560, 6 560 M6 560 C2 560, 0 558, 0 554 M6 560 C2 560, 0 558, 0 554 M0 554 C0 365.4, 0 176.8, 0 6 M0 554 C0 366.1, 0 178.19, 0 6 M0 6 C0 2, 2 0, 6 0 M0 6 C0 2, 2 0, 6 0" stroke="#3b82f6" stroke-width="1.5" fill="none"></path></g><g transform="translate(436.95 342) rotate(0 50.04999999999998 9.800000000000011)"><text x="50.050000000000004" y="13.383999999999999" font-family="Segoe UI Emoji" font-size="14px" fill="#3b82f6" text-anchor="middle" style="white-space: pre;" direction="ltr" dominant-baseline="alphabetic">Axis Platform</text></g><g stroke-linecap="round" transform="translate(267 119) rotate(0 100 30)"><path d="M6 0 C68.77 0, 131.54 0, 194 0 C198 0, 200 2, 200 6 C200 16.69, 200 27.38, 200 54 C200 58, 198 60, 194 60 C132.32 60, 70.65 60, 6 60 C2 60, 0 58, 0 54 C0 43.7, 0 33.39, 0 6 C0 2, 2 0, 6 0" stroke="none" stroke-width="0" fill="#dbeafe"></path><path d="M6 0 C72.79 0, 139.58 0, 194 0 M6 0 C67.53 0, 129.06 0, 194 0 M194 0 C198 0, 200 2, 200 6 M194 0 C198 0, 200 2, 200 6 M200 6 C200 23.87, 200 41.74, 200 54 M200 6 C200 22.66, 200 39.32, 200 54 M200 54 C200 58, 198 60, 194 60 M200 54 C200 58, 198 60, 194 60 M194 60 C125.48 60, 56.96 60, 6 60 M194 60 C147.17 60, 100.35 60, 6 60 M6 60 C2 60, 0 58, 0 54 M6 60 C2 60, 0 58, 0 54 M0 54 C0 36.4, 0 18.79, 0 6 M0 54 C0 41.69, 0 29.38, 0 6 M0 6 C0 2, 2 0, 6 0 M0 6 C0 2, 2 0, 6 0" stroke="#3b82f6" stroke-width="1.5" fill="none"></path></g><g transform="translate(313.375 132.5) rotate(0 53.625 9.099999999999994)"><text x="53.62500000000001" y="12.427999999999999" font-family="Segoe UI Emoji" font-size="13px" fill="#1e293b" text-anchor="middle" style="white-space: pre;" direction="ltr" dominant-baseline="alphabetic">Web Application</text></g><g transform="translate(309.25 152) rotate(0 57.75 7)"><text x="57.75000000000001" y="9.559999999999999" font-family="Segoe UI Emoji" font-size="10px" fill="#64748b" text-anchor="middle" style="white-space: pre;" direction="ltr" dominant-baseline="alphabetic">React 18 + TypeScript</text></g><g stroke-linecap="round" transform="translate(267 229) rotate(0 100 30)"><path d="M6 0 C72.37 0, 138.74 0, 194 0 C198 0, 200 2, 200 6 C200 22.28, 200 38.57, 200 54 C200 58, 198 60, 194 60 C138.26 60, 82.52 60, 6 60 C2 60, 0 58, 0 54 C0 38.1, 0 22.21, 0 6 C0 2, 2 0, 6 0" stroke="none" stroke-width="0" fill="#dbeafe"></path><path d="M6 0 C78.84 0, 151.69 0, 194 0 M6 0 C70.32 0, 134.64 0, 194 0 M194 0 C198 0, 200 2, 200 6 M194 0 C198 0, 200 2, 200 6 M200 6 C200 17.82, 200 29.63, 200 54 M200 6 C200 18.9, 200 31.79, 200 54 M200 54 C200 58, 198 60, 194 60 M200 54 C200 58, 198 60, 194 60 M194 60 C129.65 60, 65.31 60, 6 60 M194 60 C136.14 60, 78.27 60, 6 60 M6 60 C2 60, 0 58, 0 54 M6 60 C2 60, 0 58, 0 54 M0 54 C0 37.27, 0 20.54, 0 6 M0 54 C0 36, 0 17.99, 0 6 M0 6 C0 2, 2 0, 6 0 M0 6 C0 2, 2 0, 6 0" stroke="#3b82f6" stroke-width="1.5" fill="none"></path></g><g transform="translate(331.25 242.5) rotate(0 35.75 9.099999999999994)"><text x="35.75" y="12.427999999999999" font-family="Segoe UI Emoji" font-size="13px" fill="#1e293b" text-anchor="middle" style="white-space: pre;" direction="ltr" dominant-baseline="alphabetic">API Server</text></g><g transform="translate(276.25 262) rotate(0 90.75 7)"><text x="90.75000000000001" y="9.559999999999999" font-family="Segoe UI Emoji" font-size="10px" fill="#64748b" text-anchor="middle" style="white-space: pre;" direction="ltr" dominant-baseline="alphabetic">ASP.NET Core 8 · Modular Monolith</text></g><g stroke-linecap="round" transform="translate(267 359) rotate(0 100 30)"><path d="M6 0 C74.08 0, 142.17 0, 194 0 C198 0, 200 2, 200 6 C200 17.07, 200 28.13, 200 54 C200 58, 198 60, 194 60 C148.13 60, 102.25 60, 6 60 C2 60, 0 58, 0 54 C0 36.1, 0 18.19, 0 6 C0 2, 2 0, 6 0" stroke="none" stroke-width="0" fill="#ffedd5"></path><path d="M6 0 C50 0, 93.99 0, 194 0 M6 0 C62.21 0, 118.42 0, 194 0 M194 0 C198 0, 200 2, 200 6 M194 0 C198 0, 200 2, 200 6 M200 6 C200 21.61, 200 37.22, 200 54 M200 6 C200 16.82, 200 27.64, 200 54 M200 54 C200 58, 198 60, 194 60 M200 54 C200 58, 198 60, 194 60 M194 60 C143.64 60, 93.27 60, 6 60 M194 60 C129.67 60, 65.35 60, 6 60 M6 60 C2 60, 0 58, 0 54 M6 60 C2 60, 0 58, 0 54 M0 54 C0 42.87, 0 31.73, 0 6 M0 54 C0 39.87, 0 25.74, 0 6 M0 6 C0 2, 2 0, 6 0 M0 6 C0 2, 2 0, 6 0" stroke="#ea580c" stroke-width="1.5" fill="none"></path></g><g transform="translate(320.525 372.5) rotate(0 46.474999999999994 9.099999999999994)"><text x="46.475" y="12.427999999999999" font-family="Segoe UI Emoji" font-size="13px" fill="#1e293b" text-anchor="middle" style="white-space: pre;" direction="ltr" dominant-baseline="alphabetic">PostgreSQL 16</text></g><g transform="translate(312 392) rotate(0 55 7)"><text x="55.00000000000001" y="9.559999999999999" font-family="Segoe UI Emoji" font-size="10px" fill="#64748b" text-anchor="middle" style="white-space: pre;" direction="ltr" dominant-baseline="alphabetic">Per-module databases</text></g><g stroke-linecap="round" transform="translate(267 449) rotate(0 100 30)"><path d="M6 0 C52.43 0, 98.87 0, 194 0 C198 0, 200 2, 200 6 C200 17.19, 200 28.38, 200 54 C200 58, 198 60, 194 60 C136.81 60, 79.62 60, 6 60 C2 60, 0 58, 0 54 C0 41.75, 0 29.51, 0 6 C0 2, 2 0, 6 0" stroke="none" stroke-width="0" fill="#ffedd5"></path><path d="M6 0 C70.46 0, 134.91 0, 194 0 M6 0 C71.33 0, 136.66 0, 194 0 M194 0 C198 0, 200 2, 200 6 M194 0 C198 0, 200 2, 200 6 M200 6 C200 23.8, 200 41.6, 200 54 M200 6 C200 17.6, 200 29.19, 200 54 M200 54 C200 58, 198 60, 194 60 M200 54 C200 58, 198 60, 194 60 M194 60 C151.83 60, 109.67 60, 6 60 M194 60 C133.34 60, 72.69 60, 6 60 M6 60 C2 60, 0 58, 0 54 M6 60 C2 60, 0 58, 0 54 M0 54 C0 37.69, 0 21.39, 0 6 M0 54 C0 39.96, 0 25.92, 0 6 M0 6 C0 2, 2 0, 6 0 M0 6 C0 2, 2 0, 6 0" stroke="#ea580c" stroke-width="1.5" fill="none"></path></g><g transform="translate(341.975 462.5) rotate(0 25.025000000000006 9.099999999999994)"><text x="25.025000000000002" y="12.427999999999999" font-family="Segoe UI Emoji" font-size="13px" fill="#1e293b" text-anchor="middle" style="white-space: pre;" direction="ltr" dominant-baseline="alphabetic">Redis 7</text></g><g transform="translate(325.75 482) rotate(0 41.25 7)"><text x="41.25" y="9.559999999999999" font-family="Segoe UI Emoji" font-size="10px" fill="#64748b" text-anchor="middle" style="white-space: pre;" direction="ltr" dominant-baseline="alphabetic">Cache · Session</text></g><g stroke-linecap="round" transform="translate(507 229) rotate(0 100 30)"><path d="M6 0 C59.1 0, 112.2 0, 194 0 C198 0, 200 2, 200 6 C200 20.8, 200 35.61, 200 54 C200 58, 198 60, 194 60 C143.9 60, 93.81 60, 6 60 C2 60, 0 58, 0 54 C0 40.77, 0 27.53, 0 6 C0 2, 2 0, 6 0" stroke="none" stroke-width="0" fill="#dcfce7"></path><path d="M6 0 C45.09 0, 84.18 0, 194 0 M6 0 C65.03 0, 124.06 0, 194 0 M194 0 C198 0, 200 2, 200 6 M194 0 C198 0, 200 2, 200 6 M200 6 C200 19.52, 200 33.04, 200 54 M200 6 C200 24.91, 200 43.82, 200 54 M200 54 C200 58, 198 60, 194 60 M200 54 C200 58, 198 60, 194 60 M194 60 C146.62 60, 99.23 60, 6 60 M194 60 C139.43 60, 84.85 60, 6 60 M6 60 C2 60, 0 58, 0 54 M6 60 C2 60, 0 58, 0 54 M0 54 C0 38.11, 0 22.23, 0 6 M0 54 C0 41, 0 27.99, 0 6 M0 6 C0 2, 2 0, 6 0 M0 6 C0 2, 2 0, 6 0" stroke="#16a34a" stroke-width="1.5" fill="none"></path></g><g transform="translate(574.825 242.5) rotate(0 32.17500000000001 9.099999999999994)"><text x="32.175000000000004" y="12.427999999999999" font-family="Segoe UI Emoji" font-size="13px" fill="#1e293b" text-anchor="middle" style="white-space: pre;" direction="ltr" dominant-baseline="alphabetic">Wolverine</text></g><g transform="translate(535.5 262) rotate(0 71.5 7)"><text x="71.5" y="9.559999999999999" font-family="Segoe UI Emoji" font-size="10px" fill="#64748b" text-anchor="middle" style="white-space: pre;" direction="ltr" dominant-baseline="alphabetic">Event bus · Durable outbox</text></g><g stroke-linecap="round" transform="translate(507 359) rotate(0 100 30)"><path d="M6 0 C75.15 0, 144.3 0, 194 0 C198 0, 200 2, 200 6 C200 22.58, 200 39.16, 200 54 C200 58, 198 60, 194 60 C119.41 60, 44.82 60, 6 60 C2 60, 0 58, 0 54 C0 42.73, 0 31.46, 0 6 C0 2, 2 0, 6 0" stroke="none" stroke-width="0" fill="#ffedd5"></path><path d="M6 0 C64.96 0, 123.93 0, 194 0 M6 0 C54.82 0, 103.64 0, 194 0 M194 0 C198 0, 200 2, 200 6 M194 0 C198 0, 200 2, 200 6 M200 6 C200 16.72, 200 27.44, 200 54 M200 6 C200 22.22, 200 38.44, 200 54 M200 54 C200 58, 198 60, 194 60 M200 54 C200 58, 198 60, 194 60 M194 60 C124.65 60, 55.31 60, 6 60 M194 60 C136.41 60, 78.83 60, 6 60 M6 60 C2 60, 0 58, 0 54 M6 60 C2 60, 0 58, 0 54 M0 54 C0 36.44, 0 18.87, 0 6 M0 54 C0 41.49, 0 28.99, 0 6 M0 6 C0 2, 2 0, 6 0 M0 6 C0 2, 2 0, 6 0" stroke="#ea580c" stroke-width="1.5" fill="none"></path></g><g transform="translate(585.55 372.5) rotate(0 21.44999999999999 9.099999999999994)"><text x="21.450000000000003" y="12.427999999999999" font-family="Segoe UI Emoji" font-size="13px" fill="#1e293b" text-anchor="middle" style="white-space: pre;" direction="ltr" dominant-baseline="alphabetic">AWS S3</text></g><g transform="translate(574 392) rotate(0 33 7)"><text x="33" y="9.559999999999999" font-family="Segoe UI Emoji" font-size="10px" fill="#64748b" text-anchor="middle" style="white-space: pre;" direction="ltr" dominant-baseline="alphabetic">File storage</text></g><g stroke-linecap="round" transform="translate(797 189) rotate(0 80 30)"><path d="M6 0 C39.77 0, 73.54 0, 154 0 C158 0, 160 2, 160 6 C160 18.8, 160 31.59, 160 54 C160 58, 158 60, 154 60 C96.4 60, 38.8 60, 6 60 C2 60, 0 58, 0 54 C0 40.31, 0 26.62, 0 6 C0 2, 2 0, 6 0" stroke="none" stroke-width="0" fill="#f3e8ff"></path><path d="M6 0 C62.69 0, 119.39 0, 154 0 M6 0 C36.22 0, 66.43 0, 154 0 M154 0 C158 0, 160 2, 160 6 M154 0 C158 0, 160 2, 160 6 M160 6 C160 22.63, 160 39.26, 160 54 M160 6 C160 20.67, 160 35.34, 160 54 M160 54 C160 58, 158 60, 154 60 M160 54 C160 58, 158 60, 154 60 M154 60 C119.92 60, 85.84 60, 6 60 M154 60 C116.8 60, 79.61 60, 6 60 M6 60 C2 60, 0 58, 0 54 M6 60 C2 60, 0 58, 0 54 M0 54 C0 37.88, 0 21.76, 0 6 M0 54 C0 38.83, 0 23.67, 0 6 M0 6 C0 2, 2 0, 6 0 M0 6 C0 2, 2 0, 6 0" stroke="#9333ea" stroke-width="1.5" fill="none"></path></g><g transform="translate(830.525 202.5) rotate(0 46.47500000000002 9.099999999999994)"><text x="46.475" y="12.427999999999999" font-family="Segoe UI Emoji" font-size="13px" fill="#1e293b" text-anchor="middle" style="white-space: pre;" direction="ltr" dominant-baseline="alphabetic">Email Service</text></g><g transform="translate(838.5 222) rotate(0 38.5 7)"><text x="38.5" y="9.559999999999999" font-family="Segoe UI Emoji" font-size="10px" fill="#64748b" text-anchor="middle" style="white-space: pre;" direction="ltr" dominant-baseline="alphabetic">SMTP / MailKit</text></g><g stroke-linecap="round" transform="translate(797 329) rotate(0 80 30)"><path d="M6 0 C40.12 0, 74.23 0, 154 0 C158 0, 160 2, 160 6 C160 18.63, 160 31.27, 160 54 C160 58, 158 60, 154 60 C113.17 60, 72.33 60, 6 60 C2 60, 0 58, 0 54 C0 34.84, 0 15.69, 0 6 C0 2, 2 0, 6 0" stroke="none" stroke-width="0" fill="#f3e8ff"></path><path d="M6 0 C62.6 0, 119.19 0, 154 0 M6 0 C36.35 0, 66.71 0, 154 0 M154 0 C158 0, 160 2, 160 6 M154 0 C158 0, 160 2, 160 6 M160 6 C160 21.41, 160 36.82, 160 54 M160 6 C160 19.31, 160 32.63, 160 54 M160 54 C160 58, 158 60, 154 60 M160 54 C160 58, 158 60, 154 60 M154 60 C112.65 60, 71.3 60, 6 60 M154 60 C112.82 60, 71.63 60, 6 60 M6 60 C2 60, 0 58, 0 54 M6 60 C2 60, 0 58, 0 54 M0 54 C0 38.91, 0 23.81, 0 6 M0 54 C0 41.83, 0 29.67, 0 6 M0 6 C0 2, 2 0, 6 0 M0 6 C0 2, 2 0, 6 0" stroke="#9333ea" stroke-width="1.5" fill="none"></path></g><g transform="translate(830.525 342.5) rotate(0 46.47500000000002 9.099999999999994)"><text x="46.475" y="12.427999999999999" font-family="Segoe UI Emoji" font-size="13px" fill="#1e293b" text-anchor="middle" style="white-space: pre;" direction="ltr" dominant-baseline="alphabetic">External APIs</text></g><g transform="translate(827.5 362) rotate(0 49.5 7)"><text x="49.50000000000001" y="9.559999999999999" font-family="Segoe UI Emoji" font-size="10px" fill="#64748b" text-anchor="middle" style="white-space: pre;" direction="ltr" dominant-baseline="alphabetic">HTTP Request steps</text></g><g stroke-linecap="round"><g transform="translate(127 209) rotate(0 50 0)"><path d="M0 0 C16.67 0, 83.33 0, 100 0 M0 0 C16.67 0, 83.33 0, 100 0" stroke="#475569" stroke-width="1.5" fill="none"></path></g><g transform="translate(127 209) rotate(0 50 0)"><path d="M76.51 8.55 C82.88 6.23, 89.25 3.91, 100 0 M76.51 8.55 C84.17 5.76, 91.83 2.98, 100 0" stroke="#475569" stroke-width="1.5" fill="none"></path></g><g transform="translate(127 209) rotate(0 50 0)"><path d="M76.51 -8.55 C82.88 -6.23, 89.25 -3.91, 100 0 M76.51 -8.55 C84.17 -5.76, 91.83 -2.98, 100 0" stroke="#475569" stroke-width="1.5" fill="none"></path></g></g><mask></mask><g transform="translate(157 190) rotate(0 20 7)"><text x="20" y="9.559999999999999" font-family="Segoe UI Emoji" font-size="10px" fill="#64748b" text-anchor="middle" style="white-space: pre;" direction="ltr" dominant-baseline="alphabetic">HTTPS</text></g><g stroke-linecap="round"><g transform="translate(127 429) rotate(0 50 -70)"><path d="M0 0 C16.67 -23.33, 83.33 -116.67, 100 -140 M0 0 C16.67 -23.33, 83.33 -116.67, 100 -140" stroke="#475569" stroke-width="1.5" fill="none"></path></g><g transform="translate(127 429) rotate(0 50 -70)"><path d="M93.3 -115.91 C94.92 -121.74, 96.54 -127.57, 100 -140 M93.3 -115.91 C95.41 -123.51, 97.53 -131.1, 100 -140" stroke="#475569" stroke-width="1.5" fill="none"></path></g><g transform="translate(127 429) rotate(0 50 -70)"><path d="M79.39 -125.85 C84.37 -129.28, 89.36 -132.7, 100 -140 M79.39 -125.85 C85.89 -130.31, 92.38 -134.77, 100 -140" stroke="#475569" stroke-width="1.5" fill="none"></path></g></g><mask></mask><g stroke-linecap="round"><g transform="translate(367 179) rotate(0 0 25)"><path d="M0 0 C0 8.33, 0 41.67, 0 50 M0 0 C0 8.33, 0 41.67, 0 50" stroke="#475569" stroke-width="1.5" fill="none"></path></g><g transform="translate(367 179) rotate(0 0 25)"><path d="M-8.55 26.51 C-6.74 31.48, -4.93 36.46, 0 50 M-8.55 26.51 C-5.82 34.02, -3.08 41.53, 0 50" stroke="#475569" stroke-width="1.5" fill="none"></path></g><g transform="translate(367 179) rotate(0 0 25)"><path d="M8.55 26.51 C6.74 31.48, 4.93 36.46, 0 50 M8.55 26.51 C5.82 34.02, 3.08 41.53, 0 50" stroke="#475569" stroke-width="1.5" fill="none"></path></g></g><mask></mask><g transform="translate(342.25 185) rotate(0 24.75 7)"><text x="24.750000000000004" y="9.559999999999999" font-family="Segoe UI Emoji" font-size="10px" fill="#64748b" text-anchor="middle" style="white-space: pre;" direction="ltr" dominant-baseline="alphabetic">REST / WS</text></g><g stroke-linecap="round"><g transform="translate(367 289) rotate(0 0 35)"><path d="M0 0 C0 11.67, 0 58.33, 0 70 M0 0 C0 11.67, 0 58.33, 0 70" stroke="#475569" stroke-width="1.5" fill="none"></path></g><g transform="translate(367 289) rotate(0 0 35)"><path d="M-8.55 46.51 C-5.39 55.18, -2.24 63.85, 0 70 M-8.55 46.51 C-6.67 51.68, -4.78 56.86, 0 70" stroke="#475569" stroke-width="1.5" fill="none"></path></g><g transform="translate(367 289) rotate(0 0 35)"><path d="M8.55 46.51 C5.39 55.18, 2.24 63.85, 0 70 M8.55 46.51 C6.67 51.68, 4.78 56.86, 0 70" stroke="#475569" stroke-width="1.5" fill="none"></path></g></g><mask></mask><g stroke-linecap="round"><g transform="translate(367 289) rotate(0 0 80)"><path d="M0 0 C0 26.67, 0 133.33, 0 160 M0 0 C0 26.67, 0 133.33, 0 160" stroke="#475569" stroke-width="1.5" fill="none"></path></g><g transform="translate(367 289) rotate(0 0 80)"><path d="M-8.55 136.51 C-6.74 141.49, -4.92 146.47, 0 160 M-8.55 136.51 C-6.46 142.24, -4.37 147.98, 0 160" stroke="#475569" stroke-width="1.5" fill="none"></path></g><g transform="translate(367 289) rotate(0 0 80)"><path d="M8.55 136.51 C6.74 141.49, 4.92 146.47, 0 160 M8.55 136.51 C6.46 142.24, 4.37 147.98, 0 160" stroke="#475569" stroke-width="1.5" fill="none"></path></g></g><mask></mask><g stroke-linecap="round"><g transform="translate(467 259) rotate(0 20 0)"><path d="M0 0 C6.67 0, 33.33 0, 40 0 M0 0 C6.67 0, 33.33 0, 40 0" stroke="#475569" stroke-width="1.5" fill="none"></path></g><g transform="translate(467 259) rotate(0 20 0)"><path d="M21.21 6.84 C27 4.73, 32.8 2.62, 40 0 M21.21 6.84 C28.33 4.25, 35.45 1.66, 40 0" stroke="#475569" stroke-width="1.5" fill="none"></path></g><g transform="translate(467 259) rotate(0 20 0)"><path d="M21.21 -6.84 C27 -4.73, 32.8 -2.62, 40 0 M21.21 -6.84 C28.33 -4.25, 35.45 -1.66, 40 0" stroke="#475569" stroke-width="1.5" fill="none"></path></g></g><mask></mask><g stroke-linecap="round"><g transform="translate(607 289) rotate(0 0 35)"><path d="M0 0 C0 11.67, 0 58.33, 0 70 M0 0 C0 11.67, 0 58.33, 0 70" stroke="#475569" stroke-width="1.5" fill="none"></path></g><g transform="translate(607 289) rotate(0 0 35)"><path d="M-8.55 46.51 C-5.91 53.75, -3.28 61, 0 70 M-8.55 46.51 C-6.16 53.08, -3.77 59.65, 0 70" stroke="#475569" stroke-width="1.5" fill="none"></path></g><g transform="translate(607 289) rotate(0 0 35)"><path d="M8.55 46.51 C5.91 53.75, 3.28 61, 0 70 M8.55 46.51 C6.16 53.08, 3.77 59.65, 0 70" stroke="#475569" stroke-width="1.5" fill="none"></path></g></g><mask></mask><g stroke-linecap="round"><g transform="translate(707 244) rotate(0 45 -12.5)"><path d="M0 0 C15 -4.17, 75 -20.83, 90 -25 M0 0 C15 -4.17, 75 -20.83, 90 -25" stroke="#475569" stroke-width="1.5" fill="none"></path></g><g transform="translate(707 244) rotate(0 45 -12.5)"><path d="M69.65 -10.47 C77.54 -16.11, 85.43 -21.74, 90 -25 M69.65 -10.47 C73.77 -13.42, 77.9 -16.36, 90 -25" stroke="#475569" stroke-width="1.5" fill="none"></path></g><g transform="translate(707 244) rotate(0 45 -12.5)"><path d="M65.08 -26.95 C74.74 -26.19, 84.41 -25.44, 90 -25 M65.08 -26.95 C70.12 -26.56, 75.17 -26.16, 90 -25" stroke="#475569" stroke-width="1.5" fill="none"></path></g></g><mask></mask><g stroke-linecap="round"><g transform="translate(707 269) rotate(0 45 40)"><path d="M0 0 C15 13.33, 75 66.67, 90 80 M0 0 C15 13.33, 75 66.67, 90 80" stroke="#475569" stroke-width="1.5" fill="none"></path></g><g transform="translate(707 269) rotate(0 45 40)"><path d="M66.76 70.78 C71.44 72.64, 76.11 74.49, 90 80 M66.76 70.78 C74.72 73.94, 82.67 77.09, 90 80" stroke="#475569" stroke-width="1.5" fill="none"></path></g><g transform="translate(707 269) rotate(0 45 40)"><path d="M78.12 58 C80.51 62.43, 82.9 66.86, 90 80 M78.12 58 C82.19 65.53, 86.25 73.06, 90 80" stroke="#475569" stroke-width="1.5" fill="none"></path></g></g><mask></mask></svg>