<svg version="1.1" xmlns="http://www.w3.org/2000/svg" viewBox="0 0 960 606" width="960" height="606"><!-- svg-source:excalidraw --><metadata></metadata><defs><style class="style-fonts">
      </style></defs><rect x="0" y="0" width="960" height="606" fill="#f8fafc"></rect><g transform="translate(376.4 10) rotate(0 193.60000000000002 11.2)"><text x="193.60000000000002" y="15.296" font-family="Segoe UI Emoji" font-size="16px" fill="#1e293b" text-anchor="middle" style="white-space: pre;" direction="ltr" dominant-baseline="alphabetic">Workflow Builder — Core Entity Relationships</text></g><g stroke-linecap="round" transform="translate(10 58) rotate(0 95 86)"><path d="M4 0 C75.16 0, 146.33 0, 186 0 C188.67 0, 190 1.33, 190 4 C190 63.08, 190 122.16, 190 168 C190 170.67, 188.67 172, 186 172 C122.16 172, 58.32 172, 4 172 C1.33 172, 0 170.67, 0 168 C0 105.6, 0 43.2, 0 4 C0 1.33, 1.33 0, 4 0" stroke="none" stroke-width="0" fill="#ffffff"></path><path d="M4 0 C59.32 0, 114.64 0, 186 0 M4 0 C48.75 0, 93.5 0, 186 0 M186 0 C188.67 0, 190 1.33, 190 4 M186 0 C188.67 0, 190 1.33, 190 4 M190 4 C190 64.01, 190 124.03, 190 168 M190 4 C190 63.62, 190 123.25, 190 168 M190 168 C190 170.67, 188.67 172, 186 172 M190 168 C190 170.67, 188.67 172, 186 172 M186 172 C140.96 172, 95.92 172, 4 172 M186 172 C141.56 172, 97.12 172, 4 172 M4 172 C1.33 172, 0 170.67, 0 168 M4 172 C1.33 172, 0 170.67, 0 168 M0 168 C0 110.34, 0 52.68, 0 4 M0 168 C0 121.46, 0 74.92, 0 4 M0 4 C0 1.33, 1.33 0, 4 0 M0 4 C0 1.33, 1.33 0, 4 0" stroke="#16a34a" stroke-width="1.5" fill="none"></path></g><g stroke-linecap="round" transform="translate(10 58) rotate(0 95 14)"><path d="M4 0 C54.62 0, 105.24 0, 186 0 C188.67 0, 190 1.33, 190 4 C190 11.88, 190 19.75, 190 24 C190 26.67, 188.67 28, 186 28 C126.41 28, 66.82 28, 4 28 C1.33 28, 0 26.67, 0 24 C0 20, 0 16, 0 4 C0 1.33, 1.33 0, 4 0" stroke="none" stroke-width="0" fill="#dcfce7"></path><path d="M4 0 C43.66 0, 83.32 0, 186 0 M4 0 C47.56 0, 91.12 0, 186 0 M186 0 C188.67 0, 190 1.33, 190 4 M186 0 C188.67 0, 190 1.33, 190 4 M190 4 C190 11.63, 190 19.27, 190 24 M190 4 C190 8.49, 190 12.97, 190 24 M190 24 C190 26.67, 188.67 28, 186 28 M190 24 C190 26.67, 188.67 28, 186 28 M186 28 C133.92 28, 81.84 28, 4 28 M186 28 C135.83 28, 85.66 28, 4 28 M4 28 C1.33 28, 0 26.67, 0 24 M4 28 C1.33 28, 0 26.67, 0 24 M0 24 C0 17.83, 0 11.65, 0 4 M0 24 C0 18.53, 0 13.07, 0 4 M0 4 C0 1.33, 1.33 0, 4 0 M0 4 C0 1.33, 1.33 0, 4 0" stroke="#dcfce7" stroke-width="1" fill="none"></path></g><g stroke-linecap="round"><g transform="translate(10 86) rotate(0 95 0)"><path d="M0 0 C31.67 0, 158.33 0, 190 0 M0 0 C31.67 0, 158.33 0, 190 0" stroke="#16a34a" stroke-width="1" fill="none"></path></g></g><mask></mask><g transform="translate(50.55 66.5) rotate(0 54.449999999999996 7.700000000000003)"><text x="54.45" y="10.515999999999998" font-family="Segoe UI Emoji" font-size="11px" fill="#1e293b" text-anchor="middle" style="white-space: pre;" direction="ltr" dominant-baseline="alphabetic">WorkflowDefinition</text></g><g transform="translate(17 93.75) rotate(0 23.512500000000003 6.649999999999999)"><text x="23.512500000000003" y="9.081999999999999" font-family="Segoe UI Emoji" font-size="9.5px" fill="#1e293b" text-anchor="middle" style="white-space: pre;" direction="ltr" dominant-baseline="alphabetic">+id: UUID</text></g><g transform="translate(17 110.75) rotate(0 33.962500000000006 6.649999999999999)"><text x="33.962500000000006" y="9.081999999999999" font-family="Segoe UI Emoji" font-size="9.5px" fill="#1e293b" text-anchor="middle" style="white-space: pre;" direction="ltr" dominant-baseline="alphabetic">+name: string</text></g><g transform="translate(17 127.75) rotate(0 33.962500000000006 6.650000000000006)"><text x="33.962500000000006" y="9.081999999999999" font-family="Segoe UI Emoji" font-size="9.5px" fill="#1e293b" text-anchor="middle" style="white-space: pre;" direction="ltr" dominant-baseline="alphabetic">+slug: string</text></g><g transform="translate(17 144.75) rotate(0 52.25 6.650000000000006)"><text x="52.25000000000001" y="9.081999999999999" font-family="Segoe UI Emoji" font-size="9.5px" fill="#1e293b" text-anchor="middle" style="white-space: pre;" direction="ltr" dominant-baseline="alphabetic">+description: string</text></g><g transform="translate(17 161.75) rotate(0 60.087500000000006 6.650000000000006)"><text x="60.087500000000006" y="9.081999999999999" font-family="Segoe UI Emoji" font-size="9.5px" fill="#1e293b" text-anchor="middle" style="white-space: pre;" direction="ltr" dominant-baseline="alphabetic">+status: WorkflowStatus</text></g><g transform="translate(17 178.75) rotate(0 33.962500000000006 6.650000000000006)"><text x="33.962500000000006" y="9.081999999999999" font-family="Segoe UI Emoji" font-size="9.5px" fill="#1e293b" text-anchor="middle" style="white-space: pre;" direction="ltr" dominant-baseline="alphabetic">+version: int</text></g><g transform="translate(17 195.75) rotate(0 52.25 6.650000000000006)"><text x="52.25000000000001" y="9.081999999999999" font-family="Segoe UI Emoji" font-size="9.5px" fill="#1e293b" text-anchor="middle" style="white-space: pre;" direction="ltr" dominant-baseline="alphabetic">+createdAt: DateTime</text></g><g transform="translate(17 212.75) rotate(0 52.25 6.650000000000006)"><text x="52.25000000000001" y="9.081999999999999" font-family="Segoe UI Emoji" font-size="9.5px" fill="#1e293b" text-anchor="middle" style="white-space: pre;" direction="ltr" dominant-baseline="alphabetic">+updatedAt: DateTime</text></g><g stroke-linecap="round" transform="translate(10 358) rotate(0 95 47.5)"><path d="M4 0 C75.84 0, 147.68 0, 186 0 C188.67 0, 190 1.33, 190 4 C190 27.03, 190 50.07, 190 91 C190 93.67, 188.67 95, 186 95 C138.1 95, 90.19 95, 4 95 C1.33 95, 0 93.67, 0 91 C0 66.43, 0 41.85, 0 4 C0 1.33, 1.33 0, 4 0" stroke="none" stroke-width="0" fill="#ffffff"></path><path d="M4 0 C76 0, 148 0, 186 0 M4 0 C60.75 0, 117.5 0, 186 0 M186 0 C188.67 0, 190 1.33, 190 4 M186 0 C188.67 0, 190 1.33, 190 4 M190 4 C190 36.01, 190 68.02, 190 91 M190 4 C190 35.29, 190 66.59, 190 91 M190 91 C190 93.67, 188.67 95, 186 95 M190 91 C190 93.67, 188.67 95, 186 95 M186 95 C122.92 95, 59.84 95, 4 95 M186 95 C120.95 95, 55.89 95, 4 95 M4 95 C1.33 95, 0 93.67, 0 91 M4 95 C1.33 95, 0 93.67, 0 91 M0 91 C0 69.57, 0 48.14, 0 4 M0 91 C0 63.68, 0 36.37, 0 4 M0 4 C0 1.33, 1.33 0, 4 0 M0 4 C0 1.33, 1.33 0, 4 0" stroke="#7c3aed" stroke-width="1.5" fill="none"></path></g><g stroke-linecap="round" transform="translate(10 358) rotate(0 95 18)"><path d="M4 0 C49.31 0, 94.62 0, 186 0 C188.67 0, 190 1.33, 190 4 C190 10.51, 190 17.02, 190 32 C190 34.67, 188.67 36, 186 36 C120.14 36, 54.27 36, 4 36 C1.33 36, 0 34.67, 0 32 C0 22.72, 0 13.44, 0 4 C0 1.33, 1.33 0, 4 0" stroke="none" stroke-width="0" fill="#ede9fe"></path><path d="M4 0 C59.43 0, 114.86 0, 186 0 M4 0 C44.23 0, 84.47 0, 186 0 M186 0 C188.67 0, 190 1.33, 190 4 M186 0 C188.67 0, 190 1.33, 190 4 M190 4 C190 12.22, 190 20.45, 190 32 M190 4 C190 14.36, 190 24.72, 190 32 M190 32 C190 34.67, 188.67 36, 186 36 M190 32 C190 34.67, 188.67 36, 186 36 M186 36 C125.59 36, 65.18 36, 4 36 M186 36 C122.61 36, 59.22 36, 4 36 M4 36 C1.33 36, 0 34.67, 0 32 M4 36 C1.33 36, 0 34.67, 0 32 M0 32 C0 23.68, 0 15.36, 0 4 M0 32 C0 25.08, 0 18.16, 0 4 M0 4 C0 1.33, 1.33 0, 4 0 M0 4 C0 1.33, 1.33 0, 4 0" stroke="#ede9fe" stroke-width="1" fill="none"></path></g><g stroke-linecap="round"><g transform="translate(10 394) rotate(0 95 0)"><path d="M0 0 C31.67 0, 158.33 0, 190 0 M0 0 C31.67 0, 158.33 0, 190 0" stroke="#7c3aed" stroke-width="1" fill="none"></path></g></g><mask></mask><g transform="translate(85 364.75) rotate(0 20 5.949999999999989)"><text x="20" y="8.126" font-family="Segoe UI Emoji" font-size="8.5px" fill="#64748b" text-anchor="middle" style="white-space: pre;" direction="ltr" dominant-baseline="alphabetic">«enum»</text></g><g transform="translate(62.650000000000006 378.5) rotate(0 42.35000000000001 7.699999999999989)"><text x="42.35" y="10.515999999999998" font-family="Segoe UI Emoji" font-size="11px" fill="#1e293b" text-anchor="middle" style="white-space: pre;" direction="ltr" dominant-baseline="alphabetic">WorkflowStatus</text></g><g transform="translate(17 401.75) rotate(0 20 6.650000000000006)"><text x="20" y="9.081999999999999" font-family="Segoe UI Emoji" font-size="9.5px" fill="#1e293b" text-anchor="middle" style="white-space: pre;" direction="ltr" dominant-baseline="alphabetic">Draft</text></g><g transform="translate(17 418.75) rotate(0 20 6.650000000000006)"><text x="20" y="9.081999999999999" font-family="Segoe UI Emoji" font-size="9.5px" fill="#1e293b" text-anchor="middle" style="white-space: pre;" direction="ltr" dominant-baseline="alphabetic">Active</text></g><g transform="translate(17 435.75) rotate(0 20.900000000000006 6.650000000000006)"><text x="20.900000000000002" y="9.081999999999999" font-family="Segoe UI Emoji" font-size="9.5px" fill="#1e293b" text-anchor="middle" style="white-space: pre;" direction="ltr" dominant-baseline="alphabetic">Archived</text></g><g stroke-linecap="round" transform="translate(260 58) rotate(0 95 52)"><path d="M4 0 C52.43 0, 100.87 0, 186 0 C188.67 0, 190 1.33, 190 4 C190 30.39, 190 56.78, 190 100 C190 102.67, 188.67 104, 186 104 C131.82 104, 77.64 104, 4 104 C1.33 104, 0 102.67, 0 100 C0 74.37, 0 48.74, 0 4 C0 1.33, 1.33 0, 4 0" stroke="none" stroke-width="0" fill="#ffffff"></path><path d="M4 0 C65.91 0, 127.81 0, 186 0 M4 0 C76.09 0, 148.18 0, 186 0 M186 0 C188.67 0, 190 1.33, 190 4 M186 0 C188.67 0, 190 1.33, 190 4 M190 4 C190 28.91, 190 53.82, 190 100 M190 4 C190 24.73, 190 45.46, 190 100 M190 100 C190 102.67, 188.67 104, 186 104 M190 100 C190 102.67, 188.67 104, 186 104 M186 104 C147.61 104, 109.23 104, 4 104 M186 104 C113.59 104, 41.18 104, 4 104 M4 104 C1.33 104, 0 102.67, 0 100 M4 104 C1.33 104, 0 102.67, 0 100 M0 100 C0 64.81, 0 29.61, 0 4 M0 100 C0 77.16, 0 54.31, 0 4 M0 4 C0 1.33, 1.33 0, 4 0 M0 4 C0 1.33, 1.33 0, 4 0" stroke="#3b82f6" stroke-width="1.5" fill="none"></path></g><g stroke-linecap="round" transform="translate(260 58) rotate(0 95 14)"><path d="M4 0 C51.24 0, 98.48 0, 186 0 C188.67 0, 190 1.33, 190 4 C190 10.64, 190 17.27, 190 24 C190 26.67, 188.67 28, 186 28 C149.29 28, 112.59 28, 4 28 C1.33 28, 0 26.67, 0 24 C0 19.98, 0 15.96, 0 4 C0 1.33, 1.33 0, 4 0" stroke="none" stroke-width="0" fill="#dbeafe"></path><path d="M4 0 C76.28 0, 148.57 0, 186 0 M4 0 C46.37 0, 88.73 0, 186 0 M186 0 C188.67 0, 190 1.33, 190 4 M186 0 C188.67 0, 190 1.33, 190 4 M190 4 C190 11.97, 190 19.95, 190 24 M190 4 C190 9.35, 190 14.71, 190 24 M190 24 C190 26.67, 188.67 28, 186 28 M190 24 C190 26.67, 188.67 28, 186 28 M186 28 C122.7 28, 59.4 28, 4 28 M186 28 C143.73 28, 101.47 28, 4 28 M4 28 C1.33 28, 0 26.67, 0 24 M4 28 C1.33 28, 0 26.67, 0 24 M0 24 C0 16.08, 0 8.15, 0 4 M0 24 C0 19.88, 0 15.77, 0 4 M0 4 C0 1.33, 1.33 0, 4 0 M0 4 C0 1.33, 1.33 0, 4 0" stroke="#dbeafe" stroke-width="1" fill="none"></path></g><g stroke-linecap="round"><g transform="translate(260 86) rotate(0 95 0)"><path d="M0 0 C31.67 0, 158.33 0, 190 0 M0 0 C31.67 0, 158.33 0, 190 0" stroke="#3b82f6" stroke-width="1" fill="none"></path></g></g><mask></mask><g transform="translate(315.675 66.5) rotate(0 39.32500000000002 7.700000000000003)"><text x="39.325" y="10.515999999999998" font-family="Segoe UI Emoji" font-size="11px" fill="#1e293b" text-anchor="middle" style="white-space: pre;" direction="ltr" dominant-baseline="alphabetic">TriggerConfig</text></g><g transform="translate(267 93.75) rotate(0 23.51249999999999 6.649999999999999)"><text x="23.512500000000003" y="9.081999999999999" font-family="Segoe UI Emoji" font-size="9.5px" fill="#1e293b" text-anchor="middle" style="white-space: pre;" direction="ltr" dominant-baseline="alphabetic">+id: UUID</text></g><g transform="translate(267 110.75) rotate(0 44.412499999999994 6.649999999999999)"><text x="44.4125" y="9.081999999999999" font-family="Segoe UI Emoji" font-size="9.5px" fill="#1e293b" text-anchor="middle" style="white-space: pre;" direction="ltr" dominant-baseline="alphabetic">+workflowId: UUID</text></g><g transform="translate(267 127.75) rotate(0 47.025000000000006 6.650000000000006)"><text x="47.025000000000006" y="9.081999999999999" font-family="Segoe UI Emoji" font-size="9.5px" fill="#1e293b" text-anchor="middle" style="white-space: pre;" direction="ltr" dominant-baseline="alphabetic">+type: TriggerType</text></g><g transform="translate(267 144.75) rotate(0 36.57499999999999 6.650000000000006)"><text x="36.575" y="9.081999999999999" font-family="Segoe UI Emoji" font-size="9.5px" fill="#1e293b" text-anchor="middle" style="white-space: pre;" direction="ltr" dominant-baseline="alphabetic">+config: JSONB</text></g><g stroke-linecap="round" transform="translate(260 288) rotate(0 95 56)"><path d="M4 0 C71.78 0, 139.56 0, 186 0 C188.67 0, 190 1.33, 190 4 C190 36.85, 190 69.7, 190 108 C190 110.67, 188.67 112, 186 112 C142.67 112, 99.34 112, 4 112 C1.33 112, 0 110.67, 0 108 C0 79.42, 0 50.84, 0 4 C0 1.33, 1.33 0, 4 0" stroke="none" stroke-width="0" fill="#ffffff"></path><path d="M4 0 C48.7 0, 93.4 0, 186 0 M4 0 C57.54 0, 111.07 0, 186 0 M186 0 C188.67 0, 190 1.33, 190 4 M186 0 C188.67 0, 190 1.33, 190 4 M190 4 C190 42.32, 190 80.65, 190 108 M190 4 C190 43.32, 190 82.64, 190 108 M190 108 C190 110.67, 188.67 112, 186 112 M190 108 C190 110.67, 188.67 112, 186 112 M186 112 C149.04 112, 112.08 112, 4 112 M186 112 C134.95 112, 83.91 112, 4 112 M4 112 C1.33 112, 0 110.67, 0 108 M4 112 C1.33 112, 0 110.67, 0 108 M0 108 C0 78.9, 0 49.79, 0 4 M0 108 C0 74.82, 0 41.65, 0 4 M0 4 C0 1.33, 1.33 0, 4 0 M0 4 C0 1.33, 1.33 0, 4 0" stroke="#7c3aed" stroke-width="1.5" fill="none"></path></g><g stroke-linecap="round" transform="translate(260 288) rotate(0 95 18)"><path d="M4 0 C59.58 0, 115.16 0, 186 0 C188.67 0, 190 1.33, 190 4 C190 10.62, 190 17.23, 190 32 C190 34.67, 188.67 36, 186 36 C141.54 36, 97.08 36, 4 36 C1.33 36, 0 34.67, 0 32 C0 22.37, 0 12.75, 0 4 C0 1.33, 1.33 0, 4 0" stroke="none" stroke-width="0" fill="#ede9fe"></path><path d="M4 0 C44.33 0, 84.67 0, 186 0 M4 0 C43.72 0, 83.45 0, 186 0 M186 0 C188.67 0, 190 1.33, 190 4 M186 0 C188.67 0, 190 1.33, 190 4 M190 4 C190 14.32, 190 24.64, 190 32 M190 4 C190 9.92, 190 15.84, 190 32 M190 32 C190 34.67, 188.67 36, 186 36 M190 32 C190 34.67, 188.67 36, 186 36 M186 36 C118.85 36, 51.71 36, 4 36 M186 36 C135.05 36, 84.09 36, 4 36 M4 36 C1.33 36, 0 34.67, 0 32 M4 36 C1.33 36, 0 34.67, 0 32 M0 32 C0 24.55, 0 17.1, 0 4 M0 32 C0 23.94, 0 15.89, 0 4 M0 4 C0 1.33, 1.33 0, 4 0 M0 4 C0 1.33, 1.33 0, 4 0" stroke="#ede9fe" stroke-width="1" fill="none"></path></g><g stroke-linecap="round"><g transform="translate(260 324) rotate(0 95 0)"><path d="M0 0 C31.67 0, 158.33 0, 190 0 M0 0 C31.67 0, 158.33 0, 190 0" stroke="#7c3aed" stroke-width="1" fill="none"></path></g></g><mask></mask><g transform="translate(335 294.75) rotate(0 20 5.949999999999989)"><text x="20" y="8.126" font-family="Segoe UI Emoji" font-size="8.5px" fill="#64748b" text-anchor="middle" style="white-space: pre;" direction="ltr" dominant-baseline="alphabetic">«enum»</text></g><g transform="translate(321.725 308.5) rotate(0 33.275000000000006 7.699999999999989)"><text x="33.275000000000006" y="10.515999999999998" font-family="Segoe UI Emoji" font-size="11px" fill="#1e293b" text-anchor="middle" style="white-space: pre;" direction="ltr" dominant-baseline="alphabetic">TriggerType</text></g><g transform="translate(267 331.75) rotate(0 20 6.650000000000006)"><text x="20" y="9.081999999999999" font-family="Segoe UI Emoji" font-size="9.5px" fill="#1e293b" text-anchor="middle" style="white-space: pre;" direction="ltr" dominant-baseline="alphabetic">Manual</text></g><g transform="translate(267 348.75) rotate(0 20.900000000000006 6.650000000000006)"><text x="20.900000000000002" y="9.081999999999999" font-family="Segoe UI Emoji" font-size="9.5px" fill="#1e293b" text-anchor="middle" style="white-space: pre;" direction="ltr" dominant-baseline="alphabetic">Schedule</text></g><g transform="translate(267 365.75) rotate(0 20 6.650000000000006)"><text x="20" y="9.081999999999999" font-family="Segoe UI Emoji" font-size="9.5px" fill="#1e293b" text-anchor="middle" style="white-space: pre;" direction="ltr" dominant-baseline="alphabetic">Webhook</text></g><g transform="translate(267 382.75) rotate(0 20 6.650000000000006)"><text x="20" y="9.081999999999999" font-family="Segoe UI Emoji" font-size="9.5px" fill="#1e293b" text-anchor="middle" style="white-space: pre;" direction="ltr" dominant-baseline="alphabetic">Event</text></g><g stroke-linecap="round" transform="translate(510 58) rotate(0 95 86)"><path d="M4 0 C44.44 0, 84.87 0, 186 0 C188.67 0, 190 1.33, 190 4 C190 47.69, 190 91.38, 190 168 C190 170.67, 188.67 172, 186 172 C118.36 172, 50.72 172, 4 172 C1.33 172, 0 170.67, 0 168 C0 125.15, 0 82.29, 0 4 C0 1.33, 1.33 0, 4 0" stroke="none" stroke-width="0" fill="#ffffff"></path><path d="M4 0 C69.28 0, 134.56 0, 186 0 M4 0 C55.44 0, 106.87 0, 186 0 M186 0 C188.67 0, 190 1.33, 190 4 M186 0 C188.67 0, 190 1.33, 190 4 M190 4 C190 67.39, 190 130.77, 190 168 M190 4 C190 42.74, 190 81.47, 190 168 M190 168 C190 170.67, 188.67 172, 186 172 M190 168 C190 170.67, 188.67 172, 186 172 M186 172 C113.71 172, 41.42 172, 4 172 M186 172 C114.4 172, 42.79 172, 4 172 M4 172 C1.33 172, 0 170.67, 0 168 M4 172 C1.33 172, 0 170.67, 0 168 M0 168 C0 117.52, 0 67.04, 0 4 M0 168 C0 110.43, 0 52.85, 0 4 M0 4 C0 1.33, 1.33 0, 4 0 M0 4 C0 1.33, 1.33 0, 4 0" stroke="#3b82f6" stroke-width="1.5" fill="none"></path></g><g stroke-linecap="round" transform="translate(510 58) rotate(0 95 14)"><path d="M4 0 C52.03 0, 100.06 0, 186 0 C188.67 0, 190 1.33, 190 4 C190 8.44, 190 12.89, 190 24 C190 26.67, 188.67 28, 186 28 C131.9 28, 77.8 28, 4 28 C1.33 28, 0 26.67, 0 24 C0 16.53, 0 9.06, 0 4 C0 1.33, 1.33 0, 4 0" stroke="none" stroke-width="0" fill="#dbeafe"></path><path d="M4 0 C56.53 0, 109.06 0, 186 0 M4 0 C43.85 0, 83.7 0, 186 0 M186 0 C188.67 0, 190 1.33, 190 4 M186 0 C188.67 0, 190 1.33, 190 4 M190 4 C190 10.01, 190 16.02, 190 24 M190 4 C190 9.66, 190 15.32, 190 24 M190 24 C190 26.67, 188.67 28, 186 28 M190 24 C190 26.67, 188.67 28, 186 28 M186 28 C145.96 28, 105.92 28, 4 28 M186 28 C129.09 28, 72.19 28, 4 28 M4 28 C1.33 28, 0 26.67, 0 24 M4 28 C1.33 28, 0 26.67, 0 24 M0 24 C0 19.63, 0 15.26, 0 4 M0 24 C0 16.41, 0 8.83, 0 4 M0 4 C0 1.33, 1.33 0, 4 0 M0 4 C0 1.33, 1.33 0, 4 0" stroke="#dbeafe" stroke-width="1" fill="none"></path></g><g stroke-linecap="round"><g transform="translate(510 86) rotate(0 95 0)"><path d="M0 0 C31.67 0, 158.33 0, 190 0 M0 0 C31.67 0, 158.33 0, 190 0" stroke="#3b82f6" stroke-width="1" fill="none"></path></g></g><mask></mask><g transform="translate(562.65 66.5) rotate(0 42.35000000000002 7.700000000000003)"><text x="42.35" y="10.515999999999998" font-family="Segoe UI Emoji" font-size="11px" fill="#1e293b" text-anchor="middle" style="white-space: pre;" direction="ltr" dominant-baseline="alphabetic">StepDefinition</text></g><g transform="translate(517 93.75) rotate(0 23.51249999999999 6.649999999999999)"><text x="23.512500000000003" y="9.081999999999999" font-family="Segoe UI Emoji" font-size="9.5px" fill="#1e293b" text-anchor="middle" style="white-space: pre;" direction="ltr" dominant-baseline="alphabetic">+id: UUID</text></g><g transform="translate(517 110.75) rotate(0 44.41250000000002 6.649999999999999)"><text x="44.4125" y="9.081999999999999" font-family="Segoe UI Emoji" font-size="9.5px" fill="#1e293b" text-anchor="middle" style="white-space: pre;" direction="ltr" dominant-baseline="alphabetic">+workflowId: UUID</text></g><g transform="translate(517 127.75) rotate(0 33.96249999999998 6.650000000000006)"><text x="33.962500000000006" y="9.081999999999999" font-family="Segoe UI Emoji" font-size="9.5px" fill="#1e293b" text-anchor="middle" style="white-space: pre;" direction="ltr" dominant-baseline="alphabetic">+name: string</text></g><g transform="translate(517 144.75) rotate(0 39.1875 6.650000000000006)"><text x="39.1875" y="9.081999999999999" font-family="Segoe UI Emoji" font-size="9.5px" fill="#1e293b" text-anchor="middle" style="white-space: pre;" direction="ltr" dominant-baseline="alphabetic">+type: StepType</text></g><g transform="translate(517 161.75) rotate(0 36.57499999999999 6.650000000000006)"><text x="36.575" y="9.081999999999999" font-family="Segoe UI Emoji" font-size="9.5px" fill="#1e293b" text-anchor="middle" style="white-space: pre;" direction="ltr" dominant-baseline="alphabetic">+config: JSONB</text></g><g transform="translate(517 178.75) rotate(0 44.41250000000002 6.650000000000006)"><text x="44.4125" y="9.081999999999999" font-family="Segoe UI Emoji" font-size="9.5px" fill="#1e293b" text-anchor="middle" style="white-space: pre;" direction="ltr" dominant-baseline="alphabetic">+positionX: float</text></g><g transform="translate(517 195.75) rotate(0 44.41250000000002 6.650000000000006)"><text x="44.4125" y="9.081999999999999" font-family="Segoe UI Emoji" font-size="9.5px" fill="#1e293b" text-anchor="middle" style="white-space: pre;" direction="ltr" dominant-baseline="alphabetic">+positionY: float</text></g><g transform="translate(517 212.75) rotate(0 47.02499999999998 6.650000000000006)"><text x="47.025000000000006" y="9.081999999999999" font-family="Segoe UI Emoji" font-size="9.5px" fill="#1e293b" text-anchor="middle" style="white-space: pre;" direction="ltr" dominant-baseline="alphabetic">+displayOrder: int</text></g><g stroke-linecap="round" transform="translate(510 358) rotate(0 95 64.5)"><path d="M4 0 C73.37 0, 142.73 0, 186 0 C188.67 0, 190 1.33, 190 4 C190 50.44, 190 96.89, 190 125 C190 127.67, 188.67 129, 186 129 C122.32 129, 58.63 129, 4 129 C1.33 129, 0 127.67, 0 125 C0 77.6, 0 30.2, 0 4 C0 1.33, 1.33 0, 4 0" stroke="none" stroke-width="0" fill="#ffffff"></path><path d="M4 0 C44.56 0, 85.12 0, 186 0 M4 0 C66.71 0, 129.42 0, 186 0 M186 0 C188.67 0, 190 1.33, 190 4 M186 0 C188.67 0, 190 1.33, 190 4 M190 4 C190 48.07, 190 92.14, 190 125 M190 4 C190 45.2, 190 86.4, 190 125 M190 125 C190 127.67, 188.67 129, 186 129 M190 125 C190 127.67, 188.67 129, 186 129 M186 129 C138.1 129, 90.2 129, 4 129 M186 129 C146.92 129, 107.83 129, 4 129 M4 129 C1.33 129, 0 127.67, 0 125 M4 129 C1.33 129, 0 127.67, 0 125 M0 125 C0 94.54, 0 64.07, 0 4 M0 125 C0 97.66, 0 70.33, 0 4 M0 4 C0 1.33, 1.33 0, 4 0 M0 4 C0 1.33, 1.33 0, 4 0" stroke="#7c3aed" stroke-width="1.5" fill="none"></path></g><g stroke-linecap="round" transform="translate(510 358) rotate(0 95 18)"><path d="M4 0 C41.78 0, 79.56 0, 186 0 C188.67 0, 190 1.33, 190 4 C190 13.67, 190 23.34, 190 32 C190 34.67, 188.67 36, 186 36 C134.24 36, 82.49 36, 4 36 C1.33 36, 0 34.67, 0 32 C0 24.96, 0 17.93, 0 4 C0 1.33, 1.33 0, 4 0" stroke="none" stroke-width="0" fill="#ede9fe"></path><path d="M4 0 C54.23 0, 104.45 0, 186 0 M4 0 C68.86 0, 133.72 0, 186 0 M186 0 C188.67 0, 190 1.33, 190 4 M186 0 C188.67 0, 190 1.33, 190 4 M190 4 C190 10.48, 190 16.97, 190 32 M190 4 C190 14.6, 190 25.19, 190 32 M190 32 C190 34.67, 188.67 36, 186 36 M190 32 C190 34.67, 188.67 36, 186 36 M186 36 C131.04 36, 76.08 36, 4 36 M186 36 C117.12 36, 48.25 36, 4 36 M4 36 C1.33 36, 0 34.67, 0 32 M4 36 C1.33 36, 0 34.67, 0 32 M0 32 C0 24.99, 0 17.98, 0 4 M0 32 C0 24.54, 0 17.08, 0 4 M0 4 C0 1.33, 1.33 0, 4 0 M0 4 C0 1.33, 1.33 0, 4 0" stroke="#ede9fe" stroke-width="1" fill="none"></path></g><g stroke-linecap="round"><g transform="translate(510 394) rotate(0 95 0)"><path d="M0 0 C31.67 0, 158.33 0, 190 0 M0 0 C31.67 0, 158.33 0, 190 0" stroke="#7c3aed" stroke-width="1" fill="none"></path></g></g><mask></mask><g transform="translate(585 364.75) rotate(0 20 5.949999999999989)"><text x="20" y="8.126" font-family="Segoe UI Emoji" font-size="8.5px" fill="#64748b" text-anchor="middle" style="white-space: pre;" direction="ltr" dominant-baseline="alphabetic">«enum»</text></g><g transform="translate(580.8 378.5) rotate(0 24.19999999999999 7.699999999999989)"><text x="24.200000000000003" y="10.515999999999998" font-family="Segoe UI Emoji" font-size="11px" fill="#1e293b" text-anchor="middle" style="white-space: pre;" direction="ltr" dominant-baseline="alphabetic">StepType</text></g><g transform="translate(517 401.75) rotate(0 20 6.650000000000006)"><text x="20" y="9.081999999999999" font-family="Segoe UI Emoji" font-size="9.5px" fill="#1e293b" text-anchor="middle" style="white-space: pre;" direction="ltr" dominant-baseline="alphabetic">Form</text></g><g transform="translate(517 418.75) rotate(0 28.73750000000001 6.650000000000006)"><text x="28.7375" y="9.081999999999999" font-family="Segoe UI Emoji" font-size="9.5px" fill="#1e293b" text-anchor="middle" style="white-space: pre;" direction="ltr" dominant-baseline="alphabetic">HttpRequest</text></g><g transform="translate(517 435.75) rotate(0 23.51249999999999 6.650000000000006)"><text x="23.512500000000003" y="9.081999999999999" font-family="Segoe UI Emoji" font-size="9.5px" fill="#1e293b" text-anchor="middle" style="white-space: pre;" direction="ltr" dominant-baseline="alphabetic">Condition</text></g><g transform="translate(517 452.75) rotate(0 20 6.650000000000006)"><text x="20" y="9.081999999999999" font-family="Segoe UI Emoji" font-size="9.5px" fill="#1e293b" text-anchor="middle" style="white-space: pre;" direction="ltr" dominant-baseline="alphabetic">Script</text></g><g transform="translate(517 469.75) rotate(0 31.350000000000023 6.650000000000006)"><text x="31.35" y="9.081999999999999" font-family="Segoe UI Emoji" font-size="9.5px" fill="#1e293b" text-anchor="middle" style="white-space: pre;" direction="ltr" dominant-baseline="alphabetic">Notification</text></g><g stroke-linecap="round" transform="translate(760 58) rotate(0 95 77.5)"><path d="M4 0 C45.57 0, 87.13 0, 186 0 C188.67 0, 190 1.33, 190 4 C190 51.64, 190 99.27, 190 151 C190 153.67, 188.67 155, 186 155 C149.08 155, 112.16 155, 4 155 C1.33 155, 0 153.67, 0 151 C0 97.33, 0 43.67, 0 4 C0 1.33, 1.33 0, 4 0" stroke="none" stroke-width="0" fill="#ffffff"></path><path d="M4 0 C68.95 0, 133.9 0, 186 0 M4 0 C55.89 0, 107.77 0, 186 0 M186 0 C188.67 0, 190 1.33, 190 4 M186 0 C188.67 0, 190 1.33, 190 4 M190 4 C190 60.68, 190 117.36, 190 151 M190 4 C190 37.43, 190 70.85, 190 151 M190 151 C190 153.67, 188.67 155, 186 155 M190 151 C190 153.67, 188.67 155, 186 155 M186 155 C126.27 155, 66.53 155, 4 155 M186 155 C137.72 155, 89.43 155, 4 155 M4 155 C1.33 155, 0 153.67, 0 151 M4 155 C1.33 155, 0 153.67, 0 151 M0 151 C0 94.54, 0 38.08, 0 4 M0 151 C0 94.5, 0 37.99, 0 4 M0 4 C0 1.33, 1.33 0, 4 0 M0 4 C0 1.33, 1.33 0, 4 0" stroke="#3b82f6" stroke-width="1.5" fill="none"></path></g><g stroke-linecap="round" transform="translate(760 58) rotate(0 95 14)"><path d="M4 0 C66.77 0, 129.54 0, 186 0 C188.67 0, 190 1.33, 190 4 C190 11.32, 190 18.65, 190 24 C190 26.67, 188.67 28, 186 28 C118.22 28, 50.43 28, 4 28 C1.33 28, 0 26.67, 0 24 C0 19.74, 0 15.48, 0 4 C0 1.33, 1.33 0, 4 0" stroke="none" stroke-width="0" fill="#dbeafe"></path><path d="M4 0 C49.63 0, 95.27 0, 186 0 M4 0 C62.64 0, 121.28 0, 186 0 M186 0 C188.67 0, 190 1.33, 190 4 M186 0 C188.67 0, 190 1.33, 190 4 M190 4 C190 10.62, 190 17.24, 190 24 M190 4 C190 10.91, 190 17.83, 190 24 M190 24 C190 26.67, 188.67 28, 186 28 M190 24 C190 26.67, 188.67 28, 186 28 M186 28 C135.12 28, 84.24 28, 4 28 M186 28 C122.62 28, 59.24 28, 4 28 M4 28 C1.33 28, 0 26.67, 0 24 M4 28 C1.33 28, 0 26.67, 0 24 M0 24 C0 17.4, 0 10.8, 0 4 M0 24 C0 19.23, 0 14.46, 0 4 M0 4 C0 1.33, 1.33 0, 4 0 M0 4 C0 1.33, 1.33 0, 4 0" stroke="#dbeafe" stroke-width="1" fill="none"></path></g><g stroke-linecap="round"><g transform="translate(760 86) rotate(0 95 0)"><path d="M0 0 C31.67 0, 158.33 0, 190 0 M0 0 C31.67 0, 158.33 0, 190 0" stroke="#3b82f6" stroke-width="1" fill="none"></path></g></g><mask></mask><g transform="translate(824.75 66.5) rotate(0 30.25 7.700000000000003)"><text x="30.250000000000004" y="10.515999999999998" font-family="Segoe UI Emoji" font-size="11px" fill="#1e293b" text-anchor="middle" style="white-space: pre;" direction="ltr" dominant-baseline="alphabetic">Transition</text></g><g transform="translate(767 93.75) rotate(0 23.51249999999999 6.649999999999999)"><text x="23.512500000000003" y="9.081999999999999" font-family="Segoe UI Emoji" font-size="9.5px" fill="#1e293b" text-anchor="middle" style="white-space: pre;" direction="ltr" dominant-baseline="alphabetic">+id: UUID</text></g><g transform="translate(767 110.75) rotate(0 44.41250000000002 6.649999999999999)"><text x="44.4125" y="9.081999999999999" font-family="Segoe UI Emoji" font-size="9.5px" fill="#1e293b" text-anchor="middle" style="white-space: pre;" direction="ltr" dominant-baseline="alphabetic">+workflowId: UUID</text></g><g transform="translate(767 127.75) rotate(0 44.41250000000002 6.650000000000006)"><text x="44.4125" y="9.081999999999999" font-family="Segoe UI Emoji" font-size="9.5px" fill="#1e293b" text-anchor="middle" style="white-space: pre;" direction="ltr" dominant-baseline="alphabetic">+fromStepId: UUID</text></g><g transform="translate(767 144.75) rotate(0 39.1875 6.650000000000006)"><text x="39.1875" y="9.081999999999999" font-family="Segoe UI Emoji" font-size="9.5px" fill="#1e293b" text-anchor="middle" style="white-space: pre;" direction="ltr" dominant-baseline="alphabetic">+toStepId: UUID</text></g><g transform="translate(767 161.75) rotate(0 36.57499999999999 6.650000000000006)"><text x="36.575" y="9.081999999999999" font-family="Segoe UI Emoji" font-size="9.5px" fill="#1e293b" text-anchor="middle" style="white-space: pre;" direction="ltr" dominant-baseline="alphabetic">+label: string</text></g><g transform="translate(767 178.75) rotate(0 47.02499999999998 6.650000000000006)"><text x="47.025000000000006" y="9.081999999999999" font-family="Segoe UI Emoji" font-size="9.5px" fill="#1e293b" text-anchor="middle" style="white-space: pre;" direction="ltr" dominant-baseline="alphabetic">+condition: string</text></g><g transform="translate(767 195.75) rotate(0 47.02499999999998 6.650000000000006)"><text x="47.025000000000006" y="9.081999999999999" font-family="Segoe UI Emoji" font-size="9.5px" fill="#1e293b" text-anchor="middle" style="white-space: pre;" direction="ltr" dominant-baseline="alphabetic">+displayOrder: int</text></g><g stroke-linecap="round" transform="translate(760 338) rotate(0 95 52)"><path d="M4 0 C49.8 0, 95.6 0, 186 0 C188.67 0, 190 1.33, 190 4 C190 24.04, 190 44.08, 190 100 C190 102.67, 188.67 104, 186 104 C137.85 104, 89.7 104, 4 104 C1.33 104, 0 102.67, 0 100 C0 62.6, 0 25.19, 0 4 C0 1.33, 1.33 0, 4 0" stroke="none" stroke-width="0" fill="#ffffff"></path><path d="M4 0 C73 0, 141.99 0, 186 0 M4 0 C57.6 0, 111.2 0, 186 0 M186 0 C188.67 0, 190 1.33, 190 4 M186 0 C188.67 0, 190 1.33, 190 4 M190 4 C190 36.11, 190 68.22, 190 100 M190 4 C190 24.53, 190 45.06, 190 100 M190 100 C190 102.67, 188.67 104, 186 104 M190 100 C190 102.67, 188.67 104, 186 104 M186 104 C144.4 104, 102.79 104, 4 104 M186 104 C131.98 104, 77.95 104, 4 104 M4 104 C1.33 104, 0 102.67, 0 100 M4 104 C1.33 104, 0 102.67, 0 100 M0 100 C0 75.41, 0 50.82, 0 4 M0 100 C0 74.58, 0 49.16, 0 4 M0 4 C0 1.33, 1.33 0, 4 0 M0 4 C0 1.33, 1.33 0, 4 0" stroke="#3b82f6" stroke-width="1.5" fill="none"></path></g><g stroke-linecap="round" transform="translate(760 338) rotate(0 95 14)"><path d="M4 0 C60.21 0, 116.43 0, 186 0 C188.67 0, 190 1.33, 190 4 C190 11.03, 190 18.06, 190 24 C190 26.67, 188.67 28, 186 28 C148.46 28, 110.91 28, 4 28 C1.33 28, 0 26.67, 0 24 C0 19, 0 14.01, 0 4 C0 1.33, 1.33 0, 4 0" stroke="none" stroke-width="0" fill="#dbeafe"></path><path d="M4 0 C46.24 0, 88.47 0, 186 0 M4 0 C63.27 0, 122.54 0, 186 0 M186 0 C188.67 0, 190 1.33, 190 4 M186 0 C188.67 0, 190 1.33, 190 4 M190 4 C190 10.93, 190 17.87, 190 24 M190 4 C190 11.25, 190 18.5, 190 24 M190 24 C190 26.67, 188.67 28, 186 28 M190 24 C190 26.67, 188.67 28, 186 28 M186 28 C134.73 28, 83.46 28, 4 28 M186 28 C132.86 28, 79.73 28, 4 28 M4 28 C1.33 28, 0 26.67, 0 24 M4 28 C1.33 28, 0 26.67, 0 24 M0 24 C0 19.13, 0 14.26, 0 4 M0 24 C0 19.88, 0 15.76, 0 4 M0 4 C0 1.33, 1.33 0, 4 0 M0 4 C0 1.33, 1.33 0, 4 0" stroke="#dbeafe" stroke-width="1" fill="none"></path></g><g stroke-linecap="round"><g transform="translate(760 366) rotate(0 95 0)"><path d="M0 0 C31.67 0, 158.33 0, 190 0 M0 0 C31.67 0, 158.33 0, 190 0" stroke="#3b82f6" stroke-width="1" fill="none"></path></g></g><mask></mask><g transform="translate(815.675 346.5) rotate(0 39.32499999999999 7.699999999999989)"><text x="39.325" y="10.515999999999998" font-family="Segoe UI Emoji" font-size="11px" fill="#1e293b" text-anchor="middle" style="white-space: pre;" direction="ltr" dominant-baseline="alphabetic">ParallelGroup</text></g><g transform="translate(767 373.75) rotate(0 23.51249999999999 6.650000000000006)"><text x="23.512500000000003" y="9.081999999999999" font-family="Segoe UI Emoji" font-size="9.5px" fill="#1e293b" text-anchor="middle" style="white-space: pre;" direction="ltr" dominant-baseline="alphabetic">+id: UUID</text></g><g transform="translate(767 390.75) rotate(0 44.41250000000002 6.650000000000006)"><text x="44.4125" y="9.081999999999999" font-family="Segoe UI Emoji" font-size="9.5px" fill="#1e293b" text-anchor="middle" style="white-space: pre;" direction="ltr" dominant-baseline="alphabetic">+workflowId: UUID</text></g><g transform="translate(767 407.75) rotate(0 33.96249999999998 6.650000000000006)"><text x="33.962500000000006" y="9.081999999999999" font-family="Segoe UI Emoji" font-size="9.5px" fill="#1e293b" text-anchor="middle" style="white-space: pre;" direction="ltr" dominant-baseline="alphabetic">+name: string</text></g><g transform="translate(767 424.75) rotate(0 49.63749999999999 6.650000000000006)"><text x="49.6375" y="9.081999999999999" font-family="Segoe UI Emoji" font-size="9.5px" fill="#1e293b" text-anchor="middle" style="white-space: pre;" direction="ltr" dominant-baseline="alphabetic">+joinType: JoinType</text></g><g stroke-linecap="round" transform="translate(760 518) rotate(0 95 39)"><path d="M4 0 C46.39 0, 88.79 0, 186 0 C188.67 0, 190 1.33, 190 4 C190 28.96, 190 53.92, 190 74 C190 76.67, 188.67 78, 186 78 C136.26 78, 86.52 78, 4 78 C1.33 78, 0 76.67, 0 74 C0 57.04, 0 40.07, 0 4 C0 1.33, 1.33 0, 4 0" stroke="none" stroke-width="0" fill="#ffffff"></path><path d="M4 0 C70.31 0, 136.61 0, 186 0 M4 0 C72.06 0, 140.13 0, 186 0 M186 0 C188.67 0, 190 1.33, 190 4 M186 0 C188.67 0, 190 1.33, 190 4 M190 4 C190 25.65, 190 47.3, 190 74 M190 4 C190 20.12, 190 36.23, 190 74 M190 74 C190 76.67, 188.67 78, 186 78 M190 74 C190 76.67, 188.67 78, 186 78 M186 78 C144.32 78, 102.64 78, 4 78 M186 78 C143.58 78, 101.16 78, 4 78 M4 78 C1.33 78, 0 76.67, 0 74 M4 78 C1.33 78, 0 76.67, 0 74 M0 74 C0 54.36, 0 34.72, 0 4 M0 74 C0 57.95, 0 41.91, 0 4 M0 4 C0 1.33, 1.33 0, 4 0 M0 4 C0 1.33, 1.33 0, 4 0" stroke="#7c3aed" stroke-width="1.5" fill="none"></path></g><g stroke-linecap="round" transform="translate(760 518) rotate(0 95 18)"><path d="M4 0 C75.81 0, 147.61 0, 186 0 C188.67 0, 190 1.33, 190 4 C190 14.16, 190 24.32, 190 32 C190 34.67, 188.67 36, 186 36 C143.51 36, 101.01 36, 4 36 C1.33 36, 0 34.67, 0 32 C0 24.76, 0 17.51, 0 4 C0 1.33, 1.33 0, 4 0" stroke="none" stroke-width="0" fill="#ede9fe"></path><path d="M4 0 C60.19 0, 116.38 0, 186 0 M4 0 C46.1 0, 88.2 0, 186 0 M186 0 C188.67 0, 190 1.33, 190 4 M186 0 C188.67 0, 190 1.33, 190 4 M190 4 C190 13.4, 190 22.81, 190 32 M190 4 C190 10.9, 190 17.8, 190 32 M190 32 C190 34.67, 188.67 36, 186 36 M190 32 C190 34.67, 188.67 36, 186 36 M186 36 C135.77 36, 85.54 36, 4 36 M186 36 C144.22 36, 102.44 36, 4 36 M4 36 C1.33 36, 0 34.67, 0 32 M4 36 C1.33 36, 0 34.67, 0 32 M0 32 C0 24.82, 0 17.65, 0 4 M0 32 C0 21.87, 0 11.74, 0 4 M0 4 C0 1.33, 1.33 0, 4 0 M0 4 C0 1.33, 1.33 0, 4 0" stroke="#ede9fe" stroke-width="1" fill="none"></path></g><g stroke-linecap="round"><g transform="translate(760 554) rotate(0 95 0)"><path d="M0 0 C31.67 0, 158.33 0, 190 0 M0 0 C31.67 0, 158.33 0, 190 0" stroke="#7c3aed" stroke-width="1" fill="none"></path></g></g><mask></mask><g transform="translate(835 524.75) rotate(0 20 5.949999999999989)"><text x="20" y="8.126" font-family="Segoe UI Emoji" font-size="8.5px" fill="#64748b" text-anchor="middle" style="white-space: pre;" direction="ltr" dominant-baseline="alphabetic">«enum»</text></g><g transform="translate(830.8 538.5) rotate(0 24.19999999999999 7.699999999999989)"><text x="24.200000000000003" y="10.515999999999998" font-family="Segoe UI Emoji" font-size="11px" fill="#1e293b" text-anchor="middle" style="white-space: pre;" direction="ltr" dominant-baseline="alphabetic">JoinType</text></g><g transform="translate(767 561.75) rotate(0 20 6.649999999999977)"><text x="20" y="9.081999999999999" font-family="Segoe UI Emoji" font-size="9.5px" fill="#1e293b" text-anchor="middle" style="white-space: pre;" direction="ltr" dominant-baseline="alphabetic">WaitAll</text></g><g transform="translate(767 578.75) rotate(0 20 6.649999999999977)"><text x="20" y="9.081999999999999" font-family="Segoe UI Emoji" font-size="9.5px" fill="#1e293b" text-anchor="middle" style="white-space: pre;" direction="ltr" dominant-baseline="alphabetic">WaitAny</text></g><g stroke-linecap="round"><g transform="translate(105 230) rotate(0 0 64)"><path d="M0 0 C0 21.33, 0 106.67, 0 128 M0 0 C0 21.33, 0 106.67, 0 128" stroke="#475569" stroke-width="1.5" fill="none"></path></g><g transform="translate(105 230) rotate(0 0 64)"><path d="M-8.55 104.51 C-6.24 110.86, -3.92 117.22, 0 128 M-8.55 104.51 C-5.64 112.49, -2.74 120.48, 0 128" stroke="#475569" stroke-width="1.5" fill="none"></path></g><g transform="translate(105 230) rotate(0 0 64)"><path d="M8.55 104.51 C6.24 110.86, 3.92 117.22, 0 128 M8.55 104.51 C5.64 112.49, 2.74 120.48, 0 128" stroke="#475569" stroke-width="1.5" fill="none"></path></g></g><mask></mask><g transform="translate(85 275) rotate(0 20 7)"><text x="20" y="9.559999999999999" font-family="Segoe UI Emoji" font-size="10px" fill="#64748b" text-anchor="middle" style="white-space: pre;" direction="ltr" dominant-baseline="alphabetic">status</text></g><g stroke-linecap="round"><g transform="translate(200 134) rotate(0 30 -12)"><path d="M0 0 C10 -4, 50 -20, 60 -24 M0 0 C10 -4, 50 -20, 60 -24" stroke="#475569" stroke-width="1.5" fill="none"></path></g><g transform="translate(200 134) rotate(0 30 -12)"><path d="M41.36 -7.34 C47.63 -12.94, 53.89 -18.54, 60 -24 M41.36 -7.34 C48.76 -13.95, 56.15 -20.56, 60 -24" stroke="#475569" stroke-width="1.5" fill="none"></path></g><g transform="translate(200 134) rotate(0 30 -12)"><path d="M35.01 -23.21 C43.41 -23.48, 51.81 -23.74, 60 -24 M35.01 -23.21 C44.93 -23.53, 54.84 -23.84, 60 -24" stroke="#475569" stroke-width="1.5" fill="none"></path></g></g><mask></mask><g transform="translate(210 103) rotate(0 20 7)"><text x="20" y="9.559999999999999" font-family="Segoe UI Emoji" font-size="10px" fill="#64748b" text-anchor="middle" style="white-space: pre;" direction="ltr" dominant-baseline="alphabetic">1 -- 1</text></g><g stroke-linecap="round"><g transform="translate(200 154) rotate(0 155 -5)"><path d="M0 0 C51.67 -1.67, 258.33 -8.33, 310 -10 M0 0 C51.67 -1.67, 258.33 -8.33, 310 -10" stroke="#475569" stroke-width="1.5" fill="none"></path></g><g transform="translate(200 154) rotate(0 155 -5)"><path d="M286.8 -0.7 C293.46 -3.37, 300.12 -6.04, 310 -10 M286.8 -0.7 C294.34 -3.72, 301.88 -6.74, 310 -10" stroke="#475569" stroke-width="1.5" fill="none"></path></g><g transform="translate(200 154) rotate(0 155 -5)"><path d="M286.24 -17.79 C293.07 -15.55, 299.89 -13.31, 310 -10 M286.24 -17.79 C293.96 -15.26, 301.68 -12.73, 310 -10" stroke="#475569" stroke-width="1.5" fill="none"></path></g></g><mask></mask><g transform="translate(335 130) rotate(0 20 7)"><text x="20" y="9.559999999999999" font-family="Segoe UI Emoji" font-size="10px" fill="#64748b" text-anchor="middle" style="white-space: pre;" direction="ltr" dominant-baseline="alphabetic">1 *--</text></g><g stroke-linecap="round"><g transform="translate(200 174) rotate(0 280 -19.25)"><path d="M0 0 C93.33 -6.42, 466.67 -32.08, 560 -38.5 M0 0 C93.33 -6.42, 466.67 -32.08, 560 -38.5" stroke="#475569" stroke-width="1.5" fill="none"></path></g><g transform="translate(200 174) rotate(0 280 -19.25)"><path d="M537.15 -28.36 C546.27 -32.41, 555.39 -36.45, 560 -38.5 M537.15 -28.36 C542.59 -30.77, 548.03 -33.19, 560 -38.5" stroke="#475569" stroke-width="1.5" fill="none"></path></g><g transform="translate(200 174) rotate(0 280 -19.25)"><path d="M535.98 -45.42 C545.57 -42.66, 555.15 -39.9, 560 -38.5 M535.98 -45.42 C541.7 -43.77, 547.42 -42.12, 560 -38.5" stroke="#475569" stroke-width="1.5" fill="none"></path></g></g><mask></mask><g transform="translate(460 135.75) rotate(0 20 7)"><text x="20" y="9.559999999999999" font-family="Segoe UI Emoji" font-size="10px" fill="#64748b" text-anchor="middle" style="white-space: pre;" direction="ltr" dominant-baseline="alphabetic">1 *--</text></g><g stroke-linecap="round"><g transform="translate(355 162) rotate(0 0 63)"><path d="M0 0 C0 21, 0 105, 0 126 M0 0 C0 21, 0 105, 0 126" stroke="#475569" stroke-width="1.5" fill="none"></path></g><g transform="translate(355 162) rotate(0 0 63)"><path d="M-8.55 102.51 C-5.48 110.94, -2.41 119.37, 0 126 M-8.55 102.51 C-6.82 107.26, -5.09 112.01, 0 126" stroke="#475569" stroke-width="1.5" fill="none"></path></g><g transform="translate(355 162) rotate(0 0 63)"><path d="M8.55 102.51 C5.48 110.94, 2.41 119.37, 0 126 M8.55 102.51 C6.82 107.26, 5.09 112.01, 0 126" stroke="#475569" stroke-width="1.5" fill="none"></path></g></g><mask></mask><g transform="translate(335 206) rotate(0 20 7)"><text x="20" y="9.559999999999999" font-family="Segoe UI Emoji" font-size="10px" fill="#64748b" text-anchor="middle" style="white-space: pre;" direction="ltr" dominant-baseline="alphabetic">type</text></g><g stroke-linecap="round"><g transform="translate(605 230) rotate(0 0 64)"><path d="M0 0 C0 21.33, 0 106.67, 0 128 M0 0 C0 21.33, 0 106.67, 0 128" stroke="#475569" stroke-width="1.5" fill="none"></path></g><g transform="translate(605 230) rotate(0 0 64)"><path d="M-8.55 104.51 C-5.3 113.44, -2.05 122.37, 0 128 M-8.55 104.51 C-5.7 112.33, -2.86 120.15, 0 128" stroke="#475569" stroke-width="1.5" fill="none"></path></g><g transform="translate(605 230) rotate(0 0 64)"><path d="M8.55 104.51 C5.3 113.44, 2.05 122.37, 0 128 M8.55 104.51 C5.7 112.33, 2.86 120.15, 0 128" stroke="#475569" stroke-width="1.5" fill="none"></path></g></g><mask></mask><g transform="translate(585 275) rotate(0 20 7)"><text x="20" y="9.559999999999999" font-family="Segoe UI Emoji" font-size="10px" fill="#64748b" text-anchor="middle" style="white-space: pre;" direction="ltr" dominant-baseline="alphabetic">type</text></g><g stroke-linecap="round"><g transform="translate(855 442) rotate(0 0 38)"><path d="M0 0 C0 12.67, 0 63.33, 0 76 M0 0 C0 12.67, 0 63.33, 0 76" stroke="#475569" stroke-width="1.5" fill="none"></path></g><g transform="translate(855 442) rotate(0 0 38)"><path d="M-8.55 52.51 C-6.58 57.93, -4.61 63.35, 0 76 M-8.55 52.51 C-6.11 59.22, -3.66 65.94, 0 76" stroke="#475569" stroke-width="1.5" fill="none"></path></g><g transform="translate(855 442) rotate(0 0 38)"><path d="M8.55 52.51 C6.58 57.93, 4.61 63.35, 0 76 M8.55 52.51 C6.11 59.22, 3.66 65.94, 0 76" stroke="#475569" stroke-width="1.5" fill="none"></path></g></g><mask></mask><g transform="translate(833 461) rotate(0 22 7)"><text x="22" y="9.559999999999999" font-family="Segoe UI Emoji" font-size="10px" fill="#64748b" text-anchor="middle" style="white-space: pre;" direction="ltr" dominant-baseline="alphabetic">joinType</text></g><g stroke-linecap="round"><g transform="translate(700 164) rotate(0 30 113)"><path d="M0 0 C10 37.67, 50 188.33, 60 226" stroke="#475569" stroke-width="2" fill="none" stroke-dasharray="8 9.5"></path></g><g transform="translate(700 164) rotate(0 30 113)"><path d="M45.71 205.49 C51.42 213.69, 57.13 221.88, 60 226" stroke="#475569" stroke-width="2" fill="none"></path></g><g transform="translate(700 164) rotate(0 30 113)"><path d="M62.24 201.1 C61.34 211.05, 60.45 221, 60 226" stroke="#475569" stroke-width="2" fill="none"></path></g></g><mask></mask><g transform="translate(710 258) rotate(0 20 7)"><text x="20" y="9.559999999999999" font-family="Segoe UI Emoji" font-size="10px" fill="#64748b" text-anchor="middle" style="white-space: pre;" direction="ltr" dominant-baseline="alphabetic">0..1</text></g></svg>