<svg version="1.1" xmlns="http://www.w3.org/2000/svg" viewBox="0 0 NaN NaN" width="NaN" height="NaN"><!-- svg-source:excalidraw --><metadata></metadata><defs><style class="style-fonts">
      </style></defs><rect x="0" y="0" width="NaN" height="NaN" fill="#f8fafc"></rect><g transform="translate(0 0) rotate(0 193.60000000000002 11.2)"><text x="193.60000000000002" y="15.296" font-family="Segoe UI Emoji" font-size="16px" fill="#1e293b" text-anchor="middle" style="white-space: pre;" direction="ltr" dominant-baseline="alphabetic">Workflow Builder — Core Entity Relationships</text></g><g stroke-linecap="round" transform="translate(0 0) rotate(0 95 86)"><path d="M4 0 C69.49 0, 134.98 0, 186 0 C188.67 0, 190 1.33, 190 4 C190 59.04, 190 114.08, 190 168 C190 170.67, 188.67 172, 186 172 C124.99 172, 63.98 172, 4 172 C1.33 172, 0 170.67, 0 168 C0 132.86, 0 97.71, 0 4 C0 1.33, 1.33 0, 4 0" stroke="none" stroke-width="0" fill="#dcfce7"></path><path d="M4 0 C44.09 0, 84.18 0, 186 0 M4 0 C42.04 0, 80.08 0, 186 0 M186 0 C188.67 0, 190 1.33, 190 4 M186 0 C188.67 0, 190 1.33, 190 4 M190 4 C190 60.25, 190 116.5, 190 168 M190 4 C190 40.32, 190 76.63, 190 168 M190 168 C190 170.67, 188.67 172, 186 172 M190 168 C190 170.67, 188.67 172, 186 172 M186 172 C133.46 172, 80.93 172, 4 172 M186 172 C125.41 172, 64.82 172, 4 172 M4 172 C1.33 172, 0 170.67, 0 168 M4 172 C1.33 172, 0 170.67, 0 168 M0 168 C0 117.27, 0 66.54, 0 4 M0 168 C0 116.98, 0 65.96, 0 4 M0 4 C0 1.33, 1.33 0, 4 0 M0 4 C0 1.33, 1.33 0, 4 0" stroke="#16a34a" stroke-width="1.5" fill="none"></path></g><g stroke-linecap="round" transform="translate(0 0) rotate(0 94 71.5)"><path d="M0 0 L188 0 L188 143 L0 143" stroke="none" stroke-width="0" fill="#ffffff"></path><path d="M0 0 C66.83 0, 133.65 0, 188 0 M0 0 C38.92 0, 77.85 0, 188 0 M188 0 C188 47.35, 188 94.7, 188 143 M188 0 C188 52.13, 188 104.26, 188 143 M188 143 C131.13 143, 74.26 143, 0 143 M188 143 C148.23 143, 108.46 143, 0 143 M0 143 C0 100.98, 0 58.96, 0 0 M0 143 C0 100.75, 0 58.5, 0 0" stroke="transparent" stroke-width="2" fill="none"></path></g><g stroke-linecap="round"><g transform="translate(0 0) rotate(0 95 0)"><path d="M0 0 C31.67 0, 158.33 0, 190 0 M0 0 C31.67 0, 158.33 0, 190 0" stroke="#16a34a" stroke-width="1" fill="none"></path></g></g><mask></mask><g transform="translate(0 0) rotate(0 54.449999999999996 7.700000000000003)"><text x="54.45" y="10.515999999999998" font-family="Segoe UI Emoji" font-size="11px" fill="#1e293b" text-anchor="middle" style="white-space: pre;" direction="ltr" dominant-baseline="alphabetic">WorkflowDefinition</text></g><g transform="translate(0 0) rotate(0 23.512500000000003 6.649999999999999)"><text x="23.512500000000003" y="9.081999999999999" font-family="Segoe UI Emoji" font-size="9.5px" fill="#1e293b" text-anchor="middle" style="white-space: pre;" direction="ltr" dominant-baseline="alphabetic">+id: UUID</text></g><g transform="translate(0 0) rotate(0 33.962500000000006 6.649999999999999)"><text x="33.962500000000006" y="9.081999999999999" font-family="Segoe UI Emoji" font-size="9.5px" fill="#1e293b" text-anchor="middle" style="white-space: pre;" direction="ltr" dominant-baseline="alphabetic">+name: string</text></g><g transform="translate(0 0) rotate(0 33.962500000000006 6.650000000000006)"><text x="33.962500000000006" y="9.081999999999999" font-family="Segoe UI Emoji" font-size="9.5px" fill="#1e293b" text-anchor="middle" style="white-space: pre;" direction="ltr" dominant-baseline="alphabetic">+slug: string</text></g><g transform="translate(0 0) rotate(0 52.25 6.650000000000006)"><text x="52.25000000000001" y="9.081999999999999" font-family="Segoe UI Emoji" font-size="9.5px" fill="#1e293b" text-anchor="middle" style="white-space: pre;" direction="ltr" dominant-baseline="alphabetic">+description: string</text></g><g transform="translate(0 0) rotate(0 60.087500000000006 6.650000000000006)"><text x="60.087500000000006" y="9.081999999999999" font-family="Segoe UI Emoji" font-size="9.5px" fill="#1e293b" text-anchor="middle" style="white-space: pre;" direction="ltr" dominant-baseline="alphabetic">+status: WorkflowStatus</text></g><g transform="translate(0 0) rotate(0 33.962500000000006 6.650000000000006)"><text x="33.962500000000006" y="9.081999999999999" font-family="Segoe UI Emoji" font-size="9.5px" fill="#1e293b" text-anchor="middle" style="white-space: pre;" direction="ltr" dominant-baseline="alphabetic">+version: int</text></g><g transform="translate(0 0) rotate(0 52.25 6.650000000000006)"><text x="52.25000000000001" y="9.081999999999999" font-family="Segoe UI Emoji" font-size="9.5px" fill="#1e293b" text-anchor="middle" style="white-space: pre;" direction="ltr" dominant-baseline="alphabetic">+createdAt: DateTime</text></g><g transform="translate(0 0) rotate(0 52.25 6.650000000000006)"><text x="52.25000000000001" y="9.081999999999999" font-family="Segoe UI Emoji" font-size="9.5px" fill="#1e293b" text-anchor="middle" style="white-space: pre;" direction="ltr" dominant-baseline="alphabetic">+updatedAt: DateTime</text></g><g stroke-linecap="round" transform="translate(0 0) rotate(0 95 47.5)"><path d="M4 0 C40.96 0, 77.91 0, 186 0 C188.67 0, 190 1.33, 190 4 C190 26.76, 190 49.52, 190 91 C190 93.67, 188.67 95, 186 95 C119.12 95, 52.25 95, 4 95 C1.33 95, 0 93.67, 0 91 C0 71.84, 0 52.68, 0 4 C0 1.33, 1.33 0, 4 0" stroke="none" stroke-width="0" fill="#ede9fe"></path><path d="M4 0 C43.92 0, 83.84 0, 186 0 M4 0 C46.64 0, 89.28 0, 186 0 M186 0 C188.67 0, 190 1.33, 190 4 M186 0 C188.67 0, 190 1.33, 190 4 M190 4 C190 30.32, 190 56.64, 190 91 M190 4 C190 21.47, 190 38.95, 190 91 M190 91 C190 93.67, 188.67 95, 186 95 M190 91 C190 93.67, 188.67 95, 186 95 M186 95 C144.36 95, 102.72 95, 4 95 M186 95 C141.9 95, 97.81 95, 4 95 M4 95 C1.33 95, 0 93.67, 0 91 M4 95 C1.33 95, 0 93.67, 0 91 M0 91 C0 68.99, 0 46.98, 0 4 M0 91 C0 72.17, 0 53.34, 0 4 M0 4 C0 1.33, 1.33 0, 4 0 M0 4 C0 1.33, 1.33 0, 4 0" stroke="#7c3aed" stroke-width="1.5" fill="none"></path></g><g stroke-linecap="round" transform="translate(0 0) rotate(0 94 29)"><path d="M0 0 L188 0 L188 58 L0 58" stroke="none" stroke-width="0" fill="#ffffff"></path><path d="M0 0 C41.66 0, 83.32 0, 188 0 M0 0 C59.09 0, 118.18 0, 188 0 M188 0 C188 18.03, 188 36.05, 188 58 M188 0 C188 17.53, 188 35.05, 188 58 M188 58 C115.62 58, 43.25 58, 0 58 M188 58 C141.72 58, 95.45 58, 0 58 M0 58 C0 35.83, 0 13.66, 0 0 M0 58 C0 46.06, 0 34.12, 0 0" stroke="transparent" stroke-width="2" fill="none"></path></g><g stroke-linecap="round"><g transform="translate(0 0) rotate(0 95 0)"><path d="M0 0 C31.67 0, 158.33 0, 190 0 M0 0 C31.67 0, 158.33 0, 190 0" stroke="#7c3aed" stroke-width="1" fill="none"></path></g></g><mask></mask><g transform="translate(0 0) rotate(0 20 5.949999999999989)"><text x="20" y="8.126" font-family="Segoe UI Emoji" font-size="8.5px" fill="#64748b" text-anchor="middle" style="white-space: pre;" direction="ltr" dominant-baseline="alphabetic">«enum»</text></g><g transform="translate(0 0) rotate(0 42.35000000000001 7.699999999999989)"><text x="42.35" y="10.515999999999998" font-family="Segoe UI Emoji" font-size="11px" fill="#1e293b" text-anchor="middle" style="white-space: pre;" direction="ltr" dominant-baseline="alphabetic">WorkflowStatus</text></g><g transform="translate(0 0) rotate(0 20 6.650000000000006)"><text x="20" y="9.081999999999999" font-family="Segoe UI Emoji" font-size="9.5px" fill="#1e293b" text-anchor="middle" style="white-space: pre;" direction="ltr" dominant-baseline="alphabetic">Draft</text></g><g transform="translate(0 0) rotate(0 20 6.650000000000006)"><text x="20" y="9.081999999999999" font-family="Segoe UI Emoji" font-size="9.5px" fill="#1e293b" text-anchor="middle" style="white-space: pre;" direction="ltr" dominant-baseline="alphabetic">Active</text></g><g transform="translate(0 0) rotate(0 20.900000000000006 6.650000000000006)"><text x="20.900000000000002" y="9.081999999999999" font-family="Segoe UI Emoji" font-size="9.5px" fill="#1e293b" text-anchor="middle" style="white-space: pre;" direction="ltr" dominant-baseline="alphabetic">Archived</text></g><g stroke-linecap="round" transform="translate(0 0) rotate(0 95 52)"><path d="M4 0 C73.46 0, 142.92 0, 186 0 C188.67 0, 190 1.33, 190 4 C190 28.26, 190 52.51, 190 100 C190 102.67, 188.67 104, 186 104 C140.54 104, 95.08 104, 4 104 C1.33 104, 0 102.67, 0 100 C0 71.95, 0 43.89, 0 4 C0 1.33, 1.33 0, 4 0" stroke="none" stroke-width="0" fill="#dbeafe"></path><path d="M4 0 C45.05 0, 86.09 0, 186 0 M4 0 C74.21 0, 144.42 0, 186 0 M186 0 C188.67 0, 190 1.33, 190 4 M186 0 C188.67 0, 190 1.33, 190 4 M190 4 C190 28.55, 190 53.09, 190 100 M190 4 C190 36.76, 190 69.52, 190 100 M190 100 C190 102.67, 188.67 104, 186 104 M190 100 C190 102.67, 188.67 104, 186 104 M186 104 C139.26 104, 92.52 104, 4 104 M186 104 C136.07 104, 86.14 104, 4 104 M4 104 C1.33 104, 0 102.67, 0 100 M4 104 C1.33 104, 0 102.67, 0 100 M0 100 C0 76.01, 0 52.03, 0 4 M0 100 C0 73.94, 0 47.89, 0 4 M0 4 C0 1.33, 1.33 0, 4 0 M0 4 C0 1.33, 1.33 0, 4 0" stroke="#3b82f6" stroke-width="1.5" fill="none"></path></g><g stroke-linecap="round" transform="translate(0 0) rotate(0 94 37.5)"><path d="M0 0 L188 0 L188 75 L0 75" stroke="none" stroke-width="0" fill="#ffffff"></path><path d="M0 0 C45.09 0, 90.18 0, 188 0 M0 0 C51.69 0, 103.38 0, 188 0 M188 0 C188 19.21, 188 38.42, 188 75 M188 0 C188 26.29, 188 52.58, 188 75 M188 75 C146.11 75, 104.23 75, 0 75 M188 75 C120.37 75, 52.74 75, 0 75 M0 75 C0 53.77, 0 32.54, 0 0 M0 75 C0 55.84, 0 36.68, 0 0" stroke="transparent" stroke-width="2" fill="none"></path></g><g stroke-linecap="round"><g transform="translate(0 0) rotate(0 95 0)"><path d="M0 0 C31.67 0, 158.33 0, 190 0 M0 0 C31.67 0, 158.33 0, 190 0" stroke="#3b82f6" stroke-width="1" fill="none"></path></g></g><mask></mask><g transform="translate(0 0) rotate(0 39.32500000000002 7.700000000000003)"><text x="39.325" y="10.515999999999998" font-family="Segoe UI Emoji" font-size="11px" fill="#1e293b" text-anchor="middle" style="white-space: pre;" direction="ltr" dominant-baseline="alphabetic">TriggerConfig</text></g><g transform="translate(0 0) rotate(0 23.51249999999999 6.649999999999999)"><text x="23.512500000000003" y="9.081999999999999" font-family="Segoe UI Emoji" font-size="9.5px" fill="#1e293b" text-anchor="middle" style="white-space: pre;" direction="ltr" dominant-baseline="alphabetic">+id: UUID</text></g><g transform="translate(0 0) rotate(0 44.412499999999994 6.649999999999999)"><text x="44.4125" y="9.081999999999999" font-family="Segoe UI Emoji" font-size="9.5px" fill="#1e293b" text-anchor="middle" style="white-space: pre;" direction="ltr" dominant-baseline="alphabetic">+workflowId: UUID</text></g><g transform="translate(0 0) rotate(0 47.025000000000006 6.650000000000006)"><text x="47.025000000000006" y="9.081999999999999" font-family="Segoe UI Emoji" font-size="9.5px" fill="#1e293b" text-anchor="middle" style="white-space: pre;" direction="ltr" dominant-baseline="alphabetic">+type: TriggerType</text></g><g transform="translate(0 0) rotate(0 36.57499999999999 6.650000000000006)"><text x="36.575" y="9.081999999999999" font-family="Segoe UI Emoji" font-size="9.5px" fill="#1e293b" text-anchor="middle" style="white-space: pre;" direction="ltr" dominant-baseline="alphabetic">+config: JSONB</text></g><g stroke-linecap="round" transform="translate(0 0) rotate(0 95 56)"><path d="M4 0 C64.53 0, 125.05 0, 186 0 C188.67 0, 190 1.33, 190 4 C190 29.58, 190 55.17, 190 108 C190 110.67, 188.67 112, 186 112 C141.81 112, 97.63 112, 4 112 C1.33 112, 0 110.67, 0 108 C0 68.53, 0 29.06, 0 4 C0 1.33, 1.33 0, 4 0" stroke="none" stroke-width="0" fill="#ede9fe"></path><path d="M4 0 C49.75 0, 95.49 0, 186 0 M4 0 C72.11 0, 140.23 0, 186 0 M186 0 C188.67 0, 190 1.33, 190 4 M186 0 C188.67 0, 190 1.33, 190 4 M190 4 C190 40.81, 190 77.62, 190 108 M190 4 C190 43.18, 190 82.37, 190 108 M190 108 C190 110.67, 188.67 112, 186 112 M190 108 C190 110.67, 188.67 112, 186 112 M186 112 C140.83 112, 95.67 112, 4 112 M186 112 C128.73 112, 71.46 112, 4 112 M4 112 C1.33 112, 0 110.67, 0 108 M4 112 C1.33 112, 0 110.67, 0 108 M0 108 C0 75.87, 0 43.74, 0 4 M0 108 C0 81.38, 0 54.77, 0 4 M0 4 C0 1.33, 1.33 0, 4 0 M0 4 C0 1.33, 1.33 0, 4 0" stroke="#7c3aed" stroke-width="1.5" fill="none"></path></g><g stroke-linecap="round" transform="translate(0 0) rotate(0 94 37.5)"><path d="M0 0 L188 0 L188 75 L0 75" stroke="none" stroke-width="0" fill="#ffffff"></path><path d="M0 0 C49.5 0, 99 0, 188 0 M0 0 C65.76 0, 131.52 0, 188 0 M188 0 C188 15.07, 188 30.14, 188 75 M188 0 C188 16.34, 188 32.68, 188 75 M188 75 C117.98 75, 47.95 75, 0 75 M188 75 C132.56 75, 77.12 75, 0 75 M0 75 C0 58.62, 0 42.24, 0 0 M0 75 C0 47.93, 0 20.86, 0 0" stroke="transparent" stroke-width="2" fill="none"></path></g><g stroke-linecap="round"><g transform="translate(0 0) rotate(0 95 0)"><path d="M0 0 C31.67 0, 158.33 0, 190 0 M0 0 C31.67 0, 158.33 0, 190 0" stroke="#7c3aed" stroke-width="1" fill="none"></path></g></g><mask></mask><g transform="translate(0 0) rotate(0 20 5.949999999999989)"><text x="20" y="8.126" font-family="Segoe UI Emoji" font-size="8.5px" fill="#64748b" text-anchor="middle" style="white-space: pre;" direction="ltr" dominant-baseline="alphabetic">«enum»</text></g><g transform="translate(0 0) rotate(0 33.275000000000006 7.699999999999989)"><text x="33.275000000000006" y="10.515999999999998" font-family="Segoe UI Emoji" font-size="11px" fill="#1e293b" text-anchor="middle" style="white-space: pre;" direction="ltr" dominant-baseline="alphabetic">TriggerType</text></g><g transform="translate(0 0) rotate(0 20 6.650000000000006)"><text x="20" y="9.081999999999999" font-family="Segoe UI Emoji" font-size="9.5px" fill="#1e293b" text-anchor="middle" style="white-space: pre;" direction="ltr" dominant-baseline="alphabetic">Manual</text></g><g transform="translate(0 0) rotate(0 20.900000000000006 6.650000000000006)"><text x="20.900000000000002" y="9.081999999999999" font-family="Segoe UI Emoji" font-size="9.5px" fill="#1e293b" text-anchor="middle" style="white-space: pre;" direction="ltr" dominant-baseline="alphabetic">Schedule</text></g><g transform="translate(0 0) rotate(0 20 6.650000000000006)"><text x="20" y="9.081999999999999" font-family="Segoe UI Emoji" font-size="9.5px" fill="#1e293b" text-anchor="middle" style="white-space: pre;" direction="ltr" dominant-baseline="alphabetic">Webhook</text></g><g transform="translate(0 0) rotate(0 20 6.650000000000006)"><text x="20" y="9.081999999999999" font-family="Segoe UI Emoji" font-size="9.5px" fill="#1e293b" text-anchor="middle" style="white-space: pre;" direction="ltr" dominant-baseline="alphabetic">Event</text></g><g stroke-linecap="round" transform="translate(0 0) rotate(0 95 86)"><path d="M4 0 C42.06 0, 80.13 0, 186 0 C188.67 0, 190 1.33, 190 4 C190 41.71, 190 79.43, 190 168 C190 170.67, 188.67 172, 186 172 C128.72 172, 71.43 172, 4 172 C1.33 172, 0 170.67, 0 168 C0 107.68, 0 47.37, 0 4 C0 1.33, 1.33 0, 4 0" stroke="none" stroke-width="0" fill="#dbeafe"></path><path d="M4 0 C56.79 0, 109.59 0, 186 0 M4 0 C52.79 0, 101.59 0, 186 0 M186 0 C188.67 0, 190 1.33, 190 4 M186 0 C188.67 0, 190 1.33, 190 4 M190 4 C190 49.3, 190 94.6, 190 168 M190 4 C190 47.2, 190 90.4, 190 168 M190 168 C190 170.67, 188.67 172, 186 172 M190 168 C190 170.67, 188.67 172, 186 172 M186 172 C147.1 172, 108.2 172, 4 172 M186 172 C117.54 172, 49.08 172, 4 172 M4 172 C1.33 172, 0 170.67, 0 168 M4 172 C1.33 172, 0 170.67, 0 168 M0 168 C0 116.92, 0 65.83, 0 4 M0 168 C0 121.36, 0 74.73, 0 4 M0 4 C0 1.33, 1.33 0, 4 0 M0 4 C0 1.33, 1.33 0, 4 0" stroke="#3b82f6" stroke-width="1.5" fill="none"></path></g><g stroke-linecap="round" transform="translate(0 0) rotate(0 94 71.5)"><path d="M0 0 L188 0 L188 143 L0 143" stroke="none" stroke-width="0" fill="#ffffff"></path><path d="M0 0 C53.75 0, 107.49 0, 188 0 M0 0 C45.47 0, 90.94 0, 188 0 M188 0 C188 32.1, 188 64.19, 188 143 M188 0 C188 50.73, 188 101.45, 188 143 M188 143 C130.83 143, 73.66 143, 0 143 M188 143 C118.26 143, 48.52 143, 0 143 M0 143 C0 108.94, 0 74.87, 0 0 M0 143 C0 112.01, 0 81.03, 0 0" stroke="transparent" stroke-width="2" fill="none"></path></g><g stroke-linecap="round"><g transform="translate(0 0) rotate(0 95 0)"><path d="M0 0 C31.67 0, 158.33 0, 190 0 M0 0 C31.67 0, 158.33 0, 190 0" stroke="#3b82f6" stroke-width="1" fill="none"></path></g></g><mask></mask><g transform="translate(0 0) rotate(0 42.35000000000002 7.700000000000003)"><text x="42.35" y="10.515999999999998" font-family="Segoe UI Emoji" font-size="11px" fill="#1e293b" text-anchor="middle" style="white-space: pre;" direction="ltr" dominant-baseline="alphabetic">StepDefinition</text></g><g transform="translate(0 0) rotate(0 23.51249999999999 6.649999999999999)"><text x="23.512500000000003" y="9.081999999999999" font-family="Segoe UI Emoji" font-size="9.5px" fill="#1e293b" text-anchor="middle" style="white-space: pre;" direction="ltr" dominant-baseline="alphabetic">+id: UUID</text></g><g transform="translate(0 0) rotate(0 44.41250000000002 6.649999999999999)"><text x="44.4125" y="9.081999999999999" font-family="Segoe UI Emoji" font-size="9.5px" fill="#1e293b" text-anchor="middle" style="white-space: pre;" direction="ltr" dominant-baseline="alphabetic">+workflowId: UUID</text></g><g transform="translate(0 0) rotate(0 33.96249999999998 6.650000000000006)"><text x="33.962500000000006" y="9.081999999999999" font-family="Segoe UI Emoji" font-size="9.5px" fill="#1e293b" text-anchor="middle" style="white-space: pre;" direction="ltr" dominant-baseline="alphabetic">+name: string</text></g><g transform="translate(0 0) rotate(0 39.1875 6.650000000000006)"><text x="39.1875" y="9.081999999999999" font-family="Segoe UI Emoji" font-size="9.5px" fill="#1e293b" text-anchor="middle" style="white-space: pre;" direction="ltr" dominant-baseline="alphabetic">+type: StepType</text></g><g transform="translate(0 0) rotate(0 36.57499999999999 6.650000000000006)"><text x="36.575" y="9.081999999999999" font-family="Segoe UI Emoji" font-size="9.5px" fill="#1e293b" text-anchor="middle" style="white-space: pre;" direction="ltr" dominant-baseline="alphabetic">+config: JSONB</text></g><g transform="translate(0 0) rotate(0 44.41250000000002 6.650000000000006)"><text x="44.4125" y="9.081999999999999" font-family="Segoe UI Emoji" font-size="9.5px" fill="#1e293b" text-anchor="middle" style="white-space: pre;" direction="ltr" dominant-baseline="alphabetic">+positionX: float</text></g><g transform="translate(0 0) rotate(0 44.41250000000002 6.650000000000006)"><text x="44.4125" y="9.081999999999999" font-family="Segoe UI Emoji" font-size="9.5px" fill="#1e293b" text-anchor="middle" style="white-space: pre;" direction="ltr" dominant-baseline="alphabetic">+positionY: float</text></g><g transform="translate(0 0) rotate(0 47.02499999999998 6.650000000000006)"><text x="47.025000000000006" y="9.081999999999999" font-family="Segoe UI Emoji" font-size="9.5px" fill="#1e293b" text-anchor="middle" style="white-space: pre;" direction="ltr" dominant-baseline="alphabetic">+displayOrder: int</text></g><g stroke-linecap="round" transform="translate(0 0) rotate(0 95 64.5)"><path d="M4 0 C74.12 0, 144.23 0, 186 0 C188.67 0, 190 1.33, 190 4 C190 50.76, 190 97.51, 190 125 C190 127.67, 188.67 129, 186 129 C136.32 129, 86.64 129, 4 129 C1.33 129, 0 127.67, 0 125 C0 85.88, 0 46.75, 0 4 C0 1.33, 1.33 0, 4 0" stroke="none" stroke-width="0" fill="#ede9fe"></path><path d="M4 0 C43.8 0, 83.61 0, 186 0 M4 0 C55.54 0, 107.07 0, 186 0 M186 0 C188.67 0, 190 1.33, 190 4 M186 0 C188.67 0, 190 1.33, 190 4 M190 4 C190 32.4, 190 60.8, 190 125 M190 4 C190 37.67, 190 71.34, 190 125 M190 125 C190 127.67, 188.67 129, 186 129 M190 125 C190 127.67, 188.67 129, 186 129 M186 129 C146.15 129, 106.3 129, 4 129 M186 129 C147.49 129, 108.97 129, 4 129 M4 129 C1.33 129, 0 127.67, 0 125 M4 129 C1.33 129, 0 127.67, 0 125 M0 125 C0 99.24, 0 73.48, 0 4 M0 125 C0 95.76, 0 66.52, 0 4 M0 4 C0 1.33, 1.33 0, 4 0 M0 4 C0 1.33, 1.33 0, 4 0" stroke="#7c3aed" stroke-width="1.5" fill="none"></path></g><g stroke-linecap="round" transform="translate(0 0) rotate(0 94 46)"><path d="M0 0 L188 0 L188 92 L0 92" stroke="none" stroke-width="0" fill="#ffffff"></path><path d="M0 0 C49.38 0, 98.76 0, 188 0 M0 0 C60.5 0, 121 0, 188 0 M188 0 C188 29.91, 188 59.81, 188 92 M188 0 C188 23, 188 46.01, 188 92 M188 92 C126.26 92, 64.52 92, 0 92 M188 92 C144.04 92, 100.07 92, 0 92 M0 92 C0 69.4, 0 46.8, 0 0 M0 92 C0 68.35, 0 44.7, 0 0" stroke="transparent" stroke-width="2" fill="none"></path></g><g stroke-linecap="round"><g transform="translate(0 0) rotate(0 95 0)"><path d="M0 0 C31.67 0, 158.33 0, 190 0 M0 0 C31.67 0, 158.33 0, 190 0" stroke="#7c3aed" stroke-width="1" fill="none"></path></g></g><mask></mask><g transform="translate(0 0) rotate(0 20 5.949999999999989)"><text x="20" y="8.126" font-family="Segoe UI Emoji" font-size="8.5px" fill="#64748b" text-anchor="middle" style="white-space: pre;" direction="ltr" dominant-baseline="alphabetic">«enum»</text></g><g transform="translate(0 0) rotate(0 24.19999999999999 7.699999999999989)"><text x="24.200000000000003" y="10.515999999999998" font-family="Segoe UI Emoji" font-size="11px" fill="#1e293b" text-anchor="middle" style="white-space: pre;" direction="ltr" dominant-baseline="alphabetic">StepType</text></g><g transform="translate(0 0) rotate(0 20 6.650000000000006)"><text x="20" y="9.081999999999999" font-family="Segoe UI Emoji" font-size="9.5px" fill="#1e293b" text-anchor="middle" style="white-space: pre;" direction="ltr" dominant-baseline="alphabetic">Form</text></g><g transform="translate(0 0) rotate(0 28.73750000000001 6.650000000000006)"><text x="28.7375" y="9.081999999999999" font-family="Segoe UI Emoji" font-size="9.5px" fill="#1e293b" text-anchor="middle" style="white-space: pre;" direction="ltr" dominant-baseline="alphabetic">HttpRequest</text></g><g transform="translate(0 0) rotate(0 23.51249999999999 6.650000000000006)"><text x="23.512500000000003" y="9.081999999999999" font-family="Segoe UI Emoji" font-size="9.5px" fill="#1e293b" text-anchor="middle" style="white-space: pre;" direction="ltr" dominant-baseline="alphabetic">Condition</text></g><g transform="translate(0 0) rotate(0 20 6.650000000000006)"><text x="20" y="9.081999999999999" font-family="Segoe UI Emoji" font-size="9.5px" fill="#1e293b" text-anchor="middle" style="white-space: pre;" direction="ltr" dominant-baseline="alphabetic">Script</text></g><g transform="translate(0 0) rotate(0 31.350000000000023 6.650000000000006)"><text x="31.35" y="9.081999999999999" font-family="Segoe UI Emoji" font-size="9.5px" fill="#1e293b" text-anchor="middle" style="white-space: pre;" direction="ltr" dominant-baseline="alphabetic">Notification</text></g><g stroke-linecap="round" transform="translate(0 0) rotate(0 95 77.5)"><path d="M4 0 C60.26 0, 116.51 0, 186 0 C188.67 0, 190 1.33, 190 4 C190 44.6, 190 85.2, 190 151 C190 153.67, 188.67 155, 186 155 C119.01 155, 52.01 155, 4 155 C1.33 155, 0 153.67, 0 151 C0 112.58, 0 74.15, 0 4 C0 1.33, 1.33 0, 4 0" stroke="none" stroke-width="0" fill="#dbeafe"></path><path d="M4 0 C74.19 0, 144.37 0, 186 0 M4 0 C71.98 0, 139.96 0, 186 0 M186 0 C188.67 0, 190 1.33, 190 4 M186 0 C188.67 0, 190 1.33, 190 4 M190 4 C190 60.28, 190 116.55, 190 151 M190 4 C190 59.69, 190 115.39, 190 151 M190 151 C190 153.67, 188.67 155, 186 155 M190 151 C190 153.67, 188.67 155, 186 155 M186 155 C146.62 155, 107.24 155, 4 155 M186 155 C131.47 155, 76.95 155, 4 155 M4 155 C1.33 155, 0 153.67, 0 151 M4 155 C1.33 155, 0 153.67, 0 151 M0 151 C0 110.3, 0 69.59, 0 4 M0 151 C0 95.93, 0 40.85, 0 4 M0 4 C0 1.33, 1.33 0, 4 0 M0 4 C0 1.33, 1.33 0, 4 0" stroke="#3b82f6" stroke-width="1.5" fill="none"></path></g><g stroke-linecap="round" transform="translate(0 0) rotate(0 94 63)"><path d="M0 0 L188 0 L188 126 L0 126" stroke="none" stroke-width="0" fill="#ffffff"></path><path d="M0 0 C68.06 0, 136.13 0, 188 0 M0 0 C38.73 0, 77.45 0, 188 0 M188 0 C188 46.18, 188 92.35, 188 126 M188 0 C188 47.48, 188 94.95, 188 126 M188 126 C120.81 126, 53.62 126, 0 126 M188 126 C131.1 126, 74.2 126, 0 126 M0 126 C0 93.16, 0 60.32, 0 0 M0 126 C0 85.33, 0 44.65, 0 0" stroke="transparent" stroke-width="2" fill="none"></path></g><g stroke-linecap="round"><g transform="translate(0 0) rotate(0 95 0)"><path d="M0 0 C31.67 0, 158.33 0, 190 0 M0 0 C31.67 0, 158.33 0, 190 0" stroke="#3b82f6" stroke-width="1" fill="none"></path></g></g><mask></mask><g transform="translate(0 0) rotate(0 30.25 7.700000000000003)"><text x="30.250000000000004" y="10.515999999999998" font-family="Segoe UI Emoji" font-size="11px" fill="#1e293b" text-anchor="middle" style="white-space: pre;" direction="ltr" dominant-baseline="alphabetic">Transition</text></g><g transform="translate(0 0) rotate(0 23.51249999999999 6.649999999999999)"><text x="23.512500000000003" y="9.081999999999999" font-family="Segoe UI Emoji" font-size="9.5px" fill="#1e293b" text-anchor="middle" style="white-space: pre;" direction="ltr" dominant-baseline="alphabetic">+id: UUID</text></g><g transform="translate(0 0) rotate(0 44.41250000000002 6.649999999999999)"><text x="44.4125" y="9.081999999999999" font-family="Segoe UI Emoji" font-size="9.5px" fill="#1e293b" text-anchor="middle" style="white-space: pre;" direction="ltr" dominant-baseline="alphabetic">+workflowId: UUID</text></g><g transform="translate(0 0) rotate(0 44.41250000000002 6.650000000000006)"><text x="44.4125" y="9.081999999999999" font-family="Segoe UI Emoji" font-size="9.5px" fill="#1e293b" text-anchor="middle" style="white-space: pre;" direction="ltr" dominant-baseline="alphabetic">+fromStepId: UUID</text></g><g transform="translate(0 0) rotate(0 39.1875 6.650000000000006)"><text x="39.1875" y="9.081999999999999" font-family="Segoe UI Emoji" font-size="9.5px" fill="#1e293b" text-anchor="middle" style="white-space: pre;" direction="ltr" dominant-baseline="alphabetic">+toStepId: UUID</text></g><g transform="translate(0 0) rotate(0 36.57499999999999 6.650000000000006)"><text x="36.575" y="9.081999999999999" font-family="Segoe UI Emoji" font-size="9.5px" fill="#1e293b" text-anchor="middle" style="white-space: pre;" direction="ltr" dominant-baseline="alphabetic">+label: string</text></g><g transform="translate(0 0) rotate(0 47.02499999999998 6.650000000000006)"><text x="47.025000000000006" y="9.081999999999999" font-family="Segoe UI Emoji" font-size="9.5px" fill="#1e293b" text-anchor="middle" style="white-space: pre;" direction="ltr" dominant-baseline="alphabetic">+condition: string</text></g><g transform="translate(0 0) rotate(0 47.02499999999998 6.650000000000006)"><text x="47.025000000000006" y="9.081999999999999" font-family="Segoe UI Emoji" font-size="9.5px" fill="#1e293b" text-anchor="middle" style="white-space: pre;" direction="ltr" dominant-baseline="alphabetic">+displayOrder: int</text></g><g stroke-linecap="round" transform="translate(0 0) rotate(0 95 52)"><path d="M4 0 C65.25 0, 126.49 0, 186 0 C188.67 0, 190 1.33, 190 4 C190 28.8, 190 53.61, 190 100 C190 102.67, 188.67 104, 186 104 C131.34 104, 76.69 104, 4 104 C1.33 104, 0 102.67, 0 100 C0 65.17, 0 30.34, 0 4 C0 1.33, 1.33 0, 4 0" stroke="none" stroke-width="0" fill="#dbeafe"></path><path d="M4 0 C50.08 0, 96.15 0, 186 0 M4 0 C76.59 0, 149.19 0, 186 0 M186 0 C188.67 0, 190 1.33, 190 4 M186 0 C188.67 0, 190 1.33, 190 4 M190 4 C190 40.7, 190 77.4, 190 100 M190 4 C190 31.6, 190 59.21, 190 100 M190 100 C190 102.67, 188.67 104, 186 104 M190 100 C190 102.67, 188.67 104, 186 104 M186 104 C123.63 104, 61.25 104, 4 104 M186 104 C133 104, 79.99 104, 4 104 M4 104 C1.33 104, 0 102.67, 0 100 M4 104 C1.33 104, 0 102.67, 0 100 M0 100 C0 80.13, 0 60.26, 0 4 M0 100 C0 70.86, 0 41.72, 0 4 M0 4 C0 1.33, 1.33 0, 4 0 M0 4 C0 1.33, 1.33 0, 4 0" stroke="#3b82f6" stroke-width="1.5" fill="none"></path></g><g stroke-linecap="round" transform="translate(0 0) rotate(0 94 37.5)"><path d="M0 0 L188 0 L188 75 L0 75" stroke="none" stroke-width="0" fill="#ffffff"></path><path d="M0 0 C41.2 0, 82.4 0, 188 0 M0 0 C67.57 0, 135.14 0, 188 0 M188 0 C188 27.9, 188 55.8, 188 75 M188 0 C188 22.85, 188 45.7, 188 75 M188 75 C124 75, 60.01 75, 0 75 M188 75 C132.46 75, 76.92 75, 0 75 M0 75 C0 57.12, 0 39.25, 0 0 M0 75 C0 48.45, 0 21.91, 0 0" stroke="transparent" stroke-width="2" fill="none"></path></g><g stroke-linecap="round"><g transform="translate(0 0) rotate(0 95 0)"><path d="M0 0 C31.67 0, 158.33 0, 190 0 M0 0 C31.67 0, 158.33 0, 190 0" stroke="#3b82f6" stroke-width="1" fill="none"></path></g></g><mask></mask><g transform="translate(0 0) rotate(0 39.32499999999999 7.699999999999989)"><text x="39.325" y="10.515999999999998" font-family="Segoe UI Emoji" font-size="11px" fill="#1e293b" text-anchor="middle" style="white-space: pre;" direction="ltr" dominant-baseline="alphabetic">ParallelGroup</text></g><g transform="translate(0 0) rotate(0 23.51249999999999 6.650000000000006)"><text x="23.512500000000003" y="9.081999999999999" font-family="Segoe UI Emoji" font-size="9.5px" fill="#1e293b" text-anchor="middle" style="white-space: pre;" direction="ltr" dominant-baseline="alphabetic">+id: UUID</text></g><g transform="translate(0 0) rotate(0 44.41250000000002 6.650000000000006)"><text x="44.4125" y="9.081999999999999" font-family="Segoe UI Emoji" font-size="9.5px" fill="#1e293b" text-anchor="middle" style="white-space: pre;" direction="ltr" dominant-baseline="alphabetic">+workflowId: UUID</text></g><g transform="translate(0 0) rotate(0 33.96249999999998 6.650000000000006)"><text x="33.962500000000006" y="9.081999999999999" font-family="Segoe UI Emoji" font-size="9.5px" fill="#1e293b" text-anchor="middle" style="white-space: pre;" direction="ltr" dominant-baseline="alphabetic">+name: string</text></g><g transform="translate(0 0) rotate(0 49.63749999999999 6.650000000000006)"><text x="49.6375" y="9.081999999999999" font-family="Segoe UI Emoji" font-size="9.5px" fill="#1e293b" text-anchor="middle" style="white-space: pre;" direction="ltr" dominant-baseline="alphabetic">+joinType: JoinType</text></g><g stroke-linecap="round" transform="translate(0 0) rotate(0 95 39)"><path d="M4 0 C58.58 0, 113.17 0, 186 0 C188.67 0, 190 1.33, 190 4 C190 20.35, 190 36.7, 190 74 C190 76.67, 188.67 78, 186 78 C130.03 78, 74.05 78, 4 78 C1.33 78, 0 76.67, 0 74 C0 58.17, 0 42.34, 0 4 C0 1.33, 1.33 0, 4 0" stroke="none" stroke-width="0" fill="#ede9fe"></path><path d="M4 0 C65.18 0, 126.36 0, 186 0 M4 0 C75.64 0, 147.27 0, 186 0 M186 0 C188.67 0, 190 1.33, 190 4 M186 0 C188.67 0, 190 1.33, 190 4 M190 4 C190 25, 190 45.99, 190 74 M190 4 C190 27.16, 190 50.32, 190 74 M190 74 C190 76.67, 188.67 78, 186 78 M190 74 C190 76.67, 188.67 78, 186 78 M186 78 C135.39 78, 84.78 78, 4 78 M186 78 C125.29 78, 64.58 78, 4 78 M4 78 C1.33 78, 0 76.67, 0 74 M4 78 C1.33 78, 0 76.67, 0 74 M0 74 C0 46.48, 0 18.96, 0 4 M0 74 C0 52.75, 0 31.5, 0 4 M0 4 C0 1.33, 1.33 0, 4 0 M0 4 C0 1.33, 1.33 0, 4 0" stroke="#7c3aed" stroke-width="1.5" fill="none"></path></g><g stroke-linecap="round" transform="translate(0 0) rotate(0 94 20.5)"><path d="M0 0 L188 0 L188 41 L0 41" stroke="none" stroke-width="0" fill="#ffffff"></path><path d="M0 0 C50.33 0, 100.66 0, 188 0 M0 0 C70.64 0, 141.27 0, 188 0 M188 0 C188 10.94, 188 21.88, 188 41 M188 0 C188 15.13, 188 30.27, 188 41 M188 41 C147.27 41, 106.55 41, 0 41 M188 41 C145.35 41, 102.7 41, 0 41 M0 41 C0 31.45, 0 21.89, 0 0 M0 41 C0 32.66, 0 24.32, 0 0" stroke="transparent" stroke-width="2" fill="none"></path></g><g stroke-linecap="round"><g transform="translate(0 0) rotate(0 95 0)"><path d="M0 0 C31.67 0, 158.33 0, 190 0 M0 0 C31.67 0, 158.33 0, 190 0" stroke="#7c3aed" stroke-width="1" fill="none"></path></g></g><mask></mask><g transform="translate(0 0) rotate(0 20 5.949999999999989)"><text x="20" y="8.126" font-family="Segoe UI Emoji" font-size="8.5px" fill="#64748b" text-anchor="middle" style="white-space: pre;" direction="ltr" dominant-baseline="alphabetic">«enum»</text></g><g transform="translate(0 0) rotate(0 24.19999999999999 7.699999999999989)"><text x="24.200000000000003" y="10.515999999999998" font-family="Segoe UI Emoji" font-size="11px" fill="#1e293b" text-anchor="middle" style="white-space: pre;" direction="ltr" dominant-baseline="alphabetic">JoinType</text></g><g transform="translate(0 0) rotate(0 20 6.649999999999977)"><text x="20" y="9.081999999999999" font-family="Segoe UI Emoji" font-size="9.5px" fill="#1e293b" text-anchor="middle" style="white-space: pre;" direction="ltr" dominant-baseline="alphabetic">WaitAll</text></g><g transform="translate(0 0) rotate(0 20 6.649999999999977)"><text x="20" y="9.081999999999999" font-family="Segoe UI Emoji" font-size="9.5px" fill="#1e293b" text-anchor="middle" style="white-space: pre;" direction="ltr" dominant-baseline="alphabetic">WaitAny</text></g><g stroke-linecap="round"><g transform="translate(0 0) rotate(0 0 NaN)"><path d="M0 0 C0 0, 0 0, 0 0 M0 0 C0 0, 0 0, 0 0" stroke="#475569" stroke-width="1.5" fill="none"></path></g><g transform="translate(0 0) rotate(0 0 NaN)"><path d="MNaN NaN CNaN NaN, NaN NaN, 0 0 MNaN NaN CNaN NaN, NaN NaN, 0 0" stroke="#475569" stroke-width="1.5" fill="none"></path></g><g transform="translate(0 0) rotate(0 0 NaN)"><path d="MNaN NaN CNaN NaN, NaN NaN, 0 0 MNaN NaN CNaN NaN, NaN NaN, 0 0" stroke="#475569" stroke-width="1.5" fill="none"></path></g></g><mask></mask><g transform="translate(0 0) rotate(0 20 7)"><text x="20" y="9.559999999999999" font-family="Segoe UI Emoji" font-size="10px" fill="#64748b" text-anchor="middle" style="white-space: pre;" direction="ltr" dominant-baseline="alphabetic">status</text></g><g stroke-linecap="round"><g transform="translate(0 0) rotate(0 30 -12)"><path d="M0 0 C10 -4, 50 -20, 60 -24 M0 0 C10 -4, 50 -20, 60 -24" stroke="#475569" stroke-width="1.5" fill="none"></path></g><g transform="translate(0 0) rotate(0 30 -12)"><path d="M41.36 -7.34 C47.39 -12.73, 53.42 -18.12, 60 -24 M41.36 -7.34 C46.79 -12.19, 52.21 -17.03, 60 -24" stroke="#475569" stroke-width="1.5" fill="none"></path></g><g transform="translate(0 0) rotate(0 30 -12)"><path d="M35.01 -23.21 C43.1 -23.47, 51.18 -23.72, 60 -24 M35.01 -23.21 C42.28 -23.44, 49.55 -23.67, 60 -24" stroke="#475569" stroke-width="1.5" fill="none"></path></g></g><mask></mask><g transform="translate(0 0) rotate(0 20 7)"><text x="20" y="9.559999999999999" font-family="Segoe UI Emoji" font-size="10px" fill="#64748b" text-anchor="middle" style="white-space: pre;" direction="ltr" dominant-baseline="alphabetic">1 -- 1</text></g><g stroke-linecap="round"><g transform="translate(0 0) rotate(0 155 -5)"><path d="M0 0 C51.67 -1.67, 258.33 -8.33, 310 -10 M0 0 C51.67 -1.67, 258.33 -8.33, 310 -10" stroke="#475569" stroke-width="1.5" fill="none"></path></g><g transform="translate(0 0) rotate(0 155 -5)"><path d="M286.8 -0.7 C293.52 -3.39, 300.24 -6.09, 310 -10 M286.8 -0.7 C293.51 -3.39, 300.23 -6.08, 310 -10" stroke="#475569" stroke-width="1.5" fill="none"></path></g><g transform="translate(0 0) rotate(0 155 -5)"><path d="M286.24 -17.79 C293.12 -15.53, 300.01 -13.28, 310 -10 M286.24 -17.79 C293.12 -15.53, 300 -13.28, 310 -10" stroke="#475569" stroke-width="1.5" fill="none"></path></g></g><mask></mask><g transform="translate(0 0) rotate(0 20 7)"><text x="20" y="9.559999999999999" font-family="Segoe UI Emoji" font-size="10px" fill="#64748b" text-anchor="middle" style="white-space: pre;" direction="ltr" dominant-baseline="alphabetic">1 *--</text></g><g stroke-linecap="round"><g transform="translate(0 0) rotate(0 280 -19.25)"><path d="M0 0 C93.33 -6.42, 466.67 -32.08, 560 -38.5 M0 0 C93.33 -6.42, 466.67 -32.08, 560 -38.5" stroke="#475569" stroke-width="1.5" fill="none"></path></g><g transform="translate(0 0) rotate(0 280 -19.25)"><path d="M537.15 -28.36 C545.14 -31.91, 553.14 -35.46, 560 -38.5 M537.15 -28.36 C543.41 -31.14, 549.66 -33.91, 560 -38.5" stroke="#475569" stroke-width="1.5" fill="none"></path></g><g transform="translate(0 0) rotate(0 280 -19.25)"><path d="M535.98 -45.42 C544.38 -43, 552.79 -40.58, 560 -38.5 M535.98 -45.42 C542.55 -43.52, 549.13 -41.63, 560 -38.5" stroke="#475569" stroke-width="1.5" fill="none"></path></g></g><mask></mask><g transform="translate(0 0) rotate(0 20 7)"><text x="20" y="9.559999999999999" font-family="Segoe UI Emoji" font-size="10px" fill="#64748b" text-anchor="middle" style="white-space: pre;" direction="ltr" dominant-baseline="alphabetic">1 *--</text></g><g stroke-linecap="round"><g transform="translate(0 0) rotate(0 0 NaN)"><path d="M0 0 C0 0, 0 0, 0 0 M0 0 C0 0, 0 0, 0 0" stroke="#475569" stroke-width="1.5" fill="none"></path></g><g transform="translate(0 0) rotate(0 0 NaN)"><path d="MNaN NaN CNaN NaN, NaN NaN, 0 0 MNaN NaN CNaN NaN, NaN NaN, 0 0" stroke="#475569" stroke-width="1.5" fill="none"></path></g><g transform="translate(0 0) rotate(0 0 NaN)"><path d="MNaN NaN CNaN NaN, NaN NaN, 0 0 MNaN NaN CNaN NaN, NaN NaN, 0 0" stroke="#475569" stroke-width="1.5" fill="none"></path></g></g><mask></mask><g transform="translate(0 0) rotate(0 20 7)"><text x="20" y="9.559999999999999" font-family="Segoe UI Emoji" font-size="10px" fill="#64748b" text-anchor="middle" style="white-space: pre;" direction="ltr" dominant-baseline="alphabetic">type</text></g><g stroke-linecap="round"><g transform="translate(0 0) rotate(0 0 NaN)"><path d="M0 0 C0 0, 0 0, 0 0 M0 0 C0 0, 0 0, 0 0" stroke="#475569" stroke-width="1.5" fill="none"></path></g><g transform="translate(0 0) rotate(0 0 NaN)"><path d="MNaN NaN CNaN NaN, NaN NaN, 0 0 MNaN NaN CNaN NaN, NaN NaN, 0 0" stroke="#475569" stroke-width="1.5" fill="none"></path></g><g transform="translate(0 0) rotate(0 0 NaN)"><path d="MNaN NaN CNaN NaN, NaN NaN, 0 0 MNaN NaN CNaN NaN, NaN NaN, 0 0" stroke="#475569" stroke-width="1.5" fill="none"></path></g></g><mask></mask><g transform="translate(0 0) rotate(0 20 7)"><text x="20" y="9.559999999999999" font-family="Segoe UI Emoji" font-size="10px" fill="#64748b" text-anchor="middle" style="white-space: pre;" direction="ltr" dominant-baseline="alphabetic">type</text></g><g stroke-linecap="round"><g transform="translate(0 0) rotate(0 0 NaN)"><path d="M0 0 C0 0, 0 0, 0 0 M0 0 C0 0, 0 0, 0 0" stroke="#475569" stroke-width="1.5" fill="none"></path></g><g transform="translate(0 0) rotate(0 0 NaN)"><path d="MNaN NaN CNaN NaN, NaN NaN, 0 0 MNaN NaN CNaN NaN, NaN NaN, 0 0" stroke="#475569" stroke-width="1.5" fill="none"></path></g><g transform="translate(0 0) rotate(0 0 NaN)"><path d="MNaN NaN CNaN NaN, NaN NaN, 0 0 MNaN NaN CNaN NaN, NaN NaN, 0 0" stroke="#475569" stroke-width="1.5" fill="none"></path></g></g><mask></mask><g transform="translate(0 0) rotate(0 22 7)"><text x="22" y="9.559999999999999" font-family="Segoe UI Emoji" font-size="10px" fill="#64748b" text-anchor="middle" style="white-space: pre;" direction="ltr" dominant-baseline="alphabetic">joinType</text></g><g stroke-linecap="round"><g transform="translate(0 0) rotate(0 30 113)"><path d="M0 0 C10 37.67, 50 188.33, 60 226" stroke="#475569" stroke-width="2" fill="none" stroke-dasharray="8 9.5"></path></g><g transform="translate(0 0) rotate(0 30 113)"><path d="M45.71 205.49 C49.7 211.21, 53.69 216.94, 60 226" stroke="#475569" stroke-width="2" fill="none"></path></g><g transform="translate(0 0) rotate(0 30 113)"><path d="M62.24 201.1 C61.61 208.05, 60.99 215, 60 226" stroke="#475569" stroke-width="2" fill="none"></path></g></g><mask></mask><g transform="translate(0 0) rotate(0 20 7)"><text x="20" y="9.559999999999999" font-family="Segoe UI Emoji" font-size="10px" fill="#64748b" text-anchor="middle" style="white-space: pre;" direction="ltr" dominant-baseline="alphabetic">0..1</text></g></svg>