<svg version="1.1" xmlns="http://www.w3.org/2000/svg" viewBox="0 0 NaN NaN" width="NaN" height="NaN"><!-- svg-source:excalidraw --><metadata></metadata><defs><style class="style-fonts">
      </style></defs><rect x="0" y="0" width="NaN" height="NaN" fill="#f8fafc"></rect><g transform="translate(0 0) rotate(0 193.60000000000002 11.2)"><text x="193.60000000000002" y="15.296" font-family="Segoe UI Emoji" font-size="16px" fill="#1e293b" text-anchor="middle" style="white-space: pre;" direction="ltr" dominant-baseline="alphabetic">Workflow Builder — Core Entity Relationships</text></g><g stroke-linecap="round" transform="translate(0 0) rotate(0 95 86)"><path d="M4 0 C45.64 0, 87.27 0, 186 0 C188.67 0, 190 1.33, 190 4 C190 67.16, 190 130.32, 190 168 C190 170.67, 188.67 172, 186 172 C145.2 172, 104.4 172, 4 172 C1.33 172, 0 170.67, 0 168 C0 131.28, 0 94.56, 0 4 C0 1.33, 1.33 0, 4 0" stroke="none" stroke-width="0" fill="#ffffff"></path><path d="M4 0 C40.97 0, 77.94 0, 186 0 M4 0 C69.06 0, 134.12 0, 186 0 M186 0 C188.67 0, 190 1.33, 190 4 M186 0 C188.67 0, 190 1.33, 190 4 M190 4 C190 44.89, 190 85.77, 190 168 M190 4 C190 41.73, 190 79.45, 190 168 M190 168 C190 170.67, 188.67 172, 186 172 M190 168 C190 170.67, 188.67 172, 186 172 M186 172 C119.27 172, 52.54 172, 4 172 M186 172 C145.08 172, 104.15 172, 4 172 M4 172 C1.33 172, 0 170.67, 0 168 M4 172 C1.33 172, 0 170.67, 0 168 M0 168 C0 122.35, 0 76.71, 0 4 M0 168 C0 109.11, 0 50.22, 0 4 M0 4 C0 1.33, 1.33 0, 4 0 M0 4 C0 1.33, 1.33 0, 4 0" stroke="#16a34a" stroke-width="1.5" fill="none"></path></g><g stroke-linecap="round" transform="translate(0 0) rotate(0 95 14)"><path d="M4 0 C72.85 0, 141.7 0, 186 0 C188.67 0, 190 1.33, 190 4 C190 8.87, 190 13.75, 190 24 C190 26.67, 188.67 28, 186 28 C115.31 28, 44.61 28, 4 28 C1.33 28, 0 26.67, 0 24 C0 18.55, 0 13.09, 0 4 C0 1.33, 1.33 0, 4 0" stroke="none" stroke-width="0" fill="#dcfce7"></path><path d="M4 0 C74.24 0, 144.48 0, 186 0 M4 0 C65.19 0, 126.39 0, 186 0 M186 0 C188.67 0, 190 1.33, 190 4 M186 0 C188.67 0, 190 1.33, 190 4 M190 4 C190 10.26, 190 16.52, 190 24 M190 4 C190 8.41, 190 12.83, 190 24 M190 24 C190 26.67, 188.67 28, 186 28 M190 24 C190 26.67, 188.67 28, 186 28 M186 28 C144.27 28, 102.53 28, 4 28 M186 28 C123.27 28, 60.53 28, 4 28 M4 28 C1.33 28, 0 26.67, 0 24 M4 28 C1.33 28, 0 26.67, 0 24 M0 24 C0 17.6, 0 11.19, 0 4 M0 24 C0 18.6, 0 13.21, 0 4 M0 4 C0 1.33, 1.33 0, 4 0 M0 4 C0 1.33, 1.33 0, 4 0" stroke="#dcfce7" stroke-width="1" fill="none"></path></g><g stroke-linecap="round"><g transform="translate(0 0) rotate(0 95 0)"><path d="M0 0 C31.67 0, 158.33 0, 190 0 M0 0 C31.67 0, 158.33 0, 190 0" stroke="#16a34a" stroke-width="1" fill="none"></path></g></g><mask></mask><g transform="translate(0 0) rotate(0 54.449999999999996 7.700000000000003)"><text x="54.45" y="10.515999999999998" font-family="Segoe UI Emoji" font-size="11px" fill="#1e293b" text-anchor="middle" style="white-space: pre;" direction="ltr" dominant-baseline="alphabetic">WorkflowDefinition</text></g><g transform="translate(0 0) rotate(0 23.512500000000003 6.649999999999999)"><text x="23.512500000000003" y="9.081999999999999" font-family="Segoe UI Emoji" font-size="9.5px" fill="#1e293b" text-anchor="middle" style="white-space: pre;" direction="ltr" dominant-baseline="alphabetic">+id: UUID</text></g><g transform="translate(0 0) rotate(0 33.962500000000006 6.649999999999999)"><text x="33.962500000000006" y="9.081999999999999" font-family="Segoe UI Emoji" font-size="9.5px" fill="#1e293b" text-anchor="middle" style="white-space: pre;" direction="ltr" dominant-baseline="alphabetic">+name: string</text></g><g transform="translate(0 0) rotate(0 33.962500000000006 6.650000000000006)"><text x="33.962500000000006" y="9.081999999999999" font-family="Segoe UI Emoji" font-size="9.5px" fill="#1e293b" text-anchor="middle" style="white-space: pre;" direction="ltr" dominant-baseline="alphabetic">+slug: string</text></g><g transform="translate(0 0) rotate(0 52.25 6.650000000000006)"><text x="52.25000000000001" y="9.081999999999999" font-family="Segoe UI Emoji" font-size="9.5px" fill="#1e293b" text-anchor="middle" style="white-space: pre;" direction="ltr" dominant-baseline="alphabetic">+description: string</text></g><g transform="translate(0 0) rotate(0 60.087500000000006 6.650000000000006)"><text x="60.087500000000006" y="9.081999999999999" font-family="Segoe UI Emoji" font-size="9.5px" fill="#1e293b" text-anchor="middle" style="white-space: pre;" direction="ltr" dominant-baseline="alphabetic">+status: WorkflowStatus</text></g><g transform="translate(0 0) rotate(0 33.962500000000006 6.650000000000006)"><text x="33.962500000000006" y="9.081999999999999" font-family="Segoe UI Emoji" font-size="9.5px" fill="#1e293b" text-anchor="middle" style="white-space: pre;" direction="ltr" dominant-baseline="alphabetic">+version: int</text></g><g transform="translate(0 0) rotate(0 52.25 6.650000000000006)"><text x="52.25000000000001" y="9.081999999999999" font-family="Segoe UI Emoji" font-size="9.5px" fill="#1e293b" text-anchor="middle" style="white-space: pre;" direction="ltr" dominant-baseline="alphabetic">+createdAt: DateTime</text></g><g transform="translate(0 0) rotate(0 52.25 6.650000000000006)"><text x="52.25000000000001" y="9.081999999999999" font-family="Segoe UI Emoji" font-size="9.5px" fill="#1e293b" text-anchor="middle" style="white-space: pre;" direction="ltr" dominant-baseline="alphabetic">+updatedAt: DateTime</text></g><g stroke-linecap="round" transform="translate(0 0) rotate(0 95 47.5)"><path d="M4 0 C76.05 0, 148.1 0, 186 0 C188.67 0, 190 1.33, 190 4 C190 27.33, 190 50.65, 190 91 C190 93.67, 188.67 95, 186 95 C131.45 95, 76.91 95, 4 95 C1.33 95, 0 93.67, 0 91 C0 64.94, 0 38.88, 0 4 C0 1.33, 1.33 0, 4 0" stroke="none" stroke-width="0" fill="#ffffff"></path><path d="M4 0 C67.5 0, 131 0, 186 0 M4 0 C47.69 0, 91.38 0, 186 0 M186 0 C188.67 0, 190 1.33, 190 4 M186 0 C188.67 0, 190 1.33, 190 4 M190 4 C190 34.8, 190 65.59, 190 91 M190 4 C190 21.82, 190 39.64, 190 91 M190 91 C190 93.67, 188.67 95, 186 95 M190 91 C190 93.67, 188.67 95, 186 95 M186 95 C123.96 95, 61.91 95, 4 95 M186 95 C146.72 95, 107.43 95, 4 95 M4 95 C1.33 95, 0 93.67, 0 91 M4 95 C1.33 95, 0 93.67, 0 91 M0 91 C0 67.41, 0 43.82, 0 4 M0 91 C0 65.11, 0 39.21, 0 4 M0 4 C0 1.33, 1.33 0, 4 0 M0 4 C0 1.33, 1.33 0, 4 0" stroke="#7c3aed" stroke-width="1.5" fill="none"></path></g><g stroke-linecap="round" transform="translate(0 0) rotate(0 95 18)"><path d="M4 0 C65.45 0, 126.9 0, 186 0 C188.67 0, 190 1.33, 190 4 C190 13.26, 190 22.51, 190 32 C190 34.67, 188.67 36, 186 36 C113.86 36, 41.73 36, 4 36 C1.33 36, 0 34.67, 0 32 C0 25.64, 0 19.29, 0 4 C0 1.33, 1.33 0, 4 0" stroke="none" stroke-width="0" fill="#ede9fe"></path><path d="M4 0 C43.69 0, 83.38 0, 186 0 M4 0 C43.16 0, 82.31 0, 186 0 M186 0 C188.67 0, 190 1.33, 190 4 M186 0 C188.67 0, 190 1.33, 190 4 M190 4 C190 14.06, 190 24.12, 190 32 M190 4 C190 11.8, 190 19.6, 190 32 M190 32 C190 34.67, 188.67 36, 186 36 M190 32 C190 34.67, 188.67 36, 186 36 M186 36 C148.99 36, 111.98 36, 4 36 M186 36 C113.61 36, 41.23 36, 4 36 M4 36 C1.33 36, 0 34.67, 0 32 M4 36 C1.33 36, 0 34.67, 0 32 M0 32 C0 21.54, 0 11.09, 0 4 M0 32 C0 20.94, 0 9.88, 0 4 M0 4 C0 1.33, 1.33 0, 4 0 M0 4 C0 1.33, 1.33 0, 4 0" stroke="#ede9fe" stroke-width="1" fill="none"></path></g><g stroke-linecap="round"><g transform="translate(0 0) rotate(0 95 0)"><path d="M0 0 C31.67 0, 158.33 0, 190 0 M0 0 C31.67 0, 158.33 0, 190 0" stroke="#7c3aed" stroke-width="1" fill="none"></path></g></g><mask></mask><g transform="translate(0 0) rotate(0 20 5.949999999999989)"><text x="20" y="8.126" font-family="Segoe UI Emoji" font-size="8.5px" fill="#64748b" text-anchor="middle" style="white-space: pre;" direction="ltr" dominant-baseline="alphabetic">«enum»</text></g><g transform="translate(0 0) rotate(0 42.35000000000001 7.699999999999989)"><text x="42.35" y="10.515999999999998" font-family="Segoe UI Emoji" font-size="11px" fill="#1e293b" text-anchor="middle" style="white-space: pre;" direction="ltr" dominant-baseline="alphabetic">WorkflowStatus</text></g><g transform="translate(0 0) rotate(0 20 6.650000000000006)"><text x="20" y="9.081999999999999" font-family="Segoe UI Emoji" font-size="9.5px" fill="#1e293b" text-anchor="middle" style="white-space: pre;" direction="ltr" dominant-baseline="alphabetic">Draft</text></g><g transform="translate(0 0) rotate(0 20 6.650000000000006)"><text x="20" y="9.081999999999999" font-family="Segoe UI Emoji" font-size="9.5px" fill="#1e293b" text-anchor="middle" style="white-space: pre;" direction="ltr" dominant-baseline="alphabetic">Active</text></g><g transform="translate(0 0) rotate(0 20.900000000000006 6.650000000000006)"><text x="20.900000000000002" y="9.081999999999999" font-family="Segoe UI Emoji" font-size="9.5px" fill="#1e293b" text-anchor="middle" style="white-space: pre;" direction="ltr" dominant-baseline="alphabetic">Archived</text></g><g stroke-linecap="round" transform="translate(0 0) rotate(0 95 52)"><path d="M4 0 C61.95 0, 119.91 0, 186 0 C188.67 0, 190 1.33, 190 4 C190 32.77, 190 61.54, 190 100 C190 102.67, 188.67 104, 186 104 C130.63 104, 75.27 104, 4 104 C1.33 104, 0 102.67, 0 100 C0 72.37, 0 44.74, 0 4 C0 1.33, 1.33 0, 4 0" stroke="none" stroke-width="0" fill="#ffffff"></path><path d="M4 0 C47.84 0, 91.68 0, 186 0 M4 0 C72.71 0, 141.42 0, 186 0 M186 0 C188.67 0, 190 1.33, 190 4 M186 0 C188.67 0, 190 1.33, 190 4 M190 4 C190 31.47, 190 58.95, 190 100 M190 4 C190 23.64, 190 43.29, 190 100 M190 100 C190 102.67, 188.67 104, 186 104 M190 100 C190 102.67, 188.67 104, 186 104 M186 104 C143.94 104, 101.87 104, 4 104 M186 104 C125.68 104, 65.35 104, 4 104 M4 104 C1.33 104, 0 102.67, 0 100 M4 104 C1.33 104, 0 102.67, 0 100 M0 100 C0 65.11, 0 30.23, 0 4 M0 100 C0 67.79, 0 35.58, 0 4 M0 4 C0 1.33, 1.33 0, 4 0 M0 4 C0 1.33, 1.33 0, 4 0" stroke="#3b82f6" stroke-width="1.5" fill="none"></path></g><g stroke-linecap="round" transform="translate(0 0) rotate(0 95 14)"><path d="M4 0 C52 0, 100 0, 186 0 C188.67 0, 190 1.33, 190 4 C190 8.24, 190 12.47, 190 24 C190 26.67, 188.67 28, 186 28 C138.83 28, 91.67 28, 4 28 C1.33 28, 0 26.67, 0 24 C0 16.31, 0 8.62, 0 4 C0 1.33, 1.33 0, 4 0" stroke="none" stroke-width="0" fill="#dbeafe"></path><path d="M4 0 C54.97 0, 105.94 0, 186 0 M4 0 C75.69 0, 147.37 0, 186 0 M186 0 C188.67 0, 190 1.33, 190 4 M186 0 C188.67 0, 190 1.33, 190 4 M190 4 C190 9.27, 190 14.54, 190 24 M190 4 C190 8.38, 190 12.75, 190 24 M190 24 C190 26.67, 188.67 28, 186 28 M190 24 C190 26.67, 188.67 28, 186 28 M186 28 C135.08 28, 84.16 28, 4 28 M186 28 C129.1 28, 72.2 28, 4 28 M4 28 C1.33 28, 0 26.67, 0 24 M4 28 C1.33 28, 0 26.67, 0 24 M0 24 C0 19.73, 0 15.46, 0 4 M0 24 C0 16.97, 0 9.94, 0 4 M0 4 C0 1.33, 1.33 0, 4 0 M0 4 C0 1.33, 1.33 0, 4 0" stroke="#dbeafe" stroke-width="1" fill="none"></path></g><g stroke-linecap="round"><g transform="translate(0 0) rotate(0 95 0)"><path d="M0 0 C31.67 0, 158.33 0, 190 0 M0 0 C31.67 0, 158.33 0, 190 0" stroke="#3b82f6" stroke-width="1" fill="none"></path></g></g><mask></mask><g transform="translate(0 0) rotate(0 39.32500000000002 7.700000000000003)"><text x="39.325" y="10.515999999999998" font-family="Segoe UI Emoji" font-size="11px" fill="#1e293b" text-anchor="middle" style="white-space: pre;" direction="ltr" dominant-baseline="alphabetic">TriggerConfig</text></g><g transform="translate(0 0) rotate(0 23.51249999999999 6.649999999999999)"><text x="23.512500000000003" y="9.081999999999999" font-family="Segoe UI Emoji" font-size="9.5px" fill="#1e293b" text-anchor="middle" style="white-space: pre;" direction="ltr" dominant-baseline="alphabetic">+id: UUID</text></g><g transform="translate(0 0) rotate(0 44.412499999999994 6.649999999999999)"><text x="44.4125" y="9.081999999999999" font-family="Segoe UI Emoji" font-size="9.5px" fill="#1e293b" text-anchor="middle" style="white-space: pre;" direction="ltr" dominant-baseline="alphabetic">+workflowId: UUID</text></g><g transform="translate(0 0) rotate(0 47.025000000000006 6.650000000000006)"><text x="47.025000000000006" y="9.081999999999999" font-family="Segoe UI Emoji" font-size="9.5px" fill="#1e293b" text-anchor="middle" style="white-space: pre;" direction="ltr" dominant-baseline="alphabetic">+type: TriggerType</text></g><g transform="translate(0 0) rotate(0 36.57499999999999 6.650000000000006)"><text x="36.575" y="9.081999999999999" font-family="Segoe UI Emoji" font-size="9.5px" fill="#1e293b" text-anchor="middle" style="white-space: pre;" direction="ltr" dominant-baseline="alphabetic">+config: JSONB</text></g><g stroke-linecap="round" transform="translate(0 0) rotate(0 95 56)"><path d="M4 0 C62.87 0, 121.75 0, 186 0 C188.67 0, 190 1.33, 190 4 C190 40.11, 190 76.22, 190 108 C190 110.67, 188.67 112, 186 112 C137.14 112, 88.27 112, 4 112 C1.33 112, 0 110.67, 0 108 C0 70.08, 0 32.16, 0 4 C0 1.33, 1.33 0, 4 0" stroke="none" stroke-width="0" fill="#ffffff"></path><path d="M4 0 C67.64 0, 131.28 0, 186 0 M4 0 C43.7 0, 83.4 0, 186 0 M186 0 C188.67 0, 190 1.33, 190 4 M186 0 C188.67 0, 190 1.33, 190 4 M190 4 C190 33.83, 190 63.65, 190 108 M190 4 C190 42.22, 190 80.43, 190 108 M190 108 C190 110.67, 188.67 112, 186 112 M190 108 C190 110.67, 188.67 112, 186 112 M186 112 C119.01 112, 52.02 112, 4 112 M186 112 C133.14 112, 80.28 112, 4 112 M4 112 C1.33 112, 0 110.67, 0 108 M4 112 C1.33 112, 0 110.67, 0 108 M0 108 C0 81.4, 0 54.79, 0 4 M0 108 C0 80.57, 0 53.15, 0 4 M0 4 C0 1.33, 1.33 0, 4 0 M0 4 C0 1.33, 1.33 0, 4 0" stroke="#7c3aed" stroke-width="1.5" fill="none"></path></g><g stroke-linecap="round" transform="translate(0 0) rotate(0 95 18)"><path d="M4 0 C66.6 0, 129.2 0, 186 0 C188.67 0, 190 1.33, 190 4 C190 14.05, 190 24.1, 190 32 C190 34.67, 188.67 36, 186 36 C128.34 36, 70.67 36, 4 36 C1.33 36, 0 34.67, 0 32 C0 26.35, 0 20.71, 0 4 C0 1.33, 1.33 0, 4 0" stroke="none" stroke-width="0" fill="#ede9fe"></path><path d="M4 0 C61.29 0, 118.57 0, 186 0 M4 0 C74.28 0, 144.56 0, 186 0 M186 0 C188.67 0, 190 1.33, 190 4 M186 0 C188.67 0, 190 1.33, 190 4 M190 4 C190 14.68, 190 25.36, 190 32 M190 4 C190 13.21, 190 22.42, 190 32 M190 32 C190 34.67, 188.67 36, 186 36 M190 32 C190 34.67, 188.67 36, 186 36 M186 36 C136.62 36, 87.24 36, 4 36 M186 36 C141.31 36, 96.61 36, 4 36 M4 36 C1.33 36, 0 34.67, 0 32 M4 36 C1.33 36, 0 34.67, 0 32 M0 32 C0 21.32, 0 10.64, 0 4 M0 32 C0 23.93, 0 15.86, 0 4 M0 4 C0 1.33, 1.33 0, 4 0 M0 4 C0 1.33, 1.33 0, 4 0" stroke="#ede9fe" stroke-width="1" fill="none"></path></g><g stroke-linecap="round"><g transform="translate(0 0) rotate(0 95 0)"><path d="M0 0 C31.67 0, 158.33 0, 190 0 M0 0 C31.67 0, 158.33 0, 190 0" stroke="#7c3aed" stroke-width="1" fill="none"></path></g></g><mask></mask><g transform="translate(0 0) rotate(0 20 5.949999999999989)"><text x="20" y="8.126" font-family="Segoe UI Emoji" font-size="8.5px" fill="#64748b" text-anchor="middle" style="white-space: pre;" direction="ltr" dominant-baseline="alphabetic">«enum»</text></g><g transform="translate(0 0) rotate(0 33.275000000000006 7.699999999999989)"><text x="33.275000000000006" y="10.515999999999998" font-family="Segoe UI Emoji" font-size="11px" fill="#1e293b" text-anchor="middle" style="white-space: pre;" direction="ltr" dominant-baseline="alphabetic">TriggerType</text></g><g transform="translate(0 0) rotate(0 20 6.650000000000006)"><text x="20" y="9.081999999999999" font-family="Segoe UI Emoji" font-size="9.5px" fill="#1e293b" text-anchor="middle" style="white-space: pre;" direction="ltr" dominant-baseline="alphabetic">Manual</text></g><g transform="translate(0 0) rotate(0 20.900000000000006 6.650000000000006)"><text x="20.900000000000002" y="9.081999999999999" font-family="Segoe UI Emoji" font-size="9.5px" fill="#1e293b" text-anchor="middle" style="white-space: pre;" direction="ltr" dominant-baseline="alphabetic">Schedule</text></g><g transform="translate(0 0) rotate(0 20 6.650000000000006)"><text x="20" y="9.081999999999999" font-family="Segoe UI Emoji" font-size="9.5px" fill="#1e293b" text-anchor="middle" style="white-space: pre;" direction="ltr" dominant-baseline="alphabetic">Webhook</text></g><g transform="translate(0 0) rotate(0 20 6.650000000000006)"><text x="20" y="9.081999999999999" font-family="Segoe UI Emoji" font-size="9.5px" fill="#1e293b" text-anchor="middle" style="white-space: pre;" direction="ltr" dominant-baseline="alphabetic">Event</text></g><g stroke-linecap="round" transform="translate(0 0) rotate(0 95 86)"><path d="M4 0 C48.24 0, 92.49 0, 186 0 C188.67 0, 190 1.33, 190 4 C190 50, 190 96, 190 168 C190 170.67, 188.67 172, 186 172 C119.02 172, 52.03 172, 4 172 C1.33 172, 0 170.67, 0 168 C0 130.22, 0 92.43, 0 4 C0 1.33, 1.33 0, 4 0" stroke="none" stroke-width="0" fill="#ffffff"></path><path d="M4 0 C52.35 0, 100.71 0, 186 0 M4 0 C56.88 0, 109.76 0, 186 0 M186 0 C188.67 0, 190 1.33, 190 4 M186 0 C188.67 0, 190 1.33, 190 4 M190 4 C190 61.61, 190 119.23, 190 168 M190 4 C190 65.17, 190 126.34, 190 168 M190 168 C190 170.67, 188.67 172, 186 172 M190 168 C190 170.67, 188.67 172, 186 172 M186 172 C147.41 172, 108.83 172, 4 172 M186 172 C122.32 172, 58.64 172, 4 172 M4 172 C1.33 172, 0 170.67, 0 168 M4 172 C1.33 172, 0 170.67, 0 168 M0 168 C0 125.84, 0 83.69, 0 4 M0 168 C0 123.35, 0 78.7, 0 4 M0 4 C0 1.33, 1.33 0, 4 0 M0 4 C0 1.33, 1.33 0, 4 0" stroke="#3b82f6" stroke-width="1.5" fill="none"></path></g><g stroke-linecap="round" transform="translate(0 0) rotate(0 95 14)"><path d="M4 0 C73.95 0, 143.89 0, 186 0 C188.67 0, 190 1.33, 190 4 C190 10.36, 190 16.71, 190 24 C190 26.67, 188.67 28, 186 28 C116.01 28, 46.02 28, 4 28 C1.33 28, 0 26.67, 0 24 C0 19.24, 0 14.48, 0 4 C0 1.33, 1.33 0, 4 0" stroke="none" stroke-width="0" fill="#dbeafe"></path><path d="M4 0 C63.38 0, 122.75 0, 186 0 M4 0 C51.02 0, 98.04 0, 186 0 M186 0 C188.67 0, 190 1.33, 190 4 M186 0 C188.67 0, 190 1.33, 190 4 M190 4 C190 9.65, 190 15.29, 190 24 M190 4 C190 11.36, 190 18.73, 190 24 M190 24 C190 26.67, 188.67 28, 186 28 M190 24 C190 26.67, 188.67 28, 186 28 M186 28 C131.62 28, 77.23 28, 4 28 M186 28 C140.37 28, 94.75 28, 4 28 M4 28 C1.33 28, 0 26.67, 0 24 M4 28 C1.33 28, 0 26.67, 0 24 M0 24 C0 18.15, 0 12.3, 0 4 M0 24 C0 18.87, 0 13.74, 0 4 M0 4 C0 1.33, 1.33 0, 4 0 M0 4 C0 1.33, 1.33 0, 4 0" stroke="#dbeafe" stroke-width="1" fill="none"></path></g><g stroke-linecap="round"><g transform="translate(0 0) rotate(0 95 0)"><path d="M0 0 C31.67 0, 158.33 0, 190 0 M0 0 C31.67 0, 158.33 0, 190 0" stroke="#3b82f6" stroke-width="1" fill="none"></path></g></g><mask></mask><g transform="translate(0 0) rotate(0 42.35000000000002 7.700000000000003)"><text x="42.35" y="10.515999999999998" font-family="Segoe UI Emoji" font-size="11px" fill="#1e293b" text-anchor="middle" style="white-space: pre;" direction="ltr" dominant-baseline="alphabetic">StepDefinition</text></g><g transform="translate(0 0) rotate(0 23.51249999999999 6.649999999999999)"><text x="23.512500000000003" y="9.081999999999999" font-family="Segoe UI Emoji" font-size="9.5px" fill="#1e293b" text-anchor="middle" style="white-space: pre;" direction="ltr" dominant-baseline="alphabetic">+id: UUID</text></g><g transform="translate(0 0) rotate(0 44.41250000000002 6.649999999999999)"><text x="44.4125" y="9.081999999999999" font-family="Segoe UI Emoji" font-size="9.5px" fill="#1e293b" text-anchor="middle" style="white-space: pre;" direction="ltr" dominant-baseline="alphabetic">+workflowId: UUID</text></g><g transform="translate(0 0) rotate(0 33.96249999999998 6.650000000000006)"><text x="33.962500000000006" y="9.081999999999999" font-family="Segoe UI Emoji" font-size="9.5px" fill="#1e293b" text-anchor="middle" style="white-space: pre;" direction="ltr" dominant-baseline="alphabetic">+name: string</text></g><g transform="translate(0 0) rotate(0 39.1875 6.650000000000006)"><text x="39.1875" y="9.081999999999999" font-family="Segoe UI Emoji" font-size="9.5px" fill="#1e293b" text-anchor="middle" style="white-space: pre;" direction="ltr" dominant-baseline="alphabetic">+type: StepType</text></g><g transform="translate(0 0) rotate(0 36.57499999999999 6.650000000000006)"><text x="36.575" y="9.081999999999999" font-family="Segoe UI Emoji" font-size="9.5px" fill="#1e293b" text-anchor="middle" style="white-space: pre;" direction="ltr" dominant-baseline="alphabetic">+config: JSONB</text></g><g transform="translate(0 0) rotate(0 44.41250000000002 6.650000000000006)"><text x="44.4125" y="9.081999999999999" font-family="Segoe UI Emoji" font-size="9.5px" fill="#1e293b" text-anchor="middle" style="white-space: pre;" direction="ltr" dominant-baseline="alphabetic">+positionX: float</text></g><g transform="translate(0 0) rotate(0 44.41250000000002 6.650000000000006)"><text x="44.4125" y="9.081999999999999" font-family="Segoe UI Emoji" font-size="9.5px" fill="#1e293b" text-anchor="middle" style="white-space: pre;" direction="ltr" dominant-baseline="alphabetic">+positionY: float</text></g><g transform="translate(0 0) rotate(0 47.02499999999998 6.650000000000006)"><text x="47.025000000000006" y="9.081999999999999" font-family="Segoe UI Emoji" font-size="9.5px" fill="#1e293b" text-anchor="middle" style="white-space: pre;" direction="ltr" dominant-baseline="alphabetic">+displayOrder: int</text></g><g stroke-linecap="round" transform="translate(0 0) rotate(0 95 64.5)"><path d="M4 0 C72.4 0, 140.8 0, 186 0 C188.67 0, 190 1.33, 190 4 C190 36.2, 190 68.41, 190 125 C190 127.67, 188.67 129, 186 129 C144.84 129, 103.67 129, 4 129 C1.33 129, 0 127.67, 0 125 C0 80.52, 0 36.05, 0 4 C0 1.33, 1.33 0, 4 0" stroke="none" stroke-width="0" fill="#ffffff"></path><path d="M4 0 C73.32 0, 142.63 0, 186 0 M4 0 C60.64 0, 117.28 0, 186 0 M186 0 C188.67 0, 190 1.33, 190 4 M186 0 C188.67 0, 190 1.33, 190 4 M190 4 C190 42.45, 190 80.9, 190 125 M190 4 C190 36.83, 190 69.66, 190 125 M190 125 C190 127.67, 188.67 129, 186 129 M190 125 C190 127.67, 188.67 129, 186 129 M186 129 C130.72 129, 75.44 129, 4 129 M186 129 C140.16 129, 94.31 129, 4 129 M4 129 C1.33 129, 0 127.67, 0 125 M4 129 C1.33 129, 0 127.67, 0 125 M0 125 C0 84, 0 43, 0 4 M0 125 C0 95.65, 0 66.3, 0 4 M0 4 C0 1.33, 1.33 0, 4 0 M0 4 C0 1.33, 1.33 0, 4 0" stroke="#7c3aed" stroke-width="1.5" fill="none"></path></g><g stroke-linecap="round" transform="translate(0 0) rotate(0 95 18)"><path d="M4 0 C47.39 0, 90.77 0, 186 0 C188.67 0, 190 1.33, 190 4 C190 10.93, 190 17.87, 190 32 C190 34.67, 188.67 36, 186 36 C141.26 36, 96.52 36, 4 36 C1.33 36, 0 34.67, 0 32 C0 24.03, 0 16.06, 0 4 C0 1.33, 1.33 0, 4 0" stroke="none" stroke-width="0" fill="#ede9fe"></path><path d="M4 0 C68.96 0, 133.92 0, 186 0 M4 0 C46.25 0, 88.49 0, 186 0 M186 0 C188.67 0, 190 1.33, 190 4 M186 0 C188.67 0, 190 1.33, 190 4 M190 4 C190 14.86, 190 25.73, 190 32 M190 4 C190 10.29, 190 16.58, 190 32 M190 32 C190 34.67, 188.67 36, 186 36 M190 32 C190 34.67, 188.67 36, 186 36 M186 36 C129.49 36, 72.98 36, 4 36 M186 36 C136.51 36, 87.02 36, 4 36 M4 36 C1.33 36, 0 34.67, 0 32 M4 36 C1.33 36, 0 34.67, 0 32 M0 32 C0 25.66, 0 19.32, 0 4 M0 32 C0 25.57, 0 19.15, 0 4 M0 4 C0 1.33, 1.33 0, 4 0 M0 4 C0 1.33, 1.33 0, 4 0" stroke="#ede9fe" stroke-width="1" fill="none"></path></g><g stroke-linecap="round"><g transform="translate(0 0) rotate(0 95 0)"><path d="M0 0 C31.67 0, 158.33 0, 190 0 M0 0 C31.67 0, 158.33 0, 190 0" stroke="#7c3aed" stroke-width="1" fill="none"></path></g></g><mask></mask><g transform="translate(0 0) rotate(0 20 5.949999999999989)"><text x="20" y="8.126" font-family="Segoe UI Emoji" font-size="8.5px" fill="#64748b" text-anchor="middle" style="white-space: pre;" direction="ltr" dominant-baseline="alphabetic">«enum»</text></g><g transform="translate(0 0) rotate(0 24.19999999999999 7.699999999999989)"><text x="24.200000000000003" y="10.515999999999998" font-family="Segoe UI Emoji" font-size="11px" fill="#1e293b" text-anchor="middle" style="white-space: pre;" direction="ltr" dominant-baseline="alphabetic">StepType</text></g><g transform="translate(0 0) rotate(0 20 6.650000000000006)"><text x="20" y="9.081999999999999" font-family="Segoe UI Emoji" font-size="9.5px" fill="#1e293b" text-anchor="middle" style="white-space: pre;" direction="ltr" dominant-baseline="alphabetic">Form</text></g><g transform="translate(0 0) rotate(0 28.73750000000001 6.650000000000006)"><text x="28.7375" y="9.081999999999999" font-family="Segoe UI Emoji" font-size="9.5px" fill="#1e293b" text-anchor="middle" style="white-space: pre;" direction="ltr" dominant-baseline="alphabetic">HttpRequest</text></g><g transform="translate(0 0) rotate(0 23.51249999999999 6.650000000000006)"><text x="23.512500000000003" y="9.081999999999999" font-family="Segoe UI Emoji" font-size="9.5px" fill="#1e293b" text-anchor="middle" style="white-space: pre;" direction="ltr" dominant-baseline="alphabetic">Condition</text></g><g transform="translate(0 0) rotate(0 20 6.650000000000006)"><text x="20" y="9.081999999999999" font-family="Segoe UI Emoji" font-size="9.5px" fill="#1e293b" text-anchor="middle" style="white-space: pre;" direction="ltr" dominant-baseline="alphabetic">Script</text></g><g transform="translate(0 0) rotate(0 31.350000000000023 6.650000000000006)"><text x="31.35" y="9.081999999999999" font-family="Segoe UI Emoji" font-size="9.5px" fill="#1e293b" text-anchor="middle" style="white-space: pre;" direction="ltr" dominant-baseline="alphabetic">Notification</text></g><g stroke-linecap="round" transform="translate(0 0) rotate(0 95 77.5)"><path d="M4 0 C49.58 0, 95.17 0, 186 0 C188.67 0, 190 1.33, 190 4 C190 44.8, 190 85.6, 190 151 C190 153.67, 188.67 155, 186 155 C141.69 155, 97.39 155, 4 155 C1.33 155, 0 153.67, 0 151 C0 102.49, 0 53.97, 0 4 C0 1.33, 1.33 0, 4 0" stroke="none" stroke-width="0" fill="#ffffff"></path><path d="M4 0 C41.96 0, 79.92 0, 186 0 M4 0 C54.27 0, 104.55 0, 186 0 M186 0 C188.67 0, 190 1.33, 190 4 M186 0 C188.67 0, 190 1.33, 190 4 M190 4 C190 51.69, 190 99.37, 190 151 M190 4 C190 40.74, 190 77.48, 190 151 M190 151 C190 153.67, 188.67 155, 186 155 M190 151 C190 153.67, 188.67 155, 186 155 M186 155 C142.25 155, 98.5 155, 4 155 M186 155 C127.41 155, 68.83 155, 4 155 M4 155 C1.33 155, 0 153.67, 0 151 M4 155 C1.33 155, 0 153.67, 0 151 M0 151 C0 109.11, 0 67.23, 0 4 M0 151 C0 107.29, 0 63.58, 0 4 M0 4 C0 1.33, 1.33 0, 4 0 M0 4 C0 1.33, 1.33 0, 4 0" stroke="#3b82f6" stroke-width="1.5" fill="none"></path></g><g stroke-linecap="round" transform="translate(0 0) rotate(0 95 14)"><path d="M4 0 C54.31 0, 104.62 0, 186 0 C188.67 0, 190 1.33, 190 4 C190 9.63, 190 15.25, 190 24 C190 26.67, 188.67 28, 186 28 C141.24 28, 96.48 28, 4 28 C1.33 28, 0 26.67, 0 24 C0 19.97, 0 15.95, 0 4 C0 1.33, 1.33 0, 4 0" stroke="none" stroke-width="0" fill="#dbeafe"></path><path d="M4 0 C46.38 0, 88.76 0, 186 0 M4 0 C49.08 0, 94.16 0, 186 0 M186 0 C188.67 0, 190 1.33, 190 4 M186 0 C188.67 0, 190 1.33, 190 4 M190 4 C190 10.29, 190 16.58, 190 24 M190 4 C190 10.08, 190 16.16, 190 24 M190 24 C190 26.67, 188.67 28, 186 28 M190 24 C190 26.67, 188.67 28, 186 28 M186 28 C124.07 28, 62.15 28, 4 28 M186 28 C113.53 28, 41.06 28, 4 28 M4 28 C1.33 28, 0 26.67, 0 24 M4 28 C1.33 28, 0 26.67, 0 24 M0 24 C0 19.96, 0 15.93, 0 4 M0 24 C0 17.5, 0 11, 0 4 M0 4 C0 1.33, 1.33 0, 4 0 M0 4 C0 1.33, 1.33 0, 4 0" stroke="#dbeafe" stroke-width="1" fill="none"></path></g><g stroke-linecap="round"><g transform="translate(0 0) rotate(0 95 0)"><path d="M0 0 C31.67 0, 158.33 0, 190 0 M0 0 C31.67 0, 158.33 0, 190 0" stroke="#3b82f6" stroke-width="1" fill="none"></path></g></g><mask></mask><g transform="translate(0 0) rotate(0 30.25 7.700000000000003)"><text x="30.250000000000004" y="10.515999999999998" font-family="Segoe UI Emoji" font-size="11px" fill="#1e293b" text-anchor="middle" style="white-space: pre;" direction="ltr" dominant-baseline="alphabetic">Transition</text></g><g transform="translate(0 0) rotate(0 23.51249999999999 6.649999999999999)"><text x="23.512500000000003" y="9.081999999999999" font-family="Segoe UI Emoji" font-size="9.5px" fill="#1e293b" text-anchor="middle" style="white-space: pre;" direction="ltr" dominant-baseline="alphabetic">+id: UUID</text></g><g transform="translate(0 0) rotate(0 44.41250000000002 6.649999999999999)"><text x="44.4125" y="9.081999999999999" font-family="Segoe UI Emoji" font-size="9.5px" fill="#1e293b" text-anchor="middle" style="white-space: pre;" direction="ltr" dominant-baseline="alphabetic">+workflowId: UUID</text></g><g transform="translate(0 0) rotate(0 44.41250000000002 6.650000000000006)"><text x="44.4125" y="9.081999999999999" font-family="Segoe UI Emoji" font-size="9.5px" fill="#1e293b" text-anchor="middle" style="white-space: pre;" direction="ltr" dominant-baseline="alphabetic">+fromStepId: UUID</text></g><g transform="translate(0 0) rotate(0 39.1875 6.650000000000006)"><text x="39.1875" y="9.081999999999999" font-family="Segoe UI Emoji" font-size="9.5px" fill="#1e293b" text-anchor="middle" style="white-space: pre;" direction="ltr" dominant-baseline="alphabetic">+toStepId: UUID</text></g><g transform="translate(0 0) rotate(0 36.57499999999999 6.650000000000006)"><text x="36.575" y="9.081999999999999" font-family="Segoe UI Emoji" font-size="9.5px" fill="#1e293b" text-anchor="middle" style="white-space: pre;" direction="ltr" dominant-baseline="alphabetic">+label: string</text></g><g transform="translate(0 0) rotate(0 47.02499999999998 6.650000000000006)"><text x="47.025000000000006" y="9.081999999999999" font-family="Segoe UI Emoji" font-size="9.5px" fill="#1e293b" text-anchor="middle" style="white-space: pre;" direction="ltr" dominant-baseline="alphabetic">+condition: string</text></g><g transform="translate(0 0) rotate(0 47.02499999999998 6.650000000000006)"><text x="47.025000000000006" y="9.081999999999999" font-family="Segoe UI Emoji" font-size="9.5px" fill="#1e293b" text-anchor="middle" style="white-space: pre;" direction="ltr" dominant-baseline="alphabetic">+displayOrder: int</text></g><g stroke-linecap="round" transform="translate(0 0) rotate(0 95 52)"><path d="M4 0 C69.34 0, 134.67 0, 186 0 C188.67 0, 190 1.33, 190 4 C190 29.17, 190 54.33, 190 100 C190 102.67, 188.67 104, 186 104 C116.92 104, 47.83 104, 4 104 C1.33 104, 0 102.67, 0 100 C0 70.9, 0 41.8, 0 4 C0 1.33, 1.33 0, 4 0" stroke="none" stroke-width="0" fill="#ffffff"></path><path d="M4 0 C63.12 0, 122.24 0, 186 0 M4 0 C47.89 0, 91.79 0, 186 0 M186 0 C188.67 0, 190 1.33, 190 4 M186 0 C188.67 0, 190 1.33, 190 4 M190 4 C190 24.32, 190 44.63, 190 100 M190 4 C190 35.18, 190 66.37, 190 100 M190 100 C190 102.67, 188.67 104, 186 104 M190 100 C190 102.67, 188.67 104, 186 104 M186 104 C113.36 104, 40.72 104, 4 104 M186 104 C134.65 104, 83.29 104, 4 104 M4 104 C1.33 104, 0 102.67, 0 100 M4 104 C1.33 104, 0 102.67, 0 100 M0 100 C0 69.24, 0 38.48, 0 4 M0 100 C0 79.84, 0 59.69, 0 4 M0 4 C0 1.33, 1.33 0, 4 0 M0 4 C0 1.33, 1.33 0, 4 0" stroke="#3b82f6" stroke-width="1.5" fill="none"></path></g><g stroke-linecap="round" transform="translate(0 0) rotate(0 95 14)"><path d="M4 0 C59.5 0, 115 0, 186 0 C188.67 0, 190 1.33, 190 4 C190 9.22, 190 14.44, 190 24 C190 26.67, 188.67 28, 186 28 C131.54 28, 77.07 28, 4 28 C1.33 28, 0 26.67, 0 24 C0 18.75, 0 13.51, 0 4 C0 1.33, 1.33 0, 4 0" stroke="none" stroke-width="0" fill="#dbeafe"></path><path d="M4 0 C45.93 0, 87.86 0, 186 0 M4 0 C62.8 0, 121.61 0, 186 0 M186 0 C188.67 0, 190 1.33, 190 4 M186 0 C188.67 0, 190 1.33, 190 4 M190 4 C190 10.11, 190 16.23, 190 24 M190 4 C190 9.13, 190 14.26, 190 24 M190 24 C190 26.67, 188.67 28, 186 28 M190 24 C190 26.67, 188.67 28, 186 28 M186 28 C124.84 28, 63.67 28, 4 28 M186 28 C129.06 28, 72.13 28, 4 28 M4 28 C1.33 28, 0 26.67, 0 24 M4 28 C1.33 28, 0 26.67, 0 24 M0 24 C0 17.13, 0 10.26, 0 4 M0 24 C0 16.56, 0 9.11, 0 4 M0 4 C0 1.33, 1.33 0, 4 0 M0 4 C0 1.33, 1.33 0, 4 0" stroke="#dbeafe" stroke-width="1" fill="none"></path></g><g stroke-linecap="round"><g transform="translate(0 0) rotate(0 95 0)"><path d="M0 0 C31.67 0, 158.33 0, 190 0 M0 0 C31.67 0, 158.33 0, 190 0" stroke="#3b82f6" stroke-width="1" fill="none"></path></g></g><mask></mask><g transform="translate(0 0) rotate(0 39.32499999999999 7.699999999999989)"><text x="39.325" y="10.515999999999998" font-family="Segoe UI Emoji" font-size="11px" fill="#1e293b" text-anchor="middle" style="white-space: pre;" direction="ltr" dominant-baseline="alphabetic">ParallelGroup</text></g><g transform="translate(0 0) rotate(0 23.51249999999999 6.650000000000006)"><text x="23.512500000000003" y="9.081999999999999" font-family="Segoe UI Emoji" font-size="9.5px" fill="#1e293b" text-anchor="middle" style="white-space: pre;" direction="ltr" dominant-baseline="alphabetic">+id: UUID</text></g><g transform="translate(0 0) rotate(0 44.41250000000002 6.650000000000006)"><text x="44.4125" y="9.081999999999999" font-family="Segoe UI Emoji" font-size="9.5px" fill="#1e293b" text-anchor="middle" style="white-space: pre;" direction="ltr" dominant-baseline="alphabetic">+workflowId: UUID</text></g><g transform="translate(0 0) rotate(0 33.96249999999998 6.650000000000006)"><text x="33.962500000000006" y="9.081999999999999" font-family="Segoe UI Emoji" font-size="9.5px" fill="#1e293b" text-anchor="middle" style="white-space: pre;" direction="ltr" dominant-baseline="alphabetic">+name: string</text></g><g transform="translate(0 0) rotate(0 49.63749999999999 6.650000000000006)"><text x="49.6375" y="9.081999999999999" font-family="Segoe UI Emoji" font-size="9.5px" fill="#1e293b" text-anchor="middle" style="white-space: pre;" direction="ltr" dominant-baseline="alphabetic">+joinType: JoinType</text></g><g stroke-linecap="round" transform="translate(0 0) rotate(0 95 39)"><path d="M4 0 C44.69 0, 85.38 0, 186 0 C188.67 0, 190 1.33, 190 4 C190 31.61, 190 59.22, 190 74 C190 76.67, 188.67 78, 186 78 C118.67 78, 51.33 78, 4 78 C1.33 78, 0 76.67, 0 74 C0 53.7, 0 33.41, 0 4 C0 1.33, 1.33 0, 4 0" stroke="none" stroke-width="0" fill="#ffffff"></path><path d="M4 0 C52.33 0, 100.66 0, 186 0 M4 0 C51.09 0, 98.18 0, 186 0 M186 0 C188.67 0, 190 1.33, 190 4 M186 0 C188.67 0, 190 1.33, 190 4 M190 4 C190 18.61, 190 33.22, 190 74 M190 4 C190 24.85, 190 45.69, 190 74 M190 74 C190 76.67, 188.67 78, 186 78 M190 74 C190 76.67, 188.67 78, 186 78 M186 78 C126.64 78, 67.27 78, 4 78 M186 78 C138.78 78, 91.56 78, 4 78 M4 78 C1.33 78, 0 76.67, 0 74 M4 78 C1.33 78, 0 76.67, 0 74 M0 74 C0 48.38, 0 22.76, 0 4 M0 74 C0 52.77, 0 31.53, 0 4 M0 4 C0 1.33, 1.33 0, 4 0 M0 4 C0 1.33, 1.33 0, 4 0" stroke="#7c3aed" stroke-width="1.5" fill="none"></path></g><g stroke-linecap="round" transform="translate(0 0) rotate(0 95 18)"><path d="M4 0 C65.81 0, 127.61 0, 186 0 C188.67 0, 190 1.33, 190 4 C190 13.24, 190 22.48, 190 32 C190 34.67, 188.67 36, 186 36 C139.76 36, 93.53 36, 4 36 C1.33 36, 0 34.67, 0 32 C0 23.51, 0 15.01, 0 4 C0 1.33, 1.33 0, 4 0" stroke="none" stroke-width="0" fill="#ede9fe"></path><path d="M4 0 C73.12 0, 142.24 0, 186 0 M4 0 C56.55 0, 109.09 0, 186 0 M186 0 C188.67 0, 190 1.33, 190 4 M186 0 C188.67 0, 190 1.33, 190 4 M190 4 C190 11.9, 190 19.8, 190 32 M190 4 C190 9.8, 190 15.59, 190 32 M190 32 C190 34.67, 188.67 36, 186 36 M190 32 C190 34.67, 188.67 36, 186 36 M186 36 C129.4 36, 72.8 36, 4 36 M186 36 C145.35 36, 104.69 36, 4 36 M4 36 C1.33 36, 0 34.67, 0 32 M4 36 C1.33 36, 0 34.67, 0 32 M0 32 C0 22.73, 0 13.46, 0 4 M0 32 C0 22.21, 0 12.41, 0 4 M0 4 C0 1.33, 1.33 0, 4 0 M0 4 C0 1.33, 1.33 0, 4 0" stroke="#ede9fe" stroke-width="1" fill="none"></path></g><g stroke-linecap="round"><g transform="translate(0 0) rotate(0 95 0)"><path d="M0 0 C31.67 0, 158.33 0, 190 0 M0 0 C31.67 0, 158.33 0, 190 0" stroke="#7c3aed" stroke-width="1" fill="none"></path></g></g><mask></mask><g transform="translate(0 0) rotate(0 20 5.949999999999989)"><text x="20" y="8.126" font-family="Segoe UI Emoji" font-size="8.5px" fill="#64748b" text-anchor="middle" style="white-space: pre;" direction="ltr" dominant-baseline="alphabetic">«enum»</text></g><g transform="translate(0 0) rotate(0 24.19999999999999 7.699999999999989)"><text x="24.200000000000003" y="10.515999999999998" font-family="Segoe UI Emoji" font-size="11px" fill="#1e293b" text-anchor="middle" style="white-space: pre;" direction="ltr" dominant-baseline="alphabetic">JoinType</text></g><g transform="translate(0 0) rotate(0 20 6.649999999999977)"><text x="20" y="9.081999999999999" font-family="Segoe UI Emoji" font-size="9.5px" fill="#1e293b" text-anchor="middle" style="white-space: pre;" direction="ltr" dominant-baseline="alphabetic">WaitAll</text></g><g transform="translate(0 0) rotate(0 20 6.649999999999977)"><text x="20" y="9.081999999999999" font-family="Segoe UI Emoji" font-size="9.5px" fill="#1e293b" text-anchor="middle" style="white-space: pre;" direction="ltr" dominant-baseline="alphabetic">WaitAny</text></g><g stroke-linecap="round"><g transform="translate(0 0) rotate(0 0 NaN)"><path d="M0 0 C0 0, 0 0, 0 0 M0 0 C0 0, 0 0, 0 0" stroke="#475569" stroke-width="1.5" fill="none"></path></g><g transform="translate(0 0) rotate(0 0 NaN)"><path d="MNaN NaN CNaN NaN, NaN NaN, 0 0 MNaN NaN CNaN NaN, NaN NaN, 0 0" stroke="#475569" stroke-width="1.5" fill="none"></path></g><g transform="translate(0 0) rotate(0 0 NaN)"><path d="MNaN NaN CNaN NaN, NaN NaN, 0 0 MNaN NaN CNaN NaN, NaN NaN, 0 0" stroke="#475569" stroke-width="1.5" fill="none"></path></g></g><mask></mask><g transform="translate(0 0) rotate(0 20 7)"><text x="20" y="9.559999999999999" font-family="Segoe UI Emoji" font-size="10px" fill="#64748b" text-anchor="middle" style="white-space: pre;" direction="ltr" dominant-baseline="alphabetic">status</text></g><g stroke-linecap="round"><g transform="translate(0 0) rotate(0 30 -12)"><path d="M0 0 C10 -4, 50 -20, 60 -24 M0 0 C10 -4, 50 -20, 60 -24" stroke="#475569" stroke-width="1.5" fill="none"></path></g><g transform="translate(0 0) rotate(0 30 -12)"><path d="M41.36 -7.34 C47.42 -12.75, 53.47 -18.16, 60 -24 M41.36 -7.34 C48.54 -13.75, 55.72 -20.17, 60 -24" stroke="#475569" stroke-width="1.5" fill="none"></path></g><g transform="translate(0 0) rotate(0 30 -12)"><path d="M35.01 -23.21 C43.13 -23.47, 51.25 -23.72, 60 -24 M35.01 -23.21 C44.64 -23.52, 54.26 -23.82, 60 -24" stroke="#475569" stroke-width="1.5" fill="none"></path></g></g><mask></mask><g transform="translate(0 0) rotate(0 20 7)"><text x="20" y="9.559999999999999" font-family="Segoe UI Emoji" font-size="10px" fill="#64748b" text-anchor="middle" style="white-space: pre;" direction="ltr" dominant-baseline="alphabetic">1 -- 1</text></g><g stroke-linecap="round"><g transform="translate(0 0) rotate(0 155 -5)"><path d="M0 0 C51.67 -1.67, 258.33 -8.33, 310 -10 M0 0 C51.67 -1.67, 258.33 -8.33, 310 -10" stroke="#475569" stroke-width="1.5" fill="none"></path></g><g transform="translate(0 0) rotate(0 155 -5)"><path d="M286.8 -0.7 C294.63 -3.84, 302.46 -6.98, 310 -10 M286.8 -0.7 C294.47 -3.77, 302.15 -6.85, 310 -10" stroke="#475569" stroke-width="1.5" fill="none"></path></g><g transform="translate(0 0) rotate(0 155 -5)"><path d="M286.24 -17.79 C294.26 -15.16, 302.28 -12.53, 310 -10 M286.24 -17.79 C294.1 -15.21, 301.96 -12.63, 310 -10" stroke="#475569" stroke-width="1.5" fill="none"></path></g></g><mask></mask><g transform="translate(0 0) rotate(0 20 7)"><text x="20" y="9.559999999999999" font-family="Segoe UI Emoji" font-size="10px" fill="#64748b" text-anchor="middle" style="white-space: pre;" direction="ltr" dominant-baseline="alphabetic">1 *--</text></g><g stroke-linecap="round"><g transform="translate(0 0) rotate(0 280 -19.25)"><path d="M0 0 C93.33 -6.42, 466.67 -32.08, 560 -38.5 M0 0 C93.33 -6.42, 466.67 -32.08, 560 -38.5" stroke="#475569" stroke-width="1.5" fill="none"></path></g><g transform="translate(0 0) rotate(0 280 -19.25)"><path d="M537.15 -28.36 C541.93 -30.48, 546.7 -32.6, 560 -38.5 M537.15 -28.36 C545.27 -31.96, 553.4 -35.57, 560 -38.5" stroke="#475569" stroke-width="1.5" fill="none"></path></g><g transform="translate(0 0) rotate(0 280 -19.25)"><path d="M535.98 -45.42 C541 -43.97, 546.02 -42.53, 560 -38.5 M535.98 -45.42 C544.52 -42.96, 553.06 -40.5, 560 -38.5" stroke="#475569" stroke-width="1.5" fill="none"></path></g></g><mask></mask><g transform="translate(0 0) rotate(0 20 7)"><text x="20" y="9.559999999999999" font-family="Segoe UI Emoji" font-size="10px" fill="#64748b" text-anchor="middle" style="white-space: pre;" direction="ltr" dominant-baseline="alphabetic">1 *--</text></g><g stroke-linecap="round"><g transform="translate(0 0) rotate(0 0 NaN)"><path d="M0 0 C0 0, 0 0, 0 0 M0 0 C0 0, 0 0, 0 0" stroke="#475569" stroke-width="1.5" fill="none"></path></g><g transform="translate(0 0) rotate(0 0 NaN)"><path d="MNaN NaN CNaN NaN, NaN NaN, 0 0 MNaN NaN CNaN NaN, NaN NaN, 0 0" stroke="#475569" stroke-width="1.5" fill="none"></path></g><g transform="translate(0 0) rotate(0 0 NaN)"><path d="MNaN NaN CNaN NaN, NaN NaN, 0 0 MNaN NaN CNaN NaN, NaN NaN, 0 0" stroke="#475569" stroke-width="1.5" fill="none"></path></g></g><mask></mask><g transform="translate(0 0) rotate(0 20 7)"><text x="20" y="9.559999999999999" font-family="Segoe UI Emoji" font-size="10px" fill="#64748b" text-anchor="middle" style="white-space: pre;" direction="ltr" dominant-baseline="alphabetic">type</text></g><g stroke-linecap="round"><g transform="translate(0 0) rotate(0 0 NaN)"><path d="M0 0 C0 0, 0 0, 0 0 M0 0 C0 0, 0 0, 0 0" stroke="#475569" stroke-width="1.5" fill="none"></path></g><g transform="translate(0 0) rotate(0 0 NaN)"><path d="MNaN NaN CNaN NaN, NaN NaN, 0 0 MNaN NaN CNaN NaN, NaN NaN, 0 0" stroke="#475569" stroke-width="1.5" fill="none"></path></g><g transform="translate(0 0) rotate(0 0 NaN)"><path d="MNaN NaN CNaN NaN, NaN NaN, 0 0 MNaN NaN CNaN NaN, NaN NaN, 0 0" stroke="#475569" stroke-width="1.5" fill="none"></path></g></g><mask></mask><g transform="translate(0 0) rotate(0 20 7)"><text x="20" y="9.559999999999999" font-family="Segoe UI Emoji" font-size="10px" fill="#64748b" text-anchor="middle" style="white-space: pre;" direction="ltr" dominant-baseline="alphabetic">type</text></g><g stroke-linecap="round"><g transform="translate(0 0) rotate(0 0 NaN)"><path d="M0 0 C0 0, 0 0, 0 0 M0 0 C0 0, 0 0, 0 0" stroke="#475569" stroke-width="1.5" fill="none"></path></g><g transform="translate(0 0) rotate(0 0 NaN)"><path d="MNaN NaN CNaN NaN, NaN NaN, 0 0 MNaN NaN CNaN NaN, NaN NaN, 0 0" stroke="#475569" stroke-width="1.5" fill="none"></path></g><g transform="translate(0 0) rotate(0 0 NaN)"><path d="MNaN NaN CNaN NaN, NaN NaN, 0 0 MNaN NaN CNaN NaN, NaN NaN, 0 0" stroke="#475569" stroke-width="1.5" fill="none"></path></g></g><mask></mask><g transform="translate(0 0) rotate(0 22 7)"><text x="22" y="9.559999999999999" font-family="Segoe UI Emoji" font-size="10px" fill="#64748b" text-anchor="middle" style="white-space: pre;" direction="ltr" dominant-baseline="alphabetic">joinType</text></g><g stroke-linecap="round"><g transform="translate(0 0) rotate(0 30 113)"><path d="M0 0 C10 37.67, 50 188.33, 60 226" stroke="#475569" stroke-width="2" fill="none" stroke-dasharray="8 9.5"></path></g><g transform="translate(0 0) rotate(0 30 113)"><path d="M45.71 205.49 C50.98 213.05, 56.25 220.62, 60 226" stroke="#475569" stroke-width="2" fill="none"></path></g><g transform="translate(0 0) rotate(0 30 113)"><path d="M62.24 201.1 C61.41 210.29, 60.59 219.47, 60 226" stroke="#475569" stroke-width="2" fill="none"></path></g></g><mask></mask><g transform="translate(0 0) rotate(0 20 7)"><text x="20" y="9.559999999999999" font-family="Segoe UI Emoji" font-size="10px" fill="#64748b" text-anchor="middle" style="white-space: pre;" direction="ltr" dominant-baseline="alphabetic">0..1</text></g></svg>