<svg version="1.1" xmlns="http://www.w3.org/2000/svg" viewBox="0 0 690 766" width="690" height="766"><!-- svg-source:excalidraw --><metadata></metadata><defs><style class="style-fonts">
      </style></defs><rect x="0" y="0" width="690" height="766" fill="#f8fafc"></rect><g transform="translate(289.6 10) rotate(0 180.40000000000003 11.2)"><text x="180.4" y="15.296" font-family="Segoe UI Emoji" font-size="16px" fill="#1e293b" text-anchor="middle" style="white-space: pre;" direction="ltr" dominant-baseline="alphabetic">Data Modeling — Core Entity Relationships</text></g><g stroke-linecap="round" transform="translate(10 58) rotate(0 95 86)"><path d="M4 0 C56.33 0, 108.66 0, 186 0 C188.67 0, 190 1.33, 190 4 C190 67.22, 190 130.44, 190 168 C190 170.67, 188.67 172, 186 172 C114.42 172, 42.85 172, 4 172 C1.33 172, 0 170.67, 0 168 C0 110.57, 0 53.14, 0 4 C0 1.33, 1.33 0, 4 0" stroke="none" stroke-width="0" fill="#ffffff"></path><path d="M4 0 C62.15 0, 120.3 0, 186 0 M4 0 C68.72 0, 133.44 0, 186 0 M186 0 C188.67 0, 190 1.33, 190 4 M186 0 C188.67 0, 190 1.33, 190 4 M190 4 C190 53.01, 190 102.01, 190 168 M190 4 C190 43.88, 190 83.77, 190 168 M190 168 C190 170.67, 188.67 172, 186 172 M190 168 C190 170.67, 188.67 172, 186 172 M186 172 C139.99 172, 93.99 172, 4 172 M186 172 C116.21 172, 46.41 172, 4 172 M4 172 C1.33 172, 0 170.67, 0 168 M4 172 C1.33 172, 0 170.67, 0 168 M0 168 C0 130.98, 0 93.97, 0 4 M0 168 C0 112.71, 0 57.42, 0 4 M0 4 C0 1.33, 1.33 0, 4 0 M0 4 C0 1.33, 1.33 0, 4 0" stroke="#3b82f6" stroke-width="1.5" fill="none"></path></g><g stroke-linecap="round" transform="translate(10 58) rotate(0 95 14)"><path d="M4 0 C52.81 0, 101.63 0, 186 0 C188.67 0, 190 1.33, 190 4 C190 11.14, 190 18.28, 190 24 C190 26.67, 188.67 28, 186 28 C147.99 28, 109.97 28, 4 28 C1.33 28, 0 26.67, 0 24 C0 18.21, 0 12.41, 0 4 C0 1.33, 1.33 0, 4 0" stroke="none" stroke-width="0" fill="#dbeafe"></path><path d="M4 0 C57.36 0, 110.72 0, 186 0 M4 0 C41.26 0, 78.52 0, 186 0 M186 0 C188.67 0, 190 1.33, 190 4 M186 0 C188.67 0, 190 1.33, 190 4 M190 4 C190 11.91, 190 19.82, 190 24 M190 4 C190 9.79, 190 15.59, 190 24 M190 24 C190 26.67, 188.67 28, 186 28 M190 24 C190 26.67, 188.67 28, 186 28 M186 28 C137.79 28, 89.58 28, 4 28 M186 28 C130.12 28, 74.24 28, 4 28 M4 28 C1.33 28, 0 26.67, 0 24 M4 28 C1.33 28, 0 26.67, 0 24 M0 24 C0 16.34, 0 8.69, 0 4 M0 24 C0 19.27, 0 14.54, 0 4 M0 4 C0 1.33, 1.33 0, 4 0 M0 4 C0 1.33, 1.33 0, 4 0" stroke="#dbeafe" stroke-width="1" fill="none"></path></g><g stroke-linecap="round"><g transform="translate(10 86) rotate(0 95 0)"><path d="M0 0 C31.67 0, 158.33 0, 190 0 M0 0 C31.67 0, 158.33 0, 190 0" stroke="#3b82f6" stroke-width="1" fill="none"></path></g></g><mask></mask><g transform="translate(59.625 66.5) rotate(0 45.375 7.700000000000003)"><text x="45.37500000000001" y="10.515999999999998" font-family="Segoe UI Emoji" font-size="11px" fill="#1e293b" text-anchor="middle" style="white-space: pre;" direction="ltr" dominant-baseline="alphabetic">ModelDefinition</text></g><g transform="translate(17 93.75) rotate(0 23.512500000000003 6.649999999999999)"><text x="23.512500000000003" y="9.081999999999999" font-family="Segoe UI Emoji" font-size="9.5px" fill="#1e293b" text-anchor="middle" style="white-space: pre;" direction="ltr" dominant-baseline="alphabetic">+id: UUID</text></g><g transform="translate(17 110.75) rotate(0 33.962500000000006 6.649999999999999)"><text x="33.962500000000006" y="9.081999999999999" font-family="Segoe UI Emoji" font-size="9.5px" fill="#1e293b" text-anchor="middle" style="white-space: pre;" direction="ltr" dominant-baseline="alphabetic">+name: string</text></g><g transform="translate(17 127.75) rotate(0 33.962500000000006 6.650000000000006)"><text x="33.962500000000006" y="9.081999999999999" font-family="Segoe UI Emoji" font-size="9.5px" fill="#1e293b" text-anchor="middle" style="white-space: pre;" direction="ltr" dominant-baseline="alphabetic">+slug: string</text></g><g transform="translate(17 144.75) rotate(0 52.25 6.650000000000006)"><text x="52.25000000000001" y="9.081999999999999" font-family="Segoe UI Emoji" font-size="9.5px" fill="#1e293b" text-anchor="middle" style="white-space: pre;" direction="ltr" dominant-baseline="alphabetic">+description: string</text></g><g transform="translate(17 161.75) rotate(0 33.962500000000006 6.650000000000006)"><text x="33.962500000000006" y="9.081999999999999" font-family="Segoe UI Emoji" font-size="9.5px" fill="#1e293b" text-anchor="middle" style="white-space: pre;" direction="ltr" dominant-baseline="alphabetic">+icon: string</text></g><g transform="translate(17 178.75) rotate(0 36.575 6.650000000000006)"><text x="36.575" y="9.081999999999999" font-family="Segoe UI Emoji" font-size="9.5px" fill="#1e293b" text-anchor="middle" style="white-space: pre;" direction="ltr" dominant-baseline="alphabetic">+color: string</text></g><g transform="translate(17 195.75) rotate(0 52.25 6.650000000000006)"><text x="52.25000000000001" y="9.081999999999999" font-family="Segoe UI Emoji" font-size="9.5px" fill="#1e293b" text-anchor="middle" style="white-space: pre;" direction="ltr" dominant-baseline="alphabetic">+createdAt: DateTime</text></g><g transform="translate(17 212.75) rotate(0 52.25 6.650000000000006)"><text x="52.25000000000001" y="9.081999999999999" font-family="Segoe UI Emoji" font-size="9.5px" fill="#1e293b" text-anchor="middle" style="white-space: pre;" direction="ltr" dominant-baseline="alphabetic">+updatedAt: DateTime</text></g><g stroke-linecap="round" transform="translate(250 58) rotate(0 95 94.5)"><path d="M4 0 C61.03 0, 118.06 0, 186 0 C188.67 0, 190 1.33, 190 4 C190 47.94, 190 91.89, 190 185 C190 187.67, 188.67 189, 186 189 C122.3 189, 58.61 189, 4 189 C1.33 189, 0 187.67, 0 185 C0 139.04, 0 93.07, 0 4 C0 1.33, 1.33 0, 4 0" stroke="none" stroke-width="0" fill="#ffffff"></path><path d="M4 0 C66.58 0, 129.16 0, 186 0 M4 0 C48.96 0, 93.91 0, 186 0 M186 0 C188.67 0, 190 1.33, 190 4 M186 0 C188.67 0, 190 1.33, 190 4 M190 4 C190 51.77, 190 99.53, 190 185 M190 4 C190 75.05, 190 146.1, 190 185 M190 185 C190 187.67, 188.67 189, 186 189 M190 185 C190 187.67, 188.67 189, 186 189 M186 189 C129.7 189, 73.39 189, 4 189 M186 189 C146.33 189, 106.66 189, 4 189 M4 189 C1.33 189, 0 187.67, 0 185 M4 189 C1.33 189, 0 187.67, 0 185 M0 185 C0 146.87, 0 108.74, 0 4 M0 185 C0 125.47, 0 65.94, 0 4 M0 4 C0 1.33, 1.33 0, 4 0 M0 4 C0 1.33, 1.33 0, 4 0" stroke="#3b82f6" stroke-width="1.5" fill="none"></path></g><g stroke-linecap="round" transform="translate(250 58) rotate(0 95 14)"><path d="M4 0 C70.3 0, 136.61 0, 186 0 C188.67 0, 190 1.33, 190 4 C190 8.87, 190 13.75, 190 24 C190 26.67, 188.67 28, 186 28 C132.19 28, 78.39 28, 4 28 C1.33 28, 0 26.67, 0 24 C0 17.03, 0 10.06, 0 4 C0 1.33, 1.33 0, 4 0" stroke="none" stroke-width="0" fill="#dbeafe"></path><path d="M4 0 C72.33 0, 140.66 0, 186 0 M4 0 C43.96 0, 83.92 0, 186 0 M186 0 C188.67 0, 190 1.33, 190 4 M186 0 C188.67 0, 190 1.33, 190 4 M190 4 C190 9.4, 190 14.8, 190 24 M190 4 C190 11.07, 190 18.14, 190 24 M190 24 C190 26.67, 188.67 28, 186 28 M190 24 C190 26.67, 188.67 28, 186 28 M186 28 C139.49 28, 92.99 28, 4 28 M186 28 C149.01 28, 112.01 28, 4 28 M4 28 C1.33 28, 0 26.67, 0 24 M4 28 C1.33 28, 0 26.67, 0 24 M0 24 C0 17.87, 0 11.74, 0 4 M0 24 C0 16.3, 0 8.59, 0 4 M0 4 C0 1.33, 1.33 0, 4 0 M0 4 C0 1.33, 1.33 0, 4 0" stroke="#dbeafe" stroke-width="1" fill="none"></path></g><g stroke-linecap="round"><g transform="translate(250 86) rotate(0 95 0)"><path d="M0 0 C31.67 0, 158.33 0, 190 0 M0 0 C31.67 0, 158.33 0, 190 0" stroke="#3b82f6" stroke-width="1" fill="none"></path></g></g><mask></mask><g transform="translate(299.625 66.5) rotate(0 45.375 7.700000000000003)"><text x="45.37500000000001" y="10.515999999999998" font-family="Segoe UI Emoji" font-size="11px" fill="#1e293b" text-anchor="middle" style="white-space: pre;" direction="ltr" dominant-baseline="alphabetic">FieldDefinition</text></g><g transform="translate(257 93.75) rotate(0 23.51249999999999 6.649999999999999)"><text x="23.512500000000003" y="9.081999999999999" font-family="Segoe UI Emoji" font-size="9.5px" fill="#1e293b" text-anchor="middle" style="white-space: pre;" direction="ltr" dominant-baseline="alphabetic">+id: UUID</text></g><g transform="translate(257 110.75) rotate(0 36.57499999999999 6.649999999999999)"><text x="36.575" y="9.081999999999999" font-family="Segoe UI Emoji" font-size="9.5px" fill="#1e293b" text-anchor="middle" style="white-space: pre;" direction="ltr" dominant-baseline="alphabetic">+modelId: UUID</text></g><g transform="translate(257 127.75) rotate(0 33.962500000000006 6.650000000000006)"><text x="33.962500000000006" y="9.081999999999999" font-family="Segoe UI Emoji" font-size="9.5px" fill="#1e293b" text-anchor="middle" style="white-space: pre;" direction="ltr" dominant-baseline="alphabetic">+name: string</text></g><g transform="translate(257 144.75) rotate(0 36.57499999999999 6.650000000000006)"><text x="36.575" y="9.081999999999999" font-family="Segoe UI Emoji" font-size="9.5px" fill="#1e293b" text-anchor="middle" style="white-space: pre;" direction="ltr" dominant-baseline="alphabetic">+label: string</text></g><g transform="translate(257 161.75) rotate(0 41.80000000000001 6.650000000000006)"><text x="41.800000000000004" y="9.081999999999999" font-family="Segoe UI Emoji" font-size="9.5px" fill="#1e293b" text-anchor="middle" style="white-space: pre;" direction="ltr" dominant-baseline="alphabetic">+type: FieldType</text></g><g transform="translate(257 178.75) rotate(0 47.025000000000006 6.650000000000006)"><text x="47.025000000000006" y="9.081999999999999" font-family="Segoe UI Emoji" font-size="9.5px" fill="#1e293b" text-anchor="middle" style="white-space: pre;" direction="ltr" dominant-baseline="alphabetic">+required: boolean</text></g><g transform="translate(257 195.75) rotate(0 47.025000000000006 6.650000000000006)"><text x="47.025000000000006" y="9.081999999999999" font-family="Segoe UI Emoji" font-size="9.5px" fill="#1e293b" text-anchor="middle" style="white-space: pre;" direction="ltr" dominant-baseline="alphabetic">+displayOrder: int</text></g><g transform="translate(257 212.75) rotate(0 36.57499999999999 6.650000000000006)"><text x="36.575" y="9.081999999999999" font-family="Segoe UI Emoji" font-size="9.5px" fill="#1e293b" text-anchor="middle" style="white-space: pre;" direction="ltr" dominant-baseline="alphabetic">+config: JSONB</text></g><g transform="translate(257 229.75) rotate(0 52.25 6.650000000000006)"><text x="52.25000000000001" y="9.081999999999999" font-family="Segoe UI Emoji" font-size="9.5px" fill="#1e293b" text-anchor="middle" style="white-space: pre;" direction="ltr" dominant-baseline="alphabetic">+createdAt: DateTime</text></g><g stroke-linecap="round" transform="translate(490 58) rotate(0 95 98.5)"><path d="M4 0 C55.56 0, 107.13 0, 186 0 C188.67 0, 190 1.33, 190 4 C190 71.58, 190 139.15, 190 193 C190 195.67, 188.67 197, 186 197 C117.09 197, 48.18 197, 4 197 C1.33 197, 0 195.67, 0 193 C0 139.4, 0 85.8, 0 4 C0 1.33, 1.33 0, 4 0" stroke="none" stroke-width="0" fill="#ffffff"></path><path d="M4 0 C41.28 0, 78.56 0, 186 0 M4 0 C75.59 0, 147.18 0, 186 0 M186 0 C188.67 0, 190 1.33, 190 4 M186 0 C188.67 0, 190 1.33, 190 4 M190 4 C190 44.63, 190 85.26, 190 193 M190 4 C190 67.54, 190 131.08, 190 193 M190 193 C190 195.67, 188.67 197, 186 197 M190 193 C190 195.67, 188.67 197, 186 197 M186 197 C140.88 197, 95.76 197, 4 197 M186 197 C148.35 197, 110.7 197, 4 197 M4 197 C1.33 197, 0 195.67, 0 193 M4 197 C1.33 197, 0 195.67, 0 193 M0 193 C0 132.52, 0 72.03, 0 4 M0 193 C0 127.24, 0 61.49, 0 4 M0 4 C0 1.33, 1.33 0, 4 0 M0 4 C0 1.33, 1.33 0, 4 0" stroke="#7c3aed" stroke-width="1.5" fill="none"></path></g><g stroke-linecap="round" transform="translate(490 58) rotate(0 95 18)"><path d="M4 0 C66.42 0, 128.84 0, 186 0 C188.67 0, 190 1.33, 190 4 C190 10.46, 190 16.92, 190 32 C190 34.67, 188.67 36, 186 36 C130.12 36, 74.24 36, 4 36 C1.33 36, 0 34.67, 0 32 C0 21.98, 0 11.96, 0 4 C0 1.33, 1.33 0, 4 0" stroke="none" stroke-width="0" fill="#ede9fe"></path><path d="M4 0 C58.17 0, 112.35 0, 186 0 M4 0 C75.65 0, 147.29 0, 186 0 M186 0 C188.67 0, 190 1.33, 190 4 M186 0 C188.67 0, 190 1.33, 190 4 M190 4 C190 10.16, 190 16.33, 190 32 M190 4 C190 14.54, 190 25.09, 190 32 M190 32 C190 34.67, 188.67 36, 186 36 M190 32 C190 34.67, 188.67 36, 186 36 M186 36 C137.06 36, 88.13 36, 4 36 M186 36 C134.88 36, 83.77 36, 4 36 M4 36 C1.33 36, 0 34.67, 0 32 M4 36 C1.33 36, 0 34.67, 0 32 M0 32 C0 25.12, 0 18.25, 0 4 M0 32 C0 24.28, 0 16.56, 0 4 M0 4 C0 1.33, 1.33 0, 4 0 M0 4 C0 1.33, 1.33 0, 4 0" stroke="#ede9fe" stroke-width="1" fill="none"></path></g><g stroke-linecap="round"><g transform="translate(490 94) rotate(0 95 0)"><path d="M0 0 C31.67 0, 158.33 0, 190 0 M0 0 C31.67 0, 158.33 0, 190 0" stroke="#7c3aed" stroke-width="1" fill="none"></path></g></g><mask></mask><g transform="translate(565 64.75) rotate(0 20 5.950000000000003)"><text x="20" y="8.126" font-family="Segoe UI Emoji" font-size="8.5px" fill="#64748b" text-anchor="middle" style="white-space: pre;" direction="ltr" dominant-baseline="alphabetic">«enum»</text></g><g transform="translate(557.775 78.5) rotate(0 27.225000000000023 7.700000000000003)"><text x="27.225" y="10.515999999999998" font-family="Segoe UI Emoji" font-size="11px" fill="#1e293b" text-anchor="middle" style="white-space: pre;" direction="ltr" dominant-baseline="alphabetic">FieldType</text></g><g transform="translate(497 101.75) rotate(0 20 6.649999999999999)"><text x="20" y="9.081999999999999" font-family="Segoe UI Emoji" font-size="9.5px" fill="#1e293b" text-anchor="middle" style="white-space: pre;" direction="ltr" dominant-baseline="alphabetic">Text</text></g><g transform="translate(497 118.75) rotate(0 20 6.650000000000006)"><text x="20" y="9.081999999999999" font-family="Segoe UI Emoji" font-size="9.5px" fill="#1e293b" text-anchor="middle" style="white-space: pre;" direction="ltr" dominant-baseline="alphabetic">Number</text></g><g transform="translate(497 135.75) rotate(0 20 6.650000000000006)"><text x="20" y="9.081999999999999" font-family="Segoe UI Emoji" font-size="9.5px" fill="#1e293b" text-anchor="middle" style="white-space: pre;" direction="ltr" dominant-baseline="alphabetic">Boolean</text></g><g transform="translate(497 152.75) rotate(0 20 6.650000000000006)"><text x="20" y="9.081999999999999" font-family="Segoe UI Emoji" font-size="9.5px" fill="#1e293b" text-anchor="middle" style="white-space: pre;" direction="ltr" dominant-baseline="alphabetic">Date</text></g><g transform="translate(497 169.75) rotate(0 20 6.650000000000006)"><text x="20" y="9.081999999999999" font-family="Segoe UI Emoji" font-size="9.5px" fill="#1e293b" text-anchor="middle" style="white-space: pre;" direction="ltr" dominant-baseline="alphabetic">Enum</text></g><g transform="translate(497 186.75) rotate(0 20.899999999999977 6.650000000000006)"><text x="20.900000000000002" y="9.081999999999999" font-family="Segoe UI Emoji" font-size="9.5px" fill="#1e293b" text-anchor="middle" style="white-space: pre;" direction="ltr" dominant-baseline="alphabetic">Relation</text></g><g transform="translate(497 203.75) rotate(0 23.51249999999999 6.650000000000006)"><text x="23.512500000000003" y="9.081999999999999" font-family="Segoe UI Emoji" font-size="9.5px" fill="#1e293b" text-anchor="middle" style="white-space: pre;" direction="ltr" dominant-baseline="alphabetic">DataClass</text></g><g transform="translate(497 220.75) rotate(0 20 6.650000000000006)"><text x="20" y="9.081999999999999" font-family="Segoe UI Emoji" font-size="9.5px" fill="#1e293b" text-anchor="middle" style="white-space: pre;" direction="ltr" dominant-baseline="alphabetic">File</text></g><g transform="translate(497 237.75) rotate(0 20 6.650000000000006)"><text x="20" y="9.081999999999999" font-family="Segoe UI Emoji" font-size="9.5px" fill="#1e293b" text-anchor="middle" style="white-space: pre;" direction="ltr" dominant-baseline="alphabetic">JSON</text></g><g stroke-linecap="round" transform="translate(10 348) rotate(0 95 60.5)"><path d="M4 0 C59.72 0, 115.45 0, 186 0 C188.67 0, 190 1.33, 190 4 C190 29.13, 190 54.26, 190 117 C190 119.67, 188.67 121, 186 121 C135.18 121, 84.37 121, 4 121 C1.33 121, 0 119.67, 0 117 C0 85.05, 0 53.09, 0 4 C0 1.33, 1.33 0, 4 0" stroke="none" stroke-width="0" fill="#ffffff"></path><path d="M4 0 C62.74 0, 121.48 0, 186 0 M4 0 C60.06 0, 116.13 0, 186 0 M186 0 C188.67 0, 190 1.33, 190 4 M186 0 C188.67 0, 190 1.33, 190 4 M190 4 C190 38.81, 190 73.62, 190 117 M190 4 C190 46.5, 190 89.01, 190 117 M190 117 C190 119.67, 188.67 121, 186 121 M190 117 C190 119.67, 188.67 121, 186 121 M186 121 C123.62 121, 61.24 121, 4 121 M186 121 C120.96 121, 55.93 121, 4 121 M4 121 C1.33 121, 0 119.67, 0 117 M4 121 C1.33 121, 0 119.67, 0 117 M0 117 C0 79.97, 0 42.93, 0 4 M0 117 C0 91.12, 0 65.24, 0 4 M0 4 C0 1.33, 1.33 0, 4 0 M0 4 C0 1.33, 1.33 0, 4 0" stroke="#3b82f6" stroke-width="1.5" fill="none"></path></g><g stroke-linecap="round" transform="translate(10 348) rotate(0 95 14)"><path d="M4 0 C63.1 0, 122.19 0, 186 0 C188.67 0, 190 1.33, 190 4 C190 9.63, 190 15.27, 190 24 C190 26.67, 188.67 28, 186 28 C141.33 28, 96.66 28, 4 28 C1.33 28, 0 26.67, 0 24 C0 17.31, 0 10.62, 0 4 C0 1.33, 1.33 0, 4 0" stroke="none" stroke-width="0" fill="#dbeafe"></path><path d="M4 0 C57.03 0, 110.05 0, 186 0 M4 0 C51.02 0, 98.03 0, 186 0 M186 0 C188.67 0, 190 1.33, 190 4 M186 0 C188.67 0, 190 1.33, 190 4 M190 4 C190 9.64, 190 15.27, 190 24 M190 4 C190 9.33, 190 14.67, 190 24 M190 24 C190 26.67, 188.67 28, 186 28 M190 24 C190 26.67, 188.67 28, 186 28 M186 28 C132.12 28, 78.23 28, 4 28 M186 28 C131.26 28, 76.52 28, 4 28 M4 28 C1.33 28, 0 26.67, 0 24 M4 28 C1.33 28, 0 26.67, 0 24 M0 24 C0 17.22, 0 10.44, 0 4 M0 24 C0 17.21, 0 10.42, 0 4 M0 4 C0 1.33, 1.33 0, 4 0 M0 4 C0 1.33, 1.33 0, 4 0" stroke="#dbeafe" stroke-width="1" fill="none"></path></g><g stroke-linecap="round"><g transform="translate(10 376) rotate(0 95 0)"><path d="M0 0 C31.67 0, 158.33 0, 190 0 M0 0 C31.67 0, 158.33 0, 190 0" stroke="#3b82f6" stroke-width="1" fill="none"></path></g></g><mask></mask><g transform="translate(47.525000000000006 356.5) rotate(0 57.47500000000001 7.699999999999989)"><text x="57.475" y="10.515999999999998" font-family="Segoe UI Emoji" font-size="11px" fill="#1e293b" text-anchor="middle" style="white-space: pre;" direction="ltr" dominant-baseline="alphabetic">DataClassDefinition</text></g><g transform="translate(17 383.75) rotate(0 23.512500000000003 6.650000000000006)"><text x="23.512500000000003" y="9.081999999999999" font-family="Segoe UI Emoji" font-size="9.5px" fill="#1e293b" text-anchor="middle" style="white-space: pre;" direction="ltr" dominant-baseline="alphabetic">+id: UUID</text></g><g transform="translate(17 400.75) rotate(0 33.962500000000006 6.650000000000006)"><text x="33.962500000000006" y="9.081999999999999" font-family="Segoe UI Emoji" font-size="9.5px" fill="#1e293b" text-anchor="middle" style="white-space: pre;" direction="ltr" dominant-baseline="alphabetic">+name: string</text></g><g transform="translate(17 417.75) rotate(0 52.25 6.650000000000006)"><text x="52.25000000000001" y="9.081999999999999" font-family="Segoe UI Emoji" font-size="9.5px" fill="#1e293b" text-anchor="middle" style="white-space: pre;" direction="ltr" dominant-baseline="alphabetic">+description: string</text></g><g transform="translate(17 434.75) rotate(0 52.25 6.650000000000006)"><text x="52.25000000000001" y="9.081999999999999" font-family="Segoe UI Emoji" font-size="9.5px" fill="#1e293b" text-anchor="middle" style="white-space: pre;" direction="ltr" dominant-baseline="alphabetic">+createdAt: DateTime</text></g><g transform="translate(17 451.75) rotate(0 52.25 6.650000000000006)"><text x="52.25000000000001" y="9.081999999999999" font-family="Segoe UI Emoji" font-size="9.5px" fill="#1e293b" text-anchor="middle" style="white-space: pre;" direction="ltr" dominant-baseline="alphabetic">+updatedAt: DateTime</text></g><g stroke-linecap="round" transform="translate(250 348) rotate(0 95 86)"><path d="M4 0 C45.17 0, 86.35 0, 186 0 C188.67 0, 190 1.33, 190 4 C190 54.98, 190 105.97, 190 168 C190 170.67, 188.67 172, 186 172 C122.07 172, 58.15 172, 4 172 C1.33 172, 0 170.67, 0 168 C0 104.12, 0 40.24, 0 4 C0 1.33, 1.33 0, 4 0" stroke="none" stroke-width="0" fill="#ffffff"></path><path d="M4 0 C43.21 0, 82.42 0, 186 0 M4 0 C70.34 0, 136.68 0, 186 0 M186 0 C188.67 0, 190 1.33, 190 4 M186 0 C188.67 0, 190 1.33, 190 4 M190 4 C190 43.46, 190 82.93, 190 168 M190 4 C190 53.11, 190 102.22, 190 168 M190 168 C190 170.67, 188.67 172, 186 172 M190 168 C190 170.67, 188.67 172, 186 172 M186 172 C124.02 172, 62.03 172, 4 172 M186 172 C148.84 172, 111.67 172, 4 172 M4 172 C1.33 172, 0 170.67, 0 168 M4 172 C1.33 172, 0 170.67, 0 168 M0 168 C0 117.25, 0 66.49, 0 4 M0 168 C0 119.85, 0 71.71, 0 4 M0 4 C0 1.33, 1.33 0, 4 0 M0 4 C0 1.33, 1.33 0, 4 0" stroke="#3b82f6" stroke-width="1.5" fill="none"></path></g><g stroke-linecap="round" transform="translate(250 348) rotate(0 95 14)"><path d="M4 0 C68.45 0, 132.9 0, 186 0 C188.67 0, 190 1.33, 190 4 C190 9.86, 190 15.72, 190 24 C190 26.67, 188.67 28, 186 28 C113.59 28, 41.18 28, 4 28 C1.33 28, 0 26.67, 0 24 C0 17.8, 0 11.6, 0 4 C0 1.33, 1.33 0, 4 0" stroke="none" stroke-width="0" fill="#dbeafe"></path><path d="M4 0 C62.86 0, 121.72 0, 186 0 M4 0 C69.2 0, 134.4 0, 186 0 M186 0 C188.67 0, 190 1.33, 190 4 M186 0 C188.67 0, 190 1.33, 190 4 M190 4 C190 8.42, 190 12.83, 190 24 M190 4 C190 11.8, 190 19.61, 190 24 M190 24 C190 26.67, 188.67 28, 186 28 M190 24 C190 26.67, 188.67 28, 186 28 M186 28 C114.33 28, 42.65 28, 4 28 M186 28 C140.09 28, 94.18 28, 4 28 M4 28 C1.33 28, 0 26.67, 0 24 M4 28 C1.33 28, 0 26.67, 0 24 M0 24 C0 19.42, 0 14.84, 0 4 M0 24 C0 16.78, 0 9.55, 0 4 M0 4 C0 1.33, 1.33 0, 4 0 M0 4 C0 1.33, 1.33 0, 4 0" stroke="#dbeafe" stroke-width="1" fill="none"></path></g><g stroke-linecap="round"><g transform="translate(250 376) rotate(0 95 0)"><path d="M0 0 C31.67 0, 158.33 0, 190 0 M0 0 C31.67 0, 158.33 0, 190 0" stroke="#3b82f6" stroke-width="1" fill="none"></path></g></g><mask></mask><g transform="translate(302.65 356.5) rotate(0 42.349999999999994 7.699999999999989)"><text x="42.35" y="10.515999999999998" font-family="Segoe UI Emoji" font-size="11px" fill="#1e293b" text-anchor="middle" style="white-space: pre;" direction="ltr" dominant-baseline="alphabetic">DataClassField</text></g><g transform="translate(257 383.75) rotate(0 23.51249999999999 6.650000000000006)"><text x="23.512500000000003" y="9.081999999999999" font-family="Segoe UI Emoji" font-size="9.5px" fill="#1e293b" text-anchor="middle" style="white-space: pre;" direction="ltr" dominant-baseline="alphabetic">+id: UUID</text></g><g transform="translate(257 400.75) rotate(0 47.025000000000006 6.650000000000006)"><text x="47.025000000000006" y="9.081999999999999" font-family="Segoe UI Emoji" font-size="9.5px" fill="#1e293b" text-anchor="middle" style="white-space: pre;" direction="ltr" dominant-baseline="alphabetic">+dataClassId: UUID</text></g><g transform="translate(257 417.75) rotate(0 33.962500000000006 6.650000000000006)"><text x="33.962500000000006" y="9.081999999999999" font-family="Segoe UI Emoji" font-size="9.5px" fill="#1e293b" text-anchor="middle" style="white-space: pre;" direction="ltr" dominant-baseline="alphabetic">+name: string</text></g><g transform="translate(257 434.75) rotate(0 36.57499999999999 6.650000000000006)"><text x="36.575" y="9.081999999999999" font-family="Segoe UI Emoji" font-size="9.5px" fill="#1e293b" text-anchor="middle" style="white-space: pre;" direction="ltr" dominant-baseline="alphabetic">+label: string</text></g><g transform="translate(257 451.75) rotate(0 41.80000000000001 6.650000000000006)"><text x="41.800000000000004" y="9.081999999999999" font-family="Segoe UI Emoji" font-size="9.5px" fill="#1e293b" text-anchor="middle" style="white-space: pre;" direction="ltr" dominant-baseline="alphabetic">+type: FieldType</text></g><g transform="translate(257 468.75) rotate(0 47.025000000000006 6.650000000000006)"><text x="47.025000000000006" y="9.081999999999999" font-family="Segoe UI Emoji" font-size="9.5px" fill="#1e293b" text-anchor="middle" style="white-space: pre;" direction="ltr" dominant-baseline="alphabetic">+required: boolean</text></g><g transform="translate(257 485.75) rotate(0 47.025000000000006 6.650000000000006)"><text x="47.025000000000006" y="9.081999999999999" font-family="Segoe UI Emoji" font-size="9.5px" fill="#1e293b" text-anchor="middle" style="white-space: pre;" direction="ltr" dominant-baseline="alphabetic">+displayOrder: int</text></g><g transform="translate(257 502.75) rotate(0 36.57499999999999 6.649999999999977)"><text x="36.575" y="9.081999999999999" font-family="Segoe UI Emoji" font-size="9.5px" fill="#1e293b" text-anchor="middle" style="white-space: pre;" direction="ltr" dominant-baseline="alphabetic">+config: JSONB</text></g><g stroke-linecap="round" transform="translate(10 618) rotate(0 95 69)"><path d="M4 0 C74.68 0, 145.36 0, 186 0 C188.67 0, 190 1.33, 190 4 C190 49.79, 190 95.58, 190 134 C190 136.67, 188.67 138, 186 138 C117.23 138, 48.46 138, 4 138 C1.33 138, 0 136.67, 0 134 C0 102.02, 0 70.04, 0 4 C0 1.33, 1.33 0, 4 0" stroke="none" stroke-width="0" fill="#ffffff"></path><path d="M4 0 C54.19 0, 104.37 0, 186 0 M4 0 C55.81 0, 107.63 0, 186 0 M186 0 C188.67 0, 190 1.33, 190 4 M186 0 C188.67 0, 190 1.33, 190 4 M190 4 C190 48.07, 190 92.13, 190 134 M190 4 C190 44.67, 190 85.33, 190 134 M190 134 C190 136.67, 188.67 138, 186 138 M190 134 C190 136.67, 188.67 138, 186 138 M186 138 C130.91 138, 75.82 138, 4 138 M186 138 C118.37 138, 50.73 138, 4 138 M4 138 C1.33 138, 0 136.67, 0 134 M4 138 C1.33 138, 0 136.67, 0 134 M0 134 C0 104.99, 0 75.99, 0 4 M0 134 C0 86.01, 0 38.01, 0 4 M0 4 C0 1.33, 1.33 0, 4 0 M0 4 C0 1.33, 1.33 0, 4 0" stroke="#16a34a" stroke-width="1.5" fill="none"></path></g><g stroke-linecap="round" transform="translate(10 618) rotate(0 95 14)"><path d="M4 0 C46.96 0, 89.92 0, 186 0 C188.67 0, 190 1.33, 190 4 C190 10.65, 190 17.3, 190 24 C190 26.67, 188.67 28, 186 28 C119.67 28, 53.33 28, 4 28 C1.33 28, 0 26.67, 0 24 C0 18.29, 0 12.59, 0 4 C0 1.33, 1.33 0, 4 0" stroke="none" stroke-width="0" fill="#dcfce7"></path><path d="M4 0 C63.81 0, 123.62 0, 186 0 M4 0 C46.05 0, 88.1 0, 186 0 M186 0 C188.67 0, 190 1.33, 190 4 M186 0 C188.67 0, 190 1.33, 190 4 M190 4 C190 8.22, 190 12.44, 190 24 M190 4 C190 11.67, 190 19.34, 190 24 M190 24 C190 26.67, 188.67 28, 186 28 M190 24 C190 26.67, 188.67 28, 186 28 M186 28 C140.09 28, 94.18 28, 4 28 M186 28 C134.51 28, 83.01 28, 4 28 M4 28 C1.33 28, 0 26.67, 0 24 M4 28 C1.33 28, 0 26.67, 0 24 M0 24 C0 16.76, 0 9.53, 0 4 M0 24 C0 16.27, 0 8.54, 0 4 M0 4 C0 1.33, 1.33 0, 4 0 M0 4 C0 1.33, 1.33 0, 4 0" stroke="#dcfce7" stroke-width="1" fill="none"></path></g><g stroke-linecap="round"><g transform="translate(10 646) rotate(0 95 0)"><path d="M0 0 C31.67 0, 158.33 0, 190 0 M0 0 C31.67 0, 158.33 0, 190 0" stroke="#16a34a" stroke-width="1" fill="none"></path></g></g><mask></mask><g transform="translate(85 626.5) rotate(0 20 7.699999999999989)"><text x="20" y="10.515999999999998" font-family="Segoe UI Emoji" font-size="11px" fill="#1e293b" text-anchor="middle" style="white-space: pre;" direction="ltr" dominant-baseline="alphabetic">Record</text></g><g transform="translate(17 653.75) rotate(0 23.512500000000003 6.649999999999977)"><text x="23.512500000000003" y="9.081999999999999" font-family="Segoe UI Emoji" font-size="9.5px" fill="#1e293b" text-anchor="middle" style="white-space: pre;" direction="ltr" dominant-baseline="alphabetic">+id: UUID</text></g><g transform="translate(17 670.75) rotate(0 36.575 6.649999999999977)"><text x="36.575" y="9.081999999999999" font-family="Segoe UI Emoji" font-size="9.5px" fill="#1e293b" text-anchor="middle" style="white-space: pre;" direction="ltr" dominant-baseline="alphabetic">+modelId: UUID</text></g><g transform="translate(17 687.75) rotate(0 31.35 6.649999999999977)"><text x="31.35" y="9.081999999999999" font-family="Segoe UI Emoji" font-size="9.5px" fill="#1e293b" text-anchor="middle" style="white-space: pre;" direction="ltr" dominant-baseline="alphabetic">+data: JSONB</text></g><g transform="translate(17 704.75) rotate(0 52.25 6.649999999999977)"><text x="52.25000000000001" y="9.081999999999999" font-family="Segoe UI Emoji" font-size="9.5px" fill="#1e293b" text-anchor="middle" style="white-space: pre;" direction="ltr" dominant-baseline="alphabetic">+createdAt: DateTime</text></g><g transform="translate(17 721.75) rotate(0 52.25 6.649999999999977)"><text x="52.25000000000001" y="9.081999999999999" font-family="Segoe UI Emoji" font-size="9.5px" fill="#1e293b" text-anchor="middle" style="white-space: pre;" direction="ltr" dominant-baseline="alphabetic">+updatedAt: DateTime</text></g><g transform="translate(17 738.75) rotate(0 41.80000000000001 6.649999999999977)"><text x="41.800000000000004" y="9.081999999999999" font-family="Segoe UI Emoji" font-size="9.5px" fill="#1e293b" text-anchor="middle" style="white-space: pre;" direction="ltr" dominant-baseline="alphabetic">+createdBy: UUID</text></g><g stroke-linecap="round"><g transform="translate(200 144) rotate(0 25 4.25)"><path d="M0 0 C8.33 1.42, 41.67 7.08, 50 8.5 M0 0 C8.33 1.42, 41.67 7.08, 50 8.5" stroke="#475569" stroke-width="1.5" fill="none"></path></g><g transform="translate(200 144) rotate(0 25 4.25)"><path d="M25.41 12.99 C30.45 12.07, 35.5 11.15, 50 8.5 M25.41 12.99 C32.24 11.74, 39.06 10.5, 50 8.5" stroke="#475569" stroke-width="1.5" fill="none"></path></g><g transform="translate(200 144) rotate(0 25 4.25)"><path d="M28.27 -3.87 C32.73 -1.33, 37.19 1.21, 50 8.5 M28.27 -3.87 C34.31 -0.43, 40.34 3, 50 8.5" stroke="#475569" stroke-width="1.5" fill="none"></path></g></g><mask></mask><g transform="translate(205 129.25) rotate(0 20 7)"><text x="20" y="9.559999999999999" font-family="Segoe UI Emoji" font-size="10px" fill="#64748b" text-anchor="middle" style="white-space: pre;" direction="ltr" dominant-baseline="alphabetic">1 *--</text></g><g stroke-linecap="round"><g transform="translate(440 152.5) rotate(0 25 2)"><path d="M0 0 C8.33 0.67, 41.67 3.33, 50 4 M0 0 C8.33 0.67, 41.67 3.33, 50 4" stroke="#475569" stroke-width="1.5" fill="none"></path></g><g transform="translate(440 152.5) rotate(0 25 2)"><path d="M25.9 10.65 C34.15 8.37, 42.39 6.1, 50 4 M25.9 10.65 C34.61 8.25, 43.32 5.84, 50 4" stroke="#475569" stroke-width="1.5" fill="none"></path></g><g transform="translate(440 152.5) rotate(0 25 2)"><path d="M27.26 -6.4 C35.04 -2.84, 42.82 0.72, 50 4 M27.26 -6.4 C35.48 -2.64, 43.7 1.12, 50 4" stroke="#475569" stroke-width="1.5" fill="none"></path></g></g><mask></mask><g transform="translate(443 135.5) rotate(0 22 7)"><text x="22" y="9.559999999999999" font-family="Segoe UI Emoji" font-size="10px" fill="#64748b" text-anchor="middle" style="white-space: pre;" direction="ltr" dominant-baseline="alphabetic">has type</text></g><g stroke-linecap="round"><g transform="translate(200 408.5) rotate(0 25 12.75)"><path d="M0 0 C8.33 4.25, 41.67 21.25, 50 25.5 M0 0 C8.33 4.25, 41.67 21.25, 50 25.5" stroke="#475569" stroke-width="1.5" fill="none"></path></g><g transform="translate(200 408.5) rotate(0 25 12.75)"><path d="M25.19 22.44 C32.42 23.33, 39.65 24.23, 50 25.5 M25.19 22.44 C31.32 23.2, 37.45 23.95, 50 25.5" stroke="#475569" stroke-width="1.5" fill="none"></path></g><g transform="translate(200 408.5) rotate(0 25 12.75)"><path d="M32.96 7.21 C37.92 12.54, 42.89 17.87, 50 25.5 M32.96 7.21 C37.17 11.73, 41.38 16.25, 50 25.5" stroke="#475569" stroke-width="1.5" fill="none"></path></g></g><mask></mask><g transform="translate(205 402.25) rotate(0 20 7)"><text x="20" y="9.559999999999999" font-family="Segoe UI Emoji" font-size="10px" fill="#64748b" text-anchor="middle" style="white-space: pre;" direction="ltr" dominant-baseline="alphabetic">1 *--</text></g><g stroke-linecap="round"><g transform="translate(440 454) rotate(0 25 -109.5)"><path d="M0 0 C8.33 -36.5, 41.67 -182.5, 50 -219" stroke="#475569" stroke-width="2" fill="none" stroke-dasharray="8 9.5"></path></g><g transform="translate(440 454) rotate(0 25 -109.5)"><path d="M53.11 -194.19 C52.35 -200.21, 51.6 -206.22, 50 -219" stroke="#475569" stroke-width="2" fill="none"></path></g><g transform="translate(440 454) rotate(0 25 -109.5)"><path d="M36.44 -198 C39.72 -203.09, 43.01 -208.18, 50 -219" stroke="#475569" stroke-width="2" fill="none"></path></g></g><mask></mask><g transform="translate(443 325.5) rotate(0 22 7)"><text x="22" y="9.559999999999999" font-family="Segoe UI Emoji" font-size="10px" fill="#64748b" text-anchor="middle" style="white-space: pre;" direction="ltr" dominant-baseline="alphabetic">has type</text></g><g stroke-linecap="round"><g transform="translate(325 247) rotate(0 -100 50.5)"><path d="M0 0 C-33.33 16.83, -166.67 84.17, -200 101" stroke="#475569" stroke-width="2" fill="none" stroke-dasharray="8 9.5"></path></g><g transform="translate(325 247) rotate(0 -100 50.5)"><path d="M-182.88 82.78 C-188.45 88.7, -194.01 94.62, -200 101" stroke="#475569" stroke-width="2" fill="none"></path></g><g transform="translate(325 247) rotate(0 -100 50.5)"><path d="M-175.18 98.04 C-183.24 99, -191.31 99.97, -200 101" stroke="#475569" stroke-width="2" fill="none"></path></g></g><mask></mask><g transform="translate(183.75 278.5) rotate(0 41.25 7)"><text x="41.25" y="9.559999999999999" font-family="Segoe UI Emoji" font-size="10px" fill="#64748b" text-anchor="middle" style="white-space: pre;" direction="ltr" dominant-baseline="alphabetic">→ DataClass ref</text></g><g stroke-linecap="round"><g transform="translate(105 618) rotate(0 0 -194)"><path d="M0 0 C0 -64.67, 0 -323.33, 0 -388" stroke="#475569" stroke-width="2" fill="none" stroke-dasharray="8 9.5"></path></g><g transform="translate(105 618) rotate(0 0 -194)"><path d="M8.55 -364.51 C5.41 -373.15, 2.26 -381.79, 0 -388" stroke="#475569" stroke-width="2" fill="none"></path></g><g transform="translate(105 618) rotate(0 0 -194)"><path d="M-8.55 -364.51 C-5.41 -373.15, -2.26 -381.79, 0 -388" stroke="#475569" stroke-width="2" fill="none"></path></g></g><mask></mask><g transform="translate(74.75 405) rotate(0 30.25 7)"><text x="30.250000000000004" y="9.559999999999999" font-family="Segoe UI Emoji" font-size="10px" fill="#64748b" text-anchor="middle" style="white-space: pre;" direction="ltr" dominant-baseline="alphabetic">instance of</text></g></svg>