<svg version="1.1" xmlns="http://www.w3.org/2000/svg" viewBox="0 0 NaN NaN" width="NaN" height="NaN"><!-- svg-source:excalidraw --><metadata></metadata><defs><style class="style-fonts">
      </style></defs><rect x="0" y="0" width="NaN" height="NaN" fill="#f8fafc"></rect><g transform="translate(0 0) rotate(0 180.40000000000003 11.2)"><text x="180.4" y="15.296" font-family="Segoe UI Emoji" font-size="16px" fill="#1e293b" text-anchor="middle" style="white-space: pre;" direction="ltr" dominant-baseline="alphabetic">Data Modeling — Core Entity Relationships</text></g><g stroke-linecap="round" transform="translate(0 0) rotate(0 95 86)"><path d="M4 0 C56.86 0, 109.73 0, 186 0 C188.67 0, 190 1.33, 190 4 C190 38.83, 190 73.65, 190 168 C190 170.67, 188.67 172, 186 172 C135.19 172, 84.38 172, 4 172 C1.33 172, 0 170.67, 0 168 C0 122.35, 0 76.71, 0 4 C0 1.33, 1.33 0, 4 0" stroke="none" stroke-width="0" fill="#ffffff"></path><path d="M4 0 C46.18 0, 88.35 0, 186 0 M4 0 C54.29 0, 104.59 0, 186 0 M186 0 C188.67 0, 190 1.33, 190 4 M186 0 C188.67 0, 190 1.33, 190 4 M190 4 C190 64.07, 190 124.14, 190 168 M190 4 C190 40.99, 190 77.98, 190 168 M190 168 C190 170.67, 188.67 172, 186 172 M190 168 C190 170.67, 188.67 172, 186 172 M186 172 C140.92 172, 95.84 172, 4 172 M186 172 C132.94 172, 79.88 172, 4 172 M4 172 C1.33 172, 0 170.67, 0 168 M4 172 C1.33 172, 0 170.67, 0 168 M0 168 C0 123.1, 0 78.2, 0 4 M0 168 C0 118.52, 0 69.05, 0 4 M0 4 C0 1.33, 1.33 0, 4 0 M0 4 C0 1.33, 1.33 0, 4 0" stroke="#3b82f6" stroke-width="1.5" fill="none"></path></g><g stroke-linecap="round" transform="translate(0 0) rotate(0 95 14)"><path d="M4 0 C47.19 0, 90.38 0, 186 0 C188.67 0, 190 1.33, 190 4 C190 8.99, 190 13.98, 190 24 C190 26.67, 188.67 28, 186 28 C126.24 28, 66.47 28, 4 28 C1.33 28, 0 26.67, 0 24 C0 16.76, 0 9.52, 0 4 C0 1.33, 1.33 0, 4 0" stroke="none" stroke-width="0" fill="#dbeafe"></path><path d="M4 0 C60.04 0, 116.08 0, 186 0 M4 0 C43.39 0, 82.78 0, 186 0 M186 0 C188.67 0, 190 1.33, 190 4 M186 0 C188.67 0, 190 1.33, 190 4 M190 4 C190 8.41, 190 12.82, 190 24 M190 4 C190 10.23, 190 16.46, 190 24 M190 24 C190 26.67, 188.67 28, 186 28 M190 24 C190 26.67, 188.67 28, 186 28 M186 28 C133.9 28, 81.79 28, 4 28 M186 28 C147.14 28, 108.27 28, 4 28 M4 28 C1.33 28, 0 26.67, 0 24 M4 28 C1.33 28, 0 26.67, 0 24 M0 24 C0 19.92, 0 15.83, 0 4 M0 24 C0 16.81, 0 9.61, 0 4 M0 4 C0 1.33, 1.33 0, 4 0 M0 4 C0 1.33, 1.33 0, 4 0" stroke="#dbeafe" stroke-width="1" fill="none"></path></g><g stroke-linecap="round"><g transform="translate(0 0) rotate(0 95 0)"><path d="M0 0 C31.67 0, 158.33 0, 190 0 M0 0 C31.67 0, 158.33 0, 190 0" stroke="#3b82f6" stroke-width="1" fill="none"></path></g></g><mask></mask><g transform="translate(0 0) rotate(0 45.375 7.700000000000003)"><text x="45.37500000000001" y="10.515999999999998" font-family="Segoe UI Emoji" font-size="11px" fill="#1e293b" text-anchor="middle" style="white-space: pre;" direction="ltr" dominant-baseline="alphabetic">ModelDefinition</text></g><g transform="translate(0 0) rotate(0 23.512500000000003 6.649999999999999)"><text x="23.512500000000003" y="9.081999999999999" font-family="Segoe UI Emoji" font-size="9.5px" fill="#1e293b" text-anchor="middle" style="white-space: pre;" direction="ltr" dominant-baseline="alphabetic">+id: UUID</text></g><g transform="translate(0 0) rotate(0 33.962500000000006 6.649999999999999)"><text x="33.962500000000006" y="9.081999999999999" font-family="Segoe UI Emoji" font-size="9.5px" fill="#1e293b" text-anchor="middle" style="white-space: pre;" direction="ltr" dominant-baseline="alphabetic">+name: string</text></g><g transform="translate(0 0) rotate(0 33.962500000000006 6.650000000000006)"><text x="33.962500000000006" y="9.081999999999999" font-family="Segoe UI Emoji" font-size="9.5px" fill="#1e293b" text-anchor="middle" style="white-space: pre;" direction="ltr" dominant-baseline="alphabetic">+slug: string</text></g><g transform="translate(0 0) rotate(0 52.25 6.650000000000006)"><text x="52.25000000000001" y="9.081999999999999" font-family="Segoe UI Emoji" font-size="9.5px" fill="#1e293b" text-anchor="middle" style="white-space: pre;" direction="ltr" dominant-baseline="alphabetic">+description: string</text></g><g transform="translate(0 0) rotate(0 33.962500000000006 6.650000000000006)"><text x="33.962500000000006" y="9.081999999999999" font-family="Segoe UI Emoji" font-size="9.5px" fill="#1e293b" text-anchor="middle" style="white-space: pre;" direction="ltr" dominant-baseline="alphabetic">+icon: string</text></g><g transform="translate(0 0) rotate(0 36.575 6.650000000000006)"><text x="36.575" y="9.081999999999999" font-family="Segoe UI Emoji" font-size="9.5px" fill="#1e293b" text-anchor="middle" style="white-space: pre;" direction="ltr" dominant-baseline="alphabetic">+color: string</text></g><g transform="translate(0 0) rotate(0 52.25 6.650000000000006)"><text x="52.25000000000001" y="9.081999999999999" font-family="Segoe UI Emoji" font-size="9.5px" fill="#1e293b" text-anchor="middle" style="white-space: pre;" direction="ltr" dominant-baseline="alphabetic">+createdAt: DateTime</text></g><g transform="translate(0 0) rotate(0 52.25 6.650000000000006)"><text x="52.25000000000001" y="9.081999999999999" font-family="Segoe UI Emoji" font-size="9.5px" fill="#1e293b" text-anchor="middle" style="white-space: pre;" direction="ltr" dominant-baseline="alphabetic">+updatedAt: DateTime</text></g><g stroke-linecap="round" transform="translate(0 0) rotate(0 95 94.5)"><path d="M4 0 C53.29 0, 102.57 0, 186 0 C188.67 0, 190 1.33, 190 4 C190 46.31, 190 88.61, 190 185 C190 187.67, 188.67 189, 186 189 C142.08 189, 98.16 189, 4 189 C1.33 189, 0 187.67, 0 185 C0 135.91, 0 86.81, 0 4 C0 1.33, 1.33 0, 4 0" stroke="none" stroke-width="0" fill="#ffffff"></path><path d="M4 0 C64.6 0, 125.21 0, 186 0 M4 0 C50.22 0, 96.44 0, 186 0 M186 0 C188.67 0, 190 1.33, 190 4 M186 0 C188.67 0, 190 1.33, 190 4 M190 4 C190 42.61, 190 81.23, 190 185 M190 4 C190 55.83, 190 107.66, 190 185 M190 185 C190 187.67, 188.67 189, 186 189 M190 185 C190 187.67, 188.67 189, 186 189 M186 189 C135.77 189, 85.53 189, 4 189 M186 189 C144.56 189, 103.12 189, 4 189 M4 189 C1.33 189, 0 187.67, 0 185 M4 189 C1.33 189, 0 187.67, 0 185 M0 185 C0 139.21, 0 93.43, 0 4 M0 185 C0 138.11, 0 91.23, 0 4 M0 4 C0 1.33, 1.33 0, 4 0 M0 4 C0 1.33, 1.33 0, 4 0" stroke="#3b82f6" stroke-width="1.5" fill="none"></path></g><g stroke-linecap="round" transform="translate(0 0) rotate(0 95 14)"><path d="M4 0 C62.18 0, 120.35 0, 186 0 C188.67 0, 190 1.33, 190 4 C190 11.61, 190 19.21, 190 24 C190 26.67, 188.67 28, 186 28 C135.92 28, 85.85 28, 4 28 C1.33 28, 0 26.67, 0 24 C0 16.86, 0 9.73, 0 4 C0 1.33, 1.33 0, 4 0" stroke="none" stroke-width="0" fill="#dbeafe"></path><path d="M4 0 C55.18 0, 106.37 0, 186 0 M4 0 C63.74 0, 123.48 0, 186 0 M186 0 C188.67 0, 190 1.33, 190 4 M186 0 C188.67 0, 190 1.33, 190 4 M190 4 C190 9.33, 190 14.67, 190 24 M190 4 C190 9.26, 190 14.52, 190 24 M190 24 C190 26.67, 188.67 28, 186 28 M190 24 C190 26.67, 188.67 28, 186 28 M186 28 C149.3 28, 112.6 28, 4 28 M186 28 C136.25 28, 86.49 28, 4 28 M4 28 C1.33 28, 0 26.67, 0 24 M4 28 C1.33 28, 0 26.67, 0 24 M0 24 C0 19.11, 0 14.23, 0 4 M0 24 C0 19.02, 0 14.03, 0 4 M0 4 C0 1.33, 1.33 0, 4 0 M0 4 C0 1.33, 1.33 0, 4 0" stroke="#dbeafe" stroke-width="1" fill="none"></path></g><g stroke-linecap="round"><g transform="translate(0 0) rotate(0 95 0)"><path d="M0 0 C31.67 0, 158.33 0, 190 0 M0 0 C31.67 0, 158.33 0, 190 0" stroke="#3b82f6" stroke-width="1" fill="none"></path></g></g><mask></mask><g transform="translate(0 0) rotate(0 45.375 7.700000000000003)"><text x="45.37500000000001" y="10.515999999999998" font-family="Segoe UI Emoji" font-size="11px" fill="#1e293b" text-anchor="middle" style="white-space: pre;" direction="ltr" dominant-baseline="alphabetic">FieldDefinition</text></g><g transform="translate(0 0) rotate(0 23.51249999999999 6.649999999999999)"><text x="23.512500000000003" y="9.081999999999999" font-family="Segoe UI Emoji" font-size="9.5px" fill="#1e293b" text-anchor="middle" style="white-space: pre;" direction="ltr" dominant-baseline="alphabetic">+id: UUID</text></g><g transform="translate(0 0) rotate(0 36.57499999999999 6.649999999999999)"><text x="36.575" y="9.081999999999999" font-family="Segoe UI Emoji" font-size="9.5px" fill="#1e293b" text-anchor="middle" style="white-space: pre;" direction="ltr" dominant-baseline="alphabetic">+modelId: UUID</text></g><g transform="translate(0 0) rotate(0 33.962500000000006 6.650000000000006)"><text x="33.962500000000006" y="9.081999999999999" font-family="Segoe UI Emoji" font-size="9.5px" fill="#1e293b" text-anchor="middle" style="white-space: pre;" direction="ltr" dominant-baseline="alphabetic">+name: string</text></g><g transform="translate(0 0) rotate(0 36.57499999999999 6.650000000000006)"><text x="36.575" y="9.081999999999999" font-family="Segoe UI Emoji" font-size="9.5px" fill="#1e293b" text-anchor="middle" style="white-space: pre;" direction="ltr" dominant-baseline="alphabetic">+label: string</text></g><g transform="translate(0 0) rotate(0 41.80000000000001 6.650000000000006)"><text x="41.800000000000004" y="9.081999999999999" font-family="Segoe UI Emoji" font-size="9.5px" fill="#1e293b" text-anchor="middle" style="white-space: pre;" direction="ltr" dominant-baseline="alphabetic">+type: FieldType</text></g><g transform="translate(0 0) rotate(0 47.025000000000006 6.650000000000006)"><text x="47.025000000000006" y="9.081999999999999" font-family="Segoe UI Emoji" font-size="9.5px" fill="#1e293b" text-anchor="middle" style="white-space: pre;" direction="ltr" dominant-baseline="alphabetic">+required: boolean</text></g><g transform="translate(0 0) rotate(0 47.025000000000006 6.650000000000006)"><text x="47.025000000000006" y="9.081999999999999" font-family="Segoe UI Emoji" font-size="9.5px" fill="#1e293b" text-anchor="middle" style="white-space: pre;" direction="ltr" dominant-baseline="alphabetic">+displayOrder: int</text></g><g transform="translate(0 0) rotate(0 36.57499999999999 6.650000000000006)"><text x="36.575" y="9.081999999999999" font-family="Segoe UI Emoji" font-size="9.5px" fill="#1e293b" text-anchor="middle" style="white-space: pre;" direction="ltr" dominant-baseline="alphabetic">+config: JSONB</text></g><g transform="translate(0 0) rotate(0 52.25 6.650000000000006)"><text x="52.25000000000001" y="9.081999999999999" font-family="Segoe UI Emoji" font-size="9.5px" fill="#1e293b" text-anchor="middle" style="white-space: pre;" direction="ltr" dominant-baseline="alphabetic">+createdAt: DateTime</text></g><g stroke-linecap="round" transform="translate(0 0) rotate(0 95 98.5)"><path d="M4 0 C63.48 0, 122.97 0, 186 0 C188.67 0, 190 1.33, 190 4 C190 69.43, 190 134.85, 190 193 C190 195.67, 188.67 197, 186 197 C123.47 197, 60.94 197, 4 197 C1.33 197, 0 195.67, 0 193 C0 143.13, 0 93.25, 0 4 C0 1.33, 1.33 0, 4 0" stroke="none" stroke-width="0" fill="#ffffff"></path><path d="M4 0 C55.32 0, 106.64 0, 186 0 M4 0 C42.6 0, 81.21 0, 186 0 M186 0 C188.67 0, 190 1.33, 190 4 M186 0 C188.67 0, 190 1.33, 190 4 M190 4 C190 47.88, 190 91.76, 190 193 M190 4 C190 73.82, 190 143.63, 190 193 M190 193 C190 195.67, 188.67 197, 186 197 M190 193 C190 195.67, 188.67 197, 186 197 M186 197 C139.39 197, 92.78 197, 4 197 M186 197 C125.9 197, 65.8 197, 4 197 M4 197 C1.33 197, 0 195.67, 0 193 M4 197 C1.33 197, 0 195.67, 0 193 M0 193 C0 133.57, 0 74.14, 0 4 M0 193 C0 148.49, 0 103.97, 0 4 M0 4 C0 1.33, 1.33 0, 4 0 M0 4 C0 1.33, 1.33 0, 4 0" stroke="#7c3aed" stroke-width="1.5" fill="none"></path></g><g stroke-linecap="round" transform="translate(0 0) rotate(0 95 18)"><path d="M4 0 C48.55 0, 93.1 0, 186 0 C188.67 0, 190 1.33, 190 4 C190 13.12, 190 22.24, 190 32 C190 34.67, 188.67 36, 186 36 C131.14 36, 76.29 36, 4 36 C1.33 36, 0 34.67, 0 32 C0 23.67, 0 15.34, 0 4 C0 1.33, 1.33 0, 4 0" stroke="none" stroke-width="0" fill="#ede9fe"></path><path d="M4 0 C53.32 0, 102.64 0, 186 0 M4 0 C61.37 0, 118.75 0, 186 0 M186 0 C188.67 0, 190 1.33, 190 4 M186 0 C188.67 0, 190 1.33, 190 4 M190 4 C190 10.2, 190 16.41, 190 32 M190 4 C190 15.16, 190 26.32, 190 32 M190 32 C190 34.67, 188.67 36, 186 36 M190 32 C190 34.67, 188.67 36, 186 36 M186 36 C127.54 36, 69.08 36, 4 36 M186 36 C143.47 36, 100.93 36, 4 36 M4 36 C1.33 36, 0 34.67, 0 32 M4 36 C1.33 36, 0 34.67, 0 32 M0 32 C0 21.39, 0 10.78, 0 4 M0 32 C0 23.03, 0 14.06, 0 4 M0 4 C0 1.33, 1.33 0, 4 0 M0 4 C0 1.33, 1.33 0, 4 0" stroke="#ede9fe" stroke-width="1" fill="none"></path></g><g stroke-linecap="round"><g transform="translate(0 0) rotate(0 95 0)"><path d="M0 0 C31.67 0, 158.33 0, 190 0 M0 0 C31.67 0, 158.33 0, 190 0" stroke="#7c3aed" stroke-width="1" fill="none"></path></g></g><mask></mask><g transform="translate(0 0) rotate(0 20 5.950000000000003)"><text x="20" y="8.126" font-family="Segoe UI Emoji" font-size="8.5px" fill="#64748b" text-anchor="middle" style="white-space: pre;" direction="ltr" dominant-baseline="alphabetic">«enum»</text></g><g transform="translate(0 0) rotate(0 27.225000000000023 7.700000000000003)"><text x="27.225" y="10.515999999999998" font-family="Segoe UI Emoji" font-size="11px" fill="#1e293b" text-anchor="middle" style="white-space: pre;" direction="ltr" dominant-baseline="alphabetic">FieldType</text></g><g transform="translate(0 0) rotate(0 20 6.649999999999999)"><text x="20" y="9.081999999999999" font-family="Segoe UI Emoji" font-size="9.5px" fill="#1e293b" text-anchor="middle" style="white-space: pre;" direction="ltr" dominant-baseline="alphabetic">Text</text></g><g transform="translate(0 0) rotate(0 20 6.650000000000006)"><text x="20" y="9.081999999999999" font-family="Segoe UI Emoji" font-size="9.5px" fill="#1e293b" text-anchor="middle" style="white-space: pre;" direction="ltr" dominant-baseline="alphabetic">Number</text></g><g transform="translate(0 0) rotate(0 20 6.650000000000006)"><text x="20" y="9.081999999999999" font-family="Segoe UI Emoji" font-size="9.5px" fill="#1e293b" text-anchor="middle" style="white-space: pre;" direction="ltr" dominant-baseline="alphabetic">Boolean</text></g><g transform="translate(0 0) rotate(0 20 6.650000000000006)"><text x="20" y="9.081999999999999" font-family="Segoe UI Emoji" font-size="9.5px" fill="#1e293b" text-anchor="middle" style="white-space: pre;" direction="ltr" dominant-baseline="alphabetic">Date</text></g><g transform="translate(0 0) rotate(0 20 6.650000000000006)"><text x="20" y="9.081999999999999" font-family="Segoe UI Emoji" font-size="9.5px" fill="#1e293b" text-anchor="middle" style="white-space: pre;" direction="ltr" dominant-baseline="alphabetic">Enum</text></g><g transform="translate(0 0) rotate(0 20.899999999999977 6.650000000000006)"><text x="20.900000000000002" y="9.081999999999999" font-family="Segoe UI Emoji" font-size="9.5px" fill="#1e293b" text-anchor="middle" style="white-space: pre;" direction="ltr" dominant-baseline="alphabetic">Relation</text></g><g transform="translate(0 0) rotate(0 23.51249999999999 6.650000000000006)"><text x="23.512500000000003" y="9.081999999999999" font-family="Segoe UI Emoji" font-size="9.5px" fill="#1e293b" text-anchor="middle" style="white-space: pre;" direction="ltr" dominant-baseline="alphabetic">DataClass</text></g><g transform="translate(0 0) rotate(0 20 6.650000000000006)"><text x="20" y="9.081999999999999" font-family="Segoe UI Emoji" font-size="9.5px" fill="#1e293b" text-anchor="middle" style="white-space: pre;" direction="ltr" dominant-baseline="alphabetic">File</text></g><g transform="translate(0 0) rotate(0 20 6.650000000000006)"><text x="20" y="9.081999999999999" font-family="Segoe UI Emoji" font-size="9.5px" fill="#1e293b" text-anchor="middle" style="white-space: pre;" direction="ltr" dominant-baseline="alphabetic">JSON</text></g><g stroke-linecap="round" transform="translate(0 0) rotate(0 95 60.5)"><path d="M4 0 C49 0, 94 0, 186 0 C188.67 0, 190 1.33, 190 4 C190 39.4, 190 74.81, 190 117 C190 119.67, 188.67 121, 186 121 C140.51 121, 95.02 121, 4 121 C1.33 121, 0 119.67, 0 117 C0 80.52, 0 44.04, 0 4 C0 1.33, 1.33 0, 4 0" stroke="none" stroke-width="0" fill="#ffffff"></path><path d="M4 0 C73.77 0, 143.54 0, 186 0 M4 0 C76.03 0, 148.07 0, 186 0 M186 0 C188.67 0, 190 1.33, 190 4 M186 0 C188.67 0, 190 1.33, 190 4 M190 4 C190 28.19, 190 52.38, 190 117 M190 4 C190 34.12, 190 64.23, 190 117 M190 117 C190 119.67, 188.67 121, 186 121 M190 117 C190 119.67, 188.67 121, 186 121 M186 121 C115.7 121, 45.39 121, 4 121 M186 121 C146.62 121, 107.25 121, 4 121 M4 121 C1.33 121, 0 119.67, 0 117 M4 121 C1.33 121, 0 119.67, 0 117 M0 117 C0 90.87, 0 64.75, 0 4 M0 117 C0 74.35, 0 31.71, 0 4 M0 4 C0 1.33, 1.33 0, 4 0 M0 4 C0 1.33, 1.33 0, 4 0" stroke="#3b82f6" stroke-width="1.5" fill="none"></path></g><g stroke-linecap="round" transform="translate(0 0) rotate(0 95 14)"><path d="M4 0 C41.49 0, 78.97 0, 186 0 C188.67 0, 190 1.33, 190 4 C190 11.2, 190 18.4, 190 24 C190 26.67, 188.67 28, 186 28 C136.42 28, 86.84 28, 4 28 C1.33 28, 0 26.67, 0 24 C0 17.15, 0 10.29, 0 4 C0 1.33, 1.33 0, 4 0" stroke="none" stroke-width="0" fill="#dbeafe"></path><path d="M4 0 C75.95 0, 147.89 0, 186 0 M4 0 C58.48 0, 112.96 0, 186 0 M186 0 C188.67 0, 190 1.33, 190 4 M186 0 C188.67 0, 190 1.33, 190 4 M190 4 C190 11.4, 190 18.81, 190 24 M190 4 C190 11.9, 190 19.8, 190 24 M190 24 C190 26.67, 188.67 28, 186 28 M190 24 C190 26.67, 188.67 28, 186 28 M186 28 C135.94 28, 85.87 28, 4 28 M186 28 C131.68 28, 77.37 28, 4 28 M4 28 C1.33 28, 0 26.67, 0 24 M4 28 C1.33 28, 0 26.67, 0 24 M0 24 C0 17.12, 0 10.24, 0 4 M0 24 C0 19.09, 0 14.17, 0 4 M0 4 C0 1.33, 1.33 0, 4 0 M0 4 C0 1.33, 1.33 0, 4 0" stroke="#dbeafe" stroke-width="1" fill="none"></path></g><g stroke-linecap="round"><g transform="translate(0 0) rotate(0 95 0)"><path d="M0 0 C31.67 0, 158.33 0, 190 0 M0 0 C31.67 0, 158.33 0, 190 0" stroke="#3b82f6" stroke-width="1" fill="none"></path></g></g><mask></mask><g transform="translate(0 0) rotate(0 57.47500000000001 7.699999999999989)"><text x="57.475" y="10.515999999999998" font-family="Segoe UI Emoji" font-size="11px" fill="#1e293b" text-anchor="middle" style="white-space: pre;" direction="ltr" dominant-baseline="alphabetic">DataClassDefinition</text></g><g transform="translate(0 0) rotate(0 23.512500000000003 6.650000000000006)"><text x="23.512500000000003" y="9.081999999999999" font-family="Segoe UI Emoji" font-size="9.5px" fill="#1e293b" text-anchor="middle" style="white-space: pre;" direction="ltr" dominant-baseline="alphabetic">+id: UUID</text></g><g transform="translate(0 0) rotate(0 33.962500000000006 6.650000000000006)"><text x="33.962500000000006" y="9.081999999999999" font-family="Segoe UI Emoji" font-size="9.5px" fill="#1e293b" text-anchor="middle" style="white-space: pre;" direction="ltr" dominant-baseline="alphabetic">+name: string</text></g><g transform="translate(0 0) rotate(0 52.25 6.650000000000006)"><text x="52.25000000000001" y="9.081999999999999" font-family="Segoe UI Emoji" font-size="9.5px" fill="#1e293b" text-anchor="middle" style="white-space: pre;" direction="ltr" dominant-baseline="alphabetic">+description: string</text></g><g transform="translate(0 0) rotate(0 52.25 6.650000000000006)"><text x="52.25000000000001" y="9.081999999999999" font-family="Segoe UI Emoji" font-size="9.5px" fill="#1e293b" text-anchor="middle" style="white-space: pre;" direction="ltr" dominant-baseline="alphabetic">+createdAt: DateTime</text></g><g transform="translate(0 0) rotate(0 52.25 6.650000000000006)"><text x="52.25000000000001" y="9.081999999999999" font-family="Segoe UI Emoji" font-size="9.5px" fill="#1e293b" text-anchor="middle" style="white-space: pre;" direction="ltr" dominant-baseline="alphabetic">+updatedAt: DateTime</text></g><g stroke-linecap="round" transform="translate(0 0) rotate(0 95 86)"><path d="M4 0 C74.79 0, 145.57 0, 186 0 C188.67 0, 190 1.33, 190 4 C190 67.96, 190 131.92, 190 168 C190 170.67, 188.67 172, 186 172 C148.91 172, 111.82 172, 4 172 C1.33 172, 0 170.67, 0 168 C0 129.74, 0 91.48, 0 4 C0 1.33, 1.33 0, 4 0" stroke="none" stroke-width="0" fill="#ffffff"></path><path d="M4 0 C48.37 0, 92.73 0, 186 0 M4 0 C41.09 0, 78.18 0, 186 0 M186 0 C188.67 0, 190 1.33, 190 4 M186 0 C188.67 0, 190 1.33, 190 4 M190 4 C190 40.07, 190 76.15, 190 168 M190 4 C190 65.67, 190 127.33, 190 168 M190 168 C190 170.67, 188.67 172, 186 172 M190 168 C190 170.67, 188.67 172, 186 172 M186 172 C149.07 172, 112.14 172, 4 172 M186 172 C141.85 172, 97.71 172, 4 172 M4 172 C1.33 172, 0 170.67, 0 168 M4 172 C1.33 172, 0 170.67, 0 168 M0 168 C0 124.98, 0 81.96, 0 4 M0 168 C0 123.87, 0 79.74, 0 4 M0 4 C0 1.33, 1.33 0, 4 0 M0 4 C0 1.33, 1.33 0, 4 0" stroke="#3b82f6" stroke-width="1.5" fill="none"></path></g><g stroke-linecap="round" transform="translate(0 0) rotate(0 95 14)"><path d="M4 0 C54.46 0, 104.92 0, 186 0 C188.67 0, 190 1.33, 190 4 C190 9.06, 190 14.12, 190 24 C190 26.67, 188.67 28, 186 28 C145.3 28, 104.6 28, 4 28 C1.33 28, 0 26.67, 0 24 C0 16.85, 0 9.71, 0 4 C0 1.33, 1.33 0, 4 0" stroke="none" stroke-width="0" fill="#dbeafe"></path><path d="M4 0 C66.37 0, 128.75 0, 186 0 M4 0 C59.43 0, 114.87 0, 186 0 M186 0 C188.67 0, 190 1.33, 190 4 M186 0 C188.67 0, 190 1.33, 190 4 M190 4 C190 9.07, 190 14.13, 190 24 M190 4 C190 8.66, 190 13.32, 190 24 M190 24 C190 26.67, 188.67 28, 186 28 M190 24 C190 26.67, 188.67 28, 186 28 M186 28 C120.5 28, 55 28, 4 28 M186 28 C143.91 28, 101.82 28, 4 28 M4 28 C1.33 28, 0 26.67, 0 24 M4 28 C1.33 28, 0 26.67, 0 24 M0 24 C0 17.31, 0 10.61, 0 4 M0 24 C0 18.56, 0 13.12, 0 4 M0 4 C0 1.33, 1.33 0, 4 0 M0 4 C0 1.33, 1.33 0, 4 0" stroke="#dbeafe" stroke-width="1" fill="none"></path></g><g stroke-linecap="round"><g transform="translate(0 0) rotate(0 95 0)"><path d="M0 0 C31.67 0, 158.33 0, 190 0 M0 0 C31.67 0, 158.33 0, 190 0" stroke="#3b82f6" stroke-width="1" fill="none"></path></g></g><mask></mask><g transform="translate(0 0) rotate(0 42.349999999999994 7.699999999999989)"><text x="42.35" y="10.515999999999998" font-family="Segoe UI Emoji" font-size="11px" fill="#1e293b" text-anchor="middle" style="white-space: pre;" direction="ltr" dominant-baseline="alphabetic">DataClassField</text></g><g transform="translate(0 0) rotate(0 23.51249999999999 6.650000000000006)"><text x="23.512500000000003" y="9.081999999999999" font-family="Segoe UI Emoji" font-size="9.5px" fill="#1e293b" text-anchor="middle" style="white-space: pre;" direction="ltr" dominant-baseline="alphabetic">+id: UUID</text></g><g transform="translate(0 0) rotate(0 47.025000000000006 6.650000000000006)"><text x="47.025000000000006" y="9.081999999999999" font-family="Segoe UI Emoji" font-size="9.5px" fill="#1e293b" text-anchor="middle" style="white-space: pre;" direction="ltr" dominant-baseline="alphabetic">+dataClassId: UUID</text></g><g transform="translate(0 0) rotate(0 33.962500000000006 6.650000000000006)"><text x="33.962500000000006" y="9.081999999999999" font-family="Segoe UI Emoji" font-size="9.5px" fill="#1e293b" text-anchor="middle" style="white-space: pre;" direction="ltr" dominant-baseline="alphabetic">+name: string</text></g><g transform="translate(0 0) rotate(0 36.57499999999999 6.650000000000006)"><text x="36.575" y="9.081999999999999" font-family="Segoe UI Emoji" font-size="9.5px" fill="#1e293b" text-anchor="middle" style="white-space: pre;" direction="ltr" dominant-baseline="alphabetic">+label: string</text></g><g transform="translate(0 0) rotate(0 41.80000000000001 6.650000000000006)"><text x="41.800000000000004" y="9.081999999999999" font-family="Segoe UI Emoji" font-size="9.5px" fill="#1e293b" text-anchor="middle" style="white-space: pre;" direction="ltr" dominant-baseline="alphabetic">+type: FieldType</text></g><g transform="translate(0 0) rotate(0 47.025000000000006 6.650000000000006)"><text x="47.025000000000006" y="9.081999999999999" font-family="Segoe UI Emoji" font-size="9.5px" fill="#1e293b" text-anchor="middle" style="white-space: pre;" direction="ltr" dominant-baseline="alphabetic">+required: boolean</text></g><g transform="translate(0 0) rotate(0 47.025000000000006 6.650000000000006)"><text x="47.025000000000006" y="9.081999999999999" font-family="Segoe UI Emoji" font-size="9.5px" fill="#1e293b" text-anchor="middle" style="white-space: pre;" direction="ltr" dominant-baseline="alphabetic">+displayOrder: int</text></g><g transform="translate(0 0) rotate(0 36.57499999999999 6.649999999999977)"><text x="36.575" y="9.081999999999999" font-family="Segoe UI Emoji" font-size="9.5px" fill="#1e293b" text-anchor="middle" style="white-space: pre;" direction="ltr" dominant-baseline="alphabetic">+config: JSONB</text></g><g stroke-linecap="round" transform="translate(0 0) rotate(0 95 69)"><path d="M4 0 C51.16 0, 98.32 0, 186 0 C188.67 0, 190 1.33, 190 4 C190 34.93, 190 65.87, 190 134 C190 136.67, 188.67 138, 186 138 C138.32 138, 90.63 138, 4 138 C1.33 138, 0 136.67, 0 134 C0 103.56, 0 73.12, 0 4 C0 1.33, 1.33 0, 4 0" stroke="none" stroke-width="0" fill="#ffffff"></path><path d="M4 0 C72.6 0, 141.21 0, 186 0 M4 0 C65.42 0, 126.84 0, 186 0 M186 0 C188.67 0, 190 1.33, 190 4 M186 0 C188.67 0, 190 1.33, 190 4 M190 4 C190 47.34, 190 90.68, 190 134 M190 4 C190 35.62, 190 67.25, 190 134 M190 134 C190 136.67, 188.67 138, 186 138 M190 134 C190 136.67, 188.67 138, 186 138 M186 138 C130.34 138, 74.69 138, 4 138 M186 138 C130.84 138, 75.68 138, 4 138 M4 138 C1.33 138, 0 136.67, 0 134 M4 138 C1.33 138, 0 136.67, 0 134 M0 134 C0 83.6, 0 33.21, 0 4 M0 134 C0 83.97, 0 33.95, 0 4 M0 4 C0 1.33, 1.33 0, 4 0 M0 4 C0 1.33, 1.33 0, 4 0" stroke="#16a34a" stroke-width="1.5" fill="none"></path></g><g stroke-linecap="round" transform="translate(0 0) rotate(0 95 14)"><path d="M4 0 C41.28 0, 78.56 0, 186 0 C188.67 0, 190 1.33, 190 4 C190 10.64, 190 17.29, 190 24 C190 26.67, 188.67 28, 186 28 C114.58 28, 43.16 28, 4 28 C1.33 28, 0 26.67, 0 24 C0 19.55, 0 15.11, 0 4 C0 1.33, 1.33 0, 4 0" stroke="none" stroke-width="0" fill="#dcfce7"></path><path d="M4 0 C66.51 0, 129.03 0, 186 0 M4 0 C55.44 0, 106.88 0, 186 0 M186 0 C188.67 0, 190 1.33, 190 4 M186 0 C188.67 0, 190 1.33, 190 4 M190 4 C190 11.72, 190 19.44, 190 24 M190 4 C190 11.91, 190 19.82, 190 24 M190 24 C190 26.67, 188.67 28, 186 28 M190 24 C190 26.67, 188.67 28, 186 28 M186 28 C115.55 28, 45.1 28, 4 28 M186 28 C130.34 28, 74.67 28, 4 28 M4 28 C1.33 28, 0 26.67, 0 24 M4 28 C1.33 28, 0 26.67, 0 24 M0 24 C0 17.61, 0 11.23, 0 4 M0 24 C0 19.24, 0 14.48, 0 4 M0 4 C0 1.33, 1.33 0, 4 0 M0 4 C0 1.33, 1.33 0, 4 0" stroke="#dcfce7" stroke-width="1" fill="none"></path></g><g stroke-linecap="round"><g transform="translate(0 0) rotate(0 95 0)"><path d="M0 0 C31.67 0, 158.33 0, 190 0 M0 0 C31.67 0, 158.33 0, 190 0" stroke="#16a34a" stroke-width="1" fill="none"></path></g></g><mask></mask><g transform="translate(0 0) rotate(0 20 7.699999999999989)"><text x="20" y="10.515999999999998" font-family="Segoe UI Emoji" font-size="11px" fill="#1e293b" text-anchor="middle" style="white-space: pre;" direction="ltr" dominant-baseline="alphabetic">Record</text></g><g transform="translate(0 0) rotate(0 23.512500000000003 6.649999999999977)"><text x="23.512500000000003" y="9.081999999999999" font-family="Segoe UI Emoji" font-size="9.5px" fill="#1e293b" text-anchor="middle" style="white-space: pre;" direction="ltr" dominant-baseline="alphabetic">+id: UUID</text></g><g transform="translate(0 0) rotate(0 36.575 6.649999999999977)"><text x="36.575" y="9.081999999999999" font-family="Segoe UI Emoji" font-size="9.5px" fill="#1e293b" text-anchor="middle" style="white-space: pre;" direction="ltr" dominant-baseline="alphabetic">+modelId: UUID</text></g><g transform="translate(0 0) rotate(0 31.35 6.649999999999977)"><text x="31.35" y="9.081999999999999" font-family="Segoe UI Emoji" font-size="9.5px" fill="#1e293b" text-anchor="middle" style="white-space: pre;" direction="ltr" dominant-baseline="alphabetic">+data: JSONB</text></g><g transform="translate(0 0) rotate(0 52.25 6.649999999999977)"><text x="52.25000000000001" y="9.081999999999999" font-family="Segoe UI Emoji" font-size="9.5px" fill="#1e293b" text-anchor="middle" style="white-space: pre;" direction="ltr" dominant-baseline="alphabetic">+createdAt: DateTime</text></g><g transform="translate(0 0) rotate(0 52.25 6.649999999999977)"><text x="52.25000000000001" y="9.081999999999999" font-family="Segoe UI Emoji" font-size="9.5px" fill="#1e293b" text-anchor="middle" style="white-space: pre;" direction="ltr" dominant-baseline="alphabetic">+updatedAt: DateTime</text></g><g transform="translate(0 0) rotate(0 41.80000000000001 6.649999999999977)"><text x="41.800000000000004" y="9.081999999999999" font-family="Segoe UI Emoji" font-size="9.5px" fill="#1e293b" text-anchor="middle" style="white-space: pre;" direction="ltr" dominant-baseline="alphabetic">+createdBy: UUID</text></g><g stroke-linecap="round"><g transform="translate(0 0) rotate(0 25 4.25)"><path d="M0 0 C8.33 1.42, 41.67 7.08, 50 8.5 M0 0 C8.33 1.42, 41.67 7.08, 50 8.5" stroke="#475569" stroke-width="1.5" fill="none"></path></g><g transform="translate(0 0) rotate(0 25 4.25)"><path d="M25.41 12.99 C30.6 12.04, 35.79 11.1, 50 8.5 M25.41 12.99 C34.21 11.39, 43 9.78, 50 8.5" stroke="#475569" stroke-width="1.5" fill="none"></path></g><g transform="translate(0 0) rotate(0 25 4.25)"><path d="M28.27 -3.87 C32.86 -1.26, 37.44 1.35, 50 8.5 M28.27 -3.87 C36.05 0.56, 43.82 4.98, 50 8.5" stroke="#475569" stroke-width="1.5" fill="none"></path></g></g><mask></mask><g transform="translate(0 0) rotate(0 20 7)"><text x="20" y="9.559999999999999" font-family="Segoe UI Emoji" font-size="10px" fill="#64748b" text-anchor="middle" style="white-space: pre;" direction="ltr" dominant-baseline="alphabetic">1 *--</text></g><g stroke-linecap="round"><g transform="translate(0 0) rotate(0 25 2)"><path d="M0 0 C8.33 0.67, 41.67 3.33, 50 4 M0 0 C8.33 0.67, 41.67 3.33, 50 4" stroke="#475569" stroke-width="1.5" fill="none"></path></g><g transform="translate(0 0) rotate(0 25 2)"><path d="M25.9 10.65 C35.49 8, 45.08 5.36, 50 4 M25.9 10.65 C31.61 9.08, 37.31 7.5, 50 4" stroke="#475569" stroke-width="1.5" fill="none"></path></g><g transform="translate(0 0) rotate(0 25 2)"><path d="M27.26 -6.4 C36.31 -2.26, 45.35 1.88, 50 4 M27.26 -6.4 C32.65 -3.94, 38.03 -1.47, 50 4" stroke="#475569" stroke-width="1.5" fill="none"></path></g></g><mask></mask><g transform="translate(0 0) rotate(0 22 7)"><text x="22" y="9.559999999999999" font-family="Segoe UI Emoji" font-size="10px" fill="#64748b" text-anchor="middle" style="white-space: pre;" direction="ltr" dominant-baseline="alphabetic">has type</text></g><g stroke-linecap="round"><g transform="translate(0 0) rotate(0 25 12.75)"><path d="M0 0 C8.33 4.25, 41.67 21.25, 50 25.5 M0 0 C8.33 4.25, 41.67 21.25, 50 25.5" stroke="#475569" stroke-width="1.5" fill="none"></path></g><g transform="translate(0 0) rotate(0 25 12.75)"><path d="M25.19 22.44 C31.36 23.2, 37.54 23.96, 50 25.5 M25.19 22.44 C33.89 23.52, 42.58 24.59, 50 25.5" stroke="#475569" stroke-width="1.5" fill="none"></path></g><g transform="translate(0 0) rotate(0 25 12.75)"><path d="M32.96 7.21 C37.2 11.76, 41.44 16.31, 50 25.5 M32.96 7.21 C38.93 13.62, 44.91 20.03, 50 25.5" stroke="#475569" stroke-width="1.5" fill="none"></path></g></g><mask></mask><g transform="translate(0 0) rotate(0 20 7)"><text x="20" y="9.559999999999999" font-family="Segoe UI Emoji" font-size="10px" fill="#64748b" text-anchor="middle" style="white-space: pre;" direction="ltr" dominant-baseline="alphabetic">1 *--</text></g><g stroke-linecap="round"><g transform="translate(0 0) rotate(0 25 -109.5)"><path d="M0 0 C8.33 -36.5, 41.67 -182.5, 50 -219" stroke="#475569" stroke-width="2" fill="none" stroke-dasharray="8 9.5"></path></g><g transform="translate(0 0) rotate(0 25 -109.5)"><path d="M53.11 -194.19 C51.9 -203.84, 50.69 -213.48, 50 -219" stroke="#475569" stroke-width="2" fill="none"></path></g><g transform="translate(0 0) rotate(0 25 -109.5)"><path d="M36.44 -198 C41.71 -206.16, 46.98 -214.33, 50 -219" stroke="#475569" stroke-width="2" fill="none"></path></g></g><mask></mask><g transform="translate(0 0) rotate(0 22 7)"><text x="22" y="9.559999999999999" font-family="Segoe UI Emoji" font-size="10px" fill="#64748b" text-anchor="middle" style="white-space: pre;" direction="ltr" dominant-baseline="alphabetic">has type</text></g><g stroke-linecap="round"><g transform="translate(0 0) rotate(0 -100 NaN)"><path d="M0 0 C-33.33 0, -166.67 0, -200 0" stroke="#475569" stroke-width="2" fill="none" stroke-dasharray="8 9.5"></path></g><g transform="translate(0 0) rotate(0 -100 NaN)"><path d="M-176.51 -8.55 C-182.69 -6.3, -188.87 -4.05, -200 0" stroke="#475569" stroke-width="2" fill="none"></path></g><g transform="translate(0 0) rotate(0 -100 NaN)"><path d="M-176.51 8.55 C-182.69 6.3, -188.87 4.05, -200 0" stroke="#475569" stroke-width="2" fill="none"></path></g></g><mask></mask><g transform="translate(0 0) rotate(0 41.25 7)"><text x="41.25" y="9.559999999999999" font-family="Segoe UI Emoji" font-size="10px" fill="#64748b" text-anchor="middle" style="white-space: pre;" direction="ltr" dominant-baseline="alphabetic">→ DataClass ref</text></g><g stroke-linecap="round"><g transform="translate(0 0) rotate(0 0 NaN)"><path d="M0 0 C0 0, 0 0, 0 0" stroke="#475569" stroke-width="2" fill="none" stroke-dasharray="8 9.5"></path></g><g transform="translate(0 0) rotate(0 0 NaN)"><path d="MNaN NaN CNaN NaN, NaN NaN, 0 0" stroke="#475569" stroke-width="2" fill="none"></path></g><g transform="translate(0 0) rotate(0 0 NaN)"><path d="MNaN NaN CNaN NaN, NaN NaN, 0 0" stroke="#475569" stroke-width="2" fill="none"></path></g></g><mask></mask><g transform="translate(0 0) rotate(0 30.25 7)"><text x="30.250000000000004" y="9.559999999999999" font-family="Segoe UI Emoji" font-size="10px" fill="#64748b" text-anchor="middle" style="white-space: pre;" direction="ltr" dominant-baseline="alphabetic">instance of</text></g></svg>