<svg version="1.1" xmlns="http://www.w3.org/2000/svg" viewBox="0 0 NaN NaN" width="NaN" height="NaN"><!-- svg-source:excalidraw --><metadata></metadata><defs><style class="style-fonts">
      </style></defs><rect x="0" y="0" width="NaN" height="NaN" fill="#f8fafc"></rect><g transform="translate(0 0) rotate(0 180.40000000000003 11.2)"><text x="180.4" y="15.296" font-family="Segoe UI Emoji" font-size="16px" fill="#1e293b" text-anchor="middle" style="white-space: pre;" direction="ltr" dominant-baseline="alphabetic">Data Modeling — Core Entity Relationships</text></g><g stroke-linecap="round" transform="translate(0 0) rotate(0 95 86)"><path d="M4 0 C40.95 0, 77.9 0, 186 0 C188.67 0, 190 1.33, 190 4 C190 37.53, 190 71.05, 190 168 C190 170.67, 188.67 172, 186 172 C148.58 172, 111.16 172, 4 172 C1.33 172, 0 170.67, 0 168 C0 133.74, 0 99.48, 0 4 C0 1.33, 1.33 0, 4 0" stroke="none" stroke-width="0" fill="#dbeafe"></path><path d="M4 0 C67.12 0, 130.25 0, 186 0 M4 0 C62.77 0, 121.54 0, 186 0 M186 0 C188.67 0, 190 1.33, 190 4 M186 0 C188.67 0, 190 1.33, 190 4 M190 4 C190 53.68, 190 103.36, 190 168 M190 4 C190 40.85, 190 77.7, 190 168 M190 168 C190 170.67, 188.67 172, 186 172 M190 168 C190 170.67, 188.67 172, 186 172 M186 172 C125.66 172, 65.31 172, 4 172 M186 172 C124.39 172, 62.79 172, 4 172 M4 172 C1.33 172, 0 170.67, 0 168 M4 172 C1.33 172, 0 170.67, 0 168 M0 168 C0 112.43, 0 56.85, 0 4 M0 168 C0 111.26, 0 54.52, 0 4 M0 4 C0 1.33, 1.33 0, 4 0 M0 4 C0 1.33, 1.33 0, 4 0" stroke="#3b82f6" stroke-width="1.5" fill="none"></path></g><g stroke-linecap="round" transform="translate(0 0) rotate(0 94 71.5)"><path d="M0 0 L188 0 L188 143 L0 143" stroke="none" stroke-width="0" fill="#ffffff"></path><path d="M0 0 C44 0, 87.99 0, 188 0 M0 0 C60.38 0, 120.77 0, 188 0 M188 0 C188 46.48, 188 92.96, 188 143 M188 0 C188 43.81, 188 87.61, 188 143 M188 143 C133.26 143, 78.51 143, 0 143 M188 143 C142.5 143, 97 143, 0 143 M0 143 C0 105.09, 0 67.19, 0 0 M0 143 C0 105.02, 0 67.04, 0 0" stroke="transparent" stroke-width="2" fill="none"></path></g><g stroke-linecap="round"><g transform="translate(0 0) rotate(0 95 0)"><path d="M0 0 C31.67 0, 158.33 0, 190 0 M0 0 C31.67 0, 158.33 0, 190 0" stroke="#3b82f6" stroke-width="1" fill="none"></path></g></g><mask></mask><g transform="translate(0 0) rotate(0 45.375 7.700000000000003)"><text x="45.37500000000001" y="10.515999999999998" font-family="Segoe UI Emoji" font-size="11px" fill="#1e293b" text-anchor="middle" style="white-space: pre;" direction="ltr" dominant-baseline="alphabetic">ModelDefinition</text></g><g transform="translate(0 0) rotate(0 23.512500000000003 6.649999999999999)"><text x="23.512500000000003" y="9.081999999999999" font-family="Segoe UI Emoji" font-size="9.5px" fill="#1e293b" text-anchor="middle" style="white-space: pre;" direction="ltr" dominant-baseline="alphabetic">+id: UUID</text></g><g transform="translate(0 0) rotate(0 33.962500000000006 6.649999999999999)"><text x="33.962500000000006" y="9.081999999999999" font-family="Segoe UI Emoji" font-size="9.5px" fill="#1e293b" text-anchor="middle" style="white-space: pre;" direction="ltr" dominant-baseline="alphabetic">+name: string</text></g><g transform="translate(0 0) rotate(0 33.962500000000006 6.650000000000006)"><text x="33.962500000000006" y="9.081999999999999" font-family="Segoe UI Emoji" font-size="9.5px" fill="#1e293b" text-anchor="middle" style="white-space: pre;" direction="ltr" dominant-baseline="alphabetic">+slug: string</text></g><g transform="translate(0 0) rotate(0 52.25 6.650000000000006)"><text x="52.25000000000001" y="9.081999999999999" font-family="Segoe UI Emoji" font-size="9.5px" fill="#1e293b" text-anchor="middle" style="white-space: pre;" direction="ltr" dominant-baseline="alphabetic">+description: string</text></g><g transform="translate(0 0) rotate(0 33.962500000000006 6.650000000000006)"><text x="33.962500000000006" y="9.081999999999999" font-family="Segoe UI Emoji" font-size="9.5px" fill="#1e293b" text-anchor="middle" style="white-space: pre;" direction="ltr" dominant-baseline="alphabetic">+icon: string</text></g><g transform="translate(0 0) rotate(0 36.575 6.650000000000006)"><text x="36.575" y="9.081999999999999" font-family="Segoe UI Emoji" font-size="9.5px" fill="#1e293b" text-anchor="middle" style="white-space: pre;" direction="ltr" dominant-baseline="alphabetic">+color: string</text></g><g transform="translate(0 0) rotate(0 52.25 6.650000000000006)"><text x="52.25000000000001" y="9.081999999999999" font-family="Segoe UI Emoji" font-size="9.5px" fill="#1e293b" text-anchor="middle" style="white-space: pre;" direction="ltr" dominant-baseline="alphabetic">+createdAt: DateTime</text></g><g transform="translate(0 0) rotate(0 52.25 6.650000000000006)"><text x="52.25000000000001" y="9.081999999999999" font-family="Segoe UI Emoji" font-size="9.5px" fill="#1e293b" text-anchor="middle" style="white-space: pre;" direction="ltr" dominant-baseline="alphabetic">+updatedAt: DateTime</text></g><g stroke-linecap="round" transform="translate(0 0) rotate(0 95 94.5)"><path d="M4 0 C50.27 0, 96.54 0, 186 0 C188.67 0, 190 1.33, 190 4 C190 75.45, 190 146.9, 190 185 C190 187.67, 188.67 189, 186 189 C131.09 189, 76.18 189, 4 189 C1.33 189, 0 187.67, 0 185 C0 130.79, 0 76.58, 0 4 C0 1.33, 1.33 0, 4 0" stroke="none" stroke-width="0" fill="#dbeafe"></path><path d="M4 0 C51.25 0, 98.5 0, 186 0 M4 0 C50.22 0, 96.45 0, 186 0 M186 0 C188.67 0, 190 1.33, 190 4 M186 0 C188.67 0, 190 1.33, 190 4 M190 4 C190 64.29, 190 124.58, 190 185 M190 4 C190 45.76, 190 87.51, 190 185 M190 185 C190 187.67, 188.67 189, 186 189 M190 185 C190 187.67, 188.67 189, 186 189 M186 189 C137.94 189, 89.88 189, 4 189 M186 189 C145.04 189, 104.08 189, 4 189 M4 189 C1.33 189, 0 187.67, 0 185 M4 189 C1.33 189, 0 187.67, 0 185 M0 185 C0 121.29, 0 57.58, 0 4 M0 185 C0 128.12, 0 71.23, 0 4 M0 4 C0 1.33, 1.33 0, 4 0 M0 4 C0 1.33, 1.33 0, 4 0" stroke="#3b82f6" stroke-width="1.5" fill="none"></path></g><g stroke-linecap="round" transform="translate(0 0) rotate(0 94 80)"><path d="M0 0 L188 0 L188 160 L0 160" stroke="none" stroke-width="0" fill="#ffffff"></path><path d="M0 0 C69.53 0, 139.06 0, 188 0 M0 0 C72.8 0, 145.61 0, 188 0 M188 0 C188 57.3, 188 114.61, 188 160 M188 0 C188 42.5, 188 85, 188 160 M188 160 C123.36 160, 58.73 160, 0 160 M188 160 C127.64 160, 67.27 160, 0 160 M0 160 C0 112.89, 0 65.78, 0 0 M0 160 C0 101.76, 0 43.53, 0 0" stroke="transparent" stroke-width="2" fill="none"></path></g><g stroke-linecap="round"><g transform="translate(0 0) rotate(0 95 0)"><path d="M0 0 C31.67 0, 158.33 0, 190 0 M0 0 C31.67 0, 158.33 0, 190 0" stroke="#3b82f6" stroke-width="1" fill="none"></path></g></g><mask></mask><g transform="translate(0 0) rotate(0 45.375 7.700000000000003)"><text x="45.37500000000001" y="10.515999999999998" font-family="Segoe UI Emoji" font-size="11px" fill="#1e293b" text-anchor="middle" style="white-space: pre;" direction="ltr" dominant-baseline="alphabetic">FieldDefinition</text></g><g transform="translate(0 0) rotate(0 23.51249999999999 6.649999999999999)"><text x="23.512500000000003" y="9.081999999999999" font-family="Segoe UI Emoji" font-size="9.5px" fill="#1e293b" text-anchor="middle" style="white-space: pre;" direction="ltr" dominant-baseline="alphabetic">+id: UUID</text></g><g transform="translate(0 0) rotate(0 36.57499999999999 6.649999999999999)"><text x="36.575" y="9.081999999999999" font-family="Segoe UI Emoji" font-size="9.5px" fill="#1e293b" text-anchor="middle" style="white-space: pre;" direction="ltr" dominant-baseline="alphabetic">+modelId: UUID</text></g><g transform="translate(0 0) rotate(0 33.962500000000006 6.650000000000006)"><text x="33.962500000000006" y="9.081999999999999" font-family="Segoe UI Emoji" font-size="9.5px" fill="#1e293b" text-anchor="middle" style="white-space: pre;" direction="ltr" dominant-baseline="alphabetic">+name: string</text></g><g transform="translate(0 0) rotate(0 36.57499999999999 6.650000000000006)"><text x="36.575" y="9.081999999999999" font-family="Segoe UI Emoji" font-size="9.5px" fill="#1e293b" text-anchor="middle" style="white-space: pre;" direction="ltr" dominant-baseline="alphabetic">+label: string</text></g><g transform="translate(0 0) rotate(0 41.80000000000001 6.650000000000006)"><text x="41.800000000000004" y="9.081999999999999" font-family="Segoe UI Emoji" font-size="9.5px" fill="#1e293b" text-anchor="middle" style="white-space: pre;" direction="ltr" dominant-baseline="alphabetic">+type: FieldType</text></g><g transform="translate(0 0) rotate(0 47.025000000000006 6.650000000000006)"><text x="47.025000000000006" y="9.081999999999999" font-family="Segoe UI Emoji" font-size="9.5px" fill="#1e293b" text-anchor="middle" style="white-space: pre;" direction="ltr" dominant-baseline="alphabetic">+required: boolean</text></g><g transform="translate(0 0) rotate(0 47.025000000000006 6.650000000000006)"><text x="47.025000000000006" y="9.081999999999999" font-family="Segoe UI Emoji" font-size="9.5px" fill="#1e293b" text-anchor="middle" style="white-space: pre;" direction="ltr" dominant-baseline="alphabetic">+displayOrder: int</text></g><g transform="translate(0 0) rotate(0 36.57499999999999 6.650000000000006)"><text x="36.575" y="9.081999999999999" font-family="Segoe UI Emoji" font-size="9.5px" fill="#1e293b" text-anchor="middle" style="white-space: pre;" direction="ltr" dominant-baseline="alphabetic">+config: JSONB</text></g><g transform="translate(0 0) rotate(0 52.25 6.650000000000006)"><text x="52.25000000000001" y="9.081999999999999" font-family="Segoe UI Emoji" font-size="9.5px" fill="#1e293b" text-anchor="middle" style="white-space: pre;" direction="ltr" dominant-baseline="alphabetic">+createdAt: DateTime</text></g><g stroke-linecap="round" transform="translate(0 0) rotate(0 95 98.5)"><path d="M4 0 C56.07 0, 108.14 0, 186 0 C188.67 0, 190 1.33, 190 4 C190 48.84, 190 93.69, 190 193 C190 195.67, 188.67 197, 186 197 C145.52 197, 105.04 197, 4 197 C1.33 197, 0 195.67, 0 193 C0 139.9, 0 86.79, 0 4 C0 1.33, 1.33 0, 4 0" stroke="none" stroke-width="0" fill="#ede9fe"></path><path d="M4 0 C76.45 0, 148.91 0, 186 0 M4 0 C52.85 0, 101.69 0, 186 0 M186 0 C188.67 0, 190 1.33, 190 4 M186 0 C188.67 0, 190 1.33, 190 4 M190 4 C190 57.25, 190 110.49, 190 193 M190 4 C190 69.09, 190 134.19, 190 193 M190 193 C190 195.67, 188.67 197, 186 197 M190 193 C190 195.67, 188.67 197, 186 197 M186 197 C141.44 197, 96.89 197, 4 197 M186 197 C124.53 197, 63.07 197, 4 197 M4 197 C1.33 197, 0 195.67, 0 193 M4 197 C1.33 197, 0 195.67, 0 193 M0 193 C0 150.38, 0 107.76, 0 4 M0 193 C0 131.53, 0 70.06, 0 4 M0 4 C0 1.33, 1.33 0, 4 0 M0 4 C0 1.33, 1.33 0, 4 0" stroke="#7c3aed" stroke-width="1.5" fill="none"></path></g><g stroke-linecap="round" transform="translate(0 0) rotate(0 94 80)"><path d="M0 0 L188 0 L188 160 L0 160" stroke="none" stroke-width="0" fill="#ffffff"></path><path d="M0 0 C51.56 0, 103.11 0, 188 0 M0 0 C55.42 0, 110.83 0, 188 0 M188 0 C188 60.03, 188 120.06, 188 160 M188 0 C188 56.34, 188 112.67, 188 160 M188 160 C141.22 160, 94.44 160, 0 160 M188 160 C130.78 160, 73.56 160, 0 160 M0 160 C0 113.69, 0 67.38, 0 0 M0 160 C0 102.72, 0 45.44, 0 0" stroke="transparent" stroke-width="2" fill="none"></path></g><g stroke-linecap="round"><g transform="translate(0 0) rotate(0 95 0)"><path d="M0 0 C31.67 0, 158.33 0, 190 0 M0 0 C31.67 0, 158.33 0, 190 0" stroke="#7c3aed" stroke-width="1" fill="none"></path></g></g><mask></mask><g transform="translate(0 0) rotate(0 20 5.950000000000003)"><text x="20" y="8.126" font-family="Segoe UI Emoji" font-size="8.5px" fill="#64748b" text-anchor="middle" style="white-space: pre;" direction="ltr" dominant-baseline="alphabetic">«enum»</text></g><g transform="translate(0 0) rotate(0 27.225000000000023 7.700000000000003)"><text x="27.225" y="10.515999999999998" font-family="Segoe UI Emoji" font-size="11px" fill="#1e293b" text-anchor="middle" style="white-space: pre;" direction="ltr" dominant-baseline="alphabetic">FieldType</text></g><g transform="translate(0 0) rotate(0 20 6.649999999999999)"><text x="20" y="9.081999999999999" font-family="Segoe UI Emoji" font-size="9.5px" fill="#1e293b" text-anchor="middle" style="white-space: pre;" direction="ltr" dominant-baseline="alphabetic">Text</text></g><g transform="translate(0 0) rotate(0 20 6.650000000000006)"><text x="20" y="9.081999999999999" font-family="Segoe UI Emoji" font-size="9.5px" fill="#1e293b" text-anchor="middle" style="white-space: pre;" direction="ltr" dominant-baseline="alphabetic">Number</text></g><g transform="translate(0 0) rotate(0 20 6.650000000000006)"><text x="20" y="9.081999999999999" font-family="Segoe UI Emoji" font-size="9.5px" fill="#1e293b" text-anchor="middle" style="white-space: pre;" direction="ltr" dominant-baseline="alphabetic">Boolean</text></g><g transform="translate(0 0) rotate(0 20 6.650000000000006)"><text x="20" y="9.081999999999999" font-family="Segoe UI Emoji" font-size="9.5px" fill="#1e293b" text-anchor="middle" style="white-space: pre;" direction="ltr" dominant-baseline="alphabetic">Date</text></g><g transform="translate(0 0) rotate(0 20 6.650000000000006)"><text x="20" y="9.081999999999999" font-family="Segoe UI Emoji" font-size="9.5px" fill="#1e293b" text-anchor="middle" style="white-space: pre;" direction="ltr" dominant-baseline="alphabetic">Enum</text></g><g transform="translate(0 0) rotate(0 20.899999999999977 6.650000000000006)"><text x="20.900000000000002" y="9.081999999999999" font-family="Segoe UI Emoji" font-size="9.5px" fill="#1e293b" text-anchor="middle" style="white-space: pre;" direction="ltr" dominant-baseline="alphabetic">Relation</text></g><g transform="translate(0 0) rotate(0 23.51249999999999 6.650000000000006)"><text x="23.512500000000003" y="9.081999999999999" font-family="Segoe UI Emoji" font-size="9.5px" fill="#1e293b" text-anchor="middle" style="white-space: pre;" direction="ltr" dominant-baseline="alphabetic">DataClass</text></g><g transform="translate(0 0) rotate(0 20 6.650000000000006)"><text x="20" y="9.081999999999999" font-family="Segoe UI Emoji" font-size="9.5px" fill="#1e293b" text-anchor="middle" style="white-space: pre;" direction="ltr" dominant-baseline="alphabetic">File</text></g><g transform="translate(0 0) rotate(0 20 6.650000000000006)"><text x="20" y="9.081999999999999" font-family="Segoe UI Emoji" font-size="9.5px" fill="#1e293b" text-anchor="middle" style="white-space: pre;" direction="ltr" dominant-baseline="alphabetic">JSON</text></g><g stroke-linecap="round" transform="translate(0 0) rotate(0 95 60.5)"><path d="M4 0 C50.35 0, 96.7 0, 186 0 C188.67 0, 190 1.33, 190 4 C190 38.52, 190 73.04, 190 117 C190 119.67, 188.67 121, 186 121 C139.03 121, 92.05 121, 4 121 C1.33 121, 0 119.67, 0 117 C0 72.18, 0 27.37, 0 4 C0 1.33, 1.33 0, 4 0" stroke="none" stroke-width="0" fill="#dbeafe"></path><path d="M4 0 C62.83 0, 121.66 0, 186 0 M4 0 C47.4 0, 90.8 0, 186 0 M186 0 C188.67 0, 190 1.33, 190 4 M186 0 C188.67 0, 190 1.33, 190 4 M190 4 C190 27.53, 190 51.06, 190 117 M190 4 C190 44.34, 190 84.67, 190 117 M190 117 C190 119.67, 188.67 121, 186 121 M190 117 C190 119.67, 188.67 121, 186 121 M186 121 C141.36 121, 96.72 121, 4 121 M186 121 C131.67 121, 77.33 121, 4 121 M4 121 C1.33 121, 0 119.67, 0 117 M4 121 C1.33 121, 0 119.67, 0 117 M0 117 C0 72.86, 0 28.72, 0 4 M0 117 C0 84.62, 0 52.24, 0 4 M0 4 C0 1.33, 1.33 0, 4 0 M0 4 C0 1.33, 1.33 0, 4 0" stroke="#3b82f6" stroke-width="1.5" fill="none"></path></g><g stroke-linecap="round" transform="translate(0 0) rotate(0 94 46)"><path d="M0 0 L188 0 L188 92 L0 92" stroke="none" stroke-width="0" fill="#ffffff"></path><path d="M0 0 C73.39 0, 146.77 0, 188 0 M0 0 C55.47 0, 110.93 0, 188 0 M188 0 C188 25.03, 188 50.06, 188 92 M188 0 C188 25.35, 188 50.69, 188 92 M188 92 C126.49 92, 64.97 92, 0 92 M188 92 C114.69 92, 41.38 92, 0 92 M0 92 C0 68.78, 0 45.57, 0 0 M0 92 C0 59.23, 0 26.46, 0 0" stroke="transparent" stroke-width="2" fill="none"></path></g><g stroke-linecap="round"><g transform="translate(0 0) rotate(0 95 0)"><path d="M0 0 C31.67 0, 158.33 0, 190 0 M0 0 C31.67 0, 158.33 0, 190 0" stroke="#3b82f6" stroke-width="1" fill="none"></path></g></g><mask></mask><g transform="translate(0 0) rotate(0 57.47500000000001 7.699999999999989)"><text x="57.475" y="10.515999999999998" font-family="Segoe UI Emoji" font-size="11px" fill="#1e293b" text-anchor="middle" style="white-space: pre;" direction="ltr" dominant-baseline="alphabetic">DataClassDefinition</text></g><g transform="translate(0 0) rotate(0 23.512500000000003 6.650000000000006)"><text x="23.512500000000003" y="9.081999999999999" font-family="Segoe UI Emoji" font-size="9.5px" fill="#1e293b" text-anchor="middle" style="white-space: pre;" direction="ltr" dominant-baseline="alphabetic">+id: UUID</text></g><g transform="translate(0 0) rotate(0 33.962500000000006 6.650000000000006)"><text x="33.962500000000006" y="9.081999999999999" font-family="Segoe UI Emoji" font-size="9.5px" fill="#1e293b" text-anchor="middle" style="white-space: pre;" direction="ltr" dominant-baseline="alphabetic">+name: string</text></g><g transform="translate(0 0) rotate(0 52.25 6.650000000000006)"><text x="52.25000000000001" y="9.081999999999999" font-family="Segoe UI Emoji" font-size="9.5px" fill="#1e293b" text-anchor="middle" style="white-space: pre;" direction="ltr" dominant-baseline="alphabetic">+description: string</text></g><g transform="translate(0 0) rotate(0 52.25 6.650000000000006)"><text x="52.25000000000001" y="9.081999999999999" font-family="Segoe UI Emoji" font-size="9.5px" fill="#1e293b" text-anchor="middle" style="white-space: pre;" direction="ltr" dominant-baseline="alphabetic">+createdAt: DateTime</text></g><g transform="translate(0 0) rotate(0 52.25 6.650000000000006)"><text x="52.25000000000001" y="9.081999999999999" font-family="Segoe UI Emoji" font-size="9.5px" fill="#1e293b" text-anchor="middle" style="white-space: pre;" direction="ltr" dominant-baseline="alphabetic">+updatedAt: DateTime</text></g><g stroke-linecap="round" transform="translate(0 0) rotate(0 95 86)"><path d="M4 0 C72.1 0, 140.2 0, 186 0 C188.67 0, 190 1.33, 190 4 C190 55.24, 190 106.49, 190 168 C190 170.67, 188.67 172, 186 172 C134.23 172, 82.46 172, 4 172 C1.33 172, 0 170.67, 0 168 C0 113, 0 57.99, 0 4 C0 1.33, 1.33 0, 4 0" stroke="none" stroke-width="0" fill="#dbeafe"></path><path d="M4 0 C50.2 0, 96.4 0, 186 0 M4 0 C66.23 0, 128.46 0, 186 0 M186 0 C188.67 0, 190 1.33, 190 4 M186 0 C188.67 0, 190 1.33, 190 4 M190 4 C190 43.79, 190 83.58, 190 168 M190 4 C190 52.36, 190 100.72, 190 168 M190 168 C190 170.67, 188.67 172, 186 172 M190 168 C190 170.67, 188.67 172, 186 172 M186 172 C126.86 172, 67.73 172, 4 172 M186 172 C132.14 172, 78.29 172, 4 172 M4 172 C1.33 172, 0 170.67, 0 168 M4 172 C1.33 172, 0 170.67, 0 168 M0 168 C0 134.87, 0 101.74, 0 4 M0 168 C0 115.71, 0 63.42, 0 4 M0 4 C0 1.33, 1.33 0, 4 0 M0 4 C0 1.33, 1.33 0, 4 0" stroke="#3b82f6" stroke-width="1.5" fill="none"></path></g><g stroke-linecap="round" transform="translate(0 0) rotate(0 94 71.5)"><path d="M0 0 L188 0 L188 143 L0 143" stroke="none" stroke-width="0" fill="#ffffff"></path><path d="M0 0 C60.6 0, 121.21 0, 188 0 M0 0 C75.14 0, 150.28 0, 188 0 M188 0 C188 42.5, 188 85, 188 143 M188 0 C188 55.7, 188 111.4, 188 143 M188 143 C146.68 143, 105.35 143, 0 143 M188 143 C130 143, 72 143, 0 143 M0 143 C0 88.93, 0 34.87, 0 0 M0 143 C0 105.61, 0 68.22, 0 0" stroke="transparent" stroke-width="2" fill="none"></path></g><g stroke-linecap="round"><g transform="translate(0 0) rotate(0 95 0)"><path d="M0 0 C31.67 0, 158.33 0, 190 0 M0 0 C31.67 0, 158.33 0, 190 0" stroke="#3b82f6" stroke-width="1" fill="none"></path></g></g><mask></mask><g transform="translate(0 0) rotate(0 42.349999999999994 7.699999999999989)"><text x="42.35" y="10.515999999999998" font-family="Segoe UI Emoji" font-size="11px" fill="#1e293b" text-anchor="middle" style="white-space: pre;" direction="ltr" dominant-baseline="alphabetic">DataClassField</text></g><g transform="translate(0 0) rotate(0 23.51249999999999 6.650000000000006)"><text x="23.512500000000003" y="9.081999999999999" font-family="Segoe UI Emoji" font-size="9.5px" fill="#1e293b" text-anchor="middle" style="white-space: pre;" direction="ltr" dominant-baseline="alphabetic">+id: UUID</text></g><g transform="translate(0 0) rotate(0 47.025000000000006 6.650000000000006)"><text x="47.025000000000006" y="9.081999999999999" font-family="Segoe UI Emoji" font-size="9.5px" fill="#1e293b" text-anchor="middle" style="white-space: pre;" direction="ltr" dominant-baseline="alphabetic">+dataClassId: UUID</text></g><g transform="translate(0 0) rotate(0 33.962500000000006 6.650000000000006)"><text x="33.962500000000006" y="9.081999999999999" font-family="Segoe UI Emoji" font-size="9.5px" fill="#1e293b" text-anchor="middle" style="white-space: pre;" direction="ltr" dominant-baseline="alphabetic">+name: string</text></g><g transform="translate(0 0) rotate(0 36.57499999999999 6.650000000000006)"><text x="36.575" y="9.081999999999999" font-family="Segoe UI Emoji" font-size="9.5px" fill="#1e293b" text-anchor="middle" style="white-space: pre;" direction="ltr" dominant-baseline="alphabetic">+label: string</text></g><g transform="translate(0 0) rotate(0 41.80000000000001 6.650000000000006)"><text x="41.800000000000004" y="9.081999999999999" font-family="Segoe UI Emoji" font-size="9.5px" fill="#1e293b" text-anchor="middle" style="white-space: pre;" direction="ltr" dominant-baseline="alphabetic">+type: FieldType</text></g><g transform="translate(0 0) rotate(0 47.025000000000006 6.650000000000006)"><text x="47.025000000000006" y="9.081999999999999" font-family="Segoe UI Emoji" font-size="9.5px" fill="#1e293b" text-anchor="middle" style="white-space: pre;" direction="ltr" dominant-baseline="alphabetic">+required: boolean</text></g><g transform="translate(0 0) rotate(0 47.025000000000006 6.650000000000006)"><text x="47.025000000000006" y="9.081999999999999" font-family="Segoe UI Emoji" font-size="9.5px" fill="#1e293b" text-anchor="middle" style="white-space: pre;" direction="ltr" dominant-baseline="alphabetic">+displayOrder: int</text></g><g transform="translate(0 0) rotate(0 36.57499999999999 6.649999999999977)"><text x="36.575" y="9.081999999999999" font-family="Segoe UI Emoji" font-size="9.5px" fill="#1e293b" text-anchor="middle" style="white-space: pre;" direction="ltr" dominant-baseline="alphabetic">+config: JSONB</text></g><g stroke-linecap="round" transform="translate(0 0) rotate(0 95 69)"><path d="M4 0 C55.49 0, 106.97 0, 186 0 C188.67 0, 190 1.33, 190 4 C190 30.3, 190 56.6, 190 134 C190 136.67, 188.67 138, 186 138 C148.48 138, 110.96 138, 4 138 C1.33 138, 0 136.67, 0 134 C0 102.46, 0 70.91, 0 4 C0 1.33, 1.33 0, 4 0" stroke="none" stroke-width="0" fill="#dcfce7"></path><path d="M4 0 C45.52 0, 87.04 0, 186 0 M4 0 C42.09 0, 80.18 0, 186 0 M186 0 C188.67 0, 190 1.33, 190 4 M186 0 C188.67 0, 190 1.33, 190 4 M190 4 C190 49.1, 190 94.2, 190 134 M190 4 C190 32.39, 190 60.78, 190 134 M190 134 C190 136.67, 188.67 138, 186 138 M190 134 C190 136.67, 188.67 138, 186 138 M186 138 C132.49 138, 78.97 138, 4 138 M186 138 C146.06 138, 106.12 138, 4 138 M4 138 C1.33 138, 0 136.67, 0 134 M4 138 C1.33 138, 0 136.67, 0 134 M0 134 C0 89.86, 0 45.72, 0 4 M0 134 C0 96.05, 0 58.1, 0 4 M0 4 C0 1.33, 1.33 0, 4 0 M0 4 C0 1.33, 1.33 0, 4 0" stroke="#16a34a" stroke-width="1.5" fill="none"></path></g><g stroke-linecap="round" transform="translate(0 0) rotate(0 94 54.5)"><path d="M0 0 L188 0 L188 109 L0 109" stroke="none" stroke-width="0" fill="#ffffff"></path><path d="M0 0 C38.31 0, 76.63 0, 188 0 M0 0 C42.97 0, 85.93 0, 188 0 M188 0 C188 38.82, 188 77.65, 188 109 M188 0 C188 37.36, 188 74.72, 188 109 M188 109 C148.09 109, 108.17 109, 0 109 M188 109 C122.3 109, 56.6 109, 0 109 M0 109 C0 81.84, 0 54.67, 0 0 M0 109 C0 70.11, 0 31.22, 0 0" stroke="transparent" stroke-width="2" fill="none"></path></g><g stroke-linecap="round"><g transform="translate(0 0) rotate(0 95 0)"><path d="M0 0 C31.67 0, 158.33 0, 190 0 M0 0 C31.67 0, 158.33 0, 190 0" stroke="#16a34a" stroke-width="1" fill="none"></path></g></g><mask></mask><g transform="translate(0 0) rotate(0 20 7.699999999999989)"><text x="20" y="10.515999999999998" font-family="Segoe UI Emoji" font-size="11px" fill="#1e293b" text-anchor="middle" style="white-space: pre;" direction="ltr" dominant-baseline="alphabetic">Record</text></g><g transform="translate(0 0) rotate(0 23.512500000000003 6.649999999999977)"><text x="23.512500000000003" y="9.081999999999999" font-family="Segoe UI Emoji" font-size="9.5px" fill="#1e293b" text-anchor="middle" style="white-space: pre;" direction="ltr" dominant-baseline="alphabetic">+id: UUID</text></g><g transform="translate(0 0) rotate(0 36.575 6.649999999999977)"><text x="36.575" y="9.081999999999999" font-family="Segoe UI Emoji" font-size="9.5px" fill="#1e293b" text-anchor="middle" style="white-space: pre;" direction="ltr" dominant-baseline="alphabetic">+modelId: UUID</text></g><g transform="translate(0 0) rotate(0 31.35 6.649999999999977)"><text x="31.35" y="9.081999999999999" font-family="Segoe UI Emoji" font-size="9.5px" fill="#1e293b" text-anchor="middle" style="white-space: pre;" direction="ltr" dominant-baseline="alphabetic">+data: JSONB</text></g><g transform="translate(0 0) rotate(0 52.25 6.649999999999977)"><text x="52.25000000000001" y="9.081999999999999" font-family="Segoe UI Emoji" font-size="9.5px" fill="#1e293b" text-anchor="middle" style="white-space: pre;" direction="ltr" dominant-baseline="alphabetic">+createdAt: DateTime</text></g><g transform="translate(0 0) rotate(0 52.25 6.649999999999977)"><text x="52.25000000000001" y="9.081999999999999" font-family="Segoe UI Emoji" font-size="9.5px" fill="#1e293b" text-anchor="middle" style="white-space: pre;" direction="ltr" dominant-baseline="alphabetic">+updatedAt: DateTime</text></g><g transform="translate(0 0) rotate(0 41.80000000000001 6.649999999999977)"><text x="41.800000000000004" y="9.081999999999999" font-family="Segoe UI Emoji" font-size="9.5px" fill="#1e293b" text-anchor="middle" style="white-space: pre;" direction="ltr" dominant-baseline="alphabetic">+createdBy: UUID</text></g><g stroke-linecap="round"><g transform="translate(0 0) rotate(0 25 4.25)"><path d="M0 0 C8.33 1.42, 41.67 7.08, 50 8.5 M0 0 C8.33 1.42, 41.67 7.08, 50 8.5" stroke="#475569" stroke-width="1.5" fill="none"></path></g><g transform="translate(0 0) rotate(0 25 4.25)"><path d="M25.41 12.99 C33.87 11.45, 42.33 9.9, 50 8.5 M25.41 12.99 C31.87 11.81, 38.33 10.63, 50 8.5" stroke="#475569" stroke-width="1.5" fill="none"></path></g><g transform="translate(0 0) rotate(0 25 4.25)"><path d="M28.27 -3.87 C35.75 0.39, 43.22 4.64, 50 8.5 M28.27 -3.87 C33.98 -0.62, 39.69 2.63, 50 8.5" stroke="#475569" stroke-width="1.5" fill="none"></path></g></g><mask></mask><g transform="translate(0 0) rotate(0 20 7)"><text x="20" y="9.559999999999999" font-family="Segoe UI Emoji" font-size="10px" fill="#64748b" text-anchor="middle" style="white-space: pre;" direction="ltr" dominant-baseline="alphabetic">1 *--</text></g><g stroke-linecap="round"><g transform="translate(0 0) rotate(0 25 2)"><path d="M0 0 C8.33 0.67, 41.67 3.33, 50 4 M0 0 C8.33 0.67, 41.67 3.33, 50 4" stroke="#475569" stroke-width="1.5" fill="none"></path></g><g transform="translate(0 0) rotate(0 25 2)"><path d="M25.9 10.65 C31.78 9.03, 37.67 7.4, 50 4 M25.9 10.65 C35.16 8.1, 44.42 5.54, 50 4" stroke="#475569" stroke-width="1.5" fill="none"></path></g><g transform="translate(0 0) rotate(0 25 2)"><path d="M27.26 -6.4 C32.82 -3.86, 38.37 -1.32, 50 4 M27.26 -6.4 C36 -2.4, 44.73 1.59, 50 4" stroke="#475569" stroke-width="1.5" fill="none"></path></g></g><mask></mask><g transform="translate(0 0) rotate(0 22 7)"><text x="22" y="9.559999999999999" font-family="Segoe UI Emoji" font-size="10px" fill="#64748b" text-anchor="middle" style="white-space: pre;" direction="ltr" dominant-baseline="alphabetic">has type</text></g><g stroke-linecap="round"><g transform="translate(0 0) rotate(0 25 12.75)"><path d="M0 0 C8.33 4.25, 41.67 21.25, 50 25.5 M0 0 C8.33 4.25, 41.67 21.25, 50 25.5" stroke="#475569" stroke-width="1.5" fill="none"></path></g><g transform="translate(0 0) rotate(0 25 12.75)"><path d="M25.19 22.44 C31.76 23.25, 38.33 24.06, 50 25.5 M25.19 22.44 C33.22 23.43, 41.25 24.42, 50 25.5" stroke="#475569" stroke-width="1.5" fill="none"></path></g><g transform="translate(0 0) rotate(0 25 12.75)"><path d="M32.96 7.21 C37.47 12.06, 41.99 16.9, 50 25.5 M32.96 7.21 C38.47 13.13, 43.99 19.05, 50 25.5" stroke="#475569" stroke-width="1.5" fill="none"></path></g></g><mask></mask><g transform="translate(0 0) rotate(0 20 7)"><text x="20" y="9.559999999999999" font-family="Segoe UI Emoji" font-size="10px" fill="#64748b" text-anchor="middle" style="white-space: pre;" direction="ltr" dominant-baseline="alphabetic">1 *--</text></g><g stroke-linecap="round"><g transform="translate(0 0) rotate(0 25 -109.5)"><path d="M0 0 C8.33 -36.5, 41.67 -182.5, 50 -219" stroke="#475569" stroke-width="2" fill="none" stroke-dasharray="8 9.5"></path></g><g transform="translate(0 0) rotate(0 25 -109.5)"><path d="M53.11 -194.19 C51.93 -203.6, 50.75 -213, 50 -219" stroke="#475569" stroke-width="2" fill="none"></path></g><g transform="translate(0 0) rotate(0 25 -109.5)"><path d="M36.44 -198 C41.58 -205.96, 46.72 -213.92, 50 -219" stroke="#475569" stroke-width="2" fill="none"></path></g></g><mask></mask><g transform="translate(0 0) rotate(0 22 7)"><text x="22" y="9.559999999999999" font-family="Segoe UI Emoji" font-size="10px" fill="#64748b" text-anchor="middle" style="white-space: pre;" direction="ltr" dominant-baseline="alphabetic">has type</text></g><g stroke-linecap="round"><g transform="translate(0 0) rotate(0 -100 NaN)"><path d="M0 0 C-33.33 0, -166.67 0, -200 0" stroke="#475569" stroke-width="2" fill="none" stroke-dasharray="8 9.5"></path></g><g transform="translate(0 0) rotate(0 -100 NaN)"><path d="M-176.51 -8.55 C-181.51 -6.73, -186.5 -4.91, -200 0" stroke="#475569" stroke-width="2" fill="none"></path></g><g transform="translate(0 0) rotate(0 -100 NaN)"><path d="M-176.51 8.55 C-181.51 6.73, -186.5 4.91, -200 0" stroke="#475569" stroke-width="2" fill="none"></path></g></g><mask></mask><g transform="translate(0 0) rotate(0 41.25 7)"><text x="41.25" y="9.559999999999999" font-family="Segoe UI Emoji" font-size="10px" fill="#64748b" text-anchor="middle" style="white-space: pre;" direction="ltr" dominant-baseline="alphabetic">→ DataClass ref</text></g><g stroke-linecap="round"><g transform="translate(0 0) rotate(0 0 NaN)"><path d="M0 0 C0 0, 0 0, 0 0" stroke="#475569" stroke-width="2" fill="none" stroke-dasharray="8 9.5"></path></g><g transform="translate(0 0) rotate(0 0 NaN)"><path d="MNaN NaN CNaN NaN, NaN NaN, 0 0" stroke="#475569" stroke-width="2" fill="none"></path></g><g transform="translate(0 0) rotate(0 0 NaN)"><path d="MNaN NaN CNaN NaN, NaN NaN, 0 0" stroke="#475569" stroke-width="2" fill="none"></path></g></g><mask></mask><g transform="translate(0 0) rotate(0 30.25 7)"><text x="30.250000000000004" y="9.559999999999999" font-family="Segoe UI Emoji" font-size="10px" fill="#64748b" text-anchor="middle" style="white-space: pre;" direction="ltr" dominant-baseline="alphabetic">instance of</text></g></svg>